<?xml version="1.0" encoding="utf-8"?>
<!-- Generator: Adobe Illustrator 16.0.3, SVG Export Plug-In . SVG Version: 6.00 Build 0)  -->
<!DOCTYPE svg PUBLIC "-//W3C//DTD SVG 1.1//EN" "http://www.w3.org/Graphics/SVG/1.1/DTD/svg11.dtd">
<svg version="1.1" id="INFRASTRUCTURE_final_xA0_Image_1_"
	 xmlns="http://www.w3.org/2000/svg" xmlns:xlink="http://www.w3.org/1999/xlink" x="0px" y="0px" width="1200px" height="1200px"
	 viewBox="0 0 1200 1200" enable-background="new 0 0 1200 1200" xml:space="preserve">
<g>
	<g>
		<path fill-rule="evenodd" clip-rule="evenodd" d="M1200.951,1200.951c-400.017,0-799.984,0-1199.902,0
			c0-400.017,0-799.984,0-1199.902c400.017,0,799.984,0,1199.902,0C1200.951,401.065,1200.951,801.033,1200.951,1200.951z
			 M601.464,1170.543c15.498,0,30.996,0,46.494,0c148.48,0,296.962-0.057,445.442,0.063c21.74,0.018,39.966-7.608,54.799-23.27
			c19.021-20.082,27.619-44.523,27.672-71.754c0.229-117.484,0.071-234.97,0.222-352.454c0.007-5.104-1.427-6.377-6.419-6.362
			c-57.658,0.168-115.318,0.108-172.978,0.104c-3.332,0-6.665-0.058-9.998-0.042c-5.676,0.025-6.954,1.438-6.688,7.257
			c0.114,2.495,0.254,4.991,0.256,7.487c0.048,58.491,0.041,116.983,0.189,175.475c0.011,4.19-1.607,5.71-5.503,5.822
			c-25.271,0.731-50.541,1.58-75.813,2.264c-22.278,0.602-44.56,1.104-66.842,1.506c-6.196,0.111-7.083-0.982-7.082-6.811
			c0.011-58.492,0.018-116.984,0.03-175.478c0.001-2.999,0.094-6,0.044-8.998c-0.095-5.653-1.802-7.358-7.533-7.614
			c-1.331-0.06-2.666-0.013-3.999-0.008c-118.274,0.48-236.549,1.014-354.823,1.418c-44.493,0.152-88.988,0.008-133.482,0.001
			c-8.371-0.001-8.814,0.556-8.809,8.67c0.047,58.825,0.053,117.651,0.039,176.478c-0.002,6.071-0.985,6.894-6.965,6.892
			c-48.161-0.019-96.321-0.028-144.482-0.011c-7.412,0.003-7.93-0.409-7.928-7.93c0.018-58.992,0.047-117.984,0.084-176.977
			c0.003-5.935-0.999-7.071-6.891-7.109c-8.665-0.056-17.333-0.122-25.996,0.01c-30.288,0.461-60.573,1.121-90.861,1.403
			c-4.988,0.046-6.044,1.76-6.04,6.38c0.11,114.985,0.095,229.971,0.074,344.956c-0.002,12.548,1.43,24.837,5.214,36.871
			c12.798,40.69,41.241,61.761,83.635,61.761C278.172,1170.543,439.817,1170.543,601.464,1170.543z M28.106,450.989
			c3.273-2.363,5.494-4.081,7.826-5.634c28.896-19.244,49.012-46.58,68.284-74.587c7.224-10.499,13.645-21.581,19.955-32.669
			c6.056-10.641,11.628-21.564,17.163-32.49c5.007-9.885,9.713-19.924,14.464-29.936c0.907-1.911,1.947-4.005,1.983-6.031
			c0.069-3.774,1.604-4.633,5.196-4.624c49.494,0.113,98.989,0.137,148.483-0.029c4.773-0.016,5.553,1.826,5.298,5.93
			c-0.21,3.378-0.57,7.31,0.851,10.132c7.149,14.196,14.514,28.31,22.462,42.072c10.272,17.787,20.522,35.649,31.976,52.676
			c12.039,17.898,24.978,35.257,38.454,52.105c15.734,19.672,33.648,37.363,53.833,52.549c11.102,8.352,22.775,15.85,35.445,21.76
			c7.031,3.279,14.443,5.359,21.582,8.062c10.035,3.8,20.13,3.721,30.276,4.438c5.232,0.37,10.61-0.483,15.852-1.261
			c8.815-1.308,17.821-2.182,26.291-4.746c9.039-2.736,17.762-6.797,26.238-11.047c11.17-5.6,22.695-10.933,32.76-18.194
			c18.012-12.995,35.944-26.37,52.25-41.389c18.45-16.994,36.058-35.141,52.245-54.296c20.794-24.607,40.004-50.571,59.438-76.297
			c4.269-5.651,8.844-11.701,8.763-19.712c-0.03-3.001,7.013-7.123,9.864-5.465c4.982,2.896,9.617,0.934,14.497,0.689
			c15.274-0.765,30.563-1.46,45.853-1.624c26.313-0.28,52.629-0.125,78.944-0.195c3.469-0.009,5.775,0.939,6.019,4.953
			c0.094,1.552,0.857,3.229,1.765,4.538c5.015,7.239,9.922,14.574,15.321,21.523c13.463,17.325,26.813,34.759,40.88,51.589
			c14.396,17.224,29.379,33.974,44.484,50.586c23.55,25.899,48.614,50.187,77.811,69.807c4.57,3.071,9.546,5.539,15.068,8.707
			c0-2.855,0-4.677,0-6.498c-0.007-118.486,0.047-236.974-0.086-355.46c-0.021-17.899-4.32-34.999-13.175-50.613
			c-15.922-28.08-39.146-43.365-72.563-43.341c-326.797,0.241-653.595,0.155-980.392,0.123c-23.49-0.002-42.61,9.227-57.669,26.939
			c-17.503,20.589-24.45,44.851-24.433,71.539c0.065,102.655,0.025,205.311,0.041,307.966
			C27.704,445.488,27.908,447.441,28.106,450.989z M824.955,497.419c0.02,0,0.039,0,0.059,0c0-51.802,0.028-103.604-0.098-155.405
			c-0.006-2.18-1.447-4.355-2.22-6.533c-1.986,1.581-4.184,2.964-5.893,4.802c-1.433,1.541-2.124,3.747-3.441,5.424
			c-5.81,7.393-11.766,14.67-17.597,22.047c-9.142,11.563-18.01,23.352-27.417,34.694c-5.498,6.631-12.027,12.399-17.685,18.91
			c-3.2,3.683-6.193,7.563-6.184,13.168c0.127,72.456,0.091,144.912,0.107,217.369c0.002,8.588,1.14,9.688,9.892,9.69
			c19.654,0.008,39.31-0.019,58.964,0.003c10.538,0.011,11.512-0.912,11.512-11.261
			C824.954,599.357,824.955,548.389,824.955,497.419z M316.688,499.464c-0.143,0-0.286,0-0.429,0
			c0,51.806,0.012,103.611-0.023,155.417c-0.003,3.751,1.23,6.207,5.348,6.215c17.326,0.033,34.651,0.061,51.977,0.02
			c3.663-0.009,5.432-2.19,5.526-5.73c0.08-2.996,0.018-5.996,0.019-8.995c0.002-71.137-0.03-142.273,0.057-213.409
			c0.009-7.689-2.472-14.067-7.079-20.212c-7.856-10.478-15.466-21.188-22.456-32.256c-9.384-14.857-18.026-30.181-27.163-45.197
			c-0.837-1.376-2.949-1.977-4.47-2.938c-0.713,1.735-2.033,3.473-2.031,5.207c0.008,6.48,0.68,12.959,0.688,19.438
			C316.721,404.504,316.688,451.983,316.688,499.464z M1033.593,524.033c0-42.643-0.101-85.285,0.113-127.927
			c0.03-6.149-2.011-10.923-5.813-15.379c-3.019-3.538-5.936-7.169-8.747-10.874c-10.945-14.423-21.809-28.907-32.769-43.317
			c-1.103-1.449-2.654-2.558-3.998-3.823c-0.846,1.99-2.353,3.96-2.416,5.975c-0.19,6.138,0.304,12.293,0.305,18.441
			c0.027,98.444,0.023,196.888,0.008,295.332c-0.001,3.823-0.044,7.658-0.328,11.469c-0.477,6.392,0.665,7.748,7.057,7.746
			c12.326-0.003,24.652-0.011,36.979-0.025c8.942-0.011,9.603-0.663,9.604-9.69C1033.594,609.317,1033.59,566.675,1033.593,524.033z
			 M157.311,494.021c0-50.319-0.02-100.639,0.029-150.957c0.005-5.318,0.632-10.641,0.518-15.951c-0.044-2.023-1.362-4.02-2.1-6.028
			c-1.568,1.214-3.602,2.122-4.632,3.689c-9.931,15.116-19.103,30.771-29.694,45.4c-8.037,11.103-10.843,22.606-10.766,36.192
			c0.456,80.308,0.229,160.619,0.23,240.93c0,2.666-0.058,5.332,0.006,7.996c0.091,3.831,2.088,5.86,5.945,5.861
			c11.83,0.006,23.659-0.019,35.489-0.051c3.725-0.011,5.502-1.978,5.399-5.646c-0.107-3.827-0.404-7.653-0.406-11.479
			C157.302,593.993,157.311,544.007,157.311,494.021z M393.99,553.368c0,13.664,0,27.329,0,40.993
			c-0.001,19.496-0.04,38.992,0.017,58.489c0.019,6.157,1.65,8.24,6.842,8.265c21.162,0.102,42.325,0.027,63.488,0.043
			c4.12,0.002,5.619-2.249,5.447-6.056c-0.158-3.492-0.448-6.984-0.452-10.478c-0.036-30.994-0.079-61.988,0.008-92.982
			c0.035-12.32,0.591-24.642,0.428-36.956c-0.031-2.315-1.804-5.288-3.698-6.78c-8.346-6.566-17.652-12.021-25.451-19.148
			c-12.89-11.78-24.818-24.607-37.333-36.808c-1.796-1.751-4.602-2.467-6.939-3.661c-0.781,2.365-2.232,4.729-2.243,7.098
			C393.953,488.047,394.002,520.708,393.99,553.368z M1049.105,535.316c0.048,0.001,0.096,0.001,0.144,0.001
			c0,37.996-0.003,75.993,0.009,113.99c0.001,2.163,0.016,4.338,0.223,6.488c0.334,3.482,2.366,5.646,5.844,5.668
			c15.995,0.101,31.993,0.089,47.988-0.009c3.774-0.023,5.757-2.256,5.852-6.063c0.041-1.665,0.074-3.331,0.074-4.997
			c0.009-57.162-0.05-114.324,0.116-171.485c0.017-5.688-2.104-9.925-5.806-13.763c-16.038-16.63-32.057-33.279-48.175-49.832
			c-1.132-1.162-3.017-1.591-4.552-2.361c-0.572,1.625-1.64,3.249-1.644,4.876C1049.085,456.992,1049.105,496.154,1049.105,535.316z
			 M692.732,661.523c10.324,0,20.647-0.062,30.971,0.03c4.189,0.038,6.546-1.229,6.512-5.988c-0.225-31.799-0.413-63.6-0.402-95.399
			c0.013-36.628,0.267-73.256,0.304-109.885c0.002-1.618-1.112-3.237-1.707-4.855c-1.716,0.675-3.811,0.935-5.082,2.096
			c-6.016,5.498-11.494,11.615-17.741,16.819c-12.887,10.736-26.196,20.964-39.17,31.598c-1.58,1.295-2.89,3.729-3.084,5.755
			c-0.648,6.768-0.87,13.587-1.01,20.391c-0.742,36.277-1.298,72.559-2.188,108.832c-0.199,8.098-0.997,16.257-2.435,24.222
			c-0.916,5.069-0.699,6.374,4.563,6.386C672.419,661.546,682.576,661.529,692.732,661.523z M97.696,537.473
			c0.201,0,0.401-0.001,0.603-0.001c0-41.142,0.027-82.283-0.099-123.424c-0.005-1.669-1.451-3.333-2.226-4.999
			c-1.374,0.693-3.267,1.022-4.044,2.133C80,428.224,65.076,442.475,50.005,456.605c-4.081,3.827-7.195,8.076-7.187,14.213
			c0.082,60.98,0.028,121.96,0.049,182.94c0.002,5.93,1.539,7.391,7.443,7.4c11.663,0.021,23.326-0.027,34.988-0.028
			c12.5-0.001,12.5,0.008,12.396-12.195c-0.001-0.166,0.001-0.333,0.001-0.5C97.696,611.448,97.696,574.46,97.696,537.473z
			 M645.98,584.341c-0.133,0-0.266,0-0.399,0c0-21.812,0.034-43.624-0.057-65.436c-0.009-2.008-0.82-4.012-1.26-6.018
			c-2.137,0.484-4.451,0.597-6.38,1.517c-9.194,4.382-18.082,9.467-27.469,13.362c-8.316,3.451-17.134,5.707-25.763,8.385
			c-1.219,0.379-2.625,0.245-3.939,0.204c-6.785-0.209-8.307,1.219-8.306,7.919c0.001,25.643,0.007,51.286,0.007,76.929
			c0,10.823-0.084,21.646,0.017,32.469c0.053,5.705,1.6,7.366,7.034,7.395c20.313,0.106,40.628,0.066,60.942,0.113
			c4.045,0.01,5.603-2.047,5.596-5.928C645.958,631.615,645.98,607.979,645.98,584.341z M484.279,589.955c0.011,0,0.021,0,0.033,0
			c0,20.646-0.006,41.291,0.003,61.937c0.003,7.653,1.374,9.063,8.992,9.078c17.815,0.033,35.631,0.018,53.445,0.031
			c6.084,0.005,7.533-1.514,7.521-7.728c-0.062-28.803-0.103-57.604-0.138-86.407c-0.009-7.159,0.018-14.318,0.055-21.478
			c0.017-3.292-0.892-6.261-4.464-6.839c-6.055-0.98-12.25-1.143-18.276-2.247c-7.19-1.318-14.296-3.148-21.377-4.994
			c-3.313-0.863-6.566-2.09-9.692-3.496c-4.122-1.854-8.028-4.199-12.186-5.961c-0.772-0.327-2.857,0.826-3.328,1.789
			c-0.68,1.389-0.566,3.229-0.568,4.877C484.269,548.997,484.279,569.476,484.279,589.955z M1125.023,574.017
			c0.021,0,0.042,0,0.063,0c0,4.165-0.001,8.33,0.001,12.495c0.01,22.491,0.062,44.982-0.003,67.473
			c-0.014,4.501,1.33,7.563,6.36,7.608c7.163,0.065,14.327,0.07,21.489,0.036c3.515-0.017,5.183-1.943,5.018-5.398
			c-0.15-3.157-0.606-6.309-0.61-9.463c-0.051-41.15-0.087-82.301,0.053-123.45c0.009-2.413,1.137-5.084,2.475-7.166
			c1.798-2.799,1.802-4.944-0.853-6.864c-8.576-6.205-17.13-12.448-25.867-18.419c-1.697-1.16-4.305-1.783-6.26-1.416
			c-0.908,0.17-1.779,3.304-1.787,5.098C1124.988,521.038,1125.023,547.527,1125.023,574.017z M28.391,652.703
			c0.065,0,0.13,0,0.194,0c0-57.108,0-114.216,0-171.324c-0.064,0-0.129,0-0.194,0C28.391,538.487,28.391,595.595,28.391,652.703z"
			/>
		<path fill-rule="evenodd" clip-rule="evenodd" fill="#FFFFFF" d="M601.464,1170.543c-161.646,0-323.292,0-484.938,0
			c-42.395,0-70.837-21.07-83.635-61.761c-3.785-12.034-5.217-24.323-5.214-36.871c0.021-114.985,0.036-229.971-0.074-344.956
			c-0.004-4.62,1.052-6.334,6.04-6.38c30.289-0.282,60.574-0.942,90.861-1.403c8.664-0.132,17.331-0.065,25.996-0.01
			c5.893,0.038,6.895,1.175,6.891,7.109c-0.037,58.992-0.066,117.984-0.084,176.977c-0.002,7.521,0.516,7.933,7.928,7.93
			c48.161-0.018,96.321-0.008,144.482,0.011c5.979,0.002,6.963-0.82,6.965-6.892c0.014-58.826,0.008-117.652-0.039-176.478
			c-0.006-8.114,0.438-8.671,8.809-8.67c44.494,0.007,88.989,0.151,133.482-0.001c118.274-0.404,236.549-0.938,354.823-1.418
			c1.333-0.005,2.668-0.052,3.999,0.008c5.731,0.256,7.438,1.961,7.533,7.614c0.05,2.998-0.043,5.999-0.044,8.998
			c-0.013,58.493-0.02,116.985-0.03,175.478c-0.001,5.828,0.886,6.922,7.082,6.811c22.282-0.402,44.563-0.904,66.842-1.506
			c25.272-0.684,50.542-1.532,75.813-2.264c3.896-0.112,5.514-1.632,5.503-5.822c-0.148-58.491-0.142-116.983-0.189-175.475
			c-0.002-2.496-0.142-4.992-0.256-7.487c-0.266-5.818,1.013-7.231,6.688-7.257c3.333-0.016,6.666,0.042,9.998,0.042
			c57.659,0.004,115.319,0.063,172.978-0.104c4.992-0.015,6.426,1.258,6.419,6.362c-0.15,117.484,0.008,234.97-0.222,352.454
			c-0.053,27.23-8.651,51.672-27.672,71.754c-14.833,15.661-33.059,23.287-54.799,23.27c-148.48-0.119-296.962-0.063-445.442-0.063
			C632.46,1170.543,616.962,1170.543,601.464,1170.543z"/>
		<path fill-rule="evenodd" clip-rule="evenodd" fill="#FFFFFF" d="M28.106,450.989c-0.198-3.548-0.403-5.501-0.403-7.454
			c-0.016-102.655,0.025-205.311-0.041-307.966c-0.017-26.688,6.93-50.95,24.433-71.539c15.059-17.713,34.179-26.941,57.669-26.939
			c326.797,0.032,653.595,0.118,980.392-0.123c33.416-0.024,56.641,15.261,72.563,43.341c8.854,15.614,13.154,32.714,13.175,50.613
			c0.133,118.486,0.079,236.974,0.086,355.46c0,1.821,0,3.643,0,6.498c-5.522-3.168-10.498-5.636-15.068-8.707
			c-29.196-19.62-54.261-43.907-77.811-69.807c-15.105-16.612-30.088-33.362-44.484-50.586
			c-14.066-16.83-27.417-34.264-40.88-51.589c-5.399-6.949-10.307-14.284-15.321-21.523c-0.907-1.31-1.671-2.986-1.765-4.538
			c-0.243-4.014-2.55-4.962-6.019-4.953c-26.315,0.07-52.632-0.085-78.944,0.195c-15.289,0.164-30.578,0.859-45.853,1.624
			c-4.88,0.244-9.515,2.207-14.497-0.689c-2.852-1.658-9.895,2.464-9.864,5.465c0.081,8.011-4.494,14.061-8.763,19.712
			c-19.435,25.726-38.645,51.689-59.438,76.297c-16.188,19.155-33.795,37.302-52.245,54.296
			c-16.306,15.019-34.238,28.394-52.25,41.389c-10.064,7.262-21.59,12.595-32.76,18.194c-8.477,4.25-17.199,8.311-26.238,11.047
			c-8.47,2.564-17.476,3.438-26.291,4.746c-5.241,0.777-10.619,1.631-15.852,1.261c-10.146-0.718-20.241-0.639-30.276-4.438
			c-7.139-2.702-14.551-4.782-21.582-8.062c-12.67-5.91-24.344-13.408-35.445-21.76c-20.185-15.186-38.099-32.877-53.833-52.549
			c-13.477-16.849-26.415-34.207-38.454-52.105c-11.453-17.026-21.703-34.889-31.976-52.676
			c-7.948-13.763-15.313-27.876-22.462-42.072c-1.421-2.822-1.061-6.754-0.851-10.132c0.255-4.104-0.524-5.945-5.298-5.93
			c-49.494,0.166-98.989,0.143-148.483,0.029c-3.592-0.009-5.127,0.85-5.196,4.624c-0.037,2.026-1.076,4.12-1.983,6.031
			c-4.751,10.012-9.457,20.051-14.464,29.936c-5.535,10.926-11.107,21.85-17.163,32.49c-6.31,11.088-12.73,22.17-19.955,32.669
			c-19.272,28.007-39.388,55.343-68.284,74.587C33.601,446.908,31.379,448.626,28.106,450.989z"/>
		<path fill-rule="evenodd" clip-rule="evenodd" fill="#FFFFFF" d="M824.955,497.419c0,50.97-0.001,101.938,0,152.908
			c0,10.349-0.974,11.271-11.512,11.261c-19.654-0.021-39.31,0.005-58.964-0.003c-8.752-0.003-9.89-1.103-9.892-9.69
			c-0.017-72.457,0.02-144.913-0.107-217.369c-0.01-5.604,2.983-9.485,6.184-13.168c5.657-6.511,12.187-12.279,17.685-18.91
			c9.407-11.343,18.275-23.131,27.417-34.694c5.831-7.377,11.787-14.654,17.597-22.047c1.317-1.677,2.009-3.883,3.441-5.424
			c1.709-1.838,3.906-3.221,5.893-4.802c0.772,2.178,2.214,4.354,2.22,6.533c0.126,51.802,0.098,103.604,0.098,155.405
			C824.994,497.419,824.975,497.419,824.955,497.419z"/>
		<path fill-rule="evenodd" clip-rule="evenodd" fill="#FFFFFF" d="M316.688,499.464c0-47.48,0.032-94.96-0.037-142.44
			c-0.009-6.479-0.681-12.958-0.688-19.438c-0.002-1.734,1.318-3.472,2.031-5.207c1.521,0.961,3.633,1.562,4.47,2.938
			c9.137,15.017,17.779,30.34,27.163,45.197c6.99,11.068,14.6,21.778,22.456,32.256c4.607,6.145,7.088,12.522,7.079,20.212
			c-0.087,71.136-0.055,142.272-0.057,213.409c-0.001,2.999,0.062,5.999-0.019,8.995c-0.095,3.54-1.863,5.722-5.526,5.73
			c-17.325,0.041-34.65,0.014-51.977-0.02c-4.117-0.008-5.351-2.464-5.348-6.215c0.035-51.806,0.023-103.611,0.023-155.417
			C316.402,499.464,316.546,499.464,316.688,499.464z"/>
		<path fill-rule="evenodd" clip-rule="evenodd" fill="#FFFFFF" d="M1033.592,524.033c-0.002,42.642,0.002,85.284-0.005,127.927
			c-0.002,9.027-0.662,9.68-9.604,9.69c-12.326,0.015-24.652,0.022-36.979,0.025c-6.392,0.002-7.533-1.354-7.057-7.746
			c0.284-3.811,0.327-7.646,0.328-11.469c0.016-98.444,0.02-196.888-0.008-295.332c-0.001-6.148-0.495-12.304-0.305-18.441
			c0.063-2.015,1.57-3.984,2.416-5.975c1.344,1.266,2.896,2.374,3.998,3.823c10.96,14.41,21.823,28.895,32.769,43.317
			c2.812,3.705,5.729,7.336,8.747,10.874c3.803,4.456,5.844,9.229,5.813,15.379C1033.492,438.748,1033.593,481.391,1033.592,524.033
			z"/>
		<path fill-rule="evenodd" clip-rule="evenodd" fill="#FFFFFF" d="M157.311,494.021c0,49.985-0.009,99.972,0.019,149.957
			c0.002,3.826,0.299,7.652,0.406,11.479c0.103,3.668-1.675,5.635-5.399,5.646c-11.83,0.032-23.659,0.057-35.489,0.051
			c-3.857-0.001-5.854-2.03-5.945-5.861c-0.063-2.664-0.006-5.33-0.006-7.996c-0.002-80.311,0.226-160.622-0.23-240.93
			c-0.077-13.586,2.729-25.09,10.766-36.192c10.591-14.63,19.763-30.284,29.694-45.4c1.03-1.567,3.063-2.476,4.632-3.689
			c0.737,2.009,2.056,4.005,2.1,6.028c0.114,5.311-0.512,10.633-0.518,15.951C157.292,393.383,157.311,443.702,157.311,494.021z"/>
		<path fill-rule="evenodd" clip-rule="evenodd" fill="#FFFFFF" d="M393.996,553.368c0.006-32.66-0.043-65.321,0.106-97.981
			c0.011-2.369,1.462-4.732,2.243-7.098c2.338,1.194,5.144,1.91,6.939,3.661c12.515,12.2,24.443,25.027,37.333,36.808
			c7.799,7.127,17.105,12.582,25.451,19.148c1.895,1.492,3.667,4.465,3.698,6.78c0.163,12.314-0.393,24.636-0.428,36.956
			c-0.087,30.994-0.044,61.988-0.008,92.982c0.004,3.493,0.294,6.985,0.452,10.478c0.172,3.807-1.327,6.058-5.447,6.056
			c-21.163-0.016-42.326,0.059-63.488-0.043c-5.191-0.024-6.823-2.107-6.842-8.265c-0.057-19.497-0.018-38.993-0.017-58.489
			C393.99,580.697,393.99,567.032,393.996,553.368z"/>
		<path fill-rule="evenodd" clip-rule="evenodd" fill="#FFFFFF" d="M1049.105,535.316c0-39.162-0.021-78.324,0.073-117.486
			c0.004-1.627,1.071-3.251,1.644-4.876c1.535,0.771,3.42,1.199,4.552,2.361c16.118,16.553,32.137,33.202,48.175,49.832
			c3.701,3.838,5.822,8.074,5.806,13.763c-0.166,57.161-0.107,114.323-0.116,171.485c0,1.666-0.033,3.332-0.074,4.997
			c-0.095,3.807-2.077,6.039-5.852,6.063c-15.995,0.098-31.993,0.109-47.988,0.009c-3.478-0.022-5.51-2.186-5.844-5.668
			c-0.207-2.15-0.222-4.325-0.223-6.488c-0.012-37.997-0.009-75.994-0.009-113.99
			C1049.201,535.317,1049.153,535.317,1049.105,535.316z"/>
		<path fill-rule="evenodd" clip-rule="evenodd" fill="#FFFFFF" d="M692.732,661.526c-10.156,0.003-20.313,0.02-30.47-0.003
			c-5.262-0.012-5.479-1.316-4.563-6.386c1.438-7.965,2.235-16.124,2.435-24.222c0.89-36.273,1.445-72.555,2.188-108.832
			c0.14-6.804,0.361-13.623,1.01-20.391c0.194-2.025,1.504-4.46,3.084-5.755c12.974-10.634,26.283-20.861,39.17-31.598
			c6.247-5.204,11.726-11.321,17.741-16.819c1.271-1.161,3.366-1.421,5.082-2.096c0.595,1.618,1.709,3.237,1.707,4.855
			c-0.037,36.629-0.291,73.257-0.304,109.885c-0.011,31.8,0.178,63.601,0.402,95.399c0.034,4.759-2.322,6.026-6.512,5.988
			C713.38,661.462,703.057,661.523,692.732,661.526z"/>
		<path fill-rule="evenodd" clip-rule="evenodd" fill="#FFFFFF" d="M97.696,537.473c0,36.987,0,73.976,0,110.963
			c0,0.167-0.002,0.334-0.001,0.5c0.103,12.203,0.103,12.194-12.396,12.195c-11.663,0.001-23.326,0.049-34.988,0.028
			c-5.904-0.01-7.44-1.471-7.443-7.4c-0.021-60.98,0.033-121.96-0.049-182.94c-0.008-6.137,3.106-10.386,7.187-14.213
			C65.076,442.475,80,428.224,91.93,411.182c0.777-1.11,2.67-1.439,4.044-2.133c0.775,1.666,2.221,3.33,2.226,4.999
			c0.125,41.141,0.099,82.282,0.099,123.424C98.098,537.472,97.897,537.473,97.696,537.473z"/>
		<path fill-rule="evenodd" clip-rule="evenodd" fill="#FFFFFF" d="M645.98,584.341c0,23.638-0.022,47.274,0.023,70.911
			c0.007,3.881-1.551,5.938-5.596,5.928c-20.314-0.047-40.629-0.007-60.942-0.113c-5.435-0.028-6.981-1.689-7.034-7.395
			c-0.101-10.822-0.017-21.646-0.017-32.469c0-25.643-0.006-51.286-0.007-76.929c-0.001-6.7,1.521-8.128,8.306-7.919
			c1.314,0.041,2.721,0.175,3.939-0.204c8.629-2.678,17.446-4.934,25.763-8.385c9.387-3.896,18.274-8.98,27.469-13.362
			c1.929-0.92,4.243-1.032,6.38-1.517c0.439,2.006,1.251,4.01,1.26,6.018c0.091,21.812,0.057,43.624,0.057,65.436
			C645.715,584.341,645.848,584.341,645.98,584.341z"/>
		<path fill-rule="evenodd" clip-rule="evenodd" fill="#FFFFFF" d="M484.279,589.955c0-20.479-0.011-40.958,0.02-61.438
			c0.002-1.647-0.111-3.488,0.568-4.877c0.471-0.963,2.556-2.116,3.328-1.789c4.157,1.762,8.063,4.106,12.186,5.961
			c3.126,1.406,6.38,2.633,9.692,3.496c7.081,1.846,14.187,3.676,21.377,4.994c6.026,1.104,12.222,1.267,18.276,2.247
			c3.572,0.578,4.48,3.547,4.464,6.839c-0.037,7.159-0.063,14.318-0.055,21.478c0.035,28.803,0.076,57.604,0.138,86.407
			c0.013,6.214-1.437,7.732-7.521,7.728c-17.814-0.014-35.63,0.002-53.445-0.031c-7.618-0.015-8.989-1.425-8.992-9.078
			c-0.009-20.646-0.003-41.291-0.003-61.937C484.301,589.955,484.29,589.955,484.279,589.955z"/>
		<path fill-rule="evenodd" clip-rule="evenodd" fill="#FFFFFF" d="M1125.023,574.017c0-26.489-0.035-52.979,0.078-79.467
			c0.008-1.794,0.879-4.928,1.787-5.098c1.955-0.367,4.563,0.256,6.26,1.416c8.737,5.971,17.291,12.214,25.867,18.419
			c2.654,1.92,2.65,4.065,0.853,6.864c-1.338,2.082-2.466,4.753-2.475,7.166c-0.14,41.149-0.104,82.3-0.053,123.45
			c0.004,3.154,0.46,6.306,0.61,9.463c0.165,3.455-1.503,5.382-5.018,5.398c-7.162,0.034-14.326,0.029-21.489-0.036
			c-5.03-0.046-6.374-3.107-6.36-7.608c0.064-22.49,0.013-44.981,0.003-67.473c-0.002-4.165-0.001-8.33-0.001-12.495
			C1125.065,574.017,1125.045,574.017,1125.023,574.017z"/>
		<path fill-rule="evenodd" clip-rule="evenodd" fill="#FFFFFF" d="M28.391,652.703c0-57.108,0-114.216,0-171.324
			c0.065,0,0.13,0,0.194,0c0,57.108,0,114.216,0,171.324C28.521,652.703,28.456,652.703,28.391,652.703z"/>
	</g>
</g>
</svg>
