<?xml version="1.0" encoding="utf-8"?>
<!-- Generator: Adobe Illustrator 19.1.0, SVG Export Plug-In . SVG Version: 6.00 Build 0)  -->
<svg version="1.1" id="Layer_1" xmlns="http://www.w3.org/2000/svg" xmlns:xlink="http://www.w3.org/1999/xlink" x="0px" y="0px"
	 viewBox="0 0 77.8 77.8" style="enable-background:new 0 0 77.8 77.8;" xml:space="preserve">
<style type="text/css">
	.st0{fill:#FFFFFF;stroke:#000000;stroke-miterlimit:10;}
	.st1{fill:#020202;}
	.st2{fill:#FFFFFF;}
	.st3{stroke:#FFFFFF;stroke-miterlimit:10;}
	.st4{fill:#020202;stroke:#FFFFFF;stroke-miterlimit:10;}
	.st5{fill:none;stroke:#FFFFFF;stroke-linecap:round;stroke-miterlimit:10;}
	.st6{stroke:#000000;stroke-width:2;stroke-miterlimit:10;}
	.st7{fill:#FFFFFF;stroke:#000000;stroke-width:2;stroke-miterlimit:10;}
	.st8{fill:none;stroke:#FFFFFF;stroke-width:0.75;stroke-linecap:round;stroke-miterlimit:10;}
	.st9{fill:#010101;}
	.st10{clip-path:url(#SVGID_2_);}
	.st11{clip-path:url(#SVGID_2_);fill:none;stroke:#000000;stroke-width:0.75;stroke-miterlimit:10;}
	.st12{clip-path:url(#SVGID_2_);fill:none;stroke:#000000;stroke-width:0.5;stroke-miterlimit:10;}
	.st13{clip-path:url(#SVGID_2_);fill:#FFFFFF;}
	.st14{clip-path:url(#SVGID_2_);fill:none;stroke:#000000;stroke-width:0.25;stroke-miterlimit:10;}
	.st15{clip-path:url(#SVGID_2_);fill:none;stroke:#FFFFFF;stroke-width:0.25;stroke-miterlimit:10;}
	.st16{clip-path:url(#SVGID_4_);}
	.st17{stroke:#FFFFFF;stroke-width:3;stroke-miterlimit:10;}
</style>
<g>
	<path class="st0" d="M69.8,76.9H8c-3.9,0-7.1-3.2-7.1-7.1V8c0-3.9,3.2-7.1,7.1-7.1h61.8c3.9,0,7.1,3.2,7.1,7.1v61.8
		C76.9,73.7,73.7,76.9,69.8,76.9z"/>
	<path class="st3" d="M37.8,62.8l10.5-0.3c0.8,0,1.4,0.6,1.4,1.3l0,0c0,0.8-0.6,1.4-1.3,1.4l-10.5,0.3c-0.8,0-1.5-0.7-1.4-1.5l0,0
		C36.6,63.4,37.1,62.9,37.8,62.8z"/>
	<path class="st4" d="M39,37.5c-2.2,1.2-6,6-6.2,7c-0.2,1.1-3,7.4-3.5,8.5c-0.5,1.1-2.5,6.9-3.2,8.6c-0.5,1.1-2.6,6-4.1,9.4
		c-0.7,1.5,0.5,3.3,2.1,3.3h9c1.1,0,2.1-0.8,2.3-2c0.6-3.9,2-12.4,2.2-12.8c0.4-0.6,4.1-3,5-5.1c1-2.1,0.7-2.5,1.7-2.6
		s2.4,0.7,2.7,1.2c0.4,0.5,0,1.6,0,1.6s1,0,1.6-0.8c0.3-0.5,0.4-1.6,0.2-2.6c-0.1-0.7-0.7-1.5-0.9-1.7c-0.5-0.5-3-0.8-3.5-1
		c-0.5-0.1,3-0.5,3.6-0.1c0.6,0.4,0.8,3.5,1.2,2.6c1.6-3.5,0.4-5.4-1.1-5.8c-0.9-0.2-4.8,0.5-5.1,0.7c-0.4,0.1,3.3-1.2,3.9-1.2
		c0.6,0,2.2,0.5,2.6,0.8s0.2-1.8-1-2.6c-1.5-1-3-1-3.7-1c-1.4,0.1-4.3,1.3-5.4,1.4c-1.1,0.1-0.6-2,0.7-3.3s5.6-3.5,7-3.4
		c1.4,0.1,0.7-0.6-0.2-0.9C44.5,34.9,41.1,36.3,39,37.5z"/>
	<path class="st1" d="M48.5,37.1c0,0.9,0.3,1.7-0.3,2.4c-0.6,0.7-1.1,0.7-1.3,1.1c-0.1,0.2,0,1.1,0,1.1S46,41,43.9,41.3
		c-2.1,0.3-4,1.1-4.5,1.1c-0.6-0.1,2.1-3.3,4.6-4.4C46.1,36.9,48.5,36.5,48.5,37.1z"/>
	<path class="st1" d="M44,52.3c-0.9,0.5,0,1.4-1.7,3.4c-1.8,2-3.7,3.5-3.9,3.8s-0.3,2.8-0.2,2.9c0.1,0.1,7.8-0.2,9.4-0.3
		c0.2,0,0.3-0.2,0.3-0.3c0-0.2,0-0.5,0-0.7c0-0.1-0.1-0.2-0.2-0.2c-0.2-0.1-1,0-1,0s-0.2-7.2-0.2-7.3C46.1,52.9,45.1,51.7,44,52.3z"
		/>
	<path class="st1" d="M43.3,73.1c-0.8,0.1-1.1-0.1-1.8-0.5c-0.9-0.5-1.9-1.8-2.3-4.2s-0.1-2.5-0.1-2.5l4-0.1l0,0l4-0.1
		c0,0,0.3,0.1,0.1,2.5c-0.2,2.4-1.1,3.8-2,4.4C44.5,73,44.2,73.1,43.3,73.1L43.3,73.1z"/>
	<g>
		<path class="st1" d="M55.2,31.9c0-0.3-0.2-0.9-0.7-1.2c-0.9-0.6-1.7-0.9-1.7-0.9l0-2.1c0.2-0.1,1.2-0.5,1.1-1.1
			c-0.1-0.5-0.9-1-1.3-1.1c-0.4-0.1-0.8,0.1-1.6,0.1c-0.8,0-1-1-1.9-1c-0.9,0-0.9,0.2-1.8,0.6c-0.4,0.2-0.4,0.3-0.9,0
			c-0.7-0.4-1.1-0.7-2-0.7c-0.4,0-1.2,0.6-1.6,0.7c-0.4,0.1-1.2-0.8-2.1-0.7c-0.3,0-1.1,0.7-1.3,0.9c-0.7,0.7-1.7-1.4-3.1,0
			c-0.5,0.6-0.7,0.7-1.2,0.5c-0.4-0.2-1-0.9-2-0.6c-0.7,0.2-1,0.8-1.6,0.9c-0.4,0.1-1-0.5-1.9-0.1c-0.7,0.2-1,1.1-1.3,1.3
			c-0.5,0.2-0.8-0.3-1.8-0.2c-0.6,0.1-1.8,1.1-1.7,1.9c0.1,0.8,1,1.2,1,1.2v2c0,0-0.7,0.4-0.8,0.5c-0.5,0.5-0.7,1.6-0.6,2.3
			c0.1,0.5,0.5,0.5,0.7,0.6c0.3,0.2,0,0.4,0.7,1c1.4,1.3,5.8,2,6.8,2.5c0.9,0.4,1,1.8,1.7,1.7c0.6-0.1,1.7-1.6,2.2-2.1
			c1.6-1.4,2.4-1.8,2.9-2.1c2.2-1.2,3.5-1.3,5.3-1.6c1.1-0.2,2.2,0,3.1,0.6c1.1,0.7,0.9,1.9,2.2,1.9c1.3,0,4.3-2.1,4.9-3.3
			c0.3-0.5,0.1-1,0.1-1.4C55,32.5,55.3,32.8,55.2,31.9z"/>
		<path class="st1" d="M26.3,14.4c0.4,0.9,1.1,2.5,2.3,2.9c1.2,0.4,1.5,0.7,1.7,1.4c0.1,0.4,0,0.8,0.3,1.2c0.4,0.8,2.1,1.2,2.3,1.6
			c0.6,1,1.6,1.3,1.9,1.5c0,0,0,0.4,0,0.9c0,0.2,1.3-0.4,4.5-0.6c2-0.1,4.1,0.1,5.2,0.3l0-1.2c0,0,0.4-0.2,1.4-1
			c1.1-0.7,1.2-3.7,0.9-4.8c-0.3-1.1-2.1-2.9-4.5-3.4c-2.4-0.5-2-1.6-2.5-2.9c-0.4-1.2-0.8-1.3-1.3-0.4c-0.5,0.7-1.1,1.2-1.7,2.3
			c-0.3,0.6-0.6,2.1-0.3,2.7c0.3,0.6,1.6,1.1,2.1,1.3c1.3,0.4,2.4,0.6,2.9,1.5c0.4,0.8,0.2,2.1-0.3,2.7c-0.9,1.1-1.4,1.2-2,1.3
			c-0.4,0.1,1.1-0.7,1.2-1.3c0.2-0.9,0.2-1.4-0.5-2.4c-0.6-0.8-3.7-2.1-4.4-2.4c-0.7-0.3-2.8-1.3-2.8-1.3s0.7,0.2,2.2-0.1
			c1.5-0.3,1.3-2.9,1.3-2.9c-0.1-0.8-0.5-1.8-0.8-1.4c-0.5,0.6-0.2,1.5-1.5,1.9c-0.8,0.3-2.5,0.4-3.7,0.1c-1.2-0.3-1.5-1-2.8-1.9
			c-1.3-0.9-2.9-0.9-3.5-1.3S22.8,7.2,21.5,7c-1.3-0.2-0.9,0.3-0.7,0.6c0.3,0.5,0.8,1.8,0.8,2.4c0,0.6,0.9,1.9,1.6,2.3
			C23.9,12.8,26,13.7,26.3,14.4z"/>
	</g>
	<path class="st5" d="M25.6,30.2c3.2-1.3,7.5-2.6,13.3-3.1c6.1-0.5,11.2,0.2,14.7,0.9"/>
	<path class="st5" d="M24.6,32.7c3.4-1.4,8.2-2.8,14.5-3.4c6.7-0.6,12.2,0.2,16,1"/>
</g>
</svg>
