<?xml version="1.0" encoding="utf-8"?>
<!-- Generator: Adobe Illustrator 19.1.0, SVG Export Plug-In . SVG Version: 6.00 Build 0)  -->
<svg version="1.1" id="Layer_1" xmlns="http://www.w3.org/2000/svg" xmlns:xlink="http://www.w3.org/1999/xlink" x="0px" y="0px"
	 viewBox="0 0 77.8 77.8" style="enable-background:new 0 0 77.8 77.8;" xml:space="preserve">
<style type="text/css">
	.st0{fill:#FFFFFF;stroke:#000000;stroke-miterlimit:10;}
	.st1{fill:#020202;}
	.st2{fill:#FFFFFF;}
	.st3{stroke:#FFFFFF;stroke-miterlimit:10;}
	.st4{fill:#020202;stroke:#FFFFFF;stroke-miterlimit:10;}
	.st5{fill:none;stroke:#FFFFFF;stroke-linecap:round;stroke-miterlimit:10;}
	.st6{stroke:#000000;stroke-width:2;stroke-miterlimit:10;}
	.st7{fill:#FFFFFF;stroke:#000000;stroke-width:2;stroke-miterlimit:10;}
	.st8{fill:none;stroke:#FFFFFF;stroke-width:0.75;stroke-linecap:round;stroke-miterlimit:10;}
	.st9{fill:#010101;}
	.st10{clip-path:url(#SVGID_2_);}
	.st11{clip-path:url(#SVGID_2_);fill:none;stroke:#000000;stroke-width:0.75;stroke-miterlimit:10;}
	.st12{clip-path:url(#SVGID_2_);fill:none;stroke:#000000;stroke-width:0.5;stroke-miterlimit:10;}
	.st13{clip-path:url(#SVGID_2_);fill:#FFFFFF;}
	.st14{clip-path:url(#SVGID_2_);fill:none;stroke:#000000;stroke-width:0.25;stroke-miterlimit:10;}
	.st15{clip-path:url(#SVGID_2_);fill:none;stroke:#FFFFFF;stroke-width:0.25;stroke-miterlimit:10;}
	.st16{clip-path:url(#SVGID_4_);}
	.st17{stroke:#FFFFFF;stroke-width:3;stroke-miterlimit:10;}
</style>
<g>
	<path class="st0" d="M69.8,76.9H8c-3.9,0-7.1-3.2-7.1-7.1V8c0-3.9,3.2-7.1,7.1-7.1h61.8c3.9,0,7.1,3.2,7.1,7.1v61.8
		C76.9,73.7,73.8,76.9,69.8,76.9z"/>
	<path d="M25.2,67.4c5.9,0,11.9,0,17.8,0c1,0,1.4-0.4,1.3-1.4c0-3-1.9-4.9-4.9-5c-0.8,0-1.3-0.2-1.7-0.9c-0.6-1.1-1.6-1.6-2.8-1.6
		c-6.4,0-12.9,0-19.3,0c-1.2,0-2.1,0.5-2.7,1.5c-0.5,0.8-1.1,1-2,1c-2.6,0-4.6,2-4.7,4.7c-0.1,1.5,0.1,1.6,1.5,1.6
		C13.6,67.4,19.4,67.4,25.2,67.4z M40.4,31.7c0.1-0.7-0.2-1-0.6-1.2c-3.2-2.3-6.3-4.7-9.5-7c-0.8-0.6-1.4-0.5-2,0.3
		c-3.2,4.3-5.2,7-8.3,11.3c-0.7,1-0.7,1.3,0.3,2c3.1,2.3,6.2,4.6,9.3,6.9c0.9,0.7,1.3,0.6,2-0.3c3.2-4.3,5.2-7,8.3-11.3
		C40.2,32.1,40.3,31.9,40.4,31.7z M39.3,36.5c-0.5-0.1-0.7,0.3-0.9,0.5c-1,1.3-2,2.7-3,4c-0.5,0.6-0.3,1,0.3,1.5
		c1.3,0.9,2.5,1.8,3.8,2.8c8,5.9,16,11.9,24,17.8c0.6,0.5,1,0.5,1.5-0.2c0.8-1.2,1.7-2.3,2.6-3.5c0.9-1.3,1-1.3-0.4-2.3
		C58.1,50.4,49,43.7,40,37C39.7,36.8,39.5,36.7,39.3,36.5z M45.4,28.6c0.1-0.6-0.1-1.1-0.7-1.5c-4.1-3.1-8.3-6.1-12.4-9.2
		c-0.7-0.6-1.5-0.4-2.2,0c-1.5,1-1.5,2.7-0.1,3.8c3.9,2.9,7.8,5.8,11.7,8.6C43.3,31.5,45,30.7,45.4,28.6z M31,47.8
		c0.1-0.6-0.1-1.1-0.6-1.5c-4.2-3.1-8.4-6.2-12.6-9.3c-0.6-0.5-1.3-0.4-1.9,0c-1.6,1-1.7,2.8-0.2,3.9c3.9,2.9,7.7,5.7,11.6,8.6
		C28.9,50.7,30.7,49.9,31,47.8z"/>
	<path d="M71,61.2l-3.2,4.3c-0.5,0.6-1.3,0.7-1.9,0.3h0c-0.6-0.5-0.7-1.3-0.3-1.9l3.2-4.3c0.5-0.6,1.3-0.7,1.9-0.3l0,0
		C71.4,59.7,71.5,60.6,71,61.2z"/>
</g>
</svg>
