<?xml version="1.0" encoding="utf-8"?>
<!-- Generator: Adobe Illustrator 19.1.0, SVG Export Plug-In . SVG Version: 6.00 Build 0)  -->
<svg version="1.1" id="Layer_1" xmlns="http://www.w3.org/2000/svg" xmlns:xlink="http://www.w3.org/1999/xlink" x="0px" y="0px"
	 viewBox="0 0 78 77.8" style="enable-background:new 0 0 78 77.8;" xml:space="preserve">
<style type="text/css">
	.st0{fill:#FFFFFF;stroke:#000000;stroke-miterlimit:10;}
	.st1{fill:#020202;}
	.st2{fill:#FFFFFF;}
	.st3{stroke:#FFFFFF;stroke-miterlimit:10;}
	.st4{fill:#020202;stroke:#FFFFFF;stroke-miterlimit:10;}
	.st5{fill:none;stroke:#FFFFFF;stroke-linecap:round;stroke-miterlimit:10;}
	.st6{stroke:#000000;stroke-width:2;stroke-miterlimit:10;}
	.st7{fill:#FFFFFF;stroke:#000000;stroke-width:2;stroke-miterlimit:10;}
	.st8{fill:none;stroke:#FFFFFF;stroke-width:0.75;stroke-linecap:round;stroke-miterlimit:10;}
	.st9{fill:#010101;}
	.st10{clip-path:url(#SVGID_2_);}
	.st11{clip-path:url(#SVGID_2_);fill:none;stroke:#000000;stroke-width:0.75;stroke-miterlimit:10;}
	.st12{clip-path:url(#SVGID_2_);fill:none;stroke:#000000;stroke-width:0.5;stroke-miterlimit:10;}
	.st13{clip-path:url(#SVGID_2_);fill:#FFFFFF;}
	.st14{clip-path:url(#SVGID_2_);fill:none;stroke:#000000;stroke-width:0.25;stroke-miterlimit:10;}
	.st15{clip-path:url(#SVGID_2_);fill:none;stroke:#FFFFFF;stroke-width:0.25;stroke-miterlimit:10;}
	.st16{clip-path:url(#SVGID_4_);}
	.st17{stroke:#FFFFFF;stroke-width:3;stroke-miterlimit:10;}
</style>
<g>
	<path class="st0" d="M70.1,76.9H8.3c-3.9,0-7.1-3.2-7.1-7.1V8c0-3.9,3.2-7.1,7.1-7.1h61.8c3.9,0,7.1,3.2,7.1,7.1v61.8
		C77.2,73.7,74,76.9,70.1,76.9z"/>
	<path class="st1" d="M58,40.9l-15.6,5.8c-2,0.7-4.2,0.7-6.2,0l-15.6-5.8c0,0-0.5,1.6,0,6.2c1.3,12.1,17.1,12,18.7,11.9
		c1.6,0,17.4,0.2,18.7-11.9C58.5,42.6,58,40.9,58,40.9z"/>
	<path d="M39.4,33.1c-0.5,0-0.4,0.1-0.7-0.1L18,38.3l17.6,6.6c2.4,0.9,5.1,0.9,7.6,0l28-10.6c1.6-0.6,1.6-2.8,0-3.4L43.1,20.4
		c-2.4-0.9-5.1-0.9-7.5,0L7.4,30.9c-1.6,0.6-1.6,2.8,0,3.4l7.2,2.7h0v4.9c-0.5,0.3-0.8,0.8-0.8,1.4c0,0.5,0.2,0.8,0.5,1.1v3.4h0.2
		L13,63.6c0,0,0.5,1,2.4,1s2.4-1,2.4-1l-1.5-15.7h0.1v-3.4c0.3-0.3,0.5-0.7,0.5-1.2c0-0.6-0.3-1.1-0.8-1.4v-4.3l21.1-5.3
		c-0.2-0.2-0.3-0.5-0.3-0.7c0-0.1,0.1-0.4,0.2-0.5c0.2,0.7,1.1,1.2,2.3,1.2s2.1-0.5,2.3-1.2c0,0.1,0,0.5,0,0.6
		C41.6,32.5,40.6,33.1,39.4,33.1z"/>
</g>
</svg>
