<?xml version="1.0" encoding="utf-8"?>
<!-- Generator: Adobe Illustrator 19.1.0, SVG Export Plug-In . SVG Version: 6.00 Build 0)  -->
<svg version="1.1" id="Layer_1" xmlns="http://www.w3.org/2000/svg" xmlns:xlink="http://www.w3.org/1999/xlink" x="0px" y="0px"
	 viewBox="0 0 77.8 77.8" style="enable-background:new 0 0 77.8 77.8;" xml:space="preserve">
<style type="text/css">
	.st0{fill:#FFFFFF;stroke:#000000;stroke-miterlimit:10;}
	.st1{fill:#020202;}
	.st2{fill:#FFFFFF;}
	.st3{stroke:#FFFFFF;stroke-miterlimit:10;}
	.st4{fill:#020202;stroke:#FFFFFF;stroke-miterlimit:10;}
	.st5{fill:none;stroke:#FFFFFF;stroke-linecap:round;stroke-miterlimit:10;}
	.st6{stroke:#000000;stroke-width:2;stroke-miterlimit:10;}
	.st7{fill:#FFFFFF;stroke:#000000;stroke-width:2;stroke-miterlimit:10;}
	.st8{fill:none;stroke:#FFFFFF;stroke-width:0.75;stroke-linecap:round;stroke-miterlimit:10;}
	.st9{fill:#010101;}
	.st10{clip-path:url(#SVGID_2_);}
	.st11{clip-path:url(#SVGID_2_);fill:none;stroke:#000000;stroke-width:0.75;stroke-miterlimit:10;}
	.st12{clip-path:url(#SVGID_2_);fill:none;stroke:#000000;stroke-width:0.5;stroke-miterlimit:10;}
	.st13{clip-path:url(#SVGID_2_);fill:#FFFFFF;}
	.st14{clip-path:url(#SVGID_2_);fill:none;stroke:#000000;stroke-width:0.25;stroke-miterlimit:10;}
	.st15{clip-path:url(#SVGID_2_);fill:none;stroke:#FFFFFF;stroke-width:0.25;stroke-miterlimit:10;}
	.st16{clip-path:url(#SVGID_4_);}
	.st17{stroke:#FFFFFF;stroke-width:3;stroke-miterlimit:10;}
</style>
<g>
	<path class="st0" d="M69.8,76.9H8c-3.9,0-7.1-3.2-7.1-7.1V8c0-3.9,3.2-7.1,7.1-7.1h61.8c3.9,0,7.1,3.2,7.1,7.1v61.8
		C76.9,73.7,73.7,76.9,69.8,76.9z"/>
	<path d="M70.3,66.1H57.7V36h1.4c0,0-0.6,20.4,0,24.7c0.6,4,4.1,5.2,6.7,5.3c4.5,0.1,5.6-3.5,5-7.2c-0.8-4.9-5-9.9-5-13.1
		s0.6-22.6,0-24.9c-0.5-1.8-5.9-5.7-8.2-7.2V9.8c0-1.4-1.2-2.6-2.6-2.6H43H31c-1.4,0-2.6,1.2-2.6,2.6v56.3H15.7
		c-0.6,0-1.1,0.5-1.1,1.1v3.6c0,0.6,0.5,1.1,1.1,1.1H43h27.3c0.6,0,1.1-0.5,1.1-1.1v-3.6C71.5,66.6,71,66.1,70.3,66.1z M57.7,18.1
		c0.5,0.2,1.1,0.6,1.1,1.4c0,1.6,0,4.3,0,4.3h3.9c0,0,0,16.6,0,21.2s4.6,12,4.9,14.1c0.3,2.1-0.2,3.6-2.7,3.5
		c-2.6-0.2-2.6-4.6-2.6-4.6s-1.1-9.4-0.2-22c0.2-2.4,0.6-3.2-1.1-3.3c-1.7-0.1-3.5,0-3.5,0V18.1z M54.8,22.5c0,0.7-0.6,1.3-1.3,1.3
		H32.6c-0.7,0-1.3-0.6-1.3-1.3V12c0-0.7,0.6-1.3,1.3-1.3h20.9c0.7,0,1.3,0.6,1.3,1.3V22.5z"/>
	<polygon points="13.4,21.6 23,20.1 13.4,40.6 23,38.1 5.9,63.8 11,44.6 4.4,46 	"/>
</g>
</svg>
