<?xml version="1.0" encoding="utf-8"?>
<!-- Generator: Adobe Illustrator 19.1.0, SVG Export Plug-In . SVG Version: 6.00 Build 0)  -->
<svg version="1.1" id="Layer_1" xmlns="http://www.w3.org/2000/svg" xmlns:xlink="http://www.w3.org/1999/xlink" x="0px" y="0px"
	 viewBox="0 0 77.8 77.8" style="enable-background:new 0 0 77.8 77.8;" xml:space="preserve">
<style type="text/css">
	.st0{fill:#FFFFFF;stroke:#000000;stroke-miterlimit:10;}
	.st1{fill:#020202;}
	.st2{fill:#FFFFFF;}
	.st3{stroke:#FFFFFF;stroke-miterlimit:10;}
	.st4{fill:#020202;stroke:#FFFFFF;stroke-miterlimit:10;}
	.st5{fill:none;stroke:#FFFFFF;stroke-linecap:round;stroke-miterlimit:10;}
	.st6{stroke:#000000;stroke-width:2;stroke-miterlimit:10;}
	.st7{fill:#FFFFFF;stroke:#000000;stroke-width:2;stroke-miterlimit:10;}
	.st8{fill:none;stroke:#FFFFFF;stroke-width:0.75;stroke-linecap:round;stroke-miterlimit:10;}
	.st9{fill:#010101;}
	.st10{clip-path:url(#SVGID_2_);}
	.st11{clip-path:url(#SVGID_2_);fill:none;stroke:#000000;stroke-width:0.75;stroke-miterlimit:10;}
	.st12{clip-path:url(#SVGID_2_);fill:none;stroke:#000000;stroke-width:0.5;stroke-miterlimit:10;}
	.st13{clip-path:url(#SVGID_2_);fill:#FFFFFF;}
	.st14{clip-path:url(#SVGID_2_);fill:none;stroke:#000000;stroke-width:0.25;stroke-miterlimit:10;}
	.st15{clip-path:url(#SVGID_2_);fill:none;stroke:#FFFFFF;stroke-width:0.25;stroke-miterlimit:10;}
	.st16{clip-path:url(#SVGID_4_);}
	.st17{stroke:#FFFFFF;stroke-width:3;stroke-miterlimit:10;}
</style>
<g>
	<path class="st0" d="M69.8,76.9H8c-3.9,0-7.1-3.2-7.1-7.1V8c0-3.9,3.2-7.1,7.1-7.1h61.8c3.9,0,7.1,3.2,7.1,7.1v61.8
		C76.9,73.7,73.7,76.9,69.8,76.9z"/>
	<g>
		<path d="M29.2,9.2c2.5,0.9,3.7,2.7,4.1,5.2c0.1,0.6,0.2,1.1,0.2,1.8c0,0.2-0.2,0.4-0.4,0.3c-0.9-0.4-2.9-1.3-3.8-1.9
			c-1.3-0.8-1.7-2.2-1.9-3.7c-0.1-0.6-0.1-1.3-0.1-2c0-0.2,0.2-0.4,0.4-0.3C28.1,8.9,28.8,9.1,29.2,9.2z"/>
		<path d="M9.6,40.4c0.8-0.7,1.8-1.1,2.9-1c0.9,0.1,1.9,0.2,2.8,0.3c0.2,0,0.3,0.3,0.2,0.5c-1.7,2.7-4,3.6-7,2.8
			c-0.3-0.1-0.6-0.2-0.9-0.2C7.6,42.7,8.9,41,9.6,40.4z"/>
		<path d="M39.5,28.8c0.8-1.9,2-3.6,3.9-4.5c1-0.5,2.1-0.8,3.1-1.1c-1,0.6-2.2,1-3.1,1.7c-1.7,1.3-2.4,3.1-2.8,5.1
			c-0.7,3-0.6,6.1-0.4,9.1c0.1,0.9,0.1,1.7,0.2,2.8c0.5-0.7,1-1.3,1.4-1.9c1.7-2.5,3.8-4.5,6.1-6.4c1.1-1,2.2-2.1,3.1-3.3
			c1.3-1.7,1.6-3.8,0.9-5.8c0-0.1-0.1-0.3-0.1-0.4c0,0,0,0,0.1-0.1c1.1,2.6,1,5.1-0.5,7.8c3.3-1,6.3-0.8,9.4,0.3
			c-7.3-2-11.9,1.6-15.4,7.4c2.3-0.7,4.6-1.2,7-0.8c2.4,0.4,4.4,1.5,6.3,3c-0.2-0.1-0.4-0.2-0.6-0.3c-0.8-0.6-1.7-1.1-2.7-1.4
			c-3-0.9-5.9-0.5-8.5,0.9c-3.6,1.8-5,5-5.5,8.6c-0.6,4.2-0.4,8.4-0.2,12.6c0.1,2.8,0.6,6.2,1.4,8.7c0.1,0.5-0.2,0.9-0.7,0.9h-9.4
			c-0.6,0-0.9-0.7-0.4-1.1c2.6-2.3,4.1-5.4,4.6-8.4c0.4-2.2,0.5-4.5-0.1-6.7c-0.8-3.1-2.7-4.7-5.9-5.1c-2.7-0.3-5.2,0.4-7.4,1.9
			c-0.2,0.1-0.4,0.2-0.7,0.3c1.9-1.5,3.9-2.6,6.3-3c2.4-0.4,4.7,0,7.1,0.9c-1.7-3.2-3.3-6.2-5.9-8.6c-1.4-1.3-2.9-2.3-4.7-2.9
			c-2.3-0.7-4.5-0.5-6.8,0.1c-0.2,0-0.3,0.1-0.5,0c3.1-1.1,6.3-1.4,9.4-0.4c-0.2-1.2-0.5-2.4-0.6-3.7c-0.1-1.3,0.3-2.4,1-3.5
			c-0.1,0.6-0.3,1.1-0.4,1.7c-0.5,3.1,0.8,5.6,3.7,7.1c2.9,1.5,5.2,3.9,6.4,6.9c0.1,0.3,0.1,0.3,0.4,0.6c0-0.2,0-0.3,0-0.5
			C38,42,37.8,36.8,37.6,31.6c0-0.5-0.1-0.9-0.3-1.4c-1.7-3.6-3.7-4.4-9-4.8c-2.3-0.2-7.5,0.5-7.4,0.5c3.9-1.1,12.5-2.4,16.3,1.4
			c-0.4-2.9-1.2-5.1-3.2-7.1c-2.1-2.1-4.7-3.4-8.4-5.2c6.3,1.9,9.1,3.9,10.9,5.5c2.3,2.1,2.3,4.5,2.9,7.5c0,0.2,0.1,0.4,0.1,0.6
			C39.4,28.6,39.4,28.7,39.5,28.8z"/>
		<path d="M44.5,13.5c1.8,4.3-0.2,9.3-4.6,11.5c-0.2,0.1-0.4,0-0.4-0.2c-0.5-2.1-0.7-4.2-0.1-6.2c0.7-2.5,2.7-3.9,4.8-5.2
			C44.2,13.3,44.5,13.4,44.5,13.5z"/>
		<path d="M36.7,41.8c0,0.2-0.2,0.4-0.4,0.3c-2.2-0.9-4.2-1.9-5.6-3.7c-1.4-1.9-1.5-4.2-1.4-6.6c0-0.2,0.2-0.3,0.4-0.3
			c2.1,0.7,4,1.5,5.3,3.3C36.5,36.9,36.6,39.2,36.7,41.8z"/>
		<path d="M54.6,48.6c1-0.3,3.2-0.8,4.4-0.5c0.6,0.2,2,1.4,2.7,2c0.1,0.1,0.1,0.4,0,0.5c-1.5,0.9-3.7,1-5.1,0.2
			c-0.8-0.5-1.5-1-2.2-1.7C54.3,48.9,54.4,48.7,54.6,48.6z"/>
		<path d="M25.4,37.2c-1.1-0.2-2.2-0.3-3.3-0.5c-3.5-0.5-5.5-3.4-6.2-6.4c0-0.2,0.1-0.4,0.3-0.4c1.1,0,4.3,0.1,5.8,1.1
			c2.1,1.4,2.9,3.6,3.8,5.8C25.8,37,25.6,37.3,25.4,37.2z"/>
		<path d="M42.3,36.9c-0.2,0.1-0.4,0-0.4-0.2c-0.1-0.8-0.2-1.6-0.3-2.3c0-0.3,0-0.7,0-1c-0.3-3.1,1.1-5.4,3.6-7.1
			c0.5-0.3,0.9-0.6,1.4-1c0.2-0.1,0.4,0,0.5,0.1C48.7,29.8,46.7,34.8,42.3,36.9z"/>
		<path d="M44.8,50.2c-0.1-0.2-0.1-0.4,0.1-0.5c1.2-0.5,2.4-0.7,3.6-0.9c2-0.3,3.7,0.3,5.1,1.6c0.6,0.6,1.2,1.2,1.8,1.9
			c0.1,0.2,0.1,0.4-0.1,0.5c-1.9,0.7-3.7,1.3-5.6,0.8C47.7,53.2,46.2,51.8,44.8,50.2z"/>
		<path d="M20.6,43.3c5.6-2,8.4-0.7,11.8,3.7c0.1,0.2,0,0.4-0.2,0.5c-1.1,0.2-3.9,0.7-5.2,0.8c-1.4,0.1-2.7-0.6-3.7-1.5
			c-1-0.9-1.8-1.9-2.8-2.9C20.4,43.6,20.4,43.4,20.6,43.3z"/>
		<path d="M53.9,30.2c-0.2,0-0.4-0.2-0.3-0.4c0.3-1.1,1.3-3.8,1.8-4.9c0.4-1,1.3-1.7,2.2-2.2c1.5-0.8,3.1-1.3,4.8-1.4
			c0.2,0,0.4,0.2,0.3,0.3C61.9,27.1,59.7,29.2,53.9,30.2z"/>
		<path d="M50.3,35.3c0.7-0.4,1.5-0.8,2.2-1.1c1.4-0.6,2.8-1.2,4.4-1.1c2.3,0.2,4,1.4,5.8,2.8c0.2,0.1,0.1,0.4,0,0.5
			c-1.8,1.2-3.6,2.3-5.7,2.3c-2.6,0-4.7-1.5-6.7-2.9C50.3,35.6,50.3,35.6,50.3,35.3z"/>
		<path d="M31,51.4c0.2,0,0.3,0.2,0.3,0.4c-0.7,4.7-5.1,8.1-9.8,7.6c-0.2,0-0.3-0.2-0.3-0.3C21.7,54.6,26.5,50.8,31,51.4z"/>
		<path d="M35.9,29.9c-2.9,2-7,1.3-9.4-1.7c-0.1-0.1-0.1-0.3,0.1-0.4c2.8-2,7.4-1.2,9.4,1.7C36,29.6,36,29.8,35.9,29.9z"/>
		<path d="M35.6,10c3.5,2.8,3.8,5.2,2.2,9.3c-0.1,0.2-0.3,0.3-0.5,0.1c-1.3-1.1-2.3-2.4-2.9-3.9c-0.7-1.8-0.1-3.6,0.7-5.4
			C35.2,9.9,35.4,9.9,35.6,10z"/>
		<path d="M9.8,35.8c3.8-2.2,6-1.9,9.5,1.1c0.2,0.1,0.1,0.4-0.1,0.5c-1.1,0.5-3.8,1.5-5.1,1.4c-1.8-0.2-3.1-1.3-4.4-2.5
			C9.5,36.1,9.6,35.9,9.8,35.8z"/>
		<path d="M20.7,40c0,3.4-3.5,6.6-7.1,6.5c-0.2,0-0.3-0.2-0.3-0.3c0.2-3.5,3.1-6.2,7.1-6.5C20.6,39.7,20.7,39.8,20.7,40z"/>
		<path d="M25.4,18.1c4.5-0.5,8.2,1.9,9,5.8c0,0.2-0.1,0.3-0.2,0.4c-3.8,0.9-8.3-2-9.1-5.8C25.1,18.3,25.2,18.1,25.4,18.1z"/>
		<path d="M53.4,24.7c-2.1-3-1.5-6.8,1.4-9.5c0.1-0.1,0.3-0.1,0.4,0c2.1,2.5,1.4,7.2-1.4,9.5C53.7,24.9,53.5,24.9,53.4,24.7z"/>
		<path d="M59.3,29.9c-0.1-0.1-0.1-0.4,0-0.5c2.6-2.2,5.7-2.4,8.5-0.5c0.4,0.2,0.7,0.5,1,0.7c0.1,0.1,0.2,0.3,0.1,0.4
			C66.8,32.5,62.1,32.4,59.3,29.9z"/>
		<path d="M51.4,45.7c1.9-2.5,3.7-3,7.2-1.8c0.2,0.1,0.3,0.3,0.1,0.5c-0.8,0.9-1.7,1.6-2.7,2.1c-1.5,0.8-3,0.3-4.5-0.3
			C51.4,46.1,51.3,45.9,51.4,45.7z"/>
		<path d="M13.9,27.2c1.7-2.2,3.2-2.6,6.2-1.6c0.2,0.1,0.3,0.3,0.1,0.5c-0.6,0.8-1.4,1.4-2.3,1.8c-1.3,0.6-2.6,0.2-3.9-0.2
			C13.8,27.6,13.8,27.3,13.9,27.2z"/>
		<path d="M15.9,48.3c3.7-2.3,6.1-1.9,9.4,1.1c0.1,0.1,0.1,0.4,0,0.5c-2.9,2.2-6.6,1.8-9.5-1.1C15.7,48.7,15.7,48.4,15.9,48.3z"/>
		<path d="M68.5,40.3c-3.5,2.5-5.9,2.4-9.5-0.2c-0.2-0.1-0.2-0.4,0-0.5c1.4-0.9,2.8-1.6,4.4-1.8c2-0.2,3.6,0.8,5.1,2
			C68.7,40,68.7,40.2,68.5,40.3z"/>
		<path d="M53.2,41.8c-2.3,3.7-4.5,4.4-8.9,3.4c-0.2,0-0.3-0.3-0.2-0.5c0.9-1.4,2-2.5,3.4-3.3c1.8-1,3.6-0.6,5.5-0.1
			C53.2,41.4,53.3,41.7,53.2,41.8z"/>
		<path d="M21.7,9.3c3,0.3,4.2,1.6,4.8,4.6c0,0.2-0.1,0.4-0.3,0.4c-2.5,0.1-4.4-1.7-4.9-4.6C21.3,9.5,21.5,9.3,21.7,9.3z"/>
		<path d="M51,17.1c0.1,2.8-2.6,5.5-5.7,5.6c-0.2,0-0.3-0.2-0.3-0.4c0.2-1.3,0.7-2.6,1.5-3.7c1-1.3,2.5-1.6,4.1-1.9
			C50.9,16.8,51,16.9,51,17.1z"/>
		<path d="M25.8,26.4c-0.5,2-2.9,3.3-5.1,2.9c-0.2,0-0.3-0.3-0.2-0.4c0.4-0.9,1-1.7,1.8-2.3c1-0.7,2.1-0.7,3.2-0.6
			C25.7,26,25.8,26.2,25.8,26.4z"/>
		<path d="M66.2,47.5c-3.5,0.2-5.1-1-6.4-4.4c-0.1-0.2,0.1-0.4,0.3-0.4c3.5-0.1,5.4,1.1,6.4,4.4C66.5,47.3,66.4,47.5,66.2,47.5z"/>
		<path d="M21.1,52.9c-2.2,2.9-4.1,3.6-7.4,2.5c-0.2-0.1-0.3-0.3-0.2-0.5c1.9-3,4-3.5,7.4-2.5C21.2,52.5,21.3,52.8,21.1,52.9z"/>
		<path d="M16.6,21c4.1-1.9,6.5-1.2,9.6,2.2c0.1,0.1,0.1,0.4-0.1,0.5c-3,1.9-7.7,0.8-9.6-2.3C16.4,21.3,16.5,21.1,16.6,21z"/>
		<path d="M25.7,16.4c-1.3,1.3-3.7,1.4-5.2,0.1c-0.1-0.1-0.1-0.4,0-0.5c0.7-0.5,1.5-0.9,2.4-1c1.1-0.2,2,0.3,2.8,0.9
			C25.8,16,25.9,16.2,25.7,16.4z"/>
		<path d="M40.2,48.2c0,0,1.4-0.7,4.3-1.4c3-0.7,7.2,0.3,8.9,0.8c0,0-1.2-0.3-4.5-0.3c-2.9,0-5.2,1.2-6.8,2.8
			c-1.6,1.6-2.5,3.3-2.5,3.3L40.2,48.2z"/>
	</g>
</g>
</svg>
