<?xml version="1.0" encoding="utf-8"?>
<!-- Generator: Adobe Illustrator 19.1.0, SVG Export Plug-In . SVG Version: 6.00 Build 0)  -->
<svg version="1.1" id="Layer_1" xmlns="http://www.w3.org/2000/svg" xmlns:xlink="http://www.w3.org/1999/xlink" x="0px" y="0px"
	 viewBox="0 0 78 77.8" style="enable-background:new 0 0 78 77.8;" xml:space="preserve">
<style type="text/css">
	.st0{fill:#FFFFFF;stroke:#000000;stroke-miterlimit:10;}
	.st1{fill:#020202;}
	.st2{fill:#FFFFFF;}
	.st3{stroke:#FFFFFF;stroke-miterlimit:10;}
	.st4{fill:#020202;stroke:#FFFFFF;stroke-miterlimit:10;}
	.st5{fill:none;stroke:#FFFFFF;stroke-linecap:round;stroke-miterlimit:10;}
	.st6{stroke:#000000;stroke-width:2;stroke-miterlimit:10;}
	.st7{fill:#FFFFFF;stroke:#000000;stroke-width:2;stroke-miterlimit:10;}
	.st8{fill:none;stroke:#FFFFFF;stroke-width:0.75;stroke-linecap:round;stroke-miterlimit:10;}
	.st9{fill:#010101;}
	.st10{clip-path:url(#SVGID_2_);}
	.st11{clip-path:url(#SVGID_2_);fill:none;stroke:#000000;stroke-width:0.75;stroke-miterlimit:10;}
	.st12{clip-path:url(#SVGID_2_);fill:none;stroke:#000000;stroke-width:0.5;stroke-miterlimit:10;}
	.st13{clip-path:url(#SVGID_2_);fill:#FFFFFF;}
	.st14{clip-path:url(#SVGID_2_);fill:none;stroke:#000000;stroke-width:0.25;stroke-miterlimit:10;}
	.st15{clip-path:url(#SVGID_2_);fill:none;stroke:#FFFFFF;stroke-width:0.25;stroke-miterlimit:10;}
	.st16{clip-path:url(#SVGID_4_);}
	.st17{stroke:#FFFFFF;stroke-width:3;stroke-miterlimit:10;}
</style>
<g>
	<path class="st0" d="M70.1,76.9H8.3c-3.9,0-7.1-3.2-7.1-7.1V8c0-3.9,3.2-7.1,7.1-7.1h61.8C74,0.9,77.2,4,77.2,8v61.8
		C77.2,73.7,74,76.9,70.1,76.9z"/>
	<g>
		<path d="M55.1,24.7c-1.1,0.5-2.3,1.1-3.4,1.7c-3.9,2.3-5.3,6.2-3.4,10.2c0.7,1.4,0.7,1.4-0.5,2.6c0,0-0.1,0.1-0.1,0.1
			c-2.1,2.1-4.5,3.9-7.3,4.9c-1.3,0.5-2.7,0.6-4,0.9c-2,0.5-3.1,2.2-2.9,4.3c0.1,0.9,0.3,1.7,0.4,2.6c0.5,2.8,1,5.7,1.5,8.5
			c0.3,1.7,1.4,3.1,2,4.7c0.3,0.8,0.2,1.3-0.6,1.6c-0.7,0.3-1.5,0.6-2.2,0.8c-3.1,1.1-6.2,2.3-9.3,3.4c-0.6,0.2-1.1,0.5-1.4,1.1
			c-0.6,1.1-2.1,1.3-2.9,0.4c-2.2-2.3-3.4-5-3.5-8.2c-0.1-2-0.1-4.1-0.2-6.1c-0.1-3.1-0.2-6.2-0.3-9.3c-0.1-2.5-1.3-3.8-3.8-4
			c-1.2-0.1-2.3,0.1-3.5,0.4c-0.6,0.1-1.3,0.1-1.5-0.5c-0.2-0.6,0.1-1.1,0.7-1.4c0.9-0.5,1.3-1.2,1.5-2.2c0.2-1,0-1.9,0.2-2.9
			c0.1-1.2-0.3-2.1-1-3c-0.3-0.3-0.5-0.6-0.8-1c-0.4-0.5-0.6-1.1-0.2-1.7c0.3-0.6,0.9-0.7,1.5-0.6c0.8,0.1,1.4-0.1,1.8-0.8
			c0.4-0.8,1-1.2,1.7-1.6c0.5-0.3,0.8-0.6,0.8-1.2c0-1.3,0.6-1.6,1.7-0.8c0.5,0.4,0.9,0.4,1.5,0.2c4.8-2,9.5-4.3,14.4-6.3
			c9.4-3.9,18.5-8.4,27.7-12.6c0.4-0.2,0.6-0.4,0.8-0.9c0.5-1.8,1-2.2,2.3-2.2c0.5,0,1,0.2,1.4,0.5c0.5,0.3,0.9,0.3,1.4,0
			c1.1-0.5,1.4-0.4,2.1,0.7c0.3,0.5,0.6,1.1,0.7,1.7c0.3,1.3,0.2,1.4-0.9,1.9c-0.8,0.3-0.9,0.7-0.5,1.5c0.6,1.3,1.2,2.6,1.8,3.9
			c0.5,1,0.4,1.1-0.6,1.6c-0.8,0.4-1.5,0.7-2.3,1.1c-0.6,0.3-1.1,0.5-1.1,1.3c0,0.5-0.4,0.6-0.8,0.7c-1.8,0.8-3.6,1.7-5.4,2.5
			C57.4,23.7,56.2,24.2,55.1,24.7z M38.9,34.1c-1.2,0.6-1.3,0.7-0.9,2c0.7,2.1,2.3,3.1,4.4,3.4c0.2,0,0.4,0,0.6,0.1
			c0.2,0,0.4,0.1,0.4,0.3c0,0.2-0.1,0.4-0.3,0.5c-0.5,0.2-1,0.2-1.5,0.2c-1.9-0.3-3.5-1.2-5-2.3c-0.4-0.3-0.5-0.8-0.7-1.2
			c-0.4-0.9-0.9-1.1-1.8-0.7c-1.1,0.5-1.9,1.3-2.2,2.4c-0.9,3,1.2,5.6,4.2,5.2c3.6-0.4,6.9-1.7,9.5-4.3c1.1-1,1.5-2.3,1.1-3.8
			c-0.4-1.6-1.3-2.8-3-3.2c-1.3-0.3-2.4,0.2-3.4,0.7c-0.2,0.1-0.3,0.1-0.5,0.2C39.5,33.8,39.2,33.9,38.9,34.1z M23.4,71
			c-0.3-0.7-0.8-0.3-1.2-0.1c-0.4,0.2-1,0.2-0.7,0.9c0.2,0.6,0.8,0.7,1.3,0.5C23.4,72,23.7,71.6,23.4,71z"/>
	</g>
</g>
</svg>
