<?xml version="1.0" encoding="utf-8"?>
<!-- Generator: Adobe Illustrator 16.0.0, SVG Export Plug-In . SVG Version: 6.00 Build 0)  -->
<!DOCTYPE svg PUBLIC "-//W3C//DTD SVG 1.1//EN" "http://www.w3.org/Graphics/SVG/1.1/DTD/svg11.dtd">
<svg version="1.1" id="Layer_1" xmlns="http://www.w3.org/2000/svg" xmlns:xlink="http://www.w3.org/1999/xlink" x="0px" y="0px"
	 width="1000px" height="500px" viewBox="0 0 1000 500" enable-background="new 0 0 1000 500" xml:space="preserve">
<g>
	<path fill="#FFFFFF" stroke="#000000" stroke-miterlimit="10" d="M698.586,494.216H301.414c-25.064,0-45.63-20.565-45.63-45.63
		V51.414c0-25.064,20.565-45.63,45.63-45.63h397.172c25.064,0,45.63,20.565,45.63,45.63v397.172
		C744.216,473.65,723.65,494.216,698.586,494.216z"/>
	<g>
		<g>
			<path d="M510.926,55.27c3.213,4.499,9.64,8.998,9.64,8.998c1.285,0.643,2.571,1.928,3.856,2.57l32.134,15.424
				c1.285,0.643,3.213,1.928,3.855,2.571l3.214,3.856c0.643,1.285,1.285,3.213,1.928,4.499c0,0,7.712,22.494,12.211,34.705
				c3.855,10.283,10.282,29.563,10.282,29.563c0.643,1.285,1.286,3.213,1.286,4.499c0,0,1.928,6.427,3.855,10.926
				c1.285,2.57,3.214,5.141,5.784,6.426c4.499,1.928,10.926,5.142,10.926,5.142c1.285,0.643,2.57,1.285,3.855,1.285
				c0.643,0,1.285-3.213,1.285-4.499c0,0-0.643-7.069-1.285-12.211c-0.643-3.213-0.643-6.427-0.643-8.997
				c-0.643-5.142-1.285-12.211-1.285-12.211c0-1.286-0.643-3.213-0.643-4.499l-0.643-4.499c0-1.285-0.643-3.213-0.643-4.499
				l-1.286-9.64c0-1.285-0.643-3.213-0.643-4.499l-0.643-4.499c0-1.285,0-3.213-0.643-3.856s0.643-2.571,1.928-1.928
				c0,0,3.214,1.286,6.428,2.571c8.354,3.856,16.709,7.069,25.706,9.64c7.069,1.928,19.28,4.499,19.28,4.499
				c1.285,0,3.214,0.643,4.499,0.643c0,0,3.856,0.643,7.069,0.643c2.57,0,5.142,0,8.354-0.643c1.286,0,0.643,0.643,1.929-0.643
				c5.141-5.141,16.709-15.424,16.709-15.424c0.643-0.643,2.571-2.571,3.214-3.213l12.854-14.782
				c0.643-1.285,0.643-1.928-0.644-2.57c0,0-2.57-1.286-4.498-1.928s-3.214-0.643-5.142-0.643
				c-3.856,1.285-12.854,3.856-12.854,3.856c-1.285,0.643-3.213,1.285-4.499,1.285c0,0-10.925,3.856-17.994,5.784
				c-0.643,0-1.929,0-2.571,0c-8.354-3.856-17.352-8.354-25.707-12.211c-10.282-5.141-20.565-9.64-30.848-14.781
				c-7.069-3.213-17.995-8.998-17.995-8.998c-1.285-0.643-3.213-1.285-3.856-1.928l-27.635-13.497
				c-1.285-0.643-3.213-1.285-3.855-1.928l-9.641-4.499c-1.285-0.643-3.213-1.285-4.499-1.928c0,0-3.213-0.643-6.426-1.285
				c-2.571-0.643-4.499-0.643-4.499-0.643c-1.285,0-3.214,0-4.499,0.643l-7.712,0.643c-1.285,0.643-3.214,1.285-4.499,1.928
				c0,0-7.712,1.928-7.712,5.784C507.712,50.128,508.997,53.342,510.926,55.27z"/>
		</g>
		<path d="M599.614,57.198c7.069,3.213,13.496,6.427,19.923,9.64c3.856,1.928,8.354,3.856,12.211,5.784c0.643,0,1.928,0,2.57,0
			c10.926-7.069,21.209-13.496,32.134-20.565c1.929-1.286,1.929-2.571,0-3.856c-5.142-2.571-10.282-5.142-15.424-7.07
			c-1.285-0.643-3.214-0.643-4.499,0c-14.781,5.142-29.562,10.283-44.987,15.424C600.257,56.555,600.257,56.555,599.614,57.198z"/>
	</g>
	<path d="M295.63,453.728c-1.928-8.997,3.213-17.995,12.211-19.923c22.493-5.142,62.982-16.067,88.046-32.776
		c6.427-4.499,95.116-59.126,103.471-64.268c80.977-49.485,131.105-70.052,176.735-59.769c16.709,3.855,25.707,17.995,16.709,45.63
		c-14.139,44.987-28.92,82.905-39.203,106.684c-10.282,23.779-6.427,46.272-6.427,46.272H388.175h-13.496h-73.908
		C300.771,475.578,298.201,466.581,295.63,453.728z"/>
	<path d="M339.974,405.527l18.638-10.926l1.285-32.776c0-6.427,3.213-12.211,8.355-16.066
		C393.959,327.764,471.08,276.35,500,258.354c64.91-39.846,103.471-19.28,103.471-19.28L607.969,250c0,0-37.917-1.285-79.049,16.066
		c-37.917,16.067-139.46,93.831-139.46,93.831l-0.643,10.282c0,0,120.18-80.334,149.743-91.902
		c35.347-14.781,55.27-14.781,73.907-14.781c5.142,0,20.565,2.57,20.565,2.57l-11.568-34.704
		c-1.928-6.427-7.069-12.21-14.139-14.139c-14.139-4.499-41.131-9.64-75.835-1.285c-44.987,10.925-149.743,90.617-181.234,115.681
		c-5.141,4.499-8.354,10.926-8.354,17.353L339.974,405.527z"/>
	<path d="M403.599,274.422l-5.784-44.987c-1.285-17.995,17.353-24.422,28.278-27.635c25.707-7.069,33.419,5.784,33.419,5.784
		l7.712,26.992L403.599,274.422z"/>
	<ellipse fill="#FFFFFF" cx="593.188" cy="346.401" rx="12.211" ry="18.638"/>
	<path fill="#FFFFFF" d="M273.136,464.653c0.643,3.213,41.131,0.643,37.918-16.71c-1.928-7.712,16.709,9.641,40.488,16.71
		c22.494,6.427,43.059-9.641,40.488-17.995c-3.213-8.998,24.421,17.995,40.489,17.995c16.066,0,31.491-6.427,34.704-17.995
		c3.214-10.926,22.493,17.995,48.2,17.995s29.563-12.211,31.491-20.565c1.929-8.355,28.921,20.565,46.915,20.565
		c17.995,0,25.707-10.283,25.707-23.779c0-3.213,31.491,23.779,43.06,23.137c11.567-0.644,17.995-5.784,22.493-15.425
		c3.214-7.712,29.563,19.28,35.99,16.71c6.427-2.571-16.067,18.638-16.067,18.638H303.984L273.136,464.653z"/>
	<path fill="#FFFFFF" d="M519.923,38.561c-0.643-0.643-3.856,2.57-0.643,6.427c1.928,1.928,3.213,1.928,3.856,3.213
		c0.643,0.643-0.644,2.57-0.644,2.57s-1.928-0.643-4.498-3.213c-1.286-1.285-2.571-3.213-2.571-5.141
		C516.066,39.203,519.923,38.561,519.923,38.561z"/>
	<path d="M654.885,120.18c0,0,28.277-1.928,28.277,3.214c0.643,5.141,0,19.28,0,25.064c0,1.286,0,2.571-1.285,2.571h-6.427
		c-0.643,0-1.929-0.643-1.929-1.285L654.885,120.18z"/>
</g>
</svg>
