<?xml version="1.0" encoding="utf-8"?>
<!-- Generator: Adobe Illustrator 19.1.0, SVG Export Plug-In . SVG Version: 6.00 Build 0)  -->
<svg version="1.1" id="Layer_1" xmlns="http://www.w3.org/2000/svg" xmlns:xlink="http://www.w3.org/1999/xlink" x="0px" y="0px"
	 viewBox="0 0 77.8 77.8" style="enable-background:new 0 0 77.8 77.8;" xml:space="preserve">
<style type="text/css">
	.st0{fill:#FFFFFF;stroke:#000000;stroke-miterlimit:10;}
	.st1{fill:#020202;}
	.st2{fill:#FFFFFF;}
	.st3{stroke:#FFFFFF;stroke-miterlimit:10;}
	.st4{fill:#020202;stroke:#FFFFFF;stroke-miterlimit:10;}
	.st5{fill:none;stroke:#FFFFFF;stroke-linecap:round;stroke-miterlimit:10;}
	.st6{stroke:#000000;stroke-width:2;stroke-miterlimit:10;}
	.st7{fill:#FFFFFF;stroke:#000000;stroke-width:2;stroke-miterlimit:10;}
	.st8{fill:none;stroke:#FFFFFF;stroke-width:0.75;stroke-linecap:round;stroke-miterlimit:10;}
	.st9{fill:#010101;}
	.st10{clip-path:url(#SVGID_2_);}
	.st11{clip-path:url(#SVGID_2_);fill:none;stroke:#000000;stroke-width:0.75;stroke-miterlimit:10;}
	.st12{clip-path:url(#SVGID_2_);fill:none;stroke:#000000;stroke-width:0.5;stroke-miterlimit:10;}
	.st13{clip-path:url(#SVGID_2_);fill:#FFFFFF;}
	.st14{clip-path:url(#SVGID_2_);fill:none;stroke:#000000;stroke-width:0.25;stroke-miterlimit:10;}
	.st15{clip-path:url(#SVGID_2_);fill:none;stroke:#FFFFFF;stroke-width:0.25;stroke-miterlimit:10;}
	.st16{clip-path:url(#SVGID_4_);}
	.st17{stroke:#FFFFFF;stroke-width:3;stroke-miterlimit:10;}
</style>
<g>
	<path class="st0" d="M69.8,76.9H8c-3.9,0-7.1-3.2-7.1-7.1V8c0-3.9,3.2-7.1,7.1-7.1h61.8c3.9,0,7.1,3.2,7.1,7.1v61.8
		C76.9,73.7,73.7,76.9,69.8,76.9z"/>
	<g>
		<defs>
			<path id="SVGID_1_" d="M66.9,75h-56c-3.9,0-7.1-3.2-7.1-7.1v-56C3.8,8,7,4.8,10.9,4.8h56c3.9,0,7.1,3.2,7.1,7.1v56
				C74,71.8,70.8,75,66.9,75z"/>
		</defs>
		<clipPath id="SVGID_2_">
			<use xlink:href="#SVGID_1_"  style="overflow:visible;"/>
		</clipPath>
		<path class="st10" d="M23,69.4h-4.2V9.6c0-1,0.8-1.8,1.8-1.8H23V69.4z"/>
		<path class="st10" d="M34.9,11H19V9.5c0-1,0.8-1.7,1.7-1.7h12.4c1,0,1.7,0.8,1.7,1.7V11z"/>
		<path class="st10" d="M18.9,68.5h15.8l4.2,2.1c0.7,0.3,0.4,1.4-0.3,1.4H15.4c-0.8,0-1-1-0.4-1.4L18.9,68.5z"/>
		<path class="st10" d="M58.5,70.7H56V34.1c0-0.9,0.7-1.7,1.7-1.7h0.9V70.7z"/>
		<path class="st10" d="M65.8,34.4h-9.8v-0.9c0-0.6,0.5-1.1,1.1-1.1h7.5c0.6,0,1.1,0.5,1.1,1.1V34.4z"/>
		<path class="st10" d="M56.1,69.7h9.8l2.5,1.2c0.5,0.2,0.3,0.9-0.2,0.9H54c-0.5,0-0.7-0.7-0.2-0.9L56.1,69.7z"/>
		<polygon class="st10" points="-7.6,42.4 77.3,55.9 77.3,57.6 -7.6,48.9 		"/>
		<path class="st11" d="M74,54.1c-8.9-0.2-14.9-15.5-16.4-19.6c-0.1-0.3-0.5-0.3-0.6,0c-12.1,43.7-34.7-17-37.5-24.9
			c-0.1-0.3-0.5-0.3-0.6,0c-2.6,6.8-21.1,52.7-44.4,13.6"/>
		<polygon class="st13" points="-7.6,43.4 77.3,56.1 77.3,56.7 -7.6,45.5 		"/>
		<path class="st10" d="M34.8,69.4h-4.2V7.8h2.4c1,0,1.8,0.8,1.8,1.8V69.4z"/>
		<path class="st10" d="M65.8,70.7h-2.6V32.5h0.9c0.9,0,1.7,0.7,1.7,1.7V70.7z"/>
		<line class="st12" x1="27.9" y1="23.8" x2="27.9" y2="48.7"/>
		<line class="st12" x1="37.8" y1="20.5" x2="37.8" y2="49.8"/>
		<line class="st12" x1="44.4" y1="38" x2="44.4" y2="50.7"/>
		<line class="st12" x1="49.3" y1="47.1" x2="49.3" y2="51.6"/>
		<line class="st12" x1="53.8" y1="51.1" x2="54.8" y2="52.1"/>
		<line class="st12" x1="61.6" y1="46.9" x2="61.6" y2="53.7"/>
		<line class="st12" x1="68.1" y1="43.8" x2="68.1" y2="54.7"/>
		<line class="st12" x1="71.1" y1="50" x2="71" y2="55.2"/>
		<line class="st12" x1="73.3" y1="52.9" x2="73.3" y2="55.2"/>
		<path class="st11" d="M77.3,55.2c-7.8-2-10.8-16.4-11.5-20c0-0.2-0.3-0.2-0.3,0C54.3,81.6,37.2,18.4,35.2,10.6
			c-0.1-0.2-0.4-0.3-0.5,0C32,17.5,9.9,69-14.1,22.7"/>
		<line class="st12" x1="14.3" y1="39.5" x2="14.3" y2="46.2"/>
		<line class="st12" x1="5.9" y1="41.5" x2="5.9" y2="44.5"/>
		<line class="st14" x1="0.3" y1="35.7" x2="0.3" y2="43.5"/>
		<line class="st14" x1="9" y1="28.7" x2="9" y2="45.3"/>
		<line class="st14" x1="16.5" y1="15.1" x2="16.5" y2="46.2"/>
		<line class="st14" x1="25.9" y1="24.8" x2="25.9" y2="48.4"/>
		<line class="st14" x1="36.1" y1="43.4" x2="36.1" y2="49.5"/>
		<line class="st14" x1="41.5" y1="48.7" x2="41.5" y2="50.3"/>
		<line class="st14" x1="46.6" y1="49.8" x2="46.6" y2="51.1"/>
		<line class="st14" x1="51.2" y1="47.3" x2="51.2" y2="51.7"/>
		<line class="st14" x1="54.3" y1="41.6" x2="54.3" y2="52.6"/>
		<line class="st14" x1="60.3" y1="40.8" x2="60.3" y2="53.3"/>
		<line class="st14" x1="67.1" y1="51.1" x2="67.1" y2="54.2"/>
		<path class="st15" d="M77.3,54.7c-7.7-2-10.8-16.1-11.5-19.9c0-0.2-0.3-0.2-0.4,0c-11,45.5-27.7-15.1-30.1-24.3
			c-0.1-0.4-0.6-0.4-0.7-0.1c-2.2,5.2-12.2,27.9-25.2,30.7c-7.1,1.5-15.1-2.9-23.4-19"/>
	</g>
</g>
</svg>
