<?xml version="1.0" encoding="utf-8"?>
<!-- Generator: Adobe Illustrator 19.1.0, SVG Export Plug-In . SVG Version: 6.00 Build 0)  -->
<svg version="1.1" id="Layer_1" xmlns="http://www.w3.org/2000/svg" xmlns:xlink="http://www.w3.org/1999/xlink" x="0px" y="0px"
	 viewBox="0 0 77.8 77.8" style="enable-background:new 0 0 77.8 77.8;" xml:space="preserve">
<style type="text/css">
	.st0{fill:#FFFFFF;stroke:#000000;stroke-miterlimit:10;}
	.st1{fill:#020202;}
	.st2{fill:#FFFFFF;}
	.st3{stroke:#FFFFFF;stroke-miterlimit:10;}
	.st4{fill:#020202;stroke:#FFFFFF;stroke-miterlimit:10;}
	.st5{fill:none;stroke:#FFFFFF;stroke-linecap:round;stroke-miterlimit:10;}
	.st6{stroke:#000000;stroke-width:2;stroke-miterlimit:10;}
	.st7{fill:#FFFFFF;stroke:#000000;stroke-width:2;stroke-miterlimit:10;}
	.st8{fill:none;stroke:#FFFFFF;stroke-width:0.75;stroke-linecap:round;stroke-miterlimit:10;}
	.st9{fill:#010101;}
	.st10{clip-path:url(#SVGID_2_);}
	.st11{clip-path:url(#SVGID_2_);fill:none;stroke:#000000;stroke-width:0.75;stroke-miterlimit:10;}
	.st12{clip-path:url(#SVGID_2_);fill:none;stroke:#000000;stroke-width:0.5;stroke-miterlimit:10;}
	.st13{clip-path:url(#SVGID_2_);fill:#FFFFFF;}
	.st14{clip-path:url(#SVGID_2_);fill:none;stroke:#000000;stroke-width:0.25;stroke-miterlimit:10;}
	.st15{clip-path:url(#SVGID_2_);fill:none;stroke:#FFFFFF;stroke-width:0.25;stroke-miterlimit:10;}
	.st16{clip-path:url(#SVGID_4_);}
	.st17{stroke:#FFFFFF;stroke-width:3;stroke-miterlimit:10;}
</style>
<g>
	<path class="st0" d="M69.8,76.9H8c-3.9,0-7.1-3.2-7.1-7.1V8c0-3.9,3.2-7.1,7.1-7.1h61.8c3.9,0,7.1,3.2,7.1,7.1v61.8
		C76.9,73.7,73.7,76.9,69.8,76.9z"/>
	<path d="M67.1,74.1H10.3c-3.6,0-6.5-2.9-6.5-6.6V10.2c0-3.6,2.9-6.6,6.5-6.6h56.8c3.6,0,6.5,2.9,6.5,6.6v57.4
		C73.6,71.2,70.7,74.1,67.1,74.1z"/>
	<g>
		<g>
			<path class="st2" d="M5.5,34.8c0-0.1,0-0.2,0-0.2c-0.2-0.6-0.5-1.2-0.7-1.9c-0.1-0.2-0.1-0.4-0.1-0.6c0-0.1,0.1-0.1,0.2-0.2
				C5,31.9,5.2,32,5.2,32.1c0,0.5,0.2,0.9,0.5,1.3c0.1,0.1,0.1,0.2,0.1,0.2c-0.2,0.4,0.3,0.6,0.5,0.9c0.1,0.2,0.4,0.3,0.4,0.5
				c0.1,0.2,0.1,0.4,0,0.6c-0.1,0.2,0,0.4,0.2,0.6c0.5,0.3,1,0.6,1.4,0.9c0.2,0.1,0.4,0.2,0.6,0.3c0.2,0.1,0.4,0.1,0.7,0
				c0.2-0.1,0.5,0,0.7,0.3c0.1,0.2,0.3,0.4,0.5,0.5c0.2,0.1,0.6,0.2,0.8,0.2c0.1,0,0.2,0,0.2,0.1c0.2,0.3,0.3,0.6,0.5,0.8
				c0,0.1,0.1,0.2,0.1,0.2c0.2,0.2,0.4,0.4,0.6,0.6c0,0,0.1,0.1,0.1,0.1c0.3,0.1,0.5,0.2,0.8,0.3c0,0,0-0.1,0-0.2
				c0.1-0.1,0.2-0.2,0.3-0.2c0.1,0,0.3,0.1,0.3,0.2c0.3,0.4,0.3,0.9,0.3,1.4c0,0.2-0.1,0.4-0.3,0.6c-0.4,0.4-0.7,0.9-0.8,1.4
				c0,0.1,0,0.3,0.1,0.5c0.1,0.1,0.1,0.2,0,0.3c-0.3,0.3-0.3,0.9,0.1,1.2c0.1,0.1,0.2,0.3,0.3,0.4c0.2,0.4,0.5,0.8,0.7,1.2
				c0.2,0.4,0.5,0.8,0.6,1.2c0.1,0.3,0.5,0.4,0.7,0.6c0.3,0.2,0.6,0.5,0.9,0.7c0.1,0.1,0.2,0.3,0.2,0.5c0.2,1.1,0.1,2.3,0.1,3.4
				c0,0.2,0.2,0.5,0.2,0.7c0,0.1,0,0.1,0,0.2c0,0.4-0.1,0.9-0.1,1.3c0,0.4-0.1,0.7,0.2,1.1c0.1,0.1,0.1,0.2,0.1,0.3
				c0,0.3,0.1,0.6,0.1,0.9c0,0.1,0.2,0.1,0.4,0.2c0,0.2,0.3,0.4-0.2,0.5c0,0.1,0.1,0.3,0.1,0.4c0,0.2-0.1,0.4,0.2,0.5
				c0.1,0,0.1,0.1,0,0.2c-0.1,0.2,0,0.4,0.2,0.5c0.2,0.3,0.4,0.5,0.6,0.8c0.1,0.1,0.2,0.2,0.3,0.4c0.2,0.3,0.6,0.5,1,0.6
				c0.3,0.1,0.6,0.1,0.9,0.2c0.1,0,0.3-0.1,0.5-0.1c0.1-0.1,0.1-0.2,0-0.2c-0.6-0.1-0.9-0.4-1.2-0.7c-0.2-0.2-0.2-0.4-0.1-0.6
				c0.1-0.3,0.2-0.5,0.3-0.8c0,0-0.1-0.1-0.1-0.2c-0.1-0.1-0.3-0.2-0.3-0.4c-0.1-0.1-0.1-0.3,0-0.4c0.3-0.2,0.2-0.6,0.3-0.8
				c0,0-0.1-0.1-0.1-0.2c-0.1-0.1-0.2-0.2-0.2-0.3c0-0.1,0-0.2,0.3-0.2c0.3,0,0.5-0.2,0.4-0.4c0-0.3,0-0.3,0.4-0.3
				c0.6-0.1,0.8-0.2,0.9-0.7c0-0.1-0.1-0.2-0.2-0.3c-0.1-0.2-0.2-0.4-0.4-0.5c0,0,0.1-0.1,0.1-0.1c0.1,0,0.3,0.1,0.4,0.1
				c0.3,0.2,0.4,0.2,0.6-0.1c0.2-0.2,0.3-0.5,0.4-0.8c0.1-0.2,0.1-0.4,0.2-0.5c0,0,0.1-0.1,0.1-0.1c0.4-0.2,0.5-0.6,0.5-0.9
				c0-0.1,0-0.2,0-0.3c-0.1-0.4,0.2-0.7,0.6-0.9c0.4-0.2,0.7-0.4,1.1-0.6c0.4-0.2,0.7-0.6,0.7-1c0-0.2,0.1-0.3,0.1-0.5
				c0-0.1,0-0.2,0-0.3c0-0.3,0.1-0.6,0.1-0.9c0,0,0-0.1,0-0.1c-0.2-0.4,0.2-0.7,0.4-1c0.3-0.5,0.5-0.9,0.7-1.4
				c0.1-0.3,0-0.6-0.4-0.9c-0.3-0.2-0.6-0.4-0.9-0.7c-0.2-0.1-0.4-0.2-0.6-0.2c-0.2,0-0.4,0-0.5,0c-0.3,0-0.5-0.1-0.6-0.3
				c-0.1-0.2-0.8-0.4-1.1-0.4c-0.2-0.1-0.3-0.3-0.5-0.4c0,0-0.1,0-0.1-0.1c-0.1-0.3-0.2-0.5-0.3-0.8c-0.1-0.4-0.4-0.8-0.9-1
				c-0.1,0-0.2-0.1-0.3,0c-0.7,0.1-1.1-0.2-1.4-0.7c-0.1-0.1-0.1-0.1-0.2-0.2c-0.3-0.2-0.6-0.4-0.8-0.7c-0.1-0.1-0.1-0.1-0.2-0.2
				c-0.4,0.2-0.8,0.2-1.2,0c-0.2-0.1-0.4,0-0.5-0.1c-0.2-0.1-0.4-0.2-0.5-0.3c0,0-0.1-0.1-0.1-0.1c-0.1,0.1-0.2,0.3-0.2,0.4
				c-0.1,0-0.1-0.1-0.2-0.1c0-0.1,0-0.1,0.1-0.2c0-0.1,0-0.1,0-0.1c-0.1,0-0.1,0-0.2,0c-0.3,0.1-0.5,0.3-0.8,0.4
				c-0.2,0.1-0.3,0.3-0.4,0.5c0,0,0,0.1,0,0.1c-0.1,0.1-0.2,0.2-0.3,0.3c-0.1-0.1-0.3-0.1-0.4-0.2c-0.2-0.2-0.5-0.3-0.9-0.1
				c-0.2,0.1-0.4,0.1-0.5-0.1c-0.1-0.2-0.3-0.4-0.3-0.6c-0.1-0.4,0-0.9,0.1-1.3c0-0.1,0-0.1-0.1-0.2c-0.2-0.1-0.4-0.3-0.8-0.2
				c-0.2,0.1-0.4,0-0.7-0.1c0,0-0.1-0.1-0.1-0.1c0.2-0.5,0.4-1,0.6-1.4c0-0.1,0.1-0.3,0-0.3c-0.1,0-0.3-0.1-0.4,0
				c-0.2,0.1-0.5,0.2-0.5,0.4c0,0.2-0.1,0.3-0.3,0.4c-0.3,0.1-0.5,0.2-0.8,0.3c-0.3,0.1-0.6-0.1-0.8-0.5c-0.1-0.3-0.3-0.5-0.3-0.8
				c0-0.2,0.1-0.4,0.2-0.6c0.1-0.3,0.2-0.5,0.2-0.8c0-0.3,0.2-0.6,0.5-0.8c0.2-0.1,0.5-0.3,0.7-0.5c0.4-0.2,0.7-0.3,1.1-0.1
				c0.1,0,0.3,0,0.4-0.1c0.2,0,0.3-0.1,0.5-0.2c0.1,0,0.3,0,0.4-0.1c0.1,0,0.1,0,0.2,0c0.3,0.1,0.5,0.2,0.8,0.3
				c0.2,0.1,0.3,0.2,0.2,0.4c-0.1,0.3-0.1,0.6,0.2,0.9c0,0,0.1,0.1,0.2,0.1c0,0,0.1-0.1,0.1-0.1c0-0.4,0-0.7,0-1.1
				c0-0.3,0-0.6,0.2-0.9c0.4-0.4,0.9-0.8,1.4-1.1c0.2-0.1,0.4-0.3,0.6-0.5c0,0,0.1-0.1,0.1-0.1c-0.1-0.3,0.2-0.6,0.3-0.8
				c0-0.1,0.1-0.1,0.2-0.2c0.1-0.1,0.2-0.2,0.3-0.3c0.1-0.1,0.2-0.2,0.4-0.3c0.3-0.1,0.6-0.2,0.8-0.2c0.1,0,0.2-0.1,0.2-0.2
				c0-0.4,0.3-0.6,0.7-0.8c0.2-0.1,0.5-0.2,0.7-0.2c0.1,0,0.2,0,0.3,0c0,0.1,0,0.1,0,0.1c0,0.1,0,0.2,0,0.2c0.1,0,0.2,0,0.3,0
				c0.5-0.2,0.9-0.4,1.4-0.6c0.2-0.1,0.2-0.2,0.1-0.2c-0.3,0.1-0.5,0.2-0.8,0.2c-0.3,0-0.5-0.2-0.4-0.5c0.1-0.1,0.1-0.3,0.2-0.4
				c0.1-0.2,0-0.2-0.2-0.2c-0.1,0-0.2,0-0.3,0c0.1-0.3,0.2-0.4,0.6-0.4c0.5,0,1,0,1.5-0.1c0.2,0,0.5-0.1,0.7-0.2c0,0,0.1,0,0.1,0.1
				c-0.1,0.2-0.3,0.4-0.4,0.6c-0.1,0.1-0.2,0.2-0.3,0.3c-0.1,0.1-0.1,0.2,0.2,0.2c0.4,0,0.7,0.1,1,0.2c0.2,0,0.3-0.1,0.3-0.2
				c0-0.2,0-0.3,0-0.5c0-0.1-0.1-0.1-0.2-0.1c-0.2,0-0.3-0.1-0.3-0.2c0-0.2,0-0.4,0.1-0.6c0.2-0.4,0.1-0.8-0.3-1
				c-0.1-0.1-0.3-0.1-0.3-0.2C24,23.3,23.9,23.2,24,23c0-0.4,0-0.7-0.2-1.1c-0.1,0.1-0.2,0.1-0.2,0.2c-0.2,0.1-0.4,0.3-0.6,0.4
				c-0.1,0-0.3,0-0.4,0c-0.1-0.1-0.2-0.2-0.2-0.3c0-0.2,0-0.4-0.2-0.6c-0.1-0.2-0.3-0.3-0.6-0.2c-0.1,0-0.2,0-0.3,0
				c-0.6,0-0.6,0-0.8,0.4c-0.1,0.2-0.3,0.4-0.4,0.6c-0.1,0.1-0.2,0.2,0,0.3c0.1,0.2,0,0.5-0.2,0.6c-0.3,0.1-0.5,0.3-0.8,0.4
				c-0.2,0.1-0.3,0.2-0.4,0.4c-0.1,0.3,0,0.6-0.4,0.7c-0.1,0.1-0.2,0.2-0.4,0c-0.1-0.1-0.3-0.3-0.1-0.4c0,0,0,0,0-0.1
				c0-0.2,0-0.4,0.1-0.5c0.1-0.1,0-0.2-0.2-0.2c-0.5,0-0.7-0.3-1.1-0.5c-0.2-0.1-0.3-0.2-0.5-0.2c-0.3,0-0.3-0.1-0.3-0.3
				c0-0.1-0.1-0.2-0.1-0.3c0-0.1,0-0.2,0-0.2c0.3-0.4,0.8-0.5,1.2-0.7c0.3-0.1,0.5-0.3,0.7-0.4c0.4-0.2,0.9-0.4,1.3-0.6
				c0,0,0,0,0.1,0.1c0,0-0.1,0.1-0.1,0.1c0,0.1,0,0.2,0,0.2c0.1,0,0.3,0,0.4,0c0.2-0.2,0.4-0.2,0.6-0.1c0.1,0,0.2,0,0.3,0
				c0-0.1,0-0.2-0.1-0.2c-0.1-0.1-0.3-0.3-0.5-0.4c0.3-0.1,0.6-0.2,0.9-0.3c0.1,0,0.3-0.1,0.3-0.2c0.1-0.2,0.2-0.4,0.3-0.6
				c0-0.1,0.1-0.1,0.2-0.1c0.2,0,0.5,0,0.7-0.1c0.3,0,0.6,0.2,0.6,0.4c0.1,0.1,0.4,0.1,0.4,0.2c0,0.1-0.1,0.3-0.2,0.4
				c-0.1,0.1-0.3,0.3-0.5,0.4c-0.1,0.1-0.4,0.1-0.5,0.1c-0.2,0-0.3,0-0.5,0.1c0,0-0.1,0.1-0.1,0.2c0.1,0,0.2,0.1,0.2,0.1
				c0.6-0.1,0.6-0.1,1,0.4c0.2,0.2,0.5,0.3,0.8,0.4c0,0,0.1-0.1,0.2-0.1c0-0.1,0-0.1-0.1-0.3c0.2,0.1,0.4,0.2,0.5,0.2
				c0.1-0.1,0.2-0.2,0.3-0.3c0-0.1,0-0.2,0-0.3c-0.1-0.1-0.2-0.2-0.2-0.3c0-0.1,0.1-0.2,0.1-0.3c0.1,0,0.2,0.1,0.3,0.1
				c0.1,0,0.1,0.1,0.1,0.2c0.1,0,0.2,0.1,0.3,0.1c0.1,0,0.3-0.1,0.4-0.2c0.1-0.1,0.3-0.3,0.3-0.3c-0.1-0.2-0.3-0.3-0.6-0.4
				c-0.3-0.1-0.4-0.1-0.2-0.4c0.1-0.2,0.1-0.3-0.2-0.4c-0.2-0.1-0.4-0.2-0.6-0.3c-0.2-0.1-0.3-0.3-0.5-0.4c-0.1,0-0.1-0.1-0.2-0.1
				c-0.4,0-0.8,0-1.3,0c-0.2,0-0.4,0.1-0.5,0.1c0-0.1,0-0.1,0-0.2c-0.1,0-0.2,0-0.3,0c-0.4,0-0.6,0.3-0.9,0.5
				c-0.2,0.1-0.1,0.4,0.1,0.4c0.1,0,0.2,0.1,0.3,0.1c-0.1,0.1-0.1,0.3-0.2,0.3c-0.2,0.1-0.4,0.3-0.6,0.4c-0.1,0-0.2,0-0.3,0
				c0-0.1,0-0.1,0-0.2c0.1-0.2,0.1-0.3-0.1-0.4c-0.3-0.2-0.3-0.7,0-0.9c0.1-0.1,0.3,0,0.4-0.1c0.2-0.1,0.4-0.2,0.6-0.2
				c0-0.2,0-0.3,0.1-0.4c0.1-0.2,0.2-0.2,0.4,0c0.1,0.1,0.2,0.1,0.4,0.1c0.6,0,1.2,0,1.8,0c0.1,0,0.1-0.1,0.2-0.1
				c-0.4-0.3-0.9-0.1-1.3-0.2c0,0-0.1-0.1-0.1-0.1c0.1,0,0.1,0,0.2-0.1c0.3,0,0.6-0.1,0.9-0.1c0.7,0,1.3-0.1,1.8-0.4
				c0.4-0.2,0.8-0.4,1.3-0.5c0.7-0.1,1.4-0.3,2.1-0.4c0,0,0,0,0.1-0.1c-0.1,0-0.2,0-0.3,0c-0.7,0-1.3,0-2,0c-0.7,0-1.4,0.1-2.1,0.2
				c-0.5,0-0.9,0-1.4,0.1c-0.2,0-0.3,0.1-0.5,0.1c-0.1,0-0.2,0.1-0.3,0.1c-0.2,0-0.4,0.1-0.3,0.3c0.1,0.1,0.3,0.2,0.4,0.3
				c0,0,0.1,0,0.2,0c-0.2,0.3-1,0.5-1.3,0.3c0,0,0,0-0.1-0.1c-0.1,0-0.3-0.1-0.3-0.1c-0.1,0-0.1,0.1-0.2,0.2
				c-0.1,0.1-0.1,0.2-0.2,0.2c-0.2,0-0.3,0-0.4-0.2c0-0.2-0.3-0.2-0.5-0.2c-0.1,0.1-0.2,0.2-0.3,0.4c0,0,0.1,0.1,0.2,0.1
				c0.1,0,0.3,0,0.4,0c0.1,0,0.3,0.1,0.5,0.2c-0.8,0.3-1.2,0.7-1.7,1.2c-0.2,0.2-0.4,0.3-0.7,0.3c-0.2,0-0.4,0.1-0.5,0.3
				c-0.2,0.2-1,0.4-1.3,0.2c-0.5-0.3-0.8-0.3-1.3,0c-0.3,0.2-0.8,0.1-1.2,0.1c0,0,0-0.1,0.1-0.1c-0.1-0.1-0.2-0.2-0.4-0.3
				c-0.3-0.1-0.7-0.1-1-0.2c-0.3-0.1-0.7-0.1-1-0.2c-0.2,0-0.3,0-0.5,0.1c-0.4,0.1-0.8,0.2-1.3,0.1c-0.2,0-0.5,0.1-0.8,0.1
				c-0.1,0-0.2,0-0.3,0c-0.3-0.1-0.6-0.2-1-0.2c-0.3,0-0.7,0-1-0.1c-0.2,0-0.3-0.1-0.5-0.1c-0.1,0-0.3,0-0.3-0.1
				c-0.3-0.2-0.7-0.2-1.1-0.1c-0.4,0.1-0.8,0.2-1.1,0.3c-0.3,0.1-0.5,0.1-0.8,0.2c0,0-0.1,0-0.1-0.1c0-1.2-0.2-2.4,0.4-3.5
				c0.7-1.2,1.7-2.2,3.4-2.6c0.4-0.1,0.8-0.1,1.2-0.1c20.7,0,41.4,0,62.2,0c2,0,3.3,0.8,4.3,2.1c0.6,0.8,0.8,1.6,0.8,2.4
				c0,0.4,0,0.8,0,1.2c-0.1,0-0.2,0-0.2,0c-0.4-0.1-0.9-0.2-1.3-0.3c-0.1,0-0.2-0.1-0.2-0.1c-0.5,0-1-0.1-1.5-0.1
				c-0.1,0-0.1,0-0.2,0c0,0.3,0,0.3-0.5,0.3c-0.3,0-0.6,0-0.8,0c-0.1,0.2-0.3,0.3-0.6,0.1c-0.3-0.2-0.6-0.4-1-0.6
				c-0.3-0.1-0.7-0.1-1-0.2c-0.1,0.1-0.1,0.2-0.2,0.2c-0.3,0-0.6,0-0.9,0c-0.3,0-0.5-0.1-0.8-0.1c-0.2,0-0.4-0.1-0.5-0.1
				c-0.3-0.1-0.3-0.1-0.6,0.1c-0.1,0.1-0.4,0.1-0.5,0.1c0-0.1,0-0.1,0-0.2c0,0,0.2,0,0.2-0.1c0.1-0.1,0.2-0.2,0.4-0.3
				c-0.1-0.1-0.3-0.2-0.4-0.2c-0.3-0.1-0.6-0.1-1-0.1c-0.2,0-0.4-0.1-0.5-0.1c-0.3-0.2-1-0.1-1.2,0.1c-0.1,0.2-0.3,0.2-0.5,0.2
				c-0.5,0-1,0.1-1.5,0.1c-0.2,0-0.5,0.1-0.5,0.3c0,0-0.1,0.1-0.2,0.1c-0.1,0-0.2,0-0.3,0c-0.3,0-0.4,0-0.2,0.3c0,0,0,0.1,0,0.2
				c-0.2,0-0.4,0-0.6,0c-0.2,0-0.2,0.1-0.1,0.2c0,0,0,0.1,0,0.2c-0.1,0-0.2,0-0.3,0c-0.1,0-0.1-0.1-0.2-0.2c0-0.1-0.1-0.1-0.1-0.2
				c-0.1,0.1-0.1,0.2-0.2,0.3c0,0-0.1,0.1-0.2,0.1c-0.1,0-0.1-0.1-0.1-0.1c0-0.2-0.1-0.3-0.4-0.4c-0.1,0-0.2-0.1-0.3-0.1
				c0,0-0.1,0.1-0.1,0.1c0,0.3-0.3,0.6,0,0.9c0.1,0.1,0.2,0.1,0.3,0.2c0.1,0.1,0.1,0.2,0.2,0.2c-0.1,0-0.2,0-0.3,0
				c-0.5-0.1-0.9-0.4-1.4-0.3c-0.2,0-0.4-0.1-0.6-0.1c0.1,0.1,0.2,0.2,0.2,0.2c-0.3,0.1-0.7,0.1-1,0.2c-0.2,0-0.2,0.1-0.3,0
				c0,0-0.2-0.1-0.2,0c-0.3,0.1-0.7,0.3-1,0.4c-0.1,0-0.2,0.1-0.4,0.1c0-0.1,0-0.2,0-0.2c0-0.1,0-0.2-0.1-0.2
				c-0.1-0.1-0.3-0.1-0.5-0.1c0.1,0.2,0.2,0.4,0.3,0.5c0.1,0.2-0.1,0.2-0.2,0.2c-0.4,0-0.5,0.1-0.6,0.4c0,0.1-0.1,0.2-0.3,0.1
				c0,0-0.1,0-0.1,0c-0.1,0-0.3,0-0.4,0c0,0.1,0.1,0.2,0.1,0.3c-0.1,0-0.3,0-0.4-0.1c-0.1-0.1-0.2-0.2-0.3-0.3
				c-0.1-0.1-0.1-0.2-0.1-0.3c0.2,0,0.4,0,0.5,0c0.4,0.1,0.7,0.1,1-0.1c0.2-0.1,0.2-0.2,0-0.3c-0.3-0.1-0.6-0.2-0.9-0.3
				c-0.5-0.1-1-0.2-1.5-0.4c-0.1,0-0.2-0.1-0.2-0.2c-0.2-0.2-0.4-0.3-0.7-0.1c-0.1,0-0.2,0.1-0.3,0.1c-0.8-0.2-1.4,0.1-2,0.4
				c-0.2,0.1-0.3,0.1-0.5,0.2c0.3,0.3-0.1,0.4-0.3,0.6c-0.2,0.2-0.4,0.4-0.5,0.7c-0.1,0.2-0.3,0.3-0.6,0.3c-0.1,0-0.3,0-0.4,0.1
				c-0.6,0.3-0.7,0.6-0.5,1.1c0,0.1,0,0.1,0,0.2c0,0.2,0.2,0.4,0.5,0.4c0.1,0,0.2,0,0.2-0.1c0.1,0,0.1-0.1,0.2-0.2
				c0.3-0.2,0.4-0.2,0.6,0.1c0,0.1,0.1,0.2,0.2,0.3c0,0.1,0.1,0.2,0.1,0.3c0,0.1-0.1,0.2-0.2,0.2c-0.1,0-0.2-0.1-0.2-0.1
				c-0.1-0.1-0.1-0.1-0.1-0.2c0-0.1,0-0.1,0-0.2c-0.5,0.1-0.7,0.4-0.5,0.8c0,0.1,0.1,0.2,0.1,0.2c0.1,0.1,0,0.2-0.2,0.3
				c-0.2,0-0.4,0.1-0.6,0.1c-0.2,0-0.4,0.1-0.4,0.3c0,0.3-0.2,0.4-0.4,0.5c-0.2,0.1-0.4,0.2-0.5,0.4c-0.1,0.3-0.5,0.2-0.8,0.2
				c0,0.3-0.2,0.2-0.4,0.2c-0.1,0-0.2,0-0.2,0c-0.1,0-0.2,0.1-0.2,0.1c0,0,0.1,0.1,0.1,0.1c0.6,0.3,0.8,0.7,0.8,1.2
				c0,0.3-0.2,0.4-0.5,0.4c-0.3,0-0.7,0-1,0c-0.1,0-0.2,0-0.3,0c-0.1,0-0.3,0-0.4,0c-0.1,0.1-0.1,0.2-0.1,0.3
				c0.1,0.3,0.1,0.6-0.1,0.9c-0.1,0.2-0.1,0.3,0,0.5c0,0,0,0,0,0c0,0.3,0.1,0.4,0.5,0.4c0.2,0,0.4,0.5,0.3,0.7
				c-0.1,0.3-0.3,0.5-0.7,0.7c-0.4,0.2-0.6,0.5-0.6,0.9c0,0.4-0.4,0.8-0.9,0.9c-0.1,0-0.2,0.1-0.2,0.1c-0.2,0.2-0.3,0.4-0.4,0.6
				c-0.1,0.1-0.1,0.2-0.2,0.4c0,0,0,0.1,0,0.1c-0.4,0.3-0.3,0.8-0.7,1.1c0,0,0,0.1,0,0.1c0,0.3,0.1,0.6,0.1,0.8
				c0,0.4,0.1,0.8-0.1,1.2c-0.2,0.4,0,0.7,0,1.1c0,0.1,0.2,0.3,0.3,0.4c0.4,0.3,0.7,0.7,0.9,1.1c0.1,0.3,0.4,0.5,0.7,0.7
				c0.2,0.2,0.5,0.4,0.8,0.5c0.1,0.1,0.2,0.1,0.4,0.1c0.5-0.2,1-0.2,1.5-0.1c0.2,0,0.4-0.1,0.5-0.1c0.4-0.3,0.9-0.4,1.4-0.3
				c0.3,0,0.4,0.1,0.5,0.3c0.1,0.4,0.2,0.4,0.7,0.4c0.6,0,0.7,0.1,0.7,0.5c0,0.4,0,0.9-0.3,1.3c0,0,0,0.1,0,0.1
				c0.1,0.1,0.2,0.3,0.3,0.4c0.2,0.3,0.5,0.6,0.6,0.9c0.2,0.3,0.2,0.6,0.3,0.9c0,0.1,0.1,0.1,0.1,0.2c0,0.1,0.1,0.1,0,0.2
				c-0.2,0.2,0,0.4,0.1,0.7c0,0.1,0.1,0.2,0.1,0.3c-0.1,0.3-0.2,0.6-0.3,0.9c-0.3,0.5-0.2,1-0.2,1.5c0,0.2,0.2,0.4,0.3,0.6
				c0.2,0.5,0.5,1,0.5,1.5c0.1,0.6,0.3,1.2,0.6,1.8c0.2,0.4,0.4,0.7,0.4,1.2c0,0.2,0.1,0.4,0.2,0.5c0.2,0.2,0.5,0.1,0.7,0
				c0.3-0.1,0.6-0.1,0.8-0.1c0.5-0.1,1-0.1,1.3-0.5c0.4-0.5,0.8-0.9,1.2-1.3c0.2-0.2,0.3-0.6,0.3-0.9c0-0.2,0.1-0.4,0.3-0.5
				c0.5-0.3,0.7-0.7,0.5-1.3c-0.1-0.2-0.1-0.5,0.1-0.7c0.4-0.3,0.6-0.7,1.2-0.9c0.3-0.1,0.5-0.4,0.5-0.7c0-0.3,0-0.6,0-0.9
				c0-0.4-0.1-0.8-0.2-1.2c-0.1-0.4-0.3-0.8-0.2-1.2c0-0.2,0.1-0.4,0.2-0.5c0.2-0.3,0.3-0.6,0.6-0.9c0.3-0.3,0.6-0.7,0.9-1
				c0.1-0.1,0.3-0.2,0.4-0.3c0.2-0.2,0.3-0.3,0.4-0.5c0.4-0.5,0.7-1.1,1-1.6c0.2-0.4,0.4-0.8,0.3-1.2c0-0.1-0.1-0.2-0.3-0.1
				c-0.2,0.1-0.5,0.2-0.7,0.2c-0.3,0.1-0.6,0.2-0.9,0.2c-0.3,0-0.5-0.2-0.5-0.5c0-0.2-0.1-0.3-0.3-0.4c-0.5-0.5-1.3-1-1.4-1.7
				c0-0.1-0.1-0.2-0.1-0.2c-0.3-0.2-0.3-0.4-0.3-0.6c0.1-0.3-0.2-0.5-0.4-0.8c-0.3-0.6-0.6-1.2-0.9-1.8c0.4-0.2,0.5-0.1,0.7,0.1
				c0.3,0.5,0.7,1,1,1.5c0,0.1,0,0.2,0.1,0.2c0.1,0.2,0.1,0.4,0.2,0.5c0.2,0.3,0.5,0.6,0.7,0.9c0.1,0.1,0.2,0.3,0.3,0.4
				c0,0.1-0.1,0.2-0.1,0.2c0.2,0.4,0.3,0.7,0.5,1.1c0.1,0.2,0.4,0.3,0.5,0.2c0.2-0.3,0.7-0.2,0.9-0.4c0.4-0.3,1-0.3,1.3-0.7
				c0.1-0.1,0.3-0.2,0.4-0.2c0.3-0.1,0.5-0.1,0.6-0.3c0.1-0.2,0.3-0.3,0.5-0.4c0.1-0.1,0.1-0.2,0.1-0.3c0,0,0-0.1,0-0.1
				c0.3-0.2,0.3-0.5,0.4-0.7c0.1-0.2-0.1-0.6-0.4-0.6c-0.4,0-0.6-0.2-0.6-0.5c0-0.1-0.1-0.2-0.1-0.3c-0.2,0.2-0.3,0.3-0.4,0.4
				c-0.1,0.1-0.3,0.2-0.4,0.2c-0.4,0-0.5,0-0.5-0.4c0-0.1,0-0.1,0-0.2C55,34,55,34,54.9,33.7c-0.1-0.2-0.2-0.4-0.4-0.5
				c-0.2-0.2-0.2-0.4-0.1-0.7c0-0.1,0.2-0.2,0.3-0.2c0.1,0,0.3,0.1,0.3,0.1c0.1,0.1,0.3,0.3,0.3,0.5c0.1,0.3,0.5,0.4,0.8,0.6
				c0.1,0.1,0.4,0,0.6,0c0.1,0,0.3-0.1,0.4-0.1c0.1,0,0.1,0.2,0.1,0.3c0,0,0,0,0,0.1c0.4,0,0.8,0.1,1.1,0.2c0.3,0.1,0.6,0.2,1,0.1
				c0.2,0,0.4,0,0.5,0c0.3,0,0.5,0.1,0.6,0.3c0,0,0,0.1,0.1,0.1c0.3,0.2,0.5,0.5,0.6,0.8c0.1,0.3,0.5,0.3,0.9-0.1
				c0.1,0.2,0.1,0.4,0.2,0.6c0.1,0.4,0.2,0.7,0.3,1.1c0.1,0.2,0.1,0.4,0.2,0.6c0.1,0.3,0.3,0.6,0.4,0.9c0.1,0.3,0.3,0.6,0.4,0.9
				c0.1,0.1,0.1,0.3,0.2,0.4c0,0.1,0.1,0.1,0.2,0.2c0.1-0.1,0.2-0.1,0.2-0.2c0.2-0.2,0.3-0.4,0.5-0.6c0.1-0.1,0.1-0.2,0.1-0.3
				c0-0.3,0-0.6,0-0.9c0-0.1,0-0.1,0-0.2c-0.2-0.3,0-0.4,0.3-0.6c0.4-0.4,0.8-0.8,1.1-1.2c0.1-0.1,0.2-0.1,0.2-0.1
				c0.1-0.1,0.2-0.2,0.3-0.3c0.1-0.4,0.2-0.4,0.6-0.3c0.2-0.1,0.4-0.1,0.5-0.2c0.2-0.1,0.5,0.1,0.5,0.3c0,0.2,0.2,0.4,0.4,0.5
				c0.1,0.1,0.1,0.2,0.2,0.2c0.1,0.1,0.1,0.2,0.2,0.3c0.1,0.1,0.2,0.2,0.1,0.4c0,0.1-0.1,0.1,0,0.2c0.1,0.1,0.1,0.2,0.2,0.4
				c0.1-0.1,0.3-0.1,0.4-0.2c0.1,0,0.1-0.1,0.2-0.1c0.1,0,0.2-0.1,0.2,0c0.1,0,0.1,0.1,0.1,0.2c0.1,0.3,0.2,0.6,0.3,0.9
				c0.1,0.4,0.1,0.7,0.2,1.1c0,0.3,0,0.6,0,0.9c0,0,0,0.1,0.1,0.1c0.5,0.2,0.5,0.6,0.8,1c0,0,0,0.1,0,0.2c-0.2,0.2,0,0.3,0.1,0.5
				c0.1,0.2,0.3,0.4,0.6,0.5c0.1,0,0.2,0.2,0.3,0.3c0,0,0.1,0.1,0.2,0.1c0,0,0,0,0,0c-0.1-0.2-0.3-0.5-0.4-0.7
				c0-0.1-0.1-0.1-0.1-0.2c0-0.5-0.3-0.9-0.8-1.3c-0.2-0.1-0.4-0.3-0.3-0.5c0,0,0-0.1-0.1-0.2c-0.3-0.3-0.2-0.6-0.1-0.8
				c0-0.1,0-0.3,0.1-0.4c0-0.1,0.1-0.2,0.2-0.3c0.1,0.1,0.1,0.1,0.2,0.2c0,0,0,0.1,0.1,0.1c0.5,0.1,0.7,0.5,0.9,0.8
				c0,0,0.1,0.1,0.1,0.1c0.3,0,0.4,0.1,0.2,0.3c0,0,0,0.1,0,0.2c0.1,0,0.2,0,0.2-0.1c0.1-0.1,0.2-0.3,0.4-0.4
				c0.1-0.1,0.2-0.1,0.3-0.2c0.3-0.1,0.4-0.2,0.4-0.5c0.1-0.7-0.2-1.2-0.8-1.7c-0.2-0.2-0.4-0.5-0.5-0.7c-0.1-0.1,0-0.3,0.1-0.4
				c0.1-0.1,0.2-0.2,0.3-0.4c0.2-0.2,0.4-0.2,0.6-0.1c0.1,0,0.1,0.1,0.1,0.2c0,0.1,0,0.1,0,0.2c0.1-0.1,0.1-0.1,0.1-0.1
				c0-0.2,0.2-0.3,0.5-0.3c0.1,0,0.2-0.1,0.4-0.2c0,0.1,0,0.2,0,0.2c0,2.2,0,4.3,0,6.5c0,0.3,0,0.5-0.4,0.6
				c-0.3,0.1-0.4,0.6-0.1,0.8c0.2,0.1,0.2,0.3,0.2,0.5c-0.1,0.2,0.1,0.4,0.4,0.5c0,0.3,0,0.7,0,1c-0.2,0-0.4,0.1-0.5,0.1
				c-0.2,0-0.5,0-0.7-0.2c-0.2-0.2-0.5-0.1-0.6,0c0.3,0.1,0.5,0.3,0.7,0.4c0.3,0.1,0.7,0.2,1,0.3c0,0,0,0,0.1-0.1c0,0.1,0,0.2,0,0.3
				c0,1.7,0,3.4,0,5c0,0.3-0.1,0.6-0.1,0.8c0,0.1-0.1,0.2-0.2,0.2c0.4,0.6,0.2,1.3,0.2,1.9c0,0.3-0.2,0.5-0.4,0.8
				c-0.1,0.2-0.1,0.3,0.2,0.4c0.3,0,0.3,0.1,0.3,0.3c0,2.3,0,2.4,0,4.7c0,1.3-0.6,2.5-1.9,3.4c-0.9,0.7-2,1-3.2,1
				c-0.1,0-0.3,0-0.4,0c-20.4,0-40.8,0-61.2,0c-2.7,0-4.6-1.1-5.3-3.1c-0.2-0.5-0.3-1.1-0.3-1.6c0-13.4,0-24.5,0-37.9
				c0-0.4,0.4-0.6,0.9-0.4C3.6,22,3.8,22,3.9,22.1c0.6,0.1,0.9,0.4,0.8,0.9c0,0.2-0.1,0.4-0.1,0.6c0,0.1,0.1,0.2,0.2,0.2
				c0.1,0.1,0.2,0.1,0.2,0.2c0,0.3,0,0.6,0,1c0,0.1,0,0.2-0.2,0.2c-0.2,0-0.2,0.1-0.1,0.2c0,0,0.1,0.1,0.1,0.1
				c0.3,0.2,0.4,0.4,0.2,0.7c-0.3,0.3-0.4,0.7-0.6,1.1c-0.1,0.1-0.2,0.2-0.3,0.3c0,0-0.1,0.1-0.1,0.1c-0.2,0.3-0.3,0.7-0.6,1.1
				c-0.2,0.3,0,0.7,0,1.1c0,0.2,0,0.4,0.1,0.6c0,0.1,0.1,0.3,0.2,0.4c0.3,0.2,0.5,0.4,0.5,0.8c0,0.4,0,0.8,0.3,1.2c0,0,0,0.1,0,0.2
				c-0.3,0.3,0.1,0.5,0.2,0.7c0.1,0.1,0.2,0.2,0.2,0.2c0,0.2,0.1,0.4,0.2,0.6c0.1,0.1,0.2,0.2,0.2,0.4C5.4,34.8,5.5,34.8,5.5,34.8z
				 M28.9,20.1c-0.6,0.4-0.7,0.9-0.7,1.4c0,0.3,0.1,0.6,0.2,0.9c0,0.1,0.2,0.2,0.3,0.3c0.1,0.1,0.3,0.1,0.4,0.2
				c0.2,0.1,0.5,0.1,0.6,0c0.3-0.4,0.7-0.7,0.9-1.1c0.3-0.4,0.8-0.5,1.2-0.6c0.3-0.1,0.6-0.1,0.8-0.3c0.6-0.4,1.3-0.6,2-0.8
				c0.1,0,0.3-0.1,0.4-0.1c0.5-0.1,0.5-0.1,0.5-0.4c0-0.2,0.1-0.4,0.3-0.5c0.1,0,0.2-0.1,0.3-0.2c0.1,0,0.1-0.1,0.1-0.2
				c-0.1-0.2,0-0.3,0.1-0.4c0.2-0.1,0.2-0.2,0.1-0.4c-0.2-0.2-0.1-0.3,0.2-0.4c0.1,0,0.2-0.1,0.4-0.1c0.3-0.1,0.5-0.2,0.8-0.3
				c0,0,0,0,0-0.1c-0.1,0-0.2,0-0.3,0c-0.2,0-0.5,0.1-0.6,0c-0.3-0.1-0.6-0.2-0.9-0.3c-0.3,0-0.6-0.1-0.9-0.1
				c-0.7,0-1.4,0.1-2.2,0.1c-0.3,0-0.6,0-0.8,0.1C32,17,31.9,17,31.8,17c-0.4,0-0.9,0-1.3,0c-0.8,0.1-1.5,0.2-2.3,0.2
				c0,0.3-0.1,0.4-0.3,0.4c-0.4,0-0.7,0.1-1.1,0.1c-0.1,0-0.2,0.1-0.3,0.1c0.1,0.1,0.2,0.2,0.3,0.2c0.4,0.1,0.8,0.2,1.2,0.2
				c0.5,0.1,0.9,0.4,0.8,0.8c0,0.1-0.1,0.2-0.2,0.3c0.1,0.1,0.3,0.1,0.5,0.2c-0.2,0.1-0.4,0.1-0.5,0.1C28.5,19.9,28.6,20,28.9,20.1z
				 M54.2,47c-0.2,0.2-0.3,0.4-0.4,0.6c-0.2,0.2-0.4,0.4-0.7,0.6c-0.5,0.2-0.7,0.6-0.5,1c0.1,0.2,0.1,0.4,0,0.5
				c-0.3,0.4-0.4,0.8-0.4,1.2c0,0.2,0.2,0.4,0.4,0.5c0,0,0.1,0,0.2,0c0.5-0.1,0.6-0.4,0.7-0.7c0.1-0.3,0.1-0.5,0.2-0.8
				c0.1-0.3,0.1-0.5,0.2-0.8c0-0.1,0-0.2,0.1-0.2c0.2-0.3,0-0.7,0.4-0.9c0,0,0,0,0,0C54.4,47.6,54.5,47.3,54.2,47z M15.2,19.4
				C15.3,19.5,15.3,19.5,15.2,19.4c0,0.2,0,0.3-0.1,0.4c-0.1,0.1-0.2,0.2,0,0.4c0.3,0.2,0.5,0.3,0.8,0.1c0.1,0,0.2-0.1,0.4-0.1
				c0.3,0,0.6,0,0.9,0c0.1,0,0.3,0,0.4,0.1c0.2,0.1,0.7-0.1,0.6-0.3c-0.1-0.3-0.1-0.5,0-0.7c0-0.1,0-0.2-0.1-0.2c-0.1,0-0.2,0-0.3,0
				c-0.1,0.1-0.1,0.2-0.2,0.2c-0.1,0-0.2,0.1-0.2,0.1c-0.3-0.1-0.5-0.1-0.7-0.2c-0.1,0-0.2-0.1-0.3-0.2c-0.1-0.2-0.3-0.3-0.6-0.3
				c-0.1,0-0.3,0-0.4,0c-0.2,0-0.4,0.1-0.6,0.2c-0.2,0.2-0.4,0.2-0.7,0.4c-0.1,0-0.1,0.1-0.2,0.1c0.1,0.1,0.2,0.2,0.3,0.2
				c0.2,0,0.4-0.1,0.6-0.1C15,19.6,15.1,19.5,15.2,19.4z M71.3,43.9c-0.1-0.1-0.2-0.3-0.3-0.4c-0.1-0.1-0.2-0.2-0.3-0.2
				c-0.2-0.1-0.3-0.2-0.1-0.3c0,0,0-0.1,0-0.1c-0.1-0.1-0.1-0.1-0.2-0.2c-0.3-0.2-0.6-0.4-0.8-0.6c-0.1-0.1-0.1-0.3-0.3-0.3
				c-0.3-0.2-0.6-0.4-1-0.5c-0.1,0-0.2,0-0.2,0c0,0,0.1,0.1,0.1,0.1c0.2,0.2,0.4,0.4,0.6,0.6c0,0,0.1,0.1,0.1,0.1
				c0.2,0.1,0.4,0.3,0.5,0.5c0.1,0.3,0.4,0.6,0.5,1c0,0.5,0.4,0.9,0.8,1.2c0.1,0.1,0.3,0.1,0.4,0.1c0.1-0.1,0.2-0.3,0.2-0.4
				C71.2,44.2,71.3,44,71.3,43.9z M39.4,23.3C39.3,23.3,39.3,23.3,39.4,23.3c-0.1,0-0.2,0.1-0.3,0.1c-0.3,0.1-0.5,0.2-0.5,0.4
				c0,0.1,0,0.2,0,0.4c0,0.3,0,0.3,0.4,0.4c0.1,0,0.1,0.1,0.2,0.1c0.1,0.2,0,0.4-0.3,0.4c0,0.1,0,0.2,0,0.2
				c-0.3,0.2-0.1,0.2,0.1,0.3c-0.1,0.1-0.2,0.2-0.3,0.3c0,0,0,0,0.1,0.1c0.1,0,0.2,0,0.2,0c0.2-0.1,0.5-0.2,0.8-0.1
				c0.3,0,0.6,0,0.6-0.3c0,0,0-0.1,0.1-0.1c0.1-0.1,0.1-0.2-0.1-0.3c-0.1,0-0.2-0.1-0.2-0.2c-0.2-0.2-0.3-0.5-0.5-0.7
				c-0.1-0.2-0.2-0.2,0-0.4c0.1-0.1,0.1-0.2-0.1-0.2c-0.3-0.1-0.3-0.1-0.1-0.3C39.3,23.4,39.3,23.4,39.4,23.3z M16.2,18.4
				c0.2,0.1,0.4,0.2,0.6,0.2c0.2,0.1,0.4,0.2,0.6,0.3c0.1,0,0.2,0,0.3,0c0.3-0.1,0.6-0.2,1-0.2c0.6,0,0.6,0,0.3-0.4c0,0,0,0-0.1,0
				c-0.3,0.1-0.6,0.3-0.8,0.2c-0.2,0-0.6-0.1-0.6-0.5C17.1,18.1,16.6,18.3,16.2,18.4z M35.6,22c0.4-0.1,0.7-0.2,1-0.3
				c0.3-0.1,0.3-0.2,0.3-0.4c-0.1-0.2-0.3-0.1-0.5-0.1c-0.4,0-0.9,0.3-1.3-0.1c0,0-0.2,0.1-0.3,0.1c0.1,0.1,0.1,0.1,0.2,0.2
				c0.1,0.1,0.2,0.1,0.3,0.2C35.3,21.7,35.4,21.9,35.6,22z M15.2,35.1c0,0,0,0.1-0.1,0.1c0.2,0.1,0.4,0.2,0.7,0.3
				c0.3,0.1,0.5,0.2,0.5,0.5c0,0.1,0.1,0.2,0.3,0.2c0.2,0,0.5-0.1,0.7-0.1c0.1,0,0.1-0.1,0.2-0.1c-0.1-0.1-0.1-0.1-0.2-0.2
				c-0.1-0.1-0.2-0.1-0.3-0.2c-0.3-0.2-0.6-0.5-1-0.5c-0.1,0-0.1,0-0.2,0C15.6,35.2,15.4,35.2,15.2,35.1z M38.5,24.6
				c-0.4-0.1-0.4-0.1-0.7,0.1c0,0-0.1,0.1-0.2,0.1c-0.3,0-0.3,0.2-0.2,0.3c0,0.1,0,0.2,0,0.3c0,0.1-0.1,0.2-0.1,0.2
				c0.2,0,0.3,0,0.5,0c0.4-0.1,0.7-0.2,0.6-0.6c0,0,0.1-0.1,0.1-0.1C38.4,24.8,38.5,24.7,38.5,24.6z M19.3,36.7
				c-0.3-0.4-0.4-0.5-0.9-0.5c-0.1,0-0.1,0-0.2,0c-0.2,0-0.3,0-0.3,0.2c0,0.1-0.1,0.2-0.3,0.2c-0.1,0-0.2,0.1-0.3,0.1
				c0,0,0,0.1,0,0.1c0.1,0,0.3,0,0.4,0c0.1,0,0.2,0.1,0.4,0.1c0.1,0,0.2,0,0.2-0.1c0.1-0.2,0.3-0.2,0.5-0.2
				C19,36.7,19.1,36.7,19.3,36.7z M19.1,19.3c0,0-0.1,0-0.1,0c0.2,0.1,0.3,0.3,0.5,0.3c0.2,0,0.5-0.1,0.6-0.2
				c0.1-0.1,0.1-0.3,0.1-0.4c-0.1,0-0.2,0-0.4,0c-0.1,0-0.2,0-0.2,0c-0.1,0-0.1,0-0.2,0.1C19.3,19.1,19.3,19.2,19.1,19.3z
				 M63.4,39.8c0,0.1,0,0.1,0,0.2c0,0.2,0.1,0.4,0.1,0.6c0,0,0.1,0.1,0.1,0.1c0.1,0,0.1-0.1,0.2-0.1C64,40.4,63.8,39.9,63.4,39.8z
				 M21.5,17.9C21.5,17.9,21.5,17.8,21.5,17.9c-0.2-0.1-0.5-0.2-0.7-0.2c0,0-0.1,0-0.2,0.1c0,0,0,0.1,0,0.1c0.2,0.1,0.4,0.1,0.6,0.2
				C21.3,18,21.4,17.9,21.5,17.9z M72,36.2c-0.2,0.1-0.3,0.2-0.2,0.4c0,0,0.1,0.1,0.2,0C72.1,36.5,72.2,36.4,72,36.2
				C72.1,36.2,72.1,36.2,72,36.2z M22.1,17.6c-0.1,0-0.1,0-0.2,0c0,0.1,0,0.2,0,0.3c0,0,0.1,0.1,0.1,0.1c0,0,0.1,0,0.1-0.1
				C22.1,17.8,22.1,17.7,22.1,17.6z M19.3,17.8C19.3,17.8,19.2,17.8,19.3,17.8c-0.2,0-0.4,0.1-0.5,0.1c0,0,0.1,0.1,0.1,0.1
				C19,18,19.2,17.9,19.3,17.8z"/>
			<path class="st2" d="M43.9,30.1c0.3-0.1,0.5-0.3,0.4-0.5c-0.1-0.2,0-0.3,0.3-0.4c-0.7-0.2-1-0.7-1.4-1.1
				c-0.1-0.1-0.1-0.3-0.1-0.5c0,0,0.1-0.1,0.1-0.1c0.1,0,0.3,0.1,0.3,0.1c0.2,0.5,0.8,0.8,1.3,1.1c0.2,0.2,0.4,0.3,0.3,0.5
				c-0.1,0.2,0.1,0.4,0.3,0.5c0.2,0.1,0.3,0.2,0.3,0.4c0,0.1,0.1,0.2,0.2,0.2c0.1-0.1,0.1-0.1,0.2-0.2c0,0,0.1-0.1,0.1-0.1
				c0.1-0.1,0.1-0.2,0-0.3c-0.1-0.1-0.1-0.1-0.2-0.2c0-0.1-0.1-0.1-0.1-0.2c0.1,0,0.2,0,0.3,0c0.1,0,0.1-0.1,0.2-0.1
				c0.1,0,0.2-0.1,0.3-0.1c0.1,0.1,0.3,0.2,0.2,0.3c0,0.3,0.2,0.6,0.3,0.9c0,0,0.1,0.1,0.1,0.1c0.2,0.1,0.5,0.1,0.7,0.2
				c0.1-0.2,0.4-0.1,0.6,0c0.3,0.2,0.4,0,0.6-0.1c0.1,0,0.3-0.1,0.3-0.1c0.1,0,0.2,0.2,0.2,0.3c0.1,0.5-0.2,1-0.4,1.4
				c0,0.1-0.2,0.2-0.4,0.2c-0.2,0-0.5,0-0.7,0c-0.1,0-0.2,0.1-0.4,0.1c-0.1,0-0.3,0-0.4,0c-0.5-0.2-1-0.4-1.5-0.6
				c-0.3-0.1-0.5,0-0.7,0.1c-0.1,0.1-0.3,0.2-0.1,0.4c0,0,0,0.2-0.1,0.2c-0.1,0-0.2,0.1-0.3,0c-0.3-0.1-0.5-0.2-0.8-0.3
				c-0.2-0.1-0.4-0.2-0.5-0.3c-0.2-0.2-0.3-0.2-0.6-0.2c-0.2,0-0.3-0.2-0.4-0.3c-0.2-0.1-0.2-0.2-0.1-0.4c0.2-0.2,0-0.5,0-0.7
				c0,0-0.2-0.1-0.4-0.1c-0.2,0-0.4,0-0.5,0c-0.2,0-0.4,0.1-0.5,0.1c-0.1,0-0.2,0-0.3,0c-0.3,0-0.7,0.1-1,0.1
				c-0.2,0-0.3,0.2-0.4,0.3c-0.1,0.1-0.3,0.1-0.4,0.1c-0.1,0-0.3,0-0.4,0c-0.1,0-0.3-0.1-0.3-0.1c-0.1-0.1-0.1-0.3,0.2-0.3
				c0.2,0,0.3-0.1,0.5-0.1c0.4-0.1,0.8-0.5,0.8-0.8c0-0.3,0.2-0.5,0.5-0.7c0.2-0.1,0.5-0.2,0.5-0.5c0-0.2,0.4-0.3,0.6-0.2
				c0.2,0.1,0.3,0.1,0.4,0c0.1-0.1,0.2-0.2,0.4-0.2c0.2-0.1,0.5-0.1,0.6,0.1c0.1,0.3,0.4,0.6,0.8,0.8c0.2,0.1,0.3,0.2,0.5,0.3
				c0.3,0.2,0.4,0.4,0.2,0.7C44,30,44,30.1,43.9,30.1z M43.4,30.2C43.3,30.2,43.3,30.3,43.4,30.2c0.1,0.1,0.3,0.2,0.4,0.2
				C43.8,30.2,43.8,30.2,43.4,30.2z"/>
			<path class="st2" d="M45.4,23.7c-0.3,0.2-0.3,0.4-0.2,0.6c0.1,0.1,0.1,0.2-0.1,0.3c-0.2,0.1-0.4,0.3-0.7,0.1c0,0-0.2,0-0.3,0.1
				c-0.2,0.1-0.5,0.2-0.8,0.1c0,0-0.1,0-0.2,0c-0.1,0-0.2,0-0.3,0c0-0.1,0-0.2,0.1-0.3c0.1-0.1,0.2-0.1,0.3-0.1c0.1,0,0.2,0,0.2,0
				c0.2-0.1,0.3-0.2,0.5-0.3c0.1-0.1,0.2-0.2,0.1-0.3c-0.1-0.3,0.1-0.4,0.3-0.6c0.2-0.2,0.2-0.3,0-0.4c-0.3-0.1-0.2-0.3-0.1-0.5
				c0.1-0.2,0.2-0.5,0.6-0.6c0.2-0.1,0.3-0.2,0.3-0.4c0-0.1,0.1-0.2,0.3-0.2c0.1,0,0.3,0,0.4,0c0.1,0,0.2,0,0.2,0c0,0,0,0.1,0,0.2
				c-0.1,0.1-0.2,0.2-0.4,0.3c-0.3,0.2-0.5,0.4-0.4,0.7c0,0.1,0,0.2,0,0.3c0,0.2,0.3,0.3,0.6,0.2c0.3-0.1,0.7-0.1,1.1-0.1
				c0.1,0,0.2,0.1,0.3,0.1c-0.1,0.1-0.1,0.2-0.2,0.2c-0.1,0-0.3,0-0.5,0.1c-0.1,0-0.3,0-0.4,0c-0.2,0-0.3,0.1-0.1,0.3
				c0,0,0.1,0.1,0.1,0.1c0,0.1,0,0.2-0.1,0.3c0,0-0.2,0-0.3,0C45.5,23.8,45.5,23.8,45.4,23.7z"/>
			<path class="st2" d="M49.6,27.7C49.6,27.7,49.7,27.8,49.6,27.7c0.6,0.2,1,0.6,1.4,1c0.1,0.1,0.1,0.2,0.1,0.3
				c0,0.1-0.2,0.2-0.3,0.2c-0.5,0-0.9,0.1-1.4-0.2c-0.2-0.1-0.5,0-0.8,0c-0.2,0-0.3,0.1-0.5,0.2c-0.2,0.1-0.9-0.1-0.9-0.3
				c0-0.2,0-0.3,0.1-0.5c0.1-0.2,0.2-0.5,0.4-0.7c0.1-0.1,0.3-0.2,0.4-0.3c0.2,0,0.4,0.1,0.4,0.3c0,0.2,0.1,0.3,0.4,0.3
				c0.2,0,0.3-0.1,0.3-0.3c0-0.2,0.3-0.5,0.6-0.5c0,0,0.1,0,0.1,0c0,0.1,0,0.1,0,0.2C49.9,27.5,49.7,27.6,49.6,27.7z"/>
			<path class="st2" d="M54.3,30.6c-0.3,0-0.4-0.1-0.6-0.2c-0.4-0.2-0.4-0.4-0.3-0.7c0.1-0.1,0.1-0.2,0.1-0.3c0-0.1,0-0.1,0-0.2
				c-0.2-0.2-0.5-0.4-0.7-0.6c-0.1-0.2-0.3-0.4-0.3-0.6c0-0.1,0.2-0.2,0.3-0.3c0.2-0.1,0.3-0.3,0.5-0.4c0.2-0.2,0.3-0.2,0.6,0
				c0.1,0.1,0.2,0.3,0.2,0.4c0,0.1-0.2,0.1-0.3,0.2c-0.2,0.1-0.3,0.2-0.1,0.3c0.2,0.2,0.4,0.3,0.6,0.4c0,0,0.1,0.1,0.1,0.1
				c0,0.1,0.1,0.2,0.2,0.2c0.1,0,0.2,0.1,0.2,0.2c0,0-0.1,0.1-0.1,0.2c-0.3,0.1-0.3,0.2-0.1,0.3c0.4,0.2,0.2,0.6,0.4,0.9
				c0,0-0.1,0.1-0.2,0.2C54.5,30.6,54.4,30.6,54.3,30.6z"/>
			<path class="st2" d="M56.4,20.4c0.3,0,0.4,0.2,0.3,0.4c0,0.1,0,0.1-0.1,0.2c0,0.1-0.1,0.2-0.2,0.2c-0.1,0-0.2,0-0.3-0.1
				c0-0.1,0.1-0.1,0.1-0.2C56.3,20.7,56.3,20.6,56.4,20.4z"/>
			<path class="st2" d="M72.9,29.5c0,0.2,0,0.4,0,0.6C72.4,30,72.4,29.9,72.9,29.5z"/>
			<path class="st2" d="M55.9,19.8c0.3,0,0.5,0.2,0.4,0.4c0,0-0.2,0-0.2,0C55.9,20.1,55.9,20,55.9,19.8z"/>
		</g>
	</g>
</g>
</svg>
