<?xml version="1.0" encoding="utf-8"?>
<!-- Generator: Adobe Illustrator 19.1.0, SVG Export Plug-In . SVG Version: 6.00 Build 0)  -->
<svg version="1.1" id="Layer_1" xmlns="http://www.w3.org/2000/svg" xmlns:xlink="http://www.w3.org/1999/xlink" x="0px" y="0px"
	 viewBox="0 0 77.8 77.8" style="enable-background:new 0 0 77.8 77.8;" xml:space="preserve">
<style type="text/css">
	.st0{fill:#FFFFFF;stroke:#000000;stroke-miterlimit:10;}
	.st1{fill:#020202;}
	.st2{fill:#FFFFFF;}
	.st3{stroke:#FFFFFF;stroke-miterlimit:10;}
	.st4{fill:#020202;stroke:#FFFFFF;stroke-miterlimit:10;}
	.st5{fill:none;stroke:#FFFFFF;stroke-linecap:round;stroke-miterlimit:10;}
	.st6{stroke:#000000;stroke-width:2;stroke-miterlimit:10;}
	.st7{fill:#FFFFFF;stroke:#000000;stroke-width:2;stroke-miterlimit:10;}
	.st8{fill:none;stroke:#FFFFFF;stroke-width:0.75;stroke-linecap:round;stroke-miterlimit:10;}
	.st9{fill:#010101;}
	.st10{clip-path:url(#SVGID_2_);}
	.st11{clip-path:url(#SVGID_2_);fill:none;stroke:#000000;stroke-width:0.75;stroke-miterlimit:10;}
	.st12{clip-path:url(#SVGID_2_);fill:none;stroke:#000000;stroke-width:0.5;stroke-miterlimit:10;}
	.st13{clip-path:url(#SVGID_2_);fill:#FFFFFF;}
	.st14{clip-path:url(#SVGID_2_);fill:none;stroke:#000000;stroke-width:0.25;stroke-miterlimit:10;}
	.st15{clip-path:url(#SVGID_2_);fill:none;stroke:#FFFFFF;stroke-width:0.25;stroke-miterlimit:10;}
	.st16{clip-path:url(#SVGID_4_);}
	.st17{stroke:#FFFFFF;stroke-width:3;stroke-miterlimit:10;}
</style>
<g>
	<path class="st0" d="M69.8,76.9H8c-3.9,0-7.1-3.2-7.1-7.1V8c0-3.9,3.2-7.1,7.1-7.1h61.8c3.9,0,7.1,3.2,7.1,7.1v61.8
		C76.9,73.7,73.7,76.9,69.8,76.9z"/>
	<path class="st9" d="M19.7,33.4c-0.1,1.7-0.5,9-0.5,12.2c0,0.6,0,0.8,0.3,0.9c1.8,0.8,3.7,1.6,5.4,2.7c1,0.6,1.9,1.4,2.6,2.3
		c1.2,1.4,1.6,3,1.5,4.9c-0.4,4.7-3.3,7.4-7.8,9.1c-0.8,0.3-1.7,0.4-2.6,0.6c-0.2,0-0.2,0.1-0.2,0.3c0,0.9-0.1,1.7-0.1,2.6
		c0,0.5-0.4,1-0.9,1c0,0,0,0,0,0c-0.6,0.1-1.2-0.4-1.2-1.1c0-0.9,0.1-1.8,0.1-2.7c-0.1,0-0.2,0-0.3,0c-1.9,0-3.8-0.3-5.6-1
		c-1.1-0.4-2.1-1-2.9-2c-1-1.2-1.3-2.6-0.8-4.1c0.5-1.6,2.2-2.4,3.9-2.1c0.4,0.1,0.5,0.1,0.4,0.5c-0.2,0.8-0.4,1.6-0.3,2.4
		c0.2,1.1,0.7,2,1.6,2.7c1.2,1,2.6,1.3,4.2,1.4c0.1-1.8,0.3-10.1,0.5-13.5c0-0.3-0.1-0.3-0.2-0.4c-1.3-0.7-2.7-1.3-4-2
		c-1.6-0.9-3-2-3.9-3.7c-0.7-1.2-0.9-2.6-0.8-4c0.3-3.3,2.2-5.7,5-7.4c1.3-0.8,2.8-1.3,4.4-1.6c0.1,0,0.2,0,0.3-0.1
		c0-0.4,0-0.7,0.1-1.1c0-0.8,0.1-1.5,0.1-2.3c0-0.4,0.2-0.7,0.6-0.8c0.4-0.1,0.9-0.1,1.3,0.1c0.2,0.1,0.3,0.1,0.3,0.4
		c0,0.8-0.1,1.7-0.1,2.6c0,0.3,0,0.6,0,1c0.6,0,1.1,0,1.7,0.1c1.9,0.2,3.7,0.6,5.2,1.8c1.1,0.8,1.8,1.9,1.7,3.4
		c0,0.5-0.2,1.1-0.5,1.5c-1,1.4-2.2,1.3-3.4,1.2c-0.3,0-0.4-0.1-0.3-0.4c0.1-0.7,0.2-1.4,0-2.2c-0.3-1.7-1.4-2.6-3-3
		C20.9,33.6,20.3,33.5,19.7,33.4z M18.6,63.9c0.1,0,0.1,0,0.2,0c1.7-0.3,3.2-0.8,4.6-1.8c1.7-1.4,2.4-3.2,2-5.3
		c-0.3-1.3-1-2.4-2-3.3c-1.1-1-2.4-1.6-3.8-2.3c-0.1-0.1-0.3-0.1-0.4-0.2C18.9,55.3,18.7,59.6,18.6,63.9z M17.6,33.5
		c-1.5,0.2-2.8,0.7-4,1.6c-1,0.7-1.7,1.6-2,2.8c-0.4,1.9,0.1,3.5,1.4,4.9c0.9,0.9,2,1.6,3.1,2.2c0.3,0.2,0.7,0.4,1.1,0.6
		C17.3,41.6,17.5,37.6,17.6,33.5z"/>
	<path class="st9" d="M59.7,33.4c-0.1,1.7-0.4,8.4-0.5,12.2c0,0.6,0,0.8,0.3,0.9c1.8,0.8,3.7,1.6,5.4,2.7c1,0.6,1.9,1.4,2.6,2.3
		c1.2,1.4,1.6,3,1.5,4.9c-0.4,4.7-3.3,7.4-7.8,9.1c-0.8,0.3-1.7,0.4-2.6,0.6c-0.2,0-0.2,0.1-0.2,0.3c0,0.9-0.1,1.9-0.1,2.8
		c0,0.4-0.3,0.8-0.7,0.8c-0.2,0-0.3,0-0.5,0c-0.5,0-0.9-0.4-0.9-0.9c0-1,0.1-2,0.1-2.9c-0.1,0-0.2,0-0.3,0c-1.9,0-3.8-0.3-5.6-1
		c-1.1-0.4-2.1-1-2.9-2c-1-1.2-1.3-2.6-0.8-4.1c0.5-1.6,2.2-2.4,3.9-2.1c0.4,0.1,0.5,0.1,0.4,0.5c-0.2,0.8-0.4,1.6-0.3,2.4
		c0.2,1.1,0.7,2,1.6,2.7c1.2,1,2.6,1.3,4.2,1.4c0.1-1.8,0.3-10,0.5-13.5c0-0.3-0.1-0.3-0.2-0.4c-1.3-0.7-2.7-1.3-4-2
		c-1.6-0.9-3-2-3.9-3.7c-0.7-1.2-0.9-2.6-0.8-4c0.3-3.3,2.2-5.7,5-7.4c1.3-0.8,2.8-1.3,4.4-1.6c0.1,0,0.2,0,0.3-0.1
		c0-0.4,0-0.7,0.1-1.1c0-0.8,0.1-1.5,0.1-2.3c0-0.4,0.2-0.7,0.6-0.8c0.4-0.1,0.9-0.1,1.3,0.1c0.2,0.1,0.3,0.1,0.3,0.4
		c0,0.8-0.1,1.7-0.1,2.6c0,0.3,0,0.6,0,1c0.6,0,1.1,0,1.7,0.1c1.9,0.2,3.7,0.6,5.2,1.8c1.1,0.8,1.8,1.9,1.7,3.4
		c0,0.5-0.2,1.1-0.5,1.5c-1,1.4-2.2,1.3-3.4,1.2c-0.3,0-0.4-0.1-0.3-0.4c0.1-0.7,0.2-1.4,0-2.2c-0.3-1.7-1.4-2.6-3-3
		C60.8,33.6,60.3,33.5,59.7,33.4z M58.5,63.9c0.1,0,0.1,0,0.2,0c1.7-0.3,3.2-0.8,4.6-1.8c1.7-1.4,2.4-3.2,2-5.3
		c-0.3-1.3-1-2.4-2-3.3c-1.1-1-2.4-1.6-3.8-2.3c-0.1-0.1-0.3-0.1-0.4-0.2C58.8,55.3,58.5,60.3,58.5,63.9z M57.6,33.5
		c-1.5,0.2-2.8,0.7-4,1.6c-1,0.7-1.7,1.6-2,2.8c-0.4,1.9,0.1,3.5,1.4,4.9c0.9,0.9,2,1.6,3.1,2.2c0.3,0.2,0.7,0.4,1.1,0.6
		C57.2,41.6,57.4,37.6,57.6,33.5z"/>
	<path d="M61.8,15.8C50.5,5.5,33.4,5.7,30.8,6.6c-3.2,1.1-4.6,4.3-10.5,4c-4.8-0.3-6.1-3.3-6.1-3.3S10.7,7,8,7.5
		c0,0-3.2,2.3-3.1,7.1c0.2,4.8,1.5,7,2,7.3c0.5,0.3,5.9-0.2,6.9,0c1,0.2,1.9-2.1,3.5-2.9c1.5-0.7,6.1-0.6,7.8,0.5s5.3,3.5,6.5,7.8
		c1.2,4.3,1.5,4,0.9,20c-0.5,11.3-1.5,19.6-2,23.5c-0.2,1.3,0.8,2.4,2.1,2.4h10.1c1.3,0,2.2-1.1,2.1-2.3C44,64,42.2,43.7,43.2,34.3
		c1.2-11.4,4.2-18.4,6.6-17.6c13.1,4.1,19.7,14.9,22.4,18c0.2,0.2,0.5,0.1,0.4-0.2C72.3,31.9,70.4,23.7,61.8,15.8z M18.3,15.2
		c-1.3,1.3-3.8,3.5-4.8,4.3c-0.1,0.1-1.1-0.5-1.4-1.4s-0.8-2.4,0.6-4c1.1-1.2,3.3-0.8,4.1-0.4C18.4,14.4,18.8,14.8,18.3,15.2z"/>
</g>
</svg>
