<?xml version="1.0" encoding="utf-8"?>
<!-- Generator: Adobe Illustrator 19.1.0, SVG Export Plug-In . SVG Version: 6.00 Build 0)  -->
<svg version="1.1" id="Layer_1" xmlns="http://www.w3.org/2000/svg" xmlns:xlink="http://www.w3.org/1999/xlink" x="0px" y="0px"
	 viewBox="0 0 77.8 77.8" style="enable-background:new 0 0 77.8 77.8;" xml:space="preserve">
<style type="text/css">
	.st0{fill:#FFFFFF;stroke:#000000;stroke-miterlimit:10;}
	.st1{fill:#020202;}
	.st2{fill:#FFFFFF;}
	.st3{stroke:#FFFFFF;stroke-miterlimit:10;}
	.st4{fill:#020202;stroke:#FFFFFF;stroke-miterlimit:10;}
	.st5{fill:none;stroke:#FFFFFF;stroke-linecap:round;stroke-miterlimit:10;}
	.st6{stroke:#000000;stroke-width:2;stroke-miterlimit:10;}
	.st7{fill:#FFFFFF;stroke:#000000;stroke-width:2;stroke-miterlimit:10;}
	.st8{fill:none;stroke:#FFFFFF;stroke-width:0.75;stroke-linecap:round;stroke-miterlimit:10;}
	.st9{fill:#010101;}
	.st10{clip-path:url(#SVGID_2_);}
	.st11{clip-path:url(#SVGID_2_);fill:none;stroke:#000000;stroke-width:0.75;stroke-miterlimit:10;}
	.st12{clip-path:url(#SVGID_2_);fill:none;stroke:#000000;stroke-width:0.5;stroke-miterlimit:10;}
	.st13{clip-path:url(#SVGID_2_);fill:#FFFFFF;}
	.st14{clip-path:url(#SVGID_2_);fill:none;stroke:#000000;stroke-width:0.25;stroke-miterlimit:10;}
	.st15{clip-path:url(#SVGID_2_);fill:none;stroke:#FFFFFF;stroke-width:0.25;stroke-miterlimit:10;}
	.st16{clip-path:url(#SVGID_4_);}
	.st17{stroke:#FFFFFF;stroke-width:3;stroke-miterlimit:10;}
</style>
<g>
	<path class="st0" d="M69.8,76.9H8c-3.9,0-7.1-3.2-7.1-7.1V8c0-3.9,3.2-7.1,7.1-7.1h61.8c3.9,0,7.1,3.2,7.1,7.1v61.8
		C76.9,73.7,73.7,76.9,69.8,76.9z"/>
	<g>
		<g>
			<path d="M11.3,30.4c-0.6,1.9-1.2,3.7-1.8,5.6c-0.8,2.4-1.5,4.9-2.3,7.3c-0.4,1.2-1,2.1-2.4,1.7c-1.4-0.4-1.5-1.5-1.1-2.7
				c1.4-4.5,2.8-9,4.2-13.5c0.3-0.8,0.7-1.5,1.3-2l0-0.1c0,0,0.5-0.2,1.2-0.5c0.5-0.1,1-0.3,1.7-0.3c2.4,0.1,4.9-0.1,7.3,0.1
				c1,0.1,2.4,0.5,2.9,1.3c1.7,2.7,1.3,3.9,2.6,6.6c0.4,0.7,2.4,1.6,3.9,2.3c0.9,0.5,1.5,1.3,1.4,1.4c-0.2,0.2-0.9-0.8-1.8-0.1
				c-1.1,0.9-0.1,2-0.8,1.9c-2.6-0.9-4.1-2.2-5.3-3.7c-1-1.2-1.2-3.3-2.2-5.5c-0.2,0.1-0.4,0.2-0.6,0.2c1.6,6.1,3.2,12.2,4.8,18.4
				c-1.2,0.1-2.1,0.2-3.4,0.3c0,2.7,0,5.3,0,8c0,0.9,0,1.7,0,2.6c0,1.5-0.8,2.2-2.3,2.3c-1.6,0.1-2.3-0.7-2.4-2.2
				c-0.1-3,0-5.9,0-8.9c0-0.6,0-1.1,0-1.8c-0.2,0-0.6,0-0.8,0c0,0.6,0,1,0,1.4c0,3,0,5.9,0,8.9c0,1.6-0.6,2.7-2.3,2.8
				c-1.7,0-2.4-1.1-2.4-2.7c0-3.4,0-6.8,0-10.3c-1.1-0.1-2.1-0.2-3.3-0.3c1.6-6.2,3.2-12.3,4.8-18.4c-0.2-0.1-0.4-0.2-0.6-0.3"/>
			<path d="M74.3,42.1c-1.3-4.4-2.6-8.8-3.8-13.2c-0.3-1-0.7-1.7-1.4-2.3l-0.4-0.3c-0.5-0.2-1.1-0.3-1.8-0.3c-3.1,0.1-6.2,0-9.4,0
				c-1.8,0-3.1,0.6-4,2.1c-1.2,2.1-0.6,2.9-2,5.3c-0.2,0.4-3.7,2.4-4.7,3.2c-0.3,0.2-0.8,0.9-0.6,0.9c0.3,0.1,1.1-0.7,2,0.1
				c1.1,0.9,0.3,1.6,0.6,1.7c0.3,0.1,3.4-2.4,3.7-2.6c3.8-2.6,2.6-3.3,3.9-6.5c0.5,0.9,0.6,1.6,0.6,2.2c0,8.9,0,17.9,0,26.8
				c0,2,0.8,3,2.4,3c1.5,0,2.3-1,2.3-2.9c0-4.7,0-9.3,0-14c0-0.6,0.1-1.3,0.2-1.9c0.2,0,0.4,0,0.6,0.1c0,0.7,0,1.4,0,2
				c0,4.7,0,9.3,0,14c0,1.6,0.7,2.7,2.4,2.7c1.8,0,2.3-1.2,2.3-2.8c0-0.6,0-1.2,0-1.8c0-8.4,0-16.8,0-25.2c0-0.4,0-0.9,0.1-1.3
				c0.1,0.3,0.2,0.6,0.3,0.9c1.1,3.7,2.1,7.3,3.1,11c0.3,1.2,0.9,2.3,2.4,1.9C74.7,44.5,74.6,43.3,74.3,42.1z"/>
			<path d="M6.4,64.4c6.1-1,12.2-2.2,18.4-2.8c6.2-0.6,12.4-1,18.9-0.7c9.6,0.4,19.1,2.3,27.4,3.4c0,0.2,0,0.4-0.1,0.6
				c-21.5,0-43,0-64.5,0C6.4,64.8,6.4,64.6,6.4,64.4z"/>
			<path d="M15.7,16.1c2.5,0,4.3,1.8,4.4,4.3c0.1,2.5-1.9,4.5-4.4,4.5c-2.4,0-4.4-1.9-4.4-4.3C11.2,18.1,13.2,16.1,15.7,16.1z"/>
			<path d="M62.1,16.1c2.5,0,4.5,1.9,4.5,4.4c0,2.4-1.9,4.4-4.3,4.4c-2.5,0-4.5-1.9-4.5-4.4C57.8,18,59.7,16.1,62.1,16.1z"/>
		</g>
		<path d="M41.5,36.4c-0.1,1.8-1.5,3.2-3.3,3.2c-1.8,0-3.2-1.5-3.2-3.3c0-2,1.5-3.4,3.4-3.3C40.3,33.1,41.6,34.5,41.5,36.4z"/>
		<path d="M34.9,43.1c-2.4,0-5.1-1-6.2-3c-0.2-0.4-0.7-1-0.1-1.8c0.6-0.9,1.6,0,1.9,0.4c1.3,1.8,3.3,1.6,5.2,1.6
			c2.1,0,4,0.1,5.9,0.1c2.3,0,3.5-0.1,4.6-1.8c0.4-0.7,1.3-0.9,1.8-0.3c0.5,0.6,0,1.6-0.3,2.1c-1.3,1.9-2.6,2.6-6.1,2.7
			c0,2-0.1,5.1,0,6.6c0,0.6,1.1,1.6,2.3,3.4c0.4,0.5,0.1,1.4-0.4,2c-0.6,0.7-1.9,1.8-2.6,2.3c-1.1,0.7-2.9-0.6-2.3-1.8
			c0.6-1,1.2-1.3,1.9-2l-1.7-1.8C38.4,52,38.4,52,38,52.1c0,2.3,0.1,4.9-0.1,7.2c0,0.1-0.1,0.3-0.1,0.4c-0.5,1.2-2.4,1.2-2.8-0.1
			c0-0.1,0-0.2,0-0.3C34.9,54.1,34.9,47.5,34.9,43.1z"/>
	</g>
</g>
</svg>
