<?xml version="1.0" encoding="utf-8"?>
<!-- Generator: Adobe Illustrator 19.1.0, SVG Export Plug-In . SVG Version: 6.00 Build 0)  -->
<svg version="1.1" id="Layer_1" xmlns="http://www.w3.org/2000/svg" xmlns:xlink="http://www.w3.org/1999/xlink" x="0px" y="0px"
	 viewBox="0 0 77.8 77.8" style="enable-background:new 0 0 77.8 77.8;" xml:space="preserve">
<style type="text/css">
	.st0{fill:#FFFFFF;stroke:#000000;stroke-miterlimit:10;}
	.st1{fill:#020202;}
	.st2{fill:#FFFFFF;}
	.st3{stroke:#FFFFFF;stroke-miterlimit:10;}
	.st4{fill:#020202;stroke:#FFFFFF;stroke-miterlimit:10;}
	.st5{fill:none;stroke:#FFFFFF;stroke-linecap:round;stroke-miterlimit:10;}
	.st6{stroke:#000000;stroke-width:2;stroke-miterlimit:10;}
	.st7{fill:#FFFFFF;stroke:#000000;stroke-width:2;stroke-miterlimit:10;}
	.st8{fill:none;stroke:#FFFFFF;stroke-width:0.75;stroke-linecap:round;stroke-miterlimit:10;}
	.st9{fill:#010101;}
	.st10{clip-path:url(#SVGID_2_);}
	.st11{clip-path:url(#SVGID_2_);fill:none;stroke:#000000;stroke-width:0.75;stroke-miterlimit:10;}
	.st12{clip-path:url(#SVGID_2_);fill:none;stroke:#000000;stroke-width:0.5;stroke-miterlimit:10;}
	.st13{clip-path:url(#SVGID_2_);fill:#FFFFFF;}
	.st14{clip-path:url(#SVGID_2_);fill:none;stroke:#000000;stroke-width:0.25;stroke-miterlimit:10;}
	.st15{clip-path:url(#SVGID_2_);fill:none;stroke:#FFFFFF;stroke-width:0.25;stroke-miterlimit:10;}
	.st16{clip-path:url(#SVGID_4_);}
	.st17{stroke:#FFFFFF;stroke-width:3;stroke-miterlimit:10;}
</style>
<g>
	<path class="st0" d="M69.8,76.9H8c-3.9,0-7.1-3.2-7.1-7.1V8c0-3.9,3.2-7.1,7.1-7.1h61.8c3.9,0,7.1,3.2,7.1,7.1v61.8
		C76.9,73.7,73.7,76.9,69.8,76.9z"/>
	<g>
		<defs>
			<path id="SVGID_3_" d="M67,73.9H10.5c-3.9,0-7.1-3.2-7.1-7.1V10.3c0-3.9,3.2-7.1,7.1-7.1H67c3.9,0,7.1,3.2,7.1,7.1v56.5
				C74.1,70.8,70.9,73.9,67,73.9z"/>
		</defs>
		<clipPath id="SVGID_2_">
			<use xlink:href="#SVGID_3_"  style="overflow:visible;"/>
		</clipPath>
		<g class="st10">
			<path class="st9" d="M62.1,67.8c-0.1-3.6,4.9-6,2-8.3c-1.5-1.1-3.2-2.5-4.4-4c-2-2.5-0.3-3.9,2-3.9c2,0,3.7-0.3,3.7-1.8
				c0-2-2.2-2.7-3.9-3.7c-0.3-0.2-0.5-0.5-0.4-0.8c0.2-0.7,0-1.4-0.1-1.7c-0.2-0.4-0.8-1.4-2.5-2.1c-1.1-0.4-5.1-1.5-5.7-0.3
				c-0.8,1.8,1.9,5,3.6,5.9c1.1,0.6,1.8,0.6,2.6,0.4c0.3-0.1,0.8-0.5,1.5-0.8c0,0,0.4,0,0.5,0c0.6,0.3,4.2,2,3.6,3.2
				c-0.4,0.9-3.8,0.8-4.5,1.1c-4.3,1.5-1.1,5.5,1.2,7.1c1.7,1.2,3.7,2.4,2.7,3.9c-1.6,2.4-2.3,3.7-2.3,5.3c0,1.1,0.2,3,0.4,3
				C62.3,70.5,62.2,68.6,62.1,67.8z"/>
			<circle class="st9" cx="18.3" cy="28.2" r="33.2"/>
			<circle class="st17" cx="18.3" cy="28.2" r="30.8"/>
			<circle class="st0" cx="28.4" cy="19.4" r="6.1"/>
			<path class="st9" d="M63.4,49l-1.9-1.2c-0.4-0.3-0.6-0.8-0.3-1.3l0.1-0.2c0.3-0.4,0.8-0.6,1.3-0.3l1.9,1.2
				c0.4,0.3,0.6,0.8,0.3,1.3l-0.1,0.2C64.4,49.2,63.9,49.3,63.4,49z"/>
			<circle class="st2" cx="28.4" cy="16.9" r="2"/>
		</g>
		<use xlink:href="#SVGID_3_"  style="overflow:visible;fill:none;stroke:#FFFFFF;stroke-miterlimit:10;"/>
	</g>
</g>
</svg>
