<?xml version="1.0" encoding="utf-8"?>
<!-- Generator: Adobe Illustrator 19.1.0, SVG Export Plug-In . SVG Version: 6.00 Build 0)  -->
<svg version="1.1" id="Layer_1" xmlns="http://www.w3.org/2000/svg" xmlns:xlink="http://www.w3.org/1999/xlink" x="0px" y="0px"
	 viewBox="0 0 77.8 77.8" style="enable-background:new 0 0 77.8 77.8;" xml:space="preserve">
<style type="text/css">
	.st0{fill:#FFFFFF;stroke:#000000;stroke-miterlimit:10;}
	.st1{fill:#020202;}
	.st2{fill:#FFFFFF;}
	.st3{stroke:#FFFFFF;stroke-miterlimit:10;}
	.st4{fill:#020202;stroke:#FFFFFF;stroke-miterlimit:10;}
	.st5{fill:none;stroke:#FFFFFF;stroke-linecap:round;stroke-miterlimit:10;}
	.st6{stroke:#000000;stroke-width:2;stroke-miterlimit:10;}
	.st7{fill:#FFFFFF;stroke:#000000;stroke-width:2;stroke-miterlimit:10;}
	.st8{fill:none;stroke:#FFFFFF;stroke-width:0.75;stroke-linecap:round;stroke-miterlimit:10;}
	.st9{fill:#010101;}
	.st10{clip-path:url(#SVGID_2_);}
	.st11{clip-path:url(#SVGID_2_);fill:none;stroke:#000000;stroke-width:0.75;stroke-miterlimit:10;}
	.st12{clip-path:url(#SVGID_2_);fill:none;stroke:#000000;stroke-width:0.5;stroke-miterlimit:10;}
	.st13{clip-path:url(#SVGID_2_);fill:#FFFFFF;}
	.st14{clip-path:url(#SVGID_2_);fill:none;stroke:#000000;stroke-width:0.25;stroke-miterlimit:10;}
	.st15{clip-path:url(#SVGID_2_);fill:none;stroke:#FFFFFF;stroke-width:0.25;stroke-miterlimit:10;}
	.st16{clip-path:url(#SVGID_4_);}
	.st17{stroke:#FFFFFF;stroke-width:3;stroke-miterlimit:10;}
</style>
<g>
	<path class="st0" d="M69.8,76.9H8c-3.9,0-7.1-3.2-7.1-7.1V8c0-3.9,3.2-7.1,7.1-7.1h61.8c3.9,0,7.1,3.2,7.1,7.1v61.8
		C76.9,73.7,73.7,76.9,69.8,76.9z"/>
	<g>
		<path class="st6" d="M39.7,56.5l-0.8-0.9l0.4-0.3l0.8,0.8l4.6-4.5l-0.6-0.6l0.4-0.3l0.6,0.6l4.6-4.5l-0.3-0.3l0.4-0.3l0.3,0.3
			l4.8-4.7c-5.2-5.8-13.6-15.2-15.4-17.3c-1.5-1.8-6.6-7.8-14.2-8.7C10.8,14,5.4,29,10.6,37.1c2.9,4.6,16,16.9,24.1,24.3L39.7,56.5z
			"/>
		<path class="st7" d="M19.1,51.3L19.1,51.3c-1.3-1.3-1.4-3.2-0.3-4.5c0,0,16.9-19.1,19.5-22.2c1.5-1.8,6.5-7.8,14.1-8.8
			c14.3-1.9,19.9,13.1,14.7,21.3C63.7,42.6,45.4,59.7,39,65.5c-1.2,1.1-3.1,1.1-4.4,0l-0.2-0.2c-1.3-1.2-1.4-3.2-0.1-4.5l4.7-5
			l-0.4-0.3l-6.5,6.8c-1.2,1.3-3.2,1.4-4.5,0.1l0,0c-1.3-1.2-1.4-3.2-0.1-4.5l6.3-6.6l-0.4-0.3l-6,6.3c-1.2,1.3-3.2,1.4-4.5,0.1l0,0
			c-1.3-1.2-1.4-3.2-0.1-4.5l5.9-6.2l-0.4-0.3l-4.6,4.8C22.4,52.5,20.4,52.5,19.1,51.3z"/>
		<path d="M52.9,52.8l-1.1-1.2c-1-1-1-2.7,0.1-3.7l0,0c1-1,2.7-1,3.7,0.1l1.1,1.2c1,1,1,2.7-0.1,3.7l0,0
			C55.6,53.9,53.9,53.8,52.9,52.8z"/>
		<path d="M43,36.7L33,28.8c-1.1-1.2-0.3-4.6,0.9-5.8l0,0c1.2-1.1,3-1.1,4.2,0.1l9.1,9.5c1.1,1.2,1.1,3-0.1,4.2l0,0
			C46,37.9,44.1,37.9,43,36.7z"/>
		<path d="M49.8,57.9l-2.3-2.4c-1-1-1-2.7,0.1-3.7l0,0c1-1,2.7-1,3.7,0.1l2.3,2.4c1,1,1,2.7-0.1,3.7l0,0C52.4,59,50.8,59,49.8,57.9z
			"/>
		<path d="M45.3,61.6L43,59.2c-1-1-1-2.7,0.1-3.7l0,0c1-1,2.7-1,3.7,0.1l2.3,2.4c1,1,1,2.7-0.1,3.7l0,0C48,62.6,46.3,62.6,45.3,61.6
			z"/>
		<path d="M40.2,64.4L39,63.3c-1-1-1-2.7,0.1-3.7l0,0c1-1,2.7-1,3.7,0.1l1.1,1.2c1,1,1,2.7-0.1,3.7l0,0
			C42.8,65.5,41.2,65.5,40.2,64.4z"/>
	</g>
	<path class="st8" d="M30.1,28.7c2.6,0.7,2.8,0,6.3,3.3"/>
</g>
</svg>
