<?xml version="1.0" encoding="utf-8"?>
<!-- Generator: Adobe Illustrator 19.1.0, SVG Export Plug-In . SVG Version: 6.00 Build 0)  -->
<svg version="1.1" id="Layer_1" xmlns="http://www.w3.org/2000/svg" xmlns:xlink="http://www.w3.org/1999/xlink" x="0px" y="0px"
	 viewBox="0 0 77.8 77.8" style="enable-background:new 0 0 77.8 77.8;" xml:space="preserve">
<style type="text/css">
	.st0{fill:#FFFFFF;stroke:#000000;stroke-miterlimit:10;}
	.st1{fill:#020202;}
	.st2{fill:#FFFFFF;}
	.st3{stroke:#FFFFFF;stroke-miterlimit:10;}
	.st4{fill:#020202;stroke:#FFFFFF;stroke-miterlimit:10;}
	.st5{fill:none;stroke:#FFFFFF;stroke-linecap:round;stroke-miterlimit:10;}
	.st6{stroke:#000000;stroke-width:2;stroke-miterlimit:10;}
	.st7{fill:#FFFFFF;stroke:#000000;stroke-width:2;stroke-miterlimit:10;}
	.st8{fill:none;stroke:#FFFFFF;stroke-width:0.75;stroke-linecap:round;stroke-miterlimit:10;}
	.st9{fill:#010101;}
	.st10{clip-path:url(#SVGID_2_);}
	.st11{clip-path:url(#SVGID_2_);fill:none;stroke:#000000;stroke-width:0.75;stroke-miterlimit:10;}
	.st12{clip-path:url(#SVGID_2_);fill:none;stroke:#000000;stroke-width:0.5;stroke-miterlimit:10;}
	.st13{clip-path:url(#SVGID_2_);fill:#FFFFFF;}
	.st14{clip-path:url(#SVGID_2_);fill:none;stroke:#000000;stroke-width:0.25;stroke-miterlimit:10;}
	.st15{clip-path:url(#SVGID_2_);fill:none;stroke:#FFFFFF;stroke-width:0.25;stroke-miterlimit:10;}
	.st16{clip-path:url(#SVGID_4_);}
	.st17{stroke:#FFFFFF;stroke-width:3;stroke-miterlimit:10;}
</style>
<g>
	<path class="st0" d="M69.8,76.9H8c-3.9,0-7.1-3.2-7.1-7.1V8c0-3.9,3.2-7.1,7.1-7.1h61.8c3.9,0,7.1,3.2,7.1,7.1v61.8
		C76.9,73.7,73.7,76.9,69.8,76.9z"/>
	<path class="st9" d="M39,31.4c0-0.7,0.1-1.3,0.1-2c0-0.4,0.1-0.5,0.5-0.6c0.2,0,0.4,0,0.6,0c0.1,0,0.2,0.1,0.2,0.2
		c0,0.5,0,1.1-0.1,1.6c0,0.2,0,0.4,0,0.6c0.3,0,0.7,0,1.1,0.1c1.2,0.1,2.3,0.4,3.3,1.1c0.7,0.5,1.1,1.2,1.1,2.1
		c0,0.9-0.6,1.6-1.5,1.7c-0.3,0-0.6,0-0.9,0c-0.2,0-0.2-0.1-0.2-0.2c0.1-0.5,0.1-1,0-1.5c-0.2-1-0.9-1.5-1.8-1.7
		c-0.3-0.1-0.7-0.1-1-0.2c0,0.3,0,0.7,0,1c-0.1,2.3-0.2,4.6-0.3,6.8c0,0.2,0,0.2,0.2,0.3c1.1,0.5,2.3,1,3.4,1.7
		c0.8,0.5,1.4,1.1,1.9,1.8c0.5,0.8,0.7,1.7,0.6,2.6c-0.2,2.5-1.6,4.2-3.8,5.2c-0.8,0.4-1.7,0.6-2.6,0.8c-0.1,0-0.2,0.1-0.2,0.2
		c0,0.7,0,2.2-0.1,2.2c-0.3,0.3-1.3,0.1-1.3,0.1c-0.1-0.8,0.1-1.6,0.1-2.4c-0.4,0-0.8,0-1.2-0.1c-1.1-0.1-2.1-0.3-3-0.8
		c-0.8-0.4-1.4-1-1.7-1.8c-0.4-1-0.1-2.1,0.7-2.6c0.5-0.4,1.1-0.5,1.7-0.4c0.3,0.1,0.3,0.1,0.2,0.3c-0.1,0.5-0.2,1-0.1,1.5
		c0.1,0.6,0.3,1.1,0.8,1.5c0.8,0.7,1.8,1,2.8,1c0-0.1,0-0.1,0-0.1c0.1-2,0.2-4.1,0.2-6.1c0-0.7,0-1.4,0.1-2.2c0-0.2,0-0.2-0.2-0.3
		c-0.9-0.4-1.7-0.9-2.6-1.3c-0.7-0.4-1.4-0.9-1.9-1.6c-0.7-0.9-1-1.9-0.9-3c0.1-1.8,1-3.1,2.5-4.1c1-0.7,2.1-1.2,3.3-1.4
		C38.9,31.4,39,31.4,39,31.4z M39.9,43.4c-0.1,2.7-0.2,5.4-0.3,8.1c0.1,0,0.1,0,0.1,0c0.9-0.1,1.8-0.4,2.6-1c0.6-0.4,1.1-1,1.4-1.7
		c0.4-1.3,0.1-2.4-0.8-3.4c-0.5-0.6-1.2-1-1.9-1.4C40.7,43.8,40.3,43.6,39.9,43.4z M39,32.7c-1,0.1-2,0.6-2.7,1.2
		c-1.4,1.2-1.4,3-0.5,4.1c0.7,1.1,1.8,1.6,3,2.2C38.8,37.7,38.9,35.2,39,32.7z"/>
	<path d="M38.5,8.2L8.7,19.9c-0.2,0.1-0.4,0.3-0.4,0.6v1.8c0,0.3,0.3,0.6,0.6,0.6h29.8h29.8c0.3,0,0.6-0.3,0.6-0.6v-1.8
		c0-0.3-0.2-0.5-0.4-0.6L39,8.2C38.8,8.1,38.7,8.1,38.5,8.2z"/>
	<path d="M67.3,27.8H10.9c-0.4,0-0.8-0.4-0.8-0.8v-1.6c0-0.4,0.4-0.8,0.8-0.8h56.4c0.4,0,0.8,0.4,0.8,0.8V27
		C68.1,27.4,67.7,27.8,67.3,27.8z"/>
	<path d="M71.1,62.8v-2.2c0-0.3-0.3-0.6-0.6-0.6h-0.7c-0.3,0-0.6-0.3-0.6-0.6v-2.2c0-0.3-0.3-0.6-0.6-0.6H9.7
		c-0.3,0-0.6,0.3-0.6,0.6v2.2c0,0.3-0.3,0.6-0.6,0.6H7.8c-0.3,0-0.6,0.3-0.6,0.6v2.2c0,0.3-0.3,0.6-0.6,0.6H6.2
		c-0.3,0-0.6,0.3-0.6,0.6v2.2c0,0.3,0.3,0.6,0.6,0.6h65.9c0.3,0,0.6-0.3,0.6-0.6V64c0-0.3-0.3-0.6-0.6-0.6h-0.3
		C71.4,63.4,71.1,63.1,71.1,62.8z"/>
	<path d="M17.9,54.7h-3.4c-0.6,0-1.1-0.5-1.1-1.1l0.6-23c0-0.6,0.5-1.1,1.1-1.1h2.3c0.6,0,1.1,0.5,1.1,1.1l0.5,23
		C19,54.2,18.5,54.7,17.9,54.7z"/>
	<path d="M29.6,54.7h-3.4c-0.6,0-1.1-0.5-1.1-1.1l0.6-23c0-0.6,0.5-1.1,1.1-1.1h2.3c0.6,0,1.1,0.5,1.1,1.1l0.5,23
		C30.7,54.2,30.2,54.7,29.6,54.7z"/>
	<path d="M52.1,54.7h-3.4c-0.6,0-1.1-0.5-1.1-1.1l0.6-23c0-0.6,0.5-1.1,1.1-1.1h2.3c0.6,0,1.1,0.5,1.1,1.1l0.5,23
		C53.2,54.2,52.7,54.7,52.1,54.7z"/>
	<path d="M63.9,54.7h-3.4c-0.6,0-1.1-0.5-1.1-1.1l0.6-23c0-0.6,0.5-1.1,1.1-1.1h2.3c0.6,0,1.1,0.5,1.1,1.1l0.5,23
		C65,54.2,64.5,54.7,63.9,54.7z"/>
</g>
</svg>
