<?xml version="1.0" encoding="utf-8"?>
<!-- Generator: Adobe Illustrator 16.0.3, SVG Export Plug-In . SVG Version: 6.00 Build 0)  -->
<!DOCTYPE svg PUBLIC "-//W3C//DTD SVG 1.1//EN" "http://www.w3.org/Graphics/SVG/1.1/DTD/svg11.dtd">
<svg version="1.1" id="ENERGY_final_xA0_Image_1_" xmlns="http://www.w3.org/2000/svg" xmlns:xlink="http://www.w3.org/1999/xlink"
	 x="0px" y="0px" width="1200px" height="1200px" viewBox="0 0 1200 1200" enable-background="new 0 0 1200 1200"
	 xml:space="preserve">
<g>
	<g>
		<path fill-rule="evenodd" clip-rule="evenodd" d="M1,1c400,0,800,0,1200,0c0,400,0,800,0,1200c-400,0-800,0-1200,0
			C1,801,1,401,1,1z M77.56,1163.467c0-2.975,0-4.751,0-6.527c-0.001-19.166-0.013-38.333,0.003-57.499
			c0.005-6.407,0.742-7.101,7.244-7.101c87.332,0.005,174.664,0.011,261.995,0.016c6.852,0,6.847-0.001,6.847-6.891
			c-0.001-321.327-0.009-642.655,0.062-963.983c0.001-4.701,0.05-9.752,1.675-14.033c3.682-9.705,9.494-18.128,18.934-23.332
			c4.244-2.341,9.22-3.768,12.735-6.883c2.68-2.374,4.131-2.643,7.042-1.164c1.373,0.698,3.479,0.082,5.23-0.127
			c2.453-0.292,4.885-1.103,7.325-1.104c137.664-0.055,275.329-0.027,412.993-0.123c5.599-0.004,11.106,3.597,16.826,0.39
			c0.449-0.252,1.756,0.847,2.563,1.453c1.283,0.963,2.391,2.758,3.732,2.927c3.317,0.42,5.401,2.394,8.023,4.116
			c13.592,8.929,19.669,21.6,19.789,37.41c0.146,19.332-0.104,38.668,0.168,57.997c0.033,2.352,1.757,5.178,3.551,6.89
			c2.719,2.594,6.195,4.39,9.335,6.548c14.855,10.212,29.726,20.402,44.549,30.66c8.143,5.635,16.225,11.356,24.297,17.091
			c12.261,8.709,24.785,17.085,36.616,26.345c6.702,5.244,13.316,11.237,18.07,18.192c7.848,11.48,12.102,24.625,12.1,38.844
			c-0.012,117.165-0.007,234.329-0.007,351.494c0,32.367,4.087,64.254,12.578,95.443c4.053,14.889,9.234,29.532,14.848,43.919
			c8.001,20.506,17.176,40.551,25.28,61.018c8.419,21.259,16.688,42.607,23.983,64.267c3.82,11.342,8.23,22.834,7.571,35.293
			c-0.12,2.285,0.446,4.644,0.938,6.916c1.207,5.584,3.057,10.778,2.247,16.986c-0.491,3.768-0.743,7.643-1.792,11.386
			c-1.561,5.571-2.346,11.539-4.905,16.609c-3.992,7.909-8.637,15.637-14.036,22.647c-5.828,7.567-12.897,14.138-21.544,18.703
			c-4.696,2.479-9.029,6.017-13.997,7.504c-4.857,1.455-7.856,8.11-14.256,5.145c-0.451-0.209-1.388,0.806-2.16,1.076
			c-1.846,0.647-3.715,1.235-5.6,1.761c-1.651,0.461-3.848,0.272-4.909,1.298c-3.216,3.103-6.574,2.055-10.083,1.188
			c-1.561-0.385-3.151-0.837-4.739-0.885c-4.126-0.126-8.258-0.104-12.386-0.018c-1.628,0.034-3.331,0.153-4.857,0.662
			c-3.456,1.15-6.584,2.442-9.566-1.355c-0.917-1.168-3.592-1.089-5.493-1.296c-1.084-0.119-2.447,0.834-3.313,0.454
			c-5.786-2.532-11.354-5.592-17.214-7.925c-17.341-6.903-31.306-18.279-43.093-32.418c-8.273-9.924-14.126-21.197-17.228-33.88
			c-6.769-27.673-7.238-56.066-9.033-84.216c-1.884-29.536-1.995-59.211-2.123-88.829c-0.142-32.802,0.557-65.607,0.924-98.411
			c0.271-24.15,0.739-48.3,0.863-72.45c0.157-30.65,0.063-61.302,0.063-91.953c0-11.014,1.246-9.855-10.329-10.058
			c-4.119-0.071-5.404,1.353-5.401,5.551c0.108,171.996,0.107,343.993,0.109,515.99c0,7.164-0.044,7.164,7.127,7.163
			c79.831-0.01,159.663,0.018,239.495-0.116c4.9-0.009,6.358,1.688,6.316,6.392c-0.176,19.999-0.077,39.999-0.078,59.999
			c0,1.737,0,3.476,0,5.305c1.273-0.075,1.823,0.033,2.236-0.157c1.511-0.692,3.019-1.411,4.45-2.251
			c22.06-12.954,35.32-32.656,41.545-56.879c2.82-10.978,4.107-22.647,4.115-34.005c0.213-311.161,0.157-622.322,0.21-933.483
			c0.003-15.463-2.081-30.458-7.73-44.91c-14.349-36.706-41.195-55.139-80.407-55.139c-325.661,0-651.322,0.031-976.983-0.06
			c-26.554-0.007-47.192,11.009-62.79,31.937c-15.105,20.268-20.5,43.455-20.489,68.457c0.109,246.495,0.066,492.991,0.066,739.487
			c0,64.665,0.118,129.331-0.059,193.996c-0.069,25.39,5.881,48.751,21.456,69.147C56.423,1149.686,65.216,1157.68,77.56,1163.467z
			 M610.47,382.055c51.154,0,102.309,0.024,153.463-0.013c18.135-0.013,31.197-9.48,31.202-26.8
			c0.017-64.485,0.098-128.971-0.179-193.454c-0.021-5.035-1.62-10.669-4.229-14.966c-6.223-10.248-17.01-12.207-27.898-12.272
			c-35.491-0.213-70.983-0.072-106.476-0.072c-65.317,0-130.636-0.112-195.954,0.061c-19.602,0.052-33.506,9.333-32.465,31.814
			c0.73,15.796,0.141,31.652,0.141,47.482c0,46.655-0.155,93.313,0.206,139.966c0.043,5.486,1.867,11.586,4.703,16.295
			c6.218,10.325,17.027,11.933,28.022,11.944C510.828,382.093,560.649,382.063,610.47,382.055z M869.799,496.865
			c8.754,0.606,17.765,0.33,26.358,2.091c7.721,1.582,15.911-2.009,23.209,2.825c4.953,3.281,10.818,5.399,15.23,9.238
			c7.847,6.826,10.405,16.259,10.202,26.488c-0.458,23.126-0.852,46.254-1.375,69.379c-0.446,19.793-1.14,39.582-1.531,59.376
			c-0.333,16.818-0.46,33.641-0.558,50.463c-0.215,36.817-0.88,73.644-0.369,110.452c0.476,34.255,2.129,68.495,3.506,102.732
			c0.354,8.783,1.257,17.585,2.559,26.28c1.765,11.793,4.551,23.439,6.15,35.25c1.21,8.938,4.779,16.624,11.013,22.646
			c5.078,4.907,9.758,11.623,18.636,10.035c0.548-0.099,1.349,1.058,1.988,1.675c0.679,0.656,1.664,2.068,1.901,1.947
			c4.101-2.09,7.05,1.64,10.573,1.893c2.105,0.15,4.308-0.909,6.451-1.479c1.182-0.313,2.309-0.925,3.502-1.079
			c3.445-0.445,7.134-0.104,10.312-1.238c3.509-1.252,6.4-4.135,9.832-5.719c14.127-6.519,18.2-21.417,16.88-31.096
			c-1.626-11.921-4.303-23.845-7.965-35.308c-5.445-17.046-11.852-33.807-18.404-50.471c-6.975-17.737-15.118-35.025-21.811-52.862
			c-9.312-24.814-17.98-49.81-23.891-75.81c-4.978-21.896-6.862-44.022-8.295-66.191c-1.255-19.413-0.472-38.956-0.687-58.44
			c-0.249-22.634-0.605-45.268-0.915-67.901c-0.368-26.958-0.946-53.916-1.055-80.875c-0.177-43.655-0.041-87.312-0.045-130.968
			c-0.001-6.55-0.266-6.82-6.667-6.823c-19.996-0.011-39.991-0.018-59.987,0c-8.363,0.008-8.354,0.037-8.352-8.287
			c0.008-29.993,0.031-59.986-0.053-89.979c-0.004-1.575-0.64-3.36-1.54-4.659c-0.865-1.248-2.458-1.989-3.729-2.956
			c-3.341-2.541-6.68-5.084-11.076-8.432C869.799,332.686,869.799,414.813,869.799,496.865z"/>
		<path fill-rule="evenodd" clip-rule="evenodd" fill="#FFFFFF" d="M77.56,1163.467c-12.344-5.787-21.137-13.781-28.474-23.389
			c-15.575-20.396-21.525-43.758-21.456-69.147c0.176-64.665,0.059-129.331,0.059-193.996c0-246.496,0.043-492.992-0.066-739.487
			c-0.011-25.002,5.384-48.189,20.489-68.457c15.597-20.928,36.235-31.943,62.79-31.937c325.661,0.091,651.322,0.06,976.983,0.06
			c39.212,0,66.059,18.433,80.407,55.139c5.649,14.452,7.733,29.447,7.73,44.91c-0.053,311.161,0.003,622.322-0.21,933.483
			c-0.008,11.357-1.295,23.027-4.115,34.005c-6.225,24.223-19.485,43.925-41.545,56.879c-1.432,0.84-2.939,1.559-4.45,2.251
			c-0.413,0.19-0.963,0.082-2.236,0.157c0-1.829,0-3.567,0-5.305c0.001-20-0.098-40,0.078-59.999c0.042-4.704-1.416-6.4-6.316-6.392
			c-79.832,0.134-159.664,0.106-239.495,0.116c-7.171,0.001-7.127,0.001-7.127-7.163c-0.002-171.997-0.001-343.994-0.109-515.99
			c-0.003-4.198,1.282-5.622,5.401-5.551c11.575,0.202,10.329-0.956,10.329,10.058c0.001,30.651,0.095,61.303-0.063,91.953
			c-0.124,24.15-0.593,48.3-0.863,72.45c-0.367,32.804-1.065,65.609-0.924,98.411c0.128,29.618,0.239,59.293,2.123,88.829
			c1.795,28.149,2.265,56.543,9.033,84.216c3.102,12.683,8.954,23.956,17.228,33.88c11.787,14.139,25.752,25.515,43.093,32.418
			c5.86,2.333,11.428,5.393,17.214,7.925c0.866,0.38,2.229-0.573,3.313-0.454c1.901,0.207,4.576,0.128,5.493,1.296
			c2.982,3.798,6.11,2.506,9.566,1.355c1.526-0.509,3.229-0.628,4.857-0.662c4.128-0.087,8.26-0.108,12.386,0.018
			c1.588,0.048,3.179,0.5,4.739,0.885c3.509,0.866,6.867,1.914,10.083-1.188c1.062-1.025,3.258-0.837,4.909-1.298
			c1.885-0.525,3.754-1.113,5.6-1.761c0.772-0.271,1.709-1.285,2.16-1.076c6.399,2.966,9.398-3.689,14.256-5.145
			c4.968-1.487,9.301-5.025,13.997-7.504c8.646-4.565,15.716-11.136,21.544-18.703c5.399-7.011,10.044-14.738,14.036-22.647
			c2.56-5.07,3.345-11.038,4.905-16.609c1.049-3.743,1.301-7.618,1.792-11.386c0.81-6.208-1.04-11.402-2.247-16.986
			c-0.492-2.272-1.059-4.631-0.938-6.916c0.659-12.459-3.751-23.951-7.571-35.293c-7.295-21.659-15.564-43.008-23.983-64.267
			c-8.104-20.467-17.279-40.512-25.28-61.018c-5.613-14.387-10.795-29.03-14.848-43.919c-8.491-31.189-12.578-63.076-12.578-95.443
			c0-117.165-0.005-234.329,0.007-351.494c0.002-14.219-4.252-27.363-12.1-38.844c-4.754-6.955-11.368-12.948-18.07-18.192
			c-11.831-9.26-24.355-17.636-36.616-26.345c-8.072-5.734-16.154-11.456-24.297-17.091c-14.823-10.258-29.693-20.448-44.549-30.66
			c-3.14-2.158-6.616-3.954-9.335-6.548c-1.794-1.712-3.518-4.538-3.551-6.89c-0.271-19.329-0.021-38.665-0.168-57.997
			c-0.12-15.811-6.197-28.481-19.789-37.41c-2.622-1.723-4.706-3.696-8.023-4.116c-1.342-0.169-2.449-1.964-3.732-2.927
			c-0.807-0.606-2.113-1.705-2.563-1.453c-5.72,3.207-11.228-0.394-16.826-0.39c-137.664,0.096-275.329,0.068-412.993,0.123
			c-2.44,0.001-4.872,0.812-7.325,1.104c-1.751,0.209-3.857,0.825-5.23,0.127c-2.911-1.479-4.362-1.21-7.042,1.164
			c-3.516,3.115-8.491,4.542-12.735,6.883c-9.439,5.204-15.252,13.627-18.934,23.332c-1.625,4.281-1.674,9.332-1.675,14.033
			c-0.07,321.328-0.063,642.656-0.062,963.983c0,6.89,0.005,6.891-6.847,6.891c-87.332-0.005-174.663-0.011-261.995-0.016
			c-6.502,0-7.239,0.693-7.244,7.101c-0.016,19.166-0.004,38.333-0.003,57.499C77.561,1158.716,77.56,1160.492,77.56,1163.467z
			 M71.965,996.173c0.29,0.215,0.58,0.43,0.87,0.646c79.937-121.119,159.874-242.237,240.645-364.621
			c-43.925,13.963-86.438,27.477-129.96,41.31c43.506-92.847,86.505-184.609,129.958-277.343
			c-37.124,8.196-73.088,16.135-109.961,24.275c26.805-90.519,53.322-180.065,79.975-270.069
			c-49.407-9.778-98.255-19.446-147.489-29.189c-15.027,125.941-29.974,251.203-44.995,377.093c20.898,0,41.292,0,62.502,0
			c-27.548,85.336-54.85,169.911-82.482,255.508c25.416-7.39,49.844-14.492,74.954-21.792
			C121.134,820.678,96.549,908.426,71.965,996.173z"/>
		<path fill-rule="evenodd" clip-rule="evenodd" fill="#FFFFFF" d="M610.47,382.059c-49.82,0.004-99.642,0.034-149.463-0.019
			c-10.995-0.012-21.805-1.619-28.022-11.944c-2.836-4.709-4.66-10.809-4.703-16.295c-0.361-46.653-0.206-93.311-0.206-139.966
			c0-15.83,0.59-31.687-0.141-47.482c-1.041-22.481,12.863-31.763,32.465-31.814c65.318-0.173,130.637-0.061,195.954-0.061
			c35.492,0,70.984-0.141,106.476,0.072c10.889,0.065,21.676,2.024,27.898,12.272c2.608,4.297,4.207,9.931,4.229,14.966
			c0.276,64.483,0.195,128.969,0.179,193.454c-0.005,17.319-13.067,26.787-31.202,26.8
			C712.778,382.079,661.624,382.055,610.47,382.059z"/>
		<path fill-rule="evenodd" clip-rule="evenodd" fill="#FFFFFF" d="M869.799,496.865c0-82.053,0-164.18,0-247.803
			c4.396,3.348,7.735,5.891,11.076,8.432c1.271,0.967,2.863,1.708,3.729,2.956c0.9,1.299,1.536,3.084,1.54,4.659
			c0.084,29.993,0.061,59.986,0.053,89.979c-0.003,8.324-0.012,8.295,8.352,8.287c19.996-0.018,39.991-0.011,59.987,0
			c6.401,0.003,6.666,0.273,6.667,6.823c0.004,43.656-0.132,87.313,0.045,130.968c0.108,26.959,0.687,53.917,1.055,80.875
			c0.31,22.634,0.666,45.268,0.915,67.901c0.215,19.484-0.568,39.027,0.687,58.44c1.433,22.169,3.317,44.295,8.295,66.191
			c5.91,26,14.579,50.995,23.891,75.81c6.692,17.837,14.836,35.125,21.811,52.862c6.553,16.664,12.959,33.425,18.404,50.471
			c3.662,11.463,6.339,23.387,7.965,35.308c1.32,9.679-2.753,24.577-16.88,31.096c-3.432,1.584-6.323,4.467-9.832,5.719
			c-3.178,1.134-6.866,0.793-10.312,1.238c-1.193,0.154-2.32,0.766-3.502,1.079c-2.144,0.569-4.346,1.629-6.451,1.479
			c-3.523-0.253-6.473-3.982-10.573-1.893c-0.237,0.121-1.223-1.291-1.901-1.947c-0.64-0.617-1.44-1.773-1.988-1.675
			c-8.878,1.588-13.558-5.128-18.636-10.035c-6.233-6.021-9.803-13.708-11.013-22.646c-1.6-11.811-4.386-23.457-6.15-35.25
			c-1.302-8.695-2.205-17.497-2.559-26.28c-1.377-34.237-3.03-68.478-3.506-102.732c-0.511-36.809,0.154-73.635,0.369-110.452
			c0.098-16.822,0.225-33.645,0.558-50.463c0.392-19.794,1.085-39.583,1.531-59.376c0.523-23.125,0.917-46.253,1.375-69.379
			c0.203-10.229-2.355-19.662-10.202-26.488c-4.412-3.839-10.277-5.957-15.23-9.238c-7.298-4.834-15.488-1.243-23.209-2.825
			C887.563,497.195,878.553,497.472,869.799,496.865z"/>
		<path fill-rule="evenodd" clip-rule="evenodd" d="M71.965,996.173c24.584-87.747,49.168-175.495,74.017-264.184
			c-25.109,7.3-49.538,14.402-74.954,21.792c27.632-85.597,54.935-170.172,82.482-255.508c-21.21,0-41.604,0-62.502,0
			c15.021-125.89,29.967-251.151,44.995-377.093c49.234,9.743,98.083,19.411,147.489,29.189
			c-26.653,90.004-53.169,179.551-79.975,270.069c36.873-8.141,72.837-16.079,109.961-24.275
			c-43.453,92.733-86.452,184.496-129.958,277.343c43.521-13.833,86.035-27.347,129.96-41.31
			C232.709,754.581,152.772,875.699,72.835,996.818C72.545,996.603,72.255,996.388,71.965,996.173z"/>
	</g>
</g>
</svg>
