<?xml version="1.0" encoding="utf-8"?>
<!-- Generator: Adobe Illustrator 16.0.3, SVG Export Plug-In . SVG Version: 6.00 Build 0)  -->
<!DOCTYPE svg PUBLIC "-//W3C//DTD SVG 1.1//EN" "http://www.w3.org/Graphics/SVG/1.1/DTD/svg11.dtd">
<svg version="1.1" id="GUN_CONTROL_semi_final_xA0_Image_1_"
	 xmlns="http://www.w3.org/2000/svg" xmlns:xlink="http://www.w3.org/1999/xlink" x="0px" y="0px" width="1200px" height="1200px"
	 viewBox="0 0 1200 1200" enable-background="new 0 0 1200 1200" xml:space="preserve">
<g>
	<g>
		<path fill-rule="evenodd" clip-rule="evenodd" d="M1200.951,1200.951c-400.017,0-799.984,0-1199.902,0
			c0-400.017,0-799.984,0-1199.902c400.017,0,799.984,0,1199.902,0C1200.951,401.065,1200.951,801.033,1200.951,1200.951z
			 M1011.573,38.021c-0.07-0.303-0.14-0.604-0.21-0.907c-2.482,0-4.966,0-7.449,0c-298.324,0-596.648-0.002-894.974,0.004
			c-22.908,0.001-41.626,9.24-56.416,26.399c-17.889,20.756-24.874,45.331-24.869,72.389c0.052,311.99,0.036,623.981,0.021,935.973
			c0,12.548,1.422,24.839,5.208,36.875c12.802,40.71,41.235,61.79,83.623,61.79c324.489,0,648.978,0,973.467,0
			c1.833,0,3.666-0.001,5.5-0.003c20.017-0.014,37.009-7.421,51.023-21.483c20.5-20.572,29.396-46.028,29.406-74.566
			c0.107-313.657,0.108-627.314-0.099-940.972c-0.007-10.19-1.401-20.688-4.098-30.508c-7.468-27.203-22.64-48.728-49.282-60.485
			c-4.869-2.148-10.212-3.224-16.063-5.017c0.509,1.812,0.598,2.482,0.874,3.063c9.732,20.446,19.379,40.935,29.317,61.28
			c1.928,3.947,1.508,5.733-2.605,7.56c-10.456,4.642-20.719,9.72-31.037,14.671c-6.353,3.048-7.394,6.151-4.145,12.188
			c1.877,3.486,3.951,6.87,5.734,10.402c2.118,4.195,4.576,8.057,4.078,13.403c-0.378,4.047,0.48,8.957,2.622,12.314
			c3.089,4.845,6.164,9.122,8.067,14.963c3.075,9.438,9.015,17.938,13.692,26.862c0.629,1.199,0.951,2.56,1.185,3.207
			c-2.749,0.907-4.859,1.385-6.777,2.277c-7.383,3.432-14.67,7.067-22.054,10.496c-14.768,6.858-29.628,13.519-44.337,20.499
			c-5.144,2.441-5.786,5.14-3.53,10.404c2.607,6.086,1.997,7.95-4.046,10.781c-6.625,3.104-13.396,5.892-20.02,8.997
			c-25.12,11.778-50.157,23.735-75.318,35.425c-30.429,14.137-60.974,28.022-91.427,42.106
			c-23.015,10.645-45.969,21.418-68.938,32.162c-3.61,1.689-7.025,3.879-10.752,5.222c-6.683,2.408-12.81,5.222-16.326,11.979
			c-1.362,2.618-3.71,4.709-5.216,7.271c-4.992,8.498-10.369,16.839-14.514,25.745c-3.51,7.543-5.487,15.794-8.188,23.717
			c-4.789,14.045-4.419,28.215-1.219,42.496c2.447,10.924,6.268,21.152,12.382,30.705c5.872,9.173,10.614,19.068,15.89,28.626
			c2.103,3.809,1.005,6.526-2.477,8.859c-1.306,1.865-2.611,3.73-3.917,5.596c-1.461,1.846-2.816,3.689-4.178,5.528
			c-1.245,1.682-3.157,3.192-3.628,5.066c-1.751,6.975-6.11,11.608-11.966,15.33c-1.564,0.994-2.696,2.832-3.725,4.473
			c-1.928,3.073-3.127,6.755-5.531,9.347c-6.278,6.767-13.017,13.107-19.63,19.559c-1.989,1.941-3.963,4.803-6.317,5.243
			c-3.106,0.582-5.064,0.752-4.713,4.505c0.053,0.569-1.2,1.448-2.012,1.876c-2.657,1.402-5.648,2.317-8.008,4.09
			c-1.797,1.35-2.51,4.962-4.258,5.41c-6.195,1.588-9.737,6.805-14.9,9.641c-1.339,0.735-3.258,0.357-4.882,0.65
			c-0.876,0.158-1.828,0.485-2.508,1.032c-2.074,1.669-3.779,3.993-6.087,5.139c-6.061,3.009-13.013,4.619-18.419,8.461
			c-7.839,5.571-18.466,4.448-25.395,11.602c-0.455,0.469-1.602,0.257-2.422,0.386c-3.463,0.541-7.033,0.722-10.363,1.712
			c-7.915,2.354-15.602,5.547-23.594,7.551c-8.341,2.092-17.076,2.651-25.371,4.876c-7.882,2.113-15.429,5.488-23.104,8.357
			c-6.614,2.472-13.204,5.012-19.805,7.522c-1.085,1.379-1.949,4.078-1.793,6.718c1.09,18.41,2.208,36.823,3.689,55.204
			c0.935,11.593,2.339,23.155,3.84,34.691c2.378,18.272,5.15,36.493,7.499,54.769c2.215,17.236,2.33,34.767,7.876,51.516
			c4.014,12.12,7.743,24.336,11.509,36.537c2.103,6.811,3.75,13.772,6.112,20.487c1.567,4.455,3.992,8.615,6.122,12.863
			c1.108,2.211,2.409,4.326,3.888,6.957c0.502,0.206,2.123,0.403,3.005,1.314c4.628,4.78,9.166,9.658,13.512,14.694
			c1.188,1.377,1.126,4.063,2.454,5.051c7.697,5.719,7.689,17.73-0.911,20.797c-7.676,2.736-15.252,5.198-21.64,10.382
			c-5.576,4.524-14.753,1.551-18.857,9.103c-0.055,0.102-0.314,0.079-0.468,0.142c-10.235,4.111-20.606,7.924-30.66,12.44
			c-7.398,3.323-14.361,7.61-21.565,11.377c-2.156,1.128-4.436,2.054-6.729,2.876c-1.717,0.615-3.626,0.719-5.312,1.395
			c-5.797,2.328-11.517,4.848-17.299,7.215c-4.071,1.666-8.224,3.135-12.288,4.817c-4.561,1.89-9.067,5.444-13.591,5.434
			c-3.996-0.01-6.883,1.217-10.032,2.695c-3.128,1.468-6.1,3.267-9.202,4.795c-9.335,4.6-18.701,9.139-28.095,13.721
			c-0.354-1.239-0.571-1.995-1.152-4.025c-4.764,3.816-8.327,8.097-12.886,10.023c-9.208,3.892-16.247,10.482-24.024,16.269
			c-4.114,3.06-9.217,5.617-14.212,6.516c-17.585,3.165-31.686-4.787-44.458-15.721c-2.066-1.769-3.152-4.636-5.048-6.66
			c-4.662-4.979-9.823-9.515-14.229-14.699c-3.714-4.37-6.752-9.338-9.862-14.187c-0.824-1.284-0.409-3.379-1.257-4.63
			c-2.935-4.324-6.3-8.355-9.242-12.676c-1.243-1.825-1.874-4.075-2.724-6.156c-1.262-3.091-2.245-6.319-3.764-9.274
			c-1.713-3.333-4.819-6.193-5.695-9.669c-3.08-12.211-5.539-24.583-8.046-36.932c-0.521-2.568,0.121-5.375-0.411-7.94
			c-0.761-3.675-2.702-7.165-3.091-10.845c-1.051-9.943-1.706-19.938-2.213-29.928c-0.371-7.297-0.247-14.619-0.36-21.93
			c-0.297-19.193-0.577-38.388-0.928-57.58c-0.069-3.789-0.357-7.578-0.666-11.356c-0.655-8.024-0.317-16.323-2.327-24.001
			c-3.677-14.053-8.561-27.807-13.311-41.557c-5.46-15.808-11.558-31.396-16.943-47.229c-5.597-16.454-10.791-33.049-15.896-49.664
			c-1.329-4.322-3.952-6.687-7.976-8.032c-1.723-0.575-3.377-1.353-5.085-1.976c-10.092-3.68-20.233-6.046-31.108-3.248
			c-6.388,1.644-12.995,2.521-19.55,3.401c-5.087,0.685-10.331,0.381-15.355,1.321c-12.007,2.247-23.946,3.129-35.841-0.232
			c-1.148-0.324-2.767-2.521-2.565-3.529c1.762-8.813,6.35-15.691,14.512-19.997c7.303-3.854,14.541-7.835,21.703-11.942
			c1.519-0.871,3.126-2.313,3.766-3.872c4.337-10.563,7.143-21.61,6.887-33.023c-0.199-8.898-2.306-17.746-2.647-26.651
			c-0.388-10.12,0.295-20.278,0.42-30.421c0.105-8.517-1.108-16.686-9.062-21.693c-5.279-3.323-8.761-9.245-15.462-10.522
			c-1.01-0.192-1.802-1.418-2.743-2.101c-6.433-4.67-10.713-11.089-13.598-18.255c-1.265-3.142-1.392-7.115-0.837-10.516
			c0.638-3.915,3.375-7.534,3.774-11.429c0.417-4.068,2.03-5.011,4.469-4.491c1.563-1.875,2.385-3.683,3.761-4.354
			c3.724-1.814,7.587-4.06,11.569-4.478c8.035-0.846,16.188-0.561,24.289-0.822c1.582-0.051,3.4-0.042,4.682-0.792
			c4.434-2.592,8.678-5.507,12.305-7.853c1.686-3.448,2.371-7.724,4.77-9.184c5.856-3.563,9.556-8.536,12.82-14.193
			c0.569-0.987,1.783-1.603,2.7-2.39c2.21,3.454,2.258-0.438,3.013-1.023c2.889-2.243,5.326-5.184,8.437-6.998
			c4.286-2.502,9.061-4.154,13.567-6.294c3.713-1.764,4.499-5.23,2.457-8.677c-2.026-3.42-2.39-6.534-0.033-10.561
			c2.296-3.922,6.021-4.229,9.098-6.163c4.366-2.744,8.256-2.365,12.147,1.286c4.205,3.944,8.642,4.853,13.135,2.765
			c24.883-11.559,49.797-23.049,74.654-34.664c49.419-23.094,98.803-46.265,148.212-69.379c13.257-6.201,26.56-12.303,39.831-18.473
			c3.504-1.63,6.232-0.689,8.006,2.58c3.009,5.551,5.397,6.719,11.338,4.18c19.346-8.268,38.775-16.37,57.86-25.212
			c20.632-9.558,40.812-20.087,61.366-29.817c55.311-26.184,110.728-52.142,166.075-78.248
			c17.226-8.125,34.241-16.704,51.565-24.607c32.263-14.719,64.608-29.263,97.074-43.527c12.274-5.393,25.073-9.581,37.448-14.76
			c7.111-2.976,14.577-5.715,18.868-13.035c3.16-5.391,7.35-10.29,9.784-15.965c3.092-7.209,4.721-15.033,7.308-22.479
			c0.808-2.322,2.209-5.014,4.155-6.252C1001.484,42.725,1006.627,40.527,1011.573,38.021z M657.161,616.93
			c-8.044,4.35-15.489,10.228-25.281,10.604c-6.979,0.269-14.001,0.84-20.937,0.341c-6.545-0.472-14.143-0.389-19.265-3.681
			c-11.642-7.482-22.186-16.72-32.857-25.625c-2.734-2.281-4.593-3.575-8.222-2.043c-3.314,1.398-7.436,2.354-9.716-1.908
			c-4.124-7.708-7.814-15.647-11.974-23.335c-0.802-1.481-3.205-3.438-4.391-3.157c-9.829,2.33-18.48-0.737-26.629-5.54
			c-3.292-1.94-5.616-1.621-7.925,0.863c-3.618,3.894-7.401,7.689-10.564,11.938c-13.213,17.744-14.972,36.861-6.078,56.993
			c7.844,17.755,20.502,32.212,32.747,46.888c6.223,7.457,14.506,11.385,24.372,12.086c15.177,1.079,30.072-0.525,44.694-4.44
			c12.667-3.392,25.232-7.176,37.791-10.954c6.047-1.818,11.998-3.966,17.957-6.064c16.925-5.963,32.59-14.435,46.958-25.063
			c22.988-17.006,39.506-39.751,54.847-63.458c2.801-4.329,3.051-8.819,2.654-13.821c-1.246-15.732-7.898-29.531-15.275-42.948
			c-3.377-6.141-7.733-12.163-12.931-16.799c-13.646-12.171-30.615-14.694-48.041-13.164c-11.018,0.967-22.324,2.521-32.683,6.149
			c-14.211,4.979-27.683,12.096-41.365,18.521c-1.575,0.74-3.462,2.884-3.514,4.433c-0.196,5.976,0.163,11.925,4.609,16.813
			c5.885,6.47,11.614,13.087,17.25,19.775c11.114,13.189,22.076,26.506,33.206,39.683c1.88,2.227,4.176,5.559,6.462,5.715
			C650.295,606.224,654.825,609.36,657.161,616.93z M1022.918,37.401c1.224,0.871,1.746,1.564,2.216,1.53
			c8.989-0.65,16.018,4.419,22.503,9.125c7.121,5.169,13.055,4.523,20.013,0.67c6.997-3.875,14.292-7.21,22.547-11.325
			C1067.151,37.401,1045.478,37.401,1022.918,37.401z M81.691,520.947c-6.998,0.002-12.014,4.975-11.948,11.844
			c0.06,6.143,4.858,10.519,11.489,10.478c6.065-0.037,12.619-6.148,12.703-11.969C94.002,526.624,89.007,519.94,81.691,520.947z
			 M918.216,331.613c0.191,0.377,0.383,0.754,0.574,1.131c4.648-2.195,9.297-4.391,13.945-6.586
			c-0.171-0.355-0.343-0.712-0.514-1.067C927.553,327.265,922.884,329.438,918.216,331.613z"/>
		<path fill-rule="evenodd" clip-rule="evenodd" fill="#FFFFFF" d="M1011.573,38.021c-4.946,2.507-10.089,4.704-14.746,7.666
			c-1.946,1.238-3.348,3.93-4.155,6.252c-2.587,7.445-4.216,15.27-7.308,22.479c-2.435,5.675-6.624,10.574-9.784,15.965
			c-4.291,7.32-11.757,10.06-18.868,13.035c-12.375,5.179-25.174,9.367-37.448,14.76c-32.466,14.265-64.812,28.809-97.074,43.527
			c-17.324,7.903-34.34,16.482-51.565,24.607c-55.348,26.106-110.765,52.064-166.075,78.248
			c-20.555,9.73-40.734,20.26-61.366,29.817c-19.085,8.842-38.515,16.944-57.86,25.212c-5.94,2.539-8.329,1.371-11.338-4.18
			c-1.773-3.27-4.502-4.21-8.006-2.58c-13.271,6.17-26.574,12.271-39.831,18.473c-49.409,23.114-98.793,46.285-148.212,69.379
			c-24.856,11.615-49.771,23.105-74.654,34.664c-4.493,2.088-8.93,1.18-13.135-2.765c-3.891-3.651-7.782-4.03-12.147-1.286
			c-3.076,1.934-6.802,2.241-9.098,6.163c-2.357,4.026-1.994,7.141,0.033,10.561c2.042,3.446,1.257,6.913-2.457,8.677
			c-4.506,2.14-9.281,3.792-13.567,6.294c-3.11,1.814-5.547,4.755-8.437,6.998c-0.754,0.586-0.803,4.478-3.013,1.023
			c-0.917,0.787-2.13,1.402-2.7,2.39c-3.264,5.657-6.964,10.63-12.82,14.193c-2.398,1.46-3.083,5.735-4.77,9.184
			c-3.627,2.346-7.872,5.261-12.305,7.853c-1.282,0.75-3.101,0.741-4.682,0.792c-8.101,0.262-16.253-0.023-24.289,0.822
			c-3.982,0.418-7.845,2.663-11.569,4.478c-1.375,0.671-2.197,2.479-3.761,4.354c-2.439-0.52-4.052,0.423-4.469,4.491
			c-0.399,3.895-3.136,7.514-3.774,11.429c-0.554,3.4-0.427,7.374,0.837,10.516c2.885,7.166,7.165,13.585,13.598,18.255
			c0.94,0.683,1.732,1.908,2.743,2.101c6.702,1.277,10.184,7.199,15.462,10.522c7.953,5.008,9.167,13.177,9.062,21.693
			c-0.125,10.143-0.808,20.301-0.42,30.421c0.341,8.905,2.448,17.753,2.647,26.651c0.255,11.413-2.55,22.461-6.887,33.023
			c-0.64,1.56-2.248,3.001-3.766,3.872c-7.162,4.107-14.4,8.089-21.703,11.942c-8.162,4.306-12.75,11.185-14.512,19.997
			c-0.202,1.008,1.417,3.205,2.565,3.529c11.896,3.361,23.834,2.479,35.841,0.232c5.024-0.94,10.268-0.637,15.355-1.321
			c6.555-0.881,13.162-1.758,19.55-3.401c10.875-2.798,21.016-0.432,31.108,3.248c1.708,0.623,3.363,1.4,5.085,1.976
			c4.024,1.346,6.647,3.71,7.976,8.032c5.106,16.615,10.3,33.21,15.896,49.664c5.385,15.832,11.482,31.421,16.943,47.229
			c4.75,13.75,9.633,27.504,13.311,41.557c2.009,7.678,1.671,15.977,2.327,24.001c0.309,3.778,0.596,7.567,0.666,11.356
			c0.351,19.192,0.631,38.387,0.928,57.58c0.113,7.311-0.01,14.633,0.36,21.93c0.507,9.989,1.162,19.984,2.213,29.928
			c0.389,3.68,2.33,7.17,3.091,10.845c0.531,2.565-0.111,5.372,0.411,7.94c2.507,12.349,4.966,24.721,8.046,36.932
			c0.876,3.476,3.982,6.336,5.695,9.669c1.519,2.955,2.502,6.184,3.764,9.274c0.85,2.081,1.481,4.331,2.724,6.156
			c2.942,4.32,6.308,8.352,9.242,12.676c0.849,1.251,0.433,3.346,1.257,4.63c3.11,4.849,6.148,9.816,9.862,14.187
			c4.407,5.185,9.567,9.721,14.229,14.699c1.896,2.024,2.981,4.892,5.048,6.66c12.772,10.934,26.873,18.886,44.458,15.721
			c4.995-0.898,10.098-3.456,14.212-6.516c7.777-5.786,14.816-12.377,24.024-16.269c4.559-1.927,8.122-6.207,12.886-10.023
			c0.581,2.03,0.798,2.786,1.152,4.025c9.394-4.582,18.76-9.121,28.095-13.721c3.103-1.528,6.074-3.327,9.202-4.795
			c3.149-1.479,6.036-2.705,10.032-2.695c4.523,0.011,9.03-3.544,13.591-5.434c4.064-1.683,8.217-3.151,12.288-4.817
			c5.782-2.367,11.502-4.887,17.299-7.215c1.686-0.676,3.595-0.779,5.312-1.395c2.294-0.822,4.573-1.748,6.729-2.876
			c7.204-3.767,14.167-8.054,21.565-11.377c10.054-4.517,20.425-8.329,30.66-12.44c0.153-0.063,0.413-0.04,0.468-0.142
			c4.104-7.552,13.281-4.578,18.857-9.103c6.388-5.184,13.964-7.646,21.64-10.382c8.601-3.066,8.608-15.078,0.911-20.797
			c-1.328-0.987-1.267-3.674-2.454-5.051c-4.346-5.036-8.884-9.914-13.512-14.694c-0.882-0.911-2.503-1.108-3.005-1.314
			c-1.479-2.631-2.779-4.746-3.888-6.957c-2.13-4.248-4.555-8.408-6.122-12.863c-2.362-6.715-4.01-13.677-6.112-20.487
			c-3.766-12.201-7.495-24.417-11.509-36.537c-5.546-16.749-5.661-34.279-7.876-51.516c-2.349-18.275-5.121-36.496-7.499-54.769
			c-1.501-11.536-2.905-23.099-3.84-34.691c-1.481-18.381-2.6-36.794-3.689-55.204c-0.156-2.64,0.708-5.339,1.793-6.718
			c6.601-2.511,13.19-5.051,19.805-7.522c7.676-2.869,15.223-6.244,23.104-8.357c8.295-2.225,17.03-2.784,25.371-4.876
			c7.992-2.004,15.679-5.196,23.594-7.551c3.33-0.99,6.9-1.171,10.363-1.712c0.82-0.129,1.967,0.083,2.422-0.386
			c6.929-7.153,17.556-6.03,25.395-11.602c5.406-3.842,12.358-5.452,18.419-8.461c2.308-1.146,4.013-3.47,6.087-5.139
			c0.68-0.547,1.632-0.874,2.508-1.032c1.624-0.293,3.543,0.085,4.882-0.65c5.163-2.836,8.705-8.053,14.9-9.641
			c1.748-0.448,2.461-4.061,4.258-5.41c2.359-1.772,5.351-2.688,8.008-4.09c0.812-0.428,2.064-1.307,2.012-1.876
			c-0.352-3.753,1.606-3.923,4.713-4.505c2.354-0.44,4.328-3.302,6.317-5.243c6.613-6.451,13.352-12.792,19.63-19.559
			c2.404-2.592,3.604-6.273,5.531-9.347c1.028-1.641,2.16-3.479,3.725-4.473c5.855-3.722,10.215-8.355,11.966-15.33
			c0.471-1.874,2.383-3.385,3.628-5.066c1.361-1.839,2.717-3.683,4.178-5.528c1.306-1.865,2.611-3.73,3.917-5.596
			c3.481-2.333,4.579-5.051,2.477-8.859c-5.275-9.558-10.018-19.453-15.89-28.626c-6.114-9.553-9.935-19.781-12.382-30.705
			c-3.2-14.281-3.57-28.451,1.219-42.496c2.701-7.923,4.679-16.174,8.188-23.717c4.145-8.906,9.521-17.247,14.514-25.745
			c1.506-2.563,3.854-4.653,5.216-7.271c3.517-6.758,9.644-9.571,16.326-11.979c3.727-1.343,7.142-3.532,10.752-5.222
			c22.969-10.744,45.923-21.518,68.938-32.162c30.453-14.084,60.998-27.97,91.427-42.106c25.161-11.689,50.198-23.646,75.318-35.425
			c6.623-3.105,13.395-5.894,20.02-8.997c6.043-2.831,6.653-4.695,4.046-10.781c-2.256-5.265-1.613-7.963,3.53-10.404
			c14.709-6.98,29.569-13.641,44.337-20.499c7.384-3.429,14.671-7.064,22.054-10.496c1.918-0.893,4.028-1.37,6.777-2.277
			c-0.233-0.647-0.556-2.008-1.185-3.207c-4.678-8.924-10.617-17.424-13.692-26.862c-1.903-5.841-4.979-10.118-8.067-14.963
			c-2.142-3.357-3-8.268-2.622-12.314c0.498-5.347-1.96-9.208-4.078-13.403c-1.783-3.532-3.857-6.916-5.734-10.402
			c-3.249-6.037-2.208-9.141,4.145-12.188c10.318-4.951,20.581-10.029,31.037-14.671c4.113-1.826,4.533-3.612,2.605-7.56
			c-9.938-20.346-19.585-40.834-29.317-61.28c-0.276-0.581-0.365-1.252-0.874-3.063c5.851,1.793,11.193,2.868,16.063,5.017
			c26.643,11.758,41.814,33.282,49.282,60.485c2.696,9.819,4.091,20.317,4.098,30.508c0.207,313.657,0.206,627.314,0.099,940.972
			c-0.01,28.538-8.906,53.994-29.406,74.566c-14.015,14.063-31.007,21.47-51.023,21.483c-1.834,0.002-3.667,0.003-5.5,0.003
			c-324.489,0-648.979,0-973.467,0c-42.387,0-70.82-21.08-83.623-61.79c-3.786-12.036-5.208-24.327-5.208-36.875
			c0.015-311.991,0.03-623.982-0.021-935.973c-0.004-27.058,6.98-51.633,24.869-72.389c14.789-17.159,33.507-26.398,56.416-26.399
			c298.325-0.006,596.649-0.004,894.974-0.004c2.483,0,4.967,0,7.449,0C1011.434,37.416,1011.503,37.718,1011.573,38.021z"/>
		<path fill-rule="evenodd" clip-rule="evenodd" fill="#FFFFFF" d="M657.161,616.93c-2.336-7.569-6.866-10.706-14.099-11.2
			c-2.286-0.156-4.582-3.488-6.462-5.715c-11.13-13.177-22.092-26.493-33.206-39.683c-5.636-6.688-11.365-13.306-17.25-19.775
			c-4.446-4.889-4.806-10.838-4.609-16.813c0.052-1.549,1.938-3.692,3.514-4.433c13.683-6.425,27.154-13.542,41.365-18.521
			c10.358-3.628,21.665-5.183,32.683-6.149c17.426-1.53,34.396,0.993,48.041,13.164c5.197,4.636,9.554,10.658,12.931,16.799
			c7.377,13.417,14.029,27.216,15.275,42.948c0.396,5.002,0.146,9.492-2.654,13.821c-15.341,23.707-31.858,46.452-54.847,63.458
			c-14.368,10.629-30.033,19.101-46.958,25.063c-5.959,2.099-11.91,4.246-17.957,6.064c-12.559,3.778-25.124,7.563-37.791,10.954
			c-14.622,3.915-29.518,5.52-44.694,4.44c-9.866-0.701-18.149-4.629-24.372-12.086c-12.245-14.676-24.903-29.133-32.747-46.888
			c-8.894-20.132-7.135-39.249,6.078-56.993c3.163-4.248,6.946-8.044,10.564-11.938c2.309-2.484,4.633-2.804,7.925-0.863
			c8.148,4.803,16.8,7.87,26.629,5.54c1.186-0.281,3.589,1.676,4.391,3.157c4.159,7.688,7.85,15.627,11.974,23.335
			c2.28,4.262,6.401,3.307,9.716,1.908c3.629-1.532,5.487-0.238,8.222,2.043c10.672,8.905,21.216,18.143,32.857,25.625
			c5.122,3.292,12.72,3.209,19.265,3.681c6.936,0.499,13.958-0.072,20.937-0.341C641.672,627.157,649.117,621.279,657.161,616.93z"
			/>
		<path fill-rule="evenodd" clip-rule="evenodd" fill="#FFFFFF" d="M1022.918,37.401c22.56,0,44.233,0,67.278,0
			c-8.255,4.115-15.55,7.45-22.547,11.325c-6.958,3.854-12.892,4.499-20.013-0.67c-6.485-4.706-13.514-9.775-22.503-9.125
			C1024.664,38.966,1024.142,38.272,1022.918,37.401z"/>
		<path fill-rule="evenodd" clip-rule="evenodd" fill="#FFFFFF" d="M81.691,520.947c7.316-1.007,12.311,5.677,12.244,10.353
			c-0.084,5.82-6.637,11.932-12.703,11.969c-6.631,0.041-11.429-4.335-11.489-10.478C69.677,525.922,74.693,520.949,81.691,520.947z
			"/>
		<path fill-rule="evenodd" clip-rule="evenodd" fill="#FFFFFF" d="M918.216,331.613c4.668-2.175,9.337-4.349,14.006-6.522
			c0.171,0.355,0.343,0.712,0.514,1.067c-4.648,2.195-9.297,4.391-13.945,6.586C918.599,332.367,918.407,331.99,918.216,331.613z"/>
	</g>
</g>
</svg>
