<?xml version="1.0" encoding="utf-8"?>
<!-- Generator: Adobe Illustrator 16.0.3, SVG Export Plug-In . SVG Version: 6.00 Build 0)  -->
<!DOCTYPE svg PUBLIC "-//W3C//DTD SVG 1.1//EN" "http://www.w3.org/Graphics/SVG/1.1/DTD/svg11.dtd">
<svg version="1.1" id="HEALTH_SAFETY_final_xA0_Image_1_"
	 xmlns="http://www.w3.org/2000/svg" xmlns:xlink="http://www.w3.org/1999/xlink" x="0px" y="0px" width="1200px" height="1200px"
	 viewBox="0 0 1200 1200" enable-background="new 0 0 1200 1200" xml:space="preserve">
<g>
	<g>
		<path fill-rule="evenodd" clip-rule="evenodd" d="M1201,1201c-400,0-800,0-1200,0C1,801,1,401,1,1c400,0,800,0,1200,0
			C1201,401,1201,801,1201,1201z M601.733,1170.543c163.489,0,326.978,0.01,490.467-0.042c5.312-0.002,10.717-0.113,15.919-1.054
			c20.587-3.718,36.262-15.191,48.258-31.922c13.856-19.324,19.613-41.177,19.61-64.755c-0.014-127.325-0.006-254.649-0.005-381.974
			c0-184.821-0.026-369.642,0.037-554.462c0.006-19.47-3.426-38.099-12.896-55.213c-15.841-28.624-39.213-44.177-73.059-44.152
			c-326.812,0.239-653.622,0.151-980.433,0.127c-23.491-0.002-42.583,9.302-57.622,27.039
			c-17.604,20.764-24.365,45.214-24.359,72.072c0.059,311.812,0.044,623.624,0.014,935.436c-0.001,12.897,1.45,25.536,5.388,37.851
			c12.821,40.094,41.376,61.049,83.214,61.049C278.089,1170.543,439.911,1170.543,601.733,1170.543z"/>
		<path fill-rule="evenodd" clip-rule="evenodd" fill="#FFFFFF" d="M601.733,1170.543c-161.822,0-323.644,0-485.466,0
			c-41.838,0-70.393-20.955-83.214-61.049c-3.938-12.314-5.389-24.953-5.388-37.851c0.031-311.812,0.045-623.624-0.014-935.436
			c-0.005-26.858,6.755-51.309,24.359-72.072c15.038-17.737,34.131-27.041,57.622-27.039c326.811,0.024,653.621,0.112,980.433-0.127
			c33.846-0.024,57.218,15.528,73.059,44.152c9.471,17.114,12.902,35.743,12.896,55.213c-0.063,184.82-0.037,369.641-0.037,554.462
			c-0.001,127.324-0.009,254.648,0.005,381.974c0.003,23.578-5.754,45.431-19.61,64.755c-11.996,16.73-27.671,28.204-48.258,31.922
			c-5.202,0.94-10.607,1.052-15.919,1.054C928.711,1170.553,765.223,1170.543,601.733,1170.543z M604.476,84.164
			c-173.482,0-346.965,0-520.447,0c-3,0-6.001,0.06-8.999-0.023c-3.658-0.102-5.261,1.121-5.256,5.243
			c0.116,112.488,0.109,224.977,0.109,337.465c-0.001,228.644-0.009,457.287-0.019,685.93c0,6.225,0.831,7.02,7.353,7.02
			c349.797-0.009,699.595-0.019,1049.393-0.004c13.277,0.001,11.623,0.725,11.623-11.936
			c-0.002-335.966-0.002-671.932-0.002-1007.897c0-3-0.04-6,0.008-8.999c0.109-6.814,0.127-6.807-6.816-6.807
			C955.772,84.156,780.124,84.156,604.476,84.164z"/>
		<path fill-rule="evenodd" clip-rule="evenodd" d="M604.476,84.16c175.648-0.004,351.297-0.004,526.946-0.005
			c6.943,0,6.926-0.008,6.816,6.807c-0.048,2.999-0.008,5.999-0.008,8.999c0,335.966,0,671.932,0.002,1007.897
			c0,12.66,1.654,11.937-11.623,11.936c-349.798-0.015-699.596-0.005-1049.393,0.004c-6.521,0-7.353-0.795-7.353-7.02
			c0.009-228.643,0.018-457.286,0.019-685.93c0-112.488,0.007-224.977-0.109-337.465c-0.004-4.122,1.598-5.345,5.256-5.243
			c2.998,0.083,5.999,0.023,8.999,0.023C257.511,84.164,430.993,84.164,604.476,84.16z M884.441,734.881c0,0.016,0,0.031,0,0.047
			c48.164,0,96.329-0.005,144.493,0.006c6.476,0.002,7.757-1.268,7.756-7.947c-0.007-82.33-0.015-164.659-0.022-246.988
			c0-2.5,0.002-5,0.002-7.5c-0.002-4.229-1.707-6.269-6.346-6.264c-94.661,0.103-189.323,0.086-283.985,0.119
			c-14.384,0.006-12.676,1.08-12.669-12.39c0.044-85.162,0.022-170.325,0.023-255.487c0-2.667,0.006-5.333,0.026-8
			c0.027-3.603-1.553-5.688-5.343-5.718c-1.5-0.011-2.999-0.035-4.499-0.035c-85.496-0.001-170.991,0-256.487,0
			c-12.491,0-12.556,0-12.558,12.118c-0.018,87.329-0.017,174.658,0.015,261.987c0.002,6.582-0.813,7.539-7.356,7.538
			c-72.162-0.01-144.324-0.015-216.485-0.023c-17.499-0.003-34.999-0.04-52.498-0.005c-5.336,0.011-6.457,1.269-6.375,6.52
			c0.08,5.163,0.15,10.328,0.148,15.492c-0.03,80.162-0.061,160.323-0.147,240.484c-0.005,4.529,2.005,6.174,6.406,6.142
			c16.832-0.122,33.665-0.059,50.497-0.061c72.996-0.013,145.992-0.008,218.989-0.076c4.252-0.004,6.956,0.688,6.948,5.943
			c-0.127,86.328-0.129,172.657-0.174,258.985c-0.002,3.828-0.03,7.663-0.244,11.483c-0.308,5.503,0.506,6.447,6.021,6.447
			c86.329-0.01,172.658-0.018,258.987-0.021c14.124,0,14.13,0.009,14.126-14.186c-0.024-87.829-0.025-175.657-0.152-263.486
			c-0.007-4.591,2.242-5.161,5.911-5.157C787.779,734.897,836.11,734.881,884.441,734.881z"/>
		<path fill-rule="evenodd" clip-rule="evenodd" fill="#FFFFFF" d="M884.441,734.881c-48.331,0-96.662,0.017-144.992-0.032
			c-3.669-0.004-5.918,0.566-5.911,5.157c0.127,87.829,0.128,175.657,0.152,263.486c0.004,14.194-0.002,14.186-14.126,14.186
			c-86.329,0.004-172.658,0.012-258.987,0.021c-5.515,0-6.328-0.944-6.021-6.447c0.214-3.82,0.242-7.655,0.244-11.483
			c0.045-86.328,0.047-172.657,0.174-258.985c0.008-5.256-2.696-5.947-6.948-5.943c-72.997,0.068-145.993,0.063-218.989,0.076
			c-16.833,0.002-33.666-0.062-50.497,0.061c-4.4,0.032-6.411-1.612-6.406-6.142c0.086-80.161,0.117-160.322,0.147-240.484
			c0.002-5.164-0.069-10.329-0.148-15.492c-0.081-5.251,1.039-6.509,6.375-6.52c17.499-0.035,34.999,0.002,52.498,0.005
			c72.162,0.009,144.323,0.014,216.485,0.023c6.544,0.001,7.358-0.956,7.356-7.538c-0.031-87.329-0.032-174.658-0.015-261.987
			c0.002-12.118,0.066-12.118,12.558-12.118c85.496,0,170.991-0.001,256.487,0c1.5,0,2.999,0.024,4.499,0.035
			c3.79,0.03,5.37,2.115,5.343,5.718c-0.021,2.667-0.026,5.333-0.026,8c-0.001,85.162,0.021,170.325-0.023,255.487
			c-0.007,13.47-1.715,12.396,12.669,12.39c94.662-0.033,189.324-0.017,283.985-0.119c4.639-0.005,6.344,2.035,6.346,6.264
			c0,2.5-0.002,5-0.002,7.5c0.008,82.329,0.016,164.658,0.022,246.988c0.001,6.68-1.28,7.949-7.756,7.947
			c-48.164-0.011-96.329-0.006-144.493-0.006C884.441,734.912,884.441,734.896,884.441,734.881z"/>
	</g>
</g>
</svg>
