<?xml version="1.0" encoding="utf-8"?>
<!-- Generator: Adobe Illustrator 16.0.3, SVG Export Plug-In . SVG Version: 6.00 Build 0)  -->
<!DOCTYPE svg PUBLIC "-//W3C//DTD SVG 1.1//EN" "http://www.w3.org/Graphics/SVG/1.1/DTD/svg11.dtd">
<svg version="1.1" id="Chat_xA0_Image_1_" xmlns="http://www.w3.org/2000/svg" xmlns:xlink="http://www.w3.org/1999/xlink" x="0px"
	 y="0px" width="1200px" height="720px" viewBox="0 0 1200 720" enable-background="new 0 0 1200 720" xml:space="preserve">
<g>
	<g>
		<path fill-rule="evenodd" clip-rule="evenodd" fill="#FFFFFF" d="M1201,720.98c-399.935,0-799.869,0-1199.902,0
			c0-239.884,0-479.787,0-719.836c399.902,0,799.902,0,1199.902,0C1201,241.022,1201,480.991,1201,720.98z M396.971,519.031
			c3.033-16.847,5.743-32.929,8.863-48.931c3.114-15.975,7.023-31.803,9.791-47.832c1.073-6.218,0.968-13.021-0.34-19.188
			c-2.746-12.96-10.46-23.274-20.259-31.959c-19.42-17.213-42.879-25.913-67.772-31.042c-43.052-8.87-86.083-7.732-128.952,1.568
			c-32.229,6.993-63.181,17.468-91.608,34.522c-11.776,7.064-22.688,15.252-30.949,26.468c-6.901,9.371-9.726,19.562-6.275,31.067
			c0.459,1.529,0.445,3.3,0.249,4.91c-1.031,8.428-2.447,16.814-3.254,25.262c-1.761,18.438-3.258,37.003,0.713,55.265
			c2.678,12.314,7.672,24.127,10.34,36.443c6.092,28.121,20.191,51.019,41.844,69.808c7.106,6.166,13.456,13.488,18.961,21.138
			c6.154,8.552,13.481,15.285,23.069,19.233c26.753,11.018,53.473,22.148,80.52,32.405c20.623,7.82,42.201,12.332,64.252,13.749
			c45.563,2.927,89.606-4.439,132.25-20.505c52.693-19.852,103.626-43.731,154.413-67.909
			c119.633-56.951,237.244-117.936,355.082-178.463c1.621-0.833,3.211-1.787,4.654-2.896c13.477-10.339,27.306-20.264,40.289-31.192
			c28.057-23.617,51.325-50.431,60.662-87.494c5.186-20.586,13.619-40.332,19.96-60.652c8.124-26.037,16.511-52.022,19.116-79.446
			c2.896-30.479-9.327-57.319-38.11-71.021c-6.301-2.999-12.651-6.039-19.255-8.234c-45.722-15.202-92.552-18.928-140.066-11.671
			c-34.517,5.271-66.572,17.329-94.91,38.315c-15.545,11.512-27.047,26.034-33.71,44.252c-3.679,10.062-5.344,20.354-1.917,30.817
			c6.364,19.435,12.61,38.917,19.471,58.178c8.195,23.014,19.697,44.07,38.623,60.293c0.175,0.149,0.099,0.591,0.172,1.126
			c-1.223,0.657-2.5,1.388-3.814,2.044c-123.859,61.925-247.721,123.844-371.589,185.753c-1.328,0.664-2.691,1.581-4.101,1.713
			C428.155,516.351,412.916,517.642,396.971,519.031z"/>
		<path fill-rule="evenodd" clip-rule="evenodd" d="M396.971,519.031c15.945-1.39,31.185-2.681,46.412-4.105
			c1.409-0.132,2.772-1.049,4.101-1.713c123.868-61.909,247.729-123.828,371.589-185.753c1.314-0.656,2.592-1.387,3.814-2.044
			c-0.073-0.535,0.003-0.977-0.172-1.126c-18.926-16.223-30.428-37.279-38.623-60.293c-6.86-19.261-13.106-38.743-19.471-58.178
			c-3.427-10.464-1.762-20.756,1.917-30.817c6.663-18.218,18.165-32.74,33.71-44.252c28.338-20.986,60.394-33.044,94.91-38.315
			c47.515-7.257,94.345-3.531,140.066,11.671c6.604,2.195,12.954,5.235,19.255,8.234c28.783,13.701,41.006,40.541,38.11,71.021
			c-2.605,27.424-10.992,53.409-19.116,79.446c-6.341,20.32-14.774,40.066-19.96,60.652c-9.337,37.063-32.605,63.877-60.662,87.494
			c-12.983,10.929-26.813,20.854-40.289,31.192c-1.443,1.108-3.033,2.063-4.654,2.896
			C830.07,505.568,712.459,566.553,592.826,623.504c-50.787,24.178-101.72,48.058-154.413,67.909
			c-42.644,16.065-86.688,23.432-132.25,20.505c-22.051-1.417-43.629-5.929-64.252-13.749
			c-27.047-10.257-53.767-21.388-80.52-32.405c-9.588-3.948-16.915-10.682-23.069-19.233c-5.505-7.649-11.855-14.972-18.961-21.138
			c-21.653-18.789-35.751-41.687-41.844-69.808c-2.668-12.316-7.662-24.129-10.34-36.443c-3.972-18.262-2.474-36.826-0.713-55.265
			c0.807-8.447,2.223-16.834,3.254-25.262c0.197-1.61,0.21-3.381-0.249-4.91c-3.451-11.506-0.626-21.696,6.275-31.067
			c8.261-11.216,19.173-19.403,30.949-26.468c28.428-17.055,59.38-27.529,91.608-34.522c42.869-9.301,85.9-10.438,128.952-1.568
			c24.894,5.129,48.353,13.829,67.772,31.042c9.799,8.685,17.513,18.999,20.259,31.959c1.308,6.168,1.413,12.971,0.34,19.188
			c-2.768,16.029-6.677,31.857-9.791,47.832C402.714,486.103,400.004,502.185,396.971,519.031z"/>
	</g>
</g>
</svg>
