<?xml version="1.0" encoding="utf-8"?>
<!-- Generator: Adobe Illustrator 16.0.3, SVG Export Plug-In . SVG Version: 6.00 Build 0)  -->
<!DOCTYPE svg PUBLIC "-//W3C//DTD SVG 1.1//EN" "http://www.w3.org/Graphics/SVG/1.1/DTD/svg11.dtd">
<svg version="1.1" id="CRIME_and_PUNISHMENT_final_xA0_Image_1_"
	 xmlns="http://www.w3.org/2000/svg" xmlns:xlink="http://www.w3.org/1999/xlink" x="0px" y="0px" width="1200px" height="1200px"
	 viewBox="0 0 1200 1200" enable-background="new 0 0 1200 1200" xml:space="preserve">
<g>
	<g>
		<path fill-rule="evenodd" clip-rule="evenodd" d="M1,1c400,0,800,0,1200,0c0,400,0,800,0,1200c-400,0-800,0-1200,0
			C1,801,1,401,1,1z M601.558,1170.543c163.989,0,327.978-0.055,491.967,0.059c24.99,0.018,44.716-10.172,60.02-29.368
			c16.122-20.224,22.462-43.722,22.457-69.286c-0.037-172.988-0.019-345.977-0.019-518.965
			c-0.001-139.157-0.025-278.314,0.026-417.472c0.007-19.307-3.586-37.771-13.025-54.679
			c-14.876-26.646-36.463-43.647-68.243-43.657c-328.645-0.101-657.288-0.065-985.932-0.054
			c-22.709,0.001-41.315,9.159-56.041,26.116c-18.092,20.833-25.119,45.555-25.114,72.795c0.056,311.979,0.04,623.957,0.022,935.936
			c-0.001,12.551,1.446,24.841,5.229,36.87c12.787,40.654,41.258,61.705,83.687,61.705
			C278.247,1170.543,439.902,1170.543,601.558,1170.543z"/>
		<path fill-rule="evenodd" clip-rule="evenodd" fill="#FFFFFF" d="M601.558,1170.543c-161.655,0-323.311,0-484.966,0
			c-42.428,0-70.9-21.051-83.687-61.705c-3.783-12.029-5.23-24.319-5.229-36.87c0.017-311.979,0.034-623.957-0.022-935.936
			c-0.005-27.24,7.022-51.962,25.114-72.795c14.726-16.957,33.332-26.115,56.041-26.116c328.644-0.012,657.288-0.047,985.932,0.054
			c31.78,0.01,53.367,17.012,68.243,43.657c9.439,16.908,13.032,35.372,13.025,54.679c-0.052,139.157-0.027,278.314-0.026,417.472
			c0,172.988-0.019,345.977,0.019,518.965c0.005,25.564-6.335,49.063-22.457,69.286c-15.304,19.196-35.029,29.386-60.02,29.368
			C929.535,1170.488,765.547,1170.543,601.558,1170.543z M1120.084,714.223c-0.454,0.503-0.908,1.005-1.362,1.508
			c-4.246-2.453-8.735-4.568-12.694-7.42c-13.225-9.529-26.486-19.034-39.309-29.092c-14.535-11.4-23.835-25.488-20.65-45.232
			c1.234-7.654,3.441-13.706,11.996-16.458c9.675-3.112,13.182-8.182,12.605-15.693c-0.587-7.64-4.068-13.898-9.909-18.937
			c-8.622-7.438-19.328-12.669-24.929-23.404c-0.256-0.489-3.35-0.373-4.11,0.426c-3.901,4.091-7.366,8.596-11.194,12.763
			c-2.648,2.884-5.23,2.603-7.115-1.027c-10.961-21.115-22.003-42.19-32.736-63.422c-1.089-2.153-1.158-5.595-0.252-7.859
			c6.123-15.293,12.926-30.315,18.956-45.644c9.747-24.779,18.916-49.785,28.633-74.576c5.04-12.859,7.888-26.13,8.88-39.813
			c1.996-27.53,0.415-54.919-3.701-82.187c-2.679-17.744-7.196-34.933-16.633-50.371c-18.884-30.891-42.283-58.004-68.871-82.561
			c-23.569-21.769-51.881-33.088-82.68-39.098c-13.033-2.543-26.269-4.404-39.502-5.442c-8.484-0.666-17.152,0.499-25.7,1.271
			c-10.925,0.987-21.842,2.178-32.706,3.686c-24.938,3.46-49.353,9.359-73.043,17.795c-22.825,8.128-45.547,16.636-67.896,25.977
			c-13.428,5.612-26.268,12.759-38.997,19.885c-25.414,14.229-49.877,30.05-72.582,48.285
			c-21.392,17.181-42.899,34.41-62.662,53.382c-28.086,26.964-55.392,54.841-81.597,83.633
			c-24.524,26.944-47.712,55.165-70.5,83.614c-19.657,24.541-38.727,49.641-56.601,75.498
			c-21.281,30.788-41.734,62.207-61.236,94.152c-27.151,44.475-51.442,90.59-74.342,137.396
			c-15.501,31.684-30.548,63.594-45.392,95.592c-10.095,21.763-18.26,44.286-24.285,67.553c-4.682,18.083-8.617,36.238-6.687,55.118
			c0.219,2.146-0.09,4.42,0.499,6.445c3.708,12.755,7.246,25.577,11.515,38.147c6.145,18.095,14.228,35.141,28.653,48.454
			c9.318,8.601,20.392,14.595,32.429,16.752c19.928,3.571,40.101,2.441,59.892-2.544c4.36-1.098,8.739-2.126,13.081-3.292
			c11.229-3.014,22.426-6.146,33.667-9.11c6.097-1.607,12.242-3.048,18.399-4.409c3.95-0.873,6.155,0.785,7.168,4.845
			c2.216,8.879,4.598,17.727,7.245,26.487c5.895,19.51,14.182,37.727,29.699,51.697c1.614,1.453,4.107,2.817,6.153,2.762
			c13.257-0.357,26.614,1.866,39.627-3.643c9.569-4.051,20.134-5.701,29.84-9.486c17.778-6.933,35.382-14.353,52.813-22.123
			c20.015-8.921,39.703-18.57,59.657-27.631c6.523-2.961,12.722-7.094,20.716-5.687c8.65,1.523,17.44,2.278,26.184,3.242
			c15.543,1.715,31.068,4.356,46.651,4.774c28.951,0.776,57.983,1.231,86.895-0.089c21.696-0.991,43.357-4.335,64.849-7.786
			c25.24-4.053,50.381-8.89,75.375-14.267c18.98-4.082,37.784-9.127,56.447-14.503c18.527-5.338,36.985-11.063,55.097-17.653
			c18.383-6.688,36.593-14.019,54.355-22.203c21.529-9.92,42.954-20.243,63.589-31.874c16.604-9.358,32.121-20.694,47.838-31.561
			c21.83-15.094,41.679-32.581,59.947-51.806c17.664-18.588,32.836-38.932,42.156-63.116c2.495-6.476,5.551-12.91,6.809-19.651
			c2.783-14.91-1.454-28.629-9.45-41.231c-14.398-22.696-32.97-41.246-55.766-55.522c-1.709-1.07-3.605-1.842-5.414-2.753
			c-0.267,0.346-0.532,0.692-0.798,1.038C1104.758,695.557,1112.421,704.89,1120.084,714.223z"/>
		<path fill-rule="evenodd" clip-rule="evenodd" d="M1120.084,714.223c-7.663-9.333-15.326-18.666-22.988-27.999
			c0.266-0.346,0.531-0.692,0.798-1.038c1.809,0.911,3.705,1.683,5.414,2.753c22.796,14.276,41.367,32.826,55.766,55.522
			c7.996,12.603,12.233,26.321,9.45,41.231c-1.258,6.741-4.313,13.176-6.809,19.651c-9.32,24.185-24.492,44.528-42.156,63.116
			c-18.269,19.225-38.117,36.712-59.947,51.806c-15.717,10.866-31.234,22.202-47.838,31.561
			c-20.635,11.631-42.06,21.954-63.589,31.874c-17.763,8.185-35.973,15.515-54.355,22.203c-18.111,6.59-36.569,12.315-55.097,17.653
			c-18.663,5.376-37.467,10.421-56.447,14.503c-24.994,5.377-50.135,10.214-75.375,14.267c-21.491,3.451-43.152,6.795-64.849,7.786
			c-28.911,1.32-57.943,0.865-86.895,0.089c-15.583-0.418-31.108-3.06-46.651-4.774c-8.743-0.964-17.533-1.719-26.184-3.242
			c-7.994-1.407-14.192,2.726-20.716,5.687c-19.954,9.061-39.643,18.71-59.657,27.631c-17.431,7.771-35.034,15.19-52.813,22.123
			c-9.706,3.785-20.271,5.436-29.84,9.486c-13.013,5.509-26.37,3.285-39.627,3.643c-2.046,0.056-4.539-1.309-6.153-2.762
			c-15.517-13.971-23.804-32.188-29.699-51.697c-2.647-8.761-5.029-17.608-7.245-26.487c-1.013-4.06-3.218-5.718-7.168-4.845
			c-6.158,1.361-12.302,2.802-18.399,4.409c-11.241,2.964-22.438,6.097-33.667,9.11c-4.342,1.166-8.721,2.194-13.081,3.292
			c-19.791,4.985-39.964,6.115-59.892,2.544c-12.037-2.157-23.111-8.151-32.429-16.752c-14.425-13.313-22.508-30.359-28.653-48.454
			c-4.269-12.57-7.807-25.393-11.515-38.147c-0.589-2.025-0.28-4.299-0.499-6.445c-1.93-18.88,2.005-37.035,6.687-55.118
			c6.024-23.267,14.189-45.79,24.285-67.553c14.843-31.998,29.89-63.908,45.392-95.592c22.9-46.806,47.19-92.921,74.342-137.396
			c19.502-31.945,39.955-63.364,61.236-94.152c17.874-25.857,36.943-50.957,56.601-75.498c22.788-28.449,45.976-56.67,70.5-83.614
			c26.205-28.792,53.511-56.669,81.597-83.633c19.763-18.972,41.271-36.201,62.662-53.382
			c22.705-18.235,47.168-34.057,72.582-48.285c12.729-7.126,25.569-14.272,38.997-19.885c22.35-9.341,45.071-17.849,67.896-25.977
			C717.747,95,742.162,89.101,767.1,85.641c10.864-1.508,21.781-2.698,32.706-3.686c8.548-0.772,17.216-1.938,25.7-1.271
			c13.233,1.038,26.469,2.899,39.502,5.442c30.799,6.01,59.11,17.329,82.68,39.098c26.588,24.557,49.987,51.67,68.871,82.561
			c9.437,15.438,13.954,32.627,16.633,50.371c4.116,27.268,5.697,54.656,3.701,82.187c-0.992,13.683-3.84,26.953-8.88,39.813
			c-9.717,24.791-18.886,49.797-28.633,74.576c-6.03,15.328-12.833,30.351-18.956,45.644c-0.906,2.265-0.837,5.706,0.252,7.859
			c10.733,21.231,21.775,42.307,32.736,63.422c1.885,3.63,4.467,3.911,7.115,1.027c3.828-4.167,7.293-8.672,11.194-12.763
			c0.761-0.799,3.854-0.915,4.11-0.426c5.601,10.735,16.307,15.967,24.929,23.404c5.841,5.038,9.322,11.297,9.909,18.937
			c0.576,7.512-2.931,12.581-12.605,15.693c-8.555,2.752-10.762,8.804-11.996,16.458c-3.185,19.744,6.115,33.832,20.65,45.232
			c12.822,10.058,26.084,19.563,39.309,29.092c3.959,2.852,8.448,4.967,12.694,7.42
			C1119.176,715.228,1119.63,714.726,1120.084,714.223z M775.934,520.703c29.75-1.169,50.724-2.101,71.707-2.731
			c4.435-0.134,6.742-1.96,8.938-5.695c10.871-18.498,22.026-36.831,33.205-55.146c3.365-5.514,8.048-10.396,10.523-16.245
			c5.896-13.932,5.719-28.779,2.795-43.253c-4.935-24.429-16.333-45.069-37.028-60.207c-11.999-8.777-22.936-19.068-27.994-33.716
			c-7.604-22.016-15.253-44.032-22.024-66.31c-3.843-12.642-8.514-25.308-7.639-38.987c0.082-1.284-0.953-2.862-1.883-3.95
			c-4.859-5.686-9.47-11.661-14.875-16.789c-13.269-12.587-26.768-24.945-40.532-36.984c-3.623-3.169-8.326-5.856-12.953-6.894
			c-3.891-0.873-5.62-1.684-5.433-5.709c0.244-5.259-2.912-8.001-7.648-8.951c-7.557-1.517-14.251,0.267-19.53,6.117
			c-5.48,6.074-12.261,10.107-20.327,10.61c-12.121,0.754-21.524,6.09-29.51,14.8c-4.903,5.347-10.938,7.838-18.386,6.799
			c-6.322-0.882-11.91,1.784-14.325,7.623c-3.161,7.646-6.763,15.482-7.846,23.55c-3.873,28.869-6.927,57.854-9.908,86.835
			c-0.744,7.235-0.288,14.631,0.076,21.931c0.19,3.817,2.152,7.129,6.178,8.286c4.18,1.201,8.044,0.136,10.976-3.052
			c2.349-2.553,4.434-5.39,6.356-8.285c4.232-6.374,7.326-13.858,12.676-19.041c5.777-5.598,7.137-11.528,6.809-18.743
			c-0.204-4.491-0.367-8.999-0.215-13.487c0.1-2.96,0.486-5.986,1.296-8.826c1.13-3.962,6.376-6.884,11.242-6.58
			c4.626,0.289,6.987,2.906,8.089,7.401c3.71,15.137,0.605,28.212-10.529,39.455c-7.025,7.094-13.611,14.637-20.19,22.156
			c-4.354,4.978-6.14,10.418-2.649,16.948c4.468,8.36,7.882,17.32,12.747,25.424c12.171,20.273,17.753,41.974,17.716,65.632
			c-0.031,19.627,1.106,39.291,2.596,58.872c0.958,12.592,4.807,24.644,13.62,34.235c11.895,12.943,25.348,23.102,44.205,22.944
			C745.738,520.577,765.222,520.703,775.934,520.703z M1043.156,585.013c-0.249-0.49-0.498-0.981-0.748-1.472
			c-0.77-0.116-1.616-0.502-2.298-0.308c-8.954,2.545-17.913,5.079-26.789,7.877c-1.315,0.415-2.12,2.276-3.321,3.274
			c-2.014,1.674-3.938,3.774-6.29,4.652c-4.808,1.794-10.176,2.247-14.779,4.397c-16.132,7.534-32.227,15.195-47.983,23.478
			c-22.546,11.853-44.906,24.072-67.125,36.53c-53.021,29.728-105.751,59.981-158.915,89.451
			c-36.981,20.5-74.381,40.259-111.847,59.865c-8.137,4.259-17.202,8.501-26.104,9.157c-16.52,1.219-30.104,7.729-42.677,17.494
			c-4.027,3.129-7.389,7.082-6.952,12.618c0.365,4.647-1.555,6.831-5.771,8.487c-26.033,10.225-52.05,20.498-77.915,31.138
			c-26.174,10.767-52.197,21.9-78.218,33.035c-7.637,3.268-15.254,6.703-22.475,10.78c-5.448,3.076-5.61,5.966-1.992,11.089
			c4.9,6.938,9.999,13.714,11.996,22.277c0.354,1.513,2.563,3.61,3.924,3.616c1.77,0.008,4.505-1.407,5.132-2.914
			c1.57-3.772,2.544-7.895,3.085-11.966c0.523-3.937,0.034-7.996,0.299-11.98c0.418-6.293,3.067-8.755,9.306-9.655
			c4.441-0.641,9.056-1.063,13.199-2.626c28.484-10.752,57.092-21.235,85.201-32.909c19.021-7.899,37.33-17.527,55.876-26.551
			c4.058-1.975,7.595-4.626,8.472-9.788c0.281-1.656,2.166-3.414,3.765-4.402c4.381-2.706,8.864-5.334,13.569-7.394
			c3.122-1.366,7.527-4.471,9.901-0.563c2.342,3.855-1.854,7.11-4.778,9.271c-7.36,5.438-14.83,10.806-22.69,15.47
			c-33.371,19.8-67.021,39.131-100.316,59.055c-14.842,8.881-29.124,18.703-43.556,28.256c-1.675,1.108-2.91,3.097-3.948,4.907
			c-2.173,3.792-4.19,7.685-6.044,11.643c-0.844,1.804-1.146,3.862-1.694,5.806c1.847-0.186,3.987,0.173,5.49-0.644
			c9.063-4.925,18.074-9.958,26.924-15.254c19.857-11.884,39.356-24.391,59.506-35.748c10.836-6.108,20.825-12.981,29.993-21.326
			c4.631-4.214,9.729-8.2,15.244-11.09c8.08-4.233,10.806-2.229,11.095,6.798c0.179,5.607,3.087,7.433,7.725,4.097
			c5.095-3.666,10.181-7.688,14.18-12.469c11.316-13.529,22.141-27.476,32.984-41.393c1.666-2.137,2.249-5.083,3.618-7.492
			c2.013-3.54,3.642-7.671,6.581-10.234c5.621-4.901,11.743-9.408,18.198-13.144c27.67-16.009,55.377-31.967,83.368-47.403
			c42.721-23.56,85.775-46.514,128.525-70.021c40.125-22.063,80.179-44.266,120.001-66.869c30.406-17.26,60.42-35.212,90.55-52.956
			C1038.364,589.354,1040.66,587.013,1043.156,585.013z M652.73,970.965c0.485,0.261,0.971,0.521,1.455,0.782
			c-0.327,1.807-0.189,3.89-1.07,5.367c-2.457,4.123-5.122,8.165-8.098,11.929c-4.909,6.209-5.062,7.275,0.605,12.863
			c3.12,3.077,4,5.785,0.461,9.299c-2.768,2.748-1.925,4.519,2.038,5.111c1.311,0.196,2.658,0.171,3.99,0.202
			c30.616,0.728,60.851-3.161,90.914-8.226c9.417-1.586,18.476-5.391,27.618-8.424c1.537-0.51,2.66-2.27,3.975-3.452
			c-1.256-0.832-2.41-1.954-3.789-2.437c-2.93-1.027-3.925-2.99-2.071-5.288c2.466-3.057,5.397-5.794,8.411-8.334
			c1.857-1.565,4.24-2.508,6.387-3.729c-1.597-2.295-3.163-4.611-4.807-6.872c-0.582-0.802-1.293-1.536-2.045-2.184
			c-4.013-3.454-8.236-4.815-13.192-1.691c-2.52,1.589-5.206,3.115-8.03,3.947c-1.878,0.554-4.132-0.172-6.218-0.325
			c0.871-2.287,1.638-4.624,2.682-6.829c0.285-0.603,1.418-0.782,2.132-1.206c3.553-2.109,3.812-5.604,0.266-7.767
			c-1.745-1.064-4.11-1.754-6.125-1.611c-4.786,0.338-9.536,1.233-14.289,1.979c-4.388,0.688-6.057-0.666-5.344-4.466
			c1.063-5.674,0.215-7.069-5.293-8.221c-2.276-0.477-4.609-0.906-6.924-0.942c-7.542-0.12-12.835-3.768-15.404-10.598
			c-2.141-5.694-3.354-11.741-4.89-17.655c-0.423-1.631-0.525-3.346-0.8-5.189c-3.444,0.554-5.899,4.605-8.959,0.464
			c-4.354-5.893-1.53-14.634,5.201-17.289c5.183-2.044,10.02-5.074,14.766-8.054c1.427-0.896,2.034-3.096,3.018-4.697
			c-1.814-0.614-3.636-1.769-5.442-1.746c-6.487,0.078-13.106-0.159-19.423,1.047c-9.645,1.841-19.357,4.323-25.346,13.34
			c-2.096,3.154-5.081,6.972-1.701,10.333c3.67,3.65,6.953-0.485,10.05-2.365c2.245-1.362,4.272-3.083,6.396-4.644
			c0.308,0.437,0.615,0.873,0.922,1.31c-3.413,8.701-10.88,12.878-19.228,15.398c-3.214,0.97-7.443,0.631-10.582-0.65
			c-5.697-2.325-5.646-2.819-6.184,3.553c-0.791,9.353-3.915,17.474-11.321,23.647c-1.117,0.932-1.8,2.383-2.684,3.593
			c0.294,0.447,0.587,0.895,0.881,1.342c1.723-0.533,3.729-0.671,5.119-1.668c6.076-4.358,12.002-8.928,17.922-13.499
			c3.026-2.338,5.776-5.069,8.958-7.153c1.203-0.788,4.705-0.474,4.732-0.291c0.513,3.355,1.126,6.835,0.652,10.135
			c-0.195,1.355-2.858,2.417-4.479,3.491c-1.619,1.073-3.564,1.746-4.977,3.025c-8.254,7.484-13.252,17.078-16.618,27.468
			c-1.021,3.151-0.976,7.033-0.155,10.26c0.536,2.112,3.101,4.624,5.204,5.144c1.782,0.438,4.394-1.463,6.29-2.816
			C650.013,974.445,651.269,972.561,652.73,970.965z M1008.788,636.317c0.231,0.587,0.463,1.173,0.694,1.76
			c3.177-1.227,6.521-2.145,9.487-3.759c3.644-1.983,7.372-4.125,10.352-6.949c6.726-6.378,13.11-13.128,19.373-19.965
			c0.938-1.025,1.197-3.89,0.437-4.897c-0.705-0.937-3.454-1.164-4.849-0.594c-4.291,1.757-8.517,3.789-12.496,6.168
			c-25.009,14.951-49.692,30.467-74.961,44.963c-44.337,25.437-88.961,50.372-133.571,75.329
			c-32.841,18.372-65.764,36.602-98.807,54.609c-37.133,20.236-74.462,40.111-111.639,60.269c-3.623,1.965-6.926,4.628-10.061,7.334
			c-1.16,1.002-1.404,3.063-2.067,4.641c1.803,0.406,3.6,1.08,5.411,1.125c1.235,0.03,2.53-0.737,3.734-1.288
			c4.842-2.215,9.736-4.332,14.473-6.756c45.199-23.133,90.494-46.083,135.496-69.594c22.871-11.948,45.299-24.758,67.747-37.495
			c33.884-19.227,67.768-38.462,101.349-58.207c22.819-13.418,45.072-27.798,67.703-41.54
			C1000.326,639.205,1004.707,638.008,1008.788,636.317z M322.134,990.353c-0.492,0.037-0.984,0.074-1.477,0.111
			c-0.201,1.18-0.648,2.376-0.564,3.534c0.68,9.389,15.987,24.675,25.473,25.535c4.229,0.383,8.64-2.647,9.913-6.812
			c1.479-4.836,0.3-7.162-4.881-9.976c-0.999-0.542-1.905-1.355-2.671-2.209c-2.44-2.718-4.772-5.533-7.187-8.276
			c-3.913-4.446-5.699-4.258-8.403,0.843c-0.312,0.588-0.593,1.191-0.874,1.794c-1.543,3.309-3.348,3.337-5.454,0.479
			C324.754,993.676,323.428,992.025,322.134,990.353z M348.455,968.965c-2.622-2.76-4.587-4.828-6.552-6.896
			c-1.125,1.137-3.41,2.879-3.185,3.313c1.411,2.709,3.383,5.126,5.169,7.64C345.063,971.978,346.236,970.935,348.455,968.965z
			 M705.237,1039.164c-1.583,1.103-2.803,1.951-4.022,2.801c1.822,0.963,3.574,2.447,5.49,2.7c1.234,0.163,2.708-1.481,4.074-2.315
			C709.05,1041.355,707.32,1040.361,705.237,1039.164z M744.267,1037.807c0.057-1.017,0.113-2.033,0.171-3.049
			c-2.853-0.25-5.703-0.59-8.561-0.666c-0.525-0.015-1.601,1.156-1.507,1.576c0.177,0.791,0.974,1.992,1.592,2.042
			C738.715,1037.932,741.496,1037.807,744.267,1037.807z"/>
		<path fill-rule="evenodd" clip-rule="evenodd" fill="#FFFFFF" d="M775.934,520.703c-10.712,0-30.195-0.126-49.677,0.036
			c-18.857,0.157-32.311-10.001-44.205-22.944c-8.813-9.592-12.662-21.644-13.62-34.235c-1.489-19.581-2.627-39.245-2.596-58.872
			c0.037-23.658-5.545-45.358-17.716-65.632c-4.865-8.104-8.279-17.063-12.747-25.424c-3.49-6.53-1.705-11.971,2.649-16.948
			c6.579-7.52,13.165-15.063,20.19-22.156c11.135-11.243,14.239-24.318,10.529-39.455c-1.102-4.495-3.463-7.112-8.089-7.401
			c-4.866-0.304-10.112,2.618-11.242,6.58c-0.81,2.84-1.196,5.866-1.296,8.826c-0.152,4.488,0.011,8.996,0.215,13.487
			c0.328,7.215-1.031,13.146-6.809,18.743c-5.35,5.183-8.443,12.667-12.676,19.041c-1.923,2.896-4.008,5.732-6.356,8.285
			c-2.932,3.188-6.796,4.253-10.976,3.052c-4.025-1.157-5.987-4.469-6.178-8.286c-0.364-7.3-0.82-14.695-0.076-21.931
			c2.981-28.98,6.035-57.966,9.908-86.835c1.083-8.067,4.685-15.903,7.846-23.55c2.415-5.839,8.003-8.505,14.325-7.623
			c7.447,1.039,13.482-1.452,18.386-6.799c7.985-8.71,17.389-14.046,29.51-14.8c8.066-0.503,14.847-4.536,20.327-10.61
			c5.279-5.851,11.974-7.634,19.53-6.117c4.736,0.95,7.893,3.692,7.648,8.951c-0.188,4.025,1.542,4.836,5.433,5.709
			c4.627,1.037,9.33,3.725,12.953,6.894c13.765,12.039,27.264,24.397,40.532,36.984c5.405,5.128,10.016,11.104,14.875,16.789
			c0.93,1.088,1.965,2.666,1.883,3.95c-0.875,13.68,3.796,26.346,7.639,38.987c6.771,22.277,14.421,44.294,22.024,66.31
			c5.059,14.647,15.995,24.938,27.994,33.716c20.695,15.138,32.094,35.778,37.028,60.207c2.924,14.474,3.101,29.321-2.795,43.253
			c-2.476,5.85-7.158,10.731-10.523,16.245c-11.179,18.315-22.334,36.648-33.205,55.146c-2.195,3.735-4.503,5.562-8.938,5.695
			C826.657,518.603,805.684,519.534,775.934,520.703z M653.674,292.813c-5.589,4.336-7.895,10.889-4.888,15.806
			c2.982,4.878,6.884,9.333,10.988,13.354c5.897,5.777,9.229,5.527,14.509-0.746c6.005-7.135,11.662-14.563,17.459-21.872
			c17.745-22.38,40.045-36.799,69.017-39.694c11.271-1.126,22.524-2.426,33.771-3.776c1.324-0.159,2.548-1.149,3.818-1.754
			c-0.588-1.116-0.986-2.398-1.795-3.321c-5.707-6.516-11.451-12.999-17.292-19.394c-1.558-1.705-3.489-3.068-6.404-5.585
			c0,3.652-0.156,5.562,0.026,7.437c0.939,9.64-2.679,14.688-12.239,16.781c-10.505,2.302-20.559,0.37-30.265-3.667
			c-4.678-1.945-6.945-5.567-5.659-10.843c0.236-0.971,0.604-1.974,0.54-2.937c-0.083-1.226-0.546-2.426-0.845-3.637
			c-1.328,0.423-3.478,0.49-3.839,1.329c-1.466,3.404-2.697,6.985-3.385,10.62c-0.416,2.199,0.607,4.638,0.438,6.929
			c-0.093,1.263-1.094,3.145-2.094,3.462c-0.995,0.315-2.996-0.637-3.679-1.635c-1.387-2.024-1.879-4.676-3.322-6.642
			c-1.03-1.402-2.995-2.856-4.569-2.886c-1.237-0.023-3.125,1.865-3.666,3.303c-1.995,5.298-1.155,10.607,1.719,15.331
			c3.193,5.247,7.599,5.8,12.724,2.323c3.702-2.511,7.417-5.062,11.383-7.094c1.407-0.721,3.572,0.037,5.392,0.12
			c-1.004,1.53-1.706,3.434-3.061,4.532c-10.588,8.591-21.463,16.833-31.888,25.613c-3.696,3.112-6.665,3.29-10.112,0.427
			c-3.071-2.551-5.907-5.396-9.054-7.844c-5.193-4.039-8.517-4.046-11.858-0.388c-3.309,3.622-3.051,6.96,1.361,11.851
			c2.895,3.209,6.465,5.847,9.099,9.233c1.422,1.828,2.544,4.962,2.002,7.036c-1.401,5.362-9.107,10.254-13.869,9.672
			c-4.815-0.589-8.632-5.898-9.162-12.811c-0.127-1.659-0.026-3.342-0.223-4.99C654.623,295.389,654.146,294.36,653.674,292.813z
			 M732.058,517.209c25.138-1.981,50.198-4.596,73.857-14.041c7.983-3.187,15.523-7.542,23.086-11.691
			c2.807-1.539,4.618-4.655,2.502-7.64c-3.436-4.848-7.444-9.31-11.468-13.698c-0.729-0.795-2.688-0.462-4.079-0.65
			c-0.05,1.528-0.573,3.246-0.052,4.546c1.107,2.762,2.751,5.311,4.188,7.939c2.941,5.382,2.246,7.972-3.135,11.012
			c-1.584,0.896-3.286,1.649-5.019,2.203c-5.486,1.753-6.805,0.233-5.944-5.562c0.699-4.714,1.22-9.62,0.663-14.304
			c-0.474-3.982-2.905-7.595-7.55-8.299c-4.454-0.676-7.081,2.216-9.403,5.416c-2.547,3.511-2.535,7.108-0.205,10.718
			c2.078,3.219,4.361,6.318,6.247,9.646c2.742,4.84,1.23,8.684-4.233,9.751c-4.363,0.854-8.939,1.014-13.4,0.861
			c-5.201-0.178-6.267-2.713-3.674-7.284c1.719-3.03,3.646-6.022,4.806-9.272c1.865-5.227-1.965-11.675-7.51-13.417
			c-3.963-1.244-8.622,1.978-10.102,7.489c-0.716,2.668-0.712,5.572-0.725,8.371c-0.01,2.317,0.625,4.637,0.633,6.956
			c0.013,3.859-2.104,6.688-5.842,6.888c-4.399,0.236-9.181,0.31-13.223-1.142c-10.305-3.699-11.639-10.099-4.52-18.267
			c0.219-0.25,0.674-0.508,0.651-0.724c-0.195-1.838,0.202-4.419-0.85-5.367c-4.252-3.834-9.146-1.793-10.286,4.784
			c-1.788,10.323-2.805,20.781-4.071,31.19c-0.368,3.023,1.268,4.305,4.188,4.073C729.084,517.577,730.571,517.375,732.058,517.209z
			 M856.586,474.216c-0.021,0.008,1.13-0.082,1.693-0.704c3.751-4.143,8.848-8.007,7.331-14.415
			c-1.476-6.231-7.21-6.484-12.438-7.095c-1.255-0.147-2.399-1.245-3.595-1.906c0.779-1.184,1.319-2.678,2.38-3.5
			c5.279-4.09,9.371-3.732,16.435,0.525c1.751,1.056,4.812,2.007,6.116,1.182c1.482-0.938,2.734-4.24,2.222-5.959
			c-1.683-5.643-4.008-11.127-6.493-16.483c-1.442-3.11-4.283-6.246-7.761-4.509c-2.13,1.063-3.427,4.814-4.066,7.597
			c-0.94,4.088-1.857,8.31-6.221,9.424c-6.769,1.729-10.276,5.477-10.748,12.459c-0.214,3.165-1.796,5.311-5.661,4.412
			c-4.185-0.973-5.205,1.435-4.241,4.836c0.615,2.173,1.729,4.354,3.137,6.121c3.067,3.849,4.903,3.569,7.24-0.69
			c2.285-4.166,5.416-5.19,8.766-1.794C853.199,466.27,854.382,470.142,856.586,474.216z M745.167,183.718
			c-8.474-0.101-12.84,4.054-10.526,8.616c5.616,11.074,14.319,18.7,26.808,20.902c2.306,0.407,5.897-0.897,7.305-2.673
			c1.22-1.538,1.219-5.713-0.04-7.249c-4.55-5.55-9.572-10.81-15.001-15.502C750.98,185.452,746.99,184.55,745.167,183.718z
			 M725.319,461.381c-0.192-0.599-0.384-1.197-0.576-1.796c-3.454-0.986-6.891-2.044-10.368-2.943
			c-6.029-1.559-8.514,0.093-10.198,6.065c-0.691,2.453-1.599,5.22-3.313,6.939c-4.71,4.721-5.08,4.702-0.458,9.548
			c3.613,3.789,7.374,7.618,12.933,10.092c0-1.619,0.146-2.156-0.029-2.549c-0.402-0.901-0.925-1.757-1.465-2.589
			c-5.143-7.93-4.707-10.123,3.206-15.607c1.36-0.942,2.858-1.688,4.21-2.643C721.317,464.446,723.303,462.893,725.319,461.381z
			 M695.349,264.191c0.131-4.933-1.459-8.486-5.782-9.953c-3.759-1.275-6.855,0.407-9.02,3.553
			c-3.102,4.508,0.205,8.046,2.489,11.204c1.646,2.274,4.675,3.549,7.087,5.27c1.703-2.872,3.444-5.723,5.076-8.636
			C695.493,265.104,695.338,264.327,695.349,264.191z M753.934,232.918c-0.06,0.003-0.118,0.006-0.178,0.008
			c0.169,2.473,0.159,4.975,0.556,7.409c0.405,2.496,1.955,3.413,4.295,1.988c4.893-2.979,6.604-9.959,3.285-14.694
			c-1.3-1.854-3.546-3.046-5.36-4.539c-0.866,2.118-1.863,4.196-2.541,6.373C753.662,230.519,753.934,231.761,753.934,232.918z
			 M788.446,206.231c-2.374,1.201-3.732,1.888-5.092,2.575c0.702,1.234,1.108,2.896,2.161,3.623
			c3.261,2.248,6.667,4.348,10.232,6.056c1.214,0.582,3.065-0.168,4.627-0.31c-0.174-1.693,0.291-4.234-0.633-4.93
			C796.184,210.566,792.18,208.478,788.446,206.231z M698.414,187.05c1.051,1.779,1.5,3.41,2.548,4.028
			c0.78,0.461,2.93,0.02,3.438-0.724c1.91-2.799,3.58-5.807,4.921-8.918c0.348-0.807-0.531-2.772-1.396-3.288
			c-0.82-0.49-2.886-0.227-3.485,0.482C702.262,181.204,700.47,184.104,698.414,187.05z M745.322,244.985
			c1.244-6.219-0.956-10.221-3.381-14.109c-0.325-0.521-1.672-0.965-2.143-0.707c-0.727,0.398-1.633,1.498-1.547,2.186
			C738.833,236.975,740.148,241.292,745.322,244.985z"/>
		<path fill-rule="evenodd" clip-rule="evenodd" fill="#FFFFFF" d="M1043.156,585.013c-2.496,2-4.792,4.342-7.52,5.948
			c-30.13,17.744-60.144,35.696-90.55,52.956c-39.822,22.604-79.876,44.806-120.001,66.869
			c-42.75,23.507-85.805,46.461-128.525,70.021c-27.991,15.437-55.698,31.395-83.368,47.403
			c-6.455,3.735-12.577,8.242-18.198,13.144c-2.939,2.563-4.568,6.694-6.581,10.234c-1.369,2.409-1.952,5.355-3.618,7.492
			c-10.844,13.917-21.668,27.863-32.984,41.393c-3.999,4.78-9.085,8.803-14.18,12.469c-4.638,3.336-7.546,1.511-7.725-4.097
			c-0.289-9.026-3.015-11.031-11.095-6.798c-5.515,2.89-10.613,6.876-15.244,11.09c-9.168,8.345-19.157,15.218-29.993,21.326
			c-20.149,11.357-39.648,23.864-59.506,35.748c-8.85,5.296-17.861,10.329-26.924,15.254c-1.503,0.816-3.644,0.458-5.49,0.644
			c0.548-1.943,0.851-4.002,1.694-5.806c1.854-3.958,3.871-7.851,6.044-11.643c1.038-1.811,2.273-3.799,3.948-4.907
			c14.432-9.553,28.714-19.375,43.556-28.256c33.296-19.924,66.945-39.255,100.316-59.055c7.86-4.664,15.33-10.032,22.69-15.47
			c2.924-2.16,7.12-5.415,4.778-9.271c-2.374-3.907-6.779-0.803-9.901,0.563c-4.705,2.06-9.188,4.688-13.569,7.394
			c-1.599,0.988-3.483,2.746-3.765,4.402c-0.877,5.162-4.414,7.813-8.472,9.788c-18.546,9.023-36.854,18.651-55.876,26.551
			c-28.109,11.674-56.717,22.157-85.201,32.909c-4.144,1.563-8.758,1.985-13.199,2.626c-6.238,0.9-8.888,3.362-9.306,9.655
			c-0.265,3.984,0.225,8.044-0.299,11.98c-0.541,4.071-1.515,8.193-3.085,11.966c-0.627,1.507-3.362,2.922-5.132,2.914
			c-1.36-0.006-3.57-2.104-3.924-3.616c-1.997-8.563-7.096-15.339-11.996-22.277c-3.618-5.123-3.456-8.013,1.992-11.089
			c7.221-4.077,14.838-7.513,22.475-10.78c26.021-11.135,52.044-22.269,78.218-33.035c25.865-10.64,51.882-20.913,77.915-31.138
			c4.216-1.656,6.136-3.84,5.771-8.487c-0.437-5.536,2.925-9.489,6.952-12.618c12.572-9.766,26.157-16.275,42.677-17.494
			c8.902-0.656,17.968-4.898,26.104-9.157c37.466-19.606,74.865-39.365,111.847-59.865c53.164-29.47,105.894-59.724,158.915-89.451
			c22.219-12.458,44.579-24.678,67.125-36.53c15.757-8.282,31.852-15.943,47.983-23.478c4.604-2.15,9.972-2.604,14.779-4.397
			c2.352-0.878,4.276-2.979,6.29-4.652c1.201-0.998,2.006-2.859,3.321-3.274c8.876-2.798,17.835-5.332,26.789-7.877
			c0.682-0.194,1.528,0.191,2.298,0.308C1042.658,584.031,1042.907,584.522,1043.156,585.013z"/>
		<path fill-rule="evenodd" clip-rule="evenodd" fill="#FFFFFF" d="M652.73,970.965c-1.462,1.596-2.718,3.48-4.441,4.709
			c-1.896,1.354-4.508,3.255-6.29,2.816c-2.104-0.52-4.668-3.031-5.204-5.144c-0.82-3.227-0.866-7.108,0.155-10.26
			c3.366-10.39,8.364-19.983,16.618-27.468c1.412-1.279,3.357-1.952,4.977-3.025c1.62-1.074,4.283-2.136,4.479-3.491
			c0.474-3.3-0.14-6.779-0.652-10.135c-0.027-0.183-3.529-0.497-4.732,0.291c-3.182,2.084-5.932,4.815-8.958,7.153
			c-5.92,4.571-11.846,9.141-17.922,13.499c-1.39,0.997-3.396,1.135-5.119,1.668c-0.294-0.447-0.587-0.895-0.881-1.342
			c0.884-1.21,1.566-2.661,2.684-3.593c7.406-6.174,10.53-14.295,11.321-23.647c0.538-6.372,0.486-5.878,6.184-3.553
			c3.139,1.281,7.368,1.62,10.582,0.65c8.348-2.521,15.814-6.697,19.228-15.398c-0.307-0.437-0.614-0.873-0.922-1.31
			c-2.124,1.561-4.151,3.281-6.396,4.644c-3.097,1.88-6.38,6.016-10.05,2.365c-3.38-3.361-0.395-7.179,1.701-10.333
			c5.988-9.017,15.701-11.499,25.346-13.34c6.316-1.206,12.936-0.969,19.423-1.047c1.807-0.022,3.628,1.132,5.442,1.746
			c-0.983,1.602-1.591,3.802-3.018,4.697c-4.746,2.979-9.583,6.01-14.766,8.054c-6.731,2.655-9.555,11.396-5.201,17.289
			c3.06,4.142,5.515,0.09,8.959-0.464c0.274,1.844,0.377,3.559,0.8,5.189c1.535,5.914,2.749,11.961,4.89,17.655
			c2.569,6.83,7.862,10.478,15.404,10.598c2.314,0.036,4.647,0.466,6.924,0.942c5.508,1.151,6.356,2.547,5.293,8.221
			c-0.713,3.8,0.956,5.153,5.344,4.466c4.753-0.745,9.503-1.641,14.289-1.979c2.015-0.143,4.38,0.547,6.125,1.611
			c3.546,2.162,3.287,5.657-0.266,7.767c-0.714,0.424-1.847,0.604-2.132,1.206c-1.044,2.205-1.811,4.542-2.681,6.829
			c2.085,0.153,4.339,0.879,6.217,0.325c2.824-0.832,5.511-2.358,8.03-3.947c4.956-3.124,9.18-1.763,13.192,1.691
			c0.752,0.647,1.463,1.382,2.045,2.184c1.644,2.261,3.21,4.577,4.807,6.872c-2.146,1.222-4.529,2.164-6.387,3.729
			c-3.014,2.54-5.945,5.277-8.411,8.334c-1.854,2.298-0.858,4.261,2.071,5.288c1.379,0.482,2.533,1.604,3.789,2.437
			c-1.314,1.183-2.438,2.942-3.975,3.452c-9.143,3.033-18.201,6.838-27.618,8.424c-30.063,5.064-60.298,8.953-90.914,8.226
			c-1.332-0.031-2.68-0.006-3.99-0.202c-3.963-0.593-4.806-2.363-2.038-5.111c3.539-3.514,2.659-6.222-0.461-9.299
			c-5.667-5.588-5.515-6.654-0.605-12.863c2.976-3.764,5.641-7.806,8.098-11.929c0.881-1.478,0.743-3.561,1.07-5.367
			C653.701,971.486,653.216,971.226,652.73,970.965z M714.401,953.837c0.221,0.284,0.441,0.569,0.662,0.853
			c1.627-1.264,3.253-2.527,4.88-3.791c-1.484-1.499-2.829-4.08-4.479-4.292c-4.665-0.602-9.531-0.774-14.18-0.126
			c-8.264,1.152-12.113,7.778-9.581,15.697c0.4,1.252,1.638,2.237,2.487,3.346c0.978-0.985,2.369-1.797,2.866-2.984
			c4.284-10.22,4.235-10.239,15.365-8.936C713.082,953.681,713.742,953.76,714.401,953.837z M674.467,967.249
			c-0.801-2.087-0.982-3.235-1.603-4.052c-2.057-2.715-5.941-5.302-5.954-7.954c-0.013-2.628,3.892-5.219,5.909-7.95
			c0.604-0.818,0.644-2.055,0.941-3.1c-1.188-0.193-2.641-0.922-3.521-0.488c-3.689,1.814-7.422,3.682-10.741,6.079
			c-5.661,4.089-5.662,6.516-0.225,10.68c2.744,2.101,5.762,3.909,8.847,5.475C669.699,966.74,671.697,966.715,674.467,967.249z"/>
		<path fill-rule="evenodd" clip-rule="evenodd" fill="#FFFFFF" d="M1008.788,636.317c-4.081,1.69-8.462,2.888-12.194,5.153
			c-22.631,13.742-44.884,28.122-67.703,41.54c-33.581,19.745-67.465,38.98-101.349,58.207
			c-22.448,12.737-44.876,25.547-67.747,37.495c-45.002,23.511-90.297,46.461-135.496,69.594c-4.736,2.424-9.631,4.541-14.473,6.756
			c-1.204,0.551-2.499,1.318-3.734,1.288c-1.812-0.045-3.608-0.719-5.411-1.125c0.663-1.578,0.907-3.639,2.067-4.641
			c3.135-2.706,6.438-5.369,10.061-7.334c37.177-20.157,74.506-40.032,111.639-60.269c33.043-18.008,65.966-36.237,98.807-54.609
			c44.61-24.957,89.234-49.893,133.571-75.329c25.269-14.496,49.952-30.012,74.961-44.963c3.979-2.379,8.205-4.411,12.496-6.168
			c1.395-0.57,4.144-0.343,4.849,0.594c0.761,1.008,0.502,3.872-0.437,4.897c-6.263,6.837-12.647,13.587-19.373,19.965
			c-2.979,2.824-6.708,4.966-10.352,6.949c-2.966,1.614-6.311,2.532-9.487,3.759C1009.251,637.49,1009.02,636.904,1008.788,636.317z
			 M1014.139,629.447c7.207-0.553,17.354-8.207,17.261-12.724C1025.509,617.107,1015.283,624.459,1014.139,629.447z"/>
		<path fill-rule="evenodd" clip-rule="evenodd" fill="#FFFFFF" d="M322.134,990.353c1.294,1.673,2.62,3.323,3.875,5.024
			c2.106,2.857,3.911,2.829,5.454-0.479c0.281-0.603,0.563-1.206,0.874-1.794c2.704-5.101,4.49-5.289,8.403-0.843
			c2.414,2.743,4.746,5.559,7.187,8.276c0.766,0.854,1.672,1.667,2.671,2.209c5.181,2.813,6.359,5.14,4.881,9.976
			c-1.273,4.164-5.684,7.194-9.913,6.812c-9.485-0.86-24.793-16.146-25.473-25.535c-0.084-1.158,0.363-2.354,0.564-3.534
			C321.149,990.427,321.642,990.39,322.134,990.353z"/>
		<path fill-rule="evenodd" clip-rule="evenodd" fill="#FFFFFF" d="M348.455,968.965c-2.219,1.97-3.393,3.013-4.567,4.056
			c-1.786-2.514-3.758-4.931-5.169-7.64c-0.226-0.434,2.06-2.176,3.185-3.313C343.868,964.137,345.833,966.205,348.455,968.965z"/>
		<path fill-rule="evenodd" clip-rule="evenodd" fill="#FFFFFF" d="M705.237,1039.164c2.083,1.197,3.813,2.191,5.542,3.186
			c-1.366,0.834-2.84,2.479-4.074,2.315c-1.916-0.253-3.668-1.737-5.49-2.7C702.435,1041.115,703.654,1040.267,705.237,1039.164z"/>
		<path fill-rule="evenodd" clip-rule="evenodd" fill="#FFFFFF" d="M744.267,1037.807c-2.771,0-5.552,0.125-8.305-0.097
			c-0.618-0.05-1.415-1.251-1.592-2.042c-0.094-0.42,0.981-1.591,1.507-1.576c2.857,0.076,5.708,0.416,8.561,0.666
			C744.38,1035.773,744.323,1036.79,744.267,1037.807z"/>
		<path fill-rule="evenodd" clip-rule="evenodd" d="M653.674,292.813c0.473,1.547,0.949,2.575,1.077,3.646
			c0.196,1.648,0.096,3.331,0.223,4.99c0.53,6.912,4.347,12.222,9.162,12.811c4.762,0.582,12.468-4.31,13.869-9.672
			c0.542-2.074-0.58-5.208-2.002-7.036c-2.634-3.387-6.204-6.024-9.099-9.233c-4.412-4.891-4.67-8.229-1.361-11.851
			c3.342-3.658,6.665-3.651,11.858,0.388c3.146,2.448,5.982,5.293,9.054,7.844c3.447,2.863,6.416,2.686,10.112-0.427
			c10.425-8.78,21.3-17.022,31.888-25.613c1.354-1.099,2.057-3.002,3.061-4.532c-1.819-0.083-3.984-0.841-5.392-0.12
			c-3.966,2.032-7.681,4.583-11.383,7.094c-5.125,3.477-9.53,2.924-12.724-2.323c-2.874-4.724-3.714-10.033-1.719-15.331
			c0.541-1.438,2.429-3.326,3.666-3.303c1.574,0.029,3.539,1.483,4.569,2.886c1.443,1.966,1.936,4.617,3.322,6.642
			c0.683,0.998,2.684,1.95,3.679,1.635c1-0.317,2.001-2.199,2.094-3.462c0.17-2.291-0.854-4.729-0.438-6.929
			c0.688-3.635,1.919-7.216,3.385-10.62c0.361-0.839,2.511-0.906,3.839-1.329c0.299,1.211,0.762,2.411,0.845,3.637
			c0.064,0.963-0.304,1.966-0.54,2.937c-1.286,5.275,0.981,8.897,5.659,10.843c9.706,4.037,19.76,5.969,30.265,3.667
			c9.561-2.094,13.179-7.142,12.239-16.781c-0.183-1.875-0.026-3.784-0.026-7.437c2.915,2.517,4.847,3.88,6.404,5.585
			c5.841,6.395,11.585,12.878,17.292,19.394c0.809,0.923,1.207,2.205,1.795,3.321c-1.271,0.604-2.494,1.595-3.818,1.754
			c-11.246,1.351-22.5,2.65-33.771,3.776c-28.972,2.896-51.271,17.314-69.017,39.694c-5.797,7.31-11.454,14.737-17.459,21.872
			c-5.28,6.273-8.611,6.523-14.509,0.746c-4.104-4.021-8.006-8.477-10.988-13.354C645.779,303.702,648.085,297.149,653.674,292.813z
			"/>
		<path fill-rule="evenodd" clip-rule="evenodd" d="M732.06,517.21c-1.488,0.165-2.976,0.367-4.47,0.485
			c-2.92,0.231-4.556-1.05-4.188-4.073c1.267-10.409,2.283-20.867,4.071-31.19c1.14-6.577,6.034-8.618,10.286-4.784
			c1.052,0.948,0.654,3.529,0.85,5.367c0.022,0.216-0.433,0.474-0.651,0.724c-7.119,8.168-5.785,14.567,4.52,18.267
			c4.042,1.451,8.823,1.378,13.223,1.142c3.738-0.2,5.854-3.028,5.842-6.888c-0.008-2.319-0.643-4.639-0.633-6.956
			c0.013-2.799,0.009-5.703,0.725-8.371c1.479-5.512,6.139-8.733,10.102-7.489c5.545,1.742,9.375,8.19,7.51,13.417
			c-1.16,3.25-3.087,6.242-4.806,9.272c-2.593,4.571-1.527,7.106,3.674,7.284c4.461,0.152,9.037-0.008,13.4-0.861
			c5.464-1.067,6.976-4.911,4.233-9.751c-1.886-3.327-4.169-6.427-6.247-9.646c-2.33-3.609-2.342-7.207,0.205-10.718
			c2.322-3.2,4.949-6.092,9.403-5.416c4.645,0.704,7.076,4.316,7.55,8.299c0.557,4.684,0.036,9.59-0.663,14.304
			c-0.86,5.795,0.458,7.314,5.944,5.562c1.732-0.554,3.435-1.308,5.019-2.203c5.381-3.04,6.076-5.63,3.135-11.012
			c-1.438-2.629-3.081-5.178-4.188-7.939c-0.521-1.3,0.002-3.018,0.052-4.546c1.392,0.188,3.351-0.145,4.079,0.65
			c4.023,4.389,8.032,8.851,11.468,13.698c2.116,2.984,0.305,6.101-2.502,7.64c-7.563,4.149-15.103,8.505-23.086,11.691
			C782.256,512.613,757.195,515.228,732.06,517.21z"/>
		<path fill-rule="evenodd" clip-rule="evenodd" d="M856.586,474.216c-2.204-4.074-3.387-7.946-5.905-10.5
			c-3.35-3.396-6.48-2.372-8.766,1.794c-2.337,4.26-4.173,4.539-7.24,0.69c-1.407-1.767-2.521-3.948-3.137-6.121
			c-0.964-3.401,0.057-5.809,4.241-4.836c3.865,0.898,5.447-1.247,5.661-4.412c0.472-6.982,3.979-10.73,10.748-12.459
			c4.363-1.114,5.28-5.336,6.221-9.424c0.64-2.782,1.937-6.533,4.066-7.597c3.478-1.737,6.318,1.398,7.761,4.509
			c2.485,5.356,4.811,10.841,6.493,16.483c0.513,1.719-0.739,5.021-2.222,5.959c-1.305,0.825-4.365-0.126-6.116-1.182
			c-7.063-4.258-11.155-4.615-16.435-0.525c-1.061,0.822-1.601,2.316-2.38,3.5c1.195,0.661,2.34,1.759,3.595,1.906
			c5.229,0.61,10.963,0.863,12.438,7.095c1.517,6.408-3.58,10.272-7.331,14.415C857.716,474.134,856.565,474.224,856.586,474.216z"
			/>
		<path fill-rule="evenodd" clip-rule="evenodd" d="M745.167,183.718c1.823,0.832,5.813,1.734,8.545,4.095
			c5.429,4.692,10.451,9.952,15.001,15.502c1.259,1.536,1.26,5.711,0.04,7.249c-1.407,1.775-4.999,3.08-7.305,2.673
			c-12.488-2.202-21.191-9.828-26.808-20.902C732.327,187.771,736.693,183.617,745.167,183.718z"/>
		<path fill-rule="evenodd" clip-rule="evenodd" d="M725.319,461.381c-2.017,1.512-4.002,3.065-6.06,4.518
			c-1.352,0.954-2.85,1.7-4.21,2.643c-7.913,5.484-8.349,7.678-3.206,15.607c0.54,0.832,1.063,1.688,1.465,2.589
			c0.176,0.393,0.029,0.93,0.029,2.549c-5.559-2.474-9.319-6.303-12.933-10.092c-4.622-4.846-4.252-4.827,0.458-9.548
			c1.715-1.72,2.622-4.486,3.313-6.939c1.685-5.973,4.169-7.624,10.198-6.065c3.478,0.899,6.914,1.957,10.368,2.943
			C724.936,460.184,725.127,460.782,725.319,461.381z"/>
		<path fill-rule="evenodd" clip-rule="evenodd" d="M695.349,264.191c-0.011,0.136,0.145,0.912-0.149,1.438
			c-1.632,2.913-3.373,5.764-5.076,8.636c-2.412-1.721-5.441-2.995-7.087-5.27c-2.284-3.158-5.591-6.696-2.489-11.204
			c2.164-3.146,5.261-4.828,9.02-3.553C693.89,255.705,695.479,259.259,695.349,264.191z"/>
		<path fill-rule="evenodd" clip-rule="evenodd" d="M753.934,232.918c0-1.157-0.271-2.399,0.057-3.455
			c0.678-2.177,1.675-4.255,2.541-6.373c1.814,1.493,4.061,2.685,5.36,4.539c3.319,4.735,1.607,11.716-3.285,14.694
			c-2.34,1.425-3.89,0.508-4.295-1.988c-0.396-2.435-0.387-4.937-0.556-7.409C753.815,232.924,753.874,232.921,753.934,232.918z"/>
		<path fill-rule="evenodd" clip-rule="evenodd" d="M788.446,206.231c3.733,2.246,7.737,4.335,11.296,7.015
			c0.924,0.695,0.459,3.236,0.633,4.93c-1.562,0.142-3.413,0.892-4.627,0.31c-3.565-1.708-6.972-3.808-10.232-6.056
			c-1.053-0.727-1.459-2.389-2.161-3.623C784.714,208.119,786.072,207.433,788.446,206.231z"/>
		<path fill-rule="evenodd" clip-rule="evenodd" d="M698.414,187.05c2.056-2.946,3.848-5.846,6.025-8.419
			c0.6-0.709,2.665-0.973,3.485-0.482c0.864,0.516,1.743,2.481,1.396,3.288c-1.341,3.111-3.011,6.119-4.921,8.918
			c-0.508,0.743-2.657,1.185-3.438,0.724C699.914,190.46,699.465,188.829,698.414,187.05z"/>
		<path fill-rule="evenodd" clip-rule="evenodd" d="M745.322,244.985c-5.174-3.693-6.489-8.011-7.07-12.631
			c-0.086-0.688,0.82-1.787,1.547-2.186c0.471-0.258,1.817,0.186,2.143,0.707C744.366,234.765,746.566,238.767,745.322,244.985z"/>
		<path fill-rule="evenodd" clip-rule="evenodd" d="M714.401,953.837c-0.659-0.077-1.319-0.156-1.979-0.233
			c-11.13-1.304-11.081-1.284-15.365,8.936c-0.497,1.188-1.889,1.999-2.866,2.984c-0.85-1.108-2.087-2.094-2.487-3.346
			c-2.532-7.919,1.317-14.545,9.581-15.697c4.648-0.648,9.515-0.476,14.18,0.126c1.649,0.212,2.994,2.793,4.479,4.292
			c-1.627,1.264-3.253,2.527-4.88,3.791C714.843,954.406,714.622,954.121,714.401,953.837z"/>
		<path fill-rule="evenodd" clip-rule="evenodd" d="M674.467,967.249c-2.77-0.534-4.768-0.509-6.347-1.311
			c-3.085-1.565-6.103-3.374-8.847-5.475c-5.438-4.164-5.437-6.591,0.225-10.68c3.319-2.397,7.052-4.265,10.741-6.079
			c0.881-0.434,2.333,0.295,3.521,0.488c-0.298,1.045-0.337,2.281-0.941,3.1c-2.018,2.731-5.922,5.322-5.909,7.95
			c0.013,2.652,3.897,5.239,5.954,7.954C673.484,964.014,673.666,965.162,674.467,967.249z"/>
		<path fill-rule="evenodd" clip-rule="evenodd" d="M1014.139,629.447c1.145-4.988,11.37-12.34,17.261-12.724
			C1031.492,621.24,1021.346,628.895,1014.139,629.447z"/>
	</g>
</g>
</svg>
