<?xml version="1.0" encoding="utf-8"?>
<!-- Generator: Adobe Illustrator 16.0.3, SVG Export Plug-In . SVG Version: 6.00 Build 0)  -->
<!DOCTYPE svg PUBLIC "-//W3C//DTD SVG 1.1//EN" "http://www.w3.org/Graphics/SVG/1.1/DTD/svg11.dtd">
<svg version="1.1" id="EDUCATION_final_xA0_Image_1_"
	 xmlns="http://www.w3.org/2000/svg" xmlns:xlink="http://www.w3.org/1999/xlink" x="0px" y="0px" width="1200px" height="1200px"
	 viewBox="0 0 1200 1200" enable-background="new 0 0 1200 1200" xml:space="preserve">
<g>
	<g>
		<path fill-rule="evenodd" clip-rule="evenodd" d="M1,1201C1,801,1,401,1,1c400,0,800,0,1200,0c0,400,0,800,0,1200
			C801,1201,401,1201,1,1201z M601.518,1170.543c163.989,0,327.978-0.056,491.967,0.06c24.986,0.017,44.724-10.145,60.034-29.339
			c16.127-20.217,22.486-43.712,22.481-69.276c-0.035-168.323-0.018-336.646-0.018-504.968
			c-0.001-143.823-0.024-287.646,0.026-431.47c0.007-19.306-3.576-37.77-13.009-54.684c-14.865-26.654-36.443-43.679-68.222-43.689
			C766.135,37.073,437.49,37.11,108.847,37.12c-22.709,0-41.322,9.137-56.055,26.088c-18.1,20.824-25.143,45.544-25.138,72.785
			c0.055,311.978,0.039,623.956,0.022,935.935c0,12.55,1.434,24.84,5.219,36.873c12.797,40.683,41.244,61.742,83.657,61.742
			C278.207,1170.543,439.862,1170.543,601.518,1170.543z"/>
		<path fill-rule="evenodd" clip-rule="evenodd" fill="#FFFFFF" d="M601.518,1170.543c-161.655,0-323.311,0-484.966,0
			c-42.413,0-70.859-21.06-83.657-61.742c-3.785-12.033-5.219-24.323-5.219-36.873c0.016-311.979,0.032-623.957-0.022-935.935
			c-0.005-27.241,7.039-51.961,25.138-72.785C67.525,46.257,86.137,37.12,108.847,37.12c328.644-0.01,657.288-0.047,985.932,0.057
			c31.778,0.011,53.356,17.035,68.222,43.689c9.433,16.914,13.016,35.378,13.009,54.684c-0.051,143.823-0.027,287.646-0.026,431.47
			c0,168.322-0.018,336.645,0.018,504.968c0.005,25.564-6.354,49.06-22.481,69.276c-15.311,19.194-35.048,29.355-60.034,29.339
			C929.495,1170.487,765.507,1170.543,601.518,1170.543z M112.182,322.392c-0.484,4.398-0.919,8.535-1.398,12.667
			c-6.213,53.6-12.467,107.193-18.642,160.797c-5.507,47.814-10.893,95.644-16.399,143.458
			c-5.83,50.626-11.755,101.24-17.607,151.864c-5.986,51.78-11.766,103.587-18.071,155.329c-0.986,8.089-0.263,14.467,6.394,19.772
			c3.087,2.46,5.661,5.674,8.064,8.851c2.455,3.246,5.38,4.227,9.38,4.275c51.656,0.626,103.31,1.443,154.964,2.157
			c92.313,1.276,184.627,2.52,276.941,3.757c6.574,0.089,13.15,0.012,20.956,0.012c-4.704,4.283-8.547,7.17-11.622,10.722
			c-5.011,5.783-4.525,11.755,1.201,16.684c5.251,4.52,11.073,7.482,18.507,7.259c49.138-1.479,98.28-2.876,147.43-3.862
			c7.804-0.157,14.515-2.19,20.319-6.808c3.504-2.788,7.228-6.43,8.55-10.446c0.945-2.869-1.935-6.999-3.151-10.697
			c0.862,0,2.476-0.02,4.089,0.003c72.65,1.009,145.301,2.021,217.951,3.033c70.151,0.977,140.303,1.973,210.455,2.839
			c2.224,0.027,5.216-0.598,6.572-2.084c6.957-7.627,13.564-15.58,20.108-23.571c1.001-1.222,1.603-3.304,1.421-4.876
			c-1.49-12.901-3.198-25.777-4.861-38.659c-6.204-48.057-12.449-96.109-18.618-144.171c-6.168-48.063-12.234-96.139-18.402-144.201
			c-6.168-48.062-12.42-96.113-18.608-144.173c-5.954-46.242-11.854-92.492-17.827-138.732c-1.075-8.32-1.183-8.371-9.862-8.449
			c-8.953-0.081-17.908-0.018-27.492-0.018c-3.282-26.069-6.427-51.052-9.582-76.107c-6.571,2.203-13.365,4.481-20.622,6.914
			c1.614,1,2.972,1.855,4.344,2.688c1.381,0.837,2.775,1.651,4.185,2.488c-6.129,9.07-5.753,8.998-4.197,17.161
			c9.097,47.733,18.419,95.429,26.857,143.279c8.701,49.342,16.594,98.827,24.625,148.285
			c7.632,46.996,15.073,94.023,22.437,141.062c6.926,44.245,13.676,88.517,20.431,132.787c3.566,23.371,6.943,46.771,10.501,70.143
			c0.512,3.365-0.2,5.418-3.521,7.076c-16.824,8.401-34.287,11.32-52.837,7.379c-17.682-3.757-33.527-11.793-49.011-20.662
			c-22.676-12.99-44.963-26.69-67.951-39.096c-27.753-14.976-57.364-24.895-88.865-28.447c-37.001-4.173-73.082,0.616-108.51,11.497
			c-43.306,13.301-83.058,34.012-121.241,58.012c-1.458,0.917-2.971,1.747-5.156,3.025c-1.425-204.094-2.843-407.181-4.264-610.789
			c-4.273,0-7.976,0-10.556,0c0-3.594,0.494-6.699-0.118-9.568c-0.862-4.039-2.401-7.958-3.896-11.835
			c-21.612-56.045-59.162-95.489-118.098-112.005c-39.583-11.094-79.539-8.991-119.309-0.911
			c-73.52,14.936-140.082,47.046-204.571,84.029c-3.006,1.724-5.784,5.455-6.729,8.8c-1.611,5.698-1.648,11.837-2.409,17.783
			c-1.048,8.187-2.155,16.367-3.201,24.282C138.239,322.392,125.457,322.392,112.182,322.392z M920.055,236.816
			c-1.787-1.896-2.349-2.688-3.086-3.246c-11.807-8.944-23.284-18.376-35.525-26.684c-36.995-25.104-75.976-27.651-116.584-9.229
			c-28.704,13.021-53.354,31.886-76.632,52.729c-8.604,7.703-16.832,15.825-25.231,23.757
			C742.739,223.531,827.001,205.225,920.055,236.816z M940.799,243.122c-0.141,0.22-0.281,0.44-0.422,0.66
			c16.998,9.777,34.239,19.164,50.872,29.527c6.429,4.006,12.247,3.037,18.549,2.406c0.208-0.629,0.415-1.257,0.623-1.886
			C987.213,263.594,964.006,253.358,940.799,243.122z"/>
		<path fill-rule="evenodd" clip-rule="evenodd" d="M112.182,322.392c13.274,0,26.057,0,39.476,0
			c1.046-7.915,2.153-16.096,3.201-24.282c0.761-5.946,0.797-12.085,2.409-17.783c0.946-3.345,3.724-7.076,6.729-8.8
			c64.489-36.983,131.051-69.094,204.571-84.029c39.77-8.08,79.726-10.183,119.309,0.911
			c58.936,16.516,96.485,55.96,118.098,112.005c1.495,3.877,3.034,7.796,3.896,11.835c0.612,2.869,0.118,5.975,0.118,9.568
			c2.58,0,6.282,0,10.556,0c1.421,203.608,2.839,406.695,4.264,610.789c2.186-1.278,3.698-2.108,5.156-3.025
			c38.184-24,77.936-44.711,121.241-58.012c35.428-10.881,71.509-15.67,108.51-11.497c31.501,3.553,61.112,13.472,88.865,28.447
			c22.988,12.405,45.275,26.105,67.951,39.096c15.483,8.869,31.329,16.905,49.011,20.662c18.55,3.941,36.013,1.022,52.837-7.379
			c3.32-1.658,4.032-3.711,3.521-7.076c-3.558-23.372-6.935-46.771-10.501-70.143c-6.755-44.271-13.505-88.542-20.431-132.787
			c-7.363-47.038-14.805-94.065-22.437-141.062c-8.031-49.458-15.924-98.943-24.625-148.285
			c-8.438-47.851-17.761-95.546-26.857-143.279c-1.556-8.163-1.932-8.091,4.197-17.161c-1.409-0.837-2.804-1.651-4.185-2.488
			c-1.372-0.832-2.729-1.688-4.344-2.688c7.257-2.433,14.051-4.711,20.622-6.914c3.155,25.056,6.3,50.038,9.582,76.107
			c9.584,0,18.539-0.063,27.492,0.018c8.68,0.078,8.787,0.129,9.862,8.449c5.973,46.24,11.873,92.49,17.827,138.732
			c6.188,48.06,12.44,96.111,18.608,144.173c6.168,48.063,12.234,96.139,18.402,144.201c6.169,48.062,12.414,96.114,18.618,144.171
			c1.663,12.882,3.371,25.758,4.861,38.659c0.182,1.572-0.42,3.654-1.421,4.876c-6.544,7.991-13.151,15.944-20.108,23.571
			c-1.356,1.486-4.349,2.111-6.572,2.084c-70.152-0.866-140.304-1.862-210.455-2.839c-72.65-1.012-145.301-2.024-217.951-3.033
			c-1.613-0.022-3.227-0.003-4.089-0.003c1.217,3.698,4.097,7.828,3.151,10.697c-1.322,4.017-5.046,7.658-8.55,10.446
			c-5.805,4.617-12.516,6.65-20.319,6.808c-49.149,0.986-98.292,2.383-147.43,3.862c-7.434,0.224-13.256-2.739-18.507-7.259
			c-5.727-4.929-6.212-10.9-1.201-16.684c3.075-3.552,6.918-6.438,11.622-10.722c-7.806,0-14.382,0.077-20.956-0.012
			c-92.313-1.237-184.628-2.48-276.941-3.757c-51.655-0.714-103.309-1.531-154.964-2.157c-4-0.049-6.925-1.029-9.38-4.275
			c-2.403-3.177-4.977-6.391-8.064-8.851c-6.657-5.306-7.38-11.684-6.394-19.772c6.305-51.742,12.085-103.549,18.071-155.329
			c5.852-50.624,11.777-101.238,17.607-151.864c5.506-47.814,10.892-95.644,16.399-143.458
			c6.175-53.604,12.428-107.197,18.642-160.797C111.263,330.927,111.698,326.79,112.182,322.392z M598.457,943.515
			c1.626,1.101,3.252,2.202,5.112,3.462c2.475-1.706,5-3.448,7.524-5.189c-0.13-0.345-0.26-0.689-0.39-1.034
			c-4.095,0.942-8.189,1.885-12.284,2.827c0.201-1.797,0.566-3.592,0.579-5.391c0.871-120.306,1.728-240.612,2.554-360.919
			c0.571-83.315,1.079-166.631,1.736-249.945c0.018-2.241,1.427-4.471,2.188-6.705c0.499,0.075,0.998,0.15,1.497,0.226
			c-0.371-0.735-0.705-1.493-1.118-2.204c-14.221-24.431-32.29-45.658-53.716-64.021c-34.114-29.235-73.337-47.411-117.938-53.451
			c-38.943-5.274-77.092-0.614-114.572,10.394c-51.561,15.143-98.316,40.139-142.491,70.273c-1.934,1.318-3.482,4.068-4.024,6.425
			c-5.522,23.994-11.401,47.93-16.026,72.102c-12.446,65.053-24.754,130.138-36.282,195.357
			c-7.705,43.594-14.486,87.367-20.746,131.193c-5.578,39.055-10.605,78.222-14.48,117.477c-2.696,27.312-3.528,54.845-4.163,82.302
			c-0.235,10.167,2.058,20.485,4.083,30.556c0.619,3.077,3.645,7.042,6.489,8.083c22.94,8.395,46.458,11.081,70.675,5.989
			c24.335-5.115,45.989-16.282,67.129-28.748c23.224-13.695,46.11-28.009,69.765-40.913c23.878-13.026,49.564-21.026,76.971-22.74
			c31.421-1.965,61.223,4.705,90.035,16.667c41.496,17.229,77.823,42.695,112.39,70.907
			C585.636,931.945,591.954,937.841,598.457,943.515z"/>
		<path fill-rule="evenodd" clip-rule="evenodd" d="M920.055,236.816c-93.054-31.592-177.315-13.285-257.059,37.327
			c8.399-7.932,16.628-16.054,25.231-23.757c23.278-20.844,47.928-39.708,76.632-52.729c40.608-18.422,79.589-15.875,116.584,9.229
			c12.241,8.308,23.719,17.739,35.525,26.684C917.706,234.129,918.268,234.92,920.055,236.816z"/>
		<path fill-rule="evenodd" clip-rule="evenodd" d="M940.799,243.122c23.207,10.236,46.414,20.472,69.622,30.708
			c-0.208,0.629-0.415,1.257-0.623,1.886c-6.302,0.631-12.12,1.6-18.549-2.406c-16.633-10.363-33.874-19.75-50.872-29.527
			C940.518,243.563,940.658,243.342,940.799,243.122z"/>
		<path fill-rule="evenodd" clip-rule="evenodd" fill="#FFFFFF" d="M598.438,943.531c-6.484-5.69-12.803-11.586-19.482-17.038
			c-34.566-28.212-70.894-53.679-112.39-70.907c-28.813-11.962-58.614-18.632-90.035-16.667
			c-27.407,1.714-53.093,9.714-76.971,22.74c-23.655,12.904-46.541,27.218-69.765,40.913c-21.14,12.466-42.794,23.633-67.129,28.748
			c-24.218,5.092-47.735,2.405-70.675-5.989c-2.845-1.041-5.871-5.006-6.489-8.083c-2.025-10.07-4.318-20.389-4.083-30.556
			c0.635-27.457,1.467-54.99,4.163-82.302c3.875-39.255,8.902-78.422,14.48-117.477c6.259-43.826,13.041-87.6,20.746-131.193
			c11.527-65.22,23.836-130.305,36.282-195.357c4.625-24.172,10.504-48.107,16.026-72.102c0.542-2.356,2.091-5.106,4.024-6.425
			c44.175-30.135,90.931-55.131,142.491-70.273c37.48-11.008,75.629-15.668,114.572-10.394
			c44.601,6.04,83.823,24.216,117.938,53.451c21.426,18.362,39.495,39.59,53.716,64.021c0.413,0.711,0.747,1.469,1.118,2.204
			c-0.499-0.075-0.998-0.15-1.497-0.226c-0.761,2.234-2.17,4.464-2.188,6.705c-0.657,83.314-1.165,166.63-1.736,249.945
			c-0.826,120.307-1.683,240.613-2.554,360.919c-0.013,1.799-0.378,3.594-0.579,5.391L598.438,943.531z"/>
		<path fill-rule="evenodd" clip-rule="evenodd" fill="#FFFFFF" d="M598.42,943.58c4.095-0.942,8.189-1.885,12.284-2.827
			c0.13,0.345,0.26,0.689,0.39,1.034c-2.524,1.741-5.05,3.483-7.524,5.189c-1.86-1.26-3.486-2.361-5.122-3.453
			C598.438,943.531,598.42,943.58,598.42,943.58z"/>
	</g>
</g>
</svg>
