<?xml version="1.0" encoding="utf-8"?>
<!-- Generator: Adobe Illustrator 16.0.3, SVG Export Plug-In . SVG Version: 6.00 Build 0)  -->
<!DOCTYPE svg PUBLIC "-//W3C//DTD SVG 1.1//EN" "http://www.w3.org/Graphics/SVG/1.1/DTD/svg11.dtd">
<svg version="1.1" id="Expand_Tool_xA0_Image_1_" xmlns="http://www.w3.org/2000/svg" xmlns:xlink="http://www.w3.org/1999/xlink"
	 x="0px" y="0px" width="864px" height="720px" viewBox="0 0 864 720" enable-background="new 0 0 864 720" xml:space="preserve">
<g>
	<g>
		<path fill-rule="evenodd" clip-rule="evenodd" fill="#FFFFFF" d="M865,721c-288,0-576,0-864,0C1,481,1,241,1,1c288,0,576,0,864,0
			C865,241,865,481,865,721z M429.919,204.157c115.989,0,231.978,0.013,347.967-0.01c23.968-0.005,41.233-17.322,41.263-41.32
			c0.036-29.497,0.033-58.994,0.002-88.491c-0.026-24.287-17.225-41.48-41.602-41.482c-231.811-0.019-463.622-0.018-695.433-0.001
			c-23.962,0.002-41.233,17.326-41.264,41.318c-0.038,29.498-0.021,58.995,0.012,88.492c0.003,2.656,0.019,5.363,0.501,7.959
			c3.766,20.244,19.825,33.521,40.587,33.525C197.941,204.169,313.93,204.157,429.919,204.157z M431.533,691.157
			c0-0.667,0-1.333,0-2c115.654,0,231.309,0.021,346.962-0.018c23.248-0.008,40.61-17.544,40.65-40.925
			c0.05-29.831,0.023-59.663-0.01-89.494c-0.003-2.488-0.057-5.025-0.52-7.457c-3.853-20.256-19.813-33.448-40.684-33.398
			c-81.658,0.198-163.315,0.501-244.974,0.733c-149.151,0.427-298.303,0.832-447.455,1.242
			c-24.373,0.066-41.625,17.185-41.654,41.443c-0.035,29.331-0.022,58.663,0.014,87.994c0.003,2.822,0.011,5.7,0.53,8.456
			c3.812,20.244,19.841,33.41,40.676,33.414C200.558,691.168,316.046,691.157,431.533,691.157z M433.49,274.843
			c-115.822,0-231.645-0.014-347.467,0.012c-23.704,0.005-41.125,17.332-41.167,40.909c-0.054,29.663-0.051,59.327-0.001,88.991
			c0.041,24.271,17.293,41.396,41.689,41.396c230.978,0.011,461.955,0.011,692.934,0c24.382-0.002,41.645-17.169,41.672-41.416
			c0.033-29.497,0.021-58.994-0.014-88.491c-0.003-2.655-0.028-5.363-0.519-7.957c-3.863-20.421-19.874-33.432-41.16-33.436
			C664.135,274.832,548.813,274.843,433.49,274.843z"/>
		<path fill-rule="evenodd" clip-rule="evenodd" d="M429.919,204.157c-115.989,0-231.978,0.012-347.967-0.01
			c-20.763-0.004-36.822-13.281-40.587-33.525c-0.483-2.596-0.498-5.303-0.501-7.959c-0.033-29.497-0.05-58.994-0.012-88.492
			c0.031-23.992,17.302-41.316,41.264-41.318c231.811-0.017,463.623-0.018,695.433,0.001c24.377,0.002,41.575,17.195,41.602,41.482
			c0.031,29.497,0.034,58.994-0.002,88.491c-0.029,23.998-17.295,41.315-41.263,41.32
			C661.896,204.17,545.908,204.157,429.919,204.157z"/>
		<path fill-rule="evenodd" clip-rule="evenodd" d="M431.533,691.157c-115.487,0-230.976,0.011-346.463-0.009
			c-20.835-0.004-36.864-13.17-40.676-33.414c-0.519-2.756-0.526-5.634-0.53-8.456c-0.036-29.331-0.048-58.663-0.014-87.994
			c0.029-24.259,17.281-41.377,41.654-41.443c149.151-0.41,298.303-0.815,447.455-1.242c81.658-0.232,163.315-0.535,244.974-0.733
			c20.871-0.05,36.831,13.143,40.684,33.398c0.463,2.432,0.517,4.969,0.52,7.457c0.033,29.831,0.06,59.663,0.01,89.494
			c-0.04,23.381-17.402,40.917-40.65,40.925c-115.653,0.038-231.308,0.018-346.962,0.018
			C431.533,689.824,431.533,690.49,431.533,691.157z"/>
		<path fill-rule="evenodd" clip-rule="evenodd" d="M433.49,274.843c115.322,0,230.645-0.011,345.967,0.009
			c21.286,0.004,37.297,13.015,41.16,33.436c0.49,2.594,0.516,5.302,0.519,7.957c0.034,29.497,0.047,58.994,0.014,88.491
			c-0.027,24.247-17.29,41.414-41.672,41.416c-230.979,0.011-461.956,0.011-692.934,0c-24.396-0.001-41.648-17.126-41.689-41.396
			c-0.05-29.664-0.053-59.328,0.001-88.991c0.042-23.577,17.464-40.904,41.167-40.909
			C201.846,274.829,317.668,274.843,433.49,274.843z"/>
	</g>
</g>
</svg>
