<?xml version="1.0" encoding="utf-8"?>
<!-- Generator: Adobe Illustrator 16.0.3, SVG Export Plug-In . SVG Version: 6.00 Build 0)  -->
<!DOCTYPE svg PUBLIC "-//W3C//DTD SVG 1.1//EN" "http://www.w3.org/Graphics/SVG/1.1/DTD/svg11.dtd">
<svg version="1.1" id="INTERNATIONAL_REL_final_xA0_Image_1_"
	 xmlns="http://www.w3.org/2000/svg" xmlns:xlink="http://www.w3.org/1999/xlink" x="0px" y="0px" width="1200px" height="1200px"
	 viewBox="0 0 1200 1200" enable-background="new 0 0 1200 1200" xml:space="preserve">
<g>
	<g>
		<path fill-rule="evenodd" clip-rule="evenodd" d="M1,1c400,0,800,0,1200,0c0,400,0,800,0,1200c-400,0-800,0-1200,0
			C1,801,1,401,1,1z M74.75,495.937c-0.628,0.029-1.257,0.059-1.886,0.088c-1.163-2.521-2.061-5.213-3.55-7.523
			c-2.395-3.714-4.12-7.381-3.74-12.039c0.131-1.609-1.539-3.45-2.587-5.054c-2.918-4.465-9.092-7.972-3.923-14.688
			c0.527-0.685,0.334-2.481-0.203-3.339c-4.825-7.703-3.675-16.583-4.085-24.838c-0.346-6.979-2.814-11.458-7.614-15.863
			c-2.018-1.852-3.027-5.198-3.675-8.051c-0.979-4.312-1.511-8.771-1.747-13.193c-0.417-7.799-3.092-16.943,0.009-23.084
			c3.662-7.253,5.016-15.181,8.903-22.137c0.562-1.007,1.45-1.825,2.122-2.777c1.436-2.037,3.218-3.94,4.168-6.19
			c3.206-7.594,5.269-15.807,9.374-22.847c3.878-6.651,1.097-10.354-3.13-14.499c-0.583-0.572-0.977-1.344-1.431-2.041
			c-1.765-2.71-0.955-4.683,2.115-4.982c3.495-0.342,3.86-2.259,3.812-5.104c-0.115-6.794,0.162-13.6-0.162-20.379
			c-0.065-1.37-2.122-2.618-3.193-3.975c-1.282-1.623-3.446-3.25-3.54-4.968c-0.215-3.924,0.307-7.961,1.052-11.852
			c1.896-9.898-2.264-16.176-12.032-18.226c-2.856-0.601-5.659-1.881-8.238-3.3c-7.419-4.08-13.875-0.603-13.875,7.677
			c-0.005,279.661-0.056,559.323,0.181,838.983c0.01,11.507,1.438,23.359,4.424,34.453c11.316,42.031,41.223,64.354,84.57,64.354
			c324.161,0,648.321,0,972.481,0c2,0,4-0.004,6-0.002c20.021,0.028,37.006-7.373,51.063-21.394
			c19.882-19.829,29.084-44.424,29.395-72.013c0.542-48.327,0.11-96.663,0.272-144.995c0.015-4.278-1.429-5.841-5.475-6.406
			c-4.303-0.602-4.761-3.955-2.786-7.512c2.74-4.936,6.186-10.554,6.055-15.799c-0.337-13.553,3.461-27.574-3.172-40.114
			c1.328-1.987,3.07-3.479,3.338-5.2c0.906-5.81,1.762-11.698,1.792-17.561c0.181-35.165,0.13-70.331,0.141-105.497
			c0.001-1.749-0.145-3.498-0.222-5.247c-0.375,0.411-0.75,0.823-1.125,1.234c-5.387-2.087-11.002-3.737-16.089-6.396
			c-4.212-2.203-7.803-5.596-11.866-8.608c1.37-3.121,7.16-4.476,9.8-0.895c3.032,4.113,6.962,3.539,10.767,3.222
			c2.835-0.237,5.567-1.695,8.523-2.669c0-6.613,0-13.743,0-20.794c-4.862-1.671-7.499-5.302-6.311-10.367
			c0.981-4.186-0.32-6.879-2.782-9.914c-3.475-4.282-2.27-15.332,2.188-16.449c7.621-1.91,7.132-7.153,7.131-12.712
			c-0.01-45.332-0.002-90.665-0.018-135.997c0-1.556-0.192-3.112-0.299-4.74c-2.38,1.523-4.439,3.96-6.334,3.838
			c-5.064-0.326-7.503,1.583-8.216,6.388c-0.068,0.457-0.892,0.803-2.253,1.947c-0.295-2.101-0.241-3.474-0.719-4.627
			c-0.498-1.206-1.35-2.951-2.319-3.153c-3.469-0.725-6.958-0.837-9.338,2.788c-1.733,2.64-4.302,4.854-5.513,7.68
			c-1.149,2.682-2.196,6.393-1.211,8.802c2.156,5.273,4.943,10.619,8.699,14.844c9.23,10.384,14.229,21.766,12.822,35.95
			c-0.503,5.076-2.743,7.834-6.813,10.017c-1.49,0.799-3.003,1.906-3.971,3.257c-2.104,2.936-3.743,6.206-5.851,9.141
			c-0.547,0.761-2.12,0.785-3.222,1.148c-0.21-1.197-1.016-2.781-0.531-3.528c2.718-4.191,1.965-6.413-3.176-6.925
			c-0.608-0.062-1.313-0.977-1.648-1.656c-3.302-6.665-6.437-13.437-14.204-16.209c-0.497-0.178-0.731-1.031-1.141-1.525
			c-1.106-1.339-2.241-2.654-3.365-3.979c-1.062,1.984-2.587,3.862-3.075,5.979c-0.695,3.015-0.473,6.228-0.922,9.315
			c-0.881,6.052-2.331,12.091,1.774,17.658c0.652,0.885,1.289,2.2,1.133,3.19c-0.78,4.946,2.4,8.097,5.5,10.562
			c8.745,6.954,13.511,15.508,12.993,26.824c-0.051,1.098,0.411,2.268,0.826,3.329c1.96,5.021,3.987,10.016,5.991,15.021
			c-0.234,0.344-0.468,0.688-0.702,1.031c-0.918-0.791-1.964-1.476-2.729-2.394c-1.669-2.004-2.769-5.026-4.865-6.021
			c-5.066-2.404-7.554-6.433-9.649-11.221c-1.435-3.275-4.324-6.127-0.83-9.855c0.519-0.553,0.299-2.428-0.246-3.248
			c-4.323-6.509-4.764-15.421-12.317-19.958c-0.533-0.32-0.806-1.455-0.811-2.214c-0.045-6.32,0.362-12.666-0.07-18.955
			c-0.527-7.669-1.499-15.33-2.728-22.922c-0.981-6.066-2.586-12.036-4.033-18.02c-0.284-1.176-0.862-2.75-1.762-3.175
			c-0.904-0.428-2.539,0.075-3.558,0.675c-1.099,0.647-1.713,2.092-2.79,2.81c-2.154,1.437-4.479,2.614-6.734,3.898
			c-1.132-2.6-2.458-5.14-3.305-7.829c-0.356-1.135,0.069-2.676,0.535-3.878c1.246-3.219,0.326-5.634-1.836-8.201
			c-1.496-1.777-2.065-4.318-3.143-6.472c-0.878-1.756-1.585-3.744-2.91-5.1c-3.022-3.092-6.196-5.635-5.897-10.844
			c0.267-4.653-4.065-7.515-7.561-5.772c-2.938,1.465-5.813,3.057-8.668,4.567c-6.513-3.823-8.864-2.286-9.866,5.376
			c-0.316,2.422-2.532,4.675-4.13,6.818c-0.838,1.122-2.507,1.637-3.309,2.772c-6.07,8.596-11.4,17.813-18.253,25.716
			c-3.671,4.234-7.943,6.857-4.128,13.005c0.527,0.852,0.154,2.289,0.126,3.454c-0.157,6.486-0.271,12.975-0.546,19.457
			c-0.089,2.111-0.153,4.425-1.031,6.262c-2.118,4.43-4.626,8.684-7.157,12.898c-0.834,1.39-2.223,2.445-3.358,3.654
			c-1.193-1.525-2.8-2.886-3.489-4.612c-1.194-2.992-1.721-6.242-2.706-9.327c-2.096-6.554-4.315-13.067-6.466-19.604
			c-2.062-6.269-4.201-12.514-6.11-18.829c-1.306-4.314-2.417-8.701-3.361-13.11c-1.601-7.479-2.962-15.008-4.498-22.5
			c-0.854-4.16-1.855-8.289-2.791-12.432c-5.673,7.305-12.401,8.005-13.545,1.31c-1.299-7.608-4.839-12.549-10.011-17.249
			c-0.689-0.627-0.887-1.77-1.398-2.62c-2.232-3.713-4.83-6.708-9.853-6.147c-2.747,0.307-5.566-0.092-8.333,0.105
			c-5.54,0.395-10.551-0.783-15.821-2.808c-5.626-2.161-12.013-2.346-17.712-3.332c-0.423-0.814-0.629-1.09-0.716-1.398
			c-0.625-2.245-0.581-5.589-2.018-6.437c-1.425-0.841-4.307,1.14-6.595,1.325c-2.979,0.242-6.747,1.049-8.854-0.361
			c-4.762-3.188-10.376-5.783-12.385-12.159c-1.079-3.425-2.985-6.711-5.103-9.636c-1.086-1.5-3.58-3.021-5.216-2.811
			c-1.937,0.249-4.499,1.976-5.268,3.729c-1.994,4.55-2.109,9.159,1.308,13.609c2.583,3.364,5.117,7.149,6.256,11.151
			c1.852,6.508,1.363,6.646,8.427,4.935c0.231,1.252,0.63,2.484,0.66,3.727c0.173,7.266,1.233,8.521,8.378,7.586
			c2.31-0.302,4.713-2.147,6.466-3.896c2.368-2.363,4.151-5.314,6.936-9.01c1.07,3.077,1.938,4.833,2.276,6.686
			c1.017,5.565,3.015,9.597,9.771,9.788c4.294,0.122,8.332,7.87,6.595,11.934c-2.048,4.788-1.961,10.543-6.457,14.283
			c-0.567,0.472-0.261,1.904-0.532,2.841c-0.533,1.843-0.765,3.981-1.88,5.403c-2.51,3.2-6.503,5.601-8.013,9.131
			c-1.958,4.577-4.935,6.008-9.231,7.11c-2.52,0.646-5.871,2.449-6.69,4.567c-3.615,9.343-13.617,9.875-19.945,15.361
			c-4.268,3.7-11.02,2.389-14.966,7.992c-2.791,3.964-7.379,1.58-8.655-3.154c-2.046-7.597-4.749-15.017-7.175-22.512
			c-0.162-1.146,1.52-3.086,1.148-4.477c-0.832-3.116-2.46-6.099-4.169-8.887c-3.779-6.171-8.174-11.993-11.588-18.35
			c-1.798-3.349-2.103-7.512-3-11.326c-0.373-1.584-0.146-3.415-0.851-4.799c-5.399-10.607-11.022-21.102-16.446-31.697
			c-2.714-5.304-5.436-6.129-11.122-2.76c4.918,12.5,10.146,24.939,14.654,37.633c1.986,5.595,7.224,10.063,5.668,17.002
			c-1.119,4.993,0.379,9.462,4.357,13.05c1.157,1.044,2.212,2.76,2.37,4.267c1.625,15.513,14.077,24.405,22.124,35.916
			c1.902,2.723,4.122,4.479,4.034,8.29c-0.132,5.714,4.169,11.322,8.167,10.632c5.056-0.872,9.986-2.71,14.824-4.525
			c3.846-1.442,7.435-3.556,11.205-5.219c2.667-1.177,3.731-0.29,4.091,2.785c1.062,9.085-1.922,17.56-4.885,25.587
			c-4.315,11.69-10.355,22.761-15.94,33.956c-1.825,3.658-4.323,7.042-6.89,10.251c-1.907,2.385-4.83,3.994-6.589,6.457
			c-4.907,6.877-8.816,14.563-14.315,20.89c-4.852,5.582-5.854,12.522-8.979,18.651c-1.754,3.439-2.366,7.559-2.991,11.452
			c-1.391,8.654,1.559,16.864,2.966,25.239c1.356,8.076,2.732,16.175,3.487,24.32c0.552,5.949-0.315,12.028,0.225,17.979
			c0.601,6.615-2.88,11.692-7.463,14.252c-8.353,4.665-12.628,12.495-18.454,19.186c-4.107,4.718-3.533,9.963-2.064,15.045
			c3.952,13.677,1.039,21.231-7.558,27.4c-3.533,2.534-4.488,5.888-4.951,10.231c-0.655,6.146-1.705,12.774-4.653,18.038
			c-5.473,9.771-12.938,18.409-18.636,28.071c-4.872,8.262-13.061,8.646-20.639,10.323c-4.42,0.979-8.928,0.438-13.427,2.693
			c-3.291,1.649-8.704,4.109-11.591-1.004c-1.869-3.31-2.968-7.561-2.892-11.359c0.176-8.739-2.488-16.853-5.844-24.396
			c-5.466-12.286-8.67-25.157-9.459-38.193c-0.704-11.633-5.605-21.6-8.609-32.305c-1.289-4.594-4.563-8.956-4.687-13.485
			c-0.294-10.831-1.671-21.813,3.205-32.393c2.771-6.012,3.954-12.797,5.455-19.325c0.444-1.932-0.232-4.238-0.798-6.261
			c-1.263-4.519-4.996-8.649-1.563-13.815c0.497-0.748-0.355-2.481-0.742-3.709c-0.441-1.398-1.201-2.703-1.577-4.114
			c-1.647-6.192-2.576-12.665-4.966-18.548c-2.695-6.635-6.691-12.74-10.095-19.09c-1.608-3.003-3.229-6.005-4.675-9.087
			c-0.376-0.799-0.495-2.112-0.09-2.823c4.692-8.244,4.055-17.261,4.055-26.214c0-9.931-1.237-11.232-11.201-11.228
			c-8.619,0.005-8.794,0.053-11.138-8.384c-1.2-4.32-3.85-5.594-7.964-6.023c-8.48-0.886-15.516,1.758-22.026,7.079
			c-2.213,1.81-5.753,3.572-8.289,3.122c-8.429-1.497-16.663-2.954-24.323,2.162c-2.779,1.855-4.331,0.922-6.374-1.074
			c-3.977-3.887-8.563-7.19-12.28-11.293c-3.949-4.358-8.848-8.888-10.364-14.191c-2.647-9.257-6.688-17.053-13.505-23.741
			c-2.135-2.095-4.292-5.143-4.584-7.947c-0.777-7.453-2.854-14.587-0.324-22.655c2.437-7.772,1.574-16.681,1.552-25.089
			c-0.016-5.763-1.116-11.519-1.62-17.287c-0.081-0.927,0.149-2.125,0.706-2.826c5.415-6.822,3.65-16.942,10.612-23.054
			c0.398-0.35,0.243-1.278,0.461-1.896c0.901-2.565,1.585-5.251,2.835-7.638c2.124-4.059,4.529-7.979,7.003-11.838
			c0.757-1.181,1.971-2.362,3.244-2.867c7.296-2.897,14.26-12.156,13.646-19.78c-0.683-8.479,3.317-15.069,9.136-19.54
			c5.276-4.053,8.111-8.881,10.419-14.539c1.957-4.799-1.192-14.727-4.969-14.547c-5.938,0.283-8.701-1.483-8.049-7.588
			c0.03-0.286-0.213-0.631-0.393-0.905c-2.366-3.62-1.905-7.18-0.05-10.88c3.18-6.341,3.876-12.905,2.055-19.893
			c-0.456-1.747,0.447-4.792,1.803-5.818c1.541-1.168,4.292-0.959,6.513-0.936c1.587,0.017,3.158,1.009,4.75,1.054
			c5.163,0.146,10.333,0.111,15.498,0.04c5.274-0.072,7.915-3.074,8.217-8.459c0.606-10.853-2.736-19.528-12.714-24.988
			c-0.921-0.505-1.909-2.164-1.731-3.064c0.203-1.03,1.531-2.146,2.631-2.609c1.138-0.479,2.632-0.47,3.891-0.239
			c3.866,0.707,7.595,1.452,7.028-4.44c5.076-0.648,10.873,1.027,12.98-4.876c1.478-4.137,4.525-5.747,7.895-7.614
			c4.013-2.225,7.349-4.864,6.757-10.521c-0.402-3.833,3.009-5.07,6.257-5.79c3.068-0.681,6.145-1.337,9.186-2.127
			c3.09-0.803,3.895-2.876,2.8-5.747c-0.65-1.708-1.474-3.351-2.139-5.053c-2.755-7.051,0.519-13.958,8.317-16.231
			c0,1.599-0.193,3.014,0.05,4.349c0.295,1.62,0.613,3.437,1.562,4.678c0.925,1.212,2.907,2.735,3.977,2.448
			c1.513-0.406,3.5-2.236,3.68-3.661c0.265-2.098-0.712-4.436-1.48-6.556c-0.729-2.01-2.089-3.795-2.786-5.812
			c-2.248-6.493-4.382-7.093-9.382-2.388c-1.09,1.025-1.957,2.319-3.141,3.202c-0.985,0.736-2.32,1.541-3.44,1.463
			c-3.939-0.275-7.787-5.087-7.664-9.063c0.046-1.465,0.179-3.06-0.301-4.389c-3.534-9.81-1.43-16.836,7.337-22.619
			c2.005-1.322,4.716-2.576,6.946-2.349c4.791,0.491,8.291-1.072,9.192-5.867c1.047-5.564,3.495-10,7.251-14.352
			c2.53-2.933,8.479-5.523,4.339-11.918c2.941-1.557,5.613-3.131,8.415-4.425c10.169-4.693,20.063-10.511,32.115-7.313
			c1.45,0.385,3.49-0.725,5.034-1.556c5.019-2.699,8.208-1.977,11.557,2.625c1.026,1.409,2.321,3.072,3.845,3.596
			c7.686,2.642,15.524,4.831,23.232,7.409c4.631,1.549,9.309,3.162,13.616,5.414c3.503,1.832,3.118,4.066,0.049,6.397
			c-4.755,3.61-9.612,4.518-15.329,2.375c-2.546-0.954-5.559-0.664-8.359-0.938c0.75,2.235,1.192,4.642,2.328,6.659
			c1.355,2.411,2.987,4.879,5.094,6.589c1.755,1.424,4.37,1.788,6.046,2.413c-0.578-1.748-1.195-3.613-1.812-5.478
			c2.147,0.056,4.297,0.069,6.44,0.2c0.44,0.026,0.855,0.485,1.283,0.744c2.886,1.75,4.156,0.608,4.839-2.406
			c1.348-5.948,3.612-7.538,9.83-7.581c2.479-0.018,5.003-0.259,3.633-3.956c-1.181-3.184-2.334-6.378-4.137-11.313
			c3.627,1.021,6.098,1.38,8.184,2.474c0.797,0.418,0.828,2.503,1.002,3.854c0.221,1.715,0.23,3.457,0.332,5.188
			c1.996-0.636,4.147-0.985,5.959-1.963c5.506-2.973,10.828-6.289,16.36-9.207c0.912-0.481,3.172-0.074,3.696,0.688
			c1.661,2.414,3.032,1.906,5.43,0.987c5.234-2.004,10.736-3.307,15.973-4.851c-0.574-0.911-1.749-2.777-3.118-4.951
			c3.368,0.951,6.204,2.558,8.911,2.366c8.613-0.61,15.494,3.757,22.888,6.828c1.413,0.588,3.289,0.059,4.952,0.045
			c-0.857-1.694-1.449-3.612-2.639-5.027c-1.533-1.823-4.04-2.935-5.258-4.893c-3.841-6.173,0.006-12.283,0.763-18.414
			c0.09-0.73,0.851-1.378,1.323-2.098c1.937,1.166,3.268,2.591,4.723,2.729c4.915,0.471,7.273,2.633,6.704,7.776
			c-0.091,0.818,1.036,2.341,1.838,2.529c0.812,0.191,2.331-0.62,2.813-1.428c1.14-1.906,1.848-4.07,3.077-6.938
			c0.811,1.829,1.376,3.248,2.06,4.607c0.724,1.438,1.245,3.28,2.437,4.1c1.231,0.848,3.162,0.679,4.787,0.955
			c-0.187-1.3,0.009-2.843-0.633-3.854c-1.704-2.686-0.651-3.722,1.979-3.854c2.948-0.148,5.91-0.034,9.239-0.034
			c-0.246-1.293-0.281-2.444-0.688-3.446c-2.029-5.019-1.818-5.368,3.741-5.427c1.666-0.018,3.414,0.318,4.973-0.089
			c1.181-0.309,2.959-1.477,3.026-2.372c0.368-4.888,4.668-5.954,7.639-6.517c8.03-1.521,16.263-2.187,24.444-2.605
			c4.021-0.205,6.563-1.743,8.49-5.001c2.757-4.66,13.748-5.958,18.278-2.667c2.237,1.626,5.2,2.576,7.971,3.073
			c5.021,0.9,10.252,0.794,15.182,1.987c2.432,0.59,4.39,3.141,6.562,4.805c-1.87,2.155-3.625,4.43-5.665,6.409
			c-0.892,0.866-2.76,0.835-3.455,1.76c-0.546,0.728,0.027,2.297,0.103,3.492c2.92-0.536,6.733-0.104,8.574-1.807
			c3.975-3.677,5.209-4.072,9.492-1.156c2.388,1.626,5.538,2.268,8.437,2.978c4.074,0.998,8.203,1.932,12.363,2.37
			c4.589,0.482,9.262,0.651,13.848,0.3c0.963-0.073,1.706-3.006,2.835-5.165c5.173,1.238,11.018,1.591,15.775,4.046
			c5.746,2.965,10.443,7.899,15.831,11.639c5.677,3.941,8.021,3.153,10.049-2.044c4.648,0.295,9.024,0.742,13.407,0.813
			c6.824,0.109,6.833-0.006,7.295-6.693c1.067-0.136,2.201-0.465,3.306-0.39c7.772,0.532,15.542,1.098,23.302,1.785
			c1.256,0.111,2.438,0.928,3.681,1.342c6.798,2.267,13.586,4.566,20.427,6.692c0.932,0.29,2.145-0.326,3.506-0.574
			c0-8.269,0.091-16.252-0.019-24.232c-0.247-18.085-4.125-35.368-12.985-51.179c-14.813-26.434-36.225-43.569-67.784-43.582
			c-328.993-0.135-657.986-0.097-986.98,0.022c-6.242,0.002-12.695,0.837-18.688,2.549c-27.714,7.919-44.196,27.601-54.58,53.388
			c-9.65,23.967-7.081,49.083-6.948,73.969c0.001,0.271,0.348,0.541,0.861,1.292c3.94-1.243,8.138-2.393,12.208-3.891
			c6.051-2.228,11.954-4.861,18.026-7.024c5.811-2.07,11.631-3.388,17.117,1.328c1.219,1.048,3.448,0.931,5.216,1.327
			c2.719,0.61,5.418,1.37,8.169,1.764c5.237,0.748,10.625,2.272,15.728,1.651c6.218-0.757,10.827,1.667,15.76,4.367
			c1.429,0.782,3.404,1.214,4.985,0.949c4.456-0.746,9.288-3.626,13.15-2.594c7.444,1.989,13.448-1.021,19.961-2.771
			c2.628-0.706,5.433-2.023,7.942-1.644c5.296,0.804,10.434,2.614,15.669,3.877c5.373,1.295,10.953,1.967,16.105,3.838
			c2.378,0.863,3.956,3.933,5.896,6.001c-0.288,0.838-0.576,1.676-0.864,2.514c6.3-0.555,14.135,1.032,18.56-2.14
			c7.688-5.51,13.001-6.958,20.378-0.15c4.517,4.167,16.564,0.542,20.281-4.311c1.876-2.45,5.078-5.221,7.825-5.382
			c5.178-0.305,7.673-2.423,11.063-6.317c7.522-8.639,15.056-17.66,27.013-24.063c-2.98-1.43-5.013-2.801-7.249-3.36
			c-2.043-0.512-4.333,0.051-6.461-0.242c-1.152-0.159-3.188-1.541-3.139-1.654c1.162-2.734,1.899-6.419,4.062-7.766
			c2.821-1.755,6.687-0.466,7.221,3.525c0.547,4.084,3.194,4.651,5.916,4.085c1.131-0.235,1.674-3.203,2.524-4.908
			c0.834-1.671,1.356-4.169,2.684-4.735c1.355-0.577,3.537,0.712,5.325,1.284c0.425,0.136,0.704,0.69,1.078,1.021
			c5.214,4.601,17.657,1.422,20.586-5.609c-0.942,0.061-2.021,0.456-2.399,0.102c-2.476-2.321-5.726-4.42-6.939-7.334
			c-1.503-3.604,1.488-5.048,5.016-5.453c1.469-0.169,2.73-1.719,4.202-2.383c2.582-1.163,5.179-2.719,7.901-3.062
			c7.219-0.909,14.557-0.907,21.757-1.912c10.905-1.522,21.443-5.106,32.753-4.444c10.297,0.604,20.658,0.067,30.991,0.072
			c1.338,0.001,2.675,0.236,4.746,0.434c-1.162,0.894-1.492,1.331-1.909,1.442c-11.132,2.97-22.227,6.1-33.428,8.779
			c-7.742,1.853-14.715,5.104-20.883,10.003c-8.564,6.804-18.285,9.159-29.066,8.95c-4.886-0.096-9.807,1.209-14.696,1.979
			c-1.071,0.168-2.076,0.762-3.111,1.159c0.414,0.54,0.829,1.081,1.243,1.621c6.636,1.473,14.361-1.8,20.661,4.516
			c-1.442,0.878-2.468,2.031-3.527,2.063c-9.293,0.287-18.595,0.54-27.886,0.384c-1.902-0.031-4.248-1.392-5.568-2.872
			c-3.544-3.973-4.632-4.264-6.884,0.398c-1.118,2.314-0.702,5.369-1.118,9.428c-2.131,1.216-5.626,3.377-9.279,5.225
			c-1.866,0.944-4.311,0.896-5.981,2.043c-4.378,3.005-4.269,14.016,0.421,18.262c2.697,2.44,3.496,4.455,1.801,7.704
			c-0.567,1.087-0.134,2.694-0.158,4.063c1.527-0.075,3.418,0.399,4.513-0.327c3.589-2.381,7.205-4.895,10.176-7.97
			c1.649-1.708,2.038-4.634,2.995-7.011c-1.779-0.572-3.523-1.322-5.344-1.679c-3.646-0.712-5.237-6.146-2.008-9.027
			c4.438-3.959,7.063-10.406,14.18-10.974c1.642-0.131,3.252-0.639,4.877-0.973c0,1.596,0,3.192,0,4.423
			c2.681-0.946,5.568-2.683,8.554-2.872c6.651-0.424,13.357-0.188,20.029,0.075c1.093,0.043,2.229,1.5,3.166,2.476
			c2.559,2.661,4.742,5.768,7.601,8.034c2.963,2.349,6.579,3.861,9.847,5.842c3.664,2.222,4.847,4.901,2.493,9.127
			c-2.663,4.78-1.766,4.998,3.067,7.403c3.513,1.748,6.486,5.063,8.828,8.31c0.539,0.747-2.165,4.433-3.982,6.107
			c-1.755,1.616-4.195,2.737-6.526,3.368c-1.116,0.302-2.901-0.771-3.967-1.701c-0.927-0.81-1.006-2.585-1.929-3.403
			c-1.233-1.094-2.921-1.676-4.414-2.478c-0.821,1.823-2.517,3.78-2.261,5.437c0.384,2.482,2.385,4.67,3.221,7.144
			c0.56,1.654,0.834,3.787,0.262,5.349c-0.811,2.205-2.521,4.081-4.019,6.361c-2.363-1.354-4.82-2.762-8.492-4.866
			c0.458,2.94,1.132,4.58,0.808,5.99c-0.283,1.229-2.252,3.267-2.521,3.126c-4.403-2.309-10.198-3.901-12.636-7.64
			c-5.886-9.029-5.233-9.377-15.362-7.36c-1.13,0.225-2.76-0.622-3.671-1.485c-0.34-0.321,0.451-2.345,1.187-3.193
			c2.038-2.356,4.322-2.623,7.562-1.704c2.409,0.684,5.9-0.169,8.103-1.59c3.007-1.939,5.472-4.89,7.746-7.744
			c1.745-2.19,3.628-4.831,3.859-7.415c0.104-1.166-3.66-2.678-5.894-4.185c0.869-4.642-3.907-9.333-9.141-8.413
			c-3.71,0.652-7.511,0.805-11.202,1.531c-1.312,0.258-2.984,1.284-3.518,2.418c-1.849,3.925-2.935,8.231-4.985,12.028
			c-1.104,2.044-3.343,3.84-5.49,4.875c-4.058,1.954-8.418,3.278-13.947,5.35c3.098,3.324,5.713,5.737,7.791,8.547
			c0.874,1.181,0.615,3.2,0.872,4.838c-1.358-0.1-3.037,0.275-4.019-0.385c-3.703-2.491-6.54-2.16-9.65,1.195
			c-0.871,0.939-3.675,0.087-5.592,0.056c0.054-1.585-0.071-3.205,0.228-4.742c0.182-0.938,1.015-1.75,1.556-2.618
			c-0.291-0.373-0.581-0.746-0.872-1.119c-7.018,3.891-14.123,7.633-21.02,11.728c-4.109,2.439-7.815,5.547-11.834,8.15
			c-6.918,4.48-14.883,7.704-18.965,15.539c-0.722,1.387-0.677,3.401-0.396,5.024c0.336,1.944,1.935,3.801,1.87,5.656
			c-0.134,3.837,0.891,5.698,5.017,6.438c2.691,0.483,5.167,2.623,7.543,4.298c5.322,3.747,9.183,9.846,16.704,9.995
			c2.782,0.056,3.675,1.005,2.466,4.161c-1.283,3.347-1.361,7.156-1.965,10.764c0.956,0.6,0.544,0.874,0.182,1.202
			c-3.749,3.399-0.358,6.349,1.146,8.754c1.868,2.987,3.731,0.15,5.65-1.061c5.905-3.727,5.061-10.288,6.104-15.626
			c0.799-4.089,2.425-5.999,5.679-7.754c4.37-2.357,8.653-4.931,12.728-7.766c2.964-2.063,4.735-9.643,2.869-12.857
			c-1.682-2.898-0.723-4.755,0.745-7.23c2.495-4.208,4.949-8.561,6.546-13.156c3.082-8.875,2.879-8.997,12.191-8.853
			c1.333,0.021,2.736,0.283,3.988-0.035c4.721-1.198,7.347,1.167,9.694,4.867c2.827,4.456,3.498,8.357,3.091,13.522
			c-0.171,2.179,1.218,5.163,2.905,6.587c1.308,1.104,4.719,1.208,6.252,0.248c3.442-2.153,6.304-5.24,9.391-7.958
			c1.023-0.901,2.017-1.837,3.949-3.602c2.159,8.349,3.118,15.508,2.662,22.981c-0.174,2.865,0.532,6.022,1.714,8.652
			c0.886,1.971,3.096,3.403,4.854,4.914c6.291,5.402,7.514,14.34,4.097,21.898c-1.671,3.696-1.633,8.296-1.77,12.506
			c-0.084,2.59,1.362,4.617,4.569,4.963c1.052,0.113,2.644,1.711,2.763,2.768c0.368,3.265,0.438,6.63,0.063,9.891
			c-0.32,2.781-1.691,5.082-5.291,4.217c-5.545-1.332-11.062-2.85-16.669-3.836c-3.546-0.624-4.557-1.836-2.56-4.825
			c1.568-2.346,3.697-4.323,5.213-6.696c2.39-3.74,4.474-7.676,6.688-11.528c-0.515-0.457-1.03-0.915-1.545-1.372
			c-3.774,1.434-7.45,3.641-11.345,4.139c-7.872,1.006-15.859,1.198-23.808,1.51c-5.964,0.232-8.409,1.953-9.461,7.778
			c1.752,0.271,3.486,0.649,5.239,0.787c3.336,0.262,5.208,1.128,3.095,4.942c-1.44,2.6-2.384,5.473-3.559,8.219
			c-2.171,5.078,0.894,10.603,6.261,10.044c3.991-0.415,7.785-2.723,12.538-4.515c1.307,1.359,0.798,3.396-1.826,4.952
			c-7.273,4.31-14.575,8.578-21.986,12.643c-1.059,0.581-2.979,0.306-4.123-0.295c-0.545-0.286-0.269-2.268-0.235-3.478
			c0.022-0.782,0.278-1.558,0.555-2.98c-1.584,0-2.929-0.344-3.984,0.062c-4.012,1.542-8.205,2.882-11.823,5.119
			c-6.24,3.858-11.437,8.688-11.087,17.091c0.044,1.068-1.296,2.748-2.39,3.212c-4.352,1.847-9.039,2.969-13.243,5.075
			c-2.363,1.185-4.082,3.716-5.984,5.74c-1.819,1.935-3.512,3.989-5.238,6.01c-1.215,1.424-2.769,2.708-3.519,4.352
			c-2.528,5.541-6.158,10.773-5.241,17.425c0.125,0.904-0.936,2.132-1.707,2.972c-3.142,3.424-6.019,7.233-9.665,10.023
			c-8.372,6.407-15.752,13.577-22.045,22.112c-4.32,5.858-4.041,11.897-3.732,18.445c0.354,7.508,0.082,15.051-0.121,22.573
			c-0.027,1.025-1.225,2.02-1.881,3.028c-0.983-0.777-2.252-1.369-2.904-2.364c-3.798-5.804-3.96-12.319-2.751-18.786
			c0.753-4.029-0.229-7.178-3.461-9.076c-3.888-2.283-8.183-3.894-12.377-5.612c-0.792-0.324-1.936,0.204-2.916,0.349
			c-2.282,0.337-4.665,0.377-6.82,1.097c-2.669,0.892-5.094,2.491-7.729,3.517c-2.121,0.825-4.86,2.359-6.525,1.664
			c-7.305-3.051-12.163-2.612-18.009,2.601c-3.604,3.213-7.184,6.462-10.929,9.505c-5.288,4.297-7.369,9.725-7.679,16.521
			c-0.251,5.516-1.935,10.978-3.113,16.435c-0.842,3.901-3.072,7.908-2.593,11.597c0.745,5.733,3.081,11.304,5.083,16.818
			c2.455,6.764,7.953,11.219,12.639,9.872c4.378-1.259,8.507-3.437,12.673-5.365c3.316-1.535,4.985-4.146,4.901-7.957
			c-0.115-5.243,4.007-7.55,7.787-9.361c1.891-0.906,4.943-0.215,7.062,0.699c0.61,0.264,0.135,3.913-0.416,5.848
			c-2.882,10.136-5.989,20.207-8.871,30.343c-0.229,0.805,0.487,2.651,1.051,2.782c3.514,0.816,7.681,2.716,10.56,1.568
			c6.13-2.444,8.942,1.67,12.529,4.51c0.743,0.588,1.03,2.364,0.815,3.453c-1.792,9.101-4.004,18.238-1.71,27.479
			c1.141,4.593,3.187,9.062,5.458,13.24c1.627,2.993,4.276,3.451,7.599,1.279c5.294-3.459,10.085-2.426,13.806,1.824
			c1.536,1.755,3.704,2.956,5.585,4.409c1.771-2.348,3.612-4.649,5.266-7.077c0.413-0.606-0.034-1.781,0.36-2.421
			c2.023-3.283,3.702-6.997,6.432-9.574c3.568-3.369,7.981-5.854,12.099-8.619c0.713-0.479,1.763-0.456,2.658-0.665
			c0.11,1.012,0.382,2.038,0.289,3.031c-0.116,1.233-0.534,2.438-0.821,3.655c0.897,0.683,1.794,1.365,2.691,2.048
			c1.231-3.006,2.461-6.012,3.692-9.018c0.413,0.915,0.826,1.831,1.239,2.746c2.755,2.087,5.285,4.639,8.336,6.114
			c2.431,1.175,5.793,0.424,8.223,1.601c6.567,3.182,12.915,3.769,19.381-0.268c0.987,1.85,1.499,3.51,2.558,4.668
			c4.348,4.754,8.892,9.328,13.298,14.03c1.229,1.311,2.462,2.71,3.3,4.278c4.79,8.97,11.14,15.29,22.354,14.163
			c1.391-0.14,3.055,0.3,4.281,1.008c8.174,4.723,12.037,12.288,13.951,21.23c1.201,5.613,2.849,11.134,4.369,16.676
			c0.159,0.581,0.815,1.028,1.247,1.533c2.443,2.855,4.889,5.71,7.568,8.84c4.51-1.337,16.21,3.209,17.71,7.857
			c1.563,4.849,5.297,6.054,9.451,6.634c2.78,0.388,5.676,0.299,8.484,0.04c4.148-0.381,7.477,0.938,10.318,3.893
			c4.584,4.767,8.772,10.066,13.96,14.061c6.467,4.978,8.426,11.767,6.61,18.419c-2.714,9.938-7.308,19.393-11.437,28.908
			c-3.044,7.016-8.646,13.261-5.573,21.843c0.302,0.843-0.126,1.952-0.233,2.936c-0.717,6.58-1.43,13.161-2.165,19.739
			c-0.22,1.964-0.425,3.936-0.786,5.875c-0.624,3.356-1.952,6.692-1.943,10.035c0.022,8.905-3.57,15.765-10.694,20.785
			c-5.688,4.009-11.665,7.605-17.373,11.587c-6.495,4.531-11.588,9.896-10.13,18.842c0.37,2.273,0.021,4.658,0.064,6.991
			c0.145,7.71-1.746,14.52-8.269,19.412c-0.748,0.562-1.38,1.535-1.644,2.44c-1.092,3.749-1.719,7.659-3.081,11.299
			c-2.007,5.36-4.034,10.809-6.903,15.725c-3.034,5.199-4.116,4.934-9.079,1.632c-2.075-1.38-4.609-2.07-6.935-3.073
			c-0.514,0.611-1.028,1.224-1.542,1.836c1.967,3.65,3.999,7.269,5.878,10.965c1.09,2.145,2.865,4.475,2.729,6.618
			c-0.618,9.665-3.916,13.469-13.683,14.672c-6.064,0.747-6.716,1.108-6.02,7.3c0.479,4.257-2.601,8.054-6.881,7.74
			c-3.847-0.281-5.104,1.662-4.48,4.686c0.522,2.534,2.14,4.857,3.365,7.226c0.703,1.36,2.551,2.941,2.24,3.88
			c-1.869,5.658,0.416,12.391-5.006,17.317c-1.331,1.209-0.77,5.537,0.172,7.941c1.102,2.814,3.611,5.065,5.427,7.619
			c0.734,1.033,1.949,2.375,1.745,3.316c-1.247,5.752-2.521,11.536-4.41,17.099c-1.669,4.916-0.957,9.161,1.9,13.2
			c4.811,6.801,9.788,13.365,18.622,15.444c2.318,0.546,2.923,2.557,0.561,3.902c-2.212,1.26-4.905,2.822-7.194,2.561
			c-4.819-0.551-9.798-1.576-14.19-3.56c-6.475-2.924-12.688-6.575-16.327-13.257c-1.502-2.759-3.494-5.246-5.065-7.972
			c-3.21-5.569-6.136-11.308-9.471-16.8c-2.195-3.615-4.302-6.953-2.474-11.472c0.462-1.143,0.098-3.566-0.739-4.128
			c-4.435-2.972-3.434-7.154-3.35-11.364c0.05-2.508-0.829-5.034-1.397-8.141c7.407-1.935,3.256-7.383,3.115-10.559
			c-2.816-2.185-6.035-3.403-6.376-5.176c-1.241-6.445-1.445-13.085-2.2-19.633c-0.278-2.406-0.553-4.984-1.606-7.098
			c-3.645-7.316-3.52-14.934-2.763-22.758c0.876-9.046,1.47-18.119,2.085-27.188c0.086-1.271-0.325-2.603-0.645-3.871
			c-1.318-5.218-3.714-10.393-3.865-15.636c-0.676-23.575,1.129-47.23-2.318-70.709c-0.495-3.371-1.094-7.282-3.104-9.762
			c-4.418-5.453-9.951-9.984-14.683-15.205c-3.968-4.379-9.849-6.606-11.834-13.374c-2.442-8.323-6.615-16.151-10.199-24.123
			c-3.805-8.465-7.801-16.844-11.701-25.267c-1.384-2.988-2.135-6.516-4.211-8.894c-5.989-6.859-7.292-18.337-2.007-25.393
			c1.74-2.322,1.297-3.682-0.063-6.094c-1.567-2.781-2.896-6.591-2.296-9.539c2.167-10.639,7.151-20.112,13.325-29.097
			c2.286-3.326,3.565-7.774,4.009-11.852c1.1-10.112,0.301-20.2-4.132-29.55c-0.876-1.848-3.648-4.024-5.371-3.884
			c-1.604,0.13-3.312,2.969-4.336,4.946c-0.753,1.454-0.478,3.441-0.576,4.385c-4.741-2.032-8.772-3.716-12.755-5.509
			c-0.712-0.32-1.273-1.047-1.813-1.666c-3.388-3.881-6.872-7.688-10.049-11.736c-1.037-1.32-1.161-3.325-1.855-4.952
			c-2.502-5.866-4.966-11.754-7.722-17.501c-0.418-0.873-2.287-1.096-3.518-1.525c-4.473-1.562-9.43-2.352-13.302-4.838
			c-3.439-2.208-6.017-6.057-8.372-9.584c-3.391-5.079-8.278-8.167-11.791-5.784c-3.906,2.65-7.037,2.032-10.553-0.161
			c-2.953-1.843-6.198-3.275-8.951-5.367c-7.763-5.901-15.544-11.813-22.9-18.202c-3.503-3.043-4.358-7.117-2.813-12.208
			c1.267-4.172,1.268-9.283,0.081-13.484c-1.119-3.961-4.875-7.096-6.836-10.92c-3.078-5.999-10.18-10.51-7.184-18.966
			c0.448-1.265-0.489-3.346-1.345-4.694c-5.149-8.108-8.304-16.743-8.677-26.481c-0.054-1.425-3.37-2.725-5.176-4.081
			c-0.89,1.33-2.623,2.73-2.52,3.979c0.375,4.559,1.025,9.155,2.182,13.578c3.434,13.126,7.203,26.164,10.711,39.271
			C75.117,492.443,74.75,494.239,74.75,495.937z M689.523,385.639c0.361-1.791,0.422-2.903,0.811-3.887
			c2.745-6.936,1.807-10.884-4.029-15.599c-2.572-2.079-5.394-3.847-8.006-5.879c-5.816-4.521-10.842-9.651-12.708-17.129
			c-1.059-4.237-6.555-5.859-9.981-2.96c-2.02,1.708-4.151,3.322-5.946,5.246c-2.112,2.264-3.918,2.386-6.465,0.563
			c-3.584-2.564-10.462,0.063-10.228,4.306c0.359,6.494-4.306,8.359-8.013,11.484c-4.594,3.872-7.662,8.863-7.968,14.897
			c-0.345,6.812-7.143,15.377-13.899,17.021c-2.653,0.646-5.094,2.126-7.689,3.067c-3.996,1.449-3.528,4.891-2.537,7.469
			c0.564,1.47,3.437,2.352,5.434,2.89c2.209,0.596,4.667,0.914,6.903,0.584c2.255-0.332,4.627-1.243,6.486-2.556
			c2.683-1.894,4.602-5.467,7.466-6.377c5.559-1.767,11.547-2.189,17.36-3.146c1.78-0.293,3.595-0.407,5.354-0.783
			c2.996-0.641,5.935-1.589,8.949-2.1c2.93-0.497,5.954-0.984,8.882-0.761c2.24,0.171,6.134,1.208,6.29,2.292
			c0.734,5.1,3.845,10.461,0.099,15.514c-2.424,3.268-1.664,5.771,1.181,8.115c2.453,2.021,4.707,5.306,7.419,5.745
			c4.003,0.647,7.005,1.474,9.756,4.768c2.446,2.928,5.897,5.177,9.244,7.149c4.271,2.518,8.808,4.637,13.396,6.524
			c1.237,0.508,3.547,0.048,4.504-0.867c0.938-0.896,1.57-3.438,0.968-4.394c-2.597-4.116-0.11-7.239,2.198-9.553
			c3.116-3.123,7.433-4.805,11.906-2.528c8.201,4.171,16.206,8.733,24.452,12.809c1.615,0.798,4.002,0.394,5.95,0.063
			c2.138-0.363,4.146-1.7,6.271-1.873c3.974-0.324,8.061,0.329,11.962-0.293c2.336-0.372,5.61-1.885,6.4-3.756
			c4.229-10.015,8.912-20.096,7.201-31.453c-0.309-2.048-1.458-4.643-3.051-5.599c-1.172-0.703-3.786,0.66-5.605,1.451
			c-3.24,1.407-5.825,5.542-10.087,2.036c-3.726-3.065-7.448-4.726-9.889,0.155c-4.471-1.812-8.385-3.251-12.144-5.021
			c-0.988-0.465-1.991-1.883-2.141-2.979c-0.896-6.547-4.809-12.354-4.342-19.328c0.122-1.826-2.285-4.229-4.118-5.558
			c-0.647-0.469-3.055,1.463-4.643,2.328c-1.236,0.673-2.379,1.604-3.69,2.033c-1.51,0.494-3.159,0.563-4.748,0.815
			c0.638,1.6,1.128,3.282,1.957,4.776c0.799,1.441,1.832,2.798,2.967,3.999c2.226,2.357,2.335,4.622,0.182,7.056
			c-0.768,0.867-1.362,1.884-2.089,2.789c-1.189,1.481-2.423,2.929-3.638,4.39c-1.348-1.774-3.781-3.525-3.822-5.33
			c-0.09-3.966-2.119-6.089-4.968-8.023c-3.91-2.655-6.37-6.833-5.268-11.011c1.51-5.723-1.295-8.645-4.674-11.978
			c-7.875-7.767-18.108-13.493-21.504-25.214c-0.388-1.337-3.113-2.209-4.917-2.803c-0.586-0.193-2.462,1.229-2.433,1.849
			c0.188,3.876-0.609,8.799,1.434,11.402c6.874,8.759,12.411,19.032,24.152,24.092c-5.595,1.173-7.332,3.336-5.193,8.351
			C698.162,378.535,694.638,383.605,689.523,385.639z M714.287,244.383c1.041,0.916,1.778,1.945,2.769,2.346
			c1.503,0.606,4.263,1.494,4.59,1.002c1.142-1.719,1.733-3.949,1.975-6.049c0.097-0.849-1.23-1.876-1.938-2.799
			c-2.361-3.08-1.7-5.165,2.099-5.782c2.277-0.369,4.659-0.045,6.975-0.248c2.615-0.229,5.367-0.293,7.751-1.221
			c1.373-0.533,2.136-2.635,3.172-4.03c-1.414-0.988-2.925-2.933-4.228-2.802c-5.977,0.6-12.061,1.223-17.782,2.925
			c-4.745,1.411-8.958-0.393-9.308-5.436c-0.148-2.153,0.408-4.472-0.199-6.457c-2.15-7.033,0.958-11.347,6.577-14.99
			c2.439-1.581,4.41-3.994,6.275-6.289c0.67-0.824,0.797-2.555,0.413-3.589c-0.218-0.586-1.98-0.842-3.04-0.822
			c-2.473,0.047-4.944,0.535-7.411,0.502c-3.175-0.044-4.718,1.202-4.414,4.454c0.382,4.094-1.688,6.498-5.297,8.048
			c-5.509,2.366-8.711,7.067-9.644,12.542c-0.606,3.561-2.673,8.272,2.38,11.168c4.853,2.78,4.82,4.36,0.765,8.42
			c-3.356,3.359-7.298,6.367-5.13,12.39c0.566,1.575-1.103,4.466-2.498,6.114c-2.023,2.389-4.731,4.198-7.585,6.627
			c-0.68-0.24-2.191-1.331-3.419-1.073c-1.706,0.358-3.739,1.377-4.639,2.76c-0.954,1.467-0.746,3.69-1.046,5.583
			c1.493-0.118,2.985-0.278,4.482-0.34c0.975-0.039,2.207-0.305,2.893,0.163c4.918,3.355,8.742,0.098,12.896-1.788
			c1.688-0.766,4.667-1.842,5.367-1.125c5.054,5.171,8.395,0.597,12.061-1.753c2.163-1.387,3.034-3.001,1.273-5.794
			C708.753,252.811,709.942,248.179,714.287,244.383z M785.033,331.969c2.047-2.559,4.245-5.03,6.075-7.75
			c0.618-0.918,0.579-2.534,0.289-3.693c-0.134-0.531-1.641-1.105-2.453-1.017c-4.771,0.526-10.256,6.069-10.498,10.92
			c-0.173,3.475-1.049,5.863-4.981,5.942c-3.835,0.076-6.249-2.175-6.349-5.606c-0.132-4.588-2.473-7.092-6.316-6.115
			c-2.817,0.716-5.744,3.555-7.272,6.221c-2.574,4.49-4.336,9.512-5.943,14.471c-1.133,3.497-2.148,7.306-1.916,10.891
			c0.208,3.202,12.237,7.708,15.419,6.292c2.706-1.205,5.263-3.218,8.066-3.622c4.427-0.64,10.353-2.056,13.255,0.089
			c7.495,5.542,15.434,3.969,23.348,3.912c1.691-0.012,4.215-1.861,4.807-3.443c0.561-1.5-0.388-4.196-1.573-5.613
			c-6.746-8.068-13.121-16.639-23.395-20.761C785.48,333.039,785.443,332.801,785.033,331.969z M863.04,395.519
			c1.802,0,3.879,0.541,5.387-0.153c1.479-0.682,3.658-3.241,3.334-3.908c-2.979-6.126-0.276-14.11-6.672-19.183
			c-2.995-2.376-3.112-5.306,1.266-7.194c1.161-0.501,2.701-2.771,2.385-3.516c-0.726-1.711-2.318-3.95-3.864-4.219
			c-2.652-0.461-3.842-1.382-4.127-3.942c-0.084-0.75-0.561-1.578-1.1-2.137c-3.174-3.289-6.514-6.424-9.615-9.778
			c-2.867-3.101-1.743-6.091,2.196-7.48c2.054-0.725,5.38-2.412,5.348-3.587c-0.084-3.035-0.979-6.652-2.889-8.901
			c-3.593-4.231-6.421-3.788-9.435-0.135c-2.683,3.251-5.822,6.126-8.495,9.385c-1.923,2.343-5.053,5.265-4.746,7.538
			c0.613,4.549,2.64,9.194,5.138,13.13c3.244,5.111,7.578,9.522,11.289,14.354c0.671,0.873,0.937,2.358,0.799,3.49
			c-0.31,2.55-0.625,5.204-1.588,7.549c-2.664,6.488-2.369,10.932,4.872,14.924C856.046,393.696,858.814,396.067,863.04,395.519z
			 M898.381,169.815c-0.716,3.999-1.282,7.628-2.045,11.217c-0.33,1.554-1.064,3.022-1.615,4.529
			c1.786,0.545,3.692,1.727,5.318,1.42c1.15-0.217,2.067-2.371,2.813-3.805c0.583-1.12,0.595-2.528,1.119-3.691
			C905.897,175.213,903.105,170.52,898.381,169.815z M1175.653,372.354c-8.714,8.054-8.727,10.114,0,13.859
			C1175.653,381.578,1175.653,377.081,1175.653,372.354z M889.871,157.894c0.73,3.025,1.07,5.632,2.102,7.927
			c0.281,0.625,3.598,0.866,3.903,0.341C898.066,162.4,895.342,158.165,889.871,157.894z"/>
		<path fill-rule="evenodd" clip-rule="evenodd" fill="#FFFFFF" d="M74.75,495.937c0-1.697,0.366-3.493-0.058-5.077
			c-3.509-13.106-7.277-26.145-10.711-39.271c-1.157-4.423-1.807-9.02-2.182-13.578c-0.103-1.249,1.629-2.649,2.52-3.979
			c1.807,1.356,5.122,2.656,5.176,4.081c0.373,9.738,3.528,18.373,8.677,26.481c0.856,1.349,1.793,3.43,1.345,4.694
			c-2.997,8.456,4.106,12.967,7.184,18.966c1.961,3.824,5.717,6.959,6.836,10.92c1.187,4.201,1.186,9.313-0.081,13.484
			c-1.545,5.091-0.69,9.165,2.813,12.208c7.355,6.39,15.137,12.301,22.9,18.202c2.752,2.092,5.998,3.524,8.951,5.367
			c3.516,2.193,6.646,2.812,10.553,0.161c3.513-2.383,8.4,0.705,11.791,5.784c2.355,3.527,4.932,7.376,8.372,9.584
			c3.872,2.486,8.829,3.276,13.302,4.838c1.231,0.43,3.1,0.652,3.518,1.525c2.756,5.747,5.22,11.635,7.722,17.501
			c0.694,1.627,0.818,3.632,1.855,4.952c3.177,4.048,6.661,7.855,10.049,11.736c0.54,0.619,1.102,1.346,1.813,1.666
			c3.982,1.793,8.014,3.477,12.755,5.509c0.098-0.943-0.178-2.931,0.576-4.385c1.024-1.978,2.731-4.816,4.336-4.946
			c1.722-0.141,4.495,2.036,5.371,3.884c4.433,9.35,5.232,19.438,4.132,29.55c-0.444,4.077-1.724,8.525-4.009,11.852
			c-6.173,8.984-11.157,18.458-13.325,29.097c-0.601,2.948,0.729,6.758,2.296,9.539c1.36,2.412,1.803,3.771,0.063,6.094
			c-5.285,7.056-3.982,18.533,2.007,25.393c2.076,2.378,2.827,5.905,4.211,8.894c3.9,8.423,7.896,16.802,11.701,25.267
			c3.583,7.972,7.757,15.8,10.199,24.123c1.985,6.768,7.866,8.995,11.834,13.374c4.732,5.221,10.265,9.752,14.683,15.205
			c2.009,2.479,2.609,6.391,3.104,9.762c3.447,23.479,1.643,47.134,2.318,70.709c0.15,5.243,2.547,10.418,3.865,15.636
			c0.32,1.269,0.731,2.6,0.645,3.871c-0.615,9.068-1.209,18.142-2.085,27.188c-0.757,7.824-0.882,15.441,2.763,22.758
			c1.053,2.113,1.328,4.691,1.606,7.098c0.755,6.548,0.959,13.188,2.2,19.633c0.341,1.772,3.56,2.991,6.376,5.176
			c0.141,3.176,4.292,8.624-3.115,10.559c0.569,3.106,1.447,5.633,1.397,8.141c-0.084,4.21-1.085,8.393,3.35,11.364
			c0.837,0.562,1.201,2.985,0.739,4.128c-1.828,4.519,0.279,7.856,2.474,11.472c3.334,5.492,6.261,11.23,9.471,16.8
			c1.571,2.726,3.563,5.213,5.065,7.972c3.639,6.682,9.852,10.333,16.327,13.257c4.393,1.983,9.371,3.009,14.19,3.56
			c2.289,0.262,4.982-1.301,7.194-2.561c2.362-1.346,1.758-3.356-0.561-3.902c-8.834-2.079-13.812-8.644-18.622-15.444
			c-2.857-4.039-3.569-8.284-1.9-13.2c1.889-5.563,3.163-11.347,4.41-17.099c0.204-0.941-1.011-2.283-1.745-3.316
			c-1.815-2.554-4.325-4.805-5.427-7.619c-0.941-2.404-1.503-6.732-0.172-7.941c5.422-4.927,3.137-11.659,5.006-17.317
			c0.311-0.938-1.537-2.52-2.24-3.88c-1.226-2.368-2.843-4.691-3.365-7.226c-0.623-3.023,0.634-4.967,4.48-4.686
			c4.28,0.313,7.359-3.483,6.881-7.74c-0.696-6.191-0.045-6.553,6.02-7.3c9.767-1.203,13.064-5.007,13.683-14.672
			c0.137-2.144-1.639-4.474-2.729-6.618c-1.879-3.696-3.911-7.314-5.878-10.965c0.514-0.612,1.028-1.225,1.542-1.836
			c2.325,1.003,4.859,1.693,6.935,3.073c4.963,3.302,6.045,3.567,9.079-1.632c2.869-4.916,4.896-10.364,6.903-15.725
			c1.362-3.64,1.989-7.55,3.081-11.299c0.264-0.905,0.896-1.879,1.644-2.44c6.522-4.893,8.413-11.702,8.269-19.412
			c-0.044-2.333,0.306-4.718-0.064-6.991c-1.458-8.945,3.635-14.311,10.13-18.842c5.708-3.981,11.686-7.578,17.373-11.587
			c7.124-5.021,10.717-11.88,10.694-20.785c-0.009-3.343,1.319-6.679,1.943-10.035c0.361-1.939,0.566-3.911,0.786-5.875
			c0.735-6.578,1.448-13.159,2.165-19.739c0.107-0.983,0.535-2.093,0.233-2.936c-3.073-8.582,2.529-14.827,5.573-21.843
			c4.129-9.516,8.723-18.97,11.437-28.908c1.815-6.652-0.144-13.441-6.61-18.419c-5.188-3.994-9.376-9.294-13.96-14.061
			c-2.842-2.955-6.17-4.273-10.318-3.893c-2.809,0.259-5.704,0.348-8.484-0.04c-4.154-0.58-7.888-1.785-9.451-6.634
			c-1.5-4.648-13.2-9.194-17.71-7.857c-2.68-3.13-5.125-5.984-7.568-8.84c-0.432-0.505-1.088-0.952-1.247-1.533
			c-1.521-5.542-3.168-11.063-4.369-16.676c-1.914-8.942-5.777-16.508-13.951-21.23c-1.227-0.708-2.891-1.147-4.281-1.008
			c-11.214,1.127-17.563-5.193-22.354-14.163c-0.838-1.568-2.071-2.968-3.3-4.278c-4.406-4.702-8.95-9.276-13.298-14.03
			c-1.059-1.158-1.57-2.818-2.558-4.668c-6.466,4.036-12.814,3.449-19.381,0.268c-2.429-1.177-5.792-0.426-8.223-1.601
			c-3.051-1.476-5.582-4.027-8.336-6.114c-0.413-0.915-0.826-1.831-1.239-2.746c-1.23,3.006-2.461,6.012-3.692,9.018
			c-0.897-0.683-1.794-1.365-2.691-2.048c0.288-1.217,0.706-2.422,0.821-3.655c0.093-0.993-0.179-2.02-0.289-3.031
			c-0.895,0.209-1.944,0.186-2.658,0.665c-4.118,2.765-8.53,5.25-12.099,8.619c-2.73,2.577-4.409,6.291-6.432,9.574
			c-0.394,0.64,0.053,1.814-0.36,2.421c-1.654,2.428-3.495,4.729-5.266,7.077c-1.881-1.453-4.049-2.654-5.585-4.409
			c-3.72-4.25-8.511-5.283-13.806-1.824c-3.323,2.172-5.972,1.714-7.599-1.279c-2.272-4.179-4.318-8.647-5.458-13.24
			c-2.294-9.241-0.082-18.379,1.71-27.479c0.215-1.089-0.072-2.865-0.815-3.453c-3.587-2.84-6.399-6.954-12.529-4.51
			c-2.879,1.147-7.046-0.752-10.56-1.568c-0.563-0.131-1.28-1.978-1.051-2.782c2.882-10.136,5.989-20.207,8.871-30.343
			c0.55-1.935,1.025-5.584,0.416-5.848c-2.119-0.914-5.171-1.605-7.062-0.699c-3.78,1.812-7.902,4.118-7.787,9.361
			c0.083,3.812-1.585,6.422-4.901,7.957c-4.167,1.929-8.295,4.106-12.673,5.365c-4.686,1.347-10.184-3.108-12.639-9.872
			c-2.002-5.515-4.338-11.085-5.083-16.818c-0.479-3.688,1.75-7.695,2.593-11.597c1.179-5.457,2.862-10.919,3.113-16.435
			c0.31-6.797,2.392-12.225,7.679-16.521c3.745-3.043,7.325-6.292,10.929-9.505c5.847-5.213,10.705-5.651,18.009-2.601
			c1.665,0.695,4.404-0.839,6.525-1.664c2.635-1.025,5.06-2.625,7.729-3.517c2.155-0.72,4.538-0.76,6.82-1.097
			c0.98-0.145,2.124-0.673,2.916-0.349c4.194,1.719,8.489,3.329,12.377,5.612c3.233,1.898,4.215,5.047,3.461,9.076
			c-1.209,6.467-1.047,12.982,2.751,18.786c0.651,0.995,1.92,1.587,2.904,2.364c0.656-1.009,1.854-2.003,1.881-3.028
			c0.203-7.522,0.475-15.065,0.121-22.573c-0.309-6.548-0.588-12.587,3.732-18.445c6.293-8.535,13.673-15.705,22.045-22.112
			c3.646-2.79,6.523-6.6,9.665-10.023c0.771-0.84,1.832-2.067,1.707-2.972c-0.917-6.651,2.713-11.884,5.241-17.425
			c0.75-1.644,2.303-2.928,3.519-4.352c1.726-2.021,3.419-4.075,5.238-6.01c1.903-2.024,3.622-4.556,5.984-5.74
			c4.204-2.106,8.891-3.229,13.243-5.075c1.094-0.464,2.435-2.144,2.39-3.212c-0.35-8.402,4.847-13.232,11.087-17.091
			c3.618-2.237,7.811-3.577,11.823-5.119c1.056-0.405,2.4-0.062,3.984-0.062c-0.276,1.423-0.532,2.198-0.555,2.98
			c-0.033,1.21-0.31,3.191,0.235,3.478c1.144,0.601,3.064,0.876,4.123,0.295c7.411-4.064,14.713-8.333,21.986-12.643
			c2.624-1.556,3.133-3.593,1.826-4.952c-4.753,1.792-8.547,4.1-12.538,4.515c-5.367,0.559-8.432-4.966-6.261-10.044
			c1.175-2.746,2.118-5.619,3.559-8.219c2.113-3.814,0.241-4.681-3.095-4.942c-1.753-0.138-3.487-0.516-5.239-0.787
			c1.052-5.825,3.497-7.546,9.461-7.778c7.948-0.312,15.936-0.504,23.808-1.51c3.895-0.498,7.57-2.705,11.345-4.139
			c0.515,0.457,1.03,0.915,1.545,1.372c-2.214,3.853-4.298,7.788-6.688,11.528c-1.516,2.373-3.645,4.351-5.213,6.696
			c-1.997,2.989-0.986,4.201,2.56,4.825c5.607,0.986,11.124,2.504,16.669,3.836c3.6,0.865,4.971-1.436,5.291-4.217
			c0.375-3.261,0.305-6.626-0.063-9.891c-0.119-1.057-1.711-2.654-2.763-2.768c-3.207-0.346-4.653-2.373-4.569-4.963
			c0.137-4.21,0.099-8.81,1.77-12.506c3.417-7.559,2.194-16.496-4.097-21.898c-1.759-1.511-3.969-2.943-4.854-4.914
			c-1.182-2.63-1.888-5.787-1.714-8.652c0.456-7.474-0.503-14.633-2.662-22.981c-1.933,1.765-2.926,2.7-3.949,3.602
			c-3.087,2.718-5.948,5.805-9.391,7.958c-1.533,0.96-4.944,0.855-6.252-0.248c-1.688-1.424-3.076-4.408-2.905-6.587
			c0.407-5.165-0.264-9.066-3.091-13.522c-2.348-3.7-4.974-6.065-9.694-4.867c-1.252,0.318-2.655,0.057-3.988,0.035
			c-9.313-0.145-9.109-0.022-12.191,8.853c-1.597,4.596-4.051,8.948-6.546,13.156c-1.468,2.476-2.427,4.332-0.745,7.23
			c1.866,3.215,0.096,10.795-2.869,12.857c-4.074,2.835-8.357,5.408-12.728,7.766c-3.254,1.755-4.879,3.665-5.679,7.754
			c-1.043,5.338-0.199,11.899-6.104,15.626c-1.919,1.211-3.782,4.048-5.65,1.061c-1.504-2.405-4.894-5.354-1.146-8.754
			c0.362-0.328,0.773-0.603-0.182-1.202c0.604-3.607,0.682-7.417,1.965-10.764c1.209-3.156,0.316-4.105-2.466-4.161
			c-7.521-0.149-11.382-6.248-16.704-9.995c-2.377-1.675-4.853-3.814-7.543-4.298c-4.125-0.74-5.15-2.602-5.017-6.438
			c0.065-1.855-1.533-3.712-1.87-5.656c-0.281-1.623-0.326-3.638,0.396-5.024c4.082-7.835,12.047-11.059,18.965-15.539
			c4.019-2.604,7.726-5.711,11.834-8.15c6.896-4.095,14.002-7.837,21.02-11.728c0.291,0.373,0.581,0.746,0.872,1.119
			c-0.541,0.868-1.374,1.68-1.556,2.618c-0.299,1.537-0.174,3.157-0.228,4.742c1.917,0.031,4.721,0.884,5.592-0.056
			c3.11-3.355,5.947-3.687,9.65-1.195c0.981,0.66,2.66,0.285,4.019,0.385c-0.257-1.638,0.002-3.657-0.872-4.838
			c-2.078-2.81-4.693-5.223-7.791-8.547c5.529-2.071,9.89-3.396,13.947-5.35c2.147-1.035,4.387-2.831,5.49-4.875
			c2.051-3.797,3.137-8.104,4.985-12.028c0.533-1.134,2.206-2.16,3.518-2.418c3.691-0.727,7.492-0.879,11.202-1.531
			c5.233-0.92,10.01,3.771,9.141,8.413c2.233,1.507,5.998,3.019,5.894,4.185c-0.231,2.584-2.114,5.225-3.859,7.415
			c-2.274,2.854-4.739,5.805-7.746,7.744c-2.202,1.421-5.693,2.273-8.103,1.59c-3.239-0.919-5.523-0.652-7.562,1.704
			c-0.735,0.849-1.526,2.872-1.187,3.193c0.911,0.863,2.541,1.71,3.671,1.485c10.129-2.017,9.477-1.669,15.362,7.36
			c2.438,3.738,8.232,5.331,12.636,7.64c0.269,0.141,2.237-1.896,2.521-3.126c0.324-1.41-0.35-3.05-0.808-5.99
			c3.672,2.104,6.129,3.512,8.492,4.866c1.498-2.28,3.208-4.156,4.019-6.361c0.572-1.562,0.298-3.694-0.262-5.349
			c-0.836-2.474-2.837-4.661-3.221-7.144c-0.256-1.656,1.439-3.613,2.261-5.437c1.493,0.802,3.181,1.384,4.414,2.478
			c0.923,0.818,1.002,2.594,1.929,3.403c1.065,0.93,2.851,2.003,3.967,1.701c2.331-0.631,4.771-1.752,6.526-3.368
			c1.817-1.675,4.521-5.36,3.982-6.107c-2.342-3.246-5.315-6.562-8.828-8.31c-4.833-2.405-5.73-2.623-3.067-7.403
			c2.354-4.226,1.171-6.905-2.493-9.127c-3.268-1.98-6.884-3.493-9.847-5.842c-2.858-2.267-5.042-5.373-7.601-8.034
			c-0.938-0.976-2.073-2.433-3.166-2.476c-6.672-0.264-13.378-0.499-20.029-0.075c-2.985,0.189-5.873,1.926-8.554,2.872
			c0-1.23,0-2.827,0-4.423c-1.625,0.334-3.235,0.842-4.877,0.973c-7.117,0.567-9.741,7.015-14.18,10.974
			c-3.229,2.881-1.638,8.315,2.008,9.027c1.82,0.356,3.564,1.106,5.344,1.679c-0.957,2.377-1.346,5.303-2.995,7.011
			c-2.972,3.075-6.587,5.589-10.176,7.97c-1.095,0.727-2.986,0.252-4.513,0.327c0.024-1.369-0.409-2.977,0.158-4.063
			c1.695-3.249,0.896-5.264-1.801-7.704c-4.69-4.246-4.799-15.257-0.421-18.262c1.671-1.146,4.115-1.099,5.981-2.043
			c3.653-1.848,7.148-4.009,9.279-5.225c0.416-4.059,0-7.113,1.118-9.428c2.252-4.662,3.34-4.371,6.884-0.398
			c1.32,1.48,3.666,2.841,5.568,2.872c9.291,0.156,18.593-0.097,27.886-0.384c1.06-0.032,2.085-1.186,3.527-2.063
			c-6.3-6.315-14.025-3.043-20.661-4.516c-0.414-0.54-0.829-1.081-1.243-1.621c1.035-0.397,2.04-0.991,3.111-1.159
			c4.89-0.77,9.811-2.074,14.696-1.979c10.781,0.209,20.502-2.146,29.066-8.95c6.168-4.898,13.141-8.15,20.883-10.003
			c11.201-2.68,22.296-5.81,33.428-8.779c0.417-0.111,0.747-0.549,1.909-1.442c-2.071-0.197-3.408-0.433-4.746-0.434
			c-10.333-0.005-20.694,0.531-30.991-0.072c-11.31-0.662-21.848,2.922-32.753,4.444c-7.2,1.005-14.538,1.003-21.757,1.912
			c-2.723,0.343-5.319,1.898-7.901,3.062c-1.472,0.664-2.733,2.214-4.202,2.383c-3.527,0.405-6.519,1.849-5.016,5.453
			c1.214,2.914,4.464,5.013,6.939,7.334c0.378,0.354,1.457-0.041,2.399-0.102c-2.929,7.031-15.372,10.21-20.586,5.609
			c-0.374-0.33-0.653-0.885-1.078-1.021c-1.788-0.572-3.97-1.861-5.325-1.284c-1.327,0.566-1.85,3.064-2.684,4.735
			c-0.851,1.705-1.394,4.673-2.524,4.908c-2.722,0.566-5.369-0.001-5.916-4.085c-0.535-3.991-4.4-5.28-7.221-3.525
			c-2.163,1.347-2.9,5.031-4.062,7.766c-0.048,0.113,1.987,1.495,3.139,1.654c2.128,0.293,4.418-0.27,6.461,0.242
			c2.236,0.56,4.269,1.931,7.249,3.36c-11.957,6.403-19.491,15.425-27.013,24.063c-3.391,3.895-5.885,6.013-11.063,6.317
			c-2.747,0.161-5.949,2.932-7.825,5.382c-3.717,4.853-15.764,8.478-20.281,4.311c-7.376-6.808-12.689-5.359-20.378,0.15
			c-4.425,3.172-12.26,1.585-18.56,2.14c0.288-0.838,0.576-1.676,0.864-2.514c-1.94-2.068-3.518-5.138-5.896-6.001
			c-5.153-1.871-10.732-2.543-16.105-3.838c-5.235-1.263-10.373-3.073-15.669-3.877c-2.509-0.38-5.314,0.938-7.942,1.644
			c-6.513,1.75-12.518,4.761-19.961,2.771c-3.862-1.032-8.694,1.848-13.15,2.594c-1.581,0.265-3.556-0.167-4.985-0.949
			c-4.934-2.7-9.542-5.124-15.76-4.367c-5.103,0.621-10.491-0.903-15.728-1.651c-2.751-0.394-5.45-1.153-8.169-1.764
			c-1.769-0.396-3.998-0.279-5.216-1.327c-5.486-4.716-11.306-3.398-17.117-1.328c-6.072,2.163-11.976,4.797-18.026,7.024
			c-4.07,1.498-8.269,2.647-12.208,3.891c-0.514-0.751-0.86-1.021-0.861-1.292c-0.133-24.886-2.703-50.002,6.948-73.969
			c10.384-25.787,26.866-45.469,54.58-53.388c5.993-1.712,12.446-2.547,18.688-2.549c328.994-0.119,657.987-0.157,986.98-0.022
			c31.56,0.013,52.971,17.148,67.784,43.582c8.86,15.811,12.738,33.094,12.985,51.179c0.109,7.98,0.019,15.964,0.019,24.232
			c-1.361,0.248-2.574,0.864-3.506,0.574c-6.841-2.126-13.629-4.426-20.427-6.692c-1.242-0.414-2.425-1.23-3.681-1.342
			c-7.76-0.688-15.529-1.253-23.302-1.785c-1.104-0.075-2.238,0.254-3.306,0.39c-0.462,6.688-0.471,6.803-7.295,6.693
			c-4.383-0.07-8.759-0.518-13.407-0.813c-2.027,5.197-4.372,5.985-10.049,2.044c-5.388-3.739-10.085-8.674-15.831-11.639
			c-4.758-2.455-10.603-2.808-15.775-4.046c-1.129,2.159-1.872,5.092-2.835,5.165c-4.586,0.352-9.259,0.183-13.848-0.3
			c-4.16-0.438-8.289-1.372-12.363-2.37c-2.898-0.71-6.049-1.352-8.437-2.978c-4.283-2.916-5.518-2.521-9.492,1.156
			c-1.841,1.702-5.654,1.271-8.574,1.807c-0.075-1.195-0.648-2.765-0.103-3.492c0.695-0.925,2.563-0.894,3.455-1.76
			c2.04-1.979,3.795-4.254,5.665-6.409c-2.172-1.664-4.13-4.215-6.562-4.805c-4.93-1.193-10.16-1.087-15.182-1.987
			c-2.771-0.497-5.733-1.447-7.971-3.073c-4.53-3.291-15.521-1.993-18.278,2.667c-1.928,3.258-4.47,4.796-8.49,5.001
			c-8.182,0.419-16.414,1.085-24.444,2.605c-2.971,0.563-7.271,1.629-7.639,6.517c-0.067,0.896-1.846,2.063-3.026,2.372
			c-1.559,0.407-3.307,0.071-4.973,0.089c-5.56,0.059-5.771,0.408-3.741,5.427c0.406,1.002,0.441,2.153,0.688,3.446
			c-3.329,0-6.291-0.114-9.239,0.034c-2.631,0.133-3.684,1.169-1.979,3.854c0.642,1.011,0.446,2.554,0.633,3.854
			c-1.625-0.276-3.556-0.107-4.787-0.955c-1.191-0.819-1.713-2.661-2.437-4.1c-0.684-1.359-1.249-2.778-2.06-4.607
			c-1.229,2.868-1.938,5.032-3.077,6.938c-0.482,0.808-2.002,1.619-2.813,1.428c-0.802-0.188-1.929-1.711-1.838-2.529
			c0.569-5.144-1.789-7.306-6.704-7.776c-1.455-0.139-2.786-1.563-4.723-2.729c-0.473,0.72-1.233,1.367-1.323,2.098
			c-0.757,6.131-4.604,12.241-0.763,18.414c1.218,1.958,3.725,3.069,5.258,4.893c1.189,1.415,1.781,3.333,2.639,5.027
			c-1.663,0.014-3.539,0.543-4.952-0.045c-7.394-3.071-14.274-7.438-22.888-6.828c-2.707,0.191-5.543-1.415-8.911-2.366
			c1.369,2.174,2.544,4.04,3.118,4.951c-5.236,1.544-10.738,2.847-15.973,4.851c-2.397,0.919-3.769,1.427-5.43-0.987
			c-0.524-0.762-2.784-1.169-3.696-0.688c-5.532,2.918-10.854,6.234-16.36,9.207c-1.812,0.978-3.963,1.327-5.959,1.963
			c-0.102-1.73-0.111-3.473-0.332-5.188c-0.174-1.352-0.205-3.437-1.002-3.854c-2.086-1.094-4.557-1.453-8.184-2.474
			c1.803,4.936,2.956,8.13,4.137,11.313c1.37,3.697-1.154,3.938-3.633,3.956c-6.218,0.043-8.482,1.633-9.83,7.581
			c-0.683,3.015-1.953,4.156-4.839,2.406c-0.428-0.259-0.843-0.718-1.283-0.744c-2.144-0.131-4.293-0.145-6.44-0.2
			c0.616,1.864,1.233,3.729,1.812,5.478c-1.676-0.625-4.291-0.989-6.046-2.413c-2.106-1.71-3.738-4.178-5.094-6.589
			c-1.136-2.018-1.578-4.424-2.328-6.659c2.801,0.274,5.813-0.016,8.359,0.938c5.717,2.143,10.574,1.235,15.329-2.375
			c3.069-2.331,3.454-4.565-0.049-6.397c-4.308-2.252-8.985-3.865-13.616-5.414c-7.708-2.578-15.547-4.768-23.232-7.409
			c-1.523-0.523-2.818-2.187-3.845-3.596c-3.349-4.602-6.538-5.324-11.557-2.625c-1.544,0.831-3.584,1.94-5.034,1.556
			c-12.053-3.197-21.946,2.62-32.115,7.313c-2.802,1.294-5.474,2.868-8.415,4.425c4.141,6.395-1.809,8.985-4.339,11.918
			c-3.756,4.352-6.204,8.787-7.251,14.352c-0.901,4.795-4.401,6.358-9.192,5.867c-2.23-0.228-4.941,1.026-6.946,2.349
			c-8.767,5.783-10.871,12.81-7.337,22.619c0.479,1.329,0.347,2.924,0.301,4.389c-0.123,3.977,3.725,8.788,7.664,9.063
			c1.12,0.078,2.455-0.727,3.44-1.463c1.184-0.883,2.051-2.177,3.141-3.202c5-4.705,7.134-4.105,9.382,2.388
			c0.697,2.017,2.058,3.802,2.786,5.812c0.769,2.12,1.745,4.458,1.48,6.556c-0.18,1.425-2.167,3.255-3.68,3.661
			c-1.069,0.287-3.052-1.236-3.977-2.448c-0.948-1.241-1.267-3.058-1.562-4.678c-0.243-1.335-0.05-2.75-0.05-4.349
			c-7.799,2.273-11.072,9.181-8.317,16.231c0.665,1.702,1.488,3.345,2.139,5.053c1.095,2.871,0.29,4.944-2.8,5.747
			c-3.041,0.79-6.117,1.446-9.186,2.127c-3.248,0.72-6.659,1.957-6.257,5.79c0.592,5.657-2.744,8.297-6.757,10.521
			c-3.369,1.867-6.417,3.478-7.895,7.614c-2.107,5.903-7.904,4.228-12.98,4.876c0.566,5.893-3.162,5.147-7.028,4.44
			c-1.259-0.23-2.753-0.24-3.891,0.239c-1.1,0.463-2.428,1.579-2.631,2.609c-0.178,0.9,0.811,2.56,1.731,3.064
			c9.978,5.46,13.32,14.136,12.714,24.988c-0.302,5.385-2.942,8.387-8.217,8.459c-5.165,0.071-10.335,0.105-15.498-0.04
			c-1.592-0.045-3.163-1.037-4.75-1.054c-2.221-0.023-4.972-0.232-6.513,0.936c-1.355,1.026-2.259,4.071-1.803,5.818
			c1.821,6.987,1.125,13.552-2.055,19.893c-1.855,3.7-2.316,7.26,0.05,10.88c0.18,0.274,0.423,0.619,0.393,0.905
			c-0.652,6.104,2.111,7.871,8.049,7.588c3.776-0.18,6.926,9.748,4.969,14.547c-2.308,5.658-5.143,10.486-10.419,14.539
			c-5.818,4.471-9.818,11.061-9.136,19.54c0.613,7.624-6.351,16.883-13.646,19.78c-1.273,0.505-2.487,1.687-3.244,2.867
			c-2.474,3.858-4.879,7.779-7.003,11.838c-1.25,2.387-1.934,5.072-2.835,7.638c-0.218,0.618-0.063,1.547-0.461,1.896
			c-6.962,6.111-5.197,16.231-10.612,23.054c-0.557,0.701-0.787,1.899-0.706,2.826c0.504,5.769,1.604,11.524,1.62,17.287
			c0.022,8.408,0.885,17.316-1.552,25.089c-2.53,8.068-0.453,15.202,0.324,22.655c0.292,2.805,2.449,5.853,4.584,7.947
			c6.816,6.688,10.857,14.484,13.505,23.741c1.517,5.304,6.415,9.833,10.364,14.191c3.718,4.103,8.304,7.406,12.28,11.293
			c2.043,1.996,3.595,2.93,6.374,1.074c7.66-5.116,15.895-3.659,24.323-2.162c2.536,0.45,6.076-1.313,8.289-3.122
			c6.511-5.321,13.546-7.965,22.026-7.079c4.114,0.43,6.764,1.703,7.964,6.023c2.344,8.437,2.519,8.389,11.138,8.384
			c9.964-0.005,11.201,1.297,11.201,11.228c0,8.953,0.638,17.97-4.055,26.214c-0.405,0.711-0.286,2.024,0.09,2.823
			c1.446,3.082,3.066,6.084,4.675,9.087c3.403,6.35,7.399,12.455,10.095,19.09c2.39,5.883,3.318,12.355,4.966,18.548
			c0.376,1.411,1.136,2.716,1.577,4.114c0.387,1.228,1.239,2.961,0.742,3.709c-3.433,5.166,0.301,9.297,1.563,13.815
			c0.565,2.022,1.242,4.329,0.798,6.261c-1.501,6.528-2.685,13.313-5.455,19.325c-4.876,10.58-3.499,21.562-3.205,32.393
			c0.123,4.529,3.397,8.892,4.687,13.485c3.004,10.705,7.905,20.672,8.609,32.305c0.789,13.036,3.993,25.907,9.459,38.193
			c3.355,7.543,6.02,15.656,5.844,24.396c-0.076,3.799,1.022,8.05,2.892,11.359c2.887,5.113,8.3,2.653,11.591,1.004
			c4.499-2.256,9.007-1.714,13.427-2.693c7.578-1.678,15.767-2.062,20.639-10.323c5.698-9.662,13.163-18.301,18.636-28.071
			c2.948-5.264,3.998-11.892,4.653-18.038c0.463-4.344,1.418-7.697,4.951-10.231c8.597-6.169,11.51-13.724,7.558-27.4
			c-1.469-5.082-2.043-10.327,2.064-15.045c5.826-6.69,10.102-14.521,18.454-19.186c4.583-2.56,8.063-7.637,7.463-14.252
			c-0.54-5.951,0.327-12.03-0.225-17.979c-0.755-8.146-2.131-16.244-3.487-24.32c-1.407-8.375-4.356-16.585-2.966-25.239
			c0.625-3.894,1.237-8.013,2.991-11.452c3.125-6.129,4.127-13.069,8.979-18.651c5.499-6.327,9.408-14.013,14.315-20.89
			c1.759-2.463,4.682-4.072,6.589-6.457c2.566-3.209,5.064-6.593,6.89-10.251c5.585-11.195,11.625-22.266,15.94-33.956
			c2.963-8.027,5.946-16.502,4.885-25.587c-0.359-3.075-1.424-3.962-4.091-2.785c-3.771,1.663-7.359,3.776-11.205,5.219
			c-4.838,1.815-9.769,3.653-14.824,4.525c-3.998,0.69-8.299-4.918-8.167-10.632c0.088-3.811-2.132-5.567-4.034-8.29
			c-8.047-11.511-20.499-20.403-22.124-35.916c-0.158-1.507-1.213-3.223-2.37-4.267c-3.979-3.588-5.477-8.057-4.357-13.05
			c1.556-6.938-3.682-11.407-5.668-17.002c-4.509-12.693-9.736-25.133-14.654-37.633c5.687-3.369,8.408-2.544,11.122,2.76
			c5.424,10.596,11.047,21.09,16.446,31.697c0.704,1.384,0.478,3.215,0.851,4.799c0.897,3.814,1.202,7.978,3,11.326
			c3.414,6.356,7.809,12.179,11.588,18.35c1.709,2.788,3.337,5.771,4.169,8.887c0.371,1.391-1.311,3.33-1.148,4.477
			c2.426,7.495,5.129,14.915,7.175,22.512c1.276,4.734,5.864,7.118,8.655,3.154c3.946-5.604,10.698-4.292,14.966-7.992
			c6.328-5.486,16.33-6.019,19.945-15.361c0.819-2.118,4.171-3.921,6.69-4.567c4.297-1.103,7.273-2.533,9.231-7.11
			c1.51-3.53,5.503-5.931,8.013-9.131c1.115-1.422,1.347-3.561,1.88-5.403c0.271-0.937-0.035-2.369,0.532-2.841
			c4.496-3.74,4.409-9.495,6.457-14.283c1.737-4.063-2.301-11.812-6.595-11.934c-6.756-0.191-8.754-4.223-9.771-9.788
			c-0.338-1.853-1.206-3.608-2.276-6.686c-2.784,3.695-4.567,6.646-6.936,9.01c-1.753,1.749-4.156,3.595-6.466,3.896
			c-7.145,0.935-8.205-0.32-8.378-7.586c-0.03-1.242-0.429-2.475-0.66-3.727c-7.063,1.712-6.575,1.573-8.427-4.935
			c-1.139-4.002-3.673-7.787-6.256-11.151c-3.417-4.45-3.302-9.06-1.308-13.609c0.769-1.754,3.331-3.48,5.268-3.729
			c1.636-0.21,4.13,1.311,5.216,2.811c2.117,2.925,4.023,6.211,5.103,9.636c2.009,6.376,7.623,8.971,12.385,12.159
			c2.106,1.41,5.875,0.604,8.854,0.361c2.288-0.186,5.17-2.166,6.595-1.325c1.437,0.848,1.393,4.191,2.018,6.437
			c0.087,0.309,0.293,0.584,0.716,1.398c5.699,0.986,12.086,1.171,17.712,3.332c5.271,2.024,10.281,3.202,15.821,2.808
			c2.767-0.197,5.586,0.201,8.333-0.105c5.022-0.561,7.62,2.435,9.853,6.147c0.512,0.851,0.709,1.993,1.398,2.62
			c5.172,4.7,8.712,9.641,10.011,17.249c1.144,6.695,7.872,5.995,13.545-1.31c0.936,4.143,1.938,8.271,2.791,12.432
			c1.536,7.492,2.897,15.021,4.498,22.5c0.944,4.409,2.056,8.796,3.361,13.11c1.909,6.315,4.049,12.561,6.11,18.829
			c2.15,6.536,4.37,13.05,6.466,19.604c0.985,3.085,1.512,6.335,2.706,9.327c0.689,1.727,2.296,3.087,3.489,4.612
			c1.136-1.209,2.524-2.265,3.358-3.654c2.531-4.215,5.039-8.469,7.157-12.898c0.878-1.837,0.942-4.15,1.031-6.262
			c0.274-6.482,0.389-12.971,0.546-19.457c0.028-1.165,0.401-2.603-0.126-3.454c-3.815-6.147,0.457-8.771,4.128-13.005
			c6.853-7.903,12.183-17.12,18.253-25.716c0.802-1.136,2.471-1.65,3.309-2.772c1.598-2.144,3.813-4.396,4.13-6.818
			c1.002-7.662,3.354-9.199,9.866-5.376c2.855-1.511,5.73-3.103,8.668-4.567c3.495-1.742,7.827,1.119,7.561,5.772
			c-0.299,5.209,2.875,7.752,5.897,10.844c1.325,1.355,2.032,3.344,2.91,5.1c1.077,2.153,1.646,4.694,3.143,6.472
			c2.162,2.567,3.082,4.982,1.836,8.201c-0.466,1.202-0.892,2.743-0.535,3.878c0.847,2.689,2.173,5.229,3.305,7.829
			c2.255-1.284,4.58-2.462,6.734-3.898c1.077-0.718,1.691-2.162,2.79-2.81c1.019-0.6,2.653-1.103,3.558-0.675
			c0.899,0.425,1.478,1.999,1.762,3.175c1.447,5.983,3.052,11.953,4.033,18.02c1.229,7.592,2.2,15.253,2.728,22.922
			c0.433,6.289,0.025,12.635,0.07,18.955c0.005,0.759,0.277,1.894,0.811,2.214c7.554,4.537,7.994,13.449,12.317,19.958
			c0.545,0.82,0.765,2.695,0.246,3.248c-3.494,3.729-0.604,6.58,0.83,9.855c2.096,4.788,4.583,8.816,9.649,11.221
			c2.097,0.995,3.196,4.018,4.865,6.021c0.766,0.918,1.812,1.603,2.729,2.394c0.234-0.344,0.468-0.688,0.702-1.031
			c-2.004-5.005-4.031-10-5.991-15.021c-0.415-1.062-0.877-2.231-0.826-3.329c0.518-11.316-4.248-19.87-12.993-26.824
			c-3.1-2.465-6.28-5.615-5.5-10.562c0.156-0.99-0.48-2.306-1.133-3.19c-4.105-5.567-2.655-11.606-1.774-17.658
			c0.449-3.088,0.227-6.301,0.922-9.315c0.488-2.117,2.014-3.995,3.075-5.979c1.124,1.324,2.259,2.64,3.365,3.979
			c0.409,0.494,0.644,1.348,1.141,1.525c7.768,2.772,10.902,9.544,14.204,16.209c0.336,0.68,1.04,1.595,1.648,1.656
			c5.141,0.512,5.894,2.733,3.176,6.925c-0.484,0.747,0.321,2.331,0.531,3.528c1.102-0.363,2.675-0.388,3.222-1.148
			c2.107-2.935,3.746-6.205,5.851-9.141c0.968-1.351,2.48-2.458,3.971-3.257c4.07-2.183,6.311-4.94,6.813-10.017
			c1.407-14.185-3.592-25.566-12.822-35.95c-3.756-4.225-6.543-9.57-8.699-14.844c-0.985-2.409,0.062-6.12,1.211-8.802
			c1.211-2.826,3.779-5.04,5.513-7.68c2.38-3.625,5.869-3.513,9.338-2.788c0.97,0.202,1.821,1.947,2.319,3.153
			c0.478,1.153,0.424,2.526,0.719,4.627c1.361-1.145,2.185-1.49,2.253-1.947c0.713-4.805,3.151-6.714,8.216-6.388
			c1.895,0.122,3.954-2.314,6.334-3.838c0.106,1.628,0.299,3.185,0.299,4.74c0.016,45.332,0.008,90.665,0.018,135.997
			c0.001,5.559,0.49,10.802-7.131,12.712c-4.458,1.117-5.663,12.167-2.188,16.449c2.462,3.035,3.764,5.729,2.782,9.914
			c-1.188,5.065,1.448,8.696,6.311,10.367c0,7.051,0,14.181,0,20.794c-2.956,0.974-5.688,2.432-8.523,2.669
			c-3.805,0.317-7.734,0.892-10.767-3.222c-2.64-3.581-8.43-2.227-9.8,0.895c4.063,3.013,7.654,6.405,11.866,8.608
			c5.087,2.659,10.702,4.31,16.089,6.396c0.375-0.411,0.75-0.823,1.125-1.234c0.077,1.749,0.223,3.498,0.222,5.247
			c-0.011,35.166,0.04,70.332-0.141,105.497c-0.03,5.862-0.886,11.751-1.792,17.561c-0.268,1.722-2.01,3.213-3.338,5.2
			c6.633,12.54,2.835,26.562,3.172,40.114c0.131,5.245-3.314,10.863-6.055,15.799c-1.975,3.557-1.517,6.91,2.786,7.512
			c4.046,0.565,5.489,2.128,5.475,6.406c-0.162,48.332,0.27,96.668-0.272,144.995c-0.311,27.589-9.513,52.184-29.395,72.013
			c-14.058,14.021-31.043,21.422-51.063,21.394c-2-0.002-4,0.002-6,0.002c-324.16,0-648.32,0-972.481,0
			c-43.347,0-73.254-22.322-84.57-64.354c-2.986-11.094-4.414-22.946-4.424-34.453c-0.237-279.66-0.186-559.322-0.181-838.983
			c0-8.279,6.457-11.757,13.875-7.677c2.579,1.419,5.382,2.699,8.238,3.3c9.768,2.05,13.928,8.327,12.032,18.226
			c-0.745,3.891-1.267,7.928-1.052,11.852c0.094,1.718,2.258,3.345,3.54,4.968c1.072,1.356,3.128,2.604,3.193,3.975
			c0.324,6.779,0.046,13.585,0.162,20.379c0.048,2.845-0.317,4.762-3.812,5.104c-3.07,0.3-3.88,2.272-2.115,4.982
			c0.454,0.697,0.847,1.469,1.431,2.041c4.227,4.145,7.008,7.848,3.13,14.499c-4.105,7.04-6.167,15.253-9.374,22.847
			c-0.95,2.25-2.732,4.153-4.168,6.19c-0.671,0.952-1.56,1.771-2.122,2.777c-3.887,6.956-5.241,14.884-8.903,22.137
			c-3.101,6.141-0.426,15.285-0.009,23.084c0.236,4.422,0.768,8.882,1.747,13.193c0.648,2.853,1.658,6.199,3.675,8.051
			c4.8,4.405,7.268,8.885,7.614,15.863c0.41,8.255-0.74,17.135,4.085,24.838c0.537,0.857,0.729,2.654,0.203,3.339
			c-5.169,6.717,1.005,10.224,3.923,14.688c1.048,1.604,2.719,3.444,2.587,5.054c-0.38,4.658,1.345,8.325,3.74,12.039
			c1.489,2.311,2.387,5.003,3.55,7.523C73.494,495.995,74.122,495.966,74.75,495.937z M437.397,164.292
			c-10.602,8.093-12.398,18.837-11.236,30.404c0.679,6.755,1.683,13.518,3.19,20.129c0.601,2.637,2.611,5.216,4.603,7.196
			c1.913,1.903,4.76,2.827,6.964,4.489c3.699,2.79,8.064,2.753,10.523-0.757c5.516-7.876,12.081-15.352,15.867-24.018
			c4.267-9.766,12.899-10.725,20.653-14.035c4.383-1.87,9.722-2.636,13.04-5.649c9.887-8.977,22.079-12.935,34.024-17.62
			c2.448-0.961,4.737-2.65,7.254-3.059c7.851-1.274,7.994-1.101,7.835-9.225c-0.089-4.539,1.084-8.124,5.307-10.444
			c2.02-1.109,4-2.479,5.576-4.134c0.904-0.949,1.714-3.042,1.267-4.037c-1.714-3.821-0.155-7.086,2.428-8.905
			c3.76-2.646,2.737-4.69,0.993-7.764c-2.725-4.802-1.708-6.55,3.7-8.041c2.069-0.571,4.141-1.334,6.017-2.362
			c4.352-2.387,8.584-4.988,12.864-7.502c-0.188-0.491-0.375-0.981-0.563-1.472c-1.624,0.247-3.24,0.598-4.873,0.72
			c-3.444,0.259-7.606,1.709-10.198,0.31c-5.112-2.761-9.974-5.522-15.837-6.447c-5.327-0.84-10.56-3.245-15.837-3.255
			c-12.098-0.022-24.192,1.121-36.298,1.528c-4.833,0.163-9.582-0.205-13.72,3.14c-1.181,0.954-3.095,1.28-4.704,1.378
			c-7.124,0.432-14.306,0.274-21.382,1.075c-12.748,1.442-25.436,3.418-37.886,5.134c-0.566,7.089-1.714,8.859-5.711,9.552
			c-6.027,1.044-12.087,1.919-18.09,3.09c-1.912,0.373-3.686,1.461-5.523,2.222c1.472,1.824,2.601,4.652,4.476,5.29
			c6.563,2.233,13.29,4.4,20.126,5.306c9.229,1.222,15.282,8.035,13.565,17.094c-0.413,2.177-1.669,4.194-2.604,6.443
			c2.202,1.489,4.283,2.897,7.564,5.116c-3.602,1.171-6.081,1.498-7.999,2.713C429.893,159.72,431.298,162.146,437.397,164.292z
			 M861.94,759.262c-2.581,4.666-4.447,9.111-7.257,12.848c-3.426,4.559-6.964,9.642-11.668,12.5
			c-8.536,5.188-11.376,12.166-7.889,21.902c1.256,3.505,1.811,8.426,0.297,11.538c-4.256,8.746-6.234,17.55-5.921,27.269
			c0.173,5.372,3.415,8.42,6.188,12.005c0.455,0.589,2.129,0.644,3.079,0.376c7.735-2.177,9.613-8.911,11.298-15.429
			c1.512-5.852,2.265-11.898,3.37-17.855c1.118-6.032,2.213-12.07,3.415-18.086c0.354-1.774,0.78-3.62,1.617-5.197
			c3.432-6.467,0.261-15.175,6.992-20.503c0.203-0.16,0.242-0.629,0.229-0.949C865.443,773.043,867.366,766.062,861.94,759.262z
			 M207.646,149.058c0.468,0.329,0.936,0.657,1.404,0.985c-0.818,2.906-1.549,5.841-2.477,8.712
			c-0.92,2.846-3.567,5.512-0.312,8.556c5.138,4.806,8.667,5.689,13.275,3.288c2.042-1.064,4.123-2.542,6.297-2.771
			c4.985-0.522,10.045-0.604,15.061-0.435c2.359,0.08,4.795,0.894,7,1.833c3.795,1.617,11.107-2.61,10.021-6.433
			c-1.607-5.648-0.957-10.736,0.754-16.084c0.367-1.146-0.582-3.547-1.594-4.065c-1.001-0.514-3.244,0.201-4.232,1.131
			c-1.527,1.439-2.215,3.758-3.718,5.237c-0.895,0.882-2.881,1.52-4.008,1.148c-4.286-1.414-8.496-3.127-12.58-5.056
			c-1.751-0.827-3.902-2.161-4.519-3.779c-1.747-4.584-4.479-6.729-9.457-6.091c-2.292,0.294-4.655,0.014-6.984,0.059
			c-4.031,0.079-6.928,1.712-9.746,4.915c-2.956,3.36-7.322,5.462-10.989,8.223c-1.223,0.921-2.193,2.179-3.278,3.282
			c1.477,1.307,3.073,3.818,4.406,3.686c3.416-0.341,6.785-1.681,10.035-2.969C204.015,151.635,205.774,150.204,207.646,149.058z
			 M1148.557,690.165c-1.894-3.284-3.453-6.27-5.289-9.075c-1.261-1.927-2.591-4.101-4.451-5.279
			c-3.081-1.952-5.436-3.483-2.136-7.196c0.376-0.424-0.029-1.953-0.522-2.652c-1.044-1.48-2.299-2.843-3.62-4.091
			c-4.706-4.441-9.69-8.613-14.124-13.308c-1.957-2.071-2.245-5.856-4.336-7.637c-5.151-4.386-10.848-8.15-16.485-11.926
			c-0.845-0.566-2.554,0.156-3.862,0.283c0.591,1.016,1.105,2.086,1.786,3.038c3.095,4.324,6.237,8.615,9.36,12.92
			c0.766,1.056,1.291,2.529,2.321,3.105c4.174,2.337,6.352,5.863,7.849,10.333c2.4,7.167,7.465,14.089,7.64,21.207
			c0.287,11.733,7.456,18.821,13.643,26.801c1.435,1.851,4.802,2.203,7.279,3.245c1.249-3.076,2.877-6.063,3.646-9.254
			C1148.113,697.117,1148.191,693.368,1148.557,690.165z M612.69,235.436c-0.244-0.219-0.487-0.437-0.731-0.655
			c-1.52,0.958-2.924,2.373-4.58,2.79c-4.912,1.237-7.771,4.368-8.864,9.057c-0.584,2.504-0.45,5.176-0.624,7.772
			c-0.429,6.4,0.48,7.563,6.459,9.639c1.263,0.438,2.494,1.846,3.109,3.113c2.368,4.87,0.134,7.854-4.224,9.313
			c-0.139,1.771,0.291,3.91-0.444,4.445c-4.726,3.435-1.663,5.491,1.24,7.432c-1.747,2.446-3.306,4.629-4.865,6.813
			c0.379,0.399,0.759,0.8,1.138,1.199c1.196-0.324,2.713-0.292,3.532-1.032c3.688-3.328,8.054-3.564,12.619-3.284
			c5.11,0.313,10.362,0.827,9.952-6.903c-0.029-0.556,0.571-1.18,0.959-1.715c1.864-2.572,0.92-4.086-1.62-5.545
			c-1.595-0.917-3.168-2.373-4.028-3.975c-2.894-5.386-4.871-11.364-8.359-16.295c-2.479-3.506-2.597-5.506,0.231-8.404
			c1.66-1.702,1.636-4.073-1.072-4.633c-5.504-1.137-4.306-3.294-1.437-6.205C611.834,237.6,612.166,236.422,612.69,235.436z
			 M223.644,125.904c3.702,2.004,6.807,3.644,9.872,5.355c3.547,1.982,6.95,4.274,10.643,5.92c1.357,0.605,3.418-0.05,5.069-0.478
			c5.401-1.401,10.69-3.814,16.154-4.271c9.528-0.798,9.573-0.312,5.293-8.444c-0.118-0.223-0.573-0.268-0.87-0.396
			c-4.288,2.628-9.311,6.007-13.434,5.135c-4.116-0.87-10.675-2.881-9.331-11.804C238.468,120.213,231.07,123.054,223.644,125.904z
			 M549.327,205.903c6.106-2.502,11.004-4.869,16.135-6.499c4.25-1.351,5.75-4.387,4.87-7.91c-0.917-3.674-4.335-3.139-7.773-3.175
			c-7.481-0.078-15.423,5.65-22.652-1.372c-0.495-0.481-3.667,1.794-5.594,2.786c0.991,1.18,1.911,2.43,2.992,3.521
			c1.398,1.41,3.026,2.6,4.378,4.05C544.28,200.09,546.753,202.992,549.327,205.903z M207.056,496.3
			c-0.312,0.854-0.624,1.707-0.935,2.56c3.756,2.018,7.377,4.363,11.301,5.974c5.405,2.218,8.857,5.463,8.87,11.69
			c0.006,3.05,1.613,5.256,4.922,4.915c3.856-0.396,7.692-1.165,11.471-2.052c1.235-0.289,2.265-1.452,3.388-2.215
			c-0.926-1.138-1.711-2.441-2.81-3.376c-1.792-1.523-4.122-2.515-5.636-4.246c-4.755-5.435-9.262-11.009-17.607-10.329
			c-1.052,0.086-2.15-0.762-3.265-1C213.533,497.532,210.291,496.934,207.056,496.3z M597.968,263.222
			c-7.528-2.845-7.485-2.809-11.864,2.363c-0.674,0.796-1.899,1.315-2.962,1.561c-4.369,1.011-4.406,3.517-3.138,7.159
			c0.58,1.665,0.043,3.85-0.398,5.701c-0.43,1.799-1.385,3.473-2.109,5.202c2.587,0.104,5.42,0.942,7.713,0.172
			c6.304-2.117,11.809-5.268,9.855-13.647c-0.173-0.74,0.917-1.709,1.22-2.637C596.922,267.139,597.427,265.138,597.968,263.222z
			 M275.163,530.886c-4.467-9.763-6.243-10.957-15.28-10.976c-0.999-0.003-2.001,0.051-2.994-0.022
			c-2.881-0.215-4.406,0.898-4.284,3.977c0.128,3.227-1.814,4.634-4.697,5.525c-1.578,0.487-2.897,1.811-4.333,2.757
			c0.199,0.583,0.397,1.166,0.596,1.749c2.227,0,4.532-0.359,6.659,0.101c2.14,0.464,4.035,2.032,6.174,2.534
			c0.969,0.228,2.887-0.656,3.312-1.545c1.939-4.052,5.409-3.839,8.956-3.805C271.018,531.198,272.767,531.014,275.163,530.886z
			 M273.331,145.858c-0.725,0.13-1.45,0.259-2.175,0.389c2.592,2.226,5.116,6.155,7.792,6.262c3.653,0.146,8.066-1.892,10.909-4.402
			c1.818-1.604,1.39-5.754,1.969-8.762c-2.084,0.067-4.169,0.12-6.253,0.208c-1.32,0.056-2.663,0.038-3.951,0.286
			c-1.063,0.205-2.234,0.536-3.051,1.192C276.724,142.516,275.065,144.235,273.331,145.858z M1016.734,598.678
			c-0.194,1.409-0.623,2.658-0.484,3.841c0.549,4.71,1.207,9.411,1.983,14.089c0.188,1.133,0.979,2.165,1.493,3.243
			c1.028-0.706,2.361-1.197,3.034-2.153C1026.47,612.432,1023.419,602.271,1016.734,598.678z M312.266,114.931
			c0.03-0.624,0.061-1.248,0.091-1.872c-4.16-1.1-8.294-2.317-12.501-3.192c-0.798-0.166-2.049,0.88-2.747,1.67
			c-0.286,0.324,0.126,1.93,0.589,2.141c3.12,1.418,6.255,3.043,9.563,3.693C308.714,117.655,310.585,115.81,312.266,114.931z
			 M1161.201,520.285c-2.963,1.98-4.92,4.431-4.047,8.164c0.125,0.533,2.152,1.287,2.672,0.956c3.222-2.054,4.204-4.951,2.399-8.52
			C1162.163,520.763,1161.949,520.716,1161.201,520.285z M322.45,109.16c-1.024-0.023-2.048-0.047-3.072-0.07
			c-0.219,2.274-0.58,4.552-0.545,6.822c0.008,0.513,1.361,1.302,2.164,1.401c0.527,0.064,1.669-0.862,1.689-1.38
			C322.776,113.683,322.558,111.419,322.45,109.16z M275.997,113.187c-0.491-0.711-0.981-1.422-1.472-2.133
			c-2.521,1.747-5.041,3.495-7.562,5.242c0.458,0.663,0.916,1.327,1.374,1.99C270.89,116.586,273.443,114.887,275.997,113.187z"/>
		<path fill-rule="evenodd" clip-rule="evenodd" fill="#FFFFFF" d="M689.523,385.639c5.114-2.033,8.639-7.104,7.103-10.707
			c-2.139-5.015-0.401-7.178,5.193-8.351c-11.741-5.06-17.278-15.333-24.152-24.092c-2.043-2.604-1.245-7.526-1.434-11.402
			c-0.029-0.62,1.847-2.042,2.433-1.849c1.804,0.594,4.529,1.466,4.917,2.803c3.396,11.721,13.629,17.447,21.504,25.214
			c3.379,3.333,6.184,6.255,4.674,11.978c-1.103,4.178,1.357,8.355,5.268,11.011c2.849,1.935,4.878,4.058,4.968,8.023
			c0.041,1.805,2.475,3.556,3.822,5.33c1.215-1.461,2.448-2.908,3.638-4.39c0.727-0.905,1.321-1.922,2.089-2.789
			c2.153-2.434,2.044-4.698-0.182-7.056c-1.135-1.201-2.168-2.558-2.967-3.999c-0.829-1.494-1.319-3.177-1.957-4.776
			c1.589-0.253,3.238-0.321,4.748-0.815c1.312-0.429,2.454-1.36,3.69-2.033c1.588-0.865,3.995-2.797,4.643-2.328
			c1.833,1.328,4.24,3.731,4.118,5.558c-0.467,6.975,3.445,12.781,4.342,19.328c0.149,1.097,1.152,2.515,2.141,2.979
			c3.759,1.77,7.673,3.209,12.144,5.021c2.44-4.881,6.163-3.221,9.889-0.155c4.262,3.506,6.847-0.629,10.087-2.036
			c1.819-0.791,4.434-2.154,5.605-1.451c1.593,0.956,2.742,3.551,3.051,5.599c1.711,11.357-2.972,21.438-7.201,31.453
			c-0.79,1.871-4.064,3.384-6.4,3.756c-3.901,0.622-7.988-0.031-11.962,0.293c-2.125,0.173-4.133,1.51-6.271,1.873
			c-1.948,0.331-4.335,0.735-5.95-0.063c-8.246-4.075-16.251-8.638-24.452-12.809c-4.474-2.276-8.79-0.595-11.906,2.528
			c-2.309,2.313-4.795,5.437-2.198,9.553c0.603,0.956-0.029,3.497-0.968,4.394c-0.957,0.915-3.267,1.375-4.504,0.867
			c-4.589-1.888-9.126-4.007-13.396-6.524c-3.347-1.973-6.798-4.222-9.244-7.149c-2.751-3.294-5.753-4.12-9.756-4.768
			c-2.712-0.439-4.966-3.725-7.419-5.745c-2.845-2.344-3.604-4.848-1.181-8.115c3.746-5.053,0.636-10.414-0.099-15.514
			c-0.156-1.084-4.05-2.121-6.29-2.292c-2.928-0.224-5.952,0.264-8.882,0.761c-3.015,0.511-5.953,1.459-8.949,2.1
			c-1.76,0.376-3.574,0.49-5.354,0.783c-5.813,0.956-11.802,1.379-17.36,3.146c-2.864,0.91-4.783,4.483-7.466,6.377
			c-1.859,1.313-4.231,2.224-6.486,2.556c-2.236,0.33-4.694,0.012-6.903-0.584c-1.997-0.538-4.869-1.42-5.434-2.89
			c-0.991-2.578-1.459-6.02,2.537-7.469c2.596-0.941,5.036-2.421,7.689-3.067c6.757-1.644,13.555-10.209,13.899-17.021
			c0.306-6.034,3.374-11.025,7.968-14.897c3.707-3.125,8.372-4.99,8.013-11.484c-0.234-4.243,6.644-6.87,10.228-4.306
			c2.547,1.823,4.353,1.701,6.465-0.563c1.795-1.924,3.927-3.538,5.946-5.246c3.427-2.899,8.923-1.277,9.981,2.96
			c1.866,7.478,6.892,12.607,12.708,17.129c2.612,2.032,5.434,3.8,8.006,5.879c5.836,4.715,6.774,8.663,4.029,15.599
			C689.945,382.735,689.885,383.848,689.523,385.639z M679.876,387.48c-0.198,0.465-0.397,0.93-0.596,1.394
			c2.637,1.118,5.273,2.235,8.089,3.429C688.012,386.875,687.144,386.396,679.876,387.48z"/>
		<path fill-rule="evenodd" clip-rule="evenodd" fill="#FFFFFF" d="M714.287,244.383c-4.345,3.796-5.534,8.428-2.866,12.656
			c1.761,2.793,0.89,4.407-1.273,5.794c-3.666,2.35-7.007,6.924-12.061,1.753c-0.7-0.717-3.679,0.359-5.367,1.125
			c-4.153,1.886-7.978,5.144-12.896,1.788c-0.686-0.468-1.918-0.202-2.893-0.163c-1.497,0.062-2.989,0.222-4.482,0.34
			c0.3-1.893,0.092-4.116,1.046-5.583c0.899-1.383,2.933-2.401,4.639-2.76c1.228-0.258,2.739,0.833,3.419,1.073
			c2.854-2.429,5.562-4.238,7.585-6.627c1.396-1.648,3.064-4.539,2.498-6.114c-2.168-6.022,1.773-9.03,5.13-12.39
			c4.056-4.06,4.088-5.64-0.765-8.42c-5.053-2.896-2.986-7.607-2.38-11.168c0.933-5.475,4.135-10.176,9.644-12.542
			c3.609-1.55,5.679-3.954,5.297-8.048c-0.304-3.252,1.239-4.498,4.414-4.454c2.467,0.033,4.938-0.455,7.411-0.502
			c1.06-0.02,2.822,0.236,3.04,0.822c0.384,1.034,0.257,2.765-0.413,3.589c-1.865,2.295-3.836,4.708-6.275,6.289
			c-5.619,3.644-8.728,7.957-6.577,14.99c0.607,1.985,0.051,4.304,0.199,6.457c0.35,5.043,4.563,6.847,9.308,5.436
			c5.722-1.702,11.806-2.325,17.782-2.925c1.303-0.131,2.813,1.813,4.228,2.802c-1.036,1.396-1.799,3.497-3.172,4.03
			c-2.384,0.928-5.136,0.992-7.751,1.221c-2.315,0.203-4.697-0.121-6.975,0.248c-3.799,0.617-4.46,2.702-2.099,5.782
			c0.708,0.923,2.035,1.95,1.938,2.799c-0.241,2.1-0.833,4.33-1.975,6.049c-0.327,0.492-3.087-0.396-4.59-1.002
			C716.065,246.328,715.328,245.299,714.287,244.383z"/>
		<path fill-rule="evenodd" clip-rule="evenodd" fill="#FFFFFF" d="M785.033,331.969c0.41,0.832,0.447,1.07,0.562,1.116
			c10.273,4.122,16.648,12.692,23.395,20.761c1.186,1.417,2.134,4.113,1.573,5.613c-0.592,1.582-3.115,3.432-4.807,3.443
			c-7.914,0.057-15.853,1.63-23.348-3.912c-2.902-2.145-8.828-0.729-13.255-0.089c-2.804,0.404-5.36,2.417-8.066,3.622
			c-3.182,1.416-15.211-3.09-15.419-6.292c-0.232-3.585,0.783-7.394,1.916-10.891c1.607-4.959,3.369-9.98,5.943-14.471
			c1.528-2.666,4.455-5.505,7.272-6.221c3.844-0.977,6.185,1.527,6.316,6.115c0.1,3.432,2.514,5.683,6.349,5.606
			c3.933-0.079,4.809-2.468,4.981-5.942c0.242-4.851,5.727-10.394,10.498-10.92c0.813-0.089,2.319,0.485,2.453,1.017
			c0.29,1.159,0.329,2.775-0.289,3.693C789.278,326.938,787.08,329.41,785.033,331.969z"/>
		<path fill-rule="evenodd" clip-rule="evenodd" fill="#FFFFFF" d="M863.04,395.519c-4.226,0.549-6.994-1.822-10.518-3.765
			c-7.241-3.992-7.536-8.436-4.872-14.924c0.963-2.345,1.278-4.999,1.588-7.549c0.138-1.132-0.128-2.617-0.799-3.49
			c-3.711-4.831-8.045-9.242-11.289-14.354c-2.498-3.936-4.524-8.581-5.138-13.13c-0.307-2.273,2.823-5.195,4.746-7.538
			c2.673-3.259,5.813-6.134,8.495-9.385c3.014-3.653,5.842-4.097,9.435,0.135c1.909,2.249,2.805,5.866,2.889,8.901
			c0.032,1.175-3.294,2.862-5.348,3.587c-3.939,1.39-5.063,4.38-2.196,7.48c3.102,3.354,6.441,6.489,9.615,9.778
			c0.539,0.559,1.016,1.387,1.1,2.137c0.285,2.561,1.475,3.481,4.127,3.942c1.546,0.269,3.139,2.508,3.864,4.219
			c0.316,0.744-1.224,3.015-2.385,3.516c-4.378,1.889-4.261,4.818-1.266,7.194c6.396,5.072,3.692,13.057,6.672,19.183
			c0.324,0.667-1.855,3.227-3.334,3.908C866.919,396.06,864.842,395.519,863.04,395.519z"/>
		<path fill-rule="evenodd" clip-rule="evenodd" fill="#FFFFFF" d="M898.381,169.815c4.725,0.704,7.517,5.397,5.591,9.67
			c-0.524,1.163-0.536,2.571-1.119,3.691c-0.746,1.434-1.663,3.588-2.813,3.805c-1.626,0.307-3.532-0.875-5.318-1.42
			c0.551-1.507,1.285-2.976,1.615-4.529C897.099,177.443,897.665,173.814,898.381,169.815z"/>
		<path fill-rule="evenodd" clip-rule="evenodd" fill="#FFFFFF" d="M1175.653,372.354c0,4.727,0,9.224,0,13.859
			C1166.927,382.469,1166.939,380.408,1175.653,372.354z"/>
		<path fill-rule="evenodd" clip-rule="evenodd" fill="#FFFFFF" d="M889.871,157.894c5.471,0.271,8.195,4.507,6.005,8.268
			c-0.306,0.525-3.622,0.284-3.903-0.341C890.941,163.525,890.602,160.919,889.871,157.894z"/>
		<path fill-rule="evenodd" clip-rule="evenodd" d="M437.397,164.292c-6.1-2.146-7.505-4.572-4.623-6.397
			c1.918-1.215,4.397-1.542,7.999-2.713c-3.281-2.219-5.362-3.627-7.564-5.116c0.935-2.249,2.19-4.267,2.604-6.443
			c1.717-9.059-4.336-15.872-13.565-17.094c-6.836-0.905-13.563-3.072-20.126-5.306c-1.875-0.638-3.004-3.466-4.476-5.29
			c1.838-0.761,3.611-1.849,5.523-2.222c6.003-1.171,12.063-2.046,18.09-3.09c3.997-0.692,5.145-2.463,5.711-9.552
			c12.45-1.716,25.138-3.691,37.886-5.134c7.076-0.801,14.258-0.644,21.382-1.075c1.609-0.098,3.523-0.424,4.704-1.378
			c4.138-3.345,8.887-2.977,13.72-3.14c12.105-0.407,24.2-1.551,36.298-1.528c5.277,0.01,10.51,2.415,15.837,3.255
			c5.863,0.925,10.725,3.687,15.837,6.447c2.592,1.399,6.754-0.051,10.198-0.31c1.633-0.122,3.249-0.473,4.873-0.72
			c0.188,0.49,0.375,0.98,0.563,1.472c-4.28,2.514-8.513,5.115-12.864,7.502c-1.876,1.028-3.947,1.791-6.017,2.362
			c-5.408,1.491-6.425,3.239-3.7,8.041c1.744,3.073,2.767,5.117-0.993,7.764c-2.583,1.819-4.142,5.084-2.428,8.905
			c0.447,0.995-0.362,3.088-1.267,4.037c-1.576,1.654-3.557,3.024-5.576,4.134c-4.223,2.32-5.396,5.905-5.307,10.444
			c0.159,8.124,0.016,7.95-7.835,9.225c-2.517,0.408-4.806,2.098-7.254,3.059c-11.945,4.686-24.138,8.644-34.024,17.62
			c-3.318,3.014-8.657,3.779-13.04,5.649c-7.754,3.311-16.387,4.27-20.653,14.035c-3.786,8.666-10.352,16.142-15.867,24.018
			c-2.459,3.51-6.824,3.547-10.523,0.757c-2.204-1.662-5.051-2.586-6.964-4.489c-1.991-1.98-4.002-4.56-4.603-7.196
			c-1.508-6.611-2.512-13.374-3.19-20.129C424.999,183.129,426.796,172.385,437.397,164.292z"/>
		<path fill-rule="evenodd" clip-rule="evenodd" d="M861.94,759.262c5.426,6.8,3.503,13.781,3.751,20.418
			c0.013,0.32-0.026,0.789-0.229,0.949c-6.731,5.328-3.561,14.036-6.992,20.503c-0.837,1.577-1.263,3.423-1.617,5.197
			c-1.202,6.016-2.297,12.054-3.415,18.086c-1.105,5.957-1.858,12.004-3.37,17.855c-1.685,6.518-3.563,13.252-11.298,15.429
			c-0.95,0.268-2.624,0.213-3.079-0.376c-2.772-3.585-6.015-6.633-6.188-12.005c-0.313-9.719,1.665-18.522,5.921-27.269
			c1.514-3.112,0.959-8.033-0.297-11.538c-3.487-9.736-0.647-16.714,7.889-21.902c4.704-2.858,8.242-7.941,11.668-12.5
			C857.493,768.373,859.359,763.928,861.94,759.262z"/>
		<path fill-rule="evenodd" clip-rule="evenodd" d="M207.646,149.058c-1.872,1.146-3.63,2.577-5.641,3.373
			c-3.25,1.288-6.619,2.628-10.035,2.969c-1.333,0.133-2.929-2.379-4.406-3.686c1.085-1.104,2.055-2.361,3.278-3.282
			c3.667-2.761,8.034-4.862,10.989-8.223c2.817-3.203,5.714-4.836,9.746-4.915c2.329-0.045,4.691,0.235,6.984-0.059
			c4.978-0.638,7.71,1.507,9.457,6.091c0.617,1.618,2.768,2.952,4.519,3.779c4.083,1.929,8.293,3.642,12.58,5.056
			c1.126,0.371,3.113-0.267,4.008-1.148c1.502-1.479,2.19-3.798,3.718-5.237c0.988-0.93,3.23-1.645,4.232-1.131
			c1.012,0.519,1.961,2.919,1.594,4.065c-1.711,5.348-2.361,10.436-0.754,16.084c1.087,3.822-6.226,8.05-10.021,6.433
			c-2.206-0.939-4.641-1.753-7-1.833c-5.015-0.17-10.076-0.088-15.061,0.435c-2.174,0.229-4.254,1.706-6.297,2.771
			c-4.608,2.401-8.137,1.518-13.275-3.288c-3.255-3.044-0.608-5.71,0.312-8.556c0.928-2.871,1.659-5.806,2.477-8.712
			C208.581,149.715,208.113,149.387,207.646,149.058z"/>
		<path fill-rule="evenodd" clip-rule="evenodd" d="M1148.557,690.165c-0.365,3.203-0.443,6.952-1.302,10.515
			c-0.77,3.191-2.397,6.178-3.646,9.254c-2.478-1.042-5.845-1.395-7.279-3.245c-6.187-7.979-13.355-15.067-13.643-26.801
			c-0.175-7.118-5.239-14.04-7.64-21.207c-1.497-4.47-3.675-7.996-7.849-10.333c-1.03-0.576-1.556-2.05-2.321-3.105
			c-3.123-4.305-6.266-8.596-9.36-12.92c-0.681-0.952-1.195-2.022-1.786-3.038c1.309-0.127,3.018-0.85,3.862-0.283
			c5.638,3.775,11.334,7.54,16.485,11.926c2.091,1.78,2.379,5.565,4.336,7.637c4.434,4.694,9.418,8.866,14.124,13.308
			c1.321,1.248,2.576,2.61,3.62,4.091c0.493,0.699,0.898,2.229,0.522,2.652c-3.3,3.713-0.945,5.244,2.136,7.196
			c1.86,1.179,3.19,3.353,4.451,5.279C1145.104,683.896,1146.663,686.881,1148.557,690.165z"/>
		<path fill-rule="evenodd" clip-rule="evenodd" d="M612.69,235.436c-0.524,0.986-0.856,2.164-1.609,2.927
			c-2.869,2.911-4.067,5.068,1.437,6.205c2.708,0.56,2.732,2.931,1.072,4.633c-2.828,2.898-2.711,4.898-0.231,8.404
			c3.488,4.931,5.466,10.909,8.359,16.295c0.86,1.602,2.434,3.058,4.028,3.975c2.54,1.459,3.484,2.973,1.62,5.545
			c-0.388,0.535-0.988,1.159-0.959,1.715c0.41,7.73-4.842,7.217-9.952,6.903c-4.565-0.28-8.931-0.044-12.619,3.284
			c-0.819,0.74-2.336,0.708-3.532,1.032c-0.379-0.399-0.759-0.8-1.138-1.199c1.56-2.184,3.118-4.366,4.865-6.813
			c-2.903-1.94-5.966-3.997-1.24-7.432c0.735-0.535,0.306-2.674,0.444-4.445c4.357-1.459,6.592-4.443,4.224-9.313
			c-0.615-1.268-1.847-2.675-3.109-3.113c-5.979-2.075-6.888-3.238-6.459-9.639c0.174-2.597,0.04-5.269,0.624-7.772
			c1.094-4.688,3.952-7.819,8.864-9.057c1.656-0.417,3.061-1.832,4.58-2.79C612.203,234.999,612.446,235.217,612.69,235.436z"/>
		<path fill-rule="evenodd" clip-rule="evenodd" d="M223.644,125.904c7.426-2.851,14.824-5.691,23.396-8.982
			c-1.344,8.923,5.215,10.934,9.331,11.804c4.124,0.872,9.146-2.507,13.434-5.135c0.297,0.128,0.752,0.173,0.87,0.396
			c4.28,8.133,4.234,7.646-5.293,8.444c-5.463,0.457-10.752,2.87-16.154,4.271c-1.65,0.428-3.711,1.083-5.069,0.478
			c-3.693-1.646-7.096-3.938-10.643-5.92C230.451,129.548,227.346,127.908,223.644,125.904z"/>
		<path fill-rule="evenodd" clip-rule="evenodd" d="M549.327,205.903c-2.574-2.911-5.047-5.813-7.645-8.6
			c-1.352-1.45-2.979-2.64-4.378-4.05c-1.081-1.091-2.001-2.341-2.992-3.521c1.927-0.992,5.099-3.268,5.594-2.786
			c7.229,7.022,15.171,1.294,22.652,1.372c3.438,0.036,6.856-0.499,7.773,3.175c0.88,3.523-0.62,6.56-4.87,7.91
			C560.331,201.034,555.434,203.401,549.327,205.903z"/>
		<path fill-rule="evenodd" clip-rule="evenodd" d="M207.056,496.3c3.234,0.634,6.477,1.232,9.699,1.921
			c1.115,0.238,2.213,1.086,3.265,1c8.345-0.68,12.853,4.895,17.607,10.329c1.514,1.731,3.844,2.723,5.636,4.246
			c1.099,0.935,1.884,2.238,2.81,3.376c-1.124,0.763-2.153,1.926-3.388,2.215c-3.779,0.887-7.615,1.655-11.471,2.052
			c-3.309,0.341-4.916-1.865-4.922-4.915c-0.013-6.228-3.464-9.473-8.87-11.69c-3.923-1.61-7.545-3.956-11.301-5.974
			C206.433,498.007,206.745,497.153,207.056,496.3z"/>
		<path fill-rule="evenodd" clip-rule="evenodd" d="M597.968,263.222c-0.541,1.916-1.046,3.917-1.684,5.874
			c-0.303,0.928-1.393,1.896-1.22,2.637c1.953,8.38-3.552,11.53-9.855,13.647c-2.293,0.771-5.126-0.067-7.713-0.172
			c0.725-1.729,1.68-3.403,2.109-5.202c0.441-1.852,0.979-4.036,0.398-5.701c-1.269-3.643-1.231-6.148,3.138-7.159
			c1.063-0.245,2.288-0.765,2.962-1.561C590.482,260.413,590.439,260.377,597.968,263.222z"/>
		<path fill-rule="evenodd" clip-rule="evenodd" d="M275.163,530.886c-2.396,0.128-4.145,0.313-5.892,0.295
			c-3.547-0.034-7.017-0.247-8.956,3.805c-0.425,0.889-2.343,1.772-3.312,1.545c-2.139-0.502-4.034-2.07-6.174-2.534
			c-2.127-0.46-4.432-0.101-6.659-0.101c-0.199-0.583-0.397-1.166-0.596-1.749c1.436-0.946,2.756-2.27,4.333-2.757
			c2.882-0.892,4.825-2.299,4.697-5.525c-0.122-3.078,1.403-4.191,4.284-3.977c0.993,0.073,1.996,0.02,2.994,0.022
			C268.92,519.929,270.695,521.123,275.163,530.886z"/>
		<path fill-rule="evenodd" clip-rule="evenodd" d="M273.331,145.858c1.735-1.623,3.393-3.343,5.24-4.827
			c0.817-0.656,1.988-0.987,3.051-1.192c1.288-0.248,2.63-0.23,3.951-0.286c2.083-0.088,4.168-0.141,6.253-0.208
			c-0.579,3.008-0.151,7.157-1.969,8.762c-2.843,2.511-7.256,4.548-10.909,4.402c-2.676-0.106-5.201-4.036-7.792-6.262
			C271.88,146.117,272.605,145.988,273.331,145.858z"/>
		<path fill-rule="evenodd" clip-rule="evenodd" d="M1016.734,598.678c6.685,3.593,9.735,13.754,6.026,19.02
			c-0.673,0.956-2.006,1.447-3.034,2.153c-0.514-1.078-1.306-2.11-1.493-3.243c-0.776-4.678-1.435-9.379-1.983-14.089
			C1016.111,601.336,1016.54,600.087,1016.734,598.678z"/>
		<path fill-rule="evenodd" clip-rule="evenodd" d="M312.266,114.931c-1.681,0.879-3.552,2.725-5.005,2.439
			c-3.308-0.65-6.443-2.275-9.563-3.693c-0.463-0.211-0.875-1.816-0.589-2.141c0.698-0.79,1.949-1.836,2.747-1.67
			c4.207,0.875,8.341,2.093,12.501,3.192C312.326,113.683,312.296,114.307,312.266,114.931z"/>
		<path fill-rule="evenodd" clip-rule="evenodd" d="M1161.201,520.285c0.748,0.431,0.962,0.478,1.024,0.601
			c1.805,3.568,0.822,6.466-2.399,8.52c-0.52,0.331-2.547-0.423-2.672-0.956C1156.281,524.716,1158.238,522.266,1161.201,520.285z"
			/>
		<path fill-rule="evenodd" clip-rule="evenodd" d="M322.45,109.16c0.107,2.259,0.326,4.522,0.236,6.773
			c-0.021,0.518-1.162,1.444-1.689,1.38c-0.803-0.1-2.156-0.889-2.164-1.401c-0.035-2.271,0.326-4.548,0.545-6.822
			C320.402,109.113,321.426,109.137,322.45,109.16z"/>
		<path fill-rule="evenodd" clip-rule="evenodd" d="M275.997,113.187c-2.554,1.7-5.107,3.399-7.661,5.1
			c-0.458-0.663-0.916-1.327-1.374-1.99c2.521-1.747,5.042-3.495,7.562-5.242C275.016,111.765,275.506,112.476,275.997,113.187z"/>
		<path fill-rule="evenodd" clip-rule="evenodd" d="M679.876,387.48c7.268-1.085,8.136-0.605,7.493,4.822
			c-2.815-1.193-5.452-2.311-8.089-3.429C679.479,388.41,679.678,387.945,679.876,387.48z"/>
	</g>
</g>
</svg>
