<?xml version="1.0" encoding="utf-8"?>
<!-- Generator: Adobe Illustrator 16.0.3, SVG Export Plug-In . SVG Version: 6.00 Build 0)  -->
<!DOCTYPE svg PUBLIC "-//W3C//DTD SVG 1.1//EN" "http://www.w3.org/Graphics/SVG/1.1/DTD/svg11.dtd">
<svg version="1.1" id="INTEREST_GROUP_final_xA0_Image_1_"
	 xmlns="http://www.w3.org/2000/svg" xmlns:xlink="http://www.w3.org/1999/xlink" x="0px" y="0px" width="479px" height="671px"
	 viewBox="0 0 479 671" enable-background="new 0 0 479 671" xml:space="preserve">
<g>
	<g>
		<path fill-rule="evenodd" clip-rule="evenodd" d="M1,1c159.667,0,319.333,0,479,0c0,223.667,0,447.333,0,671
			c-159.666,0-319.333,0-479,0C1,448.333,1,224.667,1,1z M17.494,13.266c0,214.402,0,428.425,0,642.285
			c149.325,0,298.23,0,447.104,0c0-214.28,0-428.188,0-642.285C315.483,13.266,166.694,13.266,17.494,13.266z"/>
		<path fill-rule="evenodd" clip-rule="evenodd" fill="#FFFFFF" d="M17.494,13.266c149.2,0,297.989,0,447.104,0
			c0,214.098,0,428.005,0,642.285c-148.874,0-297.779,0-447.104,0C17.494,441.69,17.494,227.668,17.494,13.266z M238.465,102.001
			c-2.54,0-5.871,0.234-9.153-0.063c-3.623-0.328-5.761,0.997-7.58,4.166c-3.81,6.637-7.906,13.126-12.221,19.446
			c-1.138,1.666-3.346,3.04-5.333,3.611c-8.783,2.529-17.64,4.816-26.53,6.941c-1.692,0.404-3.971,0.228-5.438-0.619
			c-6.484-3.745-12.832-7.739-19.096-11.846c-2.221-1.455-3.824-1.74-6.179-0.073c-9.786,6.927-19.811,13.515-29.558,20.494
			c-1.623,1.162-3.01,3.551-3.281,5.539c-1.012,7.419-1.225,14.95-2.347,22.347c-0.461,3.037-1.989,6.21-3.88,8.668
			c-3.544,4.607-7.64,8.802-11.657,13.023c-1.039,1.092-2.589,2.237-3.989,2.356c-9.595,0.816-19.213,1.366-29.164,2.024
			c-4.58,8.272-9.349,16.847-14.079,25.443c-3.287,5.975-8.998,11.947-9.078,17.981c-0.08,6.024,5.087,12.387,8.701,18.131
			c5.432,8.634,7.896,17.305,3.693,27.167c-0.89,2.089-0.495,4.729-1.401,6.805c-0.887,2.032-2.304,4.379-4.143,5.354
			c-7.045,3.736-14.353,6.977-20.783,10.03c0,18.284-0.067,36.103,0.13,53.917c0.016,1.389,1.617,3.132,2.936,4.072
			c7.049,5.028,14.247,9.848,21.384,14.752c2.994,2.058,10.301,22.451,9.273,25.854c-0.095,0.313-0.302,0.591-0.448,0.89
			c-4.932,10.145-9.862,20.289-14.922,30.699c7.906,13.607,15.988,27.521,23.808,40.98c8.648-1.01,16.636-1.619,24.499-2.964
			c6.284-1.075,11.332-0.255,15.085,5.411c1.26,1.901,3.109,3.521,4.966,4.895c2.868,2.12,3.547,4.771,3.458,8.201
			c-0.221,8.492-0.167,16.997,0.012,25.491c0.033,1.575,0.705,3.839,1.857,4.582c12.708,8.19,25.57,16.144,37.514,23.613
			c9.309-6.644,18.043-12.977,26.936-19.08c0.97-0.665,2.896-0.222,4.299,0.077c5.852,1.248,11.639,2.834,17.521,3.899
			c3.388,0.614,5.463,1.957,7,5.236c4.429,9.453,9.31,18.695,14.117,28.227c-6.472,3.903-10.345,10.223-12.012,17.734
			c-2.666,12.011-2.848,24.141,0.292,36.111c3.024,11.532,9.797,17.355,19.939,17.719c14.674,0.525,22.969-3.813,26.29-16.193
			c2.37-8.839,3.033-18.349,3.023-27.558c-0.013-11.609-2.775-22.586-14.69-29.163c1.471-0.549,2.362-0.91,3.272-1.218
			c11.111-3.746,21.45-8.848,30.133-16.929c3.037-2.825,4.818-5.604,3.84-10.329c-5.732-27.7-11.08-55.479-16.585-83.228
			c-2.126-10.719-4.325-21.423-6.573-32.54c-5.87,1.323-11.236,2.533-16.765,3.778c0-61.546,0-122.412,0-183.396
			c6.7,1.723,12.954,3.33,19.303,4.962c0.498-1.423,0.858-2.17,1.021-2.958c7.561-36.667,15.15-73.328,22.52-110.033
			c0.422-2.104-0.316-5.119-1.661-6.782c-6.868-8.494-15.241-15.17-25.397-19.493c-4.68-1.992-9.242-4.259-13.858-6.4
			c0.063-0.254,0.127-0.509,0.19-0.763c5.955,0,11.911,0,19.863,0c-9.681-8.901-5.87-18.939-5.498-28.94
			c2.707,1.707,5.184,3.617,6.4,6.136c3.109,6.429,5.542,13.181,8.52,19.678c0.638,1.392,2.38,3.121,3.707,3.206
			c5.615,0.356,11.265,0.15,17.961,0.15c-3.438-5.885-6.547-10.953-9.402-16.162c-2.945-5.372-5.643-10.881-8.552-16.528
			c0.062-0.041,0.879-0.598,1.712-1.132c8.598-5.51,9.084-13.974,7.488-22.618c-1.465-7.948-7.443-11.76-15.131-12.02
			c-11.257-0.38-22.535-0.098-34.913-0.098c0.931,1.702,1.753,3.151,2.523,4.628c0.88,1.687,2.437,3.39,2.456,5.1
			c0.178,16.327,0.141,32.658-0.003,48.987c-0.013,1.474-1.05,3.029-1.877,4.383C241.801,97.621,240.415,99.313,238.465,102.001z
			 M324.457,357.45c-4.233,15.458-11.33,28.516-21.76,40.024c2.047,2.278,3.909,4.378,5.801,6.452
			c21.879,24.003,43.911,47.87,65.486,72.144c3.245,3.651,6.418,4.168,10.377,3.804c2.601-0.239,5.161-1.019,7.714-1.659
			c14.106-3.537,24.466-12.92,34.514-22.598c2.206-2.125,3.791-5.408,4.547-8.437c3.228-12.932,4.137-26.048,2.101-39.313
			c-1.248-8.127-3.956-14.005-13.142-16.848c-19.996-6.188-39.563-13.764-59.312-20.757
			C348.903,366.056,337.014,361.877,324.457,357.45z M323.886,309.774c1.409,5.242,3.341,9.938,3.809,14.776
			c0.626,6.484,1.083,13.271-0.181,19.568c-1.18,5.88-2.117,5.924,3.483,7.714c31.678,10.126,63.411,20.081,94.982,30.524
			c5.22,1.727,8.339,0.435,11.736-3.038c7.716-7.889,12.512-17.49,16.511-27.559c2.992-7.535,6.377-15.126,3.992-23.522
			c-4.398-15.487-10.655-29.939-22.829-41.21c-3.063-2.836-5.821-3.592-9.843-2.568c-22.404,5.698-44.872,11.143-67.311,16.702
			C346.986,303.949,335.751,306.797,323.886,309.774z M267.079,421.982c0.181-0.86,0.086-0.683,0.121-0.536
			c9.216,38.822,18.419,77.648,27.745,116.444c0.381,1.587,1.636,3.285,2.971,4.271c10.24,7.552,21.747,7.381,33.246,4.311
			c8.419-2.248,17.211-4.812,22.783-12.178c7.278-9.623,12.331-20.575,13.775-32.587c1.127-9.371,0.592-18.229-6.947-26.313
			c-13.837-14.839-26.341-30.921-39.407-46.478c-7.569-9.013-15.153-18.014-22.075-26.241
			C288.379,409.216,278.033,415.417,267.079,421.982z M301.285,267.961c-0.166,0.143,0.257-0.14,0.578-0.51
			c24.456-28.142,48.966-56.235,73.203-84.563c1.532-1.791,1.718-5.558,1.201-8.14c-2.983-14.92-11.589-26.849-21.112-38.23
			c-2.644-3.159-5.867-4.821-9.939-5.893c-10.939-2.876-21.911-3.899-33.163-2.868c-10.186,0.934-11.784,2.077-14.395,11.944
			c-6.59,24.901-13.156,49.808-19.734,74.711c-3.002,11.363-6.01,22.725-8.729,33.004
			C280.185,254.453,290.486,261.048,301.285,267.961z M323.076,302.915c34.058-10.141,68.425-20.519,102.909-30.489
			c5.208-1.505,7.13-4.397,7.189-9.1c0.137-10.885,0.644-21.817-0.159-32.645c-0.535-7.227-1.503-14.965-8.471-19.808
			c-1.895-1.316-3.584-2.93-5.347-4.432c-8.525-7.27-17.701-13.195-28.823-15.958c-3.628-0.901-5.548,0.158-7.787,2.449
			c-25.146,25.72-50.342,51.389-75.51,77.086c-0.896,0.915-1.646,1.976-1.922,2.312C311.223,282.685,316.99,292.529,323.076,302.915
			z M192.825,604.581c6.188-5.23,7.723-7.519,8.91-13.788c2.227-11.759-2.532-22.524-11.963-23.484
			c-11.414-1.162-23.037-0.275-34.923-0.275c0.327,1.05,0.34,3.09,1.228,3.596c3.894,2.22,3.415,5.936,3.445,9.284
			c0.138,14.986,0.123,29.976,0.004,44.962c-0.027,3.4,0.2,7.056-3.671,9.196c-0.746,0.412-0.598,2.439-0.881,3.809
			c8.247,0,15.817,0,23.271,0c-1.412-4.967-3.269-9.536-3.901-14.27c-0.662-4.96-0.148-10.076-0.148-15.125
			c0.71-0.27,1.419-0.539,2.129-0.809c1.807,2.465,4.13,4.705,5.315,7.439c2.773,6.396,4.852,13.091,7.559,19.518
			c0.633,1.503,2.576,3.323,4.045,3.445c5.096,0.423,10.249,0.163,16.327,0.163c-3.143-5.857-6.021-10.913-8.603-16.116
			C198.201,616.551,195.713,610.837,192.825,604.581z M104.758,72.753c-0.255,0.053-0.51,0.105-0.766,0.158
			c-6.309-12.439-12.558-24.912-19.007-37.278c-0.782-1.5-2.584-3.367-4.023-3.466c-5.775-0.396-11.593-0.164-18.599-0.164
			c1.094,2.243,1.821,3.66,2.483,5.108c1.037,2.269,2.864,4.543,2.904,6.84c0.262,15.144,0.28,30.296-0.013,45.438
			c-0.047,2.42-2.074,4.792-3.146,7.203c-0.574,1.289-1.065,2.615-1.799,4.433c6.881,0,12.813,0,19.687,0
			c-0.753-1.802-1.257-3.117-1.847-4.393c-1.113-2.405-3.053-4.722-3.264-7.193C76.875,83.654,77.2,77.8,77.197,71.974
			c-0.002-4.829,0-9.657,0-14.486c1.711,1.528,2.579,3.121,3.406,4.733c6.071,11.827,12.085,23.684,18.263,35.455
			c0.745,1.418,2.255,3.221,3.594,3.389c3.705,0.466,7.506,0.161,11.653,0.161c0-2.455,0-4.254,0-6.054
			c0-16.646,0.006-33.292-0.005-49.938c-0.002-3.376-0.09-6.607,3.655-8.571c0.942-0.495,0.985-2.703,1.548-4.456
			c-6.831,0-12.945,0-20.157,0c1.043,2.034,1.766,3.468,2.512,4.89c1.021,1.945,2.892,3.857,2.953,5.827
			C104.923,52.859,104.758,62.809,104.758,72.753z M270.931,566.231c0.433,1.699,0.343,3.765,1.199,4.291
			c3.886,2.39,3.591,6.073,3.608,9.718c0.06,12.985-0.158,25.978,0.193,38.954c0.354,13.027,7.135,19.805,19.258,20.057
			c16.577,0.344,23.196-4.536,23.956-18.985c0.689-13.118,0.271-26.291,0.569-39.435c0.082-3.627-0.878-7.758,3.411-10.291
			c0.843-0.498,0.637-2.773,0.914-4.23c-7.104,0-13.515,0-20.473,0c0.501,1.77,0.778,3.162,1.288,4.463
			c1.021,2.597,3.05,5.12,3.114,7.713c0.306,12.309,0.133,24.632,0.03,36.948c-0.024,2.811-0.217,5.662-0.739,8.417
			c-0.832,4.389-2.903,8.112-8.005,8.048c-5.098-0.064-6.843-4.019-7.998-8.23c-0.174-0.635-0.234-1.317-0.244-1.979
			c-0.209-14.802-0.514-29.604-0.474-44.407c0.005-2.03,1.739-4.057,2.679-6.083c0.707-1.525,1.426-3.046,2.326-4.967
			C286.736,566.231,279.117,566.231,270.931,566.231z M186.043,100.854c15.918,0,30.798,0,46.082,0c0-6.46,0-12.52,0-18.663
			c-2.725,0-5.188,0-7.579,0c-4.414,12.151-5.808,13.059-17.291,11.255c0-7.89,0-15.808,0-25.475
			c3.261,1.73,6.981,2.452,7.717,4.338c1.918,4.918,5.023,4.22,8.762,3.497c0-6.948,0-13.708,0-22.124
			c-3.137,1.549-6.684,2.125-7.512,3.941c-1.999,4.382-4.849,4.885-8.779,4.067c0-7.489,0-14.856,0-22.354
			c5.595,0.148,11.882-1.868,14.281,4.727c1.996,5.485,5.265,5.895,10.126,4.73c0-5.451,0-10.86,0-16.533
			c-15.129,0-30.042,0-45.702,0c0.52,1.788,0.517,4.048,1.423,4.505c3.684,1.855,3.372,5.008,3.374,8.164
			c0.009,14.331,0.005,28.662,0.003,42.994c0,3.494,0.428,7.067-3.619,9.098C186.573,97.401,186.546,99.241,186.043,100.854z
			 M339.83,53.85c-3.12,1.31-6.797,1.716-7.464,3.35c-1.888,4.626-4.736,5.45-9.087,4.425c0-7.351,0-14.601,0-22.414
			c5.499,0.531,11.95-2.053,14.469,4.908c2.006,5.548,5.342,5.749,10.103,4.719c0-5.542,0-10.948,0-16.597
			c-15.177,0-30.092,0-46.134,0c0.955,2.041,1.649,3.459,2.285,4.901c1.004,2.274,2.777,4.552,2.815,6.851
			c0.254,15.161,0.276,30.33-0.018,45.489c-0.047,2.408-2.12,4.755-3.152,7.175c-0.551,1.291-0.879,2.677-1.417,4.366
			c15.667,0,30.437,0,45.957,0c0-3.326,0-6.447,0-9.567c0-3.08,0-6.16,0-9.252c-2.836,0-5.303,0-7.695,0
			c-4.219,12.063-5.939,13.178-17.219,11.204c0-7.899,0-15.82,0-25.499c3.286,1.788,6.997,2.547,7.73,4.452
			c1.924,4.996,5.113,3.989,8.826,3.563C339.83,68.943,339.83,62.32,339.83,53.85z M143.112,583.043c0-1.717,0.03-2.862-0.004-4.006
			c-0.414-13.854,2.936-11.245-11.745-13.852c-14.837-2.634-26.176,4.721-30.578,19.168c-3.277,10.755-3.247,21.772-1.357,32.629
			c3.361,19.314,13.339,25.315,32.936,20.666c0.711-0.169,1.787-0.298,2.217,0.087c3.388,3.027,6.34,0.915,9.533-0.331
			c0-6.77-0.326-13.279,0.144-19.731c0.22-3.016,2.049-5.896,3.01-8.884c0.454-1.41,0.58-2.926,0.882-4.545
			c-8.087,0-15.522,0-23.039,0c-0.05,1.067-0.15,1.896-0.103,2.717c0.028,0.472,0.152,1.137,0.477,1.361
			c6.072,4.198,3.912,10.337,3.662,15.925c-0.153,3.436-1.291,7.512-5.188,7.287c-2.377-0.136-5.786-3.131-6.639-5.572
			c-5.31-15.211-5.529-30.642,0.064-45.888c1.567-4.271,4.749-7.751,9.573-7.507c4.805,0.243,6.705,4.332,7.896,8.538
			c0.172,0.608,0.405,1.2,0.657,1.938C137.941,583.043,140.219,583.043,143.112,583.043z M331.723,638.047
			c8.609,0,16.227,0,24.279,0c-1.677-4.521-3.934-8.625-4.622-12.977c-0.788-4.979-0.183-10.179-0.183-15.818
			c3.111,0,5.567,0.015,8.022-0.002c8.315-0.058,14.77-3.532,17.544-11.477c3.163-9.057,4.013-18.393-2.82-26.419
			c-1.701-1.997-4.674-3.843-7.2-4.047c-11.483-0.929-23.016-1.246-35.186-1.813c0.549,2.514,0.432,4.513,1.158,4.891
			c4.174,2.169,3.79,6.046,3.818,9.598c0.119,14.822,0.118,29.646-0.002,44.469c-0.028,3.555,0.349,7.426-3.748,9.652
			C332.057,634.499,332.135,636.378,331.723,638.047z M396.552,32.461c-6.823-0.486-13.572-1.584-20.262-1.3
			c-10.134,0.429-16.445,5.265-18.72,12.947c-2.816,9.518-0.011,18.259,8.022,24.414c2.366,1.813,5.156,3.075,7.495,4.916
			c2.712,2.134,5.683,4.26,7.572,7.046c3.338,4.921,1.409,11.382-3.449,13.687c-4.596,2.18-9.365-0.264-11.712-6.046
			c-0.671-1.651-1.218-3.352-1.738-4.797c-2.775,0-5.194,0-7.955,0c0,4.63,0.164,8.945-0.056,13.241
			c-0.153,3.004,1.112,4.297,3.922,4.462c6.623,0.391,13.255,1.193,19.866,1.053c6.676-0.144,12.199-3.196,15.468-9.315
			c5.313-9.946,2.39-22.851-6.665-29.529c-2.806-2.069-5.984-3.644-8.716-5.795c-2.441-1.923-5.019-4.01-6.611-6.594
			c-2.66-4.315-0.89-9.392,3.336-11.485c4.027-1.996,8.86-0.382,10.281,4.648c1.663,5.889,5.108,5.867,9.921,4.776
			C396.552,43.786,396.552,38.843,396.552,32.461z M165.782,101.075c-0.875-1.898-1.118-3.734-2.013-4.143
			c-3.668-1.671-3.739-4.708-3.728-7.961c0.028-8.32,0.009-16.64,0.009-24.96c0-8.118,0-16.236,0-24.442
			c4.76-0.572,8.052,1.187,8.813,5.206c1.228,6.483,5.205,5.926,9.894,5.081c0-5.994,0-11.726,0-17.563c-18.001,0-35.707,0-53.529,0
			c0,6.04,0,11.782,0,17.582c5.023,0.964,8.805,0.929,10.012-5.348c0.768-3.994,4.201-5.554,8.682-4.962
			c0,17.492,0.078,34.773-0.128,52.051c-0.02,1.618-1.821,3.221-2.812,4.82c-0.81,1.307-1.646,2.598-2.942,4.639
			C147.902,101.075,156.183,101.075,165.782,101.075z M420.924,39.407c0,17.61,0.077,34.89-0.127,52.165
			c-0.019,1.626-1.787,3.242-2.779,4.841c-0.818,1.319-1.689,2.605-2.954,4.545c9.945,0,18.368,0,27.617,0
			c-0.768-1.739-0.988-3.605-1.872-4.005c-3.668-1.656-3.785-4.673-3.769-7.938c0.035-6.988,0.01-13.978,0.01-20.966
			c0-9.451,0-18.902,0-28.644c4.651-0.288,8.06,1.268,8.798,5.327c1.184,6.517,5.176,5.977,9.925,5.145c0-5.98,0-11.713,0-17.6
			c-17.984,0-35.69,0-53.558,0c0,6.021,0,11.761,0,17.678c4.607,0.606,8.653,1.389,9.809-4.924
			C412.767,40.973,415.984,39.141,420.924,39.407z M54.817,101.014c-0.487-1.673-0.479-3.644-1.283-4.065
			c-3.766-1.977-3.518-5.321-3.52-8.653c-0.01-14.325-0.017-28.65,0.008-42.975c0.005-3.314-0.267-6.653,3.53-8.645
			c0.861-0.452,0.761-2.735,1.155-4.392c-8.821,0-16.911,0-25.794,0c0.724,1.91,1.181,3.348,1.803,4.708
			c1.021,2.233,3.048,4.402,3.087,6.626c0.273,15.486,0.258,30.981,0.01,46.469c-0.034,2.123-1.888,4.208-2.855,6.331
			c-0.624,1.369-1.168,2.774-1.928,4.596C38.153,101.014,46.099,101.014,54.817,101.014z"/>
		<path fill-rule="evenodd" clip-rule="evenodd" d="M238.465,102.001c1.95-2.688,3.336-4.38,4.466-6.229
			c0.827-1.354,1.864-2.909,1.877-4.383c0.144-16.329,0.181-32.66,0.003-48.987c-0.02-1.71-1.576-3.413-2.456-5.1
			c-0.771-1.477-1.593-2.926-2.523-4.628c12.378,0,23.656-0.282,34.913,0.098c7.688,0.26,13.666,4.071,15.131,12.02
			c1.596,8.645,1.109,17.108-7.488,22.618c-0.833,0.534-1.65,1.091-1.712,1.132c2.909,5.647,5.606,11.156,8.552,16.528
			c2.855,5.209,5.964,10.277,9.402,16.162c-6.696,0-12.346,0.206-17.961-0.15c-1.327-0.085-3.069-1.814-3.707-3.206
			c-2.978-6.497-5.41-13.249-8.52-19.678c-1.217-2.519-3.693-4.429-6.4-6.136c-0.372,10.001-4.183,20.039,5.498,28.94
			c-7.952,0-13.908,0-19.863,0c-0.063,0.254-0.127,0.509-0.19,0.763c4.616,2.142,9.179,4.408,13.858,6.4
			c10.156,4.323,18.529,10.999,25.397,19.493c1.345,1.663,2.083,4.679,1.661,6.782c-7.369,36.705-14.959,73.366-22.52,110.033
			c-0.162,0.788-0.522,1.535-1.021,2.958c-6.349-1.632-12.603-3.239-19.303-4.962c0,60.984,0,121.851,0,183.396
			c5.528-1.245,10.895-2.455,16.765-3.778c2.248,11.117,4.447,21.821,6.573,32.54c5.505,27.748,10.853,55.527,16.585,83.228
			c0.979,4.725-0.803,7.504-3.84,10.329c-8.683,8.081-19.021,13.183-30.133,16.929c-0.91,0.308-1.802,0.669-3.272,1.218
			c11.915,6.577,14.678,17.554,14.69,29.163c0.01,9.209-0.653,18.719-3.023,27.558c-3.32,12.381-11.615,16.719-26.29,16.193
			c-10.142-0.363-16.915-6.187-19.939-17.719c-3.139-11.971-2.957-24.101-0.292-36.111c1.667-7.512,5.541-13.831,12.012-17.734
			c-4.808-9.531-9.688-18.773-14.117-28.227c-1.537-3.279-3.612-4.622-7-5.236c-5.882-1.065-11.669-2.651-17.521-3.899
			c-1.403-0.299-3.329-0.742-4.299-0.077c-8.893,6.104-17.627,12.437-26.936,19.08c-11.944-7.47-24.806-15.423-37.514-23.613
			c-1.152-0.743-1.825-3.007-1.857-4.582c-0.179-8.494-0.233-16.999-0.012-25.491c0.089-3.43-0.589-6.081-3.458-8.201
			c-1.857-1.373-3.707-2.993-4.966-4.895c-3.753-5.666-8.801-6.486-15.085-5.411c-7.862,1.345-15.851,1.954-24.499,2.964
			c-7.82-13.46-15.902-27.373-23.808-40.98c5.06-10.41,9.99-20.555,14.922-30.699c0.146-0.299,0.353-0.577,0.448-0.89
			c1.027-3.402-6.279-23.796-9.273-25.854c-7.137-4.904-14.335-9.724-21.384-14.752c-1.319-0.94-2.92-2.684-2.936-4.072
			c-0.197-17.814-0.13-35.633-0.13-53.917c6.43-3.054,13.738-6.294,20.783-10.03c1.838-0.975,3.255-3.321,4.143-5.354
			c0.907-2.076,0.511-4.716,1.401-6.805c4.203-9.862,1.739-18.533-3.693-27.167c-3.614-5.744-8.781-12.106-8.701-18.131
			c0.08-6.034,5.791-12.007,9.078-17.981c4.729-8.597,9.499-17.171,14.079-25.443c9.95-0.658,19.568-1.208,29.164-2.024
			c1.4-0.119,2.951-1.265,3.989-2.356c4.017-4.222,8.113-8.416,11.657-13.023c1.891-2.458,3.419-5.631,3.88-8.668
			c1.122-7.396,1.335-14.928,2.347-22.347c0.271-1.988,1.659-4.377,3.281-5.539c9.747-6.979,19.772-13.567,29.558-20.494
			c2.354-1.667,3.958-1.382,6.179,0.073c6.264,4.106,12.611,8.101,19.096,11.846c1.467,0.847,3.746,1.023,5.438,0.619
			c8.89-2.125,17.748-4.412,26.53-6.941c1.986-0.571,4.195-1.945,5.333-3.611c4.315-6.32,8.412-12.81,12.221-19.446
			c1.819-3.169,3.958-4.494,7.58-4.166C232.594,102.235,235.925,102.001,238.465,102.001z M209.202,491.229
			c0-23.479,0.059-46.441-0.145-69.401c-0.012-1.379-1.827-3.34-3.276-4.02c-21.993-10.306-37.412-26.783-46.433-49.233
			c-1.12-2.788-2.447-3.696-5.392-3.677c-18.981,0.13-37.964,0.059-56.947,0.084c-1.219,0.001-2.437,0.252-3.671,0.39
			C105.554,434.853,158.903,481.798,209.202,491.229z M209.208,177.455c-56.67,11.012-104.764,63.654-114.849,122.043
			c0.467,0.112,0.938,0.323,1.408,0.324c20.151,0.028,40.304,0.128,60.453-0.118c1.62-0.02,3.914-2.093,4.709-3.773
			c9.559-20.189,24.117-35.35,44.512-44.624c2.891-1.314,3.864-2.782,3.838-5.897c-0.146-17.486-0.07-34.974-0.07-52.461
			C209.208,187.813,209.208,182.677,209.208,177.455z M248.621,603.153c-0.251-0.029-0.501-0.058-0.751-0.087
			c0-2.495,0.354-5.052-0.07-7.473c-1.024-5.853-1.878-11.838-3.899-17.367c-0.887-2.424-4.378-5.207-6.832-5.351
			c-2.125-0.124-4.878,2.933-6.561,5.178c-1.41,1.881-2.106,4.573-2.364,6.986c-0.688,6.43-1.539,12.927-1.253,19.351
			c0.299,6.734,1.508,13.488,2.974,20.089c0.843,3.797,3.404,7.384,7.801,7.315c4.419-0.069,6.166-3.96,7.655-7.575
			c0.314-0.761,0.591-1.566,0.707-2.377C246.916,615.617,247.762,609.384,248.621,603.153z M261.366,39.509
			c0,8.352,0,16.732,0,25.103c8.641,0.935,13.114-3.04,13.411-11.788C275.093,43.552,270.588,38.948,261.366,39.509z"/>
		<path fill-rule="evenodd" clip-rule="evenodd" d="M324.457,357.45c12.557,4.427,24.446,8.605,36.326,12.813
			c19.748,6.993,39.315,14.568,59.312,20.757c9.186,2.843,11.894,8.721,13.142,16.848c2.036,13.266,1.127,26.382-2.101,39.313
			c-0.756,3.028-2.341,6.312-4.547,8.437c-10.048,9.678-20.407,19.061-34.514,22.598c-2.553,0.641-5.113,1.42-7.714,1.659
			c-3.959,0.364-7.132-0.152-10.377-3.804c-21.575-24.273-43.607-48.141-65.486-72.144c-1.892-2.074-3.754-4.174-5.801-6.452
			C313.127,385.966,320.224,372.908,324.457,357.45z"/>
		<path fill-rule="evenodd" clip-rule="evenodd" d="M323.886,309.774c11.865-2.978,23.101-5.825,34.351-8.612
			c22.438-5.56,44.906-11.004,67.311-16.702c4.021-1.023,6.78-0.268,9.843,2.568c12.174,11.271,18.431,25.723,22.829,41.21
			c2.385,8.396-1,15.987-3.992,23.522c-3.999,10.068-8.795,19.67-16.511,27.559c-3.397,3.473-6.517,4.765-11.736,3.038
			c-31.571-10.443-63.305-20.398-94.982-30.524c-5.601-1.79-4.663-1.834-3.483-7.714c1.264-6.297,0.807-13.084,0.181-19.568
			C327.227,319.713,325.295,315.017,323.886,309.774z"/>
		<path fill-rule="evenodd" clip-rule="evenodd" d="M267.079,421.982c10.954-6.565,21.3-12.767,32.212-19.308
			c6.922,8.228,14.506,17.229,22.075,26.241c13.066,15.557,25.57,31.639,39.407,46.478c7.539,8.085,8.074,16.942,6.947,26.313
			c-1.444,12.012-6.497,22.964-13.775,32.587c-5.572,7.366-14.364,9.93-22.783,12.178c-11.499,3.07-23.006,3.241-33.246-4.311
			c-1.335-0.985-2.59-2.684-2.971-4.271c-9.326-38.796-18.529-77.622-27.745-116.444C267.165,421.3,267.26,421.122,267.079,421.982z
			"/>
		<path fill-rule="evenodd" clip-rule="evenodd" d="M301.285,267.961c-10.799-6.913-21.101-13.508-32.091-20.544
			c2.72-10.279,5.728-21.641,8.729-33.004c6.578-24.903,13.145-49.81,19.734-74.711c2.61-9.867,4.209-11.011,14.395-11.944
			c11.252-1.031,22.224-0.008,33.163,2.868c4.072,1.071,7.296,2.733,9.939,5.893c9.523,11.382,18.129,23.311,21.112,38.23
			c0.517,2.582,0.331,6.349-1.201,8.14c-24.237,28.327-48.747,56.421-73.203,84.563
			C301.542,267.821,301.119,268.104,301.285,267.961z"/>
		<path fill-rule="evenodd" clip-rule="evenodd" d="M323.076,302.915c-6.086-10.386-11.854-20.23-17.92-30.584
			c0.276-0.336,1.025-1.396,1.922-2.312c25.168-25.697,50.364-51.366,75.51-77.086c2.239-2.291,4.159-3.351,7.787-2.449
			c11.122,2.763,20.298,8.688,28.823,15.958c1.763,1.502,3.452,3.115,5.347,4.432c6.968,4.843,7.936,12.581,8.471,19.808
			c0.803,10.827,0.296,21.76,0.159,32.645c-0.06,4.702-1.981,7.595-7.189,9.1C391.501,282.396,357.134,292.774,323.076,302.915z"/>
		<path fill-rule="evenodd" clip-rule="evenodd" d="M192.825,604.581c2.888,6.256,5.376,11.97,8.143,17.545
			c2.582,5.203,5.46,10.259,8.603,16.116c-6.079,0-11.231,0.26-16.327-0.163c-1.469-0.122-3.412-1.942-4.045-3.445
			c-2.708-6.427-4.786-13.122-7.559-19.518c-1.185-2.734-3.508-4.975-5.315-7.439c-0.709,0.27-1.419,0.539-2.129,0.809
			c0,5.049-0.514,10.165,0.148,15.125c0.632,4.733,2.49,9.303,3.901,14.27c-7.454,0-15.023,0-23.271,0
			c0.283-1.369,0.135-3.396,0.881-3.809c3.871-2.141,3.644-5.796,3.671-9.196c0.119-14.986,0.134-29.976-0.004-44.962
			c-0.031-3.349,0.449-7.064-3.445-9.284c-0.887-0.506-0.9-2.546-1.228-3.596c11.886,0,23.509-0.887,34.923,0.275
			c9.431,0.96,14.19,11.726,11.963,23.484C200.548,597.063,199.013,599.351,192.825,604.581z M174.379,600.647
			c6.023,0.5,8.868-0.759,10.953-4.598c2.811-5.177,2.293-15.554-1.144-19.455c-2.583-2.933-5.792-4.083-9.809-2.752
			C174.379,582.851,174.379,591.584,174.379,600.647z"/>
		<path fill-rule="evenodd" clip-rule="evenodd" d="M104.758,72.753c0-9.944,0.165-19.894-0.14-29.829
			c-0.061-1.97-1.931-3.882-2.953-5.827c-0.746-1.422-1.469-2.855-2.512-4.89c7.212,0,13.327,0,20.157,0
			c-0.563,1.753-0.606,3.961-1.548,4.456c-3.745,1.964-3.657,5.195-3.655,8.571c0.012,16.646,0.005,33.292,0.005,49.938
			c0,1.8,0,3.599,0,6.054c-4.147,0-7.949,0.305-11.653-0.161c-1.339-0.168-2.85-1.971-3.594-3.389
			c-6.178-11.771-12.192-23.628-18.263-35.455c-0.828-1.612-1.695-3.205-3.406-4.733c0,4.829-0.002,9.657,0,14.486
			c0.003,5.826-0.321,11.681,0.172,17.465c0.21,2.472,2.15,4.788,3.264,7.193c0.59,1.275,1.093,2.591,1.847,4.393
			c-6.874,0-12.806,0-19.687,0c0.734-1.817,1.225-3.144,1.799-4.433c1.073-2.411,3.1-4.783,3.146-7.203
			c0.293-15.142,0.275-30.294,0.013-45.438c-0.04-2.297-1.867-4.571-2.904-6.84c-0.662-1.448-1.389-2.865-2.483-5.108
			c7.006,0,12.824-0.232,18.599,0.164c1.439,0.099,3.241,1.966,4.023,3.466c6.449,12.366,12.698,24.839,19.007,37.278
			C104.248,72.858,104.503,72.806,104.758,72.753z"/>
		<path fill-rule="evenodd" clip-rule="evenodd" d="M270.931,566.231c8.187,0,15.806,0,24.614,0c-0.9,1.921-1.619,3.441-2.326,4.967
			c-0.939,2.026-2.674,4.053-2.679,6.083c-0.04,14.803,0.265,29.605,0.474,44.407c0.01,0.662,0.07,1.345,0.244,1.979
			c1.155,4.212,2.9,8.166,7.998,8.23c5.102,0.064,7.173-3.659,8.005-8.048c0.522-2.755,0.715-5.606,0.739-8.417
			c0.103-12.316,0.275-24.64-0.03-36.948c-0.064-2.593-2.094-5.116-3.114-7.713c-0.51-1.301-0.787-2.693-1.288-4.463
			c6.958,0,13.368,0,20.473,0c-0.277,1.457-0.071,3.732-0.914,4.23c-4.289,2.533-3.329,6.664-3.411,10.291
			c-0.298,13.144,0.12,26.316-0.569,39.435c-0.76,14.449-7.379,19.329-23.956,18.985c-12.123-0.252-18.904-7.029-19.258-20.057
			c-0.352-12.977-0.134-25.969-0.193-38.954c-0.018-3.645,0.277-7.328-3.608-9.718C271.273,569.996,271.363,567.931,270.931,566.231
			z"/>
		<path fill-rule="evenodd" clip-rule="evenodd" d="M186.043,100.854c0.503-1.612,0.529-3.452,1.287-3.832
			c4.047-2.03,3.618-5.604,3.619-9.098c0.001-14.332,0.006-28.663-0.003-42.994c-0.002-3.156,0.31-6.309-3.374-8.164
			c-0.906-0.457-0.904-2.717-1.423-4.505c15.66,0,30.572,0,45.702,0c0,5.673,0,11.082,0,16.533c-4.861,1.164-8.13,0.755-10.126-4.73
			c-2.399-6.595-8.686-4.578-14.281-4.727c0,7.497,0,14.864,0,22.354c3.93,0.817,6.78,0.314,8.779-4.067
			c0.829-1.816,4.375-2.393,7.512-3.941c0,8.416,0,15.176,0,22.124c-3.739,0.723-6.844,1.421-8.762-3.497
			c-0.736-1.886-4.456-2.607-7.717-4.338c0,9.667,0,17.585,0,25.475c11.482,1.804,12.876,0.896,17.291-11.255
			c2.392,0,4.854,0,7.579,0c0,6.144,0,12.203,0,18.663C216.842,100.854,201.961,100.854,186.043,100.854z"/>
		<path fill-rule="evenodd" clip-rule="evenodd" d="M339.83,53.85c0,8.471,0,15.094,0,22.074c-3.713,0.426-6.902,1.433-8.826-3.563
			c-0.733-1.905-4.444-2.664-7.73-4.452c0,9.679,0,17.6,0,25.499c11.279,1.974,13,0.859,17.219-11.204c2.393,0,4.859,0,7.695,0
			c0,3.092,0,6.172,0,9.252c0,3.12,0,6.241,0,9.567c-15.521,0-30.29,0-45.957,0c0.538-1.689,0.866-3.075,1.417-4.366
			c1.032-2.42,3.105-4.767,3.152-7.175c0.294-15.159,0.271-30.328,0.018-45.489c-0.038-2.299-1.812-4.576-2.815-6.851
			c-0.636-1.442-1.33-2.86-2.285-4.901c16.042,0,30.957,0,46.134,0c0,5.648,0,11.055,0,16.597c-4.761,1.03-8.097,0.829-10.103-4.719
			c-2.519-6.961-8.97-4.377-14.469-4.908c0,7.813,0,15.063,0,22.414c4.351,1.025,7.199,0.201,9.087-4.425
			C333.033,55.565,336.71,55.159,339.83,53.85z"/>
		<path fill-rule="evenodd" clip-rule="evenodd" d="M143.112,583.043c-2.893,0-5.171,0-7.6,0c-0.252-0.737-0.485-1.329-0.657-1.938
			c-1.192-4.206-3.092-8.295-7.896-8.538c-4.825-0.244-8.006,3.236-9.573,7.507c-5.594,15.246-5.374,30.677-0.064,45.888
			c0.853,2.441,4.262,5.437,6.639,5.572c3.897,0.225,5.035-3.852,5.188-7.287c0.25-5.588,2.41-11.727-3.662-15.925
			c-0.325-0.225-0.449-0.89-0.477-1.361c-0.048-0.82,0.053-1.649,0.103-2.717c7.516,0,14.952,0,23.039,0
			c-0.303,1.619-0.429,3.135-0.882,4.545c-0.96,2.987-2.79,5.868-3.01,8.884c-0.47,6.452-0.144,12.962-0.144,19.731
			c-3.193,1.246-6.145,3.358-9.533,0.331c-0.43-0.385-1.506-0.256-2.217-0.087c-19.597,4.649-29.575-1.352-32.936-20.666
			c-1.89-10.856-1.92-21.874,1.357-32.629c4.402-14.447,15.741-21.802,30.578-19.168c14.681,2.606,11.331-0.003,11.745,13.852
			C143.142,580.181,143.112,581.326,143.112,583.043z"/>
		<path fill-rule="evenodd" clip-rule="evenodd" d="M331.723,638.047c0.412-1.669,0.334-3.548,1.062-3.943
			c4.097-2.227,3.72-6.098,3.748-9.652c0.12-14.822,0.121-29.646,0.002-44.469c-0.028-3.552,0.355-7.429-3.818-9.598
			c-0.727-0.378-0.609-2.377-1.158-4.891c12.17,0.567,23.702,0.885,35.186,1.813c2.526,0.204,5.499,2.05,7.2,4.047
			c6.833,8.026,5.983,17.362,2.82,26.419c-2.774,7.944-9.229,11.419-17.544,11.477c-2.455,0.017-4.911,0.002-8.022,0.002
			c0,5.64-0.605,10.839,0.183,15.818c0.688,4.352,2.945,8.456,4.622,12.977C347.949,638.047,340.332,638.047,331.723,638.047z
			 M351.422,573.838c0,9.436,0,18.544,0,27.617c6.507,0.972,10.373-0.882,11.437-6.644c0.854-4.616,0.893-9.623,0.083-14.245
			C361.913,574.693,358.085,572.805,351.422,573.838z"/>
		<path fill-rule="evenodd" clip-rule="evenodd" d="M396.552,32.461c0,6.382,0,11.325,0,16.329
			c-4.813,1.091-8.258,1.112-9.921-4.776c-1.421-5.03-6.254-6.645-10.281-4.648c-4.226,2.094-5.996,7.17-3.336,11.485
			c1.593,2.584,4.17,4.671,6.611,6.594c2.731,2.151,5.91,3.726,8.716,5.795c9.055,6.679,11.979,19.583,6.665,29.529
			c-3.269,6.119-8.792,9.172-15.468,9.315c-6.611,0.141-13.243-0.662-19.866-1.053c-2.81-0.165-4.075-1.458-3.922-4.462
			c0.22-4.296,0.056-8.611,0.056-13.241c2.761,0,5.18,0,7.955,0c0.521,1.445,1.067,3.146,1.738,4.797
			c2.347,5.782,7.116,8.226,11.712,6.046c4.858-2.305,6.787-8.766,3.449-13.687c-1.89-2.786-4.86-4.912-7.572-7.046
			c-2.339-1.841-5.129-3.104-7.495-4.916c-8.033-6.155-10.839-14.896-8.022-24.414c2.274-7.683,8.586-12.519,18.72-12.947
			C382.979,30.877,389.729,31.975,396.552,32.461z"/>
		<path fill-rule="evenodd" clip-rule="evenodd" d="M165.782,101.075c-9.599,0-17.88,0-27.743,0
			c1.296-2.041,2.132-3.332,2.942-4.639c0.991-1.6,2.792-3.202,2.812-4.82c0.206-17.277,0.128-34.559,0.128-52.051
			c-4.481-0.592-7.914,0.968-8.682,4.962c-1.207,6.276-4.989,6.312-10.012,5.348c0-5.8,0-11.542,0-17.582
			c17.822,0,35.528,0,53.529,0c0,5.838,0,11.569,0,17.563c-4.688,0.845-8.666,1.402-9.894-5.081
			c-0.761-4.02-4.053-5.778-8.813-5.206c0,8.206,0,16.324,0,24.442c0,8.32,0.02,16.64-0.009,24.96
			c-0.011,3.253,0.06,6.29,3.728,7.961C164.664,97.341,164.908,99.177,165.782,101.075z"/>
		<path fill-rule="evenodd" clip-rule="evenodd" d="M420.924,39.407c-4.939-0.267-8.157,1.565-8.9,5.625
			c-1.155,6.313-5.201,5.53-9.809,4.924c0-5.917,0-11.656,0-17.678c17.867,0,35.573,0,53.558,0c0,5.887,0,11.619,0,17.6
			c-4.749,0.832-8.741,1.372-9.925-5.145c-0.738-4.06-4.146-5.615-8.798-5.327c0,9.741,0,19.192,0,28.644
			c0,6.988,0.025,13.978-0.01,20.966c-0.017,3.265,0.101,6.281,3.769,7.938c0.884,0.399,1.104,2.266,1.872,4.005
			c-9.249,0-17.672,0-27.617,0c1.265-1.939,2.136-3.226,2.954-4.545c0.992-1.599,2.761-3.215,2.779-4.841
			C421.001,74.297,420.924,57.018,420.924,39.407z"/>
		<path fill-rule="evenodd" clip-rule="evenodd" d="M54.817,101.014c-8.718,0-16.664,0-25.787,0c0.76-1.821,1.304-3.227,1.928-4.596
			c0.967-2.123,2.821-4.208,2.855-6.331c0.248-15.487,0.263-30.982-0.01-46.469c-0.039-2.224-2.066-4.393-3.087-6.626
			c-0.622-1.36-1.079-2.798-1.803-4.708c8.883,0,16.973,0,25.794,0c-0.394,1.656-0.294,3.939-1.155,4.392
			c-3.797,1.991-3.525,5.33-3.53,8.645c-0.025,14.324-0.019,28.649-0.008,42.975c0.002,3.332-0.246,6.677,3.52,8.653
			C54.338,97.37,54.33,99.341,54.817,101.014z"/>
		<path fill-rule="evenodd" clip-rule="evenodd" fill="#FFFFFF" d="M209.202,491.229c-50.299-9.432-103.648-56.377-115.864-125.857
			c1.234-0.138,2.453-0.389,3.671-0.39c18.982-0.025,37.965,0.046,56.947-0.084c2.945-0.02,4.272,0.889,5.392,3.677
			c9.021,22.45,24.44,38.928,46.433,49.233c1.45,0.68,3.264,2.641,3.276,4.02C209.261,444.788,209.202,467.75,209.202,491.229z"/>
		<path fill-rule="evenodd" clip-rule="evenodd" fill="#FFFFFF" d="M209.208,177.455c0,5.222,0,10.357,0,15.493
			c0,17.487-0.076,34.975,0.07,52.461c0.026,3.115-0.947,4.583-3.838,5.897c-20.395,9.274-34.953,24.435-44.512,44.624
			c-0.795,1.681-3.089,3.754-4.709,3.773c-20.148,0.246-40.301,0.146-60.453,0.118c-0.471-0.001-0.941-0.212-1.408-0.324
			C104.444,241.109,152.538,188.467,209.208,177.455z"/>
		<path fill-rule="evenodd" clip-rule="evenodd" fill="#FFFFFF" d="M248.621,603.153c-0.859,6.23-1.705,12.464-2.594,18.689
			c-0.116,0.811-0.393,1.616-0.707,2.377c-1.489,3.615-3.236,7.506-7.655,7.575c-4.397,0.068-6.958-3.519-7.801-7.315
			c-1.466-6.601-2.674-13.354-2.974-20.089c-0.286-6.424,0.566-12.921,1.253-19.351c0.258-2.413,0.954-5.105,2.364-6.986
			c1.683-2.245,4.437-5.302,6.561-5.178c2.454,0.144,5.945,2.927,6.832,5.351c2.021,5.529,2.875,11.515,3.899,17.367
			c0.424,2.421,0.07,4.978,0.07,7.473C248.12,603.096,248.37,603.124,248.621,603.153z"/>
		<path fill-rule="evenodd" clip-rule="evenodd" fill="#FFFFFF" d="M261.366,39.509c9.222-0.561,13.727,4.043,13.411,13.314
			c-0.297,8.748-4.771,12.723-13.411,11.788C261.366,56.241,261.366,47.86,261.366,39.509z"/>
		<path fill-rule="evenodd" clip-rule="evenodd" fill="#FFFFFF" d="M174.379,600.647c0-9.063,0-17.797,0-26.805
			c4.017-1.331,7.226-0.181,9.809,2.752c3.437,3.901,3.955,14.278,1.144,19.455C183.248,599.889,180.403,601.147,174.379,600.647z"
			/>
		<path fill-rule="evenodd" clip-rule="evenodd" fill="#FFFFFF" d="M351.422,573.838c6.663-1.033,10.491,0.855,11.52,6.729
			c0.81,4.622,0.771,9.629-0.083,14.245c-1.063,5.762-4.93,7.615-11.437,6.644C351.422,592.382,351.422,583.273,351.422,573.838z"/>
	</g>
</g>
</svg>
