<?xml version="1.0" encoding="utf-8"?>
<!-- Generator: Adobe Illustrator 16.0.3, SVG Export Plug-In . SVG Version: 6.00 Build 0)  -->
<!DOCTYPE svg PUBLIC "-//W3C//DTD SVG 1.1//EN" "http://www.w3.org/Graphics/SVG/1.1/DTD/svg11.dtd">
<svg version="1.1" id="Votewise_logo_no_background3_xA0_Image_1_"
	 xmlns="http://www.w3.org/2000/svg" xmlns:xlink="http://www.w3.org/1999/xlink" x="0px" y="0px" width="1665px" height="672px"
	 viewBox="0 0 1665 672" enable-background="new 0 0 1665 672" xml:space="preserve">
<g>
	<g>
		<path fill-rule="evenodd" clip-rule="evenodd" fill="#FFFFFF" d="M1,1c555,0,1110,0,1665,0c0,224,0,448,0,672
			c-555,0-1110,0-1665,0C1,449,1,225,1,1z M1248.424,276.581c2.313-13.231,5.359-26.384,6.793-39.711
			c3.605-33.515-1.781-65.957-16.77-96.013c-38.477-77.156-102.837-114.999-187.581-119.783
			c-29.163-1.646-57.592,3.847-84.996,14.158c-81.735,30.756-139.771,110.1-132.156,200.615c1.9,22.589,7.454,44.139,17.128,64.632
			c-1.4-2.184-3.116-4.229-4.136-6.578c-2.257-5.202-4.165-10.557-6.215-15.85c-0.38,0.05-0.761,0.1-1.142,0.149
			c-6.348,34.869-12.696,69.737-19.045,104.606c-0.42-0.03-0.84-0.061-1.26-0.091c-12.901-73.803-25.804-147.604-38.714-221.457
			c-16.554,0-32.746,0-49.424,0c29.517,150.381,58.936,300.265,88.354,450.148c0.278-0.002,0.557-0.005,0.835-0.007
			c14.261-79.96,28.521-159.92,42.782-239.88c0.428,0.023,0.854,0.048,1.282,0.071c15.658,80.047,31.317,160.094,46.976,240.14
			c0.24-0.007,0.479-0.014,0.719-0.021c13.043-70.207,26.086-140.413,39.133-210.641c-1.355-1.177-2.946-2.56-4.537-3.941
			c4.531,2.047,8.998,4.252,13.603,6.116c38.04,15.405,77.359,20.48,117.971,14.023c10.448-1.661,20.757-4.194,31.13-6.327
			c0.42,1.152,0.71,2.376,1.282,3.448c9.07,17.006,18.168,33.997,27.278,50.981c7.131,13.294,11.132,27.26,10.452,42.56
			c-0.915,20.611-9.762,37.752-22.477,53.236c-5.959,7.258-12.471,14.061-19.23,21.628c17.423,0,34.193,0.056,50.962-0.108
			c1.306-0.014,3.025-1.273,3.823-2.449c4.663-6.872,9.701-13.583,13.524-20.916c15.499-29.724,21.655-60.883,7.756-92.616
			c-10.479-23.926-23.596-46.696-35.539-69.982c-1.816,0.499-3.725,1.023-5.632,1.548c4.768-2.688,9.578-5.305,14.298-8.075
			c38.803-22.787,67.492-54.624,85.676-95.848c0.065,6.14-3.718,11.052-3.586,17.843c0.881,45.306,0.455,90.638,0.454,135.961
			c0,1.583,0,3.167,0,5.257c-17.981,0-35.173,0-53.098,0c7.082,11.228,14.026,21.577,20.224,32.356
			c2.799,4.869,6.033,6.518,11.456,6.153c7.048-0.474,14.151-0.115,21.418-0.115c0,13.366-0.122,25.858,0.038,38.348
			c0.134,10.413,1.793,20.597,6.747,29.908c8.748,16.445,23.799,22.162,41.141,22.623c21.313,0.565,42.649,0.261,63.975,0.299
			c1.262,0.002,2.523-0.287,3.772-0.44c0-13.686,0-26.946,0-40.488c-1.732-0.079-3.192-0.202-4.652-0.203
			c-18.162-0.014-36.326,0.091-54.487-0.048c-11.579-0.088-14.475-3.037-14.701-14.543c-0.185-9.326-0.161-18.656-0.223-27.984
			c-0.016-2.411-0.002-4.823-0.002-7.749c25.246,0,49.649,0,74.05,0c0-12.958,0-25.385,0-38.344c-24.703,0-49.107,0-73.676,0
			c0-50.228,0-99.919,0-150.143c24.769,0,49.169,0,73.706,0c0-13.782,0-27.028,0-41.015c-33.748,0-67.229,0-100.813,0
			C1251.654,266.463,1250.039,271.522,1248.424,276.581z M90.055,161.431c28.872,150.13,57.686,299.956,86.5,449.782
			c0.364-0.02,0.728-0.039,1.092-0.06c28.607-149.78,57.214-299.562,85.886-449.687c-15.694,0-30.941,0-46.423,0
			c-13.055,75.278-26.08,150.386-39.105,225.493c-0.609-0.029-1.219-0.058-1.828-0.087
			c-13.038-75.182-26.077-150.364-39.097-225.442C121.04,161.431,105.756,161.431,90.055,161.431z M287.197,422.001
			c0,36.647-0.291,73.298,0.109,109.94c0.24,21.938,9.883,39.06,29.28,49.986c15.562,8.767,32.371,10.318,49.79,7.836
			c30.271-4.314,51.423-28.6,51.426-59.188c0.005-72.462,0.055-144.924-0.042-217.385c-0.02-15.07-5.166-28.365-15.611-39.363
			c-14.521-15.289-32.817-20.762-53.368-19.971c-34.07,1.312-62.309,25.034-61.704,62.701
			C287.64,351.697,287.197,386.853,287.197,422.001z M647.104,453.137c0-50.301,0-99.875,0-150.146c24.815,0,49.34,0,73.663,0
			c0-13.94,0-27.18,0-40.512c-38.631,0-76.867,0-115.704,0c0,63.641,0,127.001,0,190.86c-17.796,0-34.995,0-52.994,0
			c7.433,11.804,14.564,22.792,21.296,34.021c2.069,3.451,4.364,4.691,8.314,4.534c7.74-0.308,15.501-0.09,23.519-0.09
			c0,13.283-0.114,25.766,0.035,38.244c0.124,10.413,1.769,20.599,6.695,29.918c8.703,16.463,23.735,22.24,41.08,22.713
			c21.31,0.581,42.643,0.264,63.966,0.304c1.27,0.003,2.539-0.266,3.765-0.402c0-13.76,0-27.137,0-40.739
			c-18.904,0-37.389,0.002-55.874-0.001c-15.344-0.002-17.266-1.826-17.888-16.939c-0.021-0.498-0.133-0.994-0.133-1.491
			c-0.008-10.423-0.006-20.847-0.006-31.772c25.114,0,49.523,0,73.881,0c0-13.062,0-25.599,0-38.5
			C696.009,453.137,671.736,453.137,647.104,453.137z M482.187,303.266c0,93.319,0,186.179,0,279.233c14.093,0,27.645,0,41.74,0
			c0-93.158,0-186.013,0-279.52c14.579,0,28.621,0,42.751,0c0-13.885,0-27.113,0-40.502c-42.395,0-84.464,0-126.716,0
			c0,13.633,0,26.982,0,40.788C454.14,303.266,467.899,303.266,482.187,303.266z M1022.429,420.568c0,54.06,0,108.051,0,161.966
			c14.029,0,27.458,0,41.181,0c0.073-1.376,0.186-2.502,0.186-3.628c0.009-36.624,0.006-73.248,0.006-109.872
			c0-14.805-0.054-29.609,0.084-44.412c0.014-1.524,1.174-3.038,1.595-4.054C1052.033,420.568,1037.104,420.568,1022.429,420.568z
			 M1413.005,378.758c-0.291,0.108-0.582,0.216-0.873,0.323c0,27.396,0,54.79,0,82.347c3.329,0,6.361,0,9.971,0
			c0-16.008,0-31.647,0-48.767c2.907,4.917,4.771,8.636,7.163,11.978c3.271,4.568,4.239,9.477,4.006,14.993
			c-0.307,7.259-0.075,14.54-0.075,21.898c3.554,0,6.475,0,9.632,0c0-26.804,0-53.334,0-79.918c-3.372,0-6.4,0-9.935,0
			c0,10.256,0,20.101,0,29.945c-0.302,0.069-0.603,0.139-0.904,0.209C1425.661,400.764,1419.333,389.761,1413.005,378.758z
			 M1487.126,382.423c-9.527,0-18.728,0-28.463,0c0,15.824,0,31.229,0,46.851c-4.364,0.197-8.214,0.371-12.527,0.566
			c2.808,5.683,4.932,10.932,12.753,8.69c0,4.524-0.18,8.33,0.041,12.112c0.361,6.201,3.663,10.295,9.678,10.855
			c6.068,0.564,12.229,0.124,18.587,0.124c0-3.351,0-6.274,0-9.781c-2.545,0-4.831,0-7.117,0
			c-11.808-0.002-11.811-0.002-11.122-11.719c0.017-0.287,0.283-0.559,0.766-1.458c5.56,0,11.455,0,17.281,0c0-3.36,0-6.072,0-9.256
			c-6.229,0-12.008,0-17.853,0c0-12.727,0-24.966,0-37.656c6.109,0,11.881,0,17.977,0
			C1487.126,388.412,1487.126,385.527,1487.126,382.423z M1490.393,382.238c0,3.483,0,6.377,0,9.803c3.627,0,6.87,0,10.578,0
			c0,23.456,0,46.369,0,69.356c3.551,0,6.581,0,10.045,0c0-23.329,0-46.256,0-69.779c3.826,0,7.217,0,10.399,0
			c0-3.527,0-6.443,0-9.38C1510.911,382.238,1500.797,382.238,1490.393,382.238z M1388.259,450.803c0,3.969,0,7.327,0,10.713
			c3.654,0,6.884,0,10.239,0c0-3.679,0-7.064,0-10.713C1394.957,450.803,1391.721,450.803,1388.259,450.803z M1257.316,233.729
			c0.076,0.043,0.152,0.086,0.229,0.129c0-8.933,0-17.865,0-26.798c-0.077,0-0.153-0.001-0.229-0.001
			C1257.316,215.949,1257.316,224.839,1257.316,233.729z M1032.203,19.477c-0.018,0.087-0.035,0.175-0.053,0.263
			c8.281,0,16.563,0,24.846,0c0-0.088,0-0.176,0-0.263C1048.732,19.477,1040.468,19.477,1032.203,19.477z M831.733,209.973
			c-0.068,0.001-0.137,0.002-0.205,0.004c0,6.942,0,13.885,0,20.828c0.068-0.002,0.137-0.003,0.205-0.004
			C831.733,223.858,831.733,216.916,831.733,209.973z"/>
		<path fill-rule="evenodd" clip-rule="evenodd" d="M850.842,300.479c-9.674-20.493-15.228-42.043-17.128-64.632
			C826.1,145.332,884.135,65.988,965.87,35.232c27.404-10.312,55.833-15.805,84.996-14.158
			c84.744,4.784,149.104,42.627,187.581,119.783c14.988,30.056,20.375,62.498,16.77,96.013c-1.434,13.327-4.48,26.479-6.79,39.7
			c-2.364,5.919-4.731,11.849-7.099,17.778c-18.184,41.224-46.873,73.061-85.676,95.848c-4.72,2.771-9.53,5.388-14.298,8.075
			c-10.733,4.224-21.467,8.447-32.2,12.67c-10.373,2.134-20.682,4.667-31.13,6.328c-40.611,6.457-79.931,1.382-117.971-14.023
			c-4.604-1.864-9.071-4.069-13.603-6.116C902.994,376.376,871.029,344.253,850.842,300.479z M1146.428,377.881
			c0.571-0.21,1.076-0.308,1.486-0.561c54.09-33.278,86.494-80.858,91.678-144.59c4.391-53.995-12.867-101.827-51.533-139.679
			C1126.7,32.985,1053.654,18.339,973.663,47.82c-59.176,21.809-97.771,65.045-115.029,126.32c-1.057,3.752-1.98,7.996-1.306,11.709
			c6.756,37.157,13.836,74.256,20.889,111.359c1.332,7.009,1.421,14.812,4.735,20.774c8.114,14.598,19.755,26.589,32.832,38.133
			c1.567-8.701,3.014-16.732,4.553-25.275c5.134,3.162,9.706,5.829,14.123,8.732c6.423,4.224,7.52,4.042,13.275-1.255
			c3.115-2.867,2.798-4.504-0.626-6.832c-6.311-4.291-12.362-8.97-18.428-13.61c-3.798-2.906-5.483-6.395-4.594-11.637
			c11.716-69.063,23.257-138.156,34.671-207.271c0.62-3.751,1.747-4.928,5.571-4.894c20.828,0.188,41.658,0.083,62.486,0.102
			c1.551,0.001,3.101,0.181,4.989,0.298c-5.142,27.832-10.128,54.977-15.172,82.11c-13.106,70.502-26.22,141.003-39.419,211.487
			c-0.611,3.268,0.2,4.75,3.375,5.813c28.172,9.423,57.03,12.791,86.576,9.891c7.006-0.688,13.941-2.095,21.547-3.27
			c-1.464-2.938-2.458-5.008-3.517-7.044c-21.195-40.778-25.779-83.816-17.501-128.603c8.148-44.079,29.45-81.309,59.59-113.855
			c1.417-1.53,4.292-2.391,6.495-2.405c25.661-0.163,51.322-0.104,76.983-0.104c1.565,0,3.13,0,4.695,0
			c-3.055,3.594-6.385,6.052-9.594,8.659c-44.315,36.007-73.848,80.388-78.432,138.829
			C1125.139,325.254,1132.074,352.407,1146.428,377.881z"/>
		<path fill-rule="evenodd" clip-rule="evenodd" d="M850.842,300.479c20.188,43.773,52.152,75.896,95.609,96.65
			c1.591,1.382,3.182,2.765,4.537,3.941c-13.047,70.228-26.09,140.434-39.133,210.641c-0.239,0.007-0.479,0.014-0.719,0.021
			c-15.658-80.046-31.317-160.093-46.976-240.14c-0.428-0.023-0.854-0.048-1.282-0.071c-14.261,79.96-28.521,159.92-42.782,239.88
			c-0.278,0.002-0.557,0.005-0.835,0.007c-29.419-149.884-58.838-299.768-88.354-450.148c16.678,0,32.87,0,49.424,0
			c12.91,73.853,25.813,147.654,38.714,221.457c0.42,0.03,0.84,0.061,1.26,0.091c6.349-34.869,12.697-69.737,19.045-104.606
			c0.381-0.05,0.762-0.1,1.142-0.149c2.05,5.293,3.958,10.647,6.215,15.85C847.726,296.25,849.441,298.296,850.842,300.479z"/>
		<path fill-rule="evenodd" clip-rule="evenodd" d="M90.055,161.431c15.701,0,30.985,0,47.024,0
			c13.021,75.078,26.059,150.261,39.097,225.442c0.609,0.029,1.219,0.058,1.828,0.087c13.025-75.107,26.05-150.215,39.105-225.493
			c15.482,0,30.729,0,46.423,0c-28.672,150.125-57.279,299.906-85.886,449.687c-0.364,0.021-0.728,0.04-1.092,0.06
			C147.741,461.387,118.927,311.561,90.055,161.431z"/>
		<path fill-rule="evenodd" clip-rule="evenodd" d="M287.197,422.001c0-35.148,0.443-70.304-0.121-105.442
			c-0.604-37.667,27.634-61.39,61.704-62.701c20.551-0.791,38.848,4.682,53.368,19.971c10.445,10.998,15.592,24.293,15.611,39.363
			c0.097,72.461,0.047,144.923,0.042,217.385c-0.003,30.588-21.154,54.873-51.426,59.188c-17.419,2.482-34.229,0.931-49.79-7.836
			c-19.397-10.927-29.04-28.049-29.28-49.986C286.906,495.299,287.197,458.648,287.197,422.001z M376.372,421.493
			c0-32.309,0.028-64.617-0.035-96.926c-0.008-4.146-0.26-8.322-0.803-12.432c-1.473-11.149-6.619-16.128-17.887-17.037
			c-4.263-0.344-8.646-0.204-12.884,0.381c-7.466,1.03-12.633,5.384-14.211,12.79c-1.201,5.64-1.833,11.508-1.847,17.276
			c-0.13,57.289-0.098,114.579-0.061,171.868c0.006,9.816,0.013,19.642,0.437,29.444c0.675,15.584,6.517,21.884,22.004,22.324
			c14.32,0.408,23.627-2.078,24.861-21.803c0.249-3.979,0.403-7.972,0.407-11.958C376.387,484.112,376.372,452.803,376.372,421.493z
			"/>
		<path fill-rule="evenodd" clip-rule="evenodd" d="M647.104,453.137c24.633,0,48.905,0,73.615,0c0,12.901,0,25.438,0,38.5
			c-24.357,0-48.767,0-73.881,0c0,10.926-0.002,21.35,0.006,31.772c0,0.497,0.112,0.993,0.133,1.491
			c0.622,15.113,2.544,16.938,17.888,16.939c18.485,0.003,36.97,0.001,55.874,0.001c0,13.603,0,26.979,0,40.739
			c-1.226,0.137-2.495,0.405-3.765,0.402c-21.323-0.04-42.656,0.277-63.966-0.304c-17.345-0.473-32.377-6.25-41.08-22.713
			c-4.927-9.319-6.571-19.505-6.695-29.918c-0.149-12.479-0.035-24.961-0.035-38.244c-8.018,0-15.778-0.218-23.519,0.09
			c-3.95,0.157-6.245-1.083-8.314-4.534c-6.731-11.229-13.863-22.217-21.296-34.021c17.999,0,35.198,0,52.994,0
			c0-63.859,0-127.22,0-190.86c38.837,0,77.073,0,115.704,0c0,13.332,0,26.571,0,40.512c-24.323,0-48.848,0-73.663,0
			C647.104,353.262,647.104,402.836,647.104,453.137z"/>
		<path fill-rule="evenodd" clip-rule="evenodd" d="M1241.328,294.349c2.367-5.93,4.734-11.859,7.099-17.778
			c1.612-5.048,3.228-10.107,4.645-14.546c33.584,0,67.064,0,100.813,0c0,13.986,0,27.232,0,41.015c-24.537,0-48.938,0-73.706,0
			c0,50.224,0,99.915,0,150.143c24.568,0,48.973,0,73.676,0c0,12.959,0,25.386,0,38.344c-24.4,0-48.804,0-74.05,0
			c0,2.926-0.014,5.338,0.002,7.749c0.062,9.328,0.038,18.658,0.223,27.984c0.227,11.506,3.122,14.455,14.701,14.543
			c18.161,0.139,36.325,0.034,54.487,0.048c1.46,0.001,2.92,0.124,4.652,0.203c0,13.542,0,26.803,0,40.488
			c-1.249,0.153-2.511,0.442-3.772,0.44c-21.325-0.038-42.662,0.267-63.975-0.299c-17.342-0.461-32.393-6.178-41.141-22.623
			c-4.954-9.312-6.613-19.495-6.747-29.908c-0.16-12.489-0.038-24.981-0.038-38.348c-7.267,0-14.37-0.358-21.418,0.115
			c-5.423,0.364-8.657-1.284-11.456-6.153c-6.197-10.779-13.142-21.129-20.224-32.356c17.925,0,35.116,0,53.098,0
			c0-2.09,0-3.674,0-5.257c0.001-45.323,0.427-90.655-0.454-135.961C1237.61,305.4,1241.394,300.488,1241.328,294.349z"/>
		<path fill-rule="evenodd" clip-rule="evenodd" d="M482.187,303.266c-14.287,0-28.047,0-42.225,0c0-13.806,0-27.155,0-40.788
			c42.252,0,84.321,0,126.716,0c0,13.389,0,26.617,0,40.502c-14.13,0-28.172,0-42.751,0c0,93.507,0,186.361,0,279.52
			c-14.096,0-27.647,0-41.74,0C482.187,489.444,482.187,396.585,482.187,303.266z"/>
		<path fill-rule="evenodd" clip-rule="evenodd" d="M1109.154,410.941c10.733-4.223,21.467-8.446,32.2-12.67
			c1.907-0.524,3.815-1.049,5.632-1.548c11.943,23.286,25.06,46.057,35.539,69.982c13.899,31.733,7.743,62.893-7.756,92.616
			c-3.823,7.333-8.861,14.044-13.524,20.916c-0.798,1.176-2.518,2.436-3.823,2.449c-16.769,0.164-33.539,0.108-50.962,0.108
			c6.76-7.567,13.271-14.37,19.23-21.628c12.715-15.484,21.562-32.625,22.477-53.236c0.68-15.3-3.321-29.266-10.452-42.56
			c-9.11-16.984-18.208-33.976-27.278-50.981C1109.864,413.318,1109.574,412.095,1109.154,410.941z"/>
		<path fill-rule="evenodd" clip-rule="evenodd" d="M1022.429,420.568c14.675,0,29.604,0,43.051,0
			c-0.421,1.016-1.581,2.529-1.595,4.054c-0.138,14.803-0.084,29.607-0.084,44.412c0,36.624,0.003,73.248-0.006,109.872
			c0,1.126-0.112,2.252-0.186,3.628c-13.723,0-27.151,0-41.181,0C1022.429,528.619,1022.429,474.628,1022.429,420.568z"/>
		<path fill-rule="evenodd" clip-rule="evenodd" d="M1413.005,378.758c6.328,11.003,12.656,22.006,18.984,33.009
			c0.302-0.07,0.603-0.14,0.904-0.209c0-9.845,0-19.689,0-29.945c3.534,0,6.563,0,9.935,0c0,26.584,0,53.114,0,79.918
			c-3.157,0-6.078,0-9.632,0c0-7.358-0.231-14.64,0.075-21.898c0.233-5.517-0.735-10.425-4.006-14.993
			c-2.392-3.342-4.256-7.061-7.163-11.978c0,17.119,0,32.759,0,48.767c-3.609,0-6.642,0-9.971,0c0-27.557,0-54.951,0-82.347
			C1412.423,378.974,1412.714,378.866,1413.005,378.758z"/>
		<path fill-rule="evenodd" clip-rule="evenodd" d="M1487.126,382.423c0,3.104,0,5.989,0,9.329c-6.096,0-11.867,0-17.977,0
			c0,12.69,0,24.93,0,37.656c5.845,0,11.624,0,17.853,0c0,3.184,0,5.896,0,9.256c-5.826,0-11.722,0-17.281,0
			c-0.482,0.899-0.749,1.171-0.766,1.458c-0.688,11.717-0.686,11.717,11.122,11.719c2.286,0,4.572,0,7.117,0
			c0,3.507,0,6.431,0,9.781c-6.357,0-12.519,0.44-18.587-0.124c-6.015-0.561-9.316-4.654-9.678-10.855
			c-0.221-3.782-0.041-7.588-0.041-12.112c-7.821,2.241-9.945-3.008-12.753-8.69c4.313-0.195,8.163-0.369,12.527-0.566
			c0-15.622,0-31.026,0-46.851C1468.398,382.423,1477.599,382.423,1487.126,382.423z"/>
		<path fill-rule="evenodd" clip-rule="evenodd" d="M1490.393,382.238c10.404,0,20.519,0,31.022,0c0,2.937,0,5.853,0,9.38
			c-3.183,0-6.573,0-10.399,0c0,23.523,0,46.45,0,69.779c-3.464,0-6.494,0-10.045,0c0-22.987,0-45.9,0-69.356
			c-3.708,0-6.951,0-10.578,0C1490.393,388.615,1490.393,385.722,1490.393,382.238z"/>
		<path fill-rule="evenodd" clip-rule="evenodd" d="M1388.259,450.803c3.462,0,6.698,0,10.239,0c0,3.648,0,7.034,0,10.713
			c-3.355,0-6.585,0-10.239,0C1388.259,458.13,1388.259,454.771,1388.259,450.803z"/>
		<path fill-rule="evenodd" clip-rule="evenodd" d="M1257.316,233.729c0-8.891,0-17.78,0-26.67c0.076,0,0.152,0.001,0.229,0.001
			c0,8.933,0,17.865,0,26.798C1257.469,233.815,1257.393,233.772,1257.316,233.729z"/>
		<path fill-rule="evenodd" clip-rule="evenodd" d="M1032.203,19.477c8.265,0,16.529,0,24.793,0c0,0.087,0,0.175,0,0.263
			c-8.282,0-16.564,0-24.846,0C1032.168,19.651,1032.186,19.563,1032.203,19.477z"/>
		<path fill-rule="evenodd" clip-rule="evenodd" d="M831.733,209.973c0,6.943,0,13.886,0,20.828
			c-0.068,0.001-0.137,0.002-0.205,0.004c0-6.943,0-13.886,0-20.828C831.597,209.975,831.665,209.974,831.733,209.973z"/>
		<path fill-rule="evenodd" clip-rule="evenodd" fill="#FFFFFF" d="M1146.428,377.881c-14.354-25.474-21.289-52.627-18.994-81.898
			c4.584-58.441,34.116-102.822,78.432-138.829c3.209-2.607,6.539-5.065,9.594-8.659c-1.565,0-3.13,0-4.695,0
			c-25.661,0-51.322-0.059-76.983,0.104c-2.203,0.015-5.078,0.875-6.495,2.405c-30.14,32.547-51.441,69.776-59.59,113.855
			c-8.278,44.786-3.694,87.824,17.501,128.603c1.059,2.036,2.053,4.106,3.517,7.044c-7.605,1.175-14.541,2.581-21.547,3.27
			c-29.546,2.9-58.404-0.468-86.576-9.891c-3.175-1.063-3.986-2.545-3.375-5.813c13.199-70.484,26.313-140.985,39.419-211.487
			c5.044-27.134,10.03-54.278,15.172-82.11c-1.889-0.117-3.438-0.297-4.989-0.298c-20.828-0.019-41.658,0.086-62.486-0.102
			c-3.824-0.034-4.951,1.143-5.571,4.894c-11.414,69.114-22.955,138.207-34.671,207.271c-0.89,5.242,0.796,8.73,4.594,11.637
			c6.065,4.641,12.117,9.319,18.428,13.61c3.424,2.328,3.741,3.965,0.626,6.832c-5.756,5.297-6.853,5.479-13.275,1.255
			c-4.417-2.903-8.989-5.57-14.123-8.732c-1.539,8.543-2.985,16.574-4.553,25.275c-13.077-11.544-24.718-23.535-32.832-38.133
			c-3.314-5.963-3.403-13.766-4.735-20.774c-7.053-37.104-14.133-74.202-20.889-111.359c-0.675-3.713,0.249-7.957,1.306-11.709
			c17.258-61.275,55.854-104.512,115.029-126.32c79.991-29.481,153.037-14.835,214.396,45.231
			c38.666,37.852,55.924,85.684,51.533,139.679c-5.184,63.731-37.588,111.312-91.678,144.59
			C1147.504,377.573,1146.999,377.671,1146.428,377.881z"/>
		<path fill-rule="evenodd" clip-rule="evenodd" fill="#FFFFFF" d="M376.372,421.493c0,31.31,0.015,62.619-0.018,93.929
			c-0.004,3.986-0.158,7.979-0.407,11.958c-1.234,19.725-10.541,22.211-24.861,21.803c-15.487-0.44-21.329-6.74-22.004-22.324
			c-0.424-9.803-0.431-19.628-0.437-29.444c-0.037-57.289-0.069-114.579,0.061-171.868c0.014-5.769,0.646-11.637,1.847-17.276
			c1.578-7.406,6.745-11.76,14.211-12.79c4.237-0.585,8.621-0.725,12.884-0.381c11.268,0.909,16.414,5.888,17.887,17.037
			c0.543,4.109,0.795,8.285,0.803,12.432C376.4,356.876,376.372,389.185,376.372,421.493z"/>
	</g>
</g>
</svg>
