<?xml version="1.0" encoding="utf-8"?>
<!-- Generator: Adobe Illustrator 16.0.3, SVG Export Plug-In . SVG Version: 6.00 Build 0)  -->
<!DOCTYPE svg PUBLIC "-//W3C//DTD SVG 1.1//EN" "http://www.w3.org/Graphics/SVG/1.1/DTD/svg11.dtd">
<svg version="1.1" id="POLITICIAN_final_xA0_Image_1_"
	 xmlns="http://www.w3.org/2000/svg" xmlns:xlink="http://www.w3.org/1999/xlink" x="0px" y="0px" width="479px" height="671px"
	 viewBox="0 0 479 671" enable-background="new 0 0 479 671" xml:space="preserve">
<g>
	<g>
		<path fill-rule="evenodd" clip-rule="evenodd" d="M1.038,671.788c0-223.505,0-447.146,0-670.75c159.679,0,319.32,0,478.962,0
			c0,223.538,0,447.037,0,670.75C320.334,671.788,160.667,671.788,1.038,671.788z M246.465,529.652
			c0.621-4.855-1.348-9.454-5.271-10.194c-7.442-1.403-14.987-2.507-22.538-3.001c-4.897-0.32-8.708,3.33-10.028,8.498
			c3.846-4.879,8.305-5.64,13.699-4.236c3.651,0.95,7.611,0.647,11.343,1.368c5.09,0.983,10.658,1.46,12.799,7.561
			c1.564,4.371,3.129,8.742,4.693,13.112c0.427,0.083,0.854,0.165,1.281,0.247c0.844-4.403,1.988-8.773,2.465-13.216
			c0.835-7.787,3.434-14.353,11.288-17.309c7.407-2.788,15.063-5.994,21.956,3.336c-3.598-9.163-6.961-11.36-14.545-9.77
			c-3.674,0.771-7.312,1.991-10.762,3.48c-6.432,2.774-10.529,7.863-11.758,14.675C250.523,527.336,249.064,528.733,246.465,529.652
			z M88.34,482.373c-2.67-3.056-5.181-6.429-9.845-2.766c-0.784,0.615-2.302,0.656-3.391,0.462
			c-5.076-0.908-5.996,2.309-6.162,6.127c-0.248,5.695,4.253,10.327,9.837,10.312c5.543-0.015,10.06-4.731,9.874-10.376
			c-0.043-1.311-0.293-2.613-0.464-3.935c3.139-0.747,6.278-1.493,9.417-2.239c0.042-0.72,0.083-1.44,0.124-2.16
			c-3.65-2.343-7.3-4.687-10.951-7.03c-0.369,0.262-0.739,0.523-1.108,0.784C86.561,475.159,87.45,478.767,88.34,482.373z
			 M72.766,459.652c-0.882,0.444-1.772,0.874-2.645,1.337c-4.828,2.568-6.486,8.387-3.792,13.282
			c2.574,4.677,6.25,5.539,11.528,2.706c4.575-2.456,6.798-7.549,5.016-12.581c-1.717-4.85-5.853-5.232-10.238-4.674
			c1.012-1.24,2.685-2.373,2.905-3.739c0.546-3.396,1.191-7.097,0.352-10.295c-0.745-2.838-3.279-5.438-7.215-4.265
			c0.207-0.447,0.318-0.983,0.636-1.329c3.337-3.63,4.367-7.624,2.299-12.302c-2.113-4.781-6.265-3.994-10.183-3.942
			c-6.637,0.089-10.357,6.053-7.716,12.363c2.061,4.923,5.403,6.38,13.285,5.791c-0.563,0.286-1.166,0.874-1.685,0.809
			c-3.597-0.453-6.22,0.67-7.168,4.368c-1.107,4.322-0.712,8.888,3.423,10.897C64.8,459.649,69.018,459.192,72.766,459.652z
			 M104.307,329.134c-1.098-0.976-2.103-2.089-3.31-2.903c-4.078-2.753-9.724-1.863-12.907,1.928
			c-3.1,3.693-3.051,8.213,0.127,11.939c-1.326-0.075-2.654-0.244-3.977-0.209c-5.722,0.15-10.003,4.742-9.748,10.387
			c0.244,5.393,4.893,9.777,10.162,9.587c5.596-0.203,9.83-4.895,9.435-10.664c-0.123-1.787-0.743-3.539-1.135-5.308
			c2.054,0.02,4.278,0.563,6.129-0.04c5.654-1.845,7.407-7.189,5.219-14.727c1.159,2.442,2.318,4.885,3.72,7.838
			c2.7,0.256,5.965,0.565,9.683,0.918C114.081,328.433,112.843,327.698,104.307,329.134z M468,18.382
			c-149.983,0-299.361,0-448.796,0c0,101.01,0,201.641,0,302.554c21.089,5.511,41.62,13.128,63.873,13.096
			c0.695-2.311,1.137-4.428,1.959-6.385c2.02-4.809,6.605-8.258,10.478-6.336c5.748,2.853,11.443,3.885,17.682,4.696
			c3.284,0.427,5.977,5.401,9.932,9.304c5.59-0.324,12.886-0.894,20.192-1.123c5.011-0.157,7.901-1.975,8.817-7.313
			c0.494-2.878,1.953-6.378,4.154-8.008c4.2-3.109,9.081-5.484,13.966-7.447c13.427-5.396,26.976-10.489,40.541-15.532
			c2.745-1.021,5.748-1.686,8.667-1.841c10.95-0.583,21.267-0.439,32.323,3.726c24.041,9.058,49.75,11.784,75.299,14.438
			c5.29,0.549,9.372-0.029,12.871-4.383c-0.626-1.561-1.088-3.373-2.016-4.903c-2.702-4.456-0.826-6.785,3.539-7.855
			c5.968-1.464,12.025-2.571,17.968-4.124c7.936-2.072,15.557-4.641,18.777-13.494c1.702-4.68,3.637-9.314,5.921-13.735
			c2.584-4.997,5.047-5.57,9.191-1.788c3.747,3.42,6.993,3.115,10.507,0.218c3.208-2.645,6.678-5.104,9.357-8.224
			c3.12-3.633,6.065-4.653,9.985-1.626c2.483,1.919,4.365,1.45,6.892-0.589c11.016-8.889,22.214-17.56,33.539-26.052
			c3.037-2.277,4.497-4.463,4.487-8.481C467.956,152.677,468,88.179,468,23.682C468,22.03,468,20.38,468,18.382z M19.238,654.657
			c149.751,0,299.108,0,448.384,0c0.167-0.65,0.318-0.963,0.318-1.274c0.026-66.317,0.048-132.634,0.014-198.951
			c-0.001-1.213-0.287-2.871-1.093-3.567c-6.24-5.402-12.642-10.619-19.525-16.335c-7.906,12.049-16.76,22.053-31.388,24.651
			c0-2.214,0-4.822,0-7.452c-11.08,0.894-16.86,6.957-15.132,15.962c3.623-0.375,7.284-0.754,10.944-1.132
			c-9.599,2.002-6.404,9.495-6.886,15.55c-0.156,1.955-1.25,4.009-2.4,5.684c-5.531,8.053-13.639,7.652-21.885,6.223
			c-6.044-1.048-6.658-0.678-7.098,5.663c-0.429,6.174-4.592,10.934-10.547,13.025c-5.726,2.011-11.632,2.523-15.555,9.35
			c-4.888,8.505-14.119,10.606-23.338,8.307c-3.043,6.322-5.948,12.446-8.934,18.529c-2.229,4.542-5.804,6.511-10.972,7.318
			c-7.647,1.193-14.593,1.575-19.427-5.49c-16.057,11.374-31.395,6.472-34.263-2.315c-3.472,5.071-5.638,11.729-12.886,13.151
			c-3.377,0.663-6.953,0.334-10.438,0.428c-5.743,0.154-9.301-3.137-12.151-7.641c-4.505-7.119-9.078-14.196-13.634-21.309
			c-10.917,7.991-10.917,7.99-24.55,6.469c-0.993-0.111-1.994-0.306-2.984-0.266c-6.276,0.257-9.82-3.401-13.129-8.209
			c-3.197-4.646-2.293-9.428-2.239-14.381c0.03-2.755,0.969-6.116-3.076-7.638c-6.059-2.28-12.193-4.522-17.909-7.52
			c-12.797-6.71-25.355-13.876-38.17-20.943c-7.155,5.35-7.155,5.35-10.809,13.673c-2.637,6.006-9.283,8.322-14.81,4.29
			c-3.175-2.316-6.234-5.927-7.42-9.58c-2.079-6.406-3.22-13.252-3.724-19.99c-0.394-5.276-4.004-9.031-7.248-10.074
			c-11.582-3.724-23.632-5.992-36.044-8.94C19.238,519.055,19.238,586.657,19.238,654.657z M443.58,428.084
			c-0.019-0.028-0.247-0.487-0.584-0.842c-21.637-22.773-40.083-47.93-55.632-75.182c-8.465-14.839-16.539-29.904-24.54-45
			c-3.947-7.447-3.69-7.583-12.383-5.772c-3.811,0.794-5.215,3.317-3.61,6.888c2.319,5.159,4.696,10.298,7.227,15.356
			c15.317,30.625,27.027,63.144,46.814,91.403c5.996,8.564,13.791,15.943,21.24,23.387c3.967,3.964,8.352,3.337,12.476-0.714
			C437.671,434.581,440.534,431.328,443.58,428.084z M120.864,390.429c2.809,5.495,7.069,8.881,12.832,8.48
			c5.206-0.362,10.646-1.32,15.406-3.36c14.26-6.109,29.021-11.798,36.841-26.861c2.372-4.567,5.664-7.346,11.365-7.011
			c2.864,0.169,5.844-1.123,8.729-1.914c10.494-2.876,21.051-4.783,31.987-2.893c2.401,0.415,4.882,0.368,8.179,0.592
			c-0.146-8.452-6.602-12.729-9.944-19.038c-7.063,9.45-16.681,6.732-25.227,6.405c-8.794-0.338-18.296,1.203-26.011-5.98
			c-0.4,2.549-0.573,4.543-1.039,6.466c-1.701,7.025-2.677,14.377-5.47,20.949c-3.51,8.261-10.633,13.044-19.248,16.035
			C146.764,386.639,135.025,394.083,120.864,390.429z M372.604,406.458c-6.773-3.125-13.425-5.992-19.892-9.229
			c-7.262-3.634-13.977-9.021-21.619-11.062c-9.327-2.492-17.59-6.628-25.918-11.028c-1.904-1.006-3.881-1.929-5.914-2.63
			c-16.02-5.527-32.059-11-48.102-16.462c-1.309-0.444-2.688-0.678-4.033-1.009c-0.145,0.375-0.287,0.75-0.432,1.125
			c1.668,0.798,3.303,1.672,5.008,2.381c18.688,7.781,37.505,15.271,56.054,23.374c19.035,8.316,37.858,17.128,56.664,25.957
			C368.273,409.684,370.91,409.527,372.604,406.458z M367.752,494.979c-36.095-1.507-72.091-2.725-105.559-19.292
			c-1.056,6.456,4.186,6.215,6.844,7.372c20.947,9.111,43.124,13.642,65.791,14.692
			C345.736,498.258,356.772,495.991,367.752,494.979z M353.488,456.329c0.144-0.396,0.287-0.792,0.431-1.188
			c-24.229-9.141-48.458-18.28-72.688-27.421c-0.354,0.538-0.709,1.077-1.063,1.615c1.75,1.8,3.199,4.168,5.311,5.286
			c5.115,2.711,10.39,5.292,15.871,7.099c8.823,2.908,17.859,5.174,26.817,7.665C336.599,451.731,345.047,454.018,353.488,456.329z
			 M83.951,369.598c-0.09-5.44-4.42-9.76-9.812-9.785c-5.649-0.028-10.143,4.479-10.044,10.072
			c0.097,5.497,4.941,10.149,10.333,9.924C79.639,379.592,84.039,374.873,83.951,369.598z M62.782,423.341
			c5.589-0.01,10.114-4.629,9.964-10.172c-0.142-5.285-4.731-9.835-9.936-9.853c-5.458-0.018-9.981,4.718-9.86,10.323
			C53.068,419.107,57.368,423.35,62.782,423.341z M77.28,391.54c0.008-5.556-4.186-9.843-9.706-9.92
			c-5.455-0.077-9.816,4.207-9.902,9.727c-0.089,5.733,4.435,10.395,9.956,10.257C73.07,401.469,77.272,397.087,77.28,391.54z
			 M219.835,535.738c0,3.436-0.066,5.896,0.013,8.35c0.196,6.1,7.597,12.053,13.582,7.511c2.726-2.069,6.23-3.087,9.263-4.791
			c1.403-0.788,2.523-2.079,4.617-3.861C237.677,540.419,229.28,538.217,219.835,535.738z M268.473,539.801
			c12.508,0.316,18.572-2.67,19.976-9.918c-6.614-1.062-13.798-1.23-16.821-8.82C265.659,523.181,264.813,528.494,268.473,539.801z
			 M301.264,515.817c-0.166,0.536-0.332,1.072-0.498,1.607c3.154,1.756,6.498,5.273,9.431,4.958
			c12.037-1.295,23.949-3.757,35.908-5.789c-0.084-0.259-0.169-0.518-0.253-0.776C330.989,515.817,316.127,515.817,301.264,515.817z
			 M386.058,489.462c10.634,1.342,15.875-2.632,15.937-11.586c0.017-2.335-0.143-4.726-2.805-4.661
			c-1.854,0.045-4.162,1.272-5.403,2.715c-2.743,3.188-5.021,6.795-7.302,10.35C385.959,487.097,386.18,488.392,386.058,489.462z
			 M310.58,543.152c1.159-12.607-0.286-16.112-13.896-23.166c1.084,3.973,1.185,7.235,2.747,9.479
			C302.959,534.531,307.21,539.093,310.58,543.152z M167.203,527.168c0.384,4.455,3.826,7.082,10.868,7.819
			c7.115,0.745,10.278-0.591,11.601-4.782C182.263,529.203,174.812,528.196,167.203,527.168z M200.497,525.607
			c4.222-5.128,4.715-8.38,0.644-10.266c-6.643-3.076-13.785-5.231-20.906-7.024c-2.327-0.586-5.242,1.168-9.218,2.195
			C183.168,513.159,197.285,508.469,200.497,525.607z M289.74,536.786c-0.663,3.706-1.134,6.337-1.693,9.462
			c3.594-0.161,7.106,0.085,10.398-0.651c1.472-0.328,2.502-2.629,3.733-4.035c-1.127-0.903-2.122-2.21-3.407-2.627
			C295.869,537.992,292.824,537.489,289.74,536.786z M123.644,372.514c7.601-3.792,14.251-10.064,19.864-17.525
			c0.392-0.521-0.265-1.831-0.702-4.271C135.67,358.833,129.437,365.924,123.644,372.514z M358.682,510.547
			c7.764-0.021,12.408-5.973,10.288-12.396C364.045,500.908,359.8,504.025,358.682,510.547z"/>
		<path fill-rule="evenodd" clip-rule="evenodd" fill="#FFFFFF" d="M468,18.382c0,1.998,0,3.648,0,5.3
			c0,64.497-0.044,128.995,0.105,193.492c0.01,4.019-1.45,6.204-4.487,8.481c-11.325,8.492-22.523,17.163-33.539,26.052
			c-2.526,2.039-4.408,2.508-6.892,0.589c-3.92-3.027-6.865-2.007-9.985,1.626c-2.68,3.12-6.149,5.579-9.357,8.224
			c-3.514,2.897-6.76,3.202-10.507-0.218c-4.145-3.782-6.607-3.209-9.191,1.788c-2.284,4.421-4.219,9.056-5.921,13.735
			c-3.221,8.854-10.842,11.422-18.777,13.494c-5.942,1.553-12,2.66-17.968,4.124c-4.365,1.07-6.241,3.399-3.539,7.855
			c0.928,1.53,1.39,3.343,2.016,4.903c-3.499,4.354-7.581,4.932-12.871,4.383c-25.549-2.654-51.258-5.381-75.299-14.438
			c-11.056-4.165-21.373-4.309-32.323-3.726c-2.92,0.155-5.922,0.819-8.667,1.841c-13.564,5.043-27.114,10.137-40.541,15.532
			c-4.886,1.963-9.767,4.338-13.966,7.447c-2.201,1.63-3.66,5.13-4.154,8.008c-0.916,5.338-3.806,7.155-8.817,7.313
			c-7.307,0.229-14.603,0.799-20.192,1.123c-3.955-3.902-6.647-8.877-9.932-9.304c-6.238-0.812-11.934-1.844-17.682-4.696
			c-3.872-1.922-8.458,1.527-10.478,6.336c-0.822,1.957-1.264,4.074-1.959,6.385c-22.253,0.032-42.784-7.585-63.873-13.096
			c0-100.913,0-201.544,0-302.554C168.639,18.382,318.017,18.382,468,18.382z M424.347,201.715
			c-0.237-3.867-0.13-7.511-0.761-11.021c-0.776-4.319-3.095-8.517-3.145-12.785c-0.304-25.954-0.151-51.913-0.151-77.871
			c0.219-0.039,0.438-0.078,0.657-0.116c6.258,33.919,12.516,67.839,18.764,101.711c3.99,0,7.54,0,11.336,0c0-2.347,0-4.331,0-6.315
			c0-41.976-0.046-83.951,0.068-125.926c0.012-4.435,0.738-8.906,1.537-13.287c0.82-4.496,2.136-8.902,3.345-13.792
			c-6.567,0-11.622,0-17.267,0c0.33,3.92,0.359,7.54,1,11.048c0.814,4.461,2.992,8.815,3.072,13.242
			c0.359,19.815,0.182,39.641,0.197,59.462c0.002,3.343,0,6.686,0,10.027c-0.2,0.003-0.401,0.005-0.602,0.007
			c-5.704-31.32-11.408-62.641-17.072-93.738c-5.943,0-11.194,0-16.865,0c0.199,3.836,0.067,7.352,0.632,10.751
			c0.827,4.972,3.081,9.854,3.118,14.785c0.275,36.144,0.188,72.29,0.088,108.436c-0.011,3.781-0.649,7.601-1.363,11.332
			c-0.867,4.527-2.124,8.979-3.354,14.051C413.944,201.715,418.843,201.715,424.347,201.715z M79.331,124.276
			c0.877,13.945,1.029,27.987,2.875,41.803c1.326,9.921,3.811,20.017,7.771,29.172c5.15,11.906,18.601,12.172,24.907,0.8
			c3.399-6.13,5.863-13.153,7.06-20.066c6.156-35.538,5.966-71.262,0.786-106.868c-1.143-7.853-4.134-15.885-8.122-22.764
			c-5.274-9.101-16.489-8.796-22.13,0.003c-2.825,4.405-5.04,9.439-6.419,14.492C80.399,81.594,80.03,102.916,79.331,124.276z
			 M404.497,201.806c-0.479-4.176-0.651-7.924-1.406-11.551c-0.63-3.03-2.553-5.857-2.858-8.881
			c-3.173-31.445-6.136-62.912-9.155-94.373c-1.426-14.862-2.849-29.725-4.313-45.001c-2.044,0-3.838,0-5.632,0
			c-1.953,0-3.906,0-5.618,0c-8.346,53.387-10.496,107.007-22.151,159.623c6.575,0,12.112,0,18.154,0
			c-0.327-3.835-0.338-7.314-0.996-10.667c-0.588-2.997-2.769-5.871-2.715-8.771c0.171-9.273,1.055-18.534,1.668-27.878
			c5.121,0,9.532,0,14.408,0c0.651,9.365,1.404,18.456,1.831,27.562c0.104,2.233-0.152,5.114-1.465,6.661
			c-3.548,4.187-2.013,8.628-2.084,13.275C389.488,201.806,396.428,201.806,404.497,201.806z M53.351,201.731
			c-0.223-3.853,0.829-8.216-0.884-10.546c-3.448-4.688-3.406-9.58-3.444-14.69C48.947,166.333,49,156.169,49,146.006
			c0-2.938,0-5.877,0-8.822c14.267,0.474,16.831-5.971,20.261-15.743c0.33-0.939,0.571-1.913,0.8-2.884
			c3.794-16.076,3.894-32.379,2.366-48.673c-0.566-6.042-2.271-12.063-4.148-17.869c-1.536-4.752-4.891-8.951-10.149-9.301
			c-8.68-0.576-17.426-0.156-26.5-0.156c0.175,3.704-0.002,7.234,0.585,10.632c0.83,4.803,3.189,9.5,3.226,14.255
			c0.28,36.152,0.2,72.308,0.087,108.462c-0.012,3.944-0.763,7.92-1.5,11.818c-0.854,4.52-2.07,8.97-3.26,14.007
			C38.978,201.731,45.734,201.731,53.351,201.731z M248.986,84.826c0-14.471,0-28.497,0-42.578c-14.844,0-29.268,0-43.924,0
			c0,14.296,0,28.342,0,42.442c2.222,0,4.118,0,6.237,0c0.263-2.073,0.47-3.877,0.726-5.675c0.749-5.263,1.293-10.569,2.373-15.764
			c0.543-2.612,1.614-5.556,5.963-4.914c0,1.909,0,3.715,0,5.521c0,25.649,0.041,51.3-0.017,76.949
			c-0.031,13.819-0.189,27.64-0.406,41.458c-0.031,1.949-0.066,4.539-1.229,5.716c-4.066,4.111-2.474,8.855-2.641,13.754
			c7.39,0,14.457,0,22.396,0c-0.46-3.939-0.629-7.651-1.394-11.235c-0.668-3.131-2.894-6.11-2.918-9.17
			c-0.32-40.301-0.375-80.604-0.471-120.906c-0.001-0.751,0.31-1.502,0.753-3.52c9.668,7.913,5.419,19.094,8.799,27.922
			C245.01,84.826,246.807,84.826,248.986,84.826z M322.995,81.813c0-11.72,0.044-22.869-0.065-34.017
			c-0.012-1.162-0.637-2.614-1.471-3.426c-6.925-6.744-18.749-5.814-23.818,2.357c-2.933,4.728-5.391,10.085-6.611,15.486
			c-8.668,38.35-7.99,77.001-2.258,115.621c1.02,6.872,3.771,13.888,7.326,19.887c4.994,8.428,20.368,8.38,26.167,0.699
			c0.374-0.494,0.683-1.189,0.685-1.792c0.039-12.107,0.029-24.216,0.029-36.306c-2.657,0-4.731,0-6.896,0
			c-0.131,1.628-0.126,2.965-0.362,4.257c-1.191,6.521-2.272,13.071-3.813,19.511c-0.343,1.432-2.23,3.044-3.707,3.434
			c-0.786,0.207-2.64-1.831-3.266-3.197c-1.231-2.693-2.277-5.563-2.816-8.468c-4.043-21.744-4.249-43.746-3.275-65.703
			c0.654-14.746,2.535-29.457,4.408-44.114c0.459-3.59,3.039-6.908,5.182-11.506c7.509,8.994,5.93,18.652,7.939,27.276
			C318.561,81.813,320.505,81.813,322.995,81.813z M133.648,42.248c0.195,3.844,0.055,7.48,0.637,10.998
			c0.824,4.976,3.121,9.855,3.159,14.79c0.28,35.81,0.2,71.623,0.082,107.436c-0.014,4.107-0.778,8.246-1.526,12.31
			c-0.831,4.514-2.041,8.956-3.196,13.903c13.362,0,25.255,0,37.764,0c0-16.695,0-33.077,0-49.42c-2.087,0-4.028,0-6.311,0
			c-0.138,2.017-0.175,3.812-0.397,5.584c-0.888,7.087-1.468,14.239-2.862,21.229c-1.372,6.871-2.68,7.42-9.657,6.45
			c-0.103-0.439-0.309-0.911-0.309-1.384c0.004-40.309-0.007-80.618,0.114-120.928c0.008-2.582,0.36-5.64,1.753-7.643
			c3.057-4.396,1.629-8.786,1.705-13.325C147.48,42.248,140.878,42.248,133.648,42.248z M177.614,42.266
			c0.219,3.869,0.107,7.506,0.702,11.023c0.812,4.805,3.094,9.512,3.13,14.272c0.272,36.117,0.195,72.236,0.083,108.355
			c-0.012,3.94-0.753,7.914-1.491,11.809c-0.855,4.519-2.079,8.967-3.268,13.971c8.167,0,14.882,0,23.103,0
			c-1.229-4.896-2.348-9.181-3.368-13.489c-0.57-2.406-1.389-4.851-1.394-7.279c-0.083-39.276-0.086-78.554,0.022-117.83
			c0.007-2.574,0.355-5.634,1.752-7.618c3.091-4.389,1.638-8.759,1.71-13.214C191.429,42.266,184.828,42.266,177.614,42.266z
			 M255.604,42.214c0.203,4.009,0.048,7.53,0.635,10.923c0.831,4.801,3.168,9.499,3.203,14.254
			c0.278,36.283,0.203,72.569,0.082,108.854c-0.014,3.933-0.022,8.401-1.795,11.666c-2.56,4.716-1.896,9.084-1.642,13.666
			c7.109,0,13.816,0,21.278,0c-0.608-4.198-0.98-7.917-1.725-11.56c-0.648-3.184-2.468-6.278-2.482-9.418
			c-0.176-38.943-0.148-77.888-0.047-116.831c0.008-2.748,0.961-5.503,1.561-8.236c0.943-4.294,1.962-8.572,3.055-13.318
			C269.557,42.214,262.962,42.214,255.604,42.214z M351.2,201.737c-0.476-4.106-0.685-7.839-1.397-11.472
			c-0.623-3.179-2.617-6.242-2.632-9.362c-0.182-39.276-0.146-78.553-0.037-117.829c0.008-2.573,0.376-5.614,1.762-7.618
			c3.036-4.391,1.721-8.746,1.625-13.183c-7.109,0-13.712,0-20.914,0c0.226,3.879,0.125,7.517,0.72,11.036
			c0.812,4.806,3.085,9.514,3.12,14.276c0.271,36.116,0.195,72.236,0.082,108.354c-0.012,3.94-0.762,7.912-1.498,11.808
			c-0.853,4.515-2.069,8.961-3.259,13.989C336.836,201.737,343.437,201.737,351.2,201.737z"/>
		<path fill-rule="evenodd" clip-rule="evenodd" fill="#FFFFFF" d="M19.238,654.657c0-68,0-135.603,0-204.735
			c12.413,2.948,24.462,5.217,36.044,8.94c3.243,1.043,6.854,4.798,7.248,10.074c0.503,6.738,1.645,13.584,3.724,19.99
			c1.186,3.653,4.246,7.264,7.42,9.58c5.526,4.032,12.172,1.716,14.81-4.29c3.654-8.323,3.654-8.323,10.809-13.673
			c12.814,7.067,25.373,14.233,38.17,20.943c5.715,2.997,11.85,5.239,17.909,7.52c4.045,1.521,3.105,4.883,3.076,7.638
			c-0.054,4.953-0.958,9.734,2.239,14.381c3.309,4.808,6.853,8.466,13.129,8.209c0.99-0.04,1.991,0.154,2.984,0.266
			c13.633,1.521,13.633,1.522,24.55-6.469c4.556,7.112,9.128,14.189,13.634,21.309c2.85,4.504,6.408,7.795,12.151,7.641
			c3.486-0.094,7.061,0.235,10.438-0.428c7.248-1.423,9.414-8.08,12.886-13.151c2.868,8.787,18.206,13.689,34.263,2.315
			c4.834,7.065,11.779,6.684,19.427,5.49c5.168-0.808,8.742-2.776,10.972-7.318c2.985-6.083,5.891-12.207,8.934-18.529
			c9.219,2.3,18.45,0.198,23.338-8.307c3.923-6.826,9.829-7.339,15.555-9.35c5.955-2.092,10.118-6.852,10.547-13.025
			c0.439-6.341,1.054-6.711,7.098-5.663c8.246,1.43,16.354,1.83,21.885-6.223c1.15-1.675,2.244-3.729,2.4-5.684
			c0.481-6.055-2.713-13.548,6.886-15.55c-3.66,0.378-7.321,0.757-10.944,1.132c-1.729-9.005,4.052-15.068,15.132-15.962
			c0,2.63,0,5.238,0,7.452c14.628-2.599,23.481-12.603,31.388-24.651c6.884,5.716,13.285,10.933,19.525,16.335
			c0.806,0.696,1.092,2.354,1.093,3.567c0.034,66.317,0.013,132.634-0.014,198.951c0,0.312-0.151,0.624-0.318,1.274
			C318.346,654.657,168.989,654.657,19.238,654.657z"/>
		<path fill-rule="evenodd" clip-rule="evenodd" fill="#FFFFFF" d="M443.58,428.084c-3.046,3.244-5.909,6.497-8.992,9.524
			c-4.124,4.051-8.509,4.678-12.476,0.714c-7.449-7.443-15.244-14.822-21.24-23.387c-19.787-28.26-31.497-60.778-46.814-91.403
			c-2.53-5.059-4.907-10.197-7.227-15.356c-1.604-3.57-0.2-6.094,3.61-6.888c8.692-1.811,8.436-1.675,12.383,5.772
			c8.001,15.096,16.075,30.161,24.54,45c15.549,27.252,33.995,52.408,55.632,75.182C443.333,427.597,443.562,428.056,443.58,428.084
			z"/>
		<path fill-rule="evenodd" clip-rule="evenodd" fill="#FFFFFF" d="M120.864,390.429c14.162,3.654,25.9-3.79,38.4-8.13
			c8.615-2.991,15.738-7.774,19.248-16.035c2.793-6.572,3.769-13.924,5.47-20.949c0.466-1.923,0.639-3.917,1.039-6.466
			c7.715,7.184,17.217,5.643,26.011,5.98c8.546,0.327,18.164,3.045,25.227-6.405c3.343,6.309,9.798,10.586,9.944,19.038
			c-3.297-0.224-5.777-0.177-8.179-0.592c-10.937-1.891-21.493,0.017-31.987,2.893c-2.884,0.791-5.864,2.083-8.729,1.914
			c-5.702-0.335-8.993,2.443-11.365,7.011c-7.82,15.063-22.582,20.752-36.841,26.861c-4.761,2.04-10.201,2.998-15.406,3.36
			C127.933,399.31,123.672,395.924,120.864,390.429z"/>
		<path fill-rule="evenodd" clip-rule="evenodd" fill="#FFFFFF" d="M372.604,406.458c-1.694,3.069-4.331,3.226-8.184,1.417
			c-18.806-8.829-37.629-17.641-56.664-25.957c-18.549-8.104-37.365-15.593-56.054-23.374c-1.705-0.709-3.34-1.583-5.008-2.381
			c0.145-0.375,0.287-0.75,0.432-1.125c1.346,0.331,2.725,0.564,4.033,1.009c16.043,5.462,32.082,10.935,48.102,16.462
			c2.033,0.701,4.01,1.624,5.914,2.63c8.328,4.4,16.591,8.536,25.918,11.028c7.643,2.041,14.357,7.428,21.619,11.062
			C359.18,400.466,365.831,403.333,372.604,406.458z"/>
		<path fill-rule="evenodd" clip-rule="evenodd" fill="#FFFFFF" d="M367.752,494.979c-10.979,1.012-22.016,3.278-32.924,2.772
			c-22.667-1.051-44.844-5.581-65.791-14.692c-2.658-1.157-7.899-0.916-6.844-7.372
			C295.661,492.255,331.657,493.473,367.752,494.979z"/>
		<path fill-rule="evenodd" clip-rule="evenodd" fill="#FFFFFF" d="M353.488,456.329c-8.441-2.312-16.89-4.598-25.321-6.943
			c-8.958-2.491-17.994-4.757-26.817-7.665c-5.481-1.807-10.756-4.388-15.871-7.099c-2.111-1.118-3.561-3.486-5.311-5.286
			c0.354-0.538,0.709-1.077,1.063-1.615c24.23,9.141,48.459,18.28,72.688,27.421C353.775,455.537,353.632,455.934,353.488,456.329z"
			/>
		<path fill-rule="evenodd" clip-rule="evenodd" fill="#FFFFFF" d="M92.955,343.891c0.392,1.769,1.012,3.521,1.135,5.308
			c0.395,5.77-3.839,10.461-9.435,10.664c-5.27,0.19-9.918-4.194-10.162-9.587c-0.256-5.645,4.025-10.236,9.748-10.387
			c1.323-0.035,2.651,0.134,3.977,0.209C89.796,341.362,91.375,342.626,92.955,343.891z"/>
		<path fill-rule="evenodd" clip-rule="evenodd" fill="#FFFFFF" d="M83.951,369.598c0.088,5.275-4.313,9.994-9.522,10.211
			c-5.393,0.226-10.236-4.427-10.333-9.924c-0.099-5.594,4.395-10.101,10.044-10.072C79.531,359.838,83.861,364.157,83.951,369.598z
			"/>
		<path fill-rule="evenodd" clip-rule="evenodd" fill="#FFFFFF" d="M62.782,423.341c-5.414,0.009-9.714-4.233-9.832-9.701
			c-0.121-5.605,4.402-10.341,9.86-10.323c5.205,0.018,9.794,4.567,9.936,9.853C72.896,418.712,68.371,423.331,62.782,423.341z"/>
		<path fill-rule="evenodd" clip-rule="evenodd" fill="#FFFFFF" d="M77.28,391.54c-0.008,5.547-4.21,9.929-9.651,10.063
			c-5.521,0.138-10.045-4.523-9.956-10.257c0.085-5.52,4.447-9.804,9.902-9.727C73.095,381.697,77.289,385.984,77.28,391.54z"/>
		<path fill-rule="evenodd" clip-rule="evenodd" fill="#FFFFFF" d="M92.955,343.891c-1.579-1.265-3.158-2.528-4.737-3.793
			c-3.179-3.727-3.227-8.246-0.127-11.939c3.183-3.791,8.829-4.681,12.907-1.928c1.207,0.814,2.212,1.928,3.31,2.903l-0.005-0.016
			c2.189,7.543,0.437,12.888-5.218,14.732C97.233,344.454,95.008,343.91,92.955,343.891z"/>
		<path fill-rule="evenodd" clip-rule="evenodd" fill="#FFFFFF" d="M66.997,442.005c-7.882,0.589-11.225-0.868-13.285-5.791
			c-2.641-6.311,1.08-12.274,7.716-12.363c3.918-0.052,8.07-0.839,10.183,3.942c2.068,4.678,1.039,8.672-2.299,12.302
			c-0.318,0.346-0.429,0.882-0.628,1.324C68.127,441.611,67.562,441.809,66.997,442.005z"/>
		<path fill-rule="evenodd" clip-rule="evenodd" fill="#FFFFFF" d="M66.997,442.005c0.565-0.196,1.13-0.394,1.687-0.586
			c3.928-1.169,6.463,1.432,7.208,4.27c0.84,3.198,0.195,6.899-0.352,10.295c-0.22,1.366-1.893,2.499-2.905,3.739l0.163-0.086
			c-3.78-0.444-7.998,0.013-11.23-1.558c-4.135-2.01-4.53-6.575-3.423-10.897c0.948-3.698,3.571-4.821,7.168-4.368
			C65.832,442.879,66.434,442.291,66.997,442.005z"/>
		<path fill-rule="evenodd" clip-rule="evenodd" fill="#FFFFFF" d="M88.205,482.213c0.155,1.306,0.405,2.608,0.448,3.919
			c0.186,5.645-4.331,10.361-9.874,10.376c-5.584,0.016-10.084-4.616-9.837-10.312c0.166-3.818,1.086-7.035,6.162-6.127
			c1.089,0.194,2.607,0.153,3.391-0.462c4.664-3.663,7.175-0.29,9.845,2.766L88.205,482.213z"/>
		<path fill-rule="evenodd" clip-rule="evenodd" fill="#FFFFFF" d="M219.835,535.738c9.445,2.479,17.841,4.681,27.475,7.208
			c-2.094,1.782-3.214,3.073-4.617,3.861c-3.033,1.704-6.537,2.722-9.263,4.791c-5.985,4.542-13.386-1.411-13.582-7.511
			C219.769,541.634,219.835,539.174,219.835,535.738z"/>
		<path fill-rule="evenodd" clip-rule="evenodd" fill="#FFFFFF" d="M72.635,459.723c4.385-0.559,8.521-0.176,10.238,4.674
			c1.782,5.032-0.441,10.125-5.016,12.581c-5.278,2.833-8.955,1.971-11.528-2.706c-2.694-4.896-1.036-10.714,3.792-13.282
			c0.872-0.463,1.763-0.893,2.66-1.345C72.798,459.637,72.635,459.723,72.635,459.723z"/>
		<path fill-rule="evenodd" clip-rule="evenodd" fill="#FFFFFF" d="M246.465,529.653c2.6-0.92,4.059-2.317,4.623-5.449
			c1.229-6.812,5.326-11.9,11.758-14.675c3.45-1.489,7.088-2.71,10.762-3.48c7.584-1.591,10.947,0.606,14.545,9.77
			c-6.893-9.33-14.549-6.124-21.956-3.336c-7.854,2.956-10.453,9.521-11.288,17.309c-0.477,4.442-1.621,8.813-2.465,13.216
			c-0.428-0.082-0.854-0.164-1.281-0.247c-1.564-4.37-3.129-8.741-4.693-13.112L246.465,529.653z"/>
		<path fill-rule="evenodd" clip-rule="evenodd" fill="#FFFFFF" d="M268.473,539.801c-3.66-11.307-2.813-16.62,3.154-18.738
			c3.023,7.59,10.207,7.759,16.821,8.82C287.045,537.131,280.98,540.117,268.473,539.801z"/>
		<path fill-rule="evenodd" clip-rule="evenodd" fill="#FFFFFF" d="M301.264,515.817c14.863,0,29.726,0,44.588,0
			c0.084,0.259,0.169,0.518,0.253,0.776c-11.959,2.032-23.871,4.494-35.908,5.789c-2.933,0.315-6.276-3.202-9.431-4.958
			C300.932,516.89,301.098,516.354,301.264,515.817z"/>
		<path fill-rule="evenodd" clip-rule="evenodd" fill="#FFFFFF" d="M386.058,489.462c0.122-1.07-0.099-2.365,0.427-3.183
			c2.281-3.555,4.559-7.161,7.302-10.35c1.241-1.442,3.549-2.67,5.403-2.715c2.662-0.064,2.821,2.326,2.805,4.661
			C401.933,486.83,396.691,490.804,386.058,489.462z"/>
		<path fill-rule="evenodd" clip-rule="evenodd" fill="#FFFFFF" d="M246.469,529.647c-2.141-6.101-7.709-6.577-12.799-7.561
			c-3.732-0.721-7.692-0.418-11.343-1.368c-5.394-1.403-9.853-0.643-13.699,4.236c1.32-5.168,5.13-8.818,10.028-8.498
			c7.551,0.494,15.096,1.598,22.538,3.001c3.924,0.74,5.893,5.339,5.271,10.194C246.465,529.653,246.469,529.647,246.469,529.647z"
			/>
		<path fill-rule="evenodd" clip-rule="evenodd" fill="#FFFFFF" d="M310.58,543.152c-3.37-4.06-7.621-8.621-11.148-13.687
			c-1.563-2.244-1.663-5.507-2.747-9.479C310.294,527.04,311.739,530.545,310.58,543.152z"/>
		<path fill-rule="evenodd" clip-rule="evenodd" fill="#FFFFFF" d="M167.203,527.168c7.609,1.028,15.06,2.035,22.469,3.037
			c-1.322,4.191-4.485,5.527-11.601,4.782C171.029,534.25,167.587,531.623,167.203,527.168z"/>
		<path fill-rule="evenodd" clip-rule="evenodd" fill="#FFFFFF" d="M200.497,525.607c-3.211-17.139-17.329-12.448-29.479-15.095
			c3.976-1.027,6.891-2.781,9.218-2.195c7.121,1.793,14.263,3.948,20.906,7.024C205.212,517.228,204.718,520.479,200.497,525.607z"
			/>
		<path fill-rule="evenodd" clip-rule="evenodd" fill="#FFFFFF" d="M289.74,536.786c3.084,0.703,6.129,1.206,9.031,2.148
			c1.285,0.417,2.28,1.724,3.407,2.627c-1.231,1.406-2.262,3.707-3.733,4.035c-3.292,0.736-6.805,0.49-10.398,0.651
			C288.606,543.123,289.077,540.492,289.74,536.786z"/>
		<path fill-rule="evenodd" clip-rule="evenodd" fill="#FFFFFF" d="M123.644,372.514c5.793-6.59,12.026-13.681,19.162-21.797
			c0.437,2.44,1.094,3.751,0.702,4.271C137.895,362.449,131.245,368.722,123.644,372.514z"/>
		<path fill-rule="evenodd" clip-rule="evenodd" fill="#FFFFFF" d="M104.307,329.134c8.536-1.436,9.774-0.701,13.398,8.746
			c-3.717-0.353-6.982-0.662-9.683-0.918c-1.402-2.953-2.561-5.396-3.721-7.841C104.301,329.118,104.307,329.134,104.307,329.134z"
			/>
		<path fill-rule="evenodd" clip-rule="evenodd" fill="#FFFFFF" d="M88.34,482.373c-0.89-3.606-1.779-7.214-2.669-10.821
			c0.369-0.261,0.739-0.522,1.108-0.784c3.65,2.344,7.3,4.688,10.951,7.03c-0.042,0.72-0.083,1.44-0.124,2.16
			c-3.139,0.746-6.277,1.492-9.409,2.247C88.205,482.213,88.34,482.373,88.34,482.373z"/>
		<path fill-rule="evenodd" clip-rule="evenodd" fill="#FFFFFF" d="M358.682,510.547c1.118-6.521,5.363-9.639,10.288-12.396
			C371.09,504.574,366.445,510.525,358.682,510.547z"/>
		<path fill-rule="evenodd" clip-rule="evenodd" d="M424.347,201.715c-5.504,0-10.402,0-16.766,0
			c1.23-5.071,2.487-9.523,3.354-14.051c0.714-3.731,1.353-7.551,1.363-11.332c0.101-36.146,0.188-72.292-0.088-108.436
			c-0.037-4.932-2.291-9.813-3.118-14.785c-0.564-3.399-0.433-6.915-0.632-10.751c5.671,0,10.922,0,16.865,0
			c5.664,31.098,11.368,62.418,17.072,93.738c0.2-0.002,0.401-0.004,0.602-0.007c0-3.342,0.002-6.685,0-10.027
			c-0.016-19.821,0.162-39.646-0.197-59.462c-0.08-4.427-2.258-8.781-3.072-13.242c-0.641-3.508-0.67-7.128-1-11.048
			c5.645,0,10.699,0,17.267,0c-1.209,4.89-2.524,9.296-3.345,13.792c-0.799,4.381-1.525,8.853-1.537,13.287
			c-0.114,41.975-0.068,83.95-0.068,125.926c0,1.984,0,3.969,0,6.315c-3.796,0-7.346,0-11.336,0
			c-6.248-33.872-12.506-67.792-18.764-101.711c-0.219,0.038-0.438,0.077-0.657,0.116c0,25.958-0.152,51.917,0.151,77.871
			c0.05,4.269,2.368,8.466,3.145,12.785C424.217,194.204,424.109,197.848,424.347,201.715z"/>
		<path fill-rule="evenodd" clip-rule="evenodd" d="M79.331,124.276c0.699-21.36,1.068-42.683,6.729-63.429
			c1.379-5.053,3.594-10.087,6.419-14.492c5.641-8.799,16.856-9.104,22.13-0.003c3.987,6.879,6.979,14.911,8.122,22.764
			c5.181,35.606,5.37,71.33-0.786,106.868c-1.197,6.913-3.661,13.937-7.06,20.066c-6.306,11.372-19.757,11.106-24.907-0.8
			c-3.96-9.155-6.445-19.251-7.771-29.172C80.36,152.264,80.208,138.222,79.331,124.276z M103.351,188.165
			c4.971-4.183,5.674-9.804,6.424-15.111c4.05-28.662,3.516-57.454,1.587-86.227c-0.521-7.76-2.005-15.486-3.547-23.128
			c-0.564-2.797-2.577-5.301-3.929-7.938c-0.753,0.041-1.507,0.083-2.261,0.125c-1.504,3.705-3.813,7.291-4.387,11.135
			c-5.293,35.455-4.822,70.983-0.418,106.484C97.461,178.67,98.302,184.086,103.351,188.165z"/>
		<path fill-rule="evenodd" clip-rule="evenodd" d="M404.497,201.806c-8.069,0-15.009,0-22.332,0
			c0.071-4.647-1.464-9.089,2.084-13.275c1.313-1.547,1.569-4.428,1.465-6.661c-0.427-9.105-1.18-18.196-1.831-27.562
			c-4.876,0-9.287,0-14.408,0c-0.613,9.344-1.497,18.604-1.668,27.878c-0.054,2.899,2.127,5.773,2.715,8.771
			c0.658,3.353,0.669,6.832,0.996,10.667c-6.042,0-11.579,0-18.154,0C365.019,149.007,367.169,95.387,375.515,42
			c1.712,0,3.665,0,5.618,0c1.794,0,3.588,0,5.632,0c1.464,15.276,2.887,30.139,4.313,45.001c3.02,31.461,5.982,62.928,9.155,94.373
			c0.306,3.023,2.229,5.851,2.858,8.881C403.846,193.882,404.018,197.63,404.497,201.806z M382.365,137.774
			c-1.489-16.408-2.938-32.389-4.389-48.368c-0.299-0.005-0.598-0.01-0.896-0.015c-1.817,16.03-3.635,32.062-5.485,48.383
			C375.313,137.774,378.41,137.774,382.365,137.774z"/>
		<path fill-rule="evenodd" clip-rule="evenodd" d="M53.351,201.731c-7.617,0-14.373,0-22.584,0c1.19-5.037,2.406-9.487,3.26-14.007
			c0.737-3.898,1.488-7.874,1.5-11.818c0.113-36.154,0.193-72.31-0.087-108.462c-0.037-4.755-2.396-9.452-3.226-14.255
			c-0.587-3.397-0.41-6.928-0.585-10.632c9.074,0,17.82-0.42,26.5,0.156c5.258,0.35,8.613,4.549,10.149,9.301
			c1.877,5.807,3.582,11.827,4.148,17.869c1.528,16.294,1.428,32.597-2.366,48.673c-0.229,0.971-0.47,1.944-0.8,2.884
			c-3.43,9.772-5.994,16.217-20.261,15.743c0,2.945,0,5.884,0,8.822c0,10.163-0.053,20.327,0.022,30.489
			c0.038,5.11-0.004,10.002,3.444,14.69C54.179,193.516,53.128,197.879,53.351,201.731z M49.202,120.92
			c5.858,0.15,8.127-3.834,8.424-7.854c0.975-13.179,1.403-26.411,1.565-39.629c0.045-3.692-1.279-7.496-2.481-11.079
			c-1.098-3.273-3.484-5.203-7.508-3.996C49.202,79.057,49.202,99.779,49.202,120.92z"/>
		<path fill-rule="evenodd" clip-rule="evenodd" d="M248.986,84.826c-2.18,0-3.977,0-5.754,0c-3.38-8.828,0.869-20.009-8.799-27.922
			c-0.443,2.018-0.754,2.769-0.753,3.52c0.096,40.303,0.15,80.605,0.471,120.906c0.024,3.06,2.25,6.039,2.918,9.17
			c0.765,3.584,0.934,7.296,1.394,11.235c-7.938,0-15.006,0-22.396,0c0.167-4.898-1.425-9.643,2.641-13.754
			c1.164-1.177,1.199-3.767,1.229-5.716c0.217-13.818,0.375-27.639,0.406-41.458c0.058-25.649,0.017-51.3,0.017-76.949
			c0-1.806,0-3.611,0-5.521c-4.35-0.642-5.42,2.302-5.963,4.914c-1.08,5.194-1.624,10.501-2.373,15.764
			c-0.256,1.798-0.462,3.602-0.726,5.675c-2.119,0-4.015,0-6.237,0c0-14.101,0-28.146,0-42.442c14.656,0,29.081,0,43.924,0
			C248.986,56.329,248.986,70.355,248.986,84.826z"/>
		<path fill-rule="evenodd" clip-rule="evenodd" d="M322.995,81.813c-2.49,0-4.435,0-6.624,0c-2.01-8.624-0.431-18.282-7.939-27.276
			c-2.143,4.598-4.723,7.916-5.182,11.506c-1.873,14.657-3.754,29.368-4.408,44.114c-0.974,21.957-0.768,43.959,3.275,65.703
			c0.539,2.905,1.585,5.774,2.816,8.468c0.626,1.366,2.479,3.404,3.266,3.197c1.477-0.39,3.364-2.002,3.707-3.434
			c1.541-6.439,2.622-12.99,3.813-19.511c0.236-1.292,0.231-2.629,0.362-4.257c2.165,0,4.239,0,6.896,0
			c0,12.09,0.01,24.198-0.029,36.306c-0.002,0.603-0.311,1.298-0.685,1.792c-5.799,7.681-21.173,7.729-26.167-0.699
			c-3.555-5.999-6.307-13.015-7.326-19.887c-5.732-38.62-6.41-77.271,2.258-115.621c1.221-5.401,3.679-10.759,6.611-15.486
			c5.069-8.172,16.894-9.102,23.818-2.357c0.834,0.812,1.459,2.264,1.471,3.426C323.039,58.944,322.995,70.094,322.995,81.813z"/>
		<path fill-rule="evenodd" clip-rule="evenodd" d="M133.648,42.248c7.23,0,13.832,0,20.957,0c-0.076,4.539,1.352,8.93-1.705,13.325
			c-1.393,2.003-1.745,5.061-1.753,7.643c-0.122,40.31-0.11,80.619-0.114,120.928c0,0.473,0.206,0.944,0.309,1.384
			c6.977,0.97,8.285,0.421,9.657-6.45c1.394-6.989,1.974-14.142,2.862-21.229c0.222-1.772,0.259-3.567,0.397-5.584
			c2.283,0,4.224,0,6.311,0c0,16.343,0,32.725,0,49.42c-12.508,0-24.402,0-37.764,0c1.155-4.947,2.366-9.39,3.196-13.903
			c0.748-4.063,1.512-8.202,1.526-12.31c0.118-35.813,0.198-71.626-0.082-107.436c-0.039-4.935-2.335-9.814-3.159-14.79
			C133.704,49.729,133.844,46.092,133.648,42.248z"/>
		<path fill-rule="evenodd" clip-rule="evenodd" d="M177.614,42.266c7.213,0,13.814,0,20.981,0
			c-0.072,4.455,1.381,8.825-1.71,13.214c-1.397,1.984-1.746,5.044-1.752,7.618c-0.108,39.276-0.105,78.554-0.022,117.83
			c0.005,2.429,0.824,4.873,1.394,7.279c1.021,4.309,2.14,8.594,3.368,13.489c-8.22,0-14.936,0-23.103,0
			c1.188-5.004,2.413-9.452,3.268-13.971c0.737-3.895,1.479-7.868,1.491-11.809c0.112-36.119,0.189-72.238-0.083-108.355
			c-0.036-4.761-2.319-9.468-3.13-14.272C177.722,49.771,177.833,46.135,177.614,42.266z"/>
		<path fill-rule="evenodd" clip-rule="evenodd" d="M255.604,42.214c7.358,0,13.953,0,22.123,0
			c-1.093,4.746-2.111,9.024-3.055,13.318c-0.6,2.733-1.553,5.488-1.561,8.236c-0.102,38.943-0.129,77.888,0.047,116.831
			c0.015,3.14,1.834,6.234,2.482,9.418c0.744,3.643,1.116,7.361,1.725,11.56c-7.462,0-14.169,0-21.278,0
			c-0.254-4.582-0.918-8.95,1.642-13.666c1.772-3.265,1.781-7.733,1.795-11.666c0.121-36.285,0.196-72.571-0.082-108.854
			c-0.035-4.755-2.372-9.453-3.203-14.254C255.651,49.744,255.807,46.223,255.604,42.214z"/>
		<path fill-rule="evenodd" clip-rule="evenodd" d="M351.2,201.737c-7.764,0-14.364,0-22.429,0
			c1.189-5.028,2.406-9.475,3.259-13.989c0.736-3.896,1.486-7.867,1.498-11.808c0.113-36.118,0.189-72.238-0.082-108.354
			c-0.035-4.763-2.309-9.471-3.12-14.276c-0.595-3.52-0.494-7.157-0.72-11.036c7.202,0,13.805,0,20.914,0
			c0.096,4.437,1.411,8.792-1.625,13.183c-1.386,2.004-1.754,5.045-1.762,7.618c-0.108,39.276-0.145,78.553,0.037,117.829
			c0.015,3.12,2.009,6.184,2.632,9.362C350.516,193.898,350.725,197.631,351.2,201.737z"/>
		<path fill-rule="evenodd" clip-rule="evenodd" fill="#FFFFFF" d="M103.351,188.165c-5.048-4.079-5.889-9.495-6.53-14.66
			c-4.404-35.501-4.875-71.029,0.418-106.484c0.574-3.844,2.883-7.43,4.387-11.135c0.753-0.042,1.507-0.084,2.261-0.125
			c1.352,2.638,3.365,5.142,3.929,7.938c1.542,7.642,3.026,15.368,3.547,23.128c1.929,28.772,2.462,57.564-1.587,86.227
			C109.025,178.361,108.322,183.982,103.351,188.165z"/>
		<path fill-rule="evenodd" clip-rule="evenodd" fill="#FFFFFF" d="M382.365,137.774c-3.955,0-7.053,0-10.77,0
			c1.851-16.321,3.668-32.353,5.485-48.383c0.298,0.005,0.597,0.01,0.896,0.015C379.427,105.386,380.876,121.366,382.365,137.774z"
			/>
		<path fill-rule="evenodd" clip-rule="evenodd" fill="#FFFFFF" d="M49.202,120.92c0-21.141,0-41.863,0-62.558
			c4.023-1.207,6.41,0.723,7.508,3.996c1.203,3.583,2.527,7.387,2.481,11.079c-0.162,13.218-0.59,26.45-1.565,39.629
			C57.329,117.086,55.061,121.07,49.202,120.92z"/>
	</g>
</g>
</svg>
