<?xml version="1.0" encoding="utf-8"?>
<!-- Generator: Adobe Illustrator 16.0.3, SVG Export Plug-In . SVG Version: 6.00 Build 0)  -->
<!DOCTYPE svg PUBLIC "-//W3C//DTD SVG 1.1//EN" "http://www.w3.org/Graphics/SVG/1.1/DTD/svg11.dtd">
<svg version="1.1" id="Politician_Info_2_xA0_Image_1_"
	 xmlns="http://www.w3.org/2000/svg" xmlns:xlink="http://www.w3.org/1999/xlink" x="0px" y="0px" width="864px" height="720px"
	 viewBox="0 0 864 720" enable-background="new 0 0 864 720" xml:space="preserve">
<g>
	<g>
		<path fill-rule="evenodd" clip-rule="evenodd" fill="#FEFEFE" d="M432.5,721c-142.333,0-284.667-0.018-427,0.094
			c-3.75,0.003-4.595-0.845-4.593-4.594c0.104-237,0.104-474,0-711C0.905,1.751,1.751,0.905,5.5,0.907c285,0.102,570,0.102,855,0
			c3.749-0.002,4.595,0.844,4.594,4.593c-0.104,237-0.104,474,0,711c0.001,3.749-0.845,4.597-4.594,4.594
			C717.833,720.982,575.167,721,432.5,721z M437.399,84.975c-29.673-0.063-59.315,0.947-88.897,3.158
			c-30.057,2.246-60.033,5.334-89.515,11.926c-13.787,3.082-27.601,6.248-39.892,13.676c-5.352,3.234-9.848,7.066-7.319,14.509
			c0.499,1.468-0.068,3.3-0.155,4.964c-1.877,35.938-3.77,71.875-5.632,107.814c-1.794,34.608-3.544,69.219-5.337,103.827
			c-2.215,42.761-4.461,85.52-6.681,128.279c-1.451,27.953-2.932,55.904-4.255,83.863c-0.167,3.528-1.281,5.106-4.92,5.806
			c-11.262,2.165-22.49,4.56-33.643,7.23c-33.798,8.095-67.292,17.187-99.003,31.79c-7.866,3.622-15.626,7.499-21.991,13.538
			c-5.595,5.309-5.562,8.881-0.001,14.311c4.932,4.816,10.849,8.227,16.886,11.435c19.89,10.566,40.975,18.188,62.386,24.895
			c86.872,27.209,176.107,41.191,266.75,46.876c65.824,4.127,131.541,2.408,197.126-4.735
			c52.844-5.756,105.096-14.736,156.503-28.305c33.924-8.954,67.39-19.335,98.877-35.168c8.325-4.186,16.555-8.664,23.004-15.624
			c4.517-4.873,4.39-8.232-0.153-12.991c-2.668-2.794-5.833-4.968-9.117-6.94c-11.158-6.698-23.122-11.665-35.294-16.144
			c-32.983-12.137-66.96-20.704-101.3-27.915c-3.245-0.682-4.674-1.748-4.802-5.388c-0.434-12.317-1.247-24.624-2.051-36.926
			c-2.011-30.75-3.978-61.505-7.2-92.159c-0.538-5.119-1.805-10.163-2.316-15.284c-0.3-3.002-3.498-3.742-3.773-7.233
			c-2.676-33.868-5.84-67.698-8.906-101.535c-5.185-57.223-10.405-114.443-15.579-171.667c-0.173-1.921-0.446-3.764,0.745-5.736
			c3.188-5.283,2.538-8.587-2.145-12.608c-4.609-3.959-10.076-6.428-15.714-8.488c-22.016-8.047-44.996-11.849-68.088-14.874
			C530.002,87.123,483.753,85.074,437.399,84.975z"/>
		<path fill-rule="evenodd" clip-rule="evenodd" fill="#030202" d="M437.399,84.975c46.354,0.1,92.603,2.148,138.595,8.175
			c23.092,3.025,46.072,6.827,68.088,14.874c5.638,2.061,11.104,4.529,15.714,8.488c4.683,4.021,5.332,7.325,2.145,12.608
			c-1.191,1.973-0.918,3.815-0.745,5.736c5.174,57.224,10.395,114.444,15.579,171.667c3.066,33.837,6.23,67.667,8.906,101.535
			c0.275,3.491,3.474,4.231,3.773,7.233c0.512,5.121,1.778,10.165,2.316,15.284c3.223,30.654,5.189,61.409,7.2,92.159
			c0.804,12.302,1.617,24.608,2.051,36.926c0.128,3.64,1.557,4.706,4.802,5.388c34.34,7.211,68.316,15.778,101.3,27.915
			c12.172,4.479,24.136,9.445,35.294,16.144c3.284,1.973,6.449,4.146,9.117,6.94c4.543,4.759,4.67,8.118,0.153,12.991
			c-6.449,6.96-14.679,11.438-23.004,15.624c-31.487,15.833-64.953,26.214-98.877,35.168
			c-51.407,13.568-103.659,22.549-156.503,28.305c-65.585,7.144-131.302,8.862-197.126,4.735
			c-90.642-5.685-179.877-19.667-266.75-46.876c-21.412-6.707-42.497-14.328-62.386-24.895c-6.037-3.208-11.954-6.618-16.886-11.435
			c-5.56-5.43-5.594-9.002,0.001-14.311c6.365-6.039,14.125-9.916,21.991-13.538c31.71-14.604,65.205-23.695,99.003-31.79
			c11.153-2.671,22.381-5.065,33.643-7.23c3.639-0.699,4.753-2.277,4.92-5.806c1.323-27.959,2.804-55.91,4.255-83.863
			c2.22-42.76,4.466-85.519,6.681-128.279c1.793-34.608,3.543-69.219,5.337-103.827c1.863-35.939,3.755-71.877,5.632-107.814
			c0.087-1.664,0.654-3.496,0.155-4.964c-2.529-7.442,1.967-11.274,7.319-14.509c12.291-7.428,26.105-10.594,39.892-13.676
			c29.482-6.592,59.458-9.68,89.515-11.926C378.084,85.922,407.727,84.911,437.399,84.975z M449.684,457.939
			c-4.676-6.203-4.676-6.203-9.726-0.059c-23.142-0.66-46.285-1.155-69.391-2.834c-28.57-2.075-57.018-5.178-85.322-9.564
			c-22.854-3.543-45.587-7.736-68.054-13.279c-2.447-0.604-4.172-0.966-4.356,2.848c-1.104,22.956-2.417,45.903-3.834,68.844
			c-1.828,29.579-3.272,59.193-6.914,88.628c-0.477,3.85,0.565,5.377,4.318,6.657c68.137,23.254,138.354,34.575,210.15,36.649
			c46.869,1.354,93.545-1.336,140.026-7.637c42.928-5.819,85.254-14.402,126.898-26.368c3.639-1.045,4.992-2.5,4.712-6.491
			c-1.217-17.276-2.053-34.579-3.056-51.87c-2.081-35.909-4.426-71.797-7.86-107.61c-0.441-4.611-1.507-5.323-5.945-4.263
			c-56.801,13.576-114.377,21.842-172.725,24.558C482.306,456.905,465.991,457.351,449.684,457.939z M45.243,622.638
			c0.906,0.59,1.44,0.982,2.014,1.303c3.631,2.026,7.19,4.205,10.922,6.025c26.875,13.109,55.212,22.199,83.949,30.084
			c92.148,25.284,186.192,37.378,281.566,39.716c46.005,1.127,91.908-1.003,137.712-5.569
			c50.568-5.04,100.629-13.011,149.983-25.198c35.891-8.863,71.309-19.197,104.882-34.993c5.86-2.757,11.443-6.104,17.135-9.217
			c2.302-1.26,2.336-2.524-0.099-3.744c-4.014-2.012-7.916-4.27-12.018-6.079c-37.032-16.348-76.107-25.909-115.42-34.696
			c-3.252-0.727-3.569,0.412-3.312,3.267c0.628,6.961,0.589,13.993,1.454,20.918c0.638,5.102-1.095,7.16-5.98,8.656
			c-75.915,23.231-153.668,35.163-232.889,37.699c-53.397,1.709-106.518-1.698-159.207-10.874
			c-40.074-6.979-79.256-17.311-117.504-31.192c-3.115-1.131-3.93-2.409-3.116-5.753c1.651-6.786,2.133-13.786,2.764-20.75
			c0.346-3.813-0.571-5.005-4.555-4.147c-36.448,7.84-72.639,16.59-107.562,29.891C65.562,611.945,55.265,616.181,45.243,622.638z
			 M601.24,291.203c-1.163-44.964-2.376-89.927-3.402-134.895c-0.089-3.881-1.08-4.753-4.866-4.099
			c-27.436,4.739-55.143,7.079-82.909,8.639c-4.249,0.239-5.036,1.493-4.995,5.452c0.723,68.965,1.302,137.932,1.884,206.897
			c0.178,20.991,0.246,41.982,0.444,62.973c0.019,2.013-1.072,4.798,3.157,4.49c29.902-2.178,59.667-5.472,89.317-9.937
			c4.624-0.696,5.248-2.563,5.124-6.636C603.645,379.797,602.473,335.499,601.24,291.203z M384.512,301.195
			c-0.02-0.001-0.038-0.002-0.058-0.002c1.462-45.106,2.874-90.215,4.476-135.316c0.13-3.669-1.352-3.853-4.242-3.971
			c-24.625-1.009-49.213-2.607-73.671-5.71c-3.991-0.507-5.369,0.072-5.525,4.493c-1.099,31.121-2.476,62.232-3.807,93.345
			c-2.478,57.898-4.957,115.798-7.553,173.691c-0.149,3.313,0.886,4.043,4.004,4.479c25.56,3.57,51.207,6.197,76.942,8.123
			c4.337,0.324,5.058-0.744,5.175-4.81C381.544,390.739,383.058,345.968,384.512,301.195z M483.62,287.821
			c-0.566-27.947-1.52-72.574-2.288-117.205c-0.063-3.695-0.974-4.742-4.735-4.705c-19.988,0.197-39.981,0.232-59.969-0.021
			c-4.244-0.053-5.346,1.301-5.414,5.264c-0.252,14.82-0.775,29.637-1.212,44.453c-0.767,25.971-1.506,51.941-2.326,77.911
			c-1.513,47.94-3.031,95.881-4.704,143.815c-0.135,3.856,1.047,4.652,4.679,4.745c24.48,0.629,48.951,0.8,73.438,0.062
			c4.608-0.14,5.377-1.539,5.287-5.742C485.44,392.436,484.708,348.469,483.62,287.821z M285.834,159.969
			c0.182-3.764,1.297-7.166-4.489-7.953c-17.481-2.379-34.705-6.12-51.278-12.368c-2.75-1.037-3.889-0.671-4.038,2.543
			c-0.932,20.123-2.004,40.238-3.026,60.356c-1.444,28.433-2.845,56.866-4.335,85.296c-2.152,41.063-4.319,82.125-6.643,123.179
			c-0.202,3.577,0.869,4.874,4.249,5.662c16.195,3.776,32.471,7.146,48.815,10.19c6.492,1.209,6.442,1.125,6.797-5.827
			c1.774-34.749,3.532-69.5,5.397-104.244C280.094,264.439,282.988,212.081,285.834,159.969z M642.245,124.331
			c-1.418-2.012-3.334-2.199-4.959-2.79c-10.657-3.876-21.663-6.454-32.785-8.564c-45.796-8.692-92.148-11.584-138.616-12.67
			c-55.178-1.29-110.256,0.632-165.05,7.783c-20.792,2.714-41.489,6.058-61.437,12.864c-2.24,0.765-4.685,1.235-7.024,3.414
			c12.606,5.229,25.171,8.201,37.878,10.617c45.791,8.705,92.144,11.553,138.612,12.722c41.657,1.047,83.282-0.052,124.833-3.522
			c27.055-2.26,53.989-5.33,80.531-11.195C623.719,130.893,633.179,128.594,642.245,124.331z M646.899,143.671
			c-9.716,4.527-18.848,8.861-28.061,13.017c-2.099,0.946-1.835,2.503-1.827,4.118c0.309,69.778-0.937,139.566,1.293,209.334
			c0.563,17.641,1.15,35.282,1.527,52.928c0.073,3.399,0.824,4.031,4.258,3.359c14.36-2.81,28.647-5.926,42.925-9.121
			c3.716-0.832,4.411-2.324,4.086-5.73c-1.804-18.884-3.43-37.785-5.115-56.681c-2.439-27.35-4.859-54.7-7.32-82.048
			c-2.878-31.986-5.786-63.971-8.693-95.955C648.983,166.012,647.961,155.135,646.899,143.671z"/>
		<path fill-rule="evenodd" clip-rule="evenodd" fill="#3333FD" d="M449.684,457.939c16.308-0.589,32.622-1.034,48.922-1.792
			c58.348-2.716,115.924-10.981,172.725-24.558c4.438-1.061,5.504-0.349,5.945,4.263c3.435,35.813,5.779,71.701,7.86,107.61
			c1.003,17.291,1.839,34.594,3.056,51.87c0.28,3.991-1.073,5.446-4.712,6.491c-41.645,11.966-83.971,20.549-126.898,26.368
			c-46.481,6.301-93.157,8.99-140.026,7.637c-71.796-2.074-142.013-13.396-210.15-36.649c-3.753-1.28-4.794-2.808-4.318-6.657
			c3.642-29.435,5.086-59.049,6.914-88.628c1.417-22.94,2.731-45.888,3.834-68.844c0.184-3.813,1.909-3.452,4.356-2.848
			c22.467,5.543,45.2,9.736,68.054,13.279c28.305,4.387,56.752,7.489,85.322,9.564c23.105,1.679,46.249,2.174,69.391,2.834
			c-10.822,15.982-21.68,31.94-32.423,47.977c-1.357,2.025-3.046,2.168-5.111,2.196c-19.995,0.272-39.989,0.582-59.983,0.94
			c-1.373,0.024-2.945-0.633-4.401,0.88c2.287,2.026,4.499,4.004,6.729,5.96c15.284,13.405,30.521,26.865,45.907,40.151
			c2.542,2.195,3.071,3.911,1.707,7.12c-7.479,17.601-14.704,35.31-21.92,53.021c-0.617,1.515-2.229,3.006-0.949,5.17
			c1.609-0.599,3.171-1.145,4.707-1.755c22.566-8.955,45.146-17.876,67.673-26.934c2.796-1.124,5.047-1.27,7.947,0.016
			c22.655,10.041,45.408,19.86,68.145,29.719c1.571,0.682,3.046,1.92,4.917,1.557c0.419-1.506-0.284-2.491-0.68-3.555
			c-7.191-19.325-14.276-38.691-21.656-57.944c-1.307-3.41-0.755-5.306,2.006-7.489c7.055-5.579,13.892-11.435,20.801-17.197
			c9.533-7.951,19.053-15.919,29.309-24.491c-1.796-0.209-2.55-0.326-3.308-0.381c-21.599-1.564-43.196-3.137-64.799-4.658
			c-2.045-0.144-3.738-0.294-5.028-2.383C469.665,489.802,459.654,473.883,449.684,457.939z"/>
		<path fill-rule="evenodd" clip-rule="evenodd" fill="#FD0000" d="M45.243,622.638c10.022-6.457,20.319-10.692,30.722-14.655
			c34.923-13.301,71.114-22.051,107.562-29.891c3.983-0.857,4.9,0.335,4.555,4.147c-0.631,6.964-1.113,13.964-2.764,20.75
			c-0.813,3.344,0.001,4.622,3.116,5.753c38.248,13.882,77.43,24.213,117.504,31.192c52.689,9.176,105.809,12.583,159.207,10.874
			c79.221-2.536,156.974-14.468,232.889-37.699c4.886-1.496,6.618-3.555,5.98-8.656c-0.865-6.925-0.826-13.957-1.454-20.918
			c-0.258-2.854,0.06-3.993,3.312-3.267c39.313,8.787,78.388,18.349,115.42,34.696c4.102,1.81,8.004,4.067,12.018,6.079
			c2.435,1.22,2.4,2.484,0.099,3.744c-5.691,3.112-11.274,6.46-17.135,9.217c-33.573,15.796-68.991,26.13-104.882,34.993
			c-49.354,12.188-99.415,20.158-149.983,25.198c-45.804,4.566-91.707,6.696-137.712,5.569
			c-95.374-2.338-189.418-14.432-281.566-39.716c-28.736-7.885-57.074-16.975-83.949-30.084c-3.732-1.82-7.291-3.999-10.922-6.025
			C46.683,623.62,46.149,623.228,45.243,622.638z"/>
		<path fill-rule="evenodd" clip-rule="evenodd" fill="#FDFDFD" d="M601.247,291.203c1.226,44.296,2.397,88.594,3.747,132.886
			c0.124,4.072-0.5,5.939-5.124,6.636c-29.65,4.465-59.415,7.759-89.317,9.937c-4.229,0.308-3.139-2.478-3.157-4.49
			c-0.198-20.99-0.267-41.981-0.444-62.973c-0.582-68.966-1.161-137.933-1.884-206.897c-0.041-3.959,0.746-5.213,4.995-5.452
			c27.767-1.56,55.474-3.899,82.909-8.639c3.786-0.654,4.777,0.218,4.866,4.099C598.864,201.276,600.077,246.239,601.247,291.203z"
			/>
		<path fill-rule="evenodd" clip-rule="evenodd" fill="#FDFDFD" d="M384.512,301.195c-1.454,44.772-2.968,89.544-4.259,134.322
			c-0.117,4.065-0.838,5.134-5.175,4.81c-25.735-1.926-51.382-4.553-76.942-8.123c-3.118-0.436-4.153-1.166-4.004-4.479
			c2.596-57.894,5.075-115.793,7.553-173.691c1.332-31.112,2.708-62.224,3.807-93.345c0.156-4.421,1.534-5,5.525-4.493
			c24.458,3.103,49.046,4.701,73.671,5.71c2.891,0.118,4.372,0.302,4.242,3.971c-1.602,45.102-3.014,90.21-4.476,135.316
			C384.474,301.193,384.492,301.194,384.512,301.195z"/>
		<path fill-rule="evenodd" clip-rule="evenodd" fill="#FD0000" d="M483.62,287.821c1.088,60.647,1.82,104.614,2.755,148.577
			c0.09,4.203-0.679,5.603-5.287,5.742c-24.486,0.738-48.957,0.567-73.438-0.062c-3.632-0.093-4.813-0.889-4.679-4.745
			c1.673-47.935,3.191-95.875,4.704-143.815c0.82-25.97,1.56-51.94,2.326-77.911c0.437-14.816,0.96-29.633,1.212-44.453
			c0.068-3.963,1.17-5.316,5.414-5.264c19.987,0.253,39.98,0.218,59.969,0.021c3.762-0.037,4.672,1.01,4.735,4.705
			C482.101,215.247,483.054,259.874,483.62,287.821z"/>
		<path fill-rule="evenodd" clip-rule="evenodd" fill="#FD0000" d="M285.834,159.969c-2.846,52.112-5.74,104.471-8.551,156.834
			c-1.865,34.744-3.623,69.495-5.397,104.244c-0.355,6.952-0.305,7.036-6.797,5.827c-16.344-3.045-32.62-6.414-48.815-10.19
			c-3.379-0.788-4.451-2.085-4.249-5.662c2.324-41.054,4.49-82.116,6.643-123.179c1.49-28.43,2.891-56.863,4.335-85.296
			c1.022-20.118,2.095-40.233,3.026-60.356c0.149-3.214,1.288-3.58,4.038-2.543c16.573,6.248,33.797,9.989,51.278,12.368
			C287.131,152.803,286.016,156.205,285.834,159.969z"/>
		<path fill-rule="evenodd" clip-rule="evenodd" fill="#FDFDFE" d="M449.684,457.939c9.971,15.943,19.981,31.862,29.863,47.86
			c1.29,2.089,2.983,2.239,5.028,2.383c21.603,1.521,43.2,3.094,64.799,4.658c0.758,0.055,1.512,0.172,3.308,0.381
			c-10.256,8.572-19.775,16.54-29.309,24.491c-6.909,5.763-13.746,11.618-20.801,17.197c-2.761,2.184-3.313,4.079-2.006,7.489
			c7.38,19.253,14.465,38.619,21.656,57.944c0.396,1.063,1.099,2.049,0.68,3.555c-1.871,0.363-3.346-0.875-4.917-1.557
			c-22.736-9.858-45.489-19.678-68.145-29.719c-2.9-1.285-5.151-1.14-7.947-0.016c-22.526,9.058-45.106,17.979-67.673,26.934
			c-1.536,0.61-3.098,1.156-4.707,1.755c-1.279-2.164,0.332-3.655,0.949-5.17c7.216-17.711,14.44-35.42,21.92-53.021
			c1.364-3.209,0.835-4.925-1.707-7.12c-15.387-13.286-30.623-26.746-45.907-40.151c-2.23-1.956-4.442-3.934-6.729-5.96
			c1.456-1.513,3.028-0.855,4.401-0.88c19.994-0.358,39.988-0.668,59.983-0.94c2.065-0.028,3.754-0.171,5.111-2.196
			c10.743-16.036,21.601-31.994,32.423-47.977C445.008,451.736,445.008,451.736,449.684,457.939z"/>
		<path fill-rule="evenodd" clip-rule="evenodd" fill="#FD0000" d="M642.245,124.331c-9.066,4.263-18.526,6.562-28.017,8.658
			c-26.542,5.865-53.477,8.936-80.531,11.195c-41.551,3.471-83.176,4.569-124.833,3.522c-46.468-1.169-92.821-4.017-138.612-12.722
			c-12.707-2.416-25.272-5.389-37.878-10.617c2.339-2.179,4.784-2.649,7.024-3.414c19.948-6.807,40.645-10.15,61.437-12.864
			c54.794-7.151,109.873-9.073,165.05-7.783c46.468,1.086,92.82,3.978,138.616,12.67c11.122,2.11,22.128,4.688,32.785,8.564
			C638.911,122.132,640.827,122.319,642.245,124.331z"/>
		<path fill-rule="evenodd" clip-rule="evenodd" fill="#FD0000" d="M646.899,143.671c1.062,11.464,2.084,22.341,3.072,33.221
			c2.907,31.984,5.815,63.969,8.693,95.955c2.461,27.348,4.881,54.698,7.32,82.048c1.686,18.896,3.312,37.797,5.115,56.681
			c0.325,3.406-0.37,4.898-4.086,5.73c-14.277,3.195-28.564,6.312-42.925,9.121c-3.434,0.672-4.185,0.04-4.258-3.359
			c-0.377-17.646-0.964-35.287-1.527-52.928c-2.229-69.768-0.984-139.556-1.293-209.334c-0.008-1.615-0.271-3.172,1.827-4.118
			C628.052,152.532,637.184,148.198,646.899,143.671z"/>
	</g>
</g>
</svg>
