<?xml version="1.0" encoding="utf-8"?>
<!-- Generator: Adobe Illustrator 16.0.3, SVG Export Plug-In . SVG Version: 6.00 Build 0)  -->
<!DOCTYPE svg PUBLIC "-//W3C//DTD SVG 1.1//EN" "http://www.w3.org/Graphics/SVG/1.1/DTD/svg11.dtd">
<svg version="1.1" id="PRESS_final_xA0_Image_1_" xmlns="http://www.w3.org/2000/svg" xmlns:xlink="http://www.w3.org/1999/xlink"
	 x="0px" y="0px" width="479px" height="671px" viewBox="0 0 479 671" enable-background="new 0 0 479 671" xml:space="preserve">
<g>
	<g>
		<path fill-rule="evenodd" clip-rule="evenodd" d="M480,672c-159.667,0-319.333,0-479,0C1,448.333,1,224.667,1,1
			c159.667,0,319.333,0,479,0C480,224.667,480,448.333,480,672z M464.629,655.778c0-213.128,0-425.821,0-638.36
			c-149.396,0-298.429,0-447.347,0c0,212.991,0,425.566,0,638.36C166.473,655.778,315.389,655.778,464.629,655.778z"/>
		<path fill-rule="evenodd" clip-rule="evenodd" fill="#FFFFFF" d="M464.629,655.778c-149.24,0-298.156,0-447.347,0
			c0-212.794,0-425.369,0-638.36c148.917,0,297.95,0,447.347,0C464.629,229.957,464.629,442.65,464.629,655.778z M140.816,472.002
			c-5.968-2.644-11.68-5.561-13.404-11.23c-3.723-12.252-6.238-24.871-9.374-37.865c11.759,3.634,22.103,6.831,33.068,10.219
			c0-5.427-0.156-9.584,0.053-13.723c0.145-2.874-0.893-3.938-3.722-4.664c-9.018-2.317-17.951-4.984-26.85-7.731
			c-1.5-0.463-3.595-1.817-3.832-3.062c-0.982-5.154-1.357-10.425-1.968-15.767c12.284,3.203,23.968,6.251,36.319,9.472
			c0-4.25-0.177-7.566,0.052-10.855c0.213-3.053-0.828-4.173-3.938-4.921c-10.009-2.408-19.916-5.263-29.799-8.158
			c-1.581-0.463-3.904-1.881-4.067-3.102c-0.777-5.79-0.926-11.664-1.312-17.726c13.302,3.275,25.863,6.368,38.773,9.547
			c0-5.771,0-10.857,0-15.605c-12.018-2.685-23.698-5.229-35.333-7.966c-1.583-0.372-4.155-1.635-4.208-2.599
			c-0.37-6.684-0.195-13.397-0.195-20.228c13.483,3.779,26.474,7.42,39.76,11.144c0-6.353,0-11.632,0-16.196
			c-12.446-3.421-24.483-6.638-36.438-10.133c-1.528-0.446-3.695-2.297-3.755-3.581c-0.354-7.613-0.175-15.253-0.175-23.553
			c14.162,2.63,27.134,5.039,40.287,7.481c0-6.867,0-13.096,0-19.272c-12.783-1.715-25.223-3.384-38.027-5.101
			c1.938-11.788,3.037-22.73,8.327-32.492c1.073,4.923,1.733,9.711,3.284,14.19c0.604,1.747,3.276,4.013,4.892,3.926
			c3.666-0.197,7.261-1.708,10.548-2.594c-1.479-6.732-3.122-12.843-4.123-19.058c-2.177-13.51,1.955-19.687,15.516-23.893
			c-6.858,12.436-6.495,25.51-3.853,38.873c0.776,3.928,2.609,5.345,6.504,4.433c1.662-0.389,3.433-0.307,5.341-0.453
			c-1.021-4.147-2.234-7.643-2.696-11.234c-1.108-8.614-2.793-17.908,4.248-24.627c14.204-13.554,31.381-22.48,50.153-27.723
			c9.177-2.563,18.986-2.865,28.509-4.191c-1.389,1.579-3.007,2.342-4.621,3.111c-16.963,8.088-33.943,16.141-50.883,24.277
			c-12.896,6.194-17.028,16.944-15.736,30.526c1.059,11.128,0.992,11.14,11.772,12.63c0.912,0.126,1.843,0.111,3.072,0.179
			c0-1.383,0.053-2.362-0.008-3.335c-1.143-18.19,5.73-31.738,22.739-39.496c18.913-8.627,37.881-17.139,56.669-26.028
			c12.376-5.856,24.638-0.854,37.006-0.754c-9.034,3.72-18.242,6.537-27.212,9.974c-19.717,7.554-39.43,15.144-58.866,23.375
			c-4.287,1.815-8.349,5.771-10.89,9.771c-5.838,9.193-6.138,19.711-5.198,30.607c4.623,0.209,8.861,0.401,13.042,0.591
			c3.836-25.39,7.131-31.357,28.526-40.069c26.008-10.591,52.646-19.646,79.089-29.146c5.912-2.124,13.951,3.425,15.733,10.277
			c-13.439,4.842-26.987,9.437-40.315,14.596c-16.438,6.362-32.734,13.097-48.99,19.913c-2.83,1.187-5.156,3.574-8.308,5.832
			c8.972,5.804,11.394,13.001,9.24,21.912c-0.113,0.472-0.111,1.023,0.014,1.491c1.082,4.061-1.254,5.332-4.647,5.801
			c-9.705,1.34-19.379,2.981-29.121,3.955c-8.032,0.803-16.142,0.823-24.12,1.186c0,7.173,0,13.767,0,20.919
			c21.219-1.001,42.137-1.16,62.736-5.782c31.79-7.132,62.266-18.113,92-31.206c9.33-4.108,8.901-0.716,9.848,5.844
			c0.138,0.956,0.019,1.949,0.019,2.374c-3.152,0.165-6.063-0.005-8.831,0.545c-3.404,0.677-6.726,1.852-10.021,2.989
			c-19.965,6.888-39.937,13.756-59.851,20.786c-7.04,2.485-14.07,5.106-20.797,8.311c-2.119,1.01-3.963,3.919-4.635,6.321
			c-0.893,3.188,0.773,8.039-1.008,9.79c-2.205,2.171-6.807,1.933-10.389,2.662c-1.135,0.23-2.321,0.199-3.479,0.331
			c-15.173,1.726-30.345,3.459-45.619,5.202c0,5.832,0,11.421,0,17.633c12.885-0.804,25.496-1.282,38.037-2.48
			c8.694-0.83,17.742-1.386,25.857-4.255c30.876-10.918,61.492-22.584,92.058-34.356c4.561-1.757,8.235-4.697,11.549,1.244
			c0.049,0.087,0.575-0.093,0.967-0.164c0-2.106,0-4.211,0-6.321c-0.674-0.232-1.138-0.375-1.589-0.551
			c-2.215-0.867-5.61-1.151-6.402-2.735c-1.846-3.689-0.938-7.303,3.339-9.536c1.436-0.75,3.329-2.641,3.264-3.922
			c-0.431-8.546-1.336-17.067-2.104-25.783c-3.987,0.368-7.054,0.652-10.083,0.932c-1.314-8.382-1.235-8.274,5.162-13.01
			c1.279-0.946,2.642-3.248,2.366-4.601c-2.679-13.176-5.564-26.315-8.675-39.396c-1.545-6.493-6.248-10.221-12.187-12.978
			c-5.043-2.342-8.186,1.251-11.963,2.868c-4.563,1.955-6.839,0.565-7.592-4.587c-0.19-1.298-1.451-3.416-2.353-3.487
			c-16.022-1.271-32.438-6.097-47.307,4.657c-1.869,1.352-4.011,2.457-6.187,3.219c-2.495,0.874-5.17,1.238-8.202,1.922
			c-0.229-4.172-0.4-7.264-0.613-11.146c-14.15,1.979-28.371,0.527-40.991,8.105c-2.852,1.713-5.721,3.463-8.762,4.78
			c-3.518,1.524-7.213,2.519-8.925-2.729c-17.775,4.857-34.411,11.823-49.493,22.338c-3.29,2.294-5.11,4.832-4.844,9.015
			c0.183,2.879-0.439,5.808-0.696,8.651c-1.953,0-3.349,0.281-4.581-0.048c-5.964-1.59-9.276,1.25-10.75,6.584
			c-2.344,8.477-4.532,17.002-6.486,25.575c-0.901,3.953-1.092,8.068-1.616,12.197c3.175,0.472,5.602,0.833,7.974,1.187
			c0.355,6.998,0.332,6.921-5.719,8.779c-1.165,0.357-2.931,1.573-2.948,2.423c-0.206,10.103-0.133,20.21-0.133,30.604
			c2.397,0.456,5.283,1.007,7.962,1.518c2.795,8.818-5.255,5.923-8.051,8.014c0,9.87,0,19.447,0,29.061
			c2.937,0.381,5.195,0.675,7.172,0.932c3.042,7.592-4.682,4.593-6.587,7.297c0.378,5.334,1.024,10.637,1.055,15.944
			c0.032,5.431-0.615,10.919,7.482,9.819c0,2.761,0,4.877,0,6.992c-2.535,0.993-5.631,2.699-5.572,4.288
			c0.285,7.586,1.425,15.141,2.27,22.78c2.422,0.215,4.369,0.387,7.475,0.662c-0.75,2.44-0.892,5.905-2.111,6.339
			c-4.443,1.577-4.227,4.301-3.349,7.846c0.557,2.247,0.536,4.632,1.013,6.905c2.182,10.406,4.135,20.875,6.792,31.16
			c1.855,7.182,7.769,11.476,14.245,13.677c2.736,0.93,6.763-1.933,10.202-3.074c0.599-0.198,1.192-0.41,1.708-0.588
			c2.139,3.442-1.844,9,4.23,10.674c4.171,1.148,8.655,3.866,12.399,3.068c3.444-0.734,6.086-5.229,9.266-8.243
			c0.512,2.093,1.364,4.145,1.453,6.229c0.186,4.359,2.401,5.875,6.535,6.335c9.484,1.057,9.413,1.2,13.683-7.322
			c0.529-1.056,2.144-2.447,2.959-2.276c1.224,0.257,2.394,1.617,3.191,2.779c0.616,0.899,0.703,2.203,0.89,3.349
			c0.672,4.134,1.621,7.963,7.043,7.168c0,15.131,0,29.905,0,45.058c-2.262,0.228-4.055,0.382-5.84,0.593
			c-20.159,2.384-40.408,4.195-60.445,7.35c-16.109,2.536-31.983,6.76-46.103,15.493c-14.044,8.687-14.277,19.111-0.063,27.326
			c7.976,4.61,16.779,8.215,25.64,10.794c33.032,9.617,67.06,12.43,101.274,13.101c39.752,0.779,79.352-1.188,118.049-11.089
			c11.637-2.978,23.234-7.383,33.752-13.139c13.88-7.596,13.487-18.282-0.065-26.682c-5.326-3.301-11.19-5.938-17.106-8.045
			c-23.553-8.387-48.129-11.742-72.882-13.928c-11.752-1.038-23.548-1.576-35.68-2.364c-0.129-1.688-0.319-3.316-0.367-4.948
			c-0.37-12.493-0.533-24.996-1.163-37.477c-0.209-4.148,0.879-6.574,4.952-7.677c5.632-1.525,8.843-4.906,7.968-11.167
			c-0.088-0.628,0.162-1.304,0.305-2.298c5.122,1.418,9.521,4.392,15.459,0.531c5.532-3.596,6.767-7.865,6.432-13.494
			c5.339-0.47,9.869,2.156,15.001-1.125c5.407-3.456,4.867-7.987,4.972-13.084c4.888,0.425,9.243,3.199,13.874-1.06
			c3.935-3.618,7.17-6.693,4.708-13.479c5.295,3.122,8.521,2.581,12.617-0.62c15.748-12.31,14.342-30.641,18.655-46.934
			c-1.221-0.539-1.516-0.676-1.815-0.801c-2.327-0.97-6.623,0.905-6.493-3.296c0.049-1.565,3.475-3.033,5.37-4.533
			c1.347-1.064,3.751-1.986,3.892-3.184c0.768-6.521,0.98-13.109,1.382-19.641c-3.542-0.571-6.291-1.015-8.852-1.427
			c-1.924-5.715-0.039-8.721,5.601-9.736c1.354-0.244,3.513-1.68,3.554-2.643c0.305-7.064,0.164-14.147,0.164-21.155
			c-1.422-0.238-2.139-0.21-2.713-0.481c-2.029-0.957-4.011-2.018-6.011-3.038c1.461-1.696,2.905-3.405,4.386-5.084
			c1.431-1.622,3.851-3.053,4.153-4.852c0.645-3.824,0.197-7.833,0.197-12.985c-6.852,1.802-12.533,2.73-17.782,4.771
			c-27.265,10.606-54.372,21.62-81.657,32.174c-4.997,1.933-8.163,4.284-7.411,9.944c0.447,3.365-1.143,4.463-4.208,5.282
			c-17.271,4.617-34.883,5.033-52.575,4.748c-1.922-0.031-3.845-0.004-5.758-0.004c0,6.195,0,11.754,0,17.544
			c24.411,2.425,48.229,2.21,71.147-6.803c29.563-11.626,59.031-23.488,88.543-35.244c2.097-0.835,4.209-1.634,6.736-2.612
			c0.494,2.725,0.894,4.93,1.177,6.49c-2.832,0.38-5.274,0.331-7.442,1.078c-4.397,1.514-8.684,3.374-12.951,5.238
			c-25.744,11.247-50.421,24.959-77.346,33.494c-1.547,0.491-3.247,1.306-4.256,2.495c-1.353,1.595-3.072,3.786-2.92,5.575
			c0.412,4.837-1.564,6.752-6.039,7.813c-16.282,3.864-32.75,3.213-49.239,2.546c-2.435-0.099-4.867-0.253-7.544-0.395
			c0,5.252,0,10.009,0,14.868c1.153,0.279,2.106,0.69,3.069,0.715c16.48,0.403,32.961,0.887,49.445,1.047
			c4.783,0.046,9.944,0.12,14.298-1.511c16.658-6.242,33.336-12.569,49.477-20.014c16.598-7.655,32.576-16.651,49.318-25.315
			c0.937,3.455,1.771,6.533,2.412,8.898c-4.406,0.83-8.19,1.022-11.566,2.296c-5.743,2.167-11.379,4.734-16.797,7.628
			c-18.197,9.718-36.205,19.802-55.64,26.965c-5.462,2.014-10.969,3.94-16.306,6.253c-3.4,1.474-7.531,2.837-7.165,7.755
			c0.349,4.678-2.138,6.113-6.177,6.276c-10.304,0.417-20.606,1.176-30.909,1.182c-7.749,0.005-15.499-0.945-23.443-1.483
			c0,5.613,0,10.874,0,17.525c18.119,0.725,36.052,1.487,53.989,2.143c9.623,0.353,18.357-2.872,26.578-7.441
			c25.897-14.396,51.709-28.945,77.557-43.429c1.562-0.875,3.155-1.691,5.614-3.006c-0.599,4.05-1.063,7.191-1.356,9.182
			c-3.774,0.949-6.714,1.187-9.15,2.419c-3.693,1.867-6.986,4.508-10.536,6.68c-25.353,15.518-49.595,32.988-77.759,43.546
			c-4.361,1.634-7.682,4.955-7.471,10.643c0.301,8.074,0.076,16.168,0.076,25.026c-2.256,0.506-5.616,1.271-8.979,2.013
			c-3.671,0.811-5.383-0.505-5.901-4.418c-1.093-8.247-2.559-16.449-4.102-24.626c-0.248-1.313-1.584-3.315-2.594-3.428
			c-3.701-0.414-7.476-0.164-11.51-0.164c1.499,11.089,2.955,21.857,4.434,32.791c-2.016,0-3.195-0.146-4.326,0.024
			c-5.036,0.757-6.871-1.502-7.594-6.424c-1.496-10.178-3.688-20.254-5.668-30.759c-3.862-0.303-7.525-0.589-11.447-0.896
			c1.267,12.368,2.448,23.904,3.638,35.529c-11.891-1.196-10.616-0.092-12.161-9.85c-1.197-7.563-2.576-15.099-3.679-22.674
			c-0.455-3.126-1.312-5.314-5.022-5.434c-2.224-0.071-4.427-0.771-7.271-1.309c0.926,11.867,1.8,23.058,2.691,34.478
			c-2.326-0.619-4.373-1.424-6.486-1.676c-4.857-0.578-6.495-3.353-6.762-7.988c-0.44-7.645-1.52-15.25-2.037-22.892
			c-0.187-2.77-1.207-3.912-3.876-3.877c-3.298,0.043-6.597,0.01-10.163,0.01C137.606,453.447,139.158,462.421,140.816,472.002z
			 M163.121,104.222c8.451-0.443,10.138,0.547,13.126,7.618c1.035,2.447,1.874,4.976,2.807,7.466
			c3.498,9.339,6.92,18.708,10.578,27.983c0.574,1.454,2.177,3.491,3.382,3.546c7.271,0.332,14.564,0.165,22.825,0.165
			c-0.888-2.3-1.244-4.007-2.129-5.368c-2.835-4.356-6.582-8.264-8.681-12.928c-5.159-11.467-6.551-24.864-18.277-32.786
			c16.188-9.807,18.598-20.097,17.32-36.27c-0.986-12.484-8.921-21.742-21.385-22.546c-15.051-0.971-30.212-0.229-45.927-0.229
			c0.386,1.288,0.408,3.815,1.406,4.291c5.312,2.528,5.47,7.202,5.483,11.893c0.074,25.652,0.06,51.306,0.037,76.959
			c-0.001,1.654,0.042,3.471-0.593,4.924c-0.939,2.147-2.486,4.026-3.744,6.04c-1.038,1.661-2.03,3.351-3.441,5.688
			c12.053,0,22.603,0,34.965,0c-1.962-2.715-3.198-4.291-4.285-5.964c-1.226-1.886-3.259-3.833-3.314-5.798
			C162.959,127.46,163.121,116.002,163.121,104.222z M247.164,141c0-14.305,0-28.008,0-41.682
			c14.747-0.861,13.051-0.591,17.109,11.349c2.08,0,4.149,0,6.325,0c0-11.285,0-22.217,0-33.391
			c-1.176-0.104-2.132-0.261-3.089-0.256c-1.131,0.006-2.261,0.15-3.299,0.229c-4.242,12.314-6.443,13.703-17.154,11.022
			c0-12.6,0-25.19,0-37.735c18.303-2.601,19.424-1.97,27.408,15.223c2.438,0,4.874,0,7.467,0c0-8.637,0-17.01,0-25.539
			c-20.45,0-40.551,0-61.163,0c0.368,1.826,0.217,4.324,1.053,4.717c6.692,3.14,5.848,9.177,5.874,14.706
			c0.112,24.156,0.066,48.314,0.018,72.472c-0.005,2.484-0.052,5.075-0.748,7.418c-0.567,1.909-2.128,3.526-3.264,5.262
			c-1.125,1.72-2.271,3.426-3.889,5.861c21.749,0,41.809,0,62.521,0c0-10.064,0-19.771,0-29.259
			c-5.878-1.904-8.902,0.292-9.416,6.271c-0.11,1.292-0.698,2.562-1.17,3.802c-2.936,7.732-5.506,9.506-13.741,9.529
			C254.525,141.008,251.045,141,247.164,141z M85.14,104.995c3.703,0,7.156,0.076,10.605-0.013
			c15.256-0.394,25.392-7.793,28.71-22.129c1.437-6.204,1.865-12.948,1.177-19.276c-1.506-13.866-8.941-21.652-22.912-22.645
			c-14.377-1.022-28.883-0.228-43.982-0.228c0.415,1.438,0.418,3.976,1.403,4.443c5.553,2.634,5.507,7.556,5.523,12.375
			c0.081,25.315,0.064,50.632,0.022,75.947c-0.003,2.149-0.102,4.407-0.766,6.413c-0.584,1.763-2.002,3.257-3.093,4.842
			c-1.176,1.71-2.4,3.388-4.321,6.089c12.634,0,23.409,0,34.16,0c0.529-4.037,0.297-3.749-2.412-5.928
			c-1.779-1.432-3.866-3.806-3.934-5.82C84.944,127.806,85.14,116.526,85.14,104.995z M347.838,65.82
			c0-7.137,0.153-13.78-0.137-20.404c-0.055-1.255-1.724-3.304-2.9-3.505c-7.019-1.199-14.132-2.852-21.176-2.692
			c-15.496,0.352-25.604,8.613-28.212,22.606c-2.659,14.267,0.784,26.836,12.422,36.315c4.769,3.885,9.998,7.204,14.757,11.1
			c6.948,5.69,9.237,13.177,7.488,21.931c-1.239,6.207-4.867,9.966-10.29,10.717c-6.609,0.916-11.736-1.416-14.531-7.217
			c-1.706-3.539-2.702-7.42-4.091-11.354c-2.361,0-4.924,0-7.918,0c0,7.606-0.146,14.911,0.143,22.198
			c0.049,1.229,1.847,3.248,3.063,3.436c8.033,1.233,16.132,2.872,24.204,2.851c13.943-0.036,23.661-8.164,26.675-21.796
			c3.59-16.236,0.116-30.427-13.733-40.962c-4.636-3.526-9.45-6.83-13.95-10.52c-5.733-4.698-7.922-10.948-6.91-18.271
			c0.859-6.213,4.487-10.266,9.801-11.115c6.533-1.044,11.423,1.496,14.126,7.664c1.247,2.847,2.018,5.901,3.057,9.02
			C342.245,65.82,344.704,65.82,347.838,65.82z M413.837,65.816c0-7.245,0.156-13.896-0.142-20.527
			c-0.056-1.227-1.808-3.212-3.017-3.415c-7.021-1.18-14.14-2.829-21.18-2.644c-15.502,0.408-25.572,8.711-28.121,22.718
			c-2.598,14.274,0.888,26.83,12.554,36.276c4.78,3.87,10.003,7.198,14.754,11.103c6.774,5.566,9.071,12.902,7.462,21.479
			c-1.224,6.525-4.881,10.371-10.485,11.093c-6.85,0.882-11.827-1.581-14.68-7.789c-1.57-3.416-2.498-7.128-3.728-10.741
			c-2.553,0-5.104,0-8.004,0c0,7.669-0.148,14.98,0.148,22.273c0.049,1.198,1.931,3.147,3.18,3.337
			c8.036,1.218,16.137,2.863,24.207,2.815c13.931-0.084,23.602-8.248,26.583-21.911c3.546-16.25,0.002-30.422-13.866-40.922
			c-4.644-3.516-9.461-6.819-13.943-10.528c-5.877-4.863-7.954-11.306-6.712-18.799c0.975-5.882,4.622-9.739,9.82-10.512
			c6.261-0.93,10.898,1.276,13.578,6.916c1.471,3.094,2.376,6.456,3.565,9.778C408.344,65.816,410.792,65.816,413.837,65.816z"/>
		<path fill-rule="evenodd" clip-rule="evenodd" d="M140.816,472.002c-1.658-9.581-3.21-18.555-4.775-27.599
			c3.566,0,6.865,0.033,10.163-0.01c2.669-0.035,3.689,1.107,3.876,3.877c0.518,7.642,1.597,15.247,2.037,22.892
			c0.267,4.636,1.905,7.41,6.762,7.988c2.113,0.252,4.161,1.057,6.486,1.676c-0.892-11.42-1.765-22.61-2.691-34.478
			c2.844,0.537,5.048,1.237,7.271,1.309c3.71,0.119,4.567,2.308,5.022,5.434c1.103,7.575,2.482,15.11,3.679,22.674
			c1.544,9.758,0.27,8.653,12.161,9.85c-1.19-11.625-2.372-23.161-3.638-35.529c3.921,0.307,7.585,0.593,11.447,0.896
			c1.979,10.505,4.172,20.581,5.668,30.759c0.723,4.922,2.558,7.181,7.594,6.424c1.131-0.17,2.31-0.024,4.326-0.024
			c-1.479-10.934-2.935-21.702-4.434-32.791c4.034,0,7.81-0.25,11.51,0.164c1.009,0.112,2.346,2.115,2.594,3.428
			c1.543,8.177,3.009,16.379,4.102,24.626c0.518,3.913,2.23,5.229,5.901,4.418c3.364-0.742,6.724-1.507,8.979-2.013
			c0-8.858,0.225-16.952-0.076-25.026c-0.211-5.688,3.109-9.009,7.471-10.643c28.164-10.558,52.406-28.028,77.759-43.546
			c3.55-2.172,6.843-4.813,10.536-6.68c2.437-1.232,5.376-1.47,9.15-2.419c0.294-1.99,0.758-5.132,1.356-9.182
			c-2.459,1.314-4.053,2.131-5.614,3.006c-25.848,14.483-51.659,29.033-77.557,43.429c-8.221,4.569-16.955,7.794-26.578,7.441
			c-17.937-0.655-35.87-1.418-53.989-2.143c0-6.651,0-11.912,0-17.525c7.944,0.538,15.694,1.488,23.443,1.483
			c10.303-0.006,20.605-0.765,30.909-1.182c4.039-0.163,6.525-1.599,6.177-6.276c-0.366-4.918,3.765-6.281,7.165-7.755
			c5.337-2.313,10.844-4.239,16.306-6.253c19.435-7.163,37.442-17.247,55.64-26.965c5.418-2.894,11.054-5.461,16.797-7.628
			c3.376-1.273,7.16-1.466,11.566-2.296c-0.642-2.365-1.476-5.443-2.412-8.898c-16.742,8.664-32.721,17.66-49.318,25.315
			c-16.141,7.444-32.818,13.771-49.477,20.014c-4.354,1.631-9.516,1.557-14.298,1.511c-16.484-0.16-32.964-0.644-49.445-1.047
			c-0.963-0.024-1.916-0.436-3.069-0.715c0-4.859,0-9.616,0-14.868c2.677,0.142,5.109,0.296,7.544,0.395
			c16.489,0.667,32.957,1.318,49.239-2.546c4.475-1.062,6.451-2.977,6.039-7.813c-0.152-1.789,1.567-3.98,2.92-5.575
			c1.009-1.189,2.709-2.004,4.256-2.495c26.925-8.535,51.602-22.247,77.346-33.494c4.268-1.864,8.554-3.725,12.951-5.238
			c2.168-0.747,4.61-0.698,7.442-1.078c-0.283-1.561-0.683-3.766-1.177-6.49c-2.527,0.979-4.64,1.777-6.736,2.612
			c-29.512,11.756-58.98,23.618-88.543,35.244c-22.917,9.013-46.736,9.228-71.147,6.803c0-5.79,0-11.349,0-17.544
			c1.913,0,3.836-0.027,5.758,0.004c17.692,0.285,35.305-0.131,52.575-4.748c3.065-0.819,4.655-1.917,4.208-5.282
			c-0.752-5.66,2.414-8.012,7.411-9.944c27.285-10.554,54.393-21.567,81.657-32.174c5.249-2.041,10.931-2.97,17.782-4.771
			c0,5.152,0.447,9.161-0.197,12.985c-0.303,1.799-2.723,3.229-4.153,4.852c-1.48,1.679-2.925,3.388-4.386,5.084
			c2,1.021,3.981,2.081,6.011,3.038c0.574,0.271,1.291,0.243,2.713,0.481c0,7.008,0.141,14.091-0.164,21.155
			c-0.041,0.963-2.2,2.398-3.554,2.643c-5.64,1.016-7.524,4.021-5.601,9.736c2.561,0.412,5.31,0.855,8.852,1.427
			c-0.401,6.531-0.614,13.119-1.382,19.641c-0.141,1.197-2.545,2.119-3.892,3.184c-1.896,1.5-5.321,2.968-5.37,4.533
			c-0.13,4.201,4.166,2.326,6.493,3.296c0.3,0.125,0.595,0.262,1.815,0.801c-4.313,16.293-2.907,34.624-18.655,46.934
			c-4.096,3.201-7.322,3.742-12.617,0.62c2.462,6.785-0.773,9.86-4.708,13.479c-4.631,4.259-8.986,1.484-13.874,1.06
			c-0.104,5.097,0.436,9.628-4.972,13.084c-5.132,3.281-9.662,0.655-15.001,1.125c0.335,5.629-0.899,9.898-6.432,13.494
			c-5.938,3.86-10.337,0.887-15.459-0.531c-0.143,0.994-0.393,1.67-0.305,2.298c0.875,6.261-2.336,9.642-7.968,11.167
			c-4.073,1.103-5.161,3.528-4.952,7.677c0.63,12.48,0.793,24.983,1.163,37.477c0.048,1.632,0.238,3.26,0.367,4.948
			c12.132,0.788,23.928,1.326,35.68,2.364c24.753,2.186,49.329,5.541,72.882,13.928c5.916,2.106,11.78,4.744,17.106,8.045
			c13.553,8.399,13.945,19.086,0.065,26.682c-10.518,5.756-22.115,10.161-33.752,13.139c-38.697,9.901-78.297,11.868-118.049,11.089
			c-34.215-0.671-68.242-3.483-101.274-13.101c-8.861-2.579-17.664-6.184-25.64-10.794c-14.213-8.215-13.98-18.64,0.063-27.326
			c14.12-8.733,29.993-12.957,46.103-15.493c20.037-3.154,40.286-4.966,60.445-7.35c1.786-0.211,3.578-0.365,5.84-0.593
			c0-15.152,0-29.927,0-45.058c-5.422,0.795-6.371-3.034-7.043-7.168c-0.187-1.146-0.273-2.449-0.89-3.349
			c-0.797-1.162-1.967-2.522-3.191-2.779c-0.815-0.171-2.43,1.221-2.959,2.276c-4.271,8.522-4.199,8.379-13.683,7.322
			c-4.133-0.46-6.349-1.976-6.535-6.335c-0.089-2.085-0.94-4.137-1.453-6.229c-3.18,3.014-5.822,7.509-9.266,8.243
			c-3.744,0.798-8.228-1.92-12.399-3.068c-6.075-1.674-2.092-7.231-4.23-10.674c-0.516,0.178-1.109,0.39-1.708,0.588
			c-3.439,1.142-7.466,4.004-10.202,3.074c-6.476-2.201-12.39-6.495-14.245-13.677c-2.657-10.285-4.61-20.754-6.792-31.16
			c-0.477-2.273-0.456-4.658-1.013-6.905c-0.878-3.545-1.095-6.269,3.349-7.846c1.219-0.434,1.362-3.898,2.111-6.339
			c-3.106-0.275-5.053-0.447-7.475-0.662c-0.845-7.64-1.985-15.194-2.27-22.78c-0.06-1.589,3.037-3.295,5.572-4.288
			c0-2.115,0-4.231,0-6.992c-8.097,1.1-7.451-4.389-7.482-9.819c-0.031-5.308-0.677-10.61-1.055-15.944
			c1.905-2.704,9.629,0.295,6.587-7.297c-1.977-0.257-4.235-0.551-7.172-0.932c0-9.613,0-19.19,0-29.061
			c2.796-2.091,10.847,0.805,8.051-8.014c-2.679-0.511-5.565-1.062-7.962-1.518c0-10.395-0.073-20.502,0.133-30.604
			c0.017-0.85,1.783-2.065,2.948-2.423c6.051-1.858,6.075-1.781,5.719-8.779c-2.372-0.354-4.799-0.715-7.974-1.187
			c0.524-4.129,0.715-8.244,1.616-12.197c1.954-8.573,4.143-17.099,6.486-25.575c1.475-5.334,4.786-8.174,10.75-6.584
			c1.232,0.329,2.628,0.048,4.581,0.048c0.257-2.844,0.879-5.772,0.696-8.651c-0.266-4.183,1.554-6.721,4.844-9.015
			c15.083-10.515,31.718-17.48,49.493-22.338c1.712,5.248,5.408,4.254,8.925,2.729c3.041-1.317,5.91-3.067,8.762-4.78
			c12.621-7.578,26.841-6.126,40.991-8.105c0.213,3.883,0.384,6.975,0.613,11.146c3.032-0.684,5.707-1.048,8.202-1.922
			c2.176-0.762,4.317-1.867,6.187-3.219c14.869-10.754,31.284-5.929,47.307-4.657c0.901,0.071,2.162,2.189,2.353,3.487
			c0.753,5.152,3.028,6.542,7.592,4.587c3.777-1.617,6.92-5.21,11.963-2.868c5.938,2.757,10.642,6.484,12.187,12.978
			c3.11,13.081,5.996,26.221,8.675,39.396c0.275,1.353-1.087,3.654-2.366,4.601c-6.397,4.735-6.477,4.628-5.162,13.01
			c3.029-0.279,6.096-0.563,10.083-0.932c0.768,8.716,1.673,17.237,2.104,25.783c0.065,1.281-1.828,3.172-3.264,3.922
			c-4.276,2.233-5.185,5.847-3.339,9.536c0.792,1.584,4.188,1.868,6.402,2.735c0.451,0.176,0.915,0.318,1.589,0.551
			c0,2.11,0,4.215,0,6.321c-0.392,0.071-0.918,0.251-0.967,0.164c-3.313-5.941-6.988-3.001-11.549-1.244
			c-30.565,11.772-61.182,23.438-92.058,34.356c-8.115,2.869-17.163,3.425-25.857,4.255c-12.542,1.198-25.152,1.677-38.037,2.48
			c0-6.212,0-11.801,0-17.633c15.273-1.743,30.445-3.477,45.619-5.202c1.158-0.132,2.344-0.101,3.479-0.331
			c3.582-0.729,8.184-0.491,10.389-2.662c1.781-1.751,0.115-6.603,1.008-9.79c0.672-2.402,2.516-5.312,4.635-6.321
			c6.727-3.204,13.757-5.825,20.797-8.311c19.914-7.03,39.886-13.898,59.851-20.786c3.295-1.138,6.616-2.313,10.021-2.989
			c2.768-0.55,5.679-0.38,8.831-0.545c0-0.425,0.119-1.418-0.019-2.374c-0.946-6.56-0.518-9.952-9.848-5.844
			c-29.734,13.093-60.21,24.074-92,31.206c-20.6,4.622-41.518,4.781-62.736,5.782c0-7.152,0-13.746,0-20.919
			c7.978-0.362,16.088-0.383,24.12-1.186c9.742-0.974,19.416-2.615,29.121-3.955c3.394-0.469,5.729-1.74,4.647-5.801
			c-0.125-0.468-0.127-1.02-0.014-1.491c2.154-8.911-0.268-16.108-9.24-21.912c3.152-2.258,5.478-4.646,8.308-5.832
			c16.256-6.816,32.552-13.551,48.99-19.913c13.328-5.159,26.876-9.754,40.315-14.596c-1.782-6.853-9.821-12.401-15.733-10.277
			c-26.443,9.501-53.081,18.556-79.089,29.146c-21.396,8.712-24.69,14.68-28.526,40.069c-4.181-0.189-8.419-0.382-13.042-0.591
			c-0.94-10.896-0.64-21.414,5.198-30.607c2.541-4.001,6.603-7.956,10.89-9.771c19.436-8.231,39.149-15.821,58.866-23.375
			c8.97-3.437,18.178-6.254,27.212-9.974c-12.368-0.101-24.63-5.103-37.006,0.754c-18.788,8.89-37.756,17.401-56.669,26.028
			c-17.009,7.758-23.882,21.306-22.739,39.496c0.061,0.973,0.008,1.952,0.008,3.335c-1.229-0.067-2.16-0.053-3.072-0.179
			c-10.78-1.49-10.713-1.502-11.772-12.63c-1.292-13.582,2.84-24.332,15.736-30.526c16.939-8.137,33.919-16.189,50.883-24.277
			c1.614-0.77,3.232-1.532,4.621-3.111c-9.523,1.326-19.332,1.629-28.509,4.191c-18.772,5.242-35.95,14.169-50.153,27.723
			c-7.041,6.719-5.356,16.013-4.248,24.627c0.462,3.592,1.675,7.087,2.696,11.234c-1.909,0.146-3.68,0.064-5.341,0.453
			c-3.895,0.912-5.728-0.505-6.504-4.433c-2.642-13.363-3.005-26.438,3.853-38.873c-13.562,4.206-17.693,10.383-15.516,23.893
			c1.001,6.215,2.645,12.325,4.123,19.058c-3.287,0.886-6.882,2.396-10.548,2.594c-1.616,0.087-4.288-2.179-4.892-3.926
			c-1.55-4.479-2.211-9.268-3.284-14.19c-5.29,9.762-6.389,20.704-8.327,32.492c12.804,1.717,25.245,3.386,38.027,5.101
			c0,6.177,0,12.405,0,19.272c-13.153-2.442-26.125-4.852-40.287-7.481c0,8.3-0.18,15.939,0.175,23.553
			c0.06,1.284,2.228,3.135,3.755,3.581c11.955,3.495,23.992,6.712,36.438,10.133c0,4.564,0,9.844,0,16.196
			c-13.287-3.724-26.277-7.364-39.76-11.144c0,6.83-0.175,13.544,0.195,20.228c0.054,0.964,2.625,2.227,4.208,2.599
			c11.635,2.736,23.315,5.281,35.333,7.966c0,4.748,0,9.835,0,15.605c-12.91-3.179-25.472-6.271-38.773-9.547
			c0.386,6.062,0.535,11.936,1.312,17.726c0.164,1.221,2.486,2.639,4.067,3.102c9.883,2.896,19.79,5.75,29.799,8.158
			c3.11,0.748,4.151,1.868,3.938,4.921c-0.229,3.289-0.052,6.605-0.052,10.855c-12.352-3.221-24.036-6.269-36.319-9.472
			c0.611,5.342,0.986,10.612,1.968,15.767c0.237,1.244,2.332,2.599,3.832,3.062c8.899,2.747,17.832,5.414,26.85,7.731
			c2.829,0.727,3.867,1.79,3.722,4.664c-0.209,4.139-0.053,8.296-0.053,13.723c-10.965-3.388-21.309-6.585-33.068-10.219
			c3.136,12.994,5.651,25.613,9.374,37.865C129.136,466.441,134.848,469.358,140.816,472.002z M344.832,583.073
			c-0.071-0.659-0.144-1.318-0.215-1.978c-3.585-0.349-7.163-0.892-10.756-1.012c-13.323-0.449-26.661-0.54-39.975-1.168
			c-24.807-1.169-49.581-3.05-73.759-9.071c-8.147-2.029-15.982-5.476-23.755-8.759c-3.14-1.326-5.158-3.887-1.347-7.272
			c3.18-2.824,1.984-4.936-1.71-5.927c-1.912-0.514-3.929-0.997-5.881-0.938c-8.314,0.249-16.683,0.204-24.919,1.199
			c-14.39,1.739-28.725,4.247-41.803,10.916c-2.958,1.509-6.476,4.68-6.881,7.497c-0.285,1.979,3.889,5.347,6.725,6.902
			c13.901,7.621,29.141,11.227,44.663,13.577c53.771,8.146,107.548,7.923,161.284-0.382
			C332.65,585.709,338.725,584.28,344.832,583.073z M235.839,552.204c-0.646-12.906-1.219-25.004-1.923-37.094
			c-0.056-0.961-0.803-2.288-1.617-2.73c-4.625-2.512-9.368-4.807-14.801-7.543c0.528,15.816,1.031,30.866,1.548,46.334
			C224.636,551.515,229.881,551.838,235.839,552.204z M260.842,242.958c13.232-0.343,15.943-4.515,10.264-16.747
			c-0.765-1.646-1.598-3.321-2.732-4.712c-0.543-0.665-2.025-1.186-2.807-0.929c-3.519,1.158-6.938,2.617-9.472,3.607
			C257.749,230.725,259.226,236.563,260.842,242.958z M290.294,212.873c-3.938,1.224-7.614,2.365-10.231,3.179
			c1.492,7.317,2.848,13.955,4.436,21.743c3.598-1.931,9.291-3.062,10.656-6.122C298.012,225.264,294.893,218.841,290.294,212.873z
			 M300.1,210.686c1.582,3.354,3.277,6.08,4.156,9.048c0.913,3.084,1.037,6.402,1.505,9.613
			c12.287-2.606,13.539-4.519,10.251-15.858c-2.137-7.369-3.304-7.973-10.223-5.214C303.959,209.004,302.159,209.81,300.1,210.686z
			 M325.195,222.745c6.978-1.17,8.311-2.441,7.493-9.261c-0.535-4.463-2.132-8.799-3.273-13.273
			c-3.943,1.002-6.894,1.751-9.411,2.391C321.771,209.455,323.443,215.946,325.195,222.745z M347.798,310.229
			c-31.454,11.022-62.908,22.046-94.362,33.069C285.823,334.944,316.974,323.052,347.798,310.229z M339.097,346.051
			c-28.229,11.944-56.457,23.888-84.121,35.594C262.703,381.468,315.05,359.868,339.097,346.051z M341.189,230.356
			c-0.142-0.476-0.283-0.951-0.425-1.427c-30.555,9.184-61.108,18.367-91.663,27.551c0.146,0.49,0.293,0.98,0.439,1.471
			C280.091,248.753,310.641,239.555,341.189,230.356z M346.253,377.412c-0.215-0.344-0.43-0.688-0.645-1.032
			c-30.586,15.151-61.171,30.302-91.757,45.452c0.206,0.424,0.412,0.847,0.619,1.271
			C285.064,407.873,315.659,392.643,346.253,377.412z M324.234,278.832c-12.103,4.455-24.137,9.108-36.326,13.309
			c-12.315,4.243-24.785,8.037-37.188,12.028C276.63,300.066,300.396,289.371,324.234,278.832z M261.652,473.086
			c3.572,0.689,6.346,1.226,9.721,1.877c-1-6.628-1.869-12.382-2.788-18.462C259.939,459.809,263.633,467.059,261.652,473.086z
			 M293.738,460.069c-1.001-5.798-1.882-10.899-2.781-16.108c-7.076,2.575-8.24,6.012-5.75,15.052
			C287.844,459.34,290.393,459.655,293.738,460.069z M312.158,447.809c0.332-0.448,0.664-0.896,0.996-1.346
			c-1.125-3.355-2.249-6.711-3.363-10.037c-4.07,0.943-7.355,3.103-5.415,7.023C305.465,445.647,309.469,446.403,312.158,447.809z
			 M328.306,423.803c-2.256,2.639-3.7,4.327-5.146,6.017c1.929,1.542,3.857,3.085,5.786,4.627c0.385-0.362,0.77-0.726,1.154-1.089
			C329.604,430.711,329.105,428.064,328.306,423.803z"/>
		<path fill-rule="evenodd" clip-rule="evenodd" d="M163.121,104.222c0,11.78-0.162,23.238,0.155,34.684
			c0.055,1.965,2.088,3.912,3.314,5.798c1.087,1.673,2.322,3.249,4.285,5.964c-12.362,0-22.912,0-34.965,0
			c1.411-2.337,2.403-4.026,3.441-5.688c1.257-2.014,2.804-3.893,3.744-6.04c0.636-1.453,0.592-3.27,0.593-4.924
			c0.023-25.653,0.038-51.307-0.037-76.959c-0.014-4.69-0.172-9.364-5.483-11.893c-0.999-0.476-1.021-3.003-1.406-4.291
			c15.715,0,30.876-0.741,45.927,0.229c12.463,0.804,20.398,10.062,21.385,22.546c1.277,16.173-1.132,26.463-17.32,36.27
			c11.726,7.922,13.118,21.319,18.277,32.786c2.099,4.664,5.846,8.571,8.681,12.928c0.886,1.361,1.241,3.068,2.129,5.368
			c-8.261,0-15.555,0.167-22.825-0.165c-1.205-0.055-2.808-2.092-3.382-3.546c-3.658-9.275-7.08-18.645-10.578-27.983
			c-0.933-2.49-1.772-5.019-2.807-7.466C173.259,104.769,171.572,103.778,163.121,104.222z M163.06,93.634
			c13.168,1.266,19.721-2.227,21.502-12.048c0.936-5.16,1.126-10.645,0.538-15.857c-1.488-13.177-8.728-17.974-22.04-15.123
			C163.06,64.817,163.06,79.076,163.06,93.634z"/>
		<path fill-rule="evenodd" clip-rule="evenodd" d="M247.164,141c3.881,0,7.361,0.008,10.841-0.002
			c8.235-0.023,10.806-1.797,13.741-9.529c0.472-1.24,1.06-2.51,1.17-3.802c0.514-5.979,3.538-8.175,9.416-6.271
			c0,9.488,0,19.194,0,29.259c-20.712,0-40.771,0-62.521,0c1.618-2.436,2.764-4.142,3.889-5.861
			c1.136-1.735,2.697-3.353,3.264-5.262c0.696-2.343,0.743-4.934,0.748-7.418c0.049-24.157,0.095-48.315-0.018-72.472
			c-0.025-5.529,0.819-11.566-5.874-14.706c-0.836-0.393-0.686-2.891-1.053-4.717c20.612,0,40.713,0,61.163,0
			c0,8.529,0,16.902,0,25.539c-2.593,0-5.029,0-7.471,0c-7.98-17.192-9.102-17.823-27.404-15.223c0,12.545,0,25.136,0,37.735
			c10.711,2.681,12.912,1.292,17.154-11.022c1.038-0.078,2.168-0.223,3.299-0.229c0.957-0.005,1.913,0.151,3.089,0.256
			c0,11.174,0,22.105,0,33.391c-2.176,0-4.245,0-6.325,0c-4.059-11.939-2.362-12.21-17.109-11.349
			C247.164,112.992,247.164,126.695,247.164,141z"/>
		<path fill-rule="evenodd" clip-rule="evenodd" d="M85.14,104.995c0,11.531-0.196,22.811,0.182,34.071
			c0.067,2.015,2.154,4.389,3.934,5.82c2.709,2.179,2.941,1.891,2.412,5.928c-10.751,0-21.526,0-34.16,0
			c1.921-2.701,3.145-4.379,4.321-6.089c1.09-1.585,2.508-3.079,3.093-4.842c0.665-2.006,0.763-4.264,0.766-6.413
			c0.042-25.315,0.059-50.632-0.022-75.947c-0.016-4.819,0.03-9.741-5.523-12.375c-0.985-0.468-0.989-3.006-1.403-4.443
			c15.099,0,29.605-0.795,43.982,0.228c13.971,0.992,21.406,8.778,22.912,22.645c0.688,6.328,0.259,13.072-1.177,19.276
			c-3.318,14.336-13.454,21.735-28.71,22.129C92.295,105.071,88.842,104.995,85.14,104.995z M85.092,94.507
			c14.594,1.969,21.097-3.214,21.893-17.302c0.196-3.474,0.185-6.978-0.022-10.45c-0.824-13.772-7.687-18.89-21.871-16.208
			C85.092,65.066,85.092,79.635,85.092,94.507z"/>
		<path fill-rule="evenodd" clip-rule="evenodd" d="M347.838,65.82c-3.134,0-5.593,0-8.114,0c-1.039-3.118-1.81-6.173-3.057-9.02
			c-2.703-6.168-7.593-8.708-14.126-7.664c-5.313,0.85-8.941,4.902-9.801,11.115c-1.012,7.323,1.177,13.573,6.91,18.271
			c4.5,3.689,9.314,6.993,13.95,10.52c13.85,10.535,17.323,24.726,13.733,40.962c-3.014,13.632-12.731,21.76-26.675,21.796
			c-8.072,0.021-16.171-1.617-24.204-2.851c-1.216-0.188-3.014-2.206-3.063-3.436c-0.289-7.287-0.143-14.592-0.143-22.198
			c2.994,0,5.557,0,7.918,0c1.389,3.935,2.385,7.815,4.091,11.354c2.795,5.801,7.922,8.133,14.531,7.217
			c5.423-0.751,9.051-4.51,10.29-10.717c1.749-8.754-0.54-16.24-7.488-21.931c-4.759-3.896-9.988-7.215-14.757-11.1
			c-11.638-9.479-15.081-22.049-12.422-36.315c2.607-13.993,12.716-22.255,28.212-22.606c7.044-0.159,14.157,1.493,21.176,2.692
			c1.177,0.201,2.846,2.25,2.9,3.505C347.991,52.04,347.838,58.684,347.838,65.82z"/>
		<path fill-rule="evenodd" clip-rule="evenodd" d="M413.837,65.816c-3.045,0-5.493,0-8.025,0c-1.189-3.322-2.095-6.685-3.565-9.778
			c-2.68-5.64-7.317-7.846-13.578-6.916c-5.198,0.772-8.846,4.63-9.82,10.512c-1.242,7.493,0.835,13.936,6.712,18.799
			c4.482,3.709,9.3,7.013,13.943,10.528c13.868,10.5,17.412,24.672,13.866,40.922c-2.981,13.663-12.652,21.827-26.583,21.911
			c-8.07,0.048-16.171-1.598-24.207-2.815c-1.249-0.189-3.131-2.139-3.18-3.337c-0.297-7.293-0.148-14.604-0.148-22.273
			c2.899,0,5.451,0,8.004,0c1.229,3.613,2.157,7.325,3.728,10.741c2.853,6.208,7.83,8.671,14.68,7.789
			c5.604-0.722,9.262-4.567,10.485-11.093c1.609-8.576-0.688-15.912-7.462-21.479c-4.751-3.904-9.974-7.232-14.754-11.103
			c-11.666-9.446-15.151-22.002-12.554-36.276c2.549-14.007,12.619-22.31,28.121-22.718c7.04-0.186,14.158,1.464,21.18,2.644
			c1.209,0.203,2.961,2.188,3.017,3.415C413.993,51.92,413.837,58.571,413.837,65.816z"/>
		<path fill-rule="evenodd" clip-rule="evenodd" fill="#FFFFFF" d="M344.832,583.073c-6.107,1.207-12.182,2.636-18.329,3.586
			c-53.735,8.305-107.513,8.527-161.284,0.382c-15.521-2.351-30.762-5.956-44.663-13.577c-2.836-1.556-7.01-4.923-6.725-6.902
			c0.405-2.817,3.922-5.988,6.881-7.497c13.078-6.669,27.413-9.177,41.803-10.916c8.236-0.995,16.605-0.95,24.919-1.199
			c1.953-0.06,3.969,0.424,5.881,0.938c3.694,0.991,4.89,3.103,1.71,5.927c-3.812,3.386-1.793,5.946,1.347,7.272
			c7.773,3.283,15.608,6.729,23.755,8.759c24.178,6.021,48.953,7.902,73.759,9.071c13.313,0.628,26.651,0.719,39.975,1.168
			c3.593,0.12,7.171,0.663,10.756,1.012C344.688,581.755,344.761,582.414,344.832,583.073z"/>
		<path fill-rule="evenodd" clip-rule="evenodd" fill="#FFFFFF" d="M235.839,552.204c-5.958-0.366-11.203-0.689-16.793-1.033
			c-0.517-15.468-1.02-30.518-1.548-46.334c5.434,2.736,10.177,5.031,14.801,7.543c0.814,0.442,1.561,1.77,1.617,2.73
			C234.62,527.2,235.192,539.298,235.839,552.204z"/>
		<path fill-rule="evenodd" clip-rule="evenodd" fill="#FFFFFF" d="M260.842,242.958c-1.616-6.395-3.093-12.233-4.747-18.78
			c2.533-0.99,5.953-2.449,9.472-3.607c0.781-0.257,2.264,0.264,2.807,0.929c1.135,1.391,1.968,3.065,2.732,4.712
			C276.785,238.443,274.074,242.615,260.842,242.958z"/>
		<path fill-rule="evenodd" clip-rule="evenodd" fill="#FFFFFF" d="M290.294,212.873c4.599,5.968,7.718,12.391,4.86,18.8
			c-1.365,3.061-7.059,4.191-10.656,6.122c-1.588-7.788-2.943-14.426-4.436-21.743C282.68,215.238,286.355,214.097,290.294,212.873z
			"/>
		<path fill-rule="evenodd" clip-rule="evenodd" fill="#FFFFFF" d="M300.1,210.686c2.06-0.876,3.859-1.682,5.689-2.411
			c6.919-2.759,8.086-2.155,10.223,5.214c3.288,11.34,2.036,13.252-10.251,15.858c-0.468-3.211-0.592-6.529-1.505-9.613
			C303.377,216.766,301.682,214.04,300.1,210.686z"/>
		<path fill-rule="evenodd" clip-rule="evenodd" fill="#FFFFFF" d="M325.195,222.745c-1.752-6.799-3.425-13.29-5.191-20.144
			c2.518-0.64,5.468-1.389,9.411-2.391c1.142,4.475,2.738,8.811,3.273,13.273C333.506,220.304,332.173,221.575,325.195,222.745z"/>
		<path fill-rule="evenodd" clip-rule="evenodd" fill="#FFFFFF" d="M347.798,310.229c-30.824,12.823-61.975,24.716-94.362,33.069
			C284.89,332.274,316.344,321.251,347.798,310.229z"/>
		<path fill-rule="evenodd" clip-rule="evenodd" fill="#FFFFFF" d="M339.097,346.051c-24.047,13.817-76.394,35.417-84.121,35.594
			C282.64,369.938,310.868,357.995,339.097,346.051z"/>
		<path fill-rule="evenodd" clip-rule="evenodd" fill="#FFFFFF" d="M341.189,230.356c-30.549,9.198-61.099,18.396-91.648,27.595
			c-0.146-0.49-0.293-0.98-0.439-1.471c30.555-9.184,61.108-18.367,91.663-27.551C340.906,229.405,341.048,229.881,341.189,230.356z
			"/>
		<path fill-rule="evenodd" clip-rule="evenodd" fill="#FFFFFF" d="M346.253,377.412c-30.594,15.23-61.188,30.461-91.782,45.69
			c-0.207-0.424-0.413-0.847-0.619-1.271c30.586-15.15,61.171-30.301,91.757-45.452
			C345.823,376.725,346.038,377.068,346.253,377.412z"/>
		<path fill-rule="evenodd" clip-rule="evenodd" fill="#FFFFFF" d="M324.234,278.832c-23.838,10.539-47.604,21.234-73.514,25.337
			c12.402-3.991,24.872-7.785,37.188-12.028C300.098,287.94,312.132,283.287,324.234,278.832z"/>
		<path fill-rule="evenodd" clip-rule="evenodd" fill="#FFFFFF" d="M261.652,473.086c1.98-6.027-1.713-13.277,6.933-16.585
			c0.919,6.08,1.788,11.834,2.788,18.462C267.998,474.312,265.225,473.775,261.652,473.086z"/>
		<path fill-rule="evenodd" clip-rule="evenodd" fill="#FFFFFF" d="M293.738,460.069c-3.346-0.414-5.895-0.729-8.531-1.057
			c-2.49-9.04-1.326-12.477,5.75-15.052C291.856,449.17,292.737,454.271,293.738,460.069z"/>
		<path fill-rule="evenodd" clip-rule="evenodd" fill="#FFFFFF" d="M312.158,447.809c-2.689-1.405-6.693-2.161-7.782-4.359
			c-1.94-3.921,1.345-6.08,5.415-7.023c1.114,3.326,2.238,6.682,3.363,10.037C312.822,446.912,312.49,447.36,312.158,447.809z"/>
		<path fill-rule="evenodd" clip-rule="evenodd" fill="#FFFFFF" d="M328.306,423.803c0.8,4.262,1.298,6.908,1.795,9.555
			c-0.385,0.363-0.77,0.727-1.154,1.089c-1.929-1.542-3.857-3.085-5.786-4.627C324.605,428.13,326.05,426.441,328.306,423.803z"/>
		<path fill-rule="evenodd" clip-rule="evenodd" fill="#FFFFFF" d="M163.06,93.634c0-14.558,0-28.816,0-43.028
			c13.312-2.851,20.552,1.946,22.04,15.123c0.588,5.213,0.398,10.697-0.538,15.857C182.781,91.407,176.228,94.899,163.06,93.634z"/>
		<path fill-rule="evenodd" clip-rule="evenodd" fill="#FFFFFF" d="M85.092,94.507c0-14.872,0-29.44,0-43.96
			c14.184-2.682,21.046,2.436,21.871,16.208c0.208,3.473,0.219,6.977,0.022,10.45C106.189,91.293,99.686,96.476,85.092,94.507z"/>
	</g>
</g>
</svg>
