<?xml version="1.0" encoding="utf-8"?>
<!-- Generator: Adobe Illustrator 16.0.3, SVG Export Plug-In . SVG Version: 6.00 Build 0)  -->
<!DOCTYPE svg PUBLIC "-//W3C//DTD SVG 1.1//EN" "http://www.w3.org/Graphics/SVG/1.1/DTD/svg11.dtd">
<svg version="1.1" id="QUALITY_OF_LIFE_final_xA0_Image_1_"
	 xmlns="http://www.w3.org/2000/svg" xmlns:xlink="http://www.w3.org/1999/xlink" x="0px" y="0px" width="1200px" height="1200px"
	 viewBox="0 0 1200 1200" enable-background="new 0 0 1200 1200" xml:space="preserve">
<g>
	<g>
		<path fill-rule="evenodd" clip-rule="evenodd" d="M1,1c400,0,800,0,1200,0c0,400,0,800,0,1200c-400,0-800,0-1200,0
			C1,801,1,401,1,1z M601.925,37.436c-163.333,0-326.667,0.13-490-0.12C82.736,37.271,61.08,49.828,45.271,73.458
			C32.451,92.621,27.822,114.101,27.83,137c0.094,311.166,0.063,622.332,0.065,933.498c0,2.166,0.011,4.333,0.042,6.5
			c0.215,14.844,3.007,29.229,9.336,42.629c15.39,32.584,39.415,50.839,77.387,50.791c326.332-0.412,652.666-0.283,978.999-0.142
			c23.911,0.011,42.956-9.322,58.071-27.181c17.376-20.529,24.105-44.86,24.106-71.333c0.015-312,0.012-623.999,0.003-935.999
			c-0.001-13.075-1.746-25.89-5.868-38.351c-13.057-39.458-41.271-59.978-82.547-59.978
			C925.591,37.436,763.758,37.436,601.925,37.436z"/>
		<path fill-rule="evenodd" clip-rule="evenodd" fill="#FFFFFF" d="M601.925,37.436c161.833,0,323.666,0,485.499,0
			c41.276,0,69.49,20.52,82.547,59.978c4.122,12.461,5.867,25.275,5.868,38.351c0.009,312,0.012,623.999-0.003,935.999
			c-0.001,26.473-6.73,50.804-24.106,71.333c-15.115,17.858-34.16,27.191-58.071,27.181c-326.333-0.142-652.667-0.271-978.999,0.142
			c-37.972,0.048-61.997-18.207-77.387-50.791c-6.329-13.399-9.121-27.785-9.336-42.629c-0.031-2.167-0.042-4.334-0.042-6.5
			C27.893,759.332,27.924,448.166,27.83,137c-0.007-22.899,4.622-44.379,17.441-63.542c15.809-23.63,37.465-36.188,66.654-36.143
			C275.258,37.565,438.592,37.436,601.925,37.436z M501.941,726.865c8.28-1.079,15.541-5.328,20.752-12.855
			c5.415-7.824,7.313-16.58,7.309-25.995c-0.053-101.333-0.134-202.667,0.109-303.999c0.027-11.141-4.258-19.237-12.737-25.627
			c-15.754-11.872-34.091-17.046-53.271-17.256c-54.66-0.598-109.333-0.495-163.997-0.098c-30.704,0.223-61.531-2.483-92.083,3.432
			c-6.278,1.216-12.05,2.732-16.619,7.146c-15.728,15.192-25.893,33.717-26.014,55.572c-0.54,97.33-0.255,194.665-0.201,291.998
			c0.005,8.993,2.308,17.477,7.214,25.111c13.708,21.333,40.404,21.09,53.759-0.452c5.073-8.183,6.945-17.124,6.936-26.675
			c-0.063-64.167-0.032-128.333-0.032-192.5c0-2.072,0-4.146,0-6.154c7.8,0,14.728,0,22.087,0c0,2.299,0,4.27,0,6.24c0,31,0,62,0,93
			c0,145.166,0.003,290.333-0.005,435.499c-0.001,11.452,2.582,22.148,9.383,31.528c14.765,20.363,40.94,20.294,55.625-0.104
			c6.893-9.573,9.243-20.401,9.233-32.053c-0.077-83.5-0.043-167-0.029-250.5c0-2.063,0.175-4.125,0.292-6.707
			c12.73,3.907,24.869,4.187,37.555,0.404c0,2.472,0,4.439,0,6.407c0,35,0,70,0,104.999c0,47.834,0.014,95.667-0.01,143.5
			c-0.005,11.24,2.091,21.849,8.826,31.166c13.908,19.241,39.031,18.939,52.514-0.634c6.294-9.139,8.336-19.396,8.333-30.313
			c-0.035-175.166-0.025-350.332-0.024-525.499c0-2.269,0-4.537,0-6.963c11.401,0,22.12,0,33.122,0c0,2.32,0,4.304,0,6.287
			c0,61.166-0.02,122.333,0.014,183.499c0.01,18.161,6.747,32.061,25.38,38.525c-1.324,0.465-2.272,0.751-3.184,1.125
			c-8.39,3.432-12.13,13.356-8.028,21.288c4.816,9.314,9.703,18.593,14.451,27.942c9.867,19.428,19.694,38.876,29.453,58.358
			c1.432,2.857,3.488,3.634,6.069,2.228c2.162-1.178,4.096-2.846,5.955-4.494c14.088-12.497,28.129-25.047,42.198-37.563
			c1.266-1.126,2.632-2.138,4.569-3.702c0,20.062,0.123,39.05-0.111,58.033c-0.044,3.506-0.923,7.289-2.449,10.445
			c-16.511,34.161-33.23,68.223-49.886,102.314c-0.847,1.734-1.62,3.505-2.997,6.494c20.581,0,40.131,0,60.153,0
			c0,2.997,0.001,4.971,0.001,6.944c0,22.167-0.017,44.333,0.021,66.5c0.004,2.826,0.04,5.691,0.489,8.47
			c1.407,8.705,8.371,15.341,15.913,15.416c7.403,0.074,14.269-6.103,15.992-14.691c0.585-2.915,0.776-5.951,0.785-8.934
			c0.063-22.333,0.034-44.666,0.034-66.999c0-1.785,0-3.57,0-5.313c8.956,0,17.345,0,25.898,0c0,6.379,0.049,12.197-0.009,18.016
			c-0.205,20.664-0.531,41.327-0.634,61.991c-0.041,8.266,5.572,14.694,13.203,15.758c6.708,0.936,13.652-4.088,15.919-11.709
			c0.56-1.879,0.804-3.924,0.791-5.891c-0.101-15.332-0.341-30.662-0.453-45.994c-0.076-10.447-0.015-20.895-0.015-31.39
			c19.498,0,38.839,0,58.572,0c-0.899-2.109-1.625-3.934-2.445-5.715c-14.621-31.738-28.57-63.813-44.154-95.071
			c-8.654-17.358-13.604-34.738-11.553-54.051c0.389-3.663,0.056-7.401,0.056-12.375c7.542,8.479,14.136,15.758,20.554,23.188
			c2.052,2.376,4.308,3.68,6.77,1.406c5.101-4.71,11.259-8.998,14.528-14.835c10.156-18.124,19.12-36.914,28.633-55.402
			c6.473-12.58,13.188-25.036,19.604-37.645c3.831-7.526,1.332-13.405-6.598-16.112c-2.347-0.801-4.809-1.333-7.258-1.752
			c-4.564-0.779-7.679,0.647-10.138,5.081c-12.596,22.711-25.526,45.236-38.357,67.817c-0.873,1.538-1.881,2.999-3.031,4.819
			c-9.791-11.804-19.153-23.295-28.809-34.534c-1.667-1.941-4.433-3.434-6.95-4.021c-2.951-0.688-6.186-0.16-9.298-0.16
			c-19-0.001-38.003-0.171-56.997,0.157c-3.384,0.059-7.301,1.436-10.005,3.481c-17.528,13.262-34.784,26.881-52.142,40.368
			c-1.11,0.862-2.321,1.597-3.73,2.558c-9.897-18.568-19.465-36.659-29.214-54.651C506.11,731.372,503.821,729.224,501.941,726.865z
			 M968.934,448.293c0,2.61,0,4.605,0,6.602c0,47.496-0.002,94.992,0.001,142.489c0.001,21.165-0.009,42.33,0.028,63.494
			c0.016,8.831,2.718,16.737,8.73,23.297c9.867,10.765,24.934,10.668,34.712-0.217c6.336-7.053,8.617-15.542,8.613-24.872
			c-0.032-81.327-0.021-162.654-0.016-243.981c0-6.817,0.398-13.655-0.006-20.447c-1.356-22.82-18.425-38.73-41.23-38.732
			c-60.828-0.005-121.657-0.04-182.485,0.047c-7.647,0.011-15.295,0.661-22.94,1.056c-27.198,1.405-43.97,22.974-43.938,44.757
			c0.121,84.826,0.031,169.653,0.074,254.48c0.005,10.117,2.739,19.422,9.396,27.29c12.183,14.4,31.949,13.973,43.535-0.921
			c6.306-8.104,8.659-17.402,8.651-27.552c-0.054-66.994-0.027-133.989-0.027-200.984c0-1.924,0-3.849,0-5.771
			c6.322,0,11.909,0,17.905,0c0,1.915,0.012,3.543-0.002,5.17c-0.668,76.986-1.376,153.972-1.922,230.959
			c-0.036,5.149-1.091,9.67-3.356,14.278c-26.061,53.015-51.98,106.1-77.929,159.169c-0.744,1.521-1.393,3.09-2.709,6.025
			c30.719,0,60.161,0,89.76,0c0.157,2.399,0.317,3.698,0.317,4.998c0.009,40.497,0.006,80.993-0.004,121.49
			c-0.004,13.999-0.232,28.001,0.006,41.995c0.259,15.215,9.6,26.938,22.23,28.542c15.168,1.926,27.341-6.43,31.461-22.104
			c1.167-4.441,1.487-9.213,1.497-13.835c0.101-51.162,0.063-102.325,0.063-153.487c0-1.924,0-3.847,0-5.543c10.411,0,19.996,0,30,0
			c0,2.696,0,4.833,0,6.97c0,53.496-0.007,106.992,0.019,160.487c0.001,2.825,0.104,5.671,0.446,8.472
			c1.433,11.739,8.627,20.442,18.331,22.353c9.678,1.904,23.264-4.316,27.654-13.9c2.478-5.408,3.961-11.776,3.994-17.723
			c0.299-53.16,0.175-106.323,0.175-159.486c0-1.954,0-3.908,0-5.741c29.249,0,57.975,0,87.181,0
			c-0.851-1.944-1.661-3.887-2.54-5.797c-26.376-57.281-52.779-114.551-79.081-171.865c-1.279-2.788-2.365-5.971-2.397-8.98
			c-0.753-71.819-1.352-143.639-1.967-215.459c-0.048-5.61-0.006-11.221-0.006-17.021
			C957.24,448.293,962.817,448.293,968.934,448.293z M900.431,308.33c0.306,1.282,0.476,2.058,0.677,2.825
			c5.021,19.218,17.766,25.824,36.337,18.821c1.399-0.528,2.782-1.117,4.118-1.787c23.548-11.808,39.592-31.396,55.451-53.135
			c-24.385,9.91-41.757,0.82-56.251-16.993c-2.409-2.961-4.563-6.165-6.541-9.434c-8.818-14.564-13.976-30.483-17.253-47.097
			c-0.539-2.731-0.839-5.903-2.425-7.971c-10.868-14.165-24.875-23.076-43.181-23.503c-18.34-0.427-32.688,7.897-44.142,21.632
			c-5.387,6.46-9.671,13.371-11.503,22.04c-2.799,13.236-8.113,25.721-15.627,37.072c-11.243,16.982-25.077,29.898-48.521,28.369
			c4.328,7.058,7.994,13.522,12.127,19.674c8.685,12.929,18.267,25.11,31.83,33.371c16.849,10.263,30.807,5.288,37.459-13.311
			c1.48-4.142,2.414-8.479,3.703-13.1C857.387,320.874,878.563,321.871,900.431,308.33z M418.451,223.313
			c-0.175-26.029-6.221-48.016-21.122-66.967c-11.674-14.845-26.461-24.906-45.813-26.354c-24.824-1.856-43.399,9.618-57.494,28.935
			c-16.172,22.164-21.264,47.445-18.487,74.369c2.338,22.67,10.554,42.961,26.857,59.339c25.744,25.862,62.485,25.994,88.243,0.179
			C410.332,273.072,417.907,248.406,418.451,223.313z M578.886,662.244c0.185,14.92,3.868,28.36,12.576,40.153
			c18.271,24.74,49.638,24.754,67.967,0.095c17.174-23.104,16.81-58.468-0.838-81.204c-17.487-22.53-46.327-23.309-64.857-1.604
			C583.21,632.012,579.115,646.68,578.886,662.244z"/>
		<path fill-rule="evenodd" clip-rule="evenodd" d="M501.941,726.865c1.88,2.358,4.169,4.507,5.589,7.127
			c9.749,17.992,19.316,36.083,29.214,54.651c1.409-0.961,2.62-1.695,3.73-2.558c17.357-13.487,34.613-27.106,52.142-40.368
			c2.704-2.046,6.621-3.423,10.005-3.481c18.994-0.328,37.997-0.158,56.997-0.157c3.112,0,6.347-0.528,9.298,0.16
			c2.518,0.587,5.283,2.079,6.95,4.021c9.655,11.239,19.018,22.73,28.809,34.534c1.15-1.82,2.158-3.281,3.031-4.819
			c12.831-22.581,25.762-45.106,38.357-67.817c2.459-4.434,5.573-5.86,10.138-5.081c2.449,0.419,4.911,0.951,7.258,1.752
			c7.93,2.707,10.429,8.586,6.598,16.112c-6.416,12.608-13.131,25.064-19.604,37.645c-9.513,18.488-18.477,37.278-28.633,55.402
			c-3.27,5.837-9.428,10.125-14.528,14.835c-2.462,2.273-4.718,0.97-6.77-1.406c-6.418-7.43-13.012-14.708-20.554-23.188
			c0,4.974,0.333,8.712-0.056,12.375c-2.052,19.313,2.898,36.692,11.553,54.051c15.584,31.259,29.533,63.333,44.154,95.071
			c0.82,1.781,1.546,3.605,2.445,5.715c-19.733,0-39.074,0-58.572,0c0,10.495-0.062,20.942,0.015,31.39
			c0.112,15.332,0.353,30.662,0.453,45.994c0.013,1.967-0.231,4.012-0.791,5.891c-2.267,7.621-9.211,12.645-15.919,11.709
			c-7.631-1.063-13.244-7.492-13.203-15.758c0.103-20.664,0.429-41.327,0.634-61.991c0.058-5.818,0.009-11.637,0.009-18.016
			c-8.554,0-16.942,0-25.898,0c0,1.742,0,3.527,0,5.313c0,22.333,0.028,44.666-0.034,66.999c-0.009,2.982-0.2,6.019-0.785,8.934
			c-1.724,8.589-8.589,14.766-15.992,14.691c-7.542-0.075-14.506-6.711-15.913-15.416c-0.449-2.778-0.485-5.644-0.489-8.47
			c-0.037-22.167-0.021-44.333-0.021-66.5c0-1.974-0.001-3.947-0.001-6.944c-20.022,0-39.572,0-60.153,0
			c1.377-2.989,2.15-4.76,2.997-6.494c16.655-34.092,33.375-68.153,49.886-102.314c1.526-3.156,2.405-6.939,2.449-10.445
			c0.234-18.983,0.111-37.972,0.111-58.033c-1.938,1.564-3.304,2.576-4.569,3.702c-14.069,12.517-28.11,25.066-42.198,37.563
			c-1.859,1.648-3.793,3.316-5.955,4.494c-2.581,1.406-4.638,0.63-6.069-2.228c-9.759-19.482-19.586-38.931-29.453-58.358
			c-4.748-9.35-9.635-18.628-14.451-27.942c-4.102-7.932-0.361-17.856,8.028-21.288c0.911-0.374,1.859-0.66,3.184-1.125
			c-18.633-6.465-25.37-20.364-25.38-38.525c-0.033-61.166-0.014-122.333-0.014-183.499c0-1.983,0-3.967,0-6.287
			c-11.002,0-21.721,0-33.122,0c0,2.426,0,4.694,0,6.963c-0.001,175.167-0.011,350.333,0.024,525.499
			c0.003,10.917-2.039,21.174-8.333,30.313c-13.482,19.573-38.605,19.875-52.514,0.634c-6.735-9.317-8.831-19.926-8.826-31.166
			c0.023-47.833,0.01-95.666,0.01-143.5c0-34.999,0-69.999,0-104.999c0-1.968,0-3.936,0-6.407
			c-12.686,3.782-24.824,3.503-37.555-0.404c-0.117,2.582-0.292,4.645-0.292,6.707c-0.014,83.5-0.048,167,0.029,250.5
			c0.01,11.651-2.341,22.479-9.233,32.053c-14.685,20.397-40.86,20.467-55.625,0.104c-6.801-9.38-9.384-20.076-9.383-31.528
			c0.008-145.166,0.005-290.333,0.005-435.499c0-31,0-62,0-93c0-1.971,0-3.941,0-6.24c-7.36,0-14.288,0-22.087,0
			c0,2.009,0,4.082,0,6.154c0,64.167-0.03,128.333,0.032,192.5c0.009,9.551-1.863,18.492-6.936,26.675
			c-13.355,21.542-40.051,21.785-53.759,0.452c-4.906-7.635-7.209-16.118-7.214-25.111c-0.054-97.333-0.338-194.668,0.201-291.998
			c0.121-21.855,10.286-40.38,26.014-55.572c4.568-4.413,10.34-5.93,16.619-7.146c30.552-5.915,61.38-3.209,92.083-3.432
			c54.664-0.397,109.337-0.5,163.997,0.098c19.18,0.21,37.517,5.384,53.271,17.256c8.479,6.39,12.765,14.486,12.737,25.627
			c-0.243,101.332-0.162,202.666-0.109,303.999c0.005,9.415-1.894,18.171-7.309,25.995
			C517.482,721.537,510.222,725.786,501.941,726.865z"/>
		<path fill-rule="evenodd" clip-rule="evenodd" d="M968.934,448.293c-6.116,0-11.693,0-17.775,0c0,5.8-0.042,11.41,0.006,17.021
			c0.615,71.82,1.214,143.64,1.967,215.459c0.032,3.01,1.118,6.192,2.397,8.98c26.302,57.314,52.705,114.584,79.081,171.865
			c0.879,1.91,1.689,3.853,2.54,5.797c-29.206,0-57.932,0-87.181,0c0,1.833,0,3.787,0,5.741c0,53.163,0.124,106.326-0.175,159.486
			c-0.033,5.946-1.517,12.314-3.994,17.723c-4.391,9.584-17.977,15.805-27.654,13.9c-9.704-1.91-16.898-10.613-18.331-22.353
			c-0.342-2.801-0.445-5.646-0.446-8.472c-0.025-53.495-0.019-106.991-0.019-160.487c0-2.137,0-4.273,0-6.97
			c-10.004,0-19.589,0-30,0c0,1.696,0,3.619,0,5.543c0,51.162,0.037,102.325-0.063,153.487c-0.01,4.622-0.33,9.394-1.497,13.835
			c-4.12,15.674-16.293,24.029-31.461,22.104c-12.631-1.604-21.972-13.327-22.23-28.542c-0.238-13.994-0.01-27.996-0.006-41.995
			c0.01-40.497,0.013-80.993,0.004-121.49c0-1.3-0.16-2.599-0.317-4.998c-29.599,0-59.041,0-89.76,0
			c1.316-2.936,1.965-4.504,2.709-6.025c25.948-53.069,51.868-106.154,77.929-159.169c2.266-4.608,3.32-9.129,3.356-14.278
			c0.546-76.987,1.254-153.973,1.922-230.959c0.014-1.627,0.002-3.255,0.002-5.17c-5.996,0-11.583,0-17.905,0
			c0,1.923,0,3.848,0,5.771c0,66.995-0.026,133.99,0.027,200.984c0.008,10.149-2.346,19.447-8.651,27.552
			c-11.586,14.894-31.353,15.321-43.535,0.921c-6.656-7.868-9.391-17.173-9.396-27.29c-0.043-84.827,0.047-169.654-0.074-254.48
			c-0.031-21.783,16.74-43.352,43.938-44.757c7.646-0.395,15.293-1.045,22.94-1.056c60.828-0.087,121.657-0.052,182.485-0.047
			c22.806,0.002,39.874,15.912,41.23,38.732c0.404,6.792,0.006,13.63,0.006,20.447c-0.005,81.327-0.017,162.654,0.016,243.981
			c0.004,9.33-2.277,17.819-8.613,24.872c-9.778,10.885-24.845,10.981-34.712,0.217c-6.013-6.56-8.715-14.466-8.73-23.297
			c-0.037-21.164-0.027-42.329-0.028-63.494c-0.003-47.497-0.001-94.993-0.001-142.489
			C968.934,452.898,968.934,450.903,968.934,448.293z"/>
		<path fill-rule="evenodd" clip-rule="evenodd" d="M900.431,308.33c-21.867,13.541-43.044,12.544-63.741-2.524
			c-1.289,4.62-2.223,8.958-3.703,13.1c-6.652,18.599-20.61,23.573-37.459,13.311c-13.563-8.261-23.146-20.442-31.83-33.371
			c-4.133-6.151-7.799-12.616-12.127-19.674c23.444,1.529,37.278-11.387,48.521-28.369c7.514-11.352,12.828-23.836,15.627-37.072
			c1.832-8.669,6.116-15.58,11.503-22.04c11.453-13.734,25.802-22.059,44.142-21.632c18.306,0.427,32.313,9.338,43.181,23.503
			c1.586,2.067,1.886,5.239,2.425,7.971c3.277,16.613,8.435,32.532,17.253,47.097c1.979,3.269,4.132,6.473,6.541,9.434
			c14.494,17.813,31.866,26.903,56.251,16.993c-15.859,21.738-31.903,41.327-55.451,53.135c-1.336,0.67-2.719,1.259-4.118,1.787
			c-18.571,7.003-31.315,0.396-36.337-18.821C900.906,310.388,900.736,309.612,900.431,308.33z"/>
		<path fill-rule="evenodd" clip-rule="evenodd" d="M418.451,223.313c-0.544,25.094-8.119,49.76-27.816,69.5
			c-25.758,25.815-62.499,25.684-88.243-0.179c-16.303-16.378-24.52-36.669-26.857-59.339c-2.777-26.924,2.315-52.205,18.487-74.369
			c14.095-19.316,32.67-30.791,57.494-28.935c19.353,1.448,34.14,11.51,45.813,26.354
			C412.23,175.297,418.276,197.283,418.451,223.313z"/>
		<path fill-rule="evenodd" clip-rule="evenodd" d="M578.886,662.244c0.229-15.564,4.324-30.232,14.848-42.56
			c18.53-21.705,47.37-20.927,64.857,1.604c17.647,22.736,18.012,58.1,0.838,81.204c-18.329,24.659-49.696,24.646-67.967-0.095
			C582.754,690.604,579.07,677.164,578.886,662.244z"/>
	</g>
</g>
</svg>
