<?xml version="1.0" encoding="utf-8"?>
<!-- Generator: Adobe Illustrator 16.0.3, SVG Export Plug-In . SVG Version: 6.00 Build 0)  -->
<!DOCTYPE svg PUBLIC "-//W3C//DTD SVG 1.1//EN" "http://www.w3.org/Graphics/SVG/1.1/DTD/svg11.dtd">
<svg version="1.1" id="Question_mark_xA0_Image_1_" xmlns="http://www.w3.org/2000/svg" xmlns:xlink="http://www.w3.org/1999/xlink"
	 x="0px" y="0px" width="466px" height="720px" viewBox="0 0 466 720" enable-background="new 0 0 466 720" xml:space="preserve">
<g>
	<g>
		<path fill-rule="evenodd" clip-rule="evenodd" fill="#FFFFFF" d="M466.864,721c-155.242,0-310.543,0-465.849,0
			C1.01,481.058,1.01,241.115,1.01,1.086c155.233,0,310.476,0,465.854,0C466.864,241,466.864,481,466.864,721z M83.333,329.846
			c6.219-10.333,11.922-20.68,18.443-30.48c19.246-28.927,42.333-54.014,73.384-70.706c24.214-13.018,49.942-18.234,77.225-13.596
			c12.47,2.12,22.421,8.327,25.374,21.536c1.314,5.877,1.443,12.311,0.674,18.308c-2.586,20.153-11.305,38.201-20.873,55.778
			c-21.435,39.378-48.247,75.033-76.513,109.667c-1.824,2.235-3.264,5.017-4.109,7.781c-8.66,28.316-17.167,56.68-25.697,85.036
			c-1.225,4.072-2.341,8.178-3.624,12.679c68.138,7.862,135.676,15.655,203.813,23.518c-0.614-2.052-0.88-3.165-1.275-4.23
			c-11.866-31.973-23.694-63.96-35.696-95.881c-1.247-3.316-1.046-5.585,1.104-8.543c29.14-40.098,54.925-82.239,75.992-127.147
			c18.464-39.36,33.514-79.834,36.904-123.692c2.165-27.998-1.25-55.069-16.994-79.123c-18.455-28.194-41.431-52.189-69.912-70.458
			C299.09,13.054,253.158,2.385,203.233,13.037c-41.115,8.773-73.78,31.346-100.367,63.211
			c-36.025,43.178-58.855,93.188-74.882,146.604c-0.565,1.885,0.053,4.575,1.03,6.403c13.575,25.396,27.307,50.708,41.006,76.037
			C74.441,313.468,78.88,321.634,83.333,329.846z M244.707,580.718c-28.628,0.869-54.072,8.338-76.542,24.229
			c-7.209,5.099-13.833,11.632-19.127,18.704c-10.426,13.926-9.85,29.399,0.291,43.546c6.315,8.811,14.547,15.567,23.863,20.929
			c38.028,21.887,77.677,26.069,118.961,10.318c17.297-6.6,33.311-15.31,45.022-30.231c11.403-14.527,11.671-30.772,0.625-45.53
			c-3.166-4.23-6.809-8.282-10.878-11.631C302.742,591.151,274.469,582.315,244.707,580.718z"/>
		<path fill-rule="evenodd" clip-rule="evenodd" d="M83.333,329.846c-4.453-8.212-8.892-16.378-13.314-24.553
			c-13.699-25.329-27.431-50.642-41.006-76.037c-0.977-1.828-1.595-4.519-1.03-6.403c16.027-53.417,38.857-103.427,74.882-146.604
			c26.586-31.865,59.251-54.438,100.367-63.211c49.925-10.652,95.857,0.017,138.319,27.254
			c28.481,18.269,51.457,42.264,69.912,70.458c15.744,24.054,19.159,51.125,16.994,79.123
			c-3.391,43.858-18.44,84.332-36.904,123.692c-21.067,44.908-46.853,87.05-75.992,127.147c-2.149,2.958-2.351,5.227-1.104,8.543
			c12.002,31.921,23.83,63.908,35.696,95.881c0.396,1.065,0.661,2.179,1.275,4.23c-68.137-7.862-135.675-15.655-203.813-23.518
			c1.283-4.501,2.399-8.606,3.624-12.679c8.529-28.356,17.037-56.72,25.697-85.036c0.846-2.765,2.285-5.546,4.109-7.781
			c28.266-34.634,55.079-70.289,76.513-109.667c9.568-17.577,18.287-35.625,20.873-55.778c0.77-5.997,0.641-12.431-0.674-18.308
			c-2.953-13.209-12.904-19.416-25.374-21.536c-27.282-4.639-53.01,0.578-77.225,13.596c-31.052,16.692-54.139,41.779-73.384,70.706
			C95.255,309.166,89.553,319.513,83.333,329.846z"/>
		<path fill-rule="evenodd" clip-rule="evenodd" d="M244.707,580.718c29.762,1.598,58.035,10.434,82.216,30.334
			c4.069,3.349,7.712,7.4,10.878,11.631c11.046,14.758,10.778,31.003-0.625,45.53c-11.712,14.922-27.726,23.632-45.022,30.231
			c-41.284,15.751-80.933,11.568-118.961-10.318c-9.316-5.361-17.548-12.118-23.863-20.929
			c-10.141-14.146-10.717-29.62-0.291-43.546c5.295-7.072,11.918-13.605,19.127-18.704
			C190.635,589.056,216.079,581.587,244.707,580.718z"/>
	</g>
</g>
</svg>
