<?xml version="1.0" encoding="utf-8"?>
<!-- Generator: Adobe Illustrator 16.0.3, SVG Export Plug-In . SVG Version: 6.00 Build 0)  -->
<!DOCTYPE svg PUBLIC "-//W3C//DTD SVG 1.1//EN" "http://www.w3.org/Graphics/SVG/1.1/DTD/svg11.dtd">
<svg version="1.1" id="REPRODUCTION_semi_final_xA0_Image_1_"
	 xmlns="http://www.w3.org/2000/svg" xmlns:xlink="http://www.w3.org/1999/xlink" x="0px" y="0px" width="1200px" height="1200px"
	 viewBox="0 0 1200 1200" enable-background="new 0 0 1200 1200" xml:space="preserve">
<g>
	<g>
		<path fill-rule="evenodd" clip-rule="evenodd" d="M1,1201C1,801,1,401,1,1c400,0,800,0,1200,0c0,400,0,800,0,1200
			C801,1201,401,1201,1,1201z M588.205,37.113c-0.195,1.588-0.383,2.716-0.465,3.851c-2.635,36.62-8.049,72.811-17.293,108.361
			C536.036,281.667,464.974,390.757,360.012,477.7c-95.444,79.06-205.199,126.888-327.506,146.076
			c-4.288,0.673-4.884,2.369-4.882,6.084c0.077,147.331,0.09,294.661,0.03,441.992c-0.007,16.683,2.315,32.909,9.488,48.029
			c14.464,30.489,36.641,50.608,72.343,50.616c328.161,0.075,656.322,0.024,984.483,0.087c24.594,0.005,44.064-10.114,59.229-28.922
			c16.354-20.283,22.807-43.917,22.802-69.667c-0.033-172.83-0.017-345.66-0.017-518.49c-0.001-139.331-0.025-278.662,0.026-417.993
			c0.008-19.309-3.585-37.773-13.024-54.683c-15.832-28.358-39.099-43.929-72.75-43.863c-165.164,0.321-330.328,0.146-495.492,0.146
			C592.609,37.113,590.477,37.113,588.205,37.113z M27.688,585.709c1.277-0.151,1.926-0.185,2.557-0.311
			c55.765-11.086,109.28-28.953,160.532-53.536c189.194-90.746,325.319-264.604,357.658-468.908
			c1.338-8.449,2.419-16.938,3.68-25.84c-8.104,0-15.42,0.145-22.727-0.069c-3.047-0.089-3.888,1.151-4.404,3.912
			c-22.222,118.704-75.197,221.951-157.543,309.948c-90.75,96.979-201.476,160.184-330.172,192.257
			c-9.568,2.385-9.581,2.333-9.581,12.479C27.688,565.597,27.688,575.553,27.688,585.709z"/>
		<path fill-rule="evenodd" clip-rule="evenodd" fill="#FFFFFF" d="M588.205,37.113c2.271,0,4.404,0,6.537,0
			c165.164,0,330.328,0.175,495.492-0.146c33.651-0.065,56.918,15.505,72.75,43.863c9.439,16.909,13.032,35.374,13.024,54.683
			c-0.052,139.331-0.027,278.662-0.026,417.993c0,172.83-0.017,345.66,0.017,518.49c0.005,25.75-6.447,49.384-22.802,69.667
			c-15.165,18.808-34.636,28.927-59.229,28.922c-328.161-0.063-656.322-0.012-984.483-0.087
			c-35.702-0.008-57.879-20.127-72.343-50.616c-7.172-15.12-9.495-31.347-9.488-48.029c0.06-147.331,0.046-294.661-0.03-441.992
			c-0.002-3.715,0.594-5.411,4.882-6.084C154.813,604.588,264.567,556.76,360.012,477.7
			c104.962-86.943,176.024-196.033,210.436-328.375c9.244-35.551,14.658-71.741,17.293-108.361
			C587.822,39.829,588.01,38.701,588.205,37.113z M816.441,512.429c0.012,0.29,0.023,0.58,0.035,0.869
			c19.923,1.596,39.896,2.744,59.75,4.952c12.171,1.354,24.441,3.384,36.152,6.85c11.655,3.449,13.516,11.094,5.219,19.868
			c-6.689,7.075-14.366,13.47-22.441,18.929c-16.959,11.467-34.543,22.002-51.728,33.141c-15.428,10-30.029,21.039-41.576,35.602
			c-11.729,14.792-18.651,31.588-16.527,50.478c3.779,33.611,16.917,63.047,45.939,82.244
			c17.256,11.414,35.946,21.009,54.866,29.465c23.044,10.3,46.728,19.778,73.036,16.724c0.815-0.095,1.663,0.058,2.493,0.123
			c25.497,2.01,49.045,10.771,71.649,21.902c18.579,9.15,19.948,21.133,4.07,34.592c-11.014,9.336-23.398,17.038-34.942,25.771
			c-8.348,6.315-17.567,12.068-24.229,19.913c-20.389,24.009-39.15,49.316-53.621,77.485c-8.265,16.088-14.784,32.77-16.076,51.07
			c-1.301,18.43,4.134,34.058,19.93,44.65c7.835,5.254,16.072,10.236,24.749,13.85c38.382,15.981,78.718,21.846,120.066,21.751
			c26.638-0.062,49.168-10.462,68.679-27.948c3.403-3.05,6.14-6.998,8.591-10.904c1.93-3.073,0.929-6.146-3-6.717
			c-5.721-0.832-11.567-1.8-17.285-1.459c-17.556,1.045-33.58,7.588-49.598,14.344c-6.437,2.714-13.62,4.424-20.587,4.948
			c-13.471,1.014-26.439-2.532-39.092-6.882c-23.651-8.128-45.52-19.505-64.849-35.601c-10.25-8.534-14.528-19.058-11.039-31.939
			c2.247-8.296,4.964-16.629,8.754-24.312c12.363-25.064,29.489-46.684,49.823-65.765c19.359-18.165,37.9-37.049,52.782-59.185
			c6.813-10.133,12.634-20.772,15.125-32.91c2.686-13.086-1.394-23.333-12.316-30.817c-14.724-10.089-30.644-17.536-48.286-20.69
			c-17.854-3.192-35.767-6.1-53.701-8.81c-49.071-7.416-87.998-31.195-116.11-72.133c-3.754-5.466-6.473-12.041-8.076-18.498
			c-2.73-10.995,0.737-21.433,5.577-31.318c7.074-14.443,17.581-26.233,29.299-37.009c18.133-16.677,38.835-29.646,59.917-42.213
			c10.496-6.256,20.423-13.757,29.562-21.873c4.437-3.938,7.604-10.247,9.343-16.08c3.38-11.335-2.069-20.906-10.059-28.137
			c-9.707-8.784-20.646-16.197-30.964-24.316c-9.258-7.285-20.049-10.131-31.463-11.479c-32.431-3.829-64.922-2.479-97.333-0.365
			c-9.651,0.63-14.962-1.495-20.918-9.672c-27.131-37.255-62.35-65.397-103.006-86.829c-30.545-16.101-62.909-21.037-96.87-15.039
			c-24.771,4.375-47.803,13.11-67.807,28.745c-20.399,15.944-24.607,30.061-16.715,54.825
			c18.597,58.344,75.288,101.503,136.873,104.347c37.642,1.738,74.485-2.779,110.427-14.055
			c16.559-5.195,32.72-11.387,45.964-23.293c1.042-0.938,3.03-1.123,4.585-1.141C798.468,512.376,807.455,512.429,816.441,512.429z"
			/>
		<path fill-rule="evenodd" clip-rule="evenodd" fill="#FFFFFF" d="M27.688,585.709c0-10.156,0-20.112,0-30.068
			c0-10.146,0.013-10.094,9.581-12.479c128.696-32.073,239.421-95.278,330.172-192.257
			c82.346-87.997,135.321-191.244,157.543-309.948c0.517-2.761,1.357-4.001,4.404-3.912c7.307,0.214,14.623,0.069,22.727,0.069
			c-1.261,8.901-2.342,17.391-3.68,25.84c-32.339,204.304-168.464,378.162-357.658,468.908
			c-51.252,24.583-104.768,42.45-160.532,53.536C29.615,585.524,28.966,585.558,27.688,585.709z"/>
		<path fill-rule="evenodd" clip-rule="evenodd" d="M816.441,512.429c-8.986,0-17.974-0.053-26.958,0.05
			c-1.555,0.018-3.543,0.203-4.585,1.141c-13.244,11.906-29.405,18.098-45.964,23.293c-35.941,11.275-72.785,15.793-110.427,14.055
			c-61.585-2.844-118.276-46.003-136.873-104.347c-7.893-24.765-3.685-38.881,16.715-54.825
			c20.004-15.635,43.036-24.37,67.807-28.745c33.961-5.998,66.325-1.062,96.87,15.039c40.656,21.432,75.875,49.574,103.006,86.829
			c5.956,8.177,11.267,10.302,20.918,9.672c32.411-2.114,64.902-3.464,97.333,0.365c11.414,1.348,22.205,4.193,31.463,11.479
			c10.317,8.119,21.257,15.532,30.964,24.316c7.989,7.23,13.438,16.802,10.059,28.137c-1.739,5.833-4.906,12.142-9.343,16.08
			c-9.139,8.116-19.065,15.617-29.562,21.873c-21.082,12.566-41.784,25.536-59.917,42.213
			c-11.718,10.775-22.225,22.565-29.299,37.009c-4.84,9.886-8.308,20.323-5.577,31.318c1.604,6.457,4.322,13.032,8.076,18.498
			c28.112,40.938,67.039,64.717,116.11,72.133c17.935,2.71,35.847,5.617,53.701,8.81c17.643,3.154,33.563,10.602,48.286,20.69
			c10.923,7.484,15.002,17.731,12.316,30.817c-2.491,12.138-8.312,22.777-15.125,32.91c-14.882,22.136-33.423,41.02-52.782,59.185
			c-20.334,19.081-37.46,40.7-49.823,65.765c-3.79,7.683-6.507,16.016-8.754,24.312c-3.489,12.882,0.789,23.405,11.039,31.939
			c19.329,16.096,41.197,27.473,64.849,35.601c12.652,4.35,25.621,7.896,39.092,6.882c6.967-0.524,14.15-2.234,20.587-4.948
			c16.018-6.756,32.042-13.299,49.598-14.344c5.718-0.341,11.564,0.627,17.285,1.459c3.929,0.571,4.93,3.644,3,6.717
			c-2.451,3.906-5.188,7.854-8.591,10.904c-19.511,17.486-42.041,27.887-68.679,27.948c-41.349,0.095-81.685-5.77-120.066-21.751
			c-8.677-3.613-16.914-8.596-24.749-13.85c-15.796-10.593-21.23-26.221-19.93-44.65c1.292-18.301,7.812-34.982,16.076-51.07
			c14.471-28.169,33.232-53.477,53.621-77.485c6.661-7.845,15.881-13.598,24.229-19.913c11.544-8.733,23.929-16.436,34.942-25.771
			c15.878-13.459,14.509-25.441-4.07-34.592c-22.604-11.132-46.152-19.893-71.649-21.902c-0.83-0.065-1.678-0.218-2.493-0.123
			c-26.309,3.055-49.992-6.424-73.036-16.724c-18.92-8.456-37.61-18.051-54.866-29.465c-29.022-19.197-42.16-48.633-45.939-82.244
			c-2.124-18.89,4.798-35.686,16.527-50.478c11.547-14.563,26.148-25.602,41.576-35.602c17.185-11.139,34.769-21.674,51.728-33.141
			c8.075-5.459,15.752-11.854,22.441-18.929c8.297-8.774,6.437-16.419-5.219-19.868c-11.711-3.466-23.981-5.496-36.152-6.85
			c-19.854-2.208-39.827-3.356-59.75-4.952C816.465,513.009,816.453,512.719,816.441,512.429z"/>
	</g>
</g>
</svg>
