<?xml version="1.0" encoding="utf-8"?>
<!-- Generator: Adobe Illustrator 16.0.3, SVG Export Plug-In . SVG Version: 6.00 Build 0)  -->
<!DOCTYPE svg PUBLIC "-//W3C//DTD SVG 1.1//EN" "http://www.w3.org/Graphics/SVG/1.1/DTD/svg11.dtd">
<svg version="1.1" id="Shape_13_xA0_Image_1_" xmlns="http://www.w3.org/2000/svg" xmlns:xlink="http://www.w3.org/1999/xlink"
	 x="0px" y="0px" width="720px" height="720px" viewBox="0 0 720 720" enable-background="new 0 0 720 720" xml:space="preserve">
<g>
	<g>
		<path fill-rule="evenodd" clip-rule="evenodd" d="M381,703c-12.667,0-25.333,0-38,0c-1.117-0.266-2.22-0.649-3.353-0.779
			c-12.4-1.424-24.859-2.455-37.193-4.312c-10.273-1.547-20.403-4.049-29.662-5.938c0.446-6.23,1.169-11.414,1.122-16.591
			c-0.151-16.66-0.708-33.316-0.817-49.977c-0.023-3.574-1.042-5.247-4.491-6.382c-18.537-6.101-36.054-14.476-52.69-24.647
			c-2.734-1.672-4.9-1.784-7.799-0.434c-17.918,8.345-35.98,16.384-53.863,24.803c-4.107,1.934-7.703,4.954-12.144,7.875
			c-29.668-23.477-55.596-52.086-76.518-85.211c-20.868-33.041-35.597-68.579-43.718-106.11c4.299-1.368,8.565-1.685,11.49-3.829
			C49.738,419.456,65.744,406.941,82,394.763c2.453-1.838,3.173-3.707,3.05-6.658c-0.494-11.808-0.578-23.634-1.167-35.435
			c-0.117-2.345-1.219-5.175-2.839-6.826c-15.64-15.937-31.419-31.739-47.334-47.401c-3.191-3.14-7.128-5.521-11.481-8.829
			c14.815-64.433,46.952-120.62,95.213-167.683c2.066,1.188,3.708,2.297,5.48,3.127c19.556,9.164,39.145,18.257,58.684,27.456
			c2.303,1.084,3.843,1.11,6.208-0.453c14.826-9.802,29.905-19.219,44.769-28.964c1.597-1.048,3.204-3.313,3.36-5.137
			c1.806-21.061,3.384-42.141,4.871-63.227c0.2-2.836-0.44-5.731-0.732-9.069c0.174-0.085,0.865-0.501,1.61-0.771
			c24.032-8.706,48.739-14.649,74.088-17.874c9.056-1.151,18.147-2.021,27.222-3.02c12.667,0,25.333,0,38,0
			c6.263,0.667,12.563,1.093,18.781,2.047c17.229,2.645,34.425,5.509,51.104,8.2c-0.624,4.612-2.014,8.139-1.373,11.246
			c4.22,20.476,8.971,40.842,13.289,61.299c0.646,3.058,2.035,4.337,4.693,5.617c13.604,6.552,27.153,13.231,40.521,20.248
			c3.063,1.608,5.305,1.634,8.252,0.228c17.54-8.368,35.203-16.479,52.69-24.955c4.085-1.979,7.65-5.031,12.329-8.178
			c61.479,49.395,102.655,113.146,120.614,190.236c-4.874,2.512-9.081,4.273-12.863,6.697
			c-15.969,10.233-31.839,20.62-47.648,31.096c-1.416,0.938-3.195,3.048-3.029,4.395c2.355,19.103,2.252,38.21,0.543,57.328
			c-0.29,3.244,0.688,5.098,3.405,6.9c16.778,11.128,33.402,22.489,50.142,33.676c2.929,1.957,6.163,3.456,9.747,5.438
			c-14.867,65.403-46.761,121.727-94.637,168.523c-3.057-2.384-5.077-4.873-7.665-5.833c-20.068-7.447-40.226-14.661-60.43-21.735
			c-1.695-0.593-4.303-0.252-5.86,0.69c-15.765,9.536-31.425,19.245-47.017,29.06c-1.247,0.785-2.46,2.688-2.524,4.124
			c-0.773,17.14-1.388,34.287-1.903,51.437c-0.195,6.496-1.572,13.276,4.133,18.889c-25.789,9.589-51.564,15.94-78.071,19.313
			C399.167,701.137,390.075,702.003,381,703z M361.948,473.045c9.179-1.34,18.547-1.918,27.507-4.141
			c67.822-16.829,103.579-89.34,73.274-152.278c-22.556-46.843-75.474-70.881-128.457-58.608
			c-55.848,12.936-92.635,69.088-82.084,125.292C261.829,434.666,308.722,472.697,361.948,473.045z"/>
		<path fill-rule="evenodd" clip-rule="evenodd" fill="#FFFFFF" d="M381,703c9.075-0.997,18.167-1.863,27.223-3.016
			c26.507-3.372,52.282-9.724,78.071-19.313c-5.705-5.612-4.328-12.393-4.133-18.889c0.516-17.149,1.13-34.297,1.903-51.437
			c0.064-1.436,1.277-3.339,2.524-4.124c15.592-9.814,31.252-19.523,47.017-29.06c1.558-0.942,4.165-1.283,5.86-0.69
			c20.204,7.074,40.361,14.288,60.43,21.735c2.588,0.96,4.608,3.449,7.665,5.833c47.876-46.797,79.77-103.12,94.637-168.523
			c-3.584-1.981-6.818-3.48-9.747-5.438c-16.739-11.187-33.363-22.548-50.142-33.676c-2.718-1.803-3.695-3.656-3.405-6.9
			c1.709-19.118,1.813-38.226-0.543-57.328c-0.166-1.347,1.613-3.456,3.029-4.395c15.81-10.476,31.68-20.862,47.648-31.096
			c3.782-2.424,7.989-4.186,12.863-6.697c-17.959-77.091-59.136-140.842-120.614-190.236c-4.679,3.146-8.244,6.198-12.329,8.178
			c-17.487,8.476-35.15,16.587-52.69,24.955c-2.947,1.406-5.188,1.381-8.252-0.228c-13.368-7.017-26.917-13.696-40.521-20.248
			c-2.658-1.28-4.048-2.56-4.693-5.617c-4.318-20.457-9.069-40.823-13.289-61.299c-0.641-3.107,0.749-6.634,1.373-11.246
			c-16.679-2.691-33.874-5.556-51.104-8.2C393.563,25.093,387.263,24.667,381,24c107.293,0,214.586,0,321.939,0
			c0,226.333,0,452.667,0,679C595.586,703,488.293,703,381,703z"/>
		<path fill-rule="evenodd" clip-rule="evenodd" fill="#FFFFFF" d="M343,24c-9.075,0.998-18.167,1.868-27.222,3.02
			c-25.349,3.225-50.056,9.168-74.088,17.874c-0.745,0.27-1.436,0.686-1.61,0.771c0.292,3.338,0.932,6.233,0.732,9.069
			c-1.486,21.086-3.065,42.166-4.871,63.227c-0.157,1.824-1.763,4.089-3.36,5.137c-14.864,9.745-29.943,19.162-44.769,28.964
			c-2.365,1.563-3.905,1.537-6.208,0.453c-19.539-9.199-39.128-18.292-58.684-27.456c-1.772-0.83-3.414-1.938-5.48-3.127
			c-48.262,47.063-80.398,103.25-95.213,167.683c4.353,3.309,8.29,5.689,11.481,8.829c15.916,15.662,31.695,31.465,47.334,47.401
			c1.621,1.651,2.722,4.481,2.839,6.826c0.589,11.801,0.673,23.627,1.167,35.435c0.124,2.951-0.597,4.82-3.05,6.658
			c-16.256,12.179-32.262,24.693-48.637,36.706c-2.925,2.145-7.191,2.461-11.49,3.829c8.121,37.531,22.85,73.069,43.718,106.11
			c20.922,33.125,46.85,61.734,76.518,85.211c4.44-2.921,8.036-5.941,12.144-7.875c17.883-8.419,35.945-16.458,53.863-24.803
			c2.899-1.351,5.065-1.238,7.799,0.434c16.637,10.172,34.153,18.547,52.69,24.647c3.449,1.135,4.467,2.808,4.491,6.382
			c0.11,16.66,0.666,33.316,0.817,49.977c0.047,5.177-0.676,10.36-1.122,16.591c9.259,1.889,19.389,4.391,29.662,5.938
			c12.334,1.856,24.793,2.888,37.193,4.312c1.133,0.13,2.235,0.514,3.353,0.779c-107.293,0-214.585,0-321.939,0
			c0-226.333,0-452.667,0-679C128.415,24,235.707,24,343,24z"/>
		<path fill-rule="evenodd" clip-rule="evenodd" fill="#FFFFFF" d="M361.948,473.045c-53.226-0.348-100.12-38.379-109.76-89.735
			c-10.551-56.204,26.237-112.356,82.084-125.292c52.983-12.272,105.901,11.766,128.457,58.608
			c30.305,62.938-5.452,135.449-73.274,152.278C380.495,471.127,371.127,471.705,361.948,473.045z"/>
	</g>
</g>
</svg>
