<?xml version="1.0" encoding="utf-8"?>
<!-- Generator: Adobe Illustrator 16.0.3, SVG Export Plug-In . SVG Version: 6.00 Build 0)  -->
<!DOCTYPE svg PUBLIC "-//W3C//DTD SVG 1.1//EN" "http://www.w3.org/Graphics/SVG/1.1/DTD/svg11.dtd">
<svg version="1.1" id="VOTER_final_xA0_Image_1_" xmlns="http://www.w3.org/2000/svg" xmlns:xlink="http://www.w3.org/1999/xlink"
	 x="0px" y="0px" width="479px" height="671px" viewBox="0 0 479 671" enable-background="new 0 0 479 671" xml:space="preserve">
<g>
	<g>
		<path fill-rule="evenodd" clip-rule="evenodd" d="M1,336.631C1,226.155,1.025,115.679,0.893,5.203
			c-0.005-3.732,0.921-4.292,4.402-4.29c156.799,0.101,313.599,0.1,470.397,0.003c3.448-0.002,4.418,0.51,4.416,4.275
			c-0.121,220.951-0.119,441.903-0.009,662.855c0.002,3.518-0.822,4.043-4.145,4.041c-156.966-0.101-313.932-0.112-470.897,0.046
			c-4.137,0.004-4.111-1.481-4.109-4.574C1.01,557.25,1,446.94,1,336.631z M459.994,336.516c0-103.995-0.031-207.989,0.105-311.983
			c0.006-4.481-1.027-5.646-5.596-5.642c-142.325,0.135-284.651,0.133-426.978,0.005c-4.5-0.004-5.631,1.057-5.629,5.605
			c0.125,207.655,0.124,415.312,0.005,622.968c-0.002,4.48,1.026,5.646,5.593,5.641c142.326-0.134,284.652-0.133,426.978-0.005
			c4.5,0.005,5.637-1.057,5.63-5.605C459.961,543.838,459.994,440.177,459.994,336.516z"/>
		<path fill-rule="evenodd" clip-rule="evenodd" fill="#FDFDFD" d="M459.994,336.516c0,103.661-0.033,207.322,0.109,310.983
			c0.007,4.549-1.13,5.61-5.63,5.605c-142.326-0.128-284.652-0.129-426.978,0.005c-4.567,0.005-5.596-1.16-5.593-5.641
			c0.119-207.656,0.12-415.313-0.005-622.968c-0.002-4.549,1.129-5.609,5.629-5.605c142.326,0.128,284.652,0.13,426.978-0.005
			c4.568-0.005,5.602,1.16,5.596,5.642C459.963,128.526,459.994,232.521,459.994,336.516z M103.104,420.563
			c-4.833,0-9.686,0.275-14.491-0.087c-3.882-0.292-4.599,1.102-4.59,4.742c0.124,53.325,0.129,106.649-0.008,159.974
			c-0.01,3.822,1.05,4.65,4.727,4.641c48.992-0.125,97.984-0.136,146.976,0.013c4.015,0.012,4.937-1.109,4.923-4.992
			c-0.143-43.492-0.099-86.985-0.105-130.478c0.971-1.55,1.892-3.132,2.916-4.645c17.732-26.168,38.479-49.772,61.117-71.761
			c22.972-22.312,47.485-42.82,73.019-62.118c2.678-2.023,3.768-3.808,2.894-7.423c-1.797-7.438-2.455-15.08-2.582-22.775
			c-0.342-20.643,4.691-40.231,11.576-59.422c4.418-12.314,8.397-24.807,13.936-36.7c0.521,1.752,1.203,3.475,1.53,5.262
			c0.737,4.033,2.667,5.836,7.093,5.383c4.618-0.473,9.323-0.026,13.986-0.147c1.674-0.044,4.297,1.006,4.706-1.432
			c0.467-2.78,1.776-6.675-0.62-8.419c-5.137-3.739-6.582-9.175-7.881-14.542c-3.001-12.401-7.045-24.575-8.532-37.323
			c-0.053-0.453-0.137-1.291-0.229-1.294c-4.647-0.169-4.021-5.351-6.893-7.212c-2.231-1.445-1.409-2.688,0.252-4.197
			c5.95-5.41,9.715-12.165,11.677-19.945c3.527-13.991,3.666-28.07,0.176-42.015c-3.964-15.839-13.159-22.665-29.522-22.714
			c-9.498-0.029-18.998-0.063-28.496,0.049c-1.64,0.02-4.23-1.165-4.763,1.251c-0.62,2.813-1.774,6.915,0.485,8.53
			c5.684,4.063,5.205,9.716,5.314,15.257c0.214,10.829,0.128,21.663,0.126,32.495c-0.005,25.664,0.01,51.328-0.097,76.991
			c-0.018,4.117,0.747,9.25-2.546,11.849c-4.716,3.723-3.702,7.914-3.237,12.434c-5.47,6.898-11.052,13.711-16.392,20.708
			c-47.648,62.441-90.435,128.165-131.543,195.019c-1.119,1.82-1.947,3.872-3.788,5.173c-11.139-0.014-22.278-0.027-33.417-0.042
			c-0.679-1.5-1.482-2.957-2.018-4.507c-11.956-34.55-23.871-69.113-35.852-103.653c-0.604-1.743-0.596-3.884-2.594-5.197
			c-14.949,33.333-29.803,66.56-44.805,99.72c-1.314,2.906-0.195,3.713,2.129,4.689C93.162,414.014,98.511,416.643,103.104,420.563z
			 M121.948,120.9c0.128,12.675,0.592,23.676,2.13,34.563c1.75,12.379,4.163,24.676,11.736,35.111
			c10.899,15.018,31.049,15.485,42.773,1.092c5.246-6.44,8.467-13.93,10.417-21.889c7.406-30.22,7.112-60.698,2.392-91.234
			c-1.558-10.081-4.531-19.796-10.682-28.169c-11.101-15.111-31.057-15.402-42.632-0.705c-4.274,5.428-7.1,11.6-9.198,18.132
			C123.161,85.626,122.329,104.067,121.948,120.9z M289.729,120.515c0.031,0,0.063,0,0.096,0c0,6.996,0.082,13.993-0.018,20.987
			c-0.191,13.316,0.584,26.646-0.537,39.949c-0.275,3.256-1.23,5.982-4.168,8.064c-3.137,2.223-1.305,5.84-1.398,8.814
			c-0.064,2.074,2.024,1.733,3.482,1.734c17.489,0.008,34.979-0.059,52.468,0.069c2.844,0.021,3.236-1.177,3.281-3.546
			c0.236-12.322,0.584-24.642,0.93-36.961c0.057-1.995-0.066-4.185-2.665-3.58c-2.573,0.598-6.611-2.667-7.622,2.546
			c-0.854,4.403-1.544,8.844-2.566,13.207c-2.897,12.365-4.075,13.081-16.763,13.227c-3.561,0.04-4.374-0.948-4.335-4.404
			c0.189-16.655,0.338-33.319-0.064-49.966c-0.124-5.16,1.605-6.006,6.111-5.701c3.679,0.249,4.912,2.479,5.696,5.242
			c0.768,2.703,1.344,5.525,1.494,8.323c0.243,4.507,3.38,3.392,6.027,3.571c3.519,0.239,3.042-2.184,3.043-4.327
			c0.003-13.492,0.008-26.984-0.006-40.477c-0.002-2.101,0.58-4.519-2.984-4.401c-2.975,0.099-6.122-0.662-6.144,4.037
			c-0.016,3.505-0.784,6.965-2.293,10.149c-2.009,4.238-6.044,2.997-9.28,2.7c-3.023-0.277-1.406-3.25-1.426-4.881
			c-0.159-12.99-0.089-25.983-0.089-38.976c0-9.964,0.004-9.753,10.2-9.937c5.002-0.091,7.969,2.023,9.309,6.498
			c1.33,4.443,2.604,8.957,3.274,13.531c0.826,5.627,4.873,2.335,7.385,2.963c2.911,0.727,3.036-1.547,3.027-3.729
			c-0.041-9.994-0.182-19.992,0.067-29.98c0.092-3.687-1.264-4.427-4.618-4.398c-16.655,0.144-33.313,0.034-49.97,0.114
			c-1.654,0.008-4.256-1.113-4.78,1.267c-0.618,2.8-1.765,6.836,0.521,8.512c5.594,4.102,5.213,9.745,5.258,15.292
			C289.82,84.203,289.729,102.359,289.729,120.515z M83.458,151.865c-0.353-0.015-0.706-0.029-1.059-0.045
			c-2.713-19.089-5.488-38.169-8.113-57.27c-1.381-10.05-2.729-20.115-3.642-30.215c-0.452-4.993-1.023-10.138,4.75-13.612
			c2.377-1.431,1.016-5.596,0.606-8.42c-0.329-2.27-2.733-1.318-4.236-1.334c-8.327-0.083-16.656-0.075-24.984-0.01
			c-1.681,0.014-4.335-0.842-4.486,1.729c-0.163,2.772-1.81,6.329,0.963,8.353c3.973,2.898,4.981,6.962,5.626,11.219
			c6.406,42.246,12.803,84.494,19.024,126.769c1.81,12.298,1.548,12.216,13.66,12.131c2.788-0.02,3.698-1,4.137-3.477
			c1.363-7.689,2.869-15.353,4.333-23.023c7.007-36.723,13.957-73.456,21.097-110.152c0.992-5.098,1.94-10.254,7.038-13.74
			c2.339-1.6,1.004-5.6,0.586-8.412c-0.33-2.217-2.71-1.374-4.241-1.394c-6.162-0.078-12.325-0.063-18.488-0.011
			c-1.549,0.014-3.973-0.622-3.965,1.735c0.01,2.783-1.894,6.593,1.031,8.238c3.96,2.229,4.513,5.555,4.695,9.177
			c0.174,3.473,0.111,7.031-0.449,10.453c-2.925,17.878-6.035,35.725-9.094,53.58C86.665,133.381,85.055,142.622,83.458,151.865z
			 M248.1,119.519c0-19.324-0.053-38.649,0.088-57.973c0.012-1.787-1.732-4.745,1.545-5.368c2.98-0.565,6.139-0.203,7.916,2.871
			c0.985,1.704,1.682,3.6,2.33,5.471c1.701,4.905,2.355,10.067,2.803,15.169c0.502,5.743,4.548,2.77,7.061,3.317
			c3.174,0.691,3.374-1.517,3.361-3.949c-0.061-11.327-0.139-22.657,0.042-33.983c0.054-3.333-1.054-4.228-4.29-4.208
			c-20.657,0.127-41.315,0.132-61.972-0.004c-3.321-0.021-4.28,1.022-4.226,4.274c0.177,10.492,0.065,20.989,0.066,31.484
			c0,6.616,0.002,6.49,6.409,6.512c2.616,0.008,3.949-0.471,3.96-3.454c0.01-2.636,0.551-5.296,1.095-7.896
			c0.916-4.376,1.534-8.866,4.049-12.744c2.063-3.181,5.359-3.579,8.42-2.765c2.425,0.645,1.131,3.428,1.137,5.188
			c0.089,26.488,0.068,52.976,0.059,79.464c-0.005,12.327,0.063,24.656-0.117,36.981c-0.07,4.798-0.323,9.409-5.797,12.22
			c-2.745,1.41-1.013,5.479-0.88,8.278c0.109,2.3,2.509,1.634,4.059,1.643c8.33,0.047,16.66,0.074,24.989-0.022
			c1.648-0.019,4.175,1.045,4.667-1.483c0.526-2.699,1.41-7.183-0.312-8.06c-8.188-4.17-6.252-11.53-6.36-17.989
			C247.905,154.84,248.1,137.178,248.1,119.519z"/>
		<path fill-rule="evenodd" clip-rule="evenodd" fill="#EB1D25" d="M403.406,189.53c-5.534,11.895-9.514,24.387-13.932,36.701
			c-6.885,19.19-11.918,38.779-11.576,59.422c0.127,7.695,0.785,15.338,2.582,22.775c0.874,3.615-0.216,5.399-2.894,7.423
			c-25.533,19.298-50.047,39.807-73.019,62.118c-22.639,21.988-43.385,45.593-61.117,71.761c-1.024,1.513-1.945,3.095-2.916,4.645
			c-5.018,7.35-9.893,14.785-13.722,22.849c-18.063,31.022-30.086,64.514-40.361,98.72c-2,3.832-2.058,8.447-4.792,12.55
			c-2.08-4.504-3.933-8.516-5.786-12.527c-3.667-9.945-7.411-19.863-10.988-29.84c-9.065-25.285-15.823-51.359-25.931-76.282
			c-5.25-12.945-11.272-25.514-21.003-35.87c-4.152-5.353-8.988-9.949-14.848-13.411c-4.594-3.92-9.942-6.549-15.445-8.862
			c-2.324-0.977-3.443-1.783-2.129-4.689c15.001-33.16,29.855-66.387,44.805-99.72c1.998,1.313,1.99,3.454,2.594,5.197
			c11.981,34.54,23.896,69.104,35.852,103.653c0.536,1.55,1.339,3.007,2.02,4.507c0.648,4.769,2.593,9.118,4.354,13.527
			c2.47,7.402,4.94,14.806,7.813,23.419c4.959-8.689,9.149-16.029,13.338-23.369c3.034-4.28,6.097-8.543,7.913-13.534
			c1.839-1.302,2.667-3.354,3.786-5.174c41.109-66.854,83.895-132.577,131.543-195.019c5.34-6.997,10.922-13.81,16.392-20.708
			c8.484,0.092,16.97,0.216,25.454,0.268c7.115,0.043,7.184-0.094,6.72-7.259c-0.088-1.366-0.104-2.567-1.52-3.379
			c-3.649-2.093-4.341-5.72-4.46-9.462c-0.126-3.988,0.007-7.984,0.026-11.977c4.204-4.364,8.408-8.729,12.611-13.093
			C397.65,166.437,400.528,177.983,403.406,189.53z"/>
		<path fill-rule="evenodd" clip-rule="evenodd" d="M382.16,167.982c-0.02,3.992-0.152,7.988-0.026,11.977
			c0.119,3.742,0.811,7.369,4.46,9.462c1.416,0.812,1.432,2.013,1.52,3.379c0.464,7.165,0.396,7.302-6.72,7.259
			c-8.484-0.052-16.97-0.176-25.454-0.268c-0.465-4.52-1.479-8.711,3.237-12.434c3.293-2.599,2.528-7.731,2.546-11.849
			c0.106-25.663,0.092-51.327,0.097-76.991c0.002-10.832,0.088-21.666-0.126-32.495c-0.109-5.541,0.369-11.194-5.314-15.257
			c-2.26-1.615-1.105-5.717-0.485-8.53c0.532-2.416,3.123-1.231,4.763-1.251c9.498-0.112,18.998-0.078,28.496-0.049
			c16.363,0.049,25.559,6.875,29.522,22.714c3.49,13.944,3.352,28.023-0.176,42.015c-1.962,7.78-5.727,14.535-11.677,19.945
			c-1.661,1.51-2.483,2.752-0.252,4.197c2.871,1.861,2.245,7.043,6.893,7.212c0.093,0.003,0.177,0.841,0.229,1.294
			c1.487,12.748,5.531,24.922,8.532,37.323c1.299,5.367,2.744,10.803,7.881,14.542c2.396,1.744,1.087,5.639,0.62,8.419
			c-0.409,2.438-3.032,1.388-4.706,1.432c-4.663,0.121-9.368-0.325-13.986,0.147c-4.426,0.453-6.355-1.35-7.093-5.383
			c-0.327-1.787-1.01-3.51-1.532-5.263c-2.88-11.547-5.758-23.094-8.637-34.641c-0.436-2.104-0.788-4.229-1.324-6.307
			c-1.033-4.009-1.927-8.07-4.013-11.728c-1.339-2.346-3.482-3.146-5.93-2.723c-2.828,0.49-1.419,2.93-1.433,4.406
			C381.984,148.353,382.106,158.168,382.16,167.982z M400.957,87.09c0.206-7.862-0.204-15.672-3.165-23.062
			c-2.575-6.428-6.483-8.561-13.253-8.091c-1.885,0.131-2.582,0.546-2.576,2.533c0.062,19.308,0.056,38.614,0.007,57.922
			c-0.005,1.885,0.537,2.483,2.517,2.603c6.53,0.395,10.864-2.226,13.447-8.819C400.842,102.751,401.055,94.928,400.957,87.09z"/>
		<path fill-rule="evenodd" clip-rule="evenodd" d="M121.948,120.9c0.38-16.833,1.212-35.274,6.937-53.099
			c2.098-6.532,4.923-12.704,9.198-18.132c11.575-14.697,31.531-14.406,42.632,0.705c6.151,8.373,9.124,18.088,10.682,28.169
			c4.721,30.536,5.015,61.015-2.392,91.234c-1.951,7.959-5.172,15.448-10.417,21.889c-11.724,14.394-31.874,13.926-42.773-1.092
			c-7.573-10.436-9.986-22.732-11.736-35.111C122.54,144.576,122.077,133.575,121.948,120.9z M142.759,119.008
			c0.156,11.66,0.072,23.339,1.424,34.939c1.077,9.24,2.066,18.555,6.545,26.976c1.694,3.187,3.922,5.953,7.952,5.962
			c4.107,0.008,6.131-2.971,7.768-6.147c3.246-6.303,4.628-13.169,5.45-20.114c3.087-26.09,2.818-52.205-0.094-78.281
			c-0.921-8.243-2.137-16.576-6.774-23.78c-3.875-6.018-9.613-6.063-13.692-0.232c-2.216,3.168-3.442,6.796-4.377,10.529
			C142.828,85.348,143.025,102.196,142.759,119.008z"/>
		<path fill-rule="evenodd" clip-rule="evenodd" d="M103.104,420.563c5.86,3.462,10.696,8.059,14.848,13.411
			c-5.493,0.05-10.991,0.253-16.478,0.086c-2.804-0.085-3.649,0.732-3.644,3.592c0.085,44.967,0.087,89.933-0.004,134.899
			c-0.005,2.864,0.828,3.561,3.605,3.546c24.813-0.126,49.628-0.107,74.442-0.131c1.853,4.012,3.706,8.023,5.786,12.527
			c2.734-4.103,2.792-8.718,4.793-12.55c12.482,0.031,24.963,0.011,37.442,0.14c2.313,0.023,3.137-0.521,3.127-3.007
			c-0.133-31.95-0.158-63.901-0.21-95.853c3.829-8.063,8.704-15.499,13.722-22.849c0.007,43.492-0.037,86.985,0.105,130.478
			c0.014,3.883-0.908,5.004-4.923,4.992c-48.992-0.148-97.984-0.138-146.976-0.013c-3.676,0.01-4.736-0.818-4.727-4.641
			c0.137-53.324,0.132-106.648,0.008-159.974c-0.008-3.641,0.708-5.034,4.59-4.742C93.419,420.838,98.272,420.563,103.104,420.563z"
			/>
		<path fill-rule="evenodd" clip-rule="evenodd" d="M289.729,120.515c0-18.155,0.092-36.312-0.057-54.466
			c-0.045-5.547,0.336-11.19-5.258-15.292c-2.285-1.676-1.139-5.712-0.521-8.512c0.524-2.38,3.126-1.259,4.78-1.267
			c16.656-0.08,33.314,0.029,49.97-0.114c3.354-0.028,4.71,0.712,4.618,4.398c-0.249,9.988-0.108,19.986-0.067,29.98
			c0.009,2.183-0.116,4.456-3.027,3.729c-2.512-0.628-6.559,2.664-7.385-2.963c-0.671-4.574-1.944-9.088-3.274-13.531
			c-1.34-4.475-4.307-6.589-9.309-6.498c-10.196,0.184-10.2-0.027-10.2,9.937c0,12.992-0.07,25.985,0.089,38.976
			c0.02,1.631-1.598,4.604,1.426,4.881c3.236,0.297,7.271,1.538,9.28-2.7c1.509-3.185,2.277-6.645,2.293-10.149
			c0.021-4.699,3.169-3.938,6.144-4.037c3.564-0.117,2.982,2.301,2.984,4.401c0.014,13.492,0.009,26.984,0.006,40.477
			c-0.001,2.144,0.476,4.566-3.043,4.327c-2.647-0.18-5.784,0.936-6.027-3.571c-0.15-2.798-0.727-5.62-1.494-8.323
			c-0.784-2.764-2.018-4.993-5.696-5.242c-4.506-0.305-6.235,0.541-6.111,5.701c0.402,16.646,0.254,33.311,0.064,49.966
			c-0.039,3.456,0.774,4.444,4.335,4.404c12.688-0.146,13.865-0.861,16.763-13.227c1.022-4.363,1.712-8.804,2.566-13.207
			c1.011-5.213,5.049-1.948,7.622-2.546c2.599-0.604,2.722,1.585,2.665,3.58c-0.346,12.319-0.693,24.639-0.93,36.961
			c-0.045,2.369-0.438,3.566-3.281,3.546c-17.488-0.128-34.979-0.062-52.468-0.069c-1.458-0.001-3.547,0.34-3.482-1.734
			c0.094-2.975-1.738-6.592,1.398-8.814c2.938-2.082,3.893-4.809,4.168-8.064c1.121-13.303,0.346-26.633,0.537-39.949
			c0.1-6.994,0.018-13.991,0.018-20.987C289.792,120.515,289.76,120.515,289.729,120.515z"/>
		<path fill-rule="evenodd" clip-rule="evenodd" d="M83.458,151.865c1.598-9.243,3.207-18.484,4.791-27.73
			c3.059-17.855,6.169-35.702,9.094-53.58c0.56-3.422,0.623-6.98,0.449-10.453c-0.182-3.622-0.735-6.948-4.695-9.177
			c-2.925-1.646-1.021-5.455-1.031-8.238c-0.008-2.357,2.416-1.722,3.965-1.735c6.163-0.052,12.326-0.067,18.488,0.011
			c1.531,0.02,3.912-0.823,4.241,1.394c0.418,2.813,1.753,6.813-0.586,8.412c-5.097,3.486-6.046,8.643-7.038,13.74
			c-7.141,36.696-14.09,73.43-21.097,110.152c-1.464,7.671-2.97,15.334-4.333,23.023c-0.439,2.477-1.349,3.457-4.137,3.477
			c-12.112,0.085-11.851,0.167-13.66-12.131c-6.222-42.274-12.618-84.522-19.024-126.769c-0.645-4.257-1.654-8.32-5.626-11.219
			c-2.773-2.023-1.126-5.58-0.963-8.353c0.151-2.571,2.806-1.716,4.486-1.729c8.328-0.065,16.657-0.073,24.984,0.01
			c1.502,0.016,3.907-0.936,4.236,1.334c0.409,2.824,1.771,6.989-0.606,8.42c-5.773,3.475-5.202,8.619-4.75,13.612
			c0.913,10.1,2.261,20.165,3.642,30.215c2.625,19.101,5.4,38.181,8.113,57.27C82.751,151.836,83.104,151.851,83.458,151.865z"/>
		<path fill-rule="evenodd" clip-rule="evenodd" d="M248.1,119.519c0,17.659-0.194,35.321,0.103,52.975
			c0.108,6.459-1.828,13.819,6.36,17.989c1.722,0.877,0.838,5.36,0.312,8.06c-0.492,2.528-3.019,1.465-4.667,1.483
			c-8.329,0.097-16.659,0.069-24.989,0.022c-1.549-0.009-3.949,0.657-4.059-1.643c-0.133-2.8-1.865-6.868,0.88-8.278
			c5.474-2.811,5.727-7.422,5.797-12.22c0.18-12.325,0.112-24.654,0.117-36.981c0.01-26.488,0.03-52.976-0.059-79.464
			c-0.006-1.761,1.288-4.544-1.137-5.188c-3.061-0.814-6.357-0.416-8.42,2.765c-2.515,3.878-3.133,8.368-4.049,12.744
			c-0.544,2.6-1.085,5.26-1.095,7.896c-0.011,2.983-1.345,3.462-3.96,3.454c-6.407-0.021-6.409,0.104-6.409-6.512
			c0-10.495,0.111-20.992-0.066-31.484c-0.055-3.252,0.905-4.296,4.226-4.274c20.656,0.136,41.314,0.131,61.972,0.004
			c3.236-0.02,4.344,0.875,4.29,4.208c-0.181,11.326-0.103,22.656-0.042,33.983c0.013,2.433-0.188,4.641-3.361,3.949
			c-2.513-0.548-6.559,2.426-7.061-3.317c-0.447-5.102-1.102-10.264-2.803-15.169c-0.648-1.871-1.345-3.767-2.33-5.471
			c-1.777-3.074-4.936-3.437-7.916-2.871c-3.277,0.623-1.533,3.581-1.545,5.368C248.047,80.869,248.1,100.194,248.1,119.519z"/>
		<path fill-rule="evenodd" clip-rule="evenodd" d="M175.155,434.176c-1.761-4.409-3.707-8.759-4.354-13.527
			c11.138,0.015,22.277,0.028,33.417,0.042c-1.814,4.992-4.878,9.255-7.914,13.534C189.253,434.208,182.204,434.191,175.155,434.176
			z"/>
		<path fill-rule="evenodd" clip-rule="evenodd" fill="#FDFDFD" d="M175.875,575.966c-24.814,0.023-49.629,0.005-74.442,0.131
			c-2.777,0.015-3.61-0.682-3.605-3.546c0.091-44.967,0.089-89.933,0.004-134.899c-0.005-2.859,0.84-3.677,3.644-3.592
			c5.487,0.167,10.984-0.036,16.478-0.086c9.731,10.356,15.753,22.925,21.003,35.87c10.108,24.923,16.866,50.997,25.931,76.282
			C168.464,556.103,172.208,566.021,175.875,575.966z"/>
		<path fill-rule="evenodd" clip-rule="evenodd" fill="#FDFDFD" d="M226.813,477.224c0.052,31.951,0.077,63.902,0.21,95.853
			c0.01,2.485-0.814,3.03-3.127,3.007c-12.479-0.129-24.96-0.108-37.442-0.14C196.727,541.737,208.75,508.246,226.813,477.224z"/>
		<path fill-rule="evenodd" clip-rule="evenodd" fill="#FDFDFD" d="M382.16,167.982c-0.054-9.814-0.176-19.63-0.088-29.443
			c0.014-1.477-1.396-3.916,1.433-4.406c2.447-0.424,4.591,0.377,5.93,2.723c2.086,3.657,2.979,7.719,4.013,11.728
			c0.536,2.078,0.889,4.203,1.324,6.307C390.568,159.254,386.364,163.618,382.16,167.982z"/>
		<path fill-rule="evenodd" clip-rule="evenodd" fill="#FDFDFD" d="M175.155,434.176c7.049,0.016,14.099,0.032,21.149,0.049
			c-4.187,7.341-8.376,14.681-13.336,23.37C180.095,448.981,177.625,441.578,175.155,434.176z"/>
		<path fill-rule="evenodd" clip-rule="evenodd" fill="#FDFDFD" d="M400.961,87.088c0.094,7.84-0.119,15.663-3.027,23.088
			c-2.583,6.594-6.917,9.214-13.447,8.819c-1.979-0.119-2.521-0.718-2.517-2.603c0.049-19.308,0.055-38.614-0.007-57.922
			c-0.006-1.987,0.691-2.402,2.576-2.533c6.77-0.47,10.678,1.663,13.253,8.091C400.753,71.418,401.163,79.228,400.961,87.088z"/>
		<path fill-rule="evenodd" clip-rule="evenodd" fill="#FDFDFD" d="M142.752,119.008c0.273-16.812,0.076-33.66,4.208-50.149
			c0.935-3.733,2.162-7.361,4.377-10.529c4.079-5.83,9.817-5.785,13.692,0.232c4.638,7.204,5.854,15.537,6.774,23.78
			c2.912,26.076,3.181,52.191,0.094,78.281c-0.822,6.945-2.204,13.812-5.45,20.114c-1.637,3.177-3.66,6.155-7.768,6.147
			c-4.03-0.009-6.257-2.775-7.952-5.962c-4.479-8.421-5.468-17.735-6.545-26.976C142.831,142.347,142.915,130.668,142.752,119.008z"
			/>
	</g>
</g>
</svg>
