<?xml version="1.0" encoding="utf-8"?>
<!-- Generator: Adobe Illustrator 14.0.0, SVG Export Plug-In . SVG Version: 6.00 Build 43363)  -->
<!DOCTYPE svg PUBLIC "-//W3C//DTD SVG 1.1//EN" "http://www.w3.org/Graphics/SVG/1.1/DTD/svg11.dtd">
<svg version="1.1" id="Votewise_logo_no_background3_xA0_Image_1_"
	 xmlns="http://www.w3.org/2000/svg" xmlns:xlink="http://www.w3.org/1999/xlink" x="0px" y="0px" width="1665px" height="672px"
	 viewBox="0 0 1665 672" enable-background="new 0 0 1665 672" xml:space="preserve">
<g>
	<g>
		<path d="M850.842,300.479c-9.674-20.493-15.228-42.043-17.128-64.632C826.1,145.332,884.135,65.988,965.87,35.232
			c27.404-10.312,55.833-15.805,84.996-14.158c84.744,4.784,149.104,42.627,187.581,119.783
			c14.988,30.056,20.375,62.498,16.77,96.013c-1.434,13.327-4.479,26.479-6.79,39.7c-2.364,5.919-4.73,11.849-7.099,17.778
			c-18.184,41.224-46.873,73.061-85.676,95.847c-4.721,2.771-9.53,5.389-14.299,8.076c-10.732,4.224-21.467,8.446-32.199,12.67
			c-10.373,2.134-20.683,4.667-31.13,6.328c-40.611,6.456-79.932,1.382-117.972-14.023c-4.604-1.864-9.07-4.069-13.603-6.116
			C902.994,376.376,871.029,344.253,850.842,300.479z M1146.428,377.881c0.571-0.21,1.076-0.308,1.486-0.561
			c54.09-33.278,86.494-80.858,91.678-144.59c4.391-53.995-12.867-101.827-51.533-139.679
			C1126.7,32.985,1053.654,18.339,973.663,47.82c-59.176,21.809-97.771,65.045-115.029,126.32
			c-1.057,3.752-1.979,7.996-1.306,11.709c6.756,37.157,13.836,74.256,20.889,111.359c1.332,7.009,1.421,14.812,4.735,20.774
			c8.114,14.598,19.755,26.588,32.832,38.133c1.566-8.701,3.014-16.732,4.553-25.275c5.134,3.162,9.706,5.829,14.123,8.732
			c6.423,4.224,7.52,4.041,13.275-1.256c3.114-2.866,2.798-4.503-0.626-6.832c-6.312-4.291-12.362-8.97-18.429-13.61
			c-3.798-2.906-5.482-6.395-4.594-11.637c11.716-69.063,23.257-138.156,34.671-207.271c0.62-3.751,1.747-4.928,5.571-4.894
			c20.828,0.188,41.658,0.083,62.485,0.102c1.552,0.001,3.102,0.181,4.989,0.298c-5.142,27.832-10.128,54.977-15.172,82.11
			c-13.105,70.502-26.22,141.003-39.419,211.487c-0.611,3.268,0.2,4.75,3.375,5.812c28.172,9.423,57.03,12.791,86.576,9.892
			c7.006-0.688,13.941-2.096,21.547-3.271c-1.464-2.938-2.458-5.008-3.517-7.044c-21.195-40.778-25.779-83.816-17.501-128.603
			c8.147-44.079,29.449-81.309,59.59-113.855c1.417-1.53,4.292-2.391,6.495-2.405c25.661-0.163,51.321-0.104,76.982-0.104
			c1.565,0,3.13,0,4.695,0c-3.056,3.594-6.385,6.052-9.594,8.659c-44.315,36.007-73.849,80.388-78.433,138.829
			C1125.139,325.254,1132.074,352.407,1146.428,377.881z"/>
		<path d="M850.842,300.479c20.188,43.773,52.152,75.896,95.609,96.65c1.591,1.382,3.182,2.765,4.537,3.941
			c-13.047,70.228-26.09,140.434-39.133,210.641c-0.239,0.007-0.479,0.014-0.72,0.021c-15.658-80.047-31.316-160.094-46.976-240.141
			c-0.428-0.023-0.854-0.048-1.282-0.07c-14.261,79.959-28.521,159.92-42.782,239.88c-0.277,0.002-0.557,0.005-0.835,0.007
			c-29.419-149.884-58.838-299.768-88.354-450.148c16.678,0,32.87,0,49.424,0c12.91,73.853,25.812,147.654,38.714,221.457
			c0.42,0.03,0.84,0.061,1.26,0.092c6.35-34.869,12.697-69.738,19.045-104.606c0.381-0.05,0.763-0.1,1.143-0.149
			c2.05,5.293,3.958,10.647,6.215,15.85C847.726,296.25,849.441,298.296,850.842,300.479z"/>
		<path d="M90.055,161.431c15.701,0,30.985,0,47.024,0c13.021,75.078,26.059,150.261,39.097,225.442
			c0.609,0.029,1.219,0.059,1.828,0.087c13.025-75.107,26.05-150.215,39.105-225.493c15.482,0,30.729,0,46.423,0
			c-28.672,150.125-57.279,299.906-85.886,449.688c-0.364,0.021-0.728,0.04-1.092,0.06
			C147.741,461.387,118.927,311.561,90.055,161.431z"/>
		<path d="M287.197,422.001c0-35.147,0.443-70.304-0.121-105.442c-0.604-37.667,27.634-61.39,61.704-62.701
			c20.551-0.791,38.848,4.682,53.368,19.971c10.444,10.998,15.592,24.293,15.61,39.363c0.098,72.46,0.047,144.923,0.042,217.385
			c-0.003,30.588-21.153,54.873-51.426,59.188c-17.419,2.482-34.229,0.932-49.79-7.836c-19.397-10.927-29.04-28.049-29.28-49.985
			C286.906,495.299,287.197,458.648,287.197,422.001z M376.372,421.493c0-32.31,0.028-64.617-0.035-96.926
			c-0.008-4.146-0.26-8.322-0.803-12.432c-1.474-11.149-6.619-16.128-17.887-17.037c-4.264-0.344-8.646-0.204-12.885,0.381
			c-7.466,1.03-12.633,5.384-14.211,12.79c-1.201,5.64-1.833,11.508-1.847,17.276c-0.13,57.289-0.098,114.579-0.062,171.868
			c0.007,9.816,0.014,19.642,0.438,29.444c0.675,15.584,6.517,21.884,22.004,22.323c14.32,0.408,23.627-2.077,24.861-21.803
			c0.249-3.979,0.402-7.972,0.407-11.958C376.387,484.112,376.372,452.803,376.372,421.493z"/>
		<path d="M647.104,453.137c24.634,0,48.905,0,73.615,0c0,12.901,0,25.438,0,38.5c-24.356,0-48.767,0-73.881,0
			c0,10.926-0.002,21.351,0.006,31.772c0,0.497,0.112,0.993,0.133,1.491c0.622,15.112,2.545,16.938,17.889,16.938
			c18.484,0.003,36.97,0.001,55.874,0.001c0,13.604,0,26.979,0,40.739c-1.227,0.137-2.495,0.405-3.766,0.402
			c-21.322-0.04-42.655,0.276-63.966-0.305c-17.345-0.473-32.377-6.25-41.08-22.713c-4.927-9.319-6.57-19.505-6.694-29.918
			c-0.149-12.479-0.035-24.961-0.035-38.244c-8.019,0-15.778-0.218-23.52,0.09c-3.95,0.157-6.245-1.083-8.313-4.533
			c-6.731-11.229-13.863-22.218-21.296-34.021c17.999,0,35.197,0,52.993,0c0-63.858,0-127.22,0-190.86c38.838,0,77.073,0,115.704,0
			c0,13.332,0,26.571,0,40.512c-24.322,0-48.848,0-73.663,0C647.104,353.262,647.104,402.836,647.104,453.137z"/>
		<path d="M1241.328,294.349c2.367-5.93,4.734-11.859,7.099-17.778c1.612-5.048,3.229-10.107,4.646-14.546
			c33.584,0,67.063,0,100.812,0c0,13.986,0,27.232,0,41.015c-24.537,0-48.938,0-73.706,0c0,50.224,0,99.915,0,150.143
			c24.568,0,48.974,0,73.677,0c0,12.959,0,25.387,0,38.345c-24.4,0-48.805,0-74.051,0c0,2.926-0.014,5.338,0.002,7.749
			c0.062,9.327,0.038,18.657,0.224,27.983c0.227,11.506,3.122,14.455,14.7,14.543c18.161,0.14,36.325,0.034,54.487,0.048
			c1.46,0.001,2.92,0.124,4.652,0.203c0,13.542,0,26.804,0,40.488c-1.249,0.153-2.511,0.442-3.772,0.44
			c-21.324-0.038-42.662,0.267-63.975-0.3c-17.342-0.461-32.393-6.178-41.141-22.623c-4.954-9.312-6.613-19.495-6.747-29.907
			c-0.16-12.489-0.038-24.981-0.038-38.349c-7.268,0-14.37-0.357-21.418,0.115c-5.423,0.364-8.657-1.284-11.456-6.153
			c-6.197-10.778-13.142-21.129-20.224-32.355c17.925,0,35.115,0,53.098,0c0-2.09,0-3.674,0-5.257
			c0.001-45.323,0.427-90.655-0.454-135.961C1237.61,305.4,1241.395,300.488,1241.328,294.349z"/>
		<path d="M482.188,303.266c-14.287,0-28.048,0-42.226,0c0-13.806,0-27.155,0-40.788c42.252,0,84.321,0,126.716,0
			c0,13.389,0,26.617,0,40.502c-14.13,0-28.172,0-42.751,0c0,93.506,0,186.361,0,279.52c-14.096,0-27.646,0-41.739,0
			C482.188,489.444,482.188,396.585,482.188,303.266z"/>
		<path d="M1109.154,410.941c10.732-4.224,21.467-8.446,32.199-12.67c1.907-0.524,3.815-1.05,5.633-1.549
			c11.942,23.286,25.06,46.058,35.539,69.982c13.898,31.732,7.742,62.893-7.757,92.616c-3.822,7.333-8.86,14.044-13.523,20.916
			c-0.798,1.176-2.519,2.436-3.823,2.448c-16.77,0.164-33.539,0.108-50.962,0.108c6.76-7.567,13.271-14.37,19.229-21.628
			c12.715-15.484,21.562-32.625,22.478-53.236c0.68-15.3-3.321-29.266-10.452-42.56c-9.11-16.984-18.208-33.977-27.278-50.981
			C1109.864,413.318,1109.574,412.095,1109.154,410.941z"/>
		<path d="M1022.429,420.568c14.675,0,29.604,0,43.052,0c-0.422,1.016-1.582,2.528-1.596,4.054
			c-0.138,14.803-0.084,29.606-0.084,44.412c0,36.624,0.003,73.248-0.006,109.872c0,1.126-0.112,2.252-0.186,3.628
			c-13.724,0-27.151,0-41.182,0C1022.429,528.619,1022.429,474.628,1022.429,420.568z"/>
		<path d="M1413.005,378.758c6.328,11.003,12.656,22.006,18.984,33.009c0.302-0.069,0.603-0.14,0.903-0.209
			c0-9.845,0-19.688,0-29.944c3.534,0,6.563,0,9.936,0c0,26.584,0,53.113,0,79.918c-3.157,0-6.078,0-9.632,0
			c0-7.358-0.231-14.641,0.075-21.898c0.232-5.517-0.735-10.425-4.006-14.993c-2.393-3.342-4.257-7.061-7.163-11.978
			c0,17.119,0,32.759,0,48.767c-3.609,0-6.643,0-9.972,0c0-27.557,0-54.951,0-82.347
			C1412.423,378.975,1412.714,378.866,1413.005,378.758z"/>
		<path d="M1487.126,382.423c0,3.104,0,5.989,0,9.329c-6.096,0-11.867,0-17.978,0c0,12.69,0,24.93,0,37.656
			c5.846,0,11.625,0,17.854,0c0,3.184,0,5.896,0,9.256c-5.826,0-11.722,0-17.281,0c-0.481,0.899-0.749,1.171-0.766,1.458
			c-0.688,11.717-0.687,11.717,11.122,11.719c2.286,0,4.571,0,7.116,0c0,3.507,0,6.432,0,9.781c-6.356,0-12.519,0.44-18.587-0.124
			c-6.015-0.561-9.315-4.654-9.678-10.855c-0.221-3.781-0.041-7.588-0.041-12.111c-7.821,2.241-9.944-3.008-12.753-8.69
			c4.312-0.194,8.163-0.369,12.527-0.565c0-15.622,0-31.026,0-46.852C1468.398,382.423,1477.599,382.423,1487.126,382.423z"/>
		<path d="M1490.393,382.238c10.404,0,20.52,0,31.022,0c0,2.937,0,5.853,0,9.38c-3.183,0-6.573,0-10.399,0
			c0,23.522,0,46.45,0,69.779c-3.464,0-6.494,0-10.045,0c0-22.987,0-45.9,0-69.356c-3.708,0-6.951,0-10.578,0
			C1490.393,388.615,1490.393,385.723,1490.393,382.238z"/>
		<path d="M1388.259,450.803c3.462,0,6.698,0,10.239,0c0,3.648,0,7.034,0,10.713c-3.355,0-6.585,0-10.239,0
			C1388.259,458.13,1388.259,454.771,1388.259,450.803z"/>
		<path d="M1257.316,233.729c0-8.891,0-17.78,0-26.67c0.076,0,0.151,0.001,0.229,0.001c0,8.933,0,17.865,0,26.798
			C1257.469,233.815,1257.393,233.772,1257.316,233.729z"/>
		<path d="M1032.203,19.477c8.265,0,16.529,0,24.793,0c0,0.087,0,0.175,0,0.263c-8.282,0-16.564,0-24.846,0
			C1032.168,19.651,1032.186,19.563,1032.203,19.477z"/>
		<path d="M831.733,209.973c0,6.943,0,13.886,0,20.828c-0.068,0.001-0.138,0.002-0.205,0.004c0-6.943,0-13.886,0-20.828
			C831.597,209.975,831.665,209.974,831.733,209.973z"/>
	</g>
</g>
</svg>
