<?xml version="1.0" encoding="utf-8"?>
<!-- Generator: Adobe Illustrator 16.0.3, SVG Export Plug-In . SVG Version: 6.00 Build 0)  -->
<!DOCTYPE svg PUBLIC "-//W3C//DTD SVG 1.1//EN" "http://www.w3.org/Graphics/SVG/1.1/DTD/svg11.dtd">
<svg version="1.1" id="CIVIL_LIBERTIES_final_xA0_Image_1_"
	 xmlns="http://www.w3.org/2000/svg" xmlns:xlink="http://www.w3.org/1999/xlink" x="0px" y="0px" width="1200px" height="1200px"
	 viewBox="0 0 1200 1200" enable-background="new 0 0 1200 1200" xml:space="preserve">
<g>
	<g>
		<path fill-rule="evenodd" clip-rule="evenodd" d="M1201,1201c-400,0-800,0-1200,0C1,801,1,401,1,1c400,0,800,0,1200,0
			C1201,401,1201,801,1201,1201z M601.559,1170.533c163.988,0,327.978-0.057,491.966,0.062c24.997,0.018,44.716-10.169,60.02-29.362
			c16.124-20.222,22.462-43.722,22.457-69.286c-0.037-172.988-0.019-345.977-0.019-518.964
			c-0.001-139.157-0.025-278.314,0.026-417.472c0.008-19.307-3.586-37.771-13.025-54.679c-14.876-26.645-36.46-43.645-68.243-43.653
			c-328.644-0.099-657.288-0.064-985.932-0.053c-22.708,0.001-41.316,9.152-56.042,26.111
			c-18.09,20.834-25.118,45.555-25.113,72.795c0.056,311.979,0.04,623.957,0.022,935.935c-0.001,12.552,1.446,24.842,5.229,36.871
			c12.787,40.656,41.247,61.696,83.688,61.696C278.248,1170.534,439.903,1170.534,601.559,1170.533z"/>
		<path fill-rule="evenodd" clip-rule="evenodd" fill="#FFFFFF" d="M601.559,1170.533c-161.655,0.001-323.311,0.001-484.966,0.001
			c-42.44,0-70.9-21.04-83.688-61.696c-3.783-12.029-5.23-24.319-5.229-36.871c0.017-311.978,0.034-623.956-0.022-935.935
			c-0.005-27.24,7.023-51.961,25.113-72.795c14.727-16.959,33.335-26.11,56.042-26.111c328.644-0.012,657.288-0.046,985.932,0.053
			c31.783,0.009,53.367,17.009,68.243,43.653c9.439,16.908,13.033,35.372,13.025,54.679c-0.052,139.157-0.027,278.314-0.026,417.472
			c0,172.987-0.019,345.976,0.019,518.964c0.005,25.564-6.333,49.064-22.457,69.286c-15.304,19.193-35.022,29.38-60.02,29.362
			C929.536,1170.477,765.547,1170.533,601.559,1170.533z M709.711,320.801c9.193-7.074,18.207-13.684,26.855-20.74
			c12.909-10.532,17.462-25.312,19.3-41.03c0.957-8.189-1.039-16.147-3.385-24.173c-2.548-8.715-6.837-16.274-13.266-21.94
			c-7.508-6.616-16.225-11.954-24.77-17.279c-11.561-7.205-23.313-14.135-35.261-20.677c-7.981-4.37-16.67-7.078-24.587-12.05
			c-8.137-5.11-13.225-12.198-18.798-19.244c-1.065-1.347-1.694-3.289-1.889-5.028c-0.622-5.548-0.85-11.138-1.41-16.693
			c-0.535-5.309-1.381-11.723-6.861-13.1c-6.165-1.55-13.02-0.356-20.034-0.356c0.735,2.536,1.4,4.201,1.68,5.929
			c0.485,2.996,2.14,7.153,0.803,8.829c-3.377,4.233-7.623,8.771-12.488,10.566c-6.009,2.219-12.998,1.766-19.559,2.516
			c-3.065,0.35-5.557-0.239-6.847-3.437c-1.854-4.592-3.777-9.155-5.94-14.382c-4.544-0.92-10.563-3.668-15.092,0.92
			c-8.618,8.73-4.175,16.56,2.761,22.411c-8.082-0.148-16.721-1.561-24.854-0.117c-8.881,1.576-17.255,5.909-25.928,8.81
			c-3.914,1.31-7.756,3.313-12.229,1.335c-15.812-6.993-29.694-16.961-43.462-27.232c-10.21-7.617-21.526-12.984-34.477-14.515
			c-8.568-1.013-17.253-2.065-24.741-7.007c-2.575-1.7-4.785-4.049-7.508-5.414c-9.409-4.717-15.725-12.88-22.697-20.216
			c-5.798-6.102-11.119-12.685-19.15-15.866c-2.274-0.901-6.592-1.345-7.525-0.126c-4.307,5.626-8.034,11.764-11.344,18.048
			c-1.104,2.096-1.272,5.629-0.249,7.707c2.199,4.462,5.575,8.328,8.226,12.589c1.589,2.554,2.718,5.394,4.054,8.105
			c-0.402,0.247-0.805,0.494-1.208,0.741c0.999-0.062,1.998-0.122,3.691-0.226c0.802,6.085,1.024,11.998,2.504,17.578
			c1.071,4.043,1.923,8.41,6.167,11.31c5.97,4.078,11.322,9.057,16.954,13.63c7.901,6.416,15.819,12.813,23.727,19.221
			c5.513,4.468,10.626,9.587,16.631,13.244c6.959,4.238,12.28,9.748,17.099,16.097c5.254,6.924,10.532,13.869,16.339,20.319
			c4.851,5.389,10.499,10.059,15.759,15.083c3.989,3.81,7.931,7.67,11.878,11.524c1.773,1.731,3.461,3.553,5.27,5.247
			c3.483,3.265,6.405,6.448,3.554,11.848c-0.852,1.613-0.326,4.274,0.24,6.265c3.007,10.578,11.809,16.04,19.992,21.931
			c6.044,4.351,12.867,7.764,18.374,12.681c7.185,6.415,13.426,13.89,20.032,20.946c0.889,0.95,2.426,2.491,2.159,3.137
			c-2.427,5.879,3.388,9.141,4.302,14.065c1.425,7.681,4.655,15.025,7.445,23.501c-3.613,0-5.779,0.289-7.843-0.051
			c-8.119-1.338-16.041-0.433-23.732,2.149c-9.735,3.27-20.061,5.121-28.097,12.519c-2.407,2.217-5.624,3.34-9.795,2.687
			c-7.688-1.206-15.779-2.047-23.383-0.907c-6.602,0.99-12.722,5.03-19.128,7.534c-6.646,2.598-12.372,5.979-14.766,13.357
			c-0.391,1.206-2.336,2.489-3.708,2.678c-3.019,0.414-6.148-0.068-9.198,0.202c-10.934,0.971-17.934,8.296-15.667,18.549
			c1.287,5.819,6.585,10.658,9.527,16.229c3.235,6.126,8.69,12.839,8.156,18.85c-1.315,14.809-6.242,29.023-17.575,39.911
			c-1.18,1.134-2.542,2.265-3.233,3.684c-2.189,4.489-3.902,9.215-6.16,13.666c-4.776,9.419-1.647,19.86,7.485,25.098
			c4.246,2.435,8.845,4.762,12.132,8.229c4.008,4.229,6.804,9.605,10.124,14.486c0.401-0.494,0.802-0.988,1.202-1.482
			c2.149,0.639,4.396,1.06,6.429,1.96c4.32,1.912,8.452,4.263,12.808,6.082c4.827,2.016,9.86,3.531,14.72,5.477
			c2.719,1.089,5.133,3.137,7.915,3.839c11.923,3.009,23.908,5.778,35.914,8.443c11.672,2.592,23.396,4.949,36.042,7.607
			c0,3.113-0.105,6.978,0.041,10.833c0.086,2.249-0.222,5.18,1.021,6.604c5.419,6.211,8.776,14.2,16.922,18.143
			c6.37,3.083,6.613,6.741,1.828,11.533c-8.454,8.47-17.166,16.69-25.404,25.362c-3.175,3.341-6.18,7.308-7.82,11.547
			c-3.974,10.269-6.935,20.925-10.627,31.31c-2.406,6.769-6.167,13.142-7.872,20.05c-1.645,6.66-7.761,12.107-5.464,19.791
			c-6.153,15.526-12.515,30.917-21.621,45.069c-3.591,5.58-6.606,11.718-8.766,17.987c-2.901,8.426-4,17.5-7.168,25.801
			c-5.23,13.703-11.677,26.937-17.273,40.507c-4.892,11.863-9.406,23.886-13.919,35.9c-2.447,6.517-4.303,13.26-6.855,19.731
			c-3.702,9.383-7.896,18.571-11.677,27.925c-1.889,4.672-3.563,9.459-4.921,14.31c-2.744,9.808-4.373,20.015-8.002,29.466
			c-4.268,11.113-10.197,21.585-15.352,32.361c-2.601,5.438-5.024,10.959-7.634,16.393c-2.528,5.266-4.354,11.164-7.993,15.531
			c-5.357,6.427-7.345,14.209-10.828,21.37c-2.413,4.961-3.712,10.543-6.584,15.181c-4.451,7.186-9.819,13.803-14.384,20.091
			c3.615,0.997,7.409,3.073,11.091,2.891c23.354-1.157,44.973,8.3,67.745,10.609c14.365,1.456,28.599,4.65,42.979,5.418
			c18.01,0.96,36.111,0.387,54.168,0.144c6.072-0.081,12.117-1.429,18.197-1.737c6.193-0.314,12.629-1.09,18.581,0.148
			c13.828,2.876,27.434,6.822,41.119,10.376c8.256,2.144,16.494,4.359,24.736,6.559c0.848,0.227,1.666,0.562,2.498,0.847
			c-0.044-0.836-0.035-1.678-0.14-2.506c-0.918-7.303-2.243-14.579-2.684-21.908c-0.468-7.805-0.021-15.661-0.154-23.492
			c-0.04-2.423-0.885-4.827-0.98-7.255c-0.23-5.829,1.026-12.043-0.578-17.429c-4.114-13.804-3.369-27.789-3.189-41.765
			c0.069-5.396,1.678-10.771,2.697-16.818c3.619,2.517,6.467,4.514,9.335,6.48c1.23,0.845,3.634,1.719,3.577,2.425
			c-0.421,5.274,2.6,8.783,4.803,13.146c4.478,8.869,6.839,18.809,10.019,28.324c0.252,0.753,0.268,1.68,0.098,2.461
			c-1.533,7.036,0.955,11.187,7.938,13.231c2.376,0.695,4.704,1.554,7.068,2.291c3.832,1.195,4.328,3.956,2.658,6.931
			c-5.947,10.592-1.461,18.84,5.503,25.689c6.601,6.492,13.777,12.452,21.071,18.174c9.248,7.254,19.507,10.424,30.725,4.57
			c4.656-2.43,9.114-5.375,13.283-8.58c10.28-7.901,19.802-16.46,25.34-28.708c2.953-6.531,2.685-12.476-2.222-17.988
			c-0.617-0.694-1.367-1.271-2.312-2.134c3.246-2.697,6.904-4.653,8.88-7.701c1.788-2.758,3.508-8.367,2.156-9.806
			c-3.464-3.685-2.648-6.612-1.35-10.397c0.73-2.128,0.49-4.567,0.989-6.799c1.813-8.094,1.596-16.771,7.633-23.632
			c2.194-2.492,4.657-5.961,4.589-8.929c-0.089-3.828,1.68-4.525,4.165-6.092c3.772-2.378,9.358-3.063,10.345-8.453
			c0.529-2.893,0.381-6.304-0.667-9.016c-2.945-7.625-3.193-17.399-14.036-19.516c-0.751-0.146-1.901-2.626-1.589-3.027
			c0.953-1.227,2.59-2.818,3.853-2.73c3.205,0.225,6.042,0.328,5.701-3.836c-0.257-3.14-1.39-6.205-2.092-9.313
			c-0.945-4.187-3.623-6.926-7.409-8.571c-3.448-1.498-6.923-3.108-10.552-3.966c-2.757-0.651-3.438-1.896-3.434-4.434
			c0.047-31.744,0.031-63.488,0.031-94.61c6.781-4.056,12.122-7.651,17.82-10.545c5.559-2.823,11.482-4.93,17.909-7.629
			c0.192-0.361,0.764-1.897,1.716-3.144c2.396-3.135,4.304-6.479,3.297-10.509c-1.525-6.107-3.01-12.272-5.205-18.154
			c-3.738-10.014-3.363-11.645,5.349-17.399c1.501-0.992,3.188-2.865,3.374-4.494c1.12-9.778,2.285-19.597,2.469-29.419
			c0.084-4.549-1.475-9.362-3.254-13.655c-2.613-6.307-5.681-12.518-9.34-18.271c-2.688-4.225-2.093-6.421,1.697-9.41
			c2.698-2.129,4.609-5.526,6.205-8.694c1.276-2.533,2.797-5.991,2.022-8.307c-2.054-6.137-4.813-12.171-8.188-17.696
			c-3.733-6.11-8.365-11.689-12.818-17.331c-1.343-1.702-3.191-3.321-5.158-4.158c-6.535-2.782-13.229-5.192-19.312-7.533
			c0.1-2.124,0.656-3.781,0.156-5.01c-2.702-6.64,1.406-11.395,4.769-15.888c3.291-4.399,7.845-7.836,11.689-11.844
			c3.456-3.601,6.966-7.205,9.957-11.18c2.334-3.102,4.238-6.734,2.095-10.875c-2.622-5.066-5.301-10.104-7.996-15.231
			c1.272-0.186,3.837-0.359,6.299-0.957c9.9-2.401,20.046-4.17,29.579-7.616c11.382-4.114,22.055-10.155,33.352-14.548
			c14.462-5.623,26.316-14.611,36.803-25.762c3.644-3.873,7-8.422,11.453-10.985c2.91-1.676,5.594-3.283,7.568-5.815
			c4.738-6.081,10.206-12.064,8.686-20.656c-0.715-4.042-2.751-7.842-3.575-11.878c-1.365-6.683-4.761-11.82-10.163-15.853
			c-6.997-5.222-15.45-8.774-19.765-17.11c-1.203-2.323-2.182-4.864-3.827-6.835c-3.428-4.104-7.216-7.908-10.887-11.808
			c-4.874-5.176-5.957-11.221-3.524-17.707c2.175-5.795,3.916-11.228,12.201-12.438c8.095-1.183,15.728-5.525,23.558-8.479
			c-2.855-7.912-21.941-9.826-35.804-3.558c-0.805-4.725-1.151-9.479-2.562-13.893c-0.716-2.24-3.051-5.026-5.169-5.574
			c-9.917-2.564-19.548-1.305-28.707,3.601c-1.163,0.622-3.721,0.168-4.741-0.764c-2.93-2.673-5.223-6.035-8.092-8.787
			c-6.17-5.916-13.221-9.312-22.207-9.506c-10.134-0.22-19.086,3.016-28.264,6.409c-6.009,2.222-12.694,7.975-18.221-1.086
			c-0.063-0.103-0.318-0.072-0.469-0.139c-6.373-2.817-12.743-5.639-20.093-8.893c-0.337-1.883-1.276-5.078-1.386-8.302
			c-0.114-3.385-0.204-9.359,1.039-9.733c4.448-1.337,4.75-5.701,7.463-7.719C713.389,323.771,710.707,322.441,709.711,320.801z"/>
		<path fill-rule="evenodd" clip-rule="evenodd" d="M709.711,320.801c0.996,1.641,3.678,2.971,0.039,5.676
			c-2.713,2.018-3.015,6.382-7.463,7.719c-1.243,0.374-1.153,6.349-1.039,9.733c0.109,3.224,1.049,6.419,1.386,8.302
			c7.35,3.254,13.72,6.075,20.093,8.893c0.15,0.066,0.406,0.036,0.469,0.139c5.526,9.061,12.212,3.308,18.221,1.086
			c9.178-3.394,18.13-6.629,28.264-6.409c8.986,0.194,16.037,3.59,22.207,9.506c2.869,2.752,5.162,6.114,8.092,8.787
			c1.021,0.932,3.578,1.386,4.741,0.764c9.159-4.905,18.79-6.165,28.707-3.601c2.118,0.548,4.453,3.334,5.169,5.574
			c1.41,4.414,1.757,9.168,2.562,13.893c13.862-6.269,32.948-4.354,35.804,3.558c-7.83,2.954-15.463,7.297-23.558,8.479
			c-8.285,1.211-10.026,6.644-12.201,12.438c-2.433,6.486-1.35,12.531,3.524,17.707c3.671,3.899,7.459,7.704,10.887,11.808
			c1.646,1.971,2.624,4.512,3.827,6.835c4.314,8.336,12.768,11.889,19.765,17.11c5.402,4.032,8.798,9.17,10.163,15.853
			c0.824,4.036,2.86,7.836,3.575,11.878c1.521,8.592-3.947,14.575-8.686,20.656c-1.975,2.532-4.658,4.14-7.568,5.815
			c-4.453,2.563-7.81,7.112-11.453,10.985c-10.486,11.15-22.341,20.139-36.803,25.762c-11.297,4.393-21.97,10.434-33.352,14.548
			c-9.533,3.446-19.679,5.215-29.579,7.616c-2.462,0.598-5.026,0.771-6.299,0.957c2.695,5.128,5.374,10.165,7.996,15.231
			c2.144,4.141,0.239,7.773-2.095,10.875c-2.991,3.975-6.501,7.579-9.957,11.18c-3.845,4.008-8.398,7.444-11.689,11.844
			c-3.362,4.493-7.471,9.248-4.769,15.888c0.5,1.229-0.057,2.886-0.156,5.01c6.082,2.341,12.776,4.751,19.312,7.533
			c1.967,0.837,3.815,2.456,5.158,4.158c4.453,5.642,9.085,11.221,12.818,17.331c3.376,5.525,6.135,11.56,8.188,17.696
			c0.774,2.315-0.746,5.773-2.022,8.307c-1.596,3.168-3.507,6.565-6.205,8.694c-3.79,2.989-4.386,5.186-1.697,9.41
			c3.659,5.753,6.727,11.964,9.34,18.271c1.779,4.293,3.338,9.106,3.254,13.655c-0.184,9.822-1.349,19.641-2.469,29.419
			c-0.187,1.629-1.873,3.502-3.374,4.494c-8.712,5.755-9.087,7.386-5.349,17.399c2.195,5.882,3.68,12.047,5.205,18.154
			c1.007,4.03-0.901,7.374-3.297,10.509c-0.952,1.246-1.523,2.782-1.716,3.144c-6.427,2.699-12.351,4.806-17.909,7.629
			c-5.698,2.894-11.039,6.489-17.82,10.545c0,31.122,0.016,62.866-0.031,94.61c-0.004,2.538,0.677,3.782,3.434,4.434
			c3.629,0.857,7.104,2.468,10.552,3.966c3.786,1.646,6.464,4.385,7.409,8.571c0.702,3.107,1.835,6.173,2.092,9.313
			c0.341,4.164-2.496,4.061-5.701,3.836c-1.263-0.088-2.899,1.504-3.853,2.73c-0.313,0.401,0.838,2.881,1.589,3.027
			c10.843,2.116,11.091,11.891,14.036,19.516c1.048,2.712,1.196,6.123,0.667,9.016c-0.986,5.39-6.572,6.075-10.345,8.453
			c-2.485,1.566-4.254,2.264-4.165,6.092c0.068,2.968-2.395,6.437-4.589,8.929c-6.037,6.86-5.819,15.538-7.633,23.632
			c-0.499,2.231-0.259,4.671-0.989,6.799c-1.299,3.785-2.114,6.713,1.35,10.397c1.352,1.438-0.368,7.048-2.156,9.806
			c-1.976,3.048-5.634,5.004-8.88,7.701c0.944,0.863,1.694,1.439,2.312,2.134c4.906,5.513,5.175,11.457,2.222,17.988
			c-5.538,12.248-15.06,20.807-25.34,28.708c-4.169,3.205-8.627,6.15-13.283,8.58c-11.218,5.854-21.477,2.684-30.725-4.57
			c-7.294-5.722-14.471-11.682-21.071-18.174c-6.964-6.85-11.45-15.098-5.503-25.689c1.67-2.975,1.174-5.735-2.658-6.931
			c-2.364-0.737-4.692-1.596-7.068-2.291c-6.983-2.045-9.472-6.195-7.938-13.231c0.17-0.781,0.154-1.708-0.098-2.461
			c-3.18-9.516-5.541-19.455-10.019-28.324c-2.203-4.363-5.224-7.872-4.803-13.146c0.057-0.706-2.347-1.58-3.577-2.425
			c-2.868-1.967-5.716-3.964-9.335-6.48c-1.02,6.047-2.628,11.423-2.697,16.818c-0.18,13.976-0.925,27.961,3.189,41.765
			c1.604,5.386,0.348,11.6,0.578,17.429c0.096,2.428,0.94,4.832,0.98,7.255c0.133,7.831-0.313,15.688,0.154,23.492
			c0.44,7.329,1.766,14.605,2.684,21.908c0.104,0.828,0.096,1.67,0.14,2.506c-0.832-0.285-1.65-0.62-2.498-0.847
			c-8.242-2.199-16.48-4.415-24.736-6.559c-13.686-3.554-27.291-7.5-41.119-10.376c-5.952-1.238-12.388-0.463-18.581-0.148
			c-6.08,0.309-12.125,1.656-18.197,1.737c-18.057,0.243-36.158,0.816-54.168-0.144c-14.381-0.768-28.614-3.962-42.979-5.418
			c-22.772-2.31-44.392-11.767-67.745-10.609c-3.682,0.183-7.476-1.894-11.091-2.891c4.564-6.288,9.933-12.905,14.384-20.091
			c2.872-4.638,4.171-10.22,6.584-15.181c3.483-7.161,5.471-14.943,10.828-21.37c3.639-4.367,5.465-10.266,7.993-15.531
			c2.609-5.434,5.033-10.955,7.634-16.393c5.154-10.776,11.084-21.248,15.352-32.361c3.629-9.451,5.258-19.658,8.002-29.466
			c1.357-4.851,3.032-9.638,4.921-14.31c3.781-9.354,7.975-18.542,11.677-27.925c2.553-6.472,4.408-13.215,6.855-19.731
			c4.513-12.015,9.027-24.037,13.919-35.9c5.597-13.57,12.043-26.804,17.273-40.507c3.168-8.301,4.267-17.375,7.168-25.801
			c2.159-6.27,5.175-12.407,8.766-17.987c9.106-14.152,15.468-29.543,21.621-45.069c-2.297-7.684,3.819-13.131,5.464-19.791
			c1.705-6.908,5.466-13.281,7.872-20.05c3.692-10.385,6.653-21.041,10.627-31.31c1.641-4.239,4.646-8.206,7.82-11.547
			c8.238-8.672,16.95-16.893,25.404-25.362c4.785-4.792,4.542-8.45-1.828-11.533c-8.146-3.942-11.503-11.932-16.922-18.143
			c-1.243-1.425-0.936-4.355-1.021-6.604c-0.146-3.855-0.041-7.72-0.041-10.833c-12.646-2.658-24.37-5.016-36.042-7.607
			c-12.006-2.665-23.991-5.435-35.914-8.443c-2.782-0.702-5.196-2.75-7.915-3.839c-4.859-1.945-9.893-3.461-14.72-5.477
			c-4.355-1.819-8.487-4.17-12.808-6.082c-2.033-0.9-4.279-1.321-6.429-1.96c-0.4,0.494-0.801,0.988-1.202,1.482
			c-3.32-4.881-6.116-10.258-10.124-14.486c-3.287-3.468-7.886-5.795-12.132-8.229c-9.133-5.237-12.262-15.679-7.485-25.098
			c2.258-4.451,3.971-9.177,6.16-13.666c0.691-1.419,2.054-2.55,3.233-3.684c11.333-10.888,16.26-25.103,17.575-39.911
			c0.534-6.011-4.921-12.724-8.156-18.85c-2.942-5.571-8.24-10.41-9.527-16.229c-2.267-10.253,4.733-17.578,15.667-18.549
			c3.05-0.271,6.18,0.212,9.198-0.202c1.372-0.188,3.317-1.472,3.708-2.678c2.394-7.378,8.119-10.76,14.766-13.357
			c6.406-2.504,12.526-6.544,19.128-7.534c7.604-1.14,15.695-0.299,23.383,0.907c4.171,0.653,7.388-0.47,9.795-2.687
			c8.036-7.397,18.361-9.249,28.097-12.519c7.691-2.582,15.613-3.487,23.732-2.149c2.063,0.34,4.229,0.051,7.843,0.051
			c-2.79-8.476-6.021-15.82-7.445-23.501c-0.914-4.925-6.729-8.187-4.302-14.065c0.267-0.646-1.271-2.187-2.159-3.137
			c-6.606-7.057-12.848-14.531-20.032-20.946c-5.507-4.917-12.33-8.33-18.374-12.681c-8.184-5.891-16.985-11.353-19.992-21.931
			c-0.566-1.99-1.092-4.651-0.24-6.265c2.852-5.399-0.07-8.583-3.554-11.848c-1.809-1.694-3.496-3.516-5.27-5.247
			c-3.947-3.854-7.889-7.715-11.878-11.524c-5.26-5.024-10.908-9.694-15.759-15.083c-5.807-6.45-11.085-13.396-16.339-20.319
			c-4.818-6.349-10.14-11.858-17.099-16.097c-6.005-3.657-11.118-8.776-16.631-13.244c-7.907-6.408-15.825-12.805-23.727-19.221
			c-5.632-4.573-10.984-9.552-16.954-13.63c-4.244-2.899-5.096-7.267-6.167-11.31c-1.479-5.58-1.702-11.493-2.504-17.578
			c-1.693,0.104-2.692,0.164-3.691,0.226c0.403-0.247,0.806-0.494,1.208-0.741c-1.336-2.712-2.465-5.552-4.054-8.105
			c-2.65-4.261-6.026-8.127-8.226-12.589c-1.023-2.078-0.855-5.611,0.249-7.707c3.31-6.284,7.037-12.422,11.344-18.048
			c0.934-1.219,5.251-0.775,7.525,0.126c8.031,3.182,13.353,9.765,19.15,15.866c6.973,7.336,13.288,15.499,22.697,20.216
			c2.723,1.365,4.933,3.714,7.508,5.414c7.488,4.941,16.173,5.994,24.741,7.007c12.95,1.53,24.267,6.897,34.477,14.515
			c13.768,10.271,27.65,20.239,43.462,27.232c4.473,1.979,8.314-0.025,12.229-1.335c8.673-2.9,17.047-7.233,25.928-8.81
			c8.133-1.443,16.771-0.031,24.854,0.117c-6.936-5.852-11.379-13.681-2.761-22.411c4.529-4.588,10.548-1.84,15.092-0.92
			c2.163,5.227,4.086,9.79,5.94,14.382c1.29,3.197,3.781,3.786,6.847,3.437c6.561-0.75,13.55-0.297,19.559-2.516
			c4.865-1.796,9.111-6.333,12.488-10.566c1.337-1.676-0.317-5.833-0.803-8.829c-0.279-1.728-0.944-3.393-1.68-5.929
			c7.015,0,13.869-1.193,20.034,0.356c5.48,1.377,6.326,7.791,6.861,13.1c0.561,5.556,0.788,11.146,1.41,16.693
			c0.194,1.739,0.823,3.682,1.889,5.028c5.573,7.046,10.661,14.134,18.798,19.244c7.917,4.972,16.605,7.68,24.587,12.05
			c11.947,6.542,23.7,13.472,35.261,20.677c8.545,5.325,17.262,10.663,24.77,17.279c6.429,5.666,10.718,13.226,13.266,21.94
			c2.346,8.025,4.342,15.983,3.385,24.173c-1.838,15.719-6.391,30.498-19.3,41.03C727.918,307.117,718.904,313.727,709.711,320.801z
			 M601.022,594.604c-0.417-0.268-0.833-0.535-1.249-0.804c-3.54,3.919-7.065,7.85-10.622,11.752
			c-6.808,7.47-15.397,13.057-20.138,22.768c-3.286,6.73-9.157,12.334-14.415,17.932c-6.685,7.117-13.618,14.065-21.009,20.432
			c-5.631,4.85-11.384,9.001-9.907,17.742c0.255,1.507-1.213,3.328-1.947,4.977c-7.371,16.528-14.985,32.953-22.071,49.603
			c-7.098,16.676-13.168,33.802-20.619,50.311c-7.215,15.986-11.22,32.662-13.451,49.87c-0.784,6.046-1.313,11.736-4.3,17.549
			c-8.94,17.404-17.072,35.242-25,53.141c-5.443,12.29-10.258,24.875-14.918,37.489c-4.396,11.898-7.976,24.1-12.399,35.987
			c-2.271,6.103-5.921,11.682-8.387,17.726c-5.529,13.557-10.504,27.342-16.115,40.864c-2.926,7.05-6.658,13.771-10.139,20.585
			c-5.38,10.529-10.879,20.999-16.261,31.528c-0.608,1.189-0.791,2.597-1.17,3.903c0.283,0.109,0.567,0.22,0.851,0.329
			c1.12-1.785,2.24-3.57,3.359-5.355c0.232,0.133,0.465,0.266,0.696,0.398c-3.862,11.019-7.724,22.038-11.773,33.595
			c9.89,0.614,19.296,1.768,28.688,1.654c15.906-0.192,31.835-0.766,47.694-1.97c13.616-1.033,27.229-2.692,40.699-4.938
			c19.647-3.275,39.174-7.334,57.844-14.563c6.14-2.378,13.324-4.035,12.826-13.07c-0.007-0.13,0.221-0.256,0.273-0.407
			c2.937-8.483,6.167-16.88,8.709-25.48c2.423-8.197,4.835-16.218,9.474-23.607c3.467-5.522,7.054-11.659,3.718-17.451
			c1.386-2.854,2.555-4.778,3.288-6.856c2.535-7.189,4.865-14.45,7.378-21.647c2.028-5.81,5.928-11.553,5.972-17.348
			c0.101-13.149,4.898-24.999,7.941-37.33c1.996-8.089,6.331-14.424,13.36-19.662c10.885-8.111,21.688-16.575,29.748-27.844
			c2.09-2.922,4.471-5.636,6.717-8.445c5.236-6.552,10.993-12.761,15.589-19.735c7.299-11.075,14.259-22.429,20.51-34.119
			c3.808-7.12,6.302-15.001,8.806-22.729c1.008-3.113,0.464-6.729,0.676-11.164c4.858,1.162,9.502,2.372,14.189,3.378
			c16.06,3.443,32.148,6.754,48.185,10.301c1.763,0.391,3.563,1.7,4.825,3.064c4.11,4.441,7.624,9.502,12.093,13.516
			c2.23,2.002,5.974,2.667,9.153,3.164c2.95,0.463,4.504-1.587,3.282-4.424c-2.637-6.123-5.909-11.986-8.326-18.188
			c-1.608-4.125-2.847-8.621-3.042-13.005c-0.19-4.312,1.378-8.671,1.733-13.046c0.27-3.308-4.968-10.422-7.95-11.151
			c-3.664-0.896-7.437-1.348-11.092-2.271c-4.764-1.203-10.008-1.772-14.071-4.227c-9.521-5.75-19.583-8.657-30.574-9.413
			c-2.906-0.2-6.263-1.679-8.393-3.664c-4.098-3.82-7.564-8.235-14.211-7.11c5.317-1.517,10.559-3.435,15.831-3.521
			c21.491-0.357,42.993-0.247,64.487-0.005c2.019,0.023,5.184,1.74,5.824,3.427c3.629,9.552,6.98,19.243,9.675,29.093
			c0.804,2.936-0.872,6.526-1.293,9.831c-0.172,1.358-0.028,2.757-0.028,5.173c5.948-5.379,7.784-10.853,8.035-17.45
			c0.352-9.215-3.133-16.961-7.549-24.574c-0.702-1.208-1.745-2.855-1.415-3.924c2.317-7.495,3.326-14.716-1.977-21.512
			c-0.503-0.645-0.067-2.021-0.067-3.535c-4.99,2.639-9.812,1.976-14.651,1.179c-3.975-0.654-7.967-1.195-11.938-1.861
			c-6.117-1.026-12.192-2.381-18.343-3.127c-14.539-1.764-29.092-3.487-43.684-4.691c-3.937-0.325-8.651-3.843-11.569,0.863
			c-3.555-1.145-6.838-3.266-9.821-2.905c-4.178,0.504-4.332-1.485-4.758-4.284c-0.546-3.596,2.206-3.413,4.34-4.016
			c5.704-1.61,11.394-3.272,17.106-4.851c6.504-1.797,12.983-3.707,19.551-5.24c10.232-2.389,20.525-4.521,30.803-6.72
			c3.146-0.673,6.726-2.451,9.412-1.58c10.294,3.336,20.378,7.371,30.391,11.508c4.294,1.774,8.221,4.437,12.314,6.695
			c0.421-0.308,0.842-0.614,1.263-0.922c-1.161-3.487-1.662-7.413-3.622-10.371c-3.977-6.001-8.954-11.328-13.116-17.218
			c-3.505-4.96-7.325-8.925-13.512-10.619c-4.527-1.239-8.756-3.633-13.039-5.676c-5.323-2.538-10.56-5.26-15.847-7.874
			c-4.907-2.427-9.595-0.713-14.387,0.639c-12.656,3.57-25.38,6.899-38.038,10.461c-4.732,1.331-9.267,3.469-14.05,4.496
			c-12.208,2.62-24.664,4.226-36.702,7.431c-6.564,1.747-11.471,2.044-15.579-3.965c-0.877-1.283-2.545-2.026-4.465-3.486
			c1.592-2.802,3.172-5.734,4.895-8.581c2.842-4.694,5.831-9.283,6.451-14.963c0.152-1.395,0.697-2.996,1.606-4.019
			c6.098-6.861,12.384-13.554,18.498-20.399c1.055-1.181,1.582-2.833,2.353-4.268c-0.392-0.259-0.782-0.518-1.174-0.776
			c-2.182,1.014-4.363,2.027-5.527,2.567c-2.104-1.499-3.486-3.271-4.928-3.321c-2.042-0.071-4.128,1.128-6.019,1.729
			c-0.762-2.086-1.519-4.163-2.317-6.352c6.555,1.714,12.854,1.855,18.921-0.813c15.347-6.753,28.84-16.533,42.447-26.138
			c7.48-5.279,14.903-10.719,22.822-15.268c3.753-2.155,8.609-2.39,12.97-3.484c-2.777-5.138-2.215-7.348,1.862-8.145
			c1.879-0.368,3.647-1.302,5.645-2.045c0.595,0.845,1.617,2.298,2.813,3.997c3.025-3.439,4.563-1.652,6.016,1.133
			c0.698,1.339,1.81,2.463,2.428,3.279c0.403-3.162,0.736-5.969,1.126-8.767c0.68-4.881-2.498-7.632-7.055-6.252
			c-1.404,0.426-2.986,0.263-4.972,0.404c0.698-1.813,1.099-2.851,1.786-4.636c-2.289,0-3.972-0.302-5.504,0.052
			c-6.75,1.554-13.595,2.878-20.146,5.063c-12.021,4.008-23.882,8.501-35.759,12.926c-3.952,1.473-8.053,2.894-11.55,5.162
			c-5.616,3.644-10.611,8.236-16.186,11.954c-9.063,6.042-18.38,11.702-27.605,17.533
			C600.101,593.048,600.562,593.826,601.022,594.604z M556.804,172.793c-5.841-3.249-10.794-5.783-15.518-8.69
			c-5.537-3.406-10.143-8.134-17.155-9.218c-7.247-1.121-14.389-4.37-20.28,3.108c-0.921,1.169-2.837,2.088-4.346,2.171
			c-9.263,0.515-18.503,1.003-27.112-3.82c-13.877-7.775-26.708-16.83-38.221-27.91c-4.877-4.694-9.902-8.867-18.316-8.8
			c-7.84,0.062-15.78-4.029-23.553-6.659c-7.93-2.684-16.204-4.924-23.438-8.954c-11.302-6.296-19.114-16.385-25.131-27.794
			c-2.668-5.062-5.255-10.206-11.42-11.919c-7.015,8.336-6.43,14.04,1.767,20.747c3.395,2.776,6.707,5.792,9.456,9.185
			c4.233,5.227,3.594,6.366-3.269,7.019c-3.55,0.337-4.861,2.536-3.778,5.439c1.519,4.071,3.958,7.79,5.688,11.797
			c1.104,2.557,1.951,2.998,4.777,1.773c10.481-4.54,21.402-6.523,32.48-2.306c5.944,2.264,11.701,5.102,17.343,8.062
			c14.021,7.357,28.068,14.689,41.823,22.527c6.669,3.8,12.705,8.71,19.027,13.118c-0.273,0.531-0.548,1.062-0.821,1.593
			c-0.905,0-1.932,0.283-2.695-0.045c-6.146-2.642-12.553-2.14-18.95-1.722c-5.749,0.375-12.888,8.233-10.892,12.442
			c2.242,4.727,5.146,9.208,8.252,13.437c2.979,4.055,6.434,7.797,9.975,11.385c1.805,1.828,4.08,3.445,6.447,4.419
			c9.26,3.807,18.564,7.535,28.008,10.853c4.919,1.728,10.116,2.849,15.281,3.577c1.666,0.235,4.788-1.28,5.235-2.65
			c1.148-3.518,1.912-7.488,1.498-11.126c-1.071-9.414-2.6-18.786-8.116-26.976c-1.201-1.784-1.316-4.301-1.932-6.479
			c0.387-0.146,0.772-0.291,1.159-0.438c0.691,1.062,1.363,2.137,2.077,3.184c8.099,11.872,15.453,24.361,24.575,35.388
			c5.959,7.205,13.271,14.234,23.087,16.511c9.915,2.3,19.956,4.169,30.028,5.637c7.312,1.066,14.024,2.903,19.79,7.794
			c2.335,1.98,3.249,4.226,1.417,6.361c-3.082,3.591-6.205,7.863-10.282,9.756c-15.518,7.203-31.539,12.741-49.201,11.436
			c-10.909-0.806-21.882-0.77-32.826-1.072c-2.874-0.079-5.752-0.012-8.615-0.012c4.331,4.249,8.229,8.147,12.222,11.946
			c1.189,1.132,2.622,2.017,3.979,2.965c8.532,5.965,18.593,6.762,28.316,6.857c9.458,0.093,19.016-1.557,28.371-3.29
			c4.5-0.833,7.141,0.19,9.688,3.604c1.568,2.099,3.487,4.161,5.694,5.51c4.096,2.501,8.518,4.467,13.092,6.803
			c-12.492,4.487-26.576,2.589-37.597,13.499c2.343,1.049,4.201,2.653,5.849,2.46c3.698-0.433,7.346-1.592,10.918-2.751
			c14.487-4.702,29.133-8.079,44.555-7.675c4.953,0.13,9.566-1.069,12.994-6.311c3.27-5,6.043-9.598,5.584-15.671
			c-0.433-5.728-0.148-11.63-1.483-17.139c-1.737-7.174-3.794-14.273-11.075-18.783c-7.219-4.472-13.586-10.307-20.415-15.427
			c-2.706-2.028-5.419-4.481-8.531-5.454c-8.889-2.778-18.013-4.791-26.985-7.313c-5.505-1.548-11.437-2.582-16.228-5.438
			c-8.154-4.862-15.786-10.7-23.192-16.679c-4.062-3.277-7.346-7.57-10.738-11.608c-3.235-3.85-6.156-7.963-9.216-11.961
			c3.403-0.632,5.665-0.393,7.916-0.08c8.505,1.183,16,4.66,23.04,9.534c3.433,2.377,7.632,3.798,11.278,0.156
			C551.126,179.715,553.704,176.371,556.804,172.793z M407.172,541.293c0.853-7.626,6.396-8.772,11.513-10.521
			c0.918-0.313,1.688-1.035,2.571-1.474c11.065-5.495,21.683-12.404,33.319-16.116c17.045-5.438,34.807-8.644,52.29-12.682
			c13.78-3.183,27.519-6.653,41.429-9.138c13.92-2.487,28.024-3.956,42.06-5.779c7.524-0.977,15.075-1.753,22.612-2.629
			c15.555-1.809,31.07-4.525,46.674-5.191c17.243-0.737,34.576,0.143,51.85,0.829c9.052,0.36,18.066,1.764,27.087,2.792
			c8.677,0.988,17.331,2.174,26.011,3.14c10.345,1.149,21.044,0.869,30.991,3.483c23.792,6.252,48.645,9.253,67.479,19.799
			c3.314-1.577,5.567-2.725,7.882-3.732c3.321-1.448,3.577-3.932,2.739-7.032c-2.389-8.833-8.567-14.252-16.572-17.527
			c-8.981-3.675-18.095-7.181-27.417-9.823c-7.868-2.231-16.101-3.218-24.2-4.588c-11.684-1.978-23.339-4.34-35.108-5.536
			c-10.71-1.088-21.556-0.835-32.341-1.184c-1.66-0.054-3.348,0.008-4.974-0.269c-13.671-2.326-27.165-4.381-41.311-3.022
			c-21.26,2.041-42.69,2.348-64.054,3.272c-17.9,0.775-35.809,1.349-53.71,2.075c-6.286,0.255-12.716-0.043-18.82,1.193
			c-21.629,4.378-43.212,9.033-64.68,14.143c-11.395,2.711-22.658,6.161-33.723,10.02c-14.149,4.934-28.192,10.255-41.959,16.159
			c-5.242,2.248-10.952,5.646-14.038,10.167C395.819,519.374,399.349,533.389,407.172,541.293z M635.457,304.646
			c4.465,0.409,8.373,0.768,11.915,1.093c1.41-1.935,2.426-4.022,4.046-5.398c2.973-2.523,6.912-4.112,9.354-7.013
			c4.951-5.88,11.212-11.441,10.014-20.372c-0.434-3.226-1.404-6.38-2.098-9.421c9.387-0.415,18.561-0.821,27.732-1.227
			c0.469-1.729,1.114-4.105,1.759-6.482c0.386,0.081,0.772,0.162,1.158,0.243c-0.427,3.728-0.854,7.456-1.354,11.812
			c7.688-7.257,9.753-19.776,5.085-28.696c-2.491-4.763-5.139-9.461-8.013-14c-2.372-3.747-5.762-6.933-7.682-10.864
			c-4.561-9.339-12.686-12.439-22.015-13.642c-7.116-0.917-16.085-5.787-15.563-16.058c0.075-1.479-0.472-2.991-0.8-4.889
			c2.127,1.423,3.782,2.793,5.653,3.734c8.221,4.134,16.384,8.42,24.806,12.108c6.318,2.768,12.883,5.144,19.544,6.923
			c11.825,3.157,22.938,7.275,30.114,17.984c5.64,8.418,10.313,17.241,9.653,27.879c-0.267,4.289-0.49,8.58-0.732,12.871
			c1.448-2.087,2.485-4.388,3.047-6.8c1.476-6.333,1.774-13.142,4.347-18.964c3.067-6.941-0.104-11.41-3.257-16.502
			c-4.452,2.407-4.568,2.539-8.019-0.515c-12.243-10.837-25.44-20.233-40.583-26.578c-11.405-4.778-22.868-9.283-32.426-17.54
			c-5.261-4.544-11.004-8.53-16.266-12.565c-2.641,3.847-6.05,6.957-6.993,10.69c-1.007,3.988,0.314,8.563,0.693,13.919
			c-6.224-4.46-8.701-9.12-8.646-15.466c0.047-5.582-0.268-11.251-1.271-16.726c-0.563-3.076-1.22-6.916-5.746-7.699
			c-6.744-1.165-7.837-3.46-5.944-10.037c1.048-3.641,1.44-7.47,2.316-12.233c-1.701,1.567-2.592,2.266-3.326,3.102
			c-0.651,0.741-1.121,1.639-1.683,2.46c-6.976,10.199-14.067,20.242-28.984,14.704c-5.764-2.141-12.179-2.61-16.97-7.327
			c-1.642-1.616-4.466-2.031-6.931-3.071c-1.428,12.399-1.43,12.523-9.07,12.723c-1.869,0.049-4.028-0.539-5.606-1.54
			c-9.384-5.953-18.002-1.14-26.798,1.587c3.402,0.54,6.771,0.327,10.138,0.105c1.641-0.108,3.33-0.543,4.912-0.291
			c5.535,0.879,11.002,2.212,16.55,2.973c12.42,1.701,24.849,3.409,37.321,4.63c8.143,0.798,13.527,4.719,16.454,12.034
			c1.457,3.644,3.869,7.228,6.714,9.928c6.674,6.335,13.862,12.129,20.857,18.126c1.854,1.59,3.611,3.359,5.668,4.637
			c8.469,5.263,17.035,10.367,25.457,15.465c-0.748,1.576-1.214,2.557-1.789,3.769c-1.387-1.268-2.399-2.729-3.791-3.385
			c-15.186-7.144-30.313-14.435-45.703-21.117c-10.043-4.361-19.937-8.588-27.51-16.954c-8.995-9.937-20.383-16.635-32.946-20.52
			c-9.806-3.032-20.249-4.049-30.443-5.752c-2.578-0.431-5.291-0.064-7.941-0.064c4.421,1.934,8.782,2.668,13.033,3.81
			c5.614,1.508,12.159,0.259,16.718,4.861c3.802,3.839,8.673,3.966,13.314,4.29c6.041,0.422,11.198,2.097,15.804,6.173
			c6.819,6.036,5.997,13.414-2.244,17.135c-1.66,0.749-3.399,1.325-5.059,2.077c-3.66,1.658-4.306,4.149-2.254,7.625
			c2.826,4.787,6.682,7.958,12.192,9.298c5.757,1.399,11.457,3.072,17.109,4.855c13.321,4.203,26.293,8.923,38.755,15.675
			c8.72,4.725,16.415,10.124,23.291,16.923c6.396,6.322,9.974,14.254,8.519,23.226c-1.003,6.188-3.188,12.438-6.136,17.974
			c-2.188,4.108-5.854,8.486-9.94,10.263C641.889,296.828,638.771,300.188,635.457,304.646z M681.21,324.048
			c-5.043-0.64-10.537-1.361-16.038-2.03c-7.827-0.952-15.728-1.49-23.475-2.883c-11.783-2.119-23.492-2.588-35.236-0.167
			c-5.93,1.222-11.861,2.505-17.696,4.109c-10.927,3.005-21.812,6.174-32.629,9.55c-1.157,0.362-2.479,2.562-2.461,3.891
			c0.06,4.393,0.587,8.792,1.145,13.162c0.703,5.507,1.612,10.987,2.443,16.557c4.09-1.584,7.044-3.076,10.174-3.876
			c9.968-2.548,19.888-5.753,30.036-7.014c15.513-1.927,29.853,3.183,43.572,10.112c0.803,0.405,2.225,0.142,3.123-0.295
			c3.952-1.919,7.614-4.775,11.758-5.895c9.148-2.47,18.524-4.097,27.646-6.033C682.825,344.001,682.048,334.402,681.21,324.048z
			 M716.139,823.478c-5.408-1.854-10.167-0.157-11.727,5.21c-1.028,3.535-0.297,7.592-0.299,11.415
			c-0.01,21.307-0.003,42.613-0.003,63.919c0.001,10.319-0.133,20.64,0.043,30.955c0.133,7.755,7.771,13.561,15.244,11.903
			c5.089-1.129,8.296-5.008,8.875-11.521c1.107-12.447,2.269-24.901,2.868-37.379c0.745-15.528,0.904-31.083,1.415-46.623
			c0.1-3.047,1.509-6.287,0.83-9.076c-2.062-8.481-7.494-14.658-15.03-19.117c-0.451,1.92-0.865,3.676-1.278,5.432
			c-0.313-0.092-0.626-0.185-0.938-0.277C716.139,826.696,716.139,825.074,716.139,823.478z M598.941,1018.249
			c6.035-2.513,11.311-5.443,16.966-6.892c8.552-2.191,17.329-3.628,26.084-4.874c9.619-1.37,19.305-2.832,28.989-3.064
			c19.629-0.472,39.277-0.219,58.917-0.084c4.767,0.032,9.62,0.32,14.27,1.283c5.846,1.211,11.522,3.237,17.36,4.938
			c1.573-10.464-1.437-16.141-10.133-19.184c-3.52-1.231-7.286-1.88-10.994-2.424c-9.408-1.38-18.846-3.587-28.272-3.594
			c-20.865-0.015-41.758,0.682-62.585,1.966c-10.577,0.651-21.271,2.367-31.457,5.225c-5.763,1.616-11.883,5.545-15.463,10.245
			C599.636,1005.711,600.113,1012.271,598.941,1018.249z M625.673,439.017c0.653,0.106,1.3,0.33,1.933,0.299
			c13.558-0.678,27.144-1.037,40.659-2.209c8.811-0.764,13.738-5.897,12.293-12.995c-2.918-14.321-8.966-26.934-23.07-33.836
			c-0.867-0.425-1.709-0.949-2.459-1.556c-5.66-4.585-11.619-4.898-15.966,1.052c-2.875,3.937-5.627,8.038-7.842,12.368
			C625.37,413.583,622.435,425.604,625.673,439.017z M689.859,851.244c-0.556-0.156-1.111-0.313-1.668-0.468
			c-3.57,3.385-7.603,6.404-10.63,10.22c-11.509,14.51-13.605,31.887-14.197,49.582c-0.237,7.108,0.19,14.241-0.115,21.344
			c-0.224,5.166,2.512,8.745,5.644,12.043c4.177,4.397,9.652,3.676,14.324,1.523c5.037-2.321,8.805-6.484,8.58-12.707
			c-0.31-8.564-1.168-17.123-1.149-25.682c0.021-9.611,1.125-19.224,1.035-28.829c-0.049-5.227,1.438-10.519-1.54-15.896
			C688.549,859.495,689.859,855.006,689.859,851.244z M577.59,444.402c0.318-0.421,1.024-1.709,2.051-2.646
			c4.481-4.091,5.806-9.625,3.045-15.013c-4.07-7.942-8.124-15.915-12.703-23.563c-2.256-3.768-5.675-6.838-7.802-9.329
			c-24.062,12.542-28.504,34.089-30.672,56.618C546.851,448.45,562.023,446.452,577.59,444.402z M481.582,403.845
			c-12.595,19.385-24.686,37.709-23.614,60.265c11.565-2.439,23.746-4.926,35.877-7.631c2.906-0.647,6.765-1.229,8.204-3.251
			c2.036-2.859,2.707-6.976,3.127-10.649c1.309-11.459-4.08-20.85-10.796-29.241C491.271,409.452,486.179,407.153,481.582,403.845z
			 M726.278,387.189c-3.378,4.842-7.059,9.171-9.643,14.077c-2.8,5.316-6.735,10.932-3.67,17.376
			c2.373,4.99,5.592,9.586,8.515,14.307c2.133,3.445,5.376,4.396,9.327,4.443c6.444,0.078,12.887,0.575,19.323,1.003
			c2.66,0.177,5.301,0.633,8.031,0.972C758.542,420.289,747.621,401.723,726.278,387.189z M755.363,977.972
			c1.212-6.144,0.886-8.042-4.023-9.601c-10.004-3.175-20.108-7.052-30.419-8.029c-21.465-2.034-43.097-2.731-64.581,0.743
			c-12.289,1.987-24.68,3.522-36.827,6.166c-12.693,2.763-14.32,4.936-14.967,15.081
			C654.459,965.229,704.729,964.013,755.363,977.972z M424.106,471.869c0.614-0.146,1.229-0.291,1.844-0.437
			c2.125-4.548,3.552-9.635,6.546-13.51c4.058-5.252,3.79-10.325,2.537-16.21c-2.33-10.944-8.242-17.917-19.604-19.726
			c-4.723-0.751-10.949,3.255-10.043,6.897c1.798,7.229,3.391,14.648,6.389,21.403C415.12,457.821,419.933,464.703,424.106,471.869z
			 M818.524,446.154c0.164-0.607,0.394-1.073,0.403-1.544c0.394-17.971-8.783-31.892-19.289-45.204
			c-0.456-0.578-2.118-0.698-2.979-0.382c-5.117,1.881-9.125,8.707-9.899,14.166c-1.269,8.939,3.581,15.325,8.576,21.295
			c3.682,4.399,7.363,9.62,13.917,10.55C812.318,445.47,815.401,445.781,818.524,446.154z M641.078,1091.519
			c0.797,0.021,1.594,0.042,2.391,0.063c1.222-1.643,2.807-3.127,3.602-4.955c3.619-8.316,3.276-16.775,0.742-25.366
			c-2.059-6.981-3.836-14.053-5.488-21.143c-1.144-4.905-5.648-7.995-11.117-7.172c-4.827,0.726-7.026,3.901-6.044,9.525
			c1.033,5.919,1.927,11.955,3.866,17.603C632.672,1070.684,637.021,1081.051,641.078,1091.519z M658.413,1041.955
			c1.007,6.494,2.587,15.172,3.636,23.912c0.88,7.333,3.719,13.767,7.622,19.853c1.453,2.267,3.129,2.316,4.668,0.074
			c0.934-1.36,2.164-2.749,2.46-4.279c2.156-11.146,5.748-22.129,2.664-33.793c-1.781-6.739-4.357-12.491-11.4-14.922
			C660.772,1030.284,658.414,1032.041,658.413,1041.955z M660.719,1125.365c-0.221,0.624-0.441,1.247-0.662,1.871
			c7.499,7.521,14.967,15.075,22.556,22.505c0.596,0.583,2.293,0.768,3.038,0.351c3.726-2.087,7.482-4.196,10.893-6.747
			c5.196-3.889,10.301-7.944,15.086-12.322c2.896-2.65,5.115-6.041,7.639-9.1C699.578,1126.665,680.328,1128.157,660.719,1125.365z
			 M663.464,376.978c12.448,6.158,21.533,15.773,29.605,26.838c3.805-12.762,13.691-19.215,22.143-27.634
			C697.439,371.238,680.449,368.723,663.464,376.978z M600.566,409.512c4.131-5.347,8.078-10.519,12.094-15.638
			c3.964-5.052,7.995-10.051,11.983-15.056c-11.205-4.641-34.917-4.979-45.004,4.284c3.152,2.866,5.985,6.126,9.448,8.442
			C595.678,395.954,600.396,401.279,600.566,409.512z M787.998,381.108c-14.326-5.661-28.629-9.513-44.527-5.283
			c8.107,9.753,15.87,19.093,23.746,28.567C771.877,394.327,777.494,385.723,787.998,381.108z M518.574,418.935
			c2.703-6.501,4.701-13.174,8.123-19.013c3.452-5.892,8.316-10.956,12.536-16.35c-14.826-3.89-27.626-0.645-38.599,9.531
			C508.844,400.042,514.44,408.8,518.574,418.935z M693.598,1066.09c0.602,11.049,0.951,12.968,3.356,15.754
			c2.072,2.402,4.04,2.255,5.456-0.503c1.564-3.048,3.305-6.143,4.096-9.427c2.711-11.261,3.75-22.611,1.164-34.139
			c-0.752-3.352-2.002-4.449-5.454-4.67c-3.57-0.229-4.989,1.588-5.341,4.227C695.601,1046.894,694.663,1056.5,693.598,1066.09z
			 M745.974,554.236c0.699-0.863,1.221-2.174,2.085-2.466c5.272-1.78,10.645-3.266,15.931-5.007c1.108-0.366,2.552-1.196,2.891-2.15
			c1.32-3.716-5.618-13.16-9.593-12.77c-8,0.785-15.978,1.913-23.908,3.232c-2.883,0.479-4.441,3.193-3.059,5.664
			c1.741,3.111,4.443,5.732,6.959,8.345c1.559,1.618,3.54,2.829,6.038,4.771c-2.788-0.412-4.525-0.67-6.263-0.927
			c-0.042,0.436-0.084,0.872-0.125,1.308C740.094,554.236,743.259,554.236,745.974,554.236z M642.564,1097.977
			c1.34,4.835,4.497,6.684,8.813,6.576c4.123-0.103,8.24-0.892,12.354-0.855c5.786,0.051,11.582,1.008,17.349,0.822
			c11.577-0.371,23.145-1.156,34.701-1.98c3.587-0.256,7.146-1.098,10.671-1.879c0.886-0.197,2.356-1.447,2.246-1.787
			c-0.418-1.287-1.244-3.284-2.153-3.418c-3.52-0.52-7.16-0.783-10.7-0.487c-8.687,0.728-17.326,2.361-26.017,2.64
			c-14.203,0.455-28.432,0.116-42.65,0.133C645.73,1097.742,644.284,1097.885,642.564,1097.977z M736.671,1051.151
			c-0.561-4.379-1.622-8.766-1.551-13.135c0.084-5.112-2.902-4.867-5.541-3.293c-2.009,1.198-3.313,3.938-4.369,6.248
			c-0.708,1.55-0.413,3.552-0.603,5.348c-1.105,10.434-4.744,20.723-1.865,31.377c0.427,1.577,1.294,3.034,1.957,4.547
			c1.602-1.253,3.834-2.174,4.697-3.814C733.854,1069.949,737.11,1061.078,736.671,1051.151z M643.763,920.297
			c-8.834,8.059-18.663,17.025-28.931,26.392c1.785,0,3.419-0.434,3.787,0.065c4.461,6.05,10.336,4.298,16.25,3.411
			c6.964-1.044,11.876-6.542,11.155-13.47C645.406,930.756,644.404,924.856,643.763,920.297z M552.553,611.674
			c-9.202-10.24-2.994-20.313,1.831-30.56c-10.947,0.868-15.654,3.346-19.479,12.838c-2.204,5.47-1.809,10.663,2.169,15.186
			C541.2,613.829,545.837,616.857,552.553,611.674z M580.676,576.39c-2.249,0.137-5.264-0.053-8.065,0.632
			c-1.634,0.398-3.242,1.964-4.299,3.415c-1.616,2.219-2.879,4.731-4.026,7.241c-0.575,1.258-1.219,3.111-0.707,4.131
			c2.377,4.737,5.147,9.277,8.21,14.645c3.743-4.008,7.33-7.422,10.334-11.289c1.1-1.415,1.302-3.964,1.063-5.891
			C582.669,585.089,581.604,580.972,580.676,576.39z M449.961,427.147c3.46-9.196,6.72-17.86,10.076-26.782
			c-9.474,1.007-18.073,4.625-24.314,10.39C440.756,416.55,445.265,421.74,449.961,427.147z M691.524,594.025
			c-0.299-0.489-0.598-0.979-0.896-1.468c-1.329,0.44-2.754,0.7-3.973,1.349c-9.775,5.2-19.566,10.378-29.23,15.78
			c-3.046,1.702-5.749,4.03-8.549,6.15c-0.623,0.472-1.075,1.229-1.473,1.93c-2.089,3.688-3.766,7.681-6.307,11.019
			c-2.254,2.96-2.641,4.983,1.444,7.855c4.753-6.909,9.322-13.733,14.11-20.4c1.386-1.928,3.132-3.915,5.177-4.993
			c6.878-3.625,14.089-6.626,20.92-10.333C685.971,599.165,688.617,596.355,691.524,594.025z M727.649,597.247
			c3.607,1.895,6.751,3.58,9.935,5.185c0.532,0.269,1.59,0.486,1.814,0.224c3.13-3.663,6.272-7.33,9.099-11.224
			c0.486-0.669-0.065-2.946-0.847-3.526c-2.676-1.988-5.517-3.974-8.609-5.075c-1.293-0.461-4.111,0.824-4.962,2.139
			C731.628,588.76,729.825,592.97,727.649,597.247z M650.332,655.673c-2.777-6.195-5.162-11.519-7.548-16.841
			c-0.52,0.142-1.039,0.283-1.559,0.426c-1.223,2.388-2.445,4.776-3.964,7.743c-6.64,1.658-10.445,6.739-8.834,12.997
			C635.247,658.651,642.075,657.303,650.332,655.673z M677.82,644.578c3.453,4.35,7.379,4.052,15.697-0.469
			c-4.202-4.168-5.999-11.833-14.233-9.893c-7.949,1.873-6.821,9.693-10.063,15.266c3.311-0.242,5.881-0.431,8.6-0.63
			C677.82,647.593,677.82,646.485,677.82,644.578z M835.227,391.04c-5.926-5.443-14.286-6.534-21.057-1.617
			c3.694,4.69,7.38,9.369,10.069,12.783C828.195,398.186,831.625,394.7,835.227,391.04z M782.569,545.672
			c-0.298-0.544-0.597-1.088-0.895-1.632c-1.47,0.18-2.939,0.359-4.485,0.548c-0.172-0.438-0.335-0.894-0.527-1.337
			c-0.943-2.169-1.895-4.335-2.843-6.501c-0.626,2.707-1.284,5.407-1.843,8.129c-0.086,0.419,0.155,1.059,0.468,1.381
			c2.285,2.353,0.528,3.935-1.107,5.335c-4.276,3.663-8.748,7.102-12.92,10.876c-0.907,0.821-0.886,2.67-1.292,4.046
			c1.501-0.259,3.343-0.054,4.44-0.861c3.728-2.741,7.378-5.647,10.709-8.854C775.909,553.303,779.154,549.399,782.569,545.672z
			 M706.917,641.298c5.979,2.616,11.832,5.178,18.046,7.896c2.25-3.05,2.539-6.937,0.129-10.953
			c-2.642-4.402-7.016-4.246-11.336-4.154C708.864,634.19,707.95,637.91,706.917,641.298z M718.214,583.568
			c-14.367-1.494-17.49,11.908-26.616,16.799c0.26,0.608,0.519,1.218,0.778,1.826c4.654-0.512,9.31-1.023,13.964-1.535
			c0.051-0.442,0.102-0.885,0.152-1.328c-1.531-0.656-3.063-1.313-4.945-2.12C710.821,596.968,712.18,588.046,718.214,583.568z
			 M612.762,572.449c-6.797,0.612-12.466,1.123-18.239,1.644c0,3.441,0,6.462,0,10.235
			C600.591,580.377,606.095,576.791,612.762,572.449z M699.381,706.387c9.069,1.048,17.243,1.992,25.416,2.938
			C717.179,704.02,709.639,698.196,699.381,706.387z M734.251,577.009c6.204,2.088,18.718-3.847,21.599-10.021
			C748.335,570.474,741.825,573.494,734.251,577.009z M741.714,839.371c1.364-7.202-3.063-11.343-10.214-9.886
			c1.092-1.068,2.185-2.138,3.276-3.207C737.064,830.598,739.354,834.917,741.714,839.371z M737.72,608.978
			c-5.759-6.476-8.632-7.901-12.611-6.9C729.41,604.431,733.564,606.704,737.72,608.978z"/>
		<path fill-rule="evenodd" clip-rule="evenodd" fill="#FFFFFF" d="M601.022,594.604c-0.461-0.777-0.922-1.556-1.794-3.028
			c9.226-5.831,18.543-11.491,27.605-17.533c5.574-3.718,10.569-8.311,16.186-11.954c3.497-2.269,7.598-3.689,11.55-5.162
			c11.877-4.425,23.738-8.918,35.759-12.926c6.552-2.185,13.396-3.509,20.146-5.063c1.532-0.354,3.215-0.052,5.504-0.052
			c-0.688,1.785-1.088,2.822-1.786,4.636c1.985-0.142,3.567,0.021,4.972-0.404c4.557-1.38,7.734,1.371,7.055,6.252
			c-0.39,2.798-0.723,5.604-1.126,8.767c-0.618-0.816-1.729-1.94-2.428-3.279c-1.453-2.785-2.99-4.572-6.016-1.133
			c-1.196-1.699-2.219-3.152-2.813-3.997c-1.997,0.743-3.766,1.677-5.645,2.045c-4.077,0.797-4.64,3.007-1.864,8.14
			c-4.358,1.1-9.215,1.334-12.968,3.489c-7.919,4.549-15.342,9.988-22.822,15.268c-13.607,9.604-27.101,19.385-42.447,26.138
			c-6.067,2.669-12.366,2.527-18.921,0.813c0.799,2.188,1.556,4.266,2.317,6.352c1.891-0.601,3.977-1.8,6.019-1.729
			c1.441,0.05,2.823,1.822,4.928,3.321c1.164-0.54,3.346-1.554,5.527-2.567c0.392,0.259,0.782,0.518,1.174,0.776
			c-0.771,1.435-1.298,3.087-2.353,4.268c-6.114,6.846-12.4,13.538-18.498,20.399c-0.909,1.022-1.454,2.624-1.606,4.019
			c-0.62,5.68-3.609,10.269-6.451,14.963c-1.723,2.847-3.303,5.779-4.895,8.581c1.92,1.46,3.588,2.203,4.465,3.486
			c4.108,6.009,9.015,5.712,15.579,3.965c12.038-3.205,24.494-4.811,36.702-7.431c4.783-1.027,9.317-3.165,14.05-4.496
			c12.658-3.562,25.382-6.891,38.038-10.461c4.792-1.352,9.479-3.065,14.387-0.639c5.287,2.614,10.523,5.336,15.847,7.874
			c4.283,2.043,8.512,4.437,13.039,5.676c6.187,1.694,10.007,5.659,13.512,10.619c4.162,5.89,9.14,11.217,13.116,17.218
			c1.96,2.958,2.461,6.884,3.622,10.371c-0.421,0.308-0.842,0.614-1.263,0.922c-4.094-2.259-8.021-4.921-12.314-6.695
			c-10.013-4.137-20.097-8.172-30.391-11.508c-2.687-0.871-6.267,0.907-9.412,1.58c-10.277,2.198-20.57,4.331-30.803,6.72
			c-6.567,1.533-13.047,3.443-19.551,5.24c-5.713,1.578-11.402,3.24-17.106,4.851c-2.134,0.603-4.886,0.42-4.34,4.016
			c0.426,2.799,0.58,4.788,4.758,4.284c2.983-0.36,6.267,1.761,9.821,2.905c2.918-4.706,7.633-1.188,11.569-0.863
			c14.592,1.204,29.145,2.928,43.684,4.691c6.15,0.746,12.226,2.101,18.343,3.127c3.972,0.666,7.964,1.207,11.938,1.861
			c4.84,0.797,9.661,1.46,14.651-1.179c0,1.514-0.436,2.891,0.067,3.535c5.303,6.796,4.294,14.017,1.977,21.512
			c-0.33,1.068,0.713,2.716,1.415,3.924c4.416,7.613,7.9,15.359,7.549,24.574c-0.251,6.598-2.087,12.071-8.035,17.45
			c0-2.416-0.144-3.814,0.028-5.173c0.421-3.305,2.097-6.896,1.293-9.831c-2.694-9.85-6.046-19.541-9.675-29.093
			c-0.641-1.687-3.806-3.403-5.824-3.427c-21.494-0.242-42.996-0.353-64.487,0.005c-5.272,0.087-10.514,2.005-15.831,3.521
			c6.646-1.125,10.113,3.29,14.211,7.11c2.13,1.985,5.486,3.464,8.393,3.664c10.991,0.756,21.054,3.663,30.574,9.413
			c4.063,2.454,9.308,3.023,14.071,4.227c3.655,0.924,7.428,1.375,11.092,2.271c2.982,0.729,8.22,7.844,7.95,11.151
			c-0.355,4.375-1.924,8.734-1.733,13.046c0.195,4.384,1.434,8.88,3.042,13.005c2.417,6.201,5.689,12.064,8.326,18.188
			c1.222,2.837-0.332,4.887-3.282,4.424c-3.18-0.497-6.923-1.162-9.153-3.164c-4.469-4.014-7.982-9.074-12.093-13.516
			c-1.263-1.364-3.063-2.674-4.825-3.064c-16.036-3.547-32.125-6.857-48.185-10.301c-4.688-1.006-9.331-2.216-14.189-3.378
			c-0.212,4.436,0.332,8.051-0.676,11.164c-2.504,7.728-4.998,15.608-8.806,22.729c-6.251,11.69-13.211,23.044-20.51,34.119
			c-4.596,6.975-10.353,13.184-15.589,19.735c-2.246,2.81-4.627,5.523-6.717,8.445c-8.061,11.269-18.863,19.732-29.748,27.844
			c-7.029,5.238-11.364,11.573-13.36,19.662c-3.043,12.331-7.841,24.181-7.941,37.33c-0.044,5.795-3.943,11.538-5.972,17.348
			c-2.513,7.197-4.843,14.458-7.378,21.647c-0.733,2.078-1.902,4.003-3.288,6.856c3.336,5.792-0.251,11.929-3.718,17.451
			c-4.639,7.39-7.051,15.41-9.474,23.607c-2.542,8.601-5.772,16.997-8.709,25.48c-0.053,0.151-0.28,0.277-0.273,0.407
			c0.498,9.035-6.687,10.692-12.826,13.07c-18.67,7.229-38.196,11.288-57.844,14.563c-13.471,2.245-27.083,3.904-40.699,4.938
			c-15.859,1.204-31.788,1.777-47.694,1.97c-9.392,0.113-18.798-1.04-28.688-1.654c4.05-11.557,7.911-22.576,11.773-33.595
			c-0.231-0.133-0.464-0.266-0.696-0.398c-1.119,1.785-2.239,3.57-3.359,5.355c-0.283-0.109-0.567-0.22-0.851-0.329
			c0.379-1.307,0.562-2.714,1.17-3.903c5.382-10.529,10.881-20.999,16.261-31.528c3.48-6.813,7.213-13.535,10.139-20.585
			c5.611-13.522,10.586-27.308,16.115-40.864c2.466-6.044,6.116-11.623,8.387-17.726c4.424-11.888,8.004-24.089,12.399-35.987
			c4.66-12.614,9.475-25.199,14.918-37.489c7.928-17.898,16.06-35.736,25-53.141c2.986-5.813,3.516-11.503,4.3-17.549
			c2.231-17.208,6.236-33.884,13.451-49.87c7.451-16.509,13.521-33.635,20.619-50.311c7.086-16.649,14.7-33.074,22.071-49.603
			c0.734-1.648,2.202-3.47,1.947-4.977c-1.477-8.741,4.276-12.893,9.907-17.742c7.391-6.366,14.324-13.314,21.009-20.432
			c5.258-5.598,11.129-11.201,14.415-17.932c4.74-9.711,13.33-15.298,20.138-22.768c3.557-3.902,7.082-7.833,10.622-11.752
			C600.189,594.068,600.605,594.336,601.022,594.604z"/>
		<path fill-rule="evenodd" clip-rule="evenodd" fill="#FFFFFF" d="M556.804,172.793c-3.1,3.578-5.678,6.922-8.641,9.881
			c-3.646,3.642-7.846,2.221-11.278-0.156c-7.04-4.874-14.535-8.352-23.04-9.534c-2.251-0.313-4.513-0.552-7.916,0.08
			c3.06,3.998,5.98,8.111,9.216,11.961c3.393,4.038,6.677,8.331,10.738,11.608c7.406,5.979,15.038,11.816,23.192,16.679
			c4.791,2.856,10.723,3.891,16.228,5.438c8.973,2.522,18.097,4.535,26.985,7.313c3.112,0.973,5.825,3.426,8.531,5.454
			c6.829,5.12,13.196,10.955,20.415,15.427c7.281,4.51,9.338,11.609,11.075,18.783c1.335,5.509,1.051,11.411,1.483,17.139
			c0.459,6.073-2.314,10.671-5.584,15.671c-3.428,5.241-8.041,6.44-12.994,6.311c-15.422-0.404-30.067,2.973-44.555,7.675
			c-3.572,1.159-7.22,2.318-10.918,2.751c-1.647,0.193-3.506-1.411-5.849-2.46c11.021-10.91,25.104-9.012,37.597-13.499
			c-4.574-2.336-8.996-4.302-13.092-6.803c-2.207-1.349-4.126-3.411-5.694-5.51c-2.548-3.413-5.188-4.437-9.688-3.604
			c-9.355,1.733-18.913,3.383-28.371,3.29c-9.724-0.096-19.784-0.893-28.316-6.857c-1.356-0.948-2.789-1.833-3.979-2.965
			c-3.992-3.799-7.891-7.697-12.222-11.946c2.863,0,5.741-0.067,8.615,0.012c10.944,0.303,21.917,0.267,32.826,1.072
			c17.662,1.306,33.684-4.232,49.201-11.436c4.077-1.893,7.2-6.165,10.282-9.756c1.832-2.136,0.918-4.381-1.417-6.361
			c-5.766-4.891-12.479-6.728-19.79-7.794c-10.072-1.468-20.113-3.337-30.028-5.637c-9.815-2.276-17.128-9.306-23.087-16.511
			c-9.122-11.026-16.477-23.516-24.575-35.388c-0.714-1.047-1.386-2.122-2.077-3.184c-0.387,0.146-0.772,0.292-1.159,0.438
			c0.615,2.179,0.73,4.695,1.932,6.479c5.517,8.189,7.045,17.562,8.116,26.976c0.414,3.638-0.35,7.608-1.498,11.126
			c-0.447,1.37-3.569,2.886-5.235,2.65c-5.165-0.729-10.362-1.85-15.281-3.577c-9.443-3.317-18.748-7.046-28.008-10.853
			c-2.367-0.974-4.643-2.591-6.447-4.419c-3.541-3.588-6.996-7.33-9.975-11.385c-3.105-4.229-6.01-8.71-8.252-13.437
			c-1.996-4.209,5.143-12.067,10.892-12.442c6.397-0.418,12.805-0.92,18.95,1.722c0.764,0.328,1.79,0.045,2.695,0.045
			c0.273-0.531,0.548-1.062,0.821-1.593c-6.322-4.408-12.358-9.318-19.027-13.118c-13.755-7.838-27.802-15.17-41.823-22.527
			c-5.642-2.96-11.398-5.798-17.343-8.062c-11.078-4.218-21.999-2.234-32.48,2.306c-2.826,1.225-3.674,0.783-4.777-1.773
			c-1.729-4.007-4.169-7.726-5.688-11.797c-1.083-2.903,0.229-5.103,3.778-5.439c6.862-0.652,7.502-1.792,3.269-7.019
			c-2.749-3.393-6.062-6.408-9.456-9.185c-8.196-6.707-8.781-12.411-1.767-20.747c6.165,1.713,8.752,6.857,11.42,11.919
			c6.017,11.409,13.829,21.498,25.131,27.794c7.233,4.03,15.508,6.271,23.438,8.954c7.772,2.63,15.713,6.721,23.553,6.659
			c8.414-0.067,13.439,4.105,18.316,8.8c11.513,11.08,24.344,20.135,38.221,27.91c8.609,4.823,17.85,4.335,27.112,3.82
			c1.509-0.083,3.425-1.002,4.346-2.171c5.892-7.479,13.033-4.229,20.28-3.108c7.013,1.084,11.618,5.812,17.155,9.218
			C546.01,167.01,550.963,169.544,556.804,172.793z"/>
		<path fill-rule="evenodd" clip-rule="evenodd" fill="#FFFFFF" d="M407.172,541.293c-7.823-7.904-11.353-21.919-6.4-29.171
			c3.086-4.521,8.796-7.919,14.038-10.167c13.767-5.904,27.81-11.226,41.959-16.159c11.064-3.858,22.328-7.309,33.723-10.02
			c21.468-5.109,43.051-9.765,64.68-14.143c6.104-1.236,12.534-0.938,18.82-1.193c17.901-0.727,35.81-1.3,53.71-2.075
			c21.363-0.925,42.794-1.231,64.054-3.272c14.146-1.358,27.64,0.696,41.311,3.022c1.626,0.276,3.313,0.215,4.974,0.269
			c10.785,0.349,21.631,0.096,32.341,1.184c11.77,1.196,23.425,3.559,35.108,5.536c8.1,1.37,16.332,2.356,24.2,4.588
			c9.322,2.643,18.436,6.148,27.417,9.823c8.005,3.275,14.184,8.694,16.572,17.527c0.838,3.101,0.582,5.584-2.739,7.032
			c-2.314,1.008-4.567,2.155-7.882,3.732c-18.834-10.546-43.687-13.547-67.479-19.799c-9.947-2.614-20.646-2.334-30.991-3.483
			c-8.68-0.966-17.334-2.151-26.011-3.14c-9.021-1.028-18.035-2.432-27.087-2.792c-17.273-0.687-34.606-1.566-51.85-0.829
			c-15.604,0.666-31.119,3.383-46.674,5.191c-7.537,0.876-15.088,1.652-22.612,2.629c-14.035,1.823-28.14,3.292-42.06,5.779
			c-13.91,2.484-27.648,5.955-41.429,9.138c-17.483,4.038-35.245,7.244-52.29,12.682c-11.637,3.712-22.254,10.621-33.319,16.116
			c-0.884,0.438-1.653,1.16-2.571,1.474C413.568,532.521,408.024,533.667,407.172,541.293z"/>
		<path fill-rule="evenodd" clip-rule="evenodd" fill="#FFFFFF" d="M635.457,304.646c3.314-4.458,6.432-7.818,11.512-10.026
			c4.086-1.776,7.752-6.154,9.94-10.263c2.947-5.535,5.133-11.786,6.136-17.974c1.455-8.972-2.123-16.903-8.519-23.226
			c-6.876-6.799-14.571-12.198-23.291-16.923c-12.462-6.752-25.434-11.472-38.755-15.675c-5.652-1.783-11.353-3.456-17.109-4.855
			c-5.511-1.34-9.366-4.511-12.192-9.298c-2.052-3.476-1.406-5.967,2.254-7.625c1.659-0.752,3.398-1.328,5.059-2.077
			c8.241-3.721,9.063-11.099,2.244-17.135c-4.605-4.076-9.763-5.751-15.804-6.173c-4.642-0.324-9.513-0.451-13.314-4.29
			c-4.559-4.603-11.104-3.354-16.718-4.861c-4.251-1.142-8.612-1.876-13.033-3.81c2.65,0,5.363-0.366,7.941,0.064
			c10.194,1.703,20.638,2.72,30.443,5.752c12.563,3.885,23.951,10.583,32.946,20.52c7.573,8.366,17.467,12.593,27.51,16.954
			c15.39,6.683,30.518,13.974,45.703,21.117c1.392,0.655,2.404,2.117,3.791,3.385c0.575-1.212,1.041-2.192,1.789-3.769
			c-8.422-5.098-16.988-10.202-25.457-15.465c-2.057-1.277-3.813-3.047-5.668-4.637c-6.995-5.997-14.184-11.791-20.857-18.126
			c-2.845-2.7-5.257-6.284-6.714-9.928c-2.927-7.315-8.312-11.236-16.454-12.034c-12.473-1.221-24.901-2.929-37.321-4.63
			c-5.548-0.761-11.015-2.094-16.55-2.973c-1.582-0.252-3.271,0.183-4.912,0.291c-3.367,0.222-6.735,0.435-10.138-0.105
			c8.796-2.727,17.414-7.54,26.798-1.587c1.578,1.001,3.737,1.589,5.606,1.54c7.641-0.199,7.643-0.323,9.07-12.723
			c2.465,1.04,5.289,1.455,6.931,3.071c4.791,4.717,11.206,5.187,16.97,7.327c14.917,5.538,22.009-4.505,28.984-14.704
			c0.562-0.821,1.031-1.719,1.683-2.46c0.734-0.836,1.625-1.534,3.326-3.102c-0.876,4.764-1.269,8.593-2.316,12.233
			c-1.893,6.577-0.8,8.872,5.944,10.037c4.526,0.783,5.183,4.623,5.746,7.699c1.003,5.475,1.317,11.144,1.271,16.726
			c-0.055,6.346,2.423,11.006,8.646,15.466c-0.379-5.355-1.7-9.931-0.693-13.919c0.943-3.733,4.353-6.844,6.993-10.69
			c5.262,4.035,11.005,8.021,16.266,12.565c9.558,8.257,21.021,12.762,32.426,17.54c15.143,6.345,28.34,15.741,40.583,26.578
			c3.45,3.054,3.566,2.922,8.019,0.515c3.153,5.092,6.324,9.561,3.257,16.502c-2.572,5.822-2.871,12.631-4.347,18.964
			c-0.562,2.412-1.599,4.713-3.047,6.8c0.242-4.291,0.466-8.582,0.732-12.871c0.659-10.638-4.014-19.461-9.653-27.879
			c-7.177-10.709-18.289-14.827-30.114-17.984c-6.661-1.779-13.226-4.155-19.544-6.923c-8.422-3.688-16.585-7.975-24.806-12.108
			c-1.871-0.941-3.526-2.312-5.653-3.734c0.328,1.897,0.875,3.409,0.8,4.889c-0.521,10.271,8.447,15.141,15.563,16.058
			c9.329,1.202,17.454,4.303,22.015,13.642c1.92,3.932,5.31,7.117,7.682,10.864c2.874,4.539,5.521,9.237,8.013,14
			c4.668,8.92,2.604,21.439-5.085,28.696c0.499-4.355,0.927-8.084,1.354-11.812c-0.386-0.081-0.772-0.162-1.158-0.243
			c-0.645,2.377-1.29,4.753-1.759,6.482c-9.172,0.405-18.346,0.812-27.732,1.227c0.693,3.041,1.664,6.195,2.098,9.421
			c1.198,8.931-5.063,14.492-10.014,20.372c-2.441,2.9-6.381,4.489-9.354,7.013c-1.62,1.376-2.636,3.464-4.046,5.398
			C643.83,305.414,639.922,305.056,635.457,304.646z"/>
		<path fill-rule="evenodd" clip-rule="evenodd" fill="#FFFFFF" d="M681.21,324.048c0.838,10.354,1.615,19.953,2.362,29.188
			c-9.122,1.937-18.498,3.563-27.646,6.033c-4.144,1.119-7.806,3.976-11.758,5.895c-0.898,0.437-2.32,0.7-3.123,0.295
			c-13.72-6.93-28.06-12.039-43.572-10.112c-10.148,1.261-20.068,4.466-30.036,7.014c-3.13,0.8-6.084,2.292-10.174,3.876
			c-0.831-5.569-1.74-11.05-2.443-16.557c-0.558-4.37-1.085-8.77-1.145-13.162c-0.019-1.329,1.304-3.528,2.461-3.891
			c10.817-3.376,21.702-6.545,32.629-9.55c5.835-1.604,11.767-2.888,17.696-4.109c11.744-2.421,23.453-1.952,35.236,0.167
			c7.747,1.393,15.647,1.931,23.475,2.883C670.673,322.687,676.167,323.408,681.21,324.048z"/>
		<path fill-rule="evenodd" clip-rule="evenodd" fill="#FFFFFF" d="M716.139,823.478c0,1.597,0,3.219,0,4.841
			c0.313,0.093,0.626,0.186,0.938,0.277c0.413-1.756,0.827-3.512,1.278-5.432c7.536,4.459,12.969,10.636,15.03,19.117
			c0.679,2.789-0.73,6.029-0.83,9.076c-0.511,15.54-0.67,31.095-1.415,46.623c-0.6,12.478-1.761,24.932-2.868,37.379
			c-0.579,6.513-3.786,10.392-8.875,11.521c-7.474,1.657-15.111-4.148-15.244-11.903c-0.176-10.315-0.042-20.636-0.043-30.955
			c0-21.306-0.007-42.612,0.003-63.919c0.002-3.823-0.729-7.88,0.299-11.415C705.972,823.32,710.73,821.623,716.139,823.478z"/>
		<path fill-rule="evenodd" clip-rule="evenodd" fill="#FFFFFF" d="M598.941,1018.249c1.172-5.978,0.694-12.538,3.682-16.459
			c3.58-4.7,9.7-8.629,15.463-10.245c10.186-2.857,20.88-4.573,31.457-5.225c20.827-1.284,41.72-1.98,62.585-1.966
			c9.427,0.007,18.864,2.214,28.272,3.594c3.708,0.544,7.475,1.192,10.994,2.424c8.696,3.043,11.706,8.72,10.133,19.184
			c-5.838-1.7-11.515-3.727-17.36-4.938c-4.649-0.963-9.503-1.251-14.27-1.283c-19.64-0.135-39.288-0.388-58.917,0.084
			c-9.685,0.232-19.37,1.694-28.989,3.064c-8.755,1.246-17.532,2.683-26.084,4.874
			C610.252,1012.806,604.977,1015.736,598.941,1018.249z"/>
		<path fill-rule="evenodd" clip-rule="evenodd" fill="#FFFFFF" d="M625.673,439.017c-3.238-13.413-0.303-25.434,5.548-36.877
			c2.215-4.33,4.967-8.432,7.842-12.368c4.347-5.95,10.306-5.637,15.966-1.052c0.75,0.606,1.592,1.131,2.459,1.556
			c14.104,6.902,20.152,19.515,23.07,33.836c1.445,7.098-3.482,12.231-12.293,12.995c-13.516,1.172-27.102,1.531-40.659,2.209
			C626.973,439.347,626.326,439.123,625.673,439.017z"/>
		<path fill-rule="evenodd" clip-rule="evenodd" fill="#FFFFFF" d="M689.859,851.244c0,3.762-1.311,8.251,0.283,11.13
			c2.979,5.378,1.491,10.67,1.54,15.896c0.09,9.605-1.014,19.218-1.035,28.829c-0.019,8.559,0.84,17.117,1.149,25.682
			c0.225,6.223-3.543,10.386-8.58,12.707c-4.672,2.152-10.147,2.874-14.324-1.523c-3.132-3.298-5.867-6.877-5.644-12.043
			c0.306-7.103-0.122-14.235,0.115-21.344c0.592-17.695,2.688-35.072,14.197-49.582c3.027-3.815,7.06-6.835,10.63-10.22
			C688.748,850.932,689.304,851.088,689.859,851.244z"/>
		<path fill-rule="evenodd" clip-rule="evenodd" fill="#FFFFFF" d="M577.59,444.402c-15.566,2.05-30.739,4.048-46.081,6.067
			c2.168-22.529,6.61-44.076,30.672-56.618c2.127,2.491,5.546,5.562,7.802,9.329c4.579,7.648,8.633,15.621,12.703,23.563
			c2.761,5.388,1.437,10.922-3.045,15.013C578.614,442.693,577.908,443.981,577.59,444.402z"/>
		<path fill-rule="evenodd" clip-rule="evenodd" fill="#FFFFFF" d="M481.582,403.845c4.597,3.309,9.688,5.607,12.798,9.492
			c6.716,8.392,12.104,17.782,10.796,29.241c-0.42,3.674-1.091,7.79-3.127,10.649c-1.439,2.022-5.298,2.604-8.204,3.251
			c-12.131,2.705-24.312,5.191-35.877,7.631C456.896,441.554,468.987,423.229,481.582,403.845z"/>
		<path fill-rule="evenodd" clip-rule="evenodd" fill="#FFFFFF" d="M726.278,387.189c21.343,14.533,32.264,33.1,31.884,52.178
			c-2.73-0.339-5.371-0.795-8.031-0.972c-6.437-0.428-12.879-0.925-19.323-1.003c-3.951-0.048-7.194-0.998-9.327-4.443
			c-2.923-4.721-6.142-9.316-8.515-14.307c-3.065-6.444,0.87-12.06,3.67-17.376C719.22,396.36,722.9,392.031,726.278,387.189z"/>
		<path fill-rule="evenodd" clip-rule="evenodd" fill="#FFFFFF" d="M755.363,977.972c-50.635-13.959-100.904-12.743-150.817,4.36
			c0.646-10.146,2.273-12.318,14.967-15.081c12.147-2.644,24.538-4.179,36.827-6.166c21.484-3.475,43.116-2.777,64.581-0.743
			c10.311,0.978,20.415,4.854,30.419,8.029C756.249,969.93,756.575,971.828,755.363,977.972z"/>
		<path fill-rule="evenodd" clip-rule="evenodd" fill="#FFFFFF" d="M424.106,471.869c-4.174-7.166-8.986-14.048-12.331-21.581
			c-2.998-6.755-4.591-14.174-6.389-21.403c-0.906-3.643,5.32-7.648,10.043-6.897c11.361,1.809,17.273,8.781,19.604,19.726
			c1.253,5.885,1.521,10.958-2.537,16.21c-2.994,3.875-4.421,8.962-6.546,13.51C425.335,471.578,424.721,471.724,424.106,471.869z"
			/>
		<path fill-rule="evenodd" clip-rule="evenodd" fill="#FFFFFF" d="M818.524,446.154c-3.123-0.373-6.206-0.685-9.271-1.119
			c-6.554-0.93-10.235-6.15-13.917-10.55c-4.995-5.97-9.845-12.355-8.576-21.295c0.774-5.459,4.782-12.285,9.899-14.166
			c0.861-0.316,2.523-0.196,2.979,0.382c10.506,13.313,19.683,27.233,19.289,45.204
			C818.918,445.081,818.688,445.547,818.524,446.154z"/>
		<path fill-rule="evenodd" clip-rule="evenodd" fill="#FFFFFF" d="M641.078,1091.519c-4.057-10.468-8.406-20.835-12.049-31.444
			c-1.939-5.647-2.833-11.684-3.866-17.603c-0.982-5.624,1.217-8.8,6.044-9.525c5.469-0.823,9.974,2.267,11.117,7.172
			c1.652,7.09,3.43,14.161,5.488,21.143c2.534,8.591,2.877,17.05-0.742,25.366c-0.795,1.828-2.38,3.313-3.602,4.955
			C642.672,1091.561,641.875,1091.539,641.078,1091.519z"/>
		<path fill-rule="evenodd" clip-rule="evenodd" fill="#FFFFFF" d="M658.413,1041.955c0.001-9.914,2.359-11.671,9.649-9.155
			c7.043,2.431,9.619,8.183,11.4,14.922c3.084,11.664-0.508,22.646-2.664,33.793c-0.296,1.53-1.526,2.919-2.46,4.279
			c-1.539,2.242-3.215,2.192-4.668-0.074c-3.903-6.086-6.742-12.52-7.622-19.853C661,1057.127,659.42,1048.449,658.413,1041.955z"/>
		<path fill-rule="evenodd" clip-rule="evenodd" fill="#FFFFFF" d="M660.719,1125.365c19.609,2.792,38.859,1.3,58.549-3.442
			c-2.523,3.059-4.742,6.449-7.639,9.1c-4.785,4.378-9.89,8.434-15.086,12.322c-3.41,2.551-7.167,4.66-10.893,6.747
			c-0.745,0.417-2.442,0.232-3.038-0.351c-7.589-7.43-15.057-14.983-22.556-22.505
			C660.277,1126.612,660.498,1125.989,660.719,1125.365z"/>
		<path fill-rule="evenodd" clip-rule="evenodd" fill="#FFFFFF" d="M663.464,376.978c16.985-8.255,33.976-5.739,51.748-0.796
			c-8.451,8.419-18.338,14.872-22.143,27.634C684.997,392.751,675.912,383.136,663.464,376.978z"/>
		<path fill-rule="evenodd" clip-rule="evenodd" fill="#FFFFFF" d="M600.566,409.512c-0.17-8.232-4.889-13.558-11.479-17.967
			c-3.463-2.316-6.296-5.576-9.448-8.442c10.087-9.264,33.799-8.925,45.004-4.284c-3.988,5.005-8.02,10.004-11.983,15.056
			C608.645,398.993,604.697,404.165,600.566,409.512z"/>
		<path fill-rule="evenodd" clip-rule="evenodd" fill="#FFFFFF" d="M787.998,381.108c-10.504,4.614-16.121,13.219-20.781,23.284
			c-7.876-9.475-15.639-18.814-23.746-28.567C759.369,371.596,773.672,375.447,787.998,381.108z"/>
		<path fill-rule="evenodd" clip-rule="evenodd" fill="#FFFFFF" d="M518.574,418.935c-4.134-10.135-9.73-18.893-17.939-25.831
			c10.973-10.176,23.772-13.421,38.599-9.531c-4.22,5.394-9.084,10.458-12.536,16.35
			C523.275,405.761,521.277,412.434,518.574,418.935z"/>
		<path fill-rule="evenodd" clip-rule="evenodd" fill="#FFFFFF" d="M693.598,1066.09c1.065-9.59,2.003-19.196,3.277-28.758
			c0.352-2.639,1.771-4.455,5.341-4.227c3.452,0.221,4.702,1.318,5.454,4.67c2.586,11.527,1.547,22.878-1.164,34.139
			c-0.791,3.284-2.531,6.379-4.096,9.427c-1.416,2.758-3.384,2.905-5.456,0.503C694.549,1079.058,694.199,1077.139,693.598,1066.09z
			"/>
		<path fill-rule="evenodd" clip-rule="evenodd" fill="#FFFFFF" d="M745.974,554.236c-2.715,0-5.88,0-9.044,0
			c0.041-0.436,0.083-0.872,0.125-1.308c1.737,0.257,3.475,0.515,6.263,0.927c-2.498-1.941-4.479-3.152-6.038-4.771
			c-2.516-2.612-5.218-5.233-6.959-8.345c-1.383-2.471,0.176-5.186,3.059-5.664c7.931-1.319,15.908-2.447,23.908-3.232
			c3.975-0.391,10.913,9.054,9.593,12.77c-0.339,0.954-1.782,1.784-2.891,2.15c-5.286,1.741-10.658,3.227-15.931,5.007
			C747.194,552.063,746.673,553.373,745.974,554.236z"/>
		<path fill-rule="evenodd" clip-rule="evenodd" fill="#FFFFFF" d="M642.564,1097.977c1.72-0.092,3.166-0.234,4.613-0.236
			c14.219-0.017,28.447,0.322,42.65-0.133c8.69-0.278,17.33-1.912,26.017-2.64c3.54-0.296,7.181-0.032,10.7,0.487
			c0.909,0.134,1.735,2.131,2.153,3.418c0.11,0.34-1.36,1.59-2.246,1.787c-3.525,0.781-7.084,1.623-10.671,1.879
			c-11.557,0.824-23.124,1.609-34.701,1.98c-5.767,0.186-11.563-0.771-17.349-0.822c-4.114-0.036-8.231,0.753-12.354,0.855
			C647.062,1104.66,643.904,1102.812,642.564,1097.977z"/>
		<path fill-rule="evenodd" clip-rule="evenodd" fill="#FFFFFF" d="M736.671,1051.151c0.439,9.927-2.817,18.798-7.274,27.277
			c-0.863,1.641-3.096,2.562-4.697,3.814c-0.663-1.513-1.53-2.97-1.957-4.547c-2.879-10.654,0.76-20.943,1.865-31.377
			c0.189-1.796-0.105-3.798,0.603-5.348c1.056-2.311,2.36-5.05,4.369-6.248c2.639-1.574,5.625-1.819,5.541,3.293
			C735.049,1042.386,736.11,1046.772,736.671,1051.151z"/>
		<path fill-rule="evenodd" clip-rule="evenodd" fill="#FFFFFF" d="M643.763,920.297c0.642,4.56,1.644,10.459,2.262,16.398
			c0.721,6.928-4.191,12.426-11.155,13.47c-5.914,0.887-11.789,2.639-16.25-3.411c-0.368-0.499-2.002-0.065-3.787-0.065
			C625.1,937.322,634.929,928.355,643.763,920.297z"/>
		<path fill-rule="evenodd" clip-rule="evenodd" fill="#FFFFFF" d="M552.553,611.674c-6.716,5.184-11.353,2.155-15.479-2.536
			c-3.978-4.522-4.373-9.716-2.169-15.186c3.824-9.492,8.531-11.97,19.479-12.838C549.559,591.361,543.351,601.434,552.553,611.674z
			"/>
		<path fill-rule="evenodd" clip-rule="evenodd" fill="#FFFFFF" d="M580.676,576.39c0.929,4.582,1.993,8.699,2.51,12.884
			c0.238,1.927,0.036,4.476-1.063,5.891c-3.004,3.867-6.591,7.281-10.334,11.289c-3.063-5.367-5.833-9.907-8.21-14.645
			c-0.512-1.02,0.132-2.873,0.707-4.131c1.147-2.51,2.41-5.022,4.026-7.241c1.057-1.451,2.665-3.017,4.299-3.415
			C575.412,576.337,578.427,576.526,580.676,576.39z"/>
		<path fill-rule="evenodd" clip-rule="evenodd" fill="#FFFFFF" d="M449.961,427.147c-4.696-5.407-9.205-10.598-14.238-16.393
			c6.241-5.765,14.841-9.383,24.314-10.39C456.681,409.287,453.421,417.951,449.961,427.147z"/>
		<path fill-rule="evenodd" clip-rule="evenodd" fill="#FFFFFF" d="M691.524,594.025c-2.907,2.33-5.554,5.14-8.776,6.889
			c-6.831,3.707-14.042,6.708-20.92,10.333c-2.045,1.078-3.791,3.065-5.177,4.993c-4.788,6.667-9.357,13.491-14.11,20.4
			c-4.085-2.872-3.698-4.896-1.444-7.855c2.541-3.338,4.218-7.331,6.307-11.019c0.397-0.701,0.85-1.458,1.473-1.93
			c2.8-2.12,5.503-4.448,8.549-6.15c9.664-5.402,19.455-10.58,29.23-15.78c1.219-0.648,2.644-0.908,3.973-1.349
			C690.927,593.047,691.226,593.536,691.524,594.025z"/>
		<path fill-rule="evenodd" clip-rule="evenodd" fill="#FFFFFF" d="M727.649,597.247c2.176-4.277,3.979-8.487,6.43-12.278
			c0.851-1.314,3.669-2.6,4.962-2.139c3.093,1.102,5.934,3.087,8.609,5.075c0.781,0.58,1.333,2.857,0.847,3.526
			c-2.826,3.894-5.969,7.561-9.099,11.224c-0.225,0.263-1.282,0.045-1.814-0.224C734.4,600.827,731.257,599.142,727.649,597.247z"/>
		<path fill-rule="evenodd" clip-rule="evenodd" fill="#FFFFFF" d="M650.332,655.673c-8.257,1.63-15.085,2.979-21.904,4.325
			c-1.611-6.258,2.194-11.339,8.834-12.997c1.519-2.967,2.741-5.355,3.964-7.743c0.52-0.143,1.039-0.284,1.559-0.426
			C645.17,644.154,647.555,649.478,650.332,655.673z"/>
		<path fill-rule="evenodd" clip-rule="evenodd" fill="#FFFFFF" d="M677.82,644.578c0,1.907,0,3.015,0,4.274
			c-2.719,0.199-5.289,0.388-8.6,0.63c3.242-5.572,2.114-13.393,10.063-15.266c8.234-1.94,10.031,5.725,14.233,9.893
			C685.199,648.63,681.273,648.928,677.82,644.578z"/>
		<path fill-rule="evenodd" clip-rule="evenodd" fill="#FFFFFF" d="M835.227,391.04c-3.602,3.66-7.031,7.146-10.987,11.166
			c-2.689-3.414-6.375-8.093-10.069-12.783C820.94,384.506,829.301,385.597,835.227,391.04z"/>
		<path fill-rule="evenodd" clip-rule="evenodd" fill="#FFFFFF" d="M782.569,545.672c-3.415,3.728-6.66,7.631-10.295,11.13
			c-3.331,3.206-6.981,6.112-10.709,8.854c-1.098,0.808-2.939,0.603-4.44,0.861c0.406-1.376,0.385-3.225,1.292-4.046
			c4.172-3.774,8.644-7.213,12.92-10.876c1.636-1.4,3.393-2.982,1.107-5.335c-0.313-0.322-0.554-0.962-0.468-1.381
			c0.559-2.722,1.217-5.422,1.843-8.129c0.948,2.166,1.899,4.332,2.843,6.501c0.192,0.443,0.355,0.899,0.527,1.337
			c1.546-0.188,3.016-0.368,4.485-0.548C781.973,544.584,782.271,545.128,782.569,545.672z"/>
		<path fill-rule="evenodd" clip-rule="evenodd" fill="#FFFFFF" d="M706.917,641.298c1.033-3.388,1.947-7.107,6.839-7.211
			c4.32-0.092,8.694-0.248,11.336,4.154c2.41,4.017,2.121,7.903-0.129,10.953C718.749,646.476,712.896,643.914,706.917,641.298z"/>
		<path fill-rule="evenodd" clip-rule="evenodd" fill="#FFFFFF" d="M718.214,583.568c-6.034,4.478-7.393,13.399-16.667,13.642
			c1.883,0.807,3.414,1.464,4.945,2.12c-0.051,0.443-0.102,0.886-0.152,1.328c-4.654,0.512-9.31,1.023-13.964,1.535
			c-0.26-0.608-0.519-1.218-0.778-1.826C700.724,595.477,703.847,582.074,718.214,583.568z"/>
		<path fill-rule="evenodd" clip-rule="evenodd" fill="#FFFFFF" d="M612.762,572.449c-6.667,4.342-12.171,7.928-18.239,11.879
			c0-3.773,0-6.794,0-10.235C600.296,573.572,605.965,573.062,612.762,572.449z"/>
		<path fill-rule="evenodd" clip-rule="evenodd" fill="#FFFFFF" d="M699.381,706.387c10.258-8.19,17.798-2.367,25.416,2.938
			C716.624,708.379,708.45,707.435,699.381,706.387z"/>
		<path fill-rule="evenodd" clip-rule="evenodd" fill="#FFFFFF" d="M734.251,577.009c7.574-3.515,14.084-6.535,21.599-10.021
			C752.969,573.162,740.455,579.097,734.251,577.009z"/>
		<path fill-rule="evenodd" clip-rule="evenodd" fill="#FFFFFF" d="M741.714,839.371c-2.36-4.454-4.649-8.773-6.938-13.093
			c-1.092,1.069-2.185,2.139-3.276,3.207C738.651,828.028,743.078,832.169,741.714,839.371z"/>
		<path fill-rule="evenodd" clip-rule="evenodd" fill="#FFFFFF" d="M737.72,608.978c-4.155-2.273-8.31-4.547-12.611-6.9
			C729.088,601.076,731.961,602.502,737.72,608.978z"/>
	</g>
</g>
</svg>
