<?xml version="1.0" encoding="utf-8"?>
<!-- Generator: Adobe Illustrator 16.0.3, SVG Export Plug-In . SVG Version: 6.00 Build 0)  -->
<!DOCTYPE svg PUBLIC "-//W3C//DTD SVG 1.1//EN" "http://www.w3.org/Graphics/SVG/1.1/DTD/svg11.dtd">
<svg version="1.1" id="JOBS_ECONOMY_final_xA0_Image_1_"
	 xmlns="http://www.w3.org/2000/svg" xmlns:xlink="http://www.w3.org/1999/xlink" x="0px" y="0px" width="1200px" height="1200px"
	 viewBox="0 0 1200 1200" enable-background="new 0 0 1200 1200" xml:space="preserve">
<g>
	<g>
		<path fill-rule="evenodd" clip-rule="evenodd" d="M1201,1201c-400,0-800,0-1200,0C1,801,1,401,1,1c400,0,800,0,1200,0
			C1201,401,1201,801,1201,1201z M702.3,1170.543c2.31,0,4.115,0,5.92,0c128.493,0,256.985,0.011,385.479-0.042
			c4.813-0.002,9.706-0.179,14.422-1.04c20.581-3.759,36.261-15.205,48.257-31.937c13.856-19.324,19.613-41.176,19.61-64.755
			c-0.014-128.492-0.006-256.985-0.005-385.478c0-183.656-0.026-367.313,0.037-550.969c0.007-19.471-3.422-38.104-12.905-55.21
			c-14.902-26.879-36.572-43.936-68.563-43.944c-328.481-0.091-656.963-0.055-985.444-0.058c-22.906,0-41.653,9.142-56.471,26.278
			c-17.92,20.726-24.981,45.282-24.977,72.345c0.047,312.148,0.038,624.298,0.006,936.446c-0.001,15.467,2.325,30.431,8.188,44.813
			c14.551,35.692,40.992,53.549,79.453,53.549c111.327,0,222.654,0,333.981,0c2.13,0,4.26,0,6.824,0
			c6.729-55.748,13.405-111.048,20.083-166.361c-1.764-0.176-2.87-0.286-4.064-0.405c1.392-4.339,2.933-8.377,3.981-12.538
			c7.075-28.068,9.852-56.81,11.56-85.531c3.65-61.368,7.119-122.773,8.984-184.214c2.148-70.783,2.534-141.62,3.569-212.435
			c0.186-12.649,1.921-25.76-0.678-37.881c-10.563-49.261-29.987-94.829-61.801-134.413c-23.74-29.54-53.078-51.281-89.982-61.729
			c-34.095-9.652-68.186-7.69-102.272,0.325c-4.769,1.122-7.636,3.663-10.929,7.317c-10.899,12.093-22.821,23.259-34.179,34.948
			c-3.786,3.896-8.169,5.016-13.4,5.243c-35.125,1.524-70.244,3.196-105.354,5.034c-3.918,0.205-5.902-0.884-7.63-4.399
			c-17.874-36.364-30.082-74.379-32.607-115.004c-2.485-39.983,6.016-76.969,30.761-109.594
			c5.353-7.059,11.509-11.196,19.549-13.396c3.686-1.009,7.424-1.904,11.192-2.523c30.294-4.976,60.771-4.134,91.244-2.486
			c1.99,0.108,4.414,2.02,5.704,3.776c21.431,29.185,50.293,45.465,86.052,49.684c27.046,3.19,53.081-1.812,78.528-10.598
			c34.476-11.903,65.36-30.483,95.043-51.308c2.297-1.611,5.362-2.731,8.152-2.932c14.289-1.027,28.598-1.856,42.912-2.429
			c66.388-2.652,132.182,2.171,197.156,16.39c83.879,18.356,161.195,51.609,230.107,103.212
			c93.394,69.933,159.604,160.521,202.188,268.733c10.129,25.737,18.556,52.04,22.514,79.551c0.465,3.235,0.063,6.596,0.063,9.898
			c-3.089-3.023-4.911-6.347-7.16-9.351c-25.681-34.297-52.608-67.579-81.46-99.271c-42.082-46.224-87.607-88.557-139.138-124.259
			c-47.055-32.602-98.783-55.597-152.137-75.37c-1.522-0.564-4.072-0.107-5.41,0.873c-7.235,5.301-14.822,10.318-21.217,16.534
			c-21.488,20.888-34.608,47.036-45.063,74.646c-17.276,45.62-25.882,93.248-31.75,141.414
			c-7.568,62.117-9.692,124.539-9.559,187.074c0.124,58.185,2.522,116.282,6.541,174.31c2.06,29.741,4.81,59.438,7.537,89.129
			c2.146,23.366,5.28,46.651,7.006,70.044c2.904,39.377,5.021,78.813,7.507,118.221
			C699.543,1128.918,700.915,1149.355,702.3,1170.543z M272.301,204.563c-18.291-9.82-55.471-18.911-75.221-18.331
			c-10.943,0.322-21.593,2.114-30.473,9.249c-1.709,1.373-3.538,3.373-4.011,5.39c-5.439,23.151-4.285,45.642,8.201,66.539
			c3.355,5.615,7.79,10.585,11.874,16.043C213.014,256.746,242.482,230.809,272.301,204.563z"/>
		<path fill-rule="evenodd" clip-rule="evenodd" fill="#FFFFFF" d="M702.3,1170.543c-1.385-21.188-2.757-41.625-4.047-62.067
			c-2.486-39.408-4.603-78.844-7.507-118.221c-1.726-23.393-4.859-46.678-7.006-70.044c-2.728-29.69-5.478-59.388-7.537-89.129
			c-4.019-58.027-6.417-116.125-6.541-174.31c-0.134-62.535,1.99-124.957,9.559-187.074c5.868-48.166,14.474-95.794,31.75-141.414
			c10.455-27.61,23.575-53.759,45.063-74.646c6.395-6.216,13.981-11.233,21.217-16.534c1.338-0.98,3.888-1.438,5.41-0.873
			c53.354,19.773,105.082,42.769,152.137,75.37c51.53,35.702,97.056,78.035,139.138,124.259
			c28.852,31.691,55.779,64.974,81.46,99.271c2.249,3.004,4.071,6.327,7.16,9.351c0-3.303,0.402-6.663-0.063-9.898
			c-3.958-27.511-12.385-53.813-22.514-79.551c-42.584-108.212-108.794-198.801-202.188-268.733
			c-68.912-51.603-146.229-84.855-230.107-103.212c-64.975-14.219-130.769-19.042-197.156-16.39
			c-14.314,0.572-28.623,1.401-42.912,2.429c-2.79,0.2-5.855,1.32-8.152,2.932c-29.683,20.824-60.567,39.404-95.043,51.308
			c-25.447,8.786-51.481,13.788-78.528,10.598c-35.759-4.219-64.621-20.499-86.052-49.684c-1.29-1.757-3.714-3.668-5.704-3.776
			c-30.473-1.647-60.95-2.489-91.244,2.486c-3.768,0.619-7.506,1.515-11.192,2.523c-8.041,2.199-14.196,6.337-19.549,13.396
			c-24.745,32.625-33.246,69.61-30.761,109.594c2.525,40.625,14.734,78.64,32.607,115.004c1.728,3.516,3.712,4.604,7.63,4.399
			c35.11-1.838,70.229-3.51,105.354-5.034c5.231-0.228,9.615-1.348,13.4-5.243c11.357-11.689,23.279-22.855,34.179-34.948
			c3.293-3.654,6.161-6.195,10.929-7.317c34.087-8.016,68.178-9.978,102.272-0.325c36.904,10.447,66.242,32.188,89.982,61.729
			c31.813,39.584,51.237,85.152,61.801,134.413c2.599,12.121,0.863,25.231,0.678,37.881c-1.035,70.814-1.421,141.651-3.569,212.435
			c-1.865,61.44-5.334,122.846-8.984,184.214c-1.708,28.722-4.484,57.463-11.56,85.531c-1.049,4.161-2.59,8.199-3.981,12.538
			c1.194,0.119,2.301,0.229,4.064,0.405c-6.678,55.313-13.354,110.613-20.083,166.361c-2.564,0-4.694,0-6.824,0
			c-111.327,0-222.654,0-333.981,0c-38.46,0-64.901-17.856-79.453-53.549c-5.863-14.383-8.189-29.347-8.188-44.813
			c0.031-312.148,0.041-624.298-0.006-936.446c-0.004-27.063,7.056-51.619,24.977-72.345c14.818-17.137,33.565-26.278,56.471-26.278
			c328.481,0.003,656.962-0.033,985.444,0.058c31.991,0.009,53.661,17.065,68.563,43.944c9.483,17.105,12.912,35.739,12.905,55.21
			c-0.063,183.656-0.037,367.313-0.037,550.969c-0.001,128.492-0.009,256.985,0.005,385.478c0.003,23.579-5.754,45.431-19.61,64.755
			c-11.996,16.731-27.676,28.178-48.257,31.937c-4.716,0.861-9.609,1.038-14.422,1.04c-128.493,0.053-256.985,0.042-385.479,0.042
			C706.415,1170.543,704.609,1170.543,702.3,1170.543z M288.536,483.759c9.799,1.533,19.239,2.358,28.348,4.559
			c25.727,6.216,44.034,20.842,50.484,47.562c3.171,13.139,2.565,26.449,0.073,39.678c-1.006,5.34-0.159,7.09,4.998,7.34
			c8.109,0.394,16.35,0.999,24.357,0.039c23.757-2.847,41.058-22.475,41.343-46.421c0.288-24.257-11.028-42.853-29.702-57.151
			c-26.17-20.038-56.758-27.799-88.967-30.37c-9.723-0.776-19.495-0.942-28.988-1.376c0-5.86-0.149-11.346,0.029-16.821
			c0.471-14.488,0.953-28.978,1.733-43.451c0.193-3.575-1.147-5.081-4.259-6.079c-6.985-2.241-14.021-2.821-21.177-1.136
			c-7.918,1.865-10.556,5.164-10.813,13.239c-0.412,12.99-0.799,25.981-1.279,38.969c-0.226,6.122-0.643,12.236-0.968,18.277
			c-2.029,0.459-3.642,0.882-5.277,1.186c-30.292,5.616-58.729,16.158-84.456,33.181c-42.431,28.076-70.406,65.54-74.504,117.922
			c-2.411,30.808,5.395,58.728,24.122,83.442c15.079,19.899,34.647,34.71,56.11,46.676c22.058,12.297,45.033,22.953,67.645,34.251
			c2.496,1.247,4.259,2.159,4.117,5.717c-2.698,67.427-5.21,134.861-7.782,202.293c-0.36,9.444-0.834,18.885-1.273,28.734
			c-26.005-1.567-50.275-6.848-70.912-23.085c-15.044-11.837-24.063-27.279-26.759-46.378c-2.003-14.191,0.426-27.852,4.303-41.396
			c1.643-5.739,1.032-6.769-4.852-8.253c-30.157-7.605-62.418,11.617-69.27,41.956c-5.259,23.285,0.857,44.204,15.738,62.608
			c13.058,16.149,30.343,26.232,49.385,33.638c30.691,11.937,62.732,16.06,95.426,16.347c1.752,0.016,3.504,0.168,5.587,0.273
			c-0.823,21.981-1.625,43.398-2.471,65.986c12.516-1.229,24.287-2.387,36.159-3.554c0.793-20.566,1.621-40.36,2.253-60.161
			c0.102-3.18,0.792-4.558,4.322-5.08c24.82-3.67,48.897-10.25,71.57-21.036c60.329-28.699,99.351-73.259,104.634-142.495
			c2.34-30.674-4.933-58.369-24.692-82.505c-12.722-15.539-27.961-28.039-44.744-38.787c-28.864-18.484-60.503-31.432-91.643-45.322
			c-5.062-2.259-6.68-4.669-6.447-10.217c2.608-62.094,4.913-124.2,7.317-186.303C287.683,501.808,288.105,493.366,288.536,483.759z
			 M936.951,470.579c-2.31,0.517-3.925,0.93-5.56,1.235c-33.169,6.209-64.032,18.196-91.467,37.981
			c-38.72,27.923-63.758,64.264-67.435,113.188c-2.314,30.813,5.471,58.707,24.188,83.433
			c14.026,18.527,31.959,32.775,51.882,44.032c23.144,13.076,47.192,24.568,71.027,36.387c3.992,1.979,5.037,3.943,4.811,8.234
			c-1.038,19.633-1.668,39.286-2.406,58.934c-2.084,55.444-4.148,110.89-6.243,166.334c-0.042,1.11-0.367,2.21-0.63,3.713
			c-28.557-1.934-55.293-8.027-76.633-28.454c-11.552-11.058-18.355-24.698-20.649-40.627c-2.018-14.012,0.172-27.526,4.033-40.919
			c2.035-7.057,1.718-7.699-5.704-9.332c-16.918-3.721-32.485-0.268-46.427,9.755c-21.894,15.74-29.478,44.412-19.134,72.244
			c8.531,22.955,25.434,38.262,46.645,49.228c25.983,13.433,54.002,19.578,82.901,22.104c11.081,0.968,22.224,1.237,33.923,1.856
			c-0.802,21.624-1.6,43.159-2.439,65.82c12.465-1.221,24.144-2.364,35.93-3.519c0.182-1.57,0.391-2.704,0.434-3.845
			c0.715-18.813,1.482-37.627,2.039-56.445c0.097-3.256,0.968-4.488,4.406-5.001c24.816-3.696,48.896-10.268,71.564-21.063
			c60.316-28.726,99.388-73.3,104.531-142.549c1.913-25.744-2.482-50.015-17.097-71.961c-13.673-20.533-31.84-36.157-52.381-49.295
			c-29.159-18.649-61.149-31.627-92.549-45.749c-4.437-1.996-5.641-4.228-5.454-8.823c2.535-62.431,4.887-124.869,7.302-187.306
			c0.326-8.439,0.753-16.875,1.183-26.423c9.852,1.547,19.305,2.375,28.423,4.586c25.729,6.237,44.01,20.916,50.42,47.628
			c3.192,13.302,2.686,26.802-0.145,40.15c-0.921,4.343,0.646,6.651,4.781,6.765c8.618,0.235,17.394,1.116,25.842-0.095
			c23.639-3.391,40.194-22.916,40.28-46.849c0.087-23.813-11.041-42.186-29.378-56.314c-26.26-20.235-56.992-28.053-89.377-30.628
			c-9.718-0.772-19.482-0.945-28.966-1.381c0-5.583-0.146-10.745,0.028-15.896c0.493-14.653,0.962-29.312,1.79-43.948
			c0.227-4.003-1.205-6.144-4.827-6.584c-5.881-0.715-11.898-1.877-17.706-1.305c-10.938,1.077-13.434,4.599-13.773,15.575
			C938.37,433.748,937.628,452.041,936.951,470.579z"/>
		<path fill-rule="evenodd" clip-rule="evenodd" fill="#FFFFFF" d="M272.301,204.563c-29.819,26.245-59.287,52.183-89.63,78.89
			c-4.083-5.458-8.519-10.428-11.874-16.043c-12.486-20.897-13.64-43.388-8.201-66.539c0.474-2.017,2.302-4.017,4.011-5.39
			c8.88-7.135,19.53-8.927,30.473-9.249C216.83,185.652,254.01,194.743,272.301,204.563z"/>
		<path fill-rule="evenodd" clip-rule="evenodd" d="M288.536,483.759c-0.431,9.607-0.853,18.049-1.18,26.494
			c-2.404,62.103-4.708,124.209-7.317,186.303c-0.233,5.548,1.385,7.958,6.447,10.217c31.14,13.891,62.779,26.838,91.643,45.322
			c16.783,10.748,32.022,23.248,44.744,38.787c19.76,24.136,27.032,51.831,24.692,82.505
			c-5.283,69.236-44.305,113.796-104.634,142.495c-22.673,10.786-46.75,17.366-71.57,21.036c-3.529,0.522-4.22,1.9-4.322,5.08
			c-0.633,19.801-1.46,39.595-2.253,60.161c-11.872,1.167-23.644,2.324-36.159,3.554c0.846-22.588,1.647-44.005,2.471-65.986
			c-2.083-0.105-3.835-0.258-5.587-0.273c-32.694-0.287-64.735-4.41-95.426-16.347c-19.042-7.405-36.328-17.488-49.385-33.638
			c-14.88-18.404-20.997-39.323-15.738-62.608c6.852-30.339,39.113-49.562,69.27-41.956c5.884,1.484,6.495,2.514,4.852,8.253
			c-3.877,13.545-6.306,27.205-4.303,41.396c2.696,19.099,11.715,34.541,26.759,46.378c20.636,16.237,44.906,21.518,70.912,23.085
			c0.439-9.85,0.913-19.29,1.273-28.734c2.572-67.432,5.083-134.866,7.782-202.293c0.143-3.558-1.621-4.47-4.117-5.717
			c-22.612-11.298-45.587-21.954-67.645-34.251c-21.463-11.966-41.032-26.776-56.11-46.676
			c-18.727-24.715-26.533-52.635-24.122-83.442c4.098-52.382,32.073-89.846,74.504-117.922
			c25.726-17.022,54.164-27.564,84.456-33.181c1.635-0.304,3.248-0.727,5.277-1.186c0.326-6.041,0.742-12.155,0.968-18.277
			c0.479-12.987,0.867-25.979,1.279-38.969c0.256-8.075,2.894-11.374,10.813-13.239c7.156-1.686,14.192-1.105,21.177,1.136
			c3.112,0.998,4.452,2.504,4.259,6.079c-0.781,14.474-1.262,28.963-1.733,43.451c-0.178,5.476-0.029,10.961-0.029,16.821
			c9.493,0.434,19.265,0.6,28.988,1.376c32.209,2.571,62.797,10.332,88.967,30.37c18.674,14.299,29.99,32.895,29.702,57.151
			c-0.285,23.946-17.586,43.574-41.343,46.421c-8.008,0.96-16.248,0.354-24.357-0.039c-5.157-0.25-6.004-2-4.998-7.34
			c2.492-13.229,3.098-26.539-0.073-39.678c-6.45-26.72-24.758-41.346-50.484-47.562
			C307.775,486.117,298.335,485.292,288.536,483.759z M268.729,1001.907c1.579,0,2.414,0.105,3.215-0.015
			c28.407-4.266,55.101-13.032,77.73-31.363c28.968-23.464,41.313-53.585,34.195-90.684c-4.402-22.941-17.785-40.545-34.862-55.656
			c-19.051-16.855-41.653-27.915-64.209-39.026c-2.328-1.147-4.723-2.159-7.626-3.479
			C274.346,855.42,271.547,928.407,268.729,1001.907z M252.526,486.006c-25.413,4.223-48.33,12.151-68.357,27.183
			c-16.433,12.333-29.074,27.738-33.933,48.004c-7.629,31.821,1.099,59.57,23.123,83.347c14.936,16.123,33.388,27.407,52.586,37.599
			c5.817,3.089,11.729,5.998,18.418,9.408C247.101,622.64,249.8,554.649,252.526,486.006z"/>
		<path fill-rule="evenodd" clip-rule="evenodd" d="M936.951,470.579c0.677-18.538,1.419-36.831,1.984-55.129
			c0.34-10.977,2.835-14.498,13.773-15.575c5.808-0.572,11.825,0.59,17.706,1.305c3.622,0.44,5.054,2.581,4.827,6.584
			c-0.828,14.637-1.297,29.295-1.79,43.948c-0.174,5.151-0.028,10.313-0.028,15.896c9.483,0.436,19.248,0.608,28.966,1.381
			c32.385,2.575,63.117,10.393,89.377,30.628c18.337,14.129,29.465,32.502,29.378,56.314c-0.086,23.933-16.642,43.458-40.28,46.849
			c-8.448,1.211-17.224,0.33-25.842,0.095c-4.136-0.113-5.702-2.422-4.781-6.765c2.83-13.349,3.337-26.849,0.145-40.15
			c-6.41-26.712-24.691-41.391-50.42-47.628c-9.118-2.211-18.571-3.039-28.423-4.586c-0.43,9.548-0.856,17.983-1.183,26.423
			c-2.415,62.437-4.767,124.875-7.302,187.306c-0.187,4.596,1.018,6.827,5.454,8.823c31.399,14.122,63.39,27.1,92.549,45.749
			c20.541,13.138,38.708,28.762,52.381,49.295c14.614,21.946,19.01,46.217,17.097,71.961
			c-5.144,69.249-44.215,113.823-104.531,142.549c-22.668,10.796-46.748,17.367-71.564,21.063c-3.438,0.513-4.31,1.745-4.406,5.001
			c-0.557,18.818-1.324,37.632-2.039,56.445c-0.043,1.141-0.252,2.274-0.434,3.845c-11.786,1.154-23.465,2.298-35.93,3.519
			c0.84-22.661,1.638-44.196,2.439-65.82c-11.699-0.619-22.842-0.889-33.923-1.856c-28.899-2.525-56.918-8.671-82.901-22.104
			c-21.211-10.966-38.113-26.272-46.645-49.228c-10.344-27.832-2.76-56.504,19.134-72.244c13.941-10.022,29.509-13.476,46.427-9.755
			c7.422,1.633,7.739,2.275,5.704,9.332c-3.861,13.393-6.051,26.907-4.033,40.919c2.294,15.929,9.098,29.569,20.649,40.627
			c21.34,20.427,48.076,26.521,76.633,28.454c0.263-1.503,0.588-2.603,0.63-3.713c2.095-55.444,4.159-110.89,6.243-166.334
			c0.738-19.647,1.368-39.301,2.406-58.934c0.227-4.291-0.818-6.255-4.811-8.234c-23.835-11.818-47.884-23.311-71.027-36.387
			c-19.923-11.257-37.855-25.505-51.882-44.032c-18.718-24.726-26.503-52.619-24.188-83.433
			c3.677-48.924,28.715-85.265,67.435-113.188c27.435-19.785,58.298-31.772,91.467-37.981
			C933.026,471.509,934.642,471.096,936.951,470.579z M960.181,801.313c-2.847,74.359-5.641,147.362-8.441,220.522
			c1.798,0,2.953,0.15,4.059-0.022c25.104-3.927,48.867-11.517,69.994-26.081c17.436-12.02,31.333-27.246,38.013-47.557
			c11.674-35.495,3.406-66.916-21.648-94.162c-14.512-15.781-32.271-27.193-51.106-37.039
			C981.085,811.765,970.999,806.791,960.181,801.313z M935.515,506.297c-26.158,2.792-55.506,15.522-74.53,31.826
			c-38.019,32.581-37.534,80.793-14.953,113.48c20.051,29.023,50.236,44.253,81.33,59.944
			C930.096,642.702,932.797,574.713,935.515,506.297z"/>
		<path fill-rule="evenodd" clip-rule="evenodd" fill="#FFFFFF" d="M268.729,1001.907c2.818-73.5,5.616-146.487,8.443-220.223
			c2.903,1.319,5.298,2.331,7.626,3.479c22.556,11.111,45.158,22.171,64.209,39.026c17.077,15.111,30.46,32.715,34.862,55.656
			c7.118,37.099-5.228,67.22-34.195,90.684c-22.63,18.331-49.324,27.098-77.73,31.363
			C271.143,1002.013,270.308,1001.907,268.729,1001.907z"/>
		<path fill-rule="evenodd" clip-rule="evenodd" fill="#FFFFFF" d="M252.526,486.006c-2.726,68.644-5.425,136.634-8.162,205.54
			c-6.69-3.41-12.602-6.319-18.418-9.408c-19.198-10.191-37.651-21.476-52.586-37.599c-22.024-23.776-30.752-51.525-23.123-83.347
			c4.859-20.266,17.5-35.671,33.933-48.004C204.196,498.157,227.113,490.229,252.526,486.006z"/>
		<path fill-rule="evenodd" clip-rule="evenodd" fill="#FFFFFF" d="M960.181,801.313c10.818,5.479,20.904,10.452,30.869,15.661
			c18.836,9.846,36.595,21.258,51.106,37.039c25.055,27.246,33.322,58.667,21.648,94.162c-6.68,20.311-20.577,35.537-38.013,47.557
			c-21.127,14.564-44.89,22.154-69.994,26.081c-1.105,0.173-2.261,0.022-4.059,0.022
			C954.54,948.675,957.334,875.672,960.181,801.313z"/>
		<path fill-rule="evenodd" clip-rule="evenodd" fill="#FFFFFF" d="M935.515,506.297c-2.718,68.416-5.419,136.405-8.153,205.251
			c-31.094-15.691-61.279-30.921-81.33-59.944c-22.581-32.688-23.065-80.899,14.953-113.48
			C880.009,521.819,909.356,509.089,935.515,506.297z"/>
	</g>
</g>
</svg>
