<?xml version="1.0" encoding="utf-8"?>
<!-- Generator: Adobe Illustrator 16.0.3, SVG Export Plug-In . SVG Version: 6.00 Build 0)  -->
<!DOCTYPE svg PUBLIC "-//W3C//DTD SVG 1.1//EN" "http://www.w3.org/Graphics/SVG/1.1/DTD/svg11.dtd">
<svg version="1.1" id="Social_Services_xA0_Image_1_"
	 xmlns="http://www.w3.org/2000/svg" xmlns:xlink="http://www.w3.org/1999/xlink" x="0px" y="0px" width="1200px" height="1200px"
	 viewBox="0 0 1200 1200" enable-background="new 0 0 1200 1200" xml:space="preserve">
<g>
	<g>
		<path fill-rule="evenodd" clip-rule="evenodd" d="M1,1201C1,801,1,401,1,1c400,0,800,0,1200,0c0,400,0,800,0,1200
			C801,1201,401,1201,1,1201z M601.517,1170.543c163.988,0,327.978-0.056,491.966,0.059c24.986,0.018,44.725-10.143,60.035-29.336
			c16.127-20.217,22.487-43.712,22.482-69.277c-0.035-167.322-0.018-334.645-0.018-501.967c0-144.824-0.024-289.647,0.026-434.471
			c0.007-19.305-3.575-37.769-13.009-54.683c-14.864-26.655-36.441-43.681-68.22-43.69c-328.644-0.104-657.288-0.067-985.932-0.058
			c-22.71,0-41.322,9.136-56.055,26.086c-18.1,20.825-25.145,45.544-25.14,72.785c0.055,311.979,0.039,623.957,0.022,935.936
			c0,12.549,1.433,24.839,5.218,36.872c12.798,40.684,41.244,61.744,83.655,61.744
			C278.206,1170.543,439.861,1170.543,601.517,1170.543z"/>
		<path fill-rule="evenodd" clip-rule="evenodd" fill="#FFFFFF" d="M601.517,1170.543c-161.655,0-323.311,0-484.967,0
			c-42.412,0-70.857-21.061-83.655-61.744c-3.785-12.033-5.219-24.323-5.218-36.872c0.016-311.979,0.032-623.957-0.022-935.936
			c-0.005-27.241,7.04-51.96,25.14-72.785c14.733-16.95,33.345-26.086,56.055-26.086c328.644-0.01,657.288-0.047,985.932,0.058
			c31.778,0.01,53.355,17.035,68.22,43.69c9.434,16.914,13.016,35.378,13.009,54.683c-0.051,144.823-0.026,289.646-0.026,434.471
			c0,167.322-0.018,334.645,0.018,501.967c0.005,25.565-6.355,49.061-22.482,69.277c-15.311,19.193-35.049,29.354-60.035,29.336
			C929.494,1170.487,765.505,1170.543,601.517,1170.543z M581.55,53.106c-1.645,3.357-2.819,5.887-4.108,8.357
			c-2.323,4.451-5.646,8.624-6.873,13.35c-2.229,8.571-3.266,17.457-4.724,26.224c-0.816,4.912-1.158,9.924-2.279,14.76
			c-1.964,8.467-4.561,16.787-6.505,25.257c-1.18,5.137-1.301,10.516-2.484,15.651c-2.306,10.004-5.219,19.868-7.49,29.879
			c-1.171,5.155-1.124,10.588-2.308,15.74c-1.716,7.471-4.303,14.74-6.045,22.206c-1.748,7.491-2.82,15.138-4.362,22.68
			c-1.668,8.156-3.566,16.266-5.309,24.406c-1.128,5.271-2.162,10.562-3.228,15.846c-1.038,5.146-1.988,10.311-3.115,15.437
			c-0.957,4.353-2.682,8.618-3.022,13.003c-0.364,4.674-1.289,8.846-2.982,13.314c-2.806,7.409-4.348,15.413-5.479,23.302
			c-0.838,5.842,0.236,11.841-3.677,17.192c-1.243,1.7-0.537,4.826-0.727,7.299c-0.266,3.47,0.714,7.855-1.035,10.237
			c-5.404,7.361-3.94,16.384-7.076,24.322c-3.193,8.085-3.668,17.251-5.261,25.957c-0.565,3.093-0.646,6.293-1.418,9.326
			c-2.06,8.101-4.575,16.089-6.504,24.218c-0.986,4.16-2.583,6.384-7.3,6.174c-16.468-0.733-32.949-1.134-49.422-1.747
			c-20.619-0.769-41.232-1.717-61.854-2.414c-24.761-0.837-49.525-1.584-74.293-2.188c-13.322-0.325-26.661-0.023-39.979-0.438
			c-20.295-0.632-40.573-1.699-60.775-3.916c-3.635-0.398-7.385,0.06-10.971-0.541c-4.964-0.83-9.246,0.013-11.528,4.61
			c-1.585,3.193-2.257,6.941-2.804,10.522c-0.615,4.032,5.011,10.292,9.063,10.88c9.601,1.395,19.349,2.261,28.724,4.6
			c8.778,2.19,8.833,2.032,8.122,10.289c-1.701,19.74-3.729,39.456-5.928,59.148c-4.119,36.902-8.493,73.775-12.686,110.67
			c-4.136,36.399-8.143,72.813-12.273,109.214c-4.507,39.713-9.071,79.419-13.65,119.123c-2.039,17.681-4.148,35.354-6.333,53.017
			c-0.14,1.131-1.228,3.075-1.861,3.069c-5.696-0.05-9.759,2.202-12.101,7.476c-0.13,0.293-1.06,0.152-1.363,0.463
			c-0.814,0.833-2.123,1.843-2.067,2.707c0.075,1.165,1.171,2.313,1.959,3.372c0.894,1.199,2.685,2.225,2.792,3.44
			c1.32,14.967,9.265,22.121,25.731,25.865c2.064,0.47,3.951,1.68,5.958,2.449c4.433,1.699,8.773,4.097,13.368,4.803
			c5.531,0.851,11.324,0.664,16.938,0.174c9.899-0.864,19.824-1.877,29.603-3.597c14.449-2.54,28.78-5.752,43.16-8.681
			c2.891-0.588,5.782-1.17,8.668-1.781c8.487-1.801,17.064-3.272,25.429-5.529c6.979-1.883,13.711-4.689,20.55-7.093
			c7.135-2.507,14.304-4.922,21.386-7.57c4.155-1.554,8.196-3.429,12.243-5.26c4.432-2.006,8.809-4.133,13.215-6.198
			c7.646-3.583,15.433-6.898,22.911-10.804c10.152-5.301,20.021-11.138,30.099-16.585c9.785-5.289,19.974-9.895,29.446-15.682
			c10.105-6.174,19.773-13.121,29.287-20.196c15.108-11.234,30.163-22.566,44.787-34.418c9.278-7.519,18.027-15.762,26.456-24.235
			c5.771-5.802,11.885-6.197,19.052-4.033c4.369,1.319,8.849,2.362,13.344,3.16c10.609,1.883,13.449,6.313,10.697,17.004
			c-1.065,4.141-2.317,8.276-2.873,12.495c-2.239,17.001-4.241,34.033-6.327,51.055c-1.428,11.646-2.899,23.289-4.262,34.943
			c-1.597,13.661-2.99,27.346-4.664,40.997c-2.346,19.13-4.858,38.238-7.321,57.354c-0.996,7.734-1.904,15.484-3.122,23.185
			c-0.887,5.615-2.971,10.554-8.94,12.836c-1.274,0.487-2.549,1.775-3.179,3.021c-5.017,9.912-1.574,27.251,5.668,36.161
			c4.897,6.024,11.449,7.255,17.92,9.455c5.789,1.968,11.618,3.879,17.224,6.293c1.79,0.771,3.009,4.502,4.338,4.421
			c5.382-0.33,11.679,3.152,15.994-3.199c0.637-0.938,2.678-1.04,4.11-1.299c8.908-1.608,18.046-2.397,26.696-4.889
			c13.876-3.996,27.447-9.061,41.112-13.771c3.823-1.318,7.491-3.084,11.297-4.46c5.163-1.865,10.538-3.214,15.56-5.391
			c8.573-3.717,17.063-7.671,25.37-11.947c13.11-6.749,26.578-13.016,38.921-20.993c18.539-11.983,36.695-24.676,54.162-38.17
			c17.175-13.268,33.715-27.442,49.732-42.096c13.218-12.093,25.445-25.297,37.776-38.325
			c10.216-10.795,20.153-21.871,29.823-33.158c8.268-9.652,15.835-19.902,23.978-29.665c7.814-9.369,14.883-19.098,17.464-31.299
			c0.786-3.719,0.616-7.633,1.298-11.382c1.414-7.775-0.502-10.971-8.348-12.864c-5.92-1.429-11.828-3.002-17.828-3.97
			c-4.36-0.704-9.034-1.386-12.579,2.621c-3.087,3.488-6.267,6.896-9.326,10.409c-11.66,13.389-23.17,26.91-34.979,40.166
			c-6.08,6.827-12.644,13.227-19.057,19.753c-1.231,1.253-2.779,2.196-4.181,3.282c-0.771-1.672-2.177-3.332-2.207-5.018
			c-0.144-7.977,0.078-15.959,0.188-23.939c0.605-44.313,1.548-88.624,1.646-132.938c0.034-15.634,3.805-30.444,6.706-45.508
			c0.437-2.262,1.428-4.416,1.883-6.676c1.847-9.165,3.44-18.384,5.399-27.524c2.339-10.909,5.033-21.743,7.416-32.644
			c0.986-4.517,1.313-9.183,2.385-13.675c1.858-7.785,4.168-15.462,6.092-23.232c1.652-6.676,2.997-13.427,4.55-20.128
			c0.445-1.923,1.353-3.752,1.682-5.687c1.598-9.393,2.666-18.896,4.688-28.192c2.52-11.575,5.863-22.969,8.698-34.479
			c1.023-4.156,1.455-8.455,2.428-12.626c0.892-3.816,2.426-7.493,3.188-11.329c1.697-8.532,2.738-17.206,4.696-25.672
			c2.285-9.878,5.267-19.594,7.929-29.385c0.129-0.474,0.047-1.001,0.135-1.49c1.598-8.88,2.989-17.806,4.868-26.627
			c2.438-11.444,5.257-22.809,7.928-34.203c1.311-5.593,2.645-11.181,3.992-16.766c0.727-3.011,1.59-5.991,2.224-9.021
			c0.37-1.771,0.189-3.667,0.634-5.411c2.511-9.856,5.412-19.622,7.646-29.539c2.517-11.167,4.46-22.463,6.668-33.699
			c1.139-5.793,2.133-11.622,3.511-17.358c2.267-9.433,4.923-18.772,7.175-28.208c2.937-12.308,5.702-24.656,8.414-37.016
			c1.2-5.471,1.94-11.043,3.178-16.504c0.72-3.18,2.194-6.184,2.992-9.352c0.917-3.641,1.368-7.395,2.198-11.06
			c0.512-2.257,1.552-4.399,2.01-6.662c1.989-9.821,3.352-19.799,5.892-29.47c2.929-11.15,5.755-22.224,4.672-33.845
			c-0.797-8.56-4.825-12.264-12.856-13.481c-8.346-1.266-16.891-1.315-25.357-1.663c-9.088-0.373-15.544,5.263-16.722,14.264
			c-0.744,5.692-3.419,7.987-9.085,7.226c-12.151-1.632-24.272-3.486-36.41-5.213c-10.105-1.438-20.23-2.743-30.321-4.273
			c-3.917-0.595-7.764-1.652-11.645-2.489c-2.401-0.519-4.789-1.131-7.213-1.503c-3.762-0.576-7.563-0.891-11.32-1.483
			c-5.354-0.847-10.663-1.993-16.029-2.748c-14.08-1.981-28.175-3.866-42.274-5.703c-13.755-1.793-27.484-4.035-41.301-5.034
			c-10.924-0.79-21.965-0.074-32.951,0.114c-19.3,0.332-38.596,0.82-57.896,1.153c-21.15,0.364-42.303,0.645-63.454,0.919
			c-3.705,0.048-5.86-1.812-6.344-5.588c-0.732-5.725-3.291-10.387-8.163-13.674c-0.654-0.441-1.251-1.063-1.68-1.727
			c-2.598-4.025-5.575-4.229-8.572-0.494c-2.167,2.7-4.131,2.867-6.396-0.017c-0.888-1.13-2.417-2.354-3.729-2.443
			C590.129,52.92,585.644,53.106,581.55,53.106z"/>
		<path fill-rule="evenodd" clip-rule="evenodd" d="M581.55,53.106c4.094,0,8.579-0.187,13.03,0.115
			c1.312,0.089,2.841,1.313,3.729,2.443c2.265,2.884,4.229,2.717,6.396,0.017c2.997-3.735,5.975-3.531,8.572,0.494
			c0.429,0.664,1.025,1.285,1.68,1.727c4.872,3.287,7.431,7.949,8.163,13.674c0.483,3.776,2.639,5.636,6.344,5.588
			c21.151-0.274,42.304-0.555,63.454-0.919c19.3-0.333,38.596-0.821,57.896-1.153c10.986-0.188,22.027-0.904,32.951-0.114
			c13.816,0.999,27.546,3.241,41.301,5.034c14.1,1.837,28.194,3.722,42.274,5.703c5.366,0.755,10.675,1.901,16.029,2.748
			c3.758,0.593,7.559,0.907,11.32,1.483c2.424,0.372,4.812,0.984,7.213,1.503c3.881,0.837,7.728,1.895,11.645,2.489
			c10.091,1.53,20.216,2.835,30.321,4.273c12.138,1.727,24.259,3.581,36.41,5.213c5.666,0.762,8.341-1.533,9.085-7.226
			c1.178-9.001,7.634-14.637,16.722-14.264c8.467,0.348,17.012,0.397,25.357,1.663c8.031,1.218,12.06,4.922,12.856,13.481
			c1.083,11.621-1.743,22.694-4.672,33.845c-2.54,9.671-3.902,19.648-5.892,29.47c-0.458,2.263-1.498,4.405-2.01,6.662
			c-0.83,3.665-1.281,7.419-2.198,11.06c-0.798,3.168-2.272,6.172-2.992,9.352c-1.237,5.461-1.978,11.033-3.178,16.504
			c-2.712,12.359-5.478,24.708-8.414,37.016c-2.252,9.436-4.908,18.775-7.175,28.208c-1.378,5.736-2.372,11.565-3.511,17.358
			c-2.208,11.236-4.151,22.532-6.668,33.699c-2.234,9.917-5.136,19.683-7.646,29.539c-0.444,1.744-0.264,3.641-0.634,5.411
			c-0.634,3.03-1.497,6.011-2.224,9.021c-1.348,5.585-2.682,11.173-3.992,16.766c-2.671,11.395-5.49,22.759-7.928,34.203
			c-1.879,8.821-3.271,17.747-4.868,26.627c-0.088,0.489-0.006,1.017-0.135,1.49c-2.662,9.791-5.644,19.507-7.929,29.385
			c-1.958,8.466-2.999,17.14-4.696,25.672c-0.763,3.836-2.297,7.513-3.188,11.329c-0.973,4.171-1.404,8.47-2.428,12.626
			c-2.835,11.51-6.179,22.903-8.698,34.479c-2.022,9.297-3.091,18.8-4.688,28.192c-0.329,1.935-1.236,3.764-1.682,5.687
			c-1.553,6.701-2.897,13.452-4.55,20.128c-1.924,7.771-4.233,15.447-6.092,23.232c-1.071,4.492-1.398,9.158-2.385,13.675
			c-2.383,10.9-5.077,21.734-7.416,32.644c-1.959,9.141-3.553,18.359-5.399,27.524c-0.455,2.26-1.446,4.414-1.883,6.676
			c-2.901,15.063-6.672,29.874-6.706,45.508c-0.098,44.313-1.04,88.625-1.646,132.938c-0.109,7.98-0.331,15.963-0.188,23.939
			c0.03,1.686,1.436,3.346,2.207,5.018c1.401-1.086,2.949-2.029,4.181-3.282c6.413-6.526,12.977-12.926,19.057-19.753
			c11.809-13.256,23.318-26.777,34.979-40.166c3.06-3.513,6.239-6.921,9.326-10.409c3.545-4.007,8.219-3.325,12.579-2.621
			c6,0.968,11.908,2.541,17.828,3.97c7.846,1.894,9.762,5.089,8.348,12.864c-0.682,3.749-0.512,7.663-1.298,11.382
			c-2.581,12.201-9.649,21.93-17.464,31.299c-8.143,9.763-15.71,20.013-23.978,29.665c-9.67,11.287-19.607,22.363-29.823,33.158
			c-12.331,13.028-24.559,26.232-37.776,38.325c-16.018,14.653-32.558,28.828-49.732,42.096
			c-17.467,13.494-35.623,26.187-54.162,38.17c-12.343,7.978-25.811,14.244-38.921,20.993c-8.308,4.276-16.797,8.23-25.37,11.947
			c-5.021,2.177-10.396,3.525-15.56,5.391c-3.806,1.376-7.474,3.142-11.297,4.46c-13.665,4.711-27.236,9.775-41.112,13.771
			c-8.65,2.491-17.788,3.28-26.696,4.889c-1.433,0.259-3.474,0.361-4.11,1.299c-4.315,6.352-10.612,2.869-15.994,3.199
			c-1.329,0.081-2.548-3.649-4.338-4.421c-5.605-2.414-11.435-4.325-17.224-6.293c-6.471-2.2-13.022-3.431-17.92-9.455
			c-7.242-8.91-10.685-26.249-5.668-36.161c0.63-1.245,1.904-2.533,3.179-3.021c5.97-2.282,8.054-7.221,8.94-12.836
			c1.218-7.7,2.126-15.45,3.122-23.185c2.463-19.115,4.976-38.224,7.321-57.354c1.674-13.651,3.067-27.336,4.664-40.997
			c1.362-11.654,2.834-23.297,4.262-34.943c2.086-17.021,4.088-34.054,6.327-51.055c0.556-4.219,1.808-8.354,2.873-12.495
			c2.752-10.691-0.088-15.121-10.697-17.004c-4.495-0.798-8.975-1.841-13.344-3.16c-7.167-2.164-13.281-1.769-19.052,4.033
			c-8.429,8.474-17.178,16.717-26.456,24.235c-14.624,11.852-29.679,23.184-44.787,34.418c-9.514,7.075-19.182,14.022-29.287,20.196
			c-9.473,5.787-19.661,10.393-29.446,15.682c-10.077,5.447-19.946,11.284-30.099,16.585c-7.479,3.905-15.265,7.221-22.911,10.804
			c-4.406,2.065-8.783,4.192-13.215,6.198c-4.047,1.831-8.088,3.706-12.243,5.26c-7.082,2.648-14.251,5.063-21.386,7.57
			c-6.839,2.403-13.57,5.21-20.55,7.093c-8.364,2.257-16.941,3.729-25.429,5.529c-2.886,0.611-5.777,1.193-8.668,1.781
			c-14.38,2.929-28.711,6.141-43.16,8.681c-9.779,1.72-19.703,2.732-29.603,3.597c-5.614,0.49-11.406,0.677-16.938-0.174
			c-4.595-0.706-8.935-3.104-13.368-4.803c-2.007-0.77-3.894-1.979-5.958-2.449c-16.466-3.744-24.411-10.898-25.731-25.865
			c-0.107-1.216-1.898-2.241-2.792-3.44c-0.788-1.059-1.884-2.207-1.959-3.372c-0.056-0.864,1.252-1.874,2.067-2.707
			c0.303-0.311,1.232-0.17,1.363-0.463c2.342-5.273,6.405-7.525,12.101-7.476c0.633,0.006,1.721-1.938,1.861-3.069
			c2.186-17.663,4.294-35.336,6.333-53.017c4.579-39.704,9.144-79.41,13.65-119.123c4.131-36.4,8.137-72.814,12.273-109.214
			c4.192-36.895,8.566-73.768,12.686-110.67c2.198-19.692,4.227-39.408,5.928-59.148c0.711-8.257,0.656-8.099-8.122-10.289
			c-9.375-2.339-19.123-3.205-28.724-4.6c-4.052-0.588-9.679-6.848-9.063-10.88c0.547-3.581,1.219-7.329,2.804-10.522
			c2.282-4.598,6.564-5.44,11.528-4.61c3.586,0.601,7.336,0.143,10.971,0.541c20.202,2.217,40.48,3.284,60.775,3.916
			c13.317,0.415,26.656,0.113,39.979,0.438c24.768,0.604,49.532,1.351,74.293,2.188c20.621,0.697,41.234,1.646,61.854,2.414
			c16.473,0.613,32.954,1.014,49.422,1.747c4.717,0.21,6.313-2.014,7.3-6.174c1.929-8.129,4.444-16.117,6.504-24.218
			c0.771-3.033,0.853-6.233,1.418-9.326c1.593-8.706,2.067-17.872,5.261-25.957c3.136-7.938,1.672-16.961,7.076-24.322
			c1.749-2.382,0.77-6.768,1.035-10.237c0.189-2.473-0.517-5.599,0.727-7.299c3.913-5.352,2.839-11.351,3.677-17.192
			c1.131-7.889,2.673-15.893,5.479-23.302c1.693-4.469,2.618-8.641,2.982-13.314c0.341-4.385,2.065-8.65,3.022-13.003
			c1.127-5.126,2.077-10.291,3.115-15.437c1.065-5.284,2.1-10.575,3.228-15.846c1.742-8.141,3.641-16.25,5.309-24.406
			c1.542-7.542,2.614-15.188,4.362-22.68c1.742-7.466,4.329-14.735,6.045-22.206c1.184-5.152,1.137-10.585,2.308-15.74
			c2.271-10.011,5.185-19.875,7.49-29.879c1.184-5.136,1.305-10.515,2.484-15.651c1.944-8.47,4.541-16.79,6.505-25.257
			c1.121-4.836,1.463-9.848,2.279-14.76c1.458-8.767,2.495-17.652,4.724-26.224c1.228-4.726,4.55-8.898,6.873-13.35
			C578.73,58.993,579.905,56.464,581.55,53.106z M843.321,908.271c0-17.317-0.002-30.313,0-43.308
			c0.002-10.829,0.006-21.658,0.012-32.487c0.001-3.22-1.102-5.982-4.766-5.396c-10.38,1.661-20.654,3.995-31.047,5.558
			c-11.606,1.744-23.302,2.9-34.95,4.375c-6.42,0.813-12.83,1.704-19.231,2.647c-7.989,1.177-15.967,2.442-23.948,3.672
			c-1.306,0.201-2.613,0.392-3.913,0.627c-6.622,1.197-13.225,2.516-19.868,3.58c-4.743,0.76-9.563,1.042-14.307,1.804
			c-4.067,0.652-8.176,1.377-12.064,2.673c-1.951,0.65-4.616,2.408-4.955,4.073c-1.246,6.111-1.668,12.393-2.364,18.613
			c-0.203,1.815-0.194,3.658-0.445,5.465c-1.247,9.007-2.626,17.995-3.807,27.01c-0.969,7.403-1.683,14.841-2.585,22.253
			c-1.222,10.028-2.527,20.046-3.771,30.071c-0.326,2.633-0.498,5.285-0.845,7.914c-1.104,8.354-2.279,16.697-3.373,25.052
			c-0.28,2.139-0.304,4.31-0.543,6.455c-1.212,10.833-2.488,21.659-3.661,32.495c-0.25,2.31,0.012,4.676-0.266,6.979
			c-1.323,11.005-2.89,21.982-4.085,33c-0.653,6.026,1.964,7.979,7.786,6.003c16.079-5.454,32.48-10.175,48.067-16.801
			c18.489-7.86,36.471-17.007,54.264-26.372c10.465-5.509,20.299-12.283,30.125-18.92c14.647-9.895,28.837-20.477,43.624-30.151
			c7.201-4.712,9.271-10.232,9.201-18.788C841.436,945.568,842.752,924.759,843.321,908.271z M453.92,844.705
			c0-4.667,0.248-9.35-0.061-13.996c-0.417-6.287-1.138-12.563-1.966-18.812c-0.548-4.138-3.101-6.369-7.361-6.795
			c-2.444-0.243-4.88-0.811-7.255-1.467c-5.393-1.489-10.703-3.292-16.124-4.661c-9.096-2.296-18.249-4.362-27.383-6.507
			c-9.322-2.188-18.675-4.251-27.969-6.554c-13.417-3.325-26.688-7.331-40.22-10.071c-10.46-2.118-20.21-7.538-31.276-6.789
			c-0.455,0.031-0.927-0.333-1.403-0.473c-6.458-1.894-12.863-4.016-19.397-5.597c-5.588-1.354-11.552-1.42-16.948-3.243
			c-8.538-2.884-11.788-2.025-13.022,6.65c-2.145,15.074-2.04,30.397-5.335,45.403c-1.408,6.41-0.559,13.28-1.305,19.877
			c-1.491,13.189-3.437,26.327-5.058,39.503c-0.445,3.619,0.236,7.475-0.713,10.915c-2.769,10.035-3.856,20.182-3.754,30.547
			c0.027,2.768-0.907,5.531-1.194,8.318c-1.036,10.04-2.112,20.079-2.875,30.142c-0.194,2.556,1.29,4.442,4.464,3.794
			c9.706-1.98,19.451-3.775,29.123-5.907c12.229-2.694,24.44-5.487,36.583-8.539c10.383-2.609,20.773-5.295,30.954-8.586
			c10.464-3.383,20.844-7.149,30.965-11.445c17.157-7.282,34.369-14.538,51.018-22.884c14.999-7.52,29.344-16.367,43.778-24.963
			c1.856-1.104,3.424-4.157,3.566-6.407C454.207,859.033,453.921,851.859,453.92,844.705z M258.235,664.871
			c1.441-0.863,2.219-1.706,3.064-1.781c34.84-3.078,69.688-6.074,104.532-9.109c25.387-2.212,50.765-4.527,76.16-6.627
			c3.749-0.31,5.072-1.908,5.642-5.454c0.967-6.021,2.475-11.957,3.789-17.921c1.489-6.755,3.095-13.484,4.507-20.255
			c2.357-11.301,4.354-22.682,6.966-33.922c2.3-9.896,5.523-19.579,7.794-29.481c1.871-8.157,3.112-16.473,4.329-24.762
			c1.842-12.555,1.726-12.297-11.32-12.503c-34.613-0.547-69.223-1.369-103.834-2.05c-10.662-0.21-21.324-0.395-31.987-0.454
			c-16.329-0.092-32.66-0.064-48.99-0.087c-2.396-0.003-4.549-0.127-4.925,3.352c-1.531,14.178-3.297,28.33-4.976,42.491
			c-0.529,4.461-1.078,8.919-1.581,13.382c-1.337,11.857-2.655,23.717-3.979,35.575c-0.239,2.14-0.441,4.285-0.716,6.42
			c-1.163,9.013-2.271,18.034-3.547,27.031c-1.087,7.667-2.02,15.384-3.688,22.932C254.117,657.799,254.783,662.306,258.235,664.871
			z M549.804,659.381c36.366-163.956,73.015-329.185,109.756-494.834c-2.172-0.234-3.621-0.423-5.077-0.544
			c-13.278-1.106-26.562-2.147-39.834-3.321c-7.566-0.668-10.235,1.646-10.498,9.416c-0.095,2.825,0.635,6.104-0.539,8.394
			c-5.1,9.951-4.639,21.168-7.787,31.584c-3.793,12.552-5.878,25.62-8.698,38.466c-1.402,6.386-2.839,12.764-4.183,19.162
			c-1.38,6.574-2.592,13.185-4.029,19.745c-0.521,2.382-1.753,4.618-2.189,7.007c-1.74,9.534-2.948,19.178-5.015,28.636
			c-2.137,9.784-5.276,19.345-7.55,29.103c-3.17,13.609-5.953,27.309-8.88,40.974c-1.41,6.587-2.796,13.179-4.145,19.778
			c-0.718,3.515-1.285,7.06-2.005,10.574c-1.674,8.169-3.215,16.371-5.148,24.479c-2.329,9.767-5.234,19.398-7.482,29.182
			c-3.063,13.33-5.713,26.755-8.604,40.125c-0.519,2.398-1.448,4.707-2.001,7.1c-1.065,4.612-1.985,9.258-2.992,13.884
			c-0.384,1.764-0.932,3.494-1.249,5.268c-1.615,9.022-2.902,18.114-4.833,27.067c-2.384,11.057-5.374,21.98-7.943,32.999
			c-2.769,11.87-5.117,23.844-8.103,35.658c-1.953,7.729-0.181,10.606,7.601,11.995
			C522.004,653.707,535.555,656.568,549.804,659.381z M713.452,168.952c-29.265,125.755-58.395,250.929-87.657,376.673
			c2.658,0,4.473,0.024,6.287-0.004c14.328-0.225,28.66-0.738,42.983-0.547c5.267,0.07,6.924-1.745,8.025-6.677
			c23.987-107.337,48.165-214.631,72.307-321.934c3.207-14.255,6.423-28.508,9.72-43.136
			C747.752,171.857,730.865,170.427,713.452,168.952z M913.053,185.771c-26.21,118.153-52.336,235.931-78.591,354.285
			c17.398-0.548,34.02-1.238,50.647-1.494c5.109-0.079,7.37-1.693,6.992-6.947c-0.121-1.682,0.872-3.435,1.311-5.167
			c0.955-3.772,1.989-7.529,2.796-11.334c1.97-9.28,3.809-18.588,5.76-27.871c0.2-0.953,0.896-1.792,1.195-2.736
			c0.581-1.836,1.097-3.697,1.542-5.571c1.027-4.318,1.992-8.651,2.992-12.977c0.403-1.745,1.301-3.521,1.17-5.221
			c-0.912-11.895,5.381-22.274,6.908-33.66c0.781-5.828,2.618-11.506,3.706-17.302c1.633-8.695,3.019-17.437,4.539-26.152
			c0.081-0.465,0.345-0.97,0.675-1.309c3.366-3.448,3.323-7.786,3.316-12.157c-0.003-1.64-0.324-3.889,0.576-4.816
			c4.255-4.388,3.549-9.732,3.717-15.018c0.051-1.57,0.969-3.103,1.412-4.675c0.93-3.294,1.952-6.571,2.672-9.913
			c0.934-4.342,1.411-8.786,2.442-13.102c1.862-7.793,4.236-15.47,5.941-23.294c1.954-8.971,3.26-18.082,5.122-27.074
			c2.669-12.887,5.561-25.728,8.412-38.576c0.96-4.324,2.183-8.591,3.119-12.92c2.15-9.94,4.199-19.904,6.397-30.376
			C949.197,188.822,931.346,187.315,913.053,185.771z M867.233,181.93c-15.911-1.344-31.343-2.416-46.711-4.076
			c-5.009-0.54-6.426,1.144-7.425,5.713c-24.202,110.709-48.56,221.385-72.877,332.068c-1.975,8.99-3.856,18-5.62,26.248
			c14.499,0,28.481-0.239,42.447,0.123c5.228,0.136,6.937-1.719,8.078-6.671c18.35-79.614,36.932-159.174,55.452-238.748
			C849.402,258.671,858.209,220.751,867.233,181.93z M795.813,714.427c8.498,2.003,16.392,3.976,24.339,5.704
			c7.786,1.693,15.61,3.225,23.45,4.652c3.631,0.661,6.139-0.781,6.911-4.674c0.889-4.476,1.757-8.961,2.852-13.389
			c1.543-6.24,3.505-12.383,4.898-18.653c2.896-13.021,5.495-26.108,8.324-39.145c0.409-1.886,1.756-3.582,2.084-5.468
			c1.449-8.314,2.627-16.676,4.019-25c0.82-4.91,1.866-9.782,2.794-14.674c1.284-6.769,3.007-13.495,3.689-20.324
			c0.593-5.928-3.297-7.827-9.146-6.04c-5.432,1.66-11.115,2.932-16.764,3.347c-7.625,0.562-15.328,0.312-22.986,0.065
			c-3.619-0.116-5.227,0.934-6.028,4.67c-5.201,24.238-10.674,48.419-16.033,72.624C804.121,676.622,800.063,695.13,795.813,714.427
			z M774.209,581.674c-0.944-0.343-1.399-0.65-1.856-0.652c-14.47-0.054-28.942-0.183-43.408,0.068
			c-1.325,0.022-3.413,2.304-3.785,3.861c-3.12,13.091-5.927,26.257-8.82,39.401c-4.68,21.259-9.36,42.518-14.021,63.78
			c-0.528,2.409-1.496,4.915,2.329,5.776c13.549,3.054,27.068,6.237,41.217,9.515C755.407,662.43,764.808,622.057,774.209,581.674z
			 M596.15,672.932c3.024-0.381,5.486-1.213,7.781-0.884c7.158,1.028,14.262,2.445,21.369,3.804
			c11.306,2.16,11.516,2.228,13.405-9.105c4.708-28.236,9.173-56.514,13.823-84.761c0.469-2.849-0.163-4.304-3.155-4.925
			c-8.137-1.688-16.227-3.604-24.338-5.418c-3.297-0.738-5.429,0.254-6.177,3.833c-1.053,5.039-2.315,10.034-3.485,15.049
			C608.991,617.883,602.609,645.241,596.15,672.932z M513.446,824.355c-2.908,0-4.994-0.45-6.689,0.17
			c-1.005,0.367-1.852,2.396-1.933,3.728c-0.086,1.395,0.831,2.851,1.309,4.279c1.254-0.597,2.865-0.893,3.68-1.859
			C511.125,829.112,511.914,827.11,513.446,824.355z"/>
		<path fill-rule="evenodd" clip-rule="evenodd" fill="#FFFFFF" d="M843.321,908.271c-0.569,16.488-1.886,37.298-1.716,58.096
			c0.07,8.556-2,14.076-9.201,18.788c-14.787,9.675-28.977,20.257-43.624,30.151c-9.826,6.637-19.66,13.411-30.125,18.92
			c-17.793,9.365-35.774,18.512-54.264,26.372c-15.587,6.626-31.988,11.347-48.067,16.801c-5.822,1.976-8.439,0.023-7.786-6.003
			c1.195-11.018,2.762-21.995,4.085-33c0.277-2.304,0.016-4.67,0.266-6.979c1.173-10.836,2.449-21.662,3.661-32.495
			c0.239-2.146,0.263-4.316,0.543-6.455c1.094-8.354,2.27-16.698,3.373-25.052c0.347-2.629,0.519-5.281,0.845-7.914
			c1.244-10.025,2.55-20.043,3.771-30.071c0.902-7.412,1.616-14.85,2.585-22.253c1.181-9.015,2.56-18.003,3.807-27.01
			c0.251-1.807,0.242-3.649,0.445-5.465c0.696-6.221,1.118-12.502,2.364-18.613c0.339-1.665,3.004-3.423,4.955-4.073
			c3.889-1.296,7.997-2.021,12.064-2.673c4.743-0.762,9.563-1.044,14.307-1.804c6.644-1.064,13.246-2.383,19.868-3.58
			c1.3-0.235,2.607-0.426,3.913-0.627c7.981-1.229,15.959-2.495,23.948-3.672c6.401-0.943,12.812-1.835,19.231-2.647
			c11.648-1.475,23.344-2.631,34.95-4.375c10.393-1.563,20.667-3.896,31.047-5.558c3.664-0.586,4.767,2.177,4.766,5.396
			c-0.006,10.829-0.01,21.658-0.012,32.487C843.319,877.958,843.321,890.953,843.321,908.271z"/>
		<path fill-rule="evenodd" clip-rule="evenodd" fill="#FFFFFF" d="M453.921,844.704c0,7.155,0.286,14.329-0.167,21.455
			c-0.143,2.25-1.71,5.303-3.566,6.407c-14.435,8.596-28.779,17.443-43.778,24.963c-16.648,8.346-33.86,15.602-51.018,22.884
			c-10.121,4.296-20.501,8.063-30.965,11.445c-10.181,3.291-20.57,5.977-30.954,8.586c-12.144,3.052-24.355,5.845-36.583,8.539
			c-9.672,2.132-19.417,3.927-29.123,5.907c-3.174,0.648-4.658-1.238-4.464-3.794c0.762-10.063,1.839-20.102,2.875-30.142
			c0.287-2.787,1.222-5.551,1.194-8.318c-0.103-10.365,0.985-20.512,3.754-30.547c0.949-3.44,0.268-7.296,0.713-10.915
			c1.621-13.176,3.566-26.313,5.058-39.503c0.746-6.597-0.103-13.467,1.305-19.877c3.295-15.006,3.19-30.329,5.335-45.403
			c1.235-8.676,4.485-9.534,13.022-6.65c5.396,1.823,11.36,1.89,16.948,3.243c6.534,1.581,12.938,3.703,19.397,5.597
			c0.476,0.14,0.948,0.504,1.403,0.473c11.066-0.749,20.816,4.671,31.276,6.789c13.531,2.74,26.803,6.746,40.22,10.071
			c9.294,2.303,18.646,4.365,27.969,6.554c9.134,2.145,18.287,4.211,27.383,6.507c5.421,1.369,10.731,3.172,16.124,4.661
			c2.375,0.656,4.811,1.224,7.255,1.467c4.261,0.426,6.813,2.657,7.361,6.795c0.828,6.249,1.549,12.524,1.966,18.812
			C454.168,835.355,453.92,840.038,453.921,844.704z"/>
		<path fill-rule="evenodd" clip-rule="evenodd" fill="#FFFFFF" d="M258.235,664.871c-3.452-2.565-4.118-7.072-2.759-13.224
			c1.667-7.548,2.601-15.265,3.688-22.932c1.276-8.997,2.384-18.019,3.547-27.031c0.275-2.135,0.477-4.28,0.716-6.42
			c1.324-11.858,2.642-23.718,3.979-35.575c0.503-4.463,1.052-8.921,1.581-13.382c1.679-14.161,3.445-28.313,4.976-42.491
			c0.375-3.479,2.529-3.354,4.925-3.352c16.33,0.022,32.661-0.005,48.99,0.087c10.663,0.06,21.325,0.244,31.987,0.454
			c34.611,0.681,69.221,1.503,103.834,2.05c13.046,0.206,13.162-0.052,11.32,12.503c-1.217,8.289-2.458,16.604-4.329,24.762
			c-2.271,9.902-5.494,19.585-7.794,29.481c-2.611,11.24-4.608,22.621-6.966,33.922c-1.412,6.771-3.018,13.5-4.507,20.255
			c-1.314,5.964-2.822,11.899-3.789,17.921c-0.569,3.546-1.893,5.145-5.642,5.454c-25.396,2.1-50.773,4.415-76.16,6.627
			c-34.844,3.035-69.692,6.031-104.532,9.109C260.455,663.165,259.677,664.008,258.235,664.871z"/>
		<path fill-rule="evenodd" clip-rule="evenodd" fill="#FFFFFF" d="M549.804,659.381c-14.249-2.813-27.8-5.674-41.428-8.105
			c-7.781-1.389-9.554-4.266-7.601-11.995c2.985-11.814,5.334-23.788,8.103-35.658c2.569-11.019,5.56-21.942,7.943-32.999
			c1.931-8.953,3.218-18.045,4.833-27.067c0.317-1.773,0.865-3.504,1.249-5.268c1.007-4.626,1.927-9.271,2.992-13.884
			c0.553-2.393,1.482-4.701,2.001-7.1c2.891-13.37,5.541-26.795,8.604-40.125c2.248-9.783,5.153-19.415,7.482-29.182
			c1.934-8.107,3.475-16.31,5.148-24.479c0.72-3.515,1.287-7.06,2.005-10.574c1.349-6.6,2.734-13.191,4.145-19.778
			c2.927-13.665,5.71-27.364,8.88-40.974c2.273-9.758,5.413-19.318,7.55-29.103c2.066-9.458,3.274-19.102,5.015-28.636
			c0.437-2.389,1.668-4.625,2.189-7.007c1.438-6.561,2.649-13.171,4.029-19.745c1.344-6.398,2.78-12.776,4.183-19.162
			c2.82-12.846,4.905-25.914,8.698-38.466c3.148-10.416,2.688-21.633,7.787-31.584c1.174-2.289,0.444-5.568,0.539-8.394
			c0.263-7.771,2.932-10.084,10.498-9.416c13.272,1.174,26.556,2.215,39.834,3.321c1.456,0.121,2.905,0.31,5.077,0.544
			C622.818,330.196,586.17,495.425,549.804,659.381z"/>
		<path fill-rule="evenodd" clip-rule="evenodd" fill="#FFFFFF" d="M713.452,168.952c17.413,1.475,34.3,2.905,51.665,4.376
			c-3.297,14.628-6.513,28.881-9.72,43.136c-24.142,107.303-48.319,214.597-72.307,321.934c-1.102,4.932-2.759,6.747-8.025,6.677
			c-14.323-0.191-28.655,0.322-42.983,0.547c-1.814,0.028-3.629,0.004-6.287,0.004C655.058,419.881,684.188,294.707,713.452,168.952
			z"/>
		<path fill-rule="evenodd" clip-rule="evenodd" fill="#FFFFFF" d="M913.053,185.771c18.293,1.544,36.145,3.051,54.771,4.623
			c-2.198,10.472-4.247,20.436-6.397,30.376c-0.937,4.329-2.159,8.596-3.119,12.92c-2.852,12.849-5.743,25.689-8.412,38.576
			c-1.862,8.992-3.168,18.104-5.122,27.074c-1.705,7.824-4.079,15.501-5.941,23.294c-1.031,4.315-1.509,8.76-2.442,13.102
			c-0.72,3.342-1.742,6.619-2.672,9.913c-0.443,1.572-1.361,3.104-1.412,4.675c-0.168,5.285,0.538,10.63-3.717,15.018
			c-0.9,0.928-0.579,3.177-0.576,4.816c0.007,4.371,0.05,8.709-3.316,12.157c-0.33,0.339-0.594,0.844-0.675,1.309
			c-1.521,8.716-2.906,17.457-4.539,26.152c-1.088,5.796-2.925,11.474-3.706,17.302c-1.527,11.386-7.82,21.766-6.908,33.66
			c0.131,1.7-0.767,3.476-1.17,5.221c-1,4.325-1.965,8.658-2.992,12.977c-0.445,1.874-0.961,3.735-1.542,5.571
			c-0.299,0.944-0.995,1.783-1.195,2.736c-1.951,9.283-3.79,18.591-5.76,27.871c-0.807,3.805-1.841,7.562-2.796,11.334
			c-0.438,1.732-1.432,3.485-1.311,5.167c0.378,5.254-1.883,6.868-6.992,6.947c-16.628,0.256-33.249,0.946-50.647,1.494
			C860.717,421.702,886.843,303.925,913.053,185.771z"/>
		<path fill-rule="evenodd" clip-rule="evenodd" fill="#FFFFFF" d="M867.233,181.93c-9.024,38.821-17.831,76.741-26.655,114.657
			c-18.521,79.574-37.103,159.134-55.452,238.748c-1.142,4.952-2.851,6.807-8.078,6.671c-13.966-0.362-27.948-0.123-42.447-0.123
			c1.764-8.248,3.646-17.258,5.62-26.248c24.317-110.684,48.675-221.359,72.877-332.068c0.999-4.569,2.416-6.253,7.425-5.713
			C835.891,179.514,851.322,180.586,867.233,181.93z"/>
		<path fill-rule="evenodd" clip-rule="evenodd" fill="#FFFFFF" d="M795.813,714.427c4.25-19.297,8.308-37.805,12.403-56.304
			c5.359-24.205,10.832-48.386,16.033-72.624c0.802-3.736,2.409-4.786,6.028-4.67c7.658,0.246,15.361,0.496,22.986-0.065
			c5.648-0.415,11.332-1.687,16.764-3.347c5.849-1.787,9.738,0.112,9.146,6.04c-0.683,6.829-2.405,13.556-3.689,20.324
			c-0.928,4.892-1.974,9.764-2.794,14.674c-1.392,8.324-2.569,16.686-4.019,25c-0.328,1.886-1.675,3.582-2.084,5.468
			c-2.829,13.036-5.429,26.123-8.324,39.145c-1.394,6.271-3.355,12.413-4.898,18.653c-1.095,4.428-1.963,8.913-2.852,13.389
			c-0.772,3.893-3.28,5.335-6.911,4.674c-7.84-1.428-15.664-2.959-23.45-4.652C812.205,718.402,804.312,716.43,795.813,714.427z"/>
		<path fill-rule="evenodd" clip-rule="evenodd" fill="#FFFFFF" d="M774.209,581.674c-9.401,40.383-18.802,80.756-28.346,121.75
			c-14.148-3.277-27.668-6.461-41.217-9.515c-3.825-0.861-2.857-3.367-2.329-5.776c4.661-21.263,9.342-42.521,14.021-63.78
			c2.894-13.145,5.7-26.311,8.82-39.401c0.372-1.558,2.46-3.839,3.785-3.861c14.466-0.251,28.938-0.122,43.408-0.068
			C772.81,581.023,773.265,581.331,774.209,581.674z"/>
		<path fill-rule="evenodd" clip-rule="evenodd" fill="#FFFFFF" d="M596.15,672.932c6.459-27.69,12.841-55.049,19.224-82.407
			c1.17-5.015,2.433-10.01,3.485-15.049c0.748-3.579,2.88-4.571,6.177-3.833c8.111,1.814,16.201,3.73,24.338,5.418
			c2.992,0.621,3.624,2.076,3.155,4.925c-4.65,28.247-9.115,56.524-13.823,84.761c-1.89,11.333-2.1,11.266-13.405,9.105
			c-7.107-1.358-14.211-2.775-21.369-3.804C601.637,671.719,599.175,672.551,596.15,672.932z"/>
		<path fill-rule="evenodd" clip-rule="evenodd" fill="#FFFFFF" d="M513.446,824.355c-1.532,2.755-2.321,4.757-3.634,6.317
			c-0.814,0.967-2.426,1.263-3.68,1.859c-0.478-1.429-1.395-2.885-1.309-4.279c0.081-1.332,0.928-3.36,1.933-3.728
			C508.452,823.905,510.538,824.355,513.446,824.355z"/>
	</g>
</g>
</svg>
