<?xml version="1.0" encoding="utf-8"?>
<!-- Generator: Adobe Illustrator 16.0.3, SVG Export Plug-In . SVG Version: 6.00 Build 0)  -->
<!DOCTYPE svg PUBLIC "-//W3C//DTD SVG 1.1//EN" "http://www.w3.org/Graphics/SVG/1.1/DTD/svg11.dtd">
<svg version="1.1" id="TAXES_final_xA0_Image_1_" xmlns="http://www.w3.org/2000/svg" xmlns:xlink="http://www.w3.org/1999/xlink"
	 x="0px" y="0px" width="1200px" height="1200px" viewBox="0 0 1200 1200" enable-background="new 0 0 1200 1200"
	 xml:space="preserve">
<g>
	<g>
		<path fill-rule="evenodd" clip-rule="evenodd" d="M1,1c400,0,800,0,1200,0c0,400,0,800,0,1200c-400,0-800,0-1200,0
			C1,801,1,401,1,1z M601.539,1170.543c163.988,0,327.977-0.056,491.966,0.059c24.989,0.018,44.72-10.159,60.026-29.354
			c16.126-20.22,22.475-43.718,22.469-69.282c-0.035-169.488-0.018-338.978-0.018-508.466
			c-0.001-142.657-0.024-285.313,0.026-427.971c0.007-19.306-3.579-37.77-13.018-54.681c-14.872-26.649-36.453-43.663-68.232-43.673
			c-328.645-0.102-657.288-0.066-985.932-0.055c-22.709,0-41.318,9.147-56.047,26.102c-18.095,20.829-25.131,45.549-25.126,72.79
			c0.056,311.979,0.039,623.957,0.022,935.936c0,12.551,1.442,24.841,5.225,36.872c12.792,40.676,41.242,61.723,83.672,61.723
			C278.228,1170.543,439.883,1170.543,601.539,1170.543z"/>
		<path fill-rule="evenodd" clip-rule="evenodd" fill="#FFFFFF" d="M601.539,1170.543c-161.656,0-323.312,0-484.967,0
			c-42.43,0-70.879-21.047-83.672-61.723c-3.783-12.031-5.226-24.321-5.225-36.872c0.017-311.979,0.034-623.957-0.022-935.936
			c-0.005-27.241,7.031-51.961,25.126-72.79c14.729-16.954,33.338-26.102,56.047-26.102c328.644-0.012,657.288-0.047,985.932,0.055
			c31.779,0.01,53.36,17.023,68.232,43.673c9.438,16.911,13.024,35.375,13.018,54.681c-0.051,142.657-0.027,285.313-0.026,427.971
			c0,169.488-0.018,338.978,0.018,508.466c0.006,25.564-6.343,49.063-22.469,69.282c-15.307,19.194-35.037,29.371-60.026,29.354
			C929.516,1170.487,765.527,1170.543,601.539,1170.543z M598.773,531.262c1.806-0.553,3.086-0.873,4.313-1.332
			c13.385-4.997,27.266-8.98,40.058-15.202c67.163-32.667,92.717-109.837,58.175-174.602
			c-14.874-27.887-38.455-46.444-66.268-60.069c-35.594-17.438-73.819-23.563-112.925-23.822
			c-79.658-0.53-159.323-0.207-238.985-0.223c-1.124,0-2.248,0.159-3.549,0.258c0,184.97,0,369.68,0,554.459
			c52.777,0,105.202,0,158.273,0c0-88.969,0-177.669,0-266.555c12.284,0,23.953-0.536,35.558,0.104
			c30.001,1.657,51.388,17.593,60.352,46.269c3.878,12.404,6.264,25.652,6.865,38.631c1.519,32.782,1.436,65.635,2.387,98.448
			c0.78,26.923,4.633,53.363,14.192,78.762c1.285,3.414,2.859,4.732,6.745,4.721c53.996-0.16,107.994-0.106,161.991-0.117
			c1.411,0,2.821-0.13,4.12-0.193c-3.451-6.972-7.236-13.44-9.965-20.329c-12.096-30.531-15.513-62.829-19.113-95.119
			c-2.599-23.309-5.689-46.571-9.035-69.787c-5.34-37.041-25.195-63.383-59.351-78.854c-1.211-0.548-2.353-1.249-3.564-1.797
			C619.212,540.464,609.367,536.035,598.773,531.262z M957.102,291.237c20.753,1.436,40.227,4.467,58.667,12.407
			c14.667,6.314,27.338,15.266,36.562,28.5c14.711,21.109,17.521,44.912,14.976,69.709c-0.771,7.517-2.66,14.918-4.106,22.751
			c1.065-0.172,1.845-0.267,2.612-0.425c22.812-4.689,45.607-9.456,68.448-13.996c3.203-0.637,3.116-2.528,2.889-4.686
			c-1.678-15.863-2.147-31.987-5.411-47.523c-7.73-36.8-26.756-66.428-59.603-86.105c-26.929-16.131-56.702-22.482-87.543-24.895
			c-9.059-0.709-18.151-0.975-27.671-1.467c0-15.995,0-31.579,0-47.09c-9.688,0-18.893,0-28.372,0
			c0,15.406-0.116,30.398,0.083,45.385c0.049,3.693-1.156,4.826-4.751,5.124c-20.472,1.696-40.55,5.563-60.025,12.148
			c-42.517,14.375-75.085,40.139-91.558,82.966c-14.095,36.645-16.53,74.642-8.643,112.993c8.304,40.37,31.413,71.438,63.469,96.341
			c29.006,22.534,61.88,37.655,96.362,49.548c3.699,1.276,5.185,2.728,5.172,6.897c-0.164,53.661-0.105,107.323-0.122,160.985
			c-0.001,1.736-0.206,3.474-0.416,6.806c-13.737-3.036-26.954-4.969-39.533-8.93c-32.743-10.311-53.888-32.027-61.358-66.061
			c-4.614-21.017-3.495-42.053,0.392-63.027c1.623-8.757,3.545-17.458,5.432-26.679c-1.407,0.278-2.344,0.422-3.258,0.651
			c-22.102,5.548-44.163,11.264-66.331,16.533c-4.642,1.104-5.982,3.455-6.427,7.686c-1.827,17.423-3.153,34.815-1.176,52.344
			c3.8,33.68,17.275,62.34,43.479,84.378c25.961,21.835,56.866,32.76,89.479,39.536c12.979,2.696,26.141,4.51,39.766,6.817
			c0,20.479,0,41.064,0,61.801c9.77,0,18.989,0,28.718,0c0-20.91,0-41.485,0-62.652c4.305,0,8.132,0.295,11.9-0.051
			c16.721-1.534,33.708-1.851,50.083-5.162c51.495-10.415,92.114-37.466,119.309-82.966c17.185-28.753,22.679-60.534,21.403-93.627
			c-1.684-43.697-16.648-81.853-47.942-113.035c-18.392-18.327-39.656-32.659-63.298-43.034
			c-28.78-12.631-58.026-24.204-87.15-36.04c-3.504-1.424-4.606-3.166-4.596-6.908c0.136-47.495,0.09-94.991,0.09-142.486
			C957.102,295.072,957.102,293.446,957.102,291.237z M67.203,256.168c0,185.176,0,369.856,0,554.5c52.779,0,105.177,0,157.529,0
			c0-185.017,0-369.701,0-554.5C172.087,256.168,119.812,256.168,67.203,256.168z"/>
		<path fill-rule="evenodd" clip-rule="evenodd" d="M598.773,531.262c10.594,4.773,20.438,9.202,30.274,13.65
			c1.212,0.548,2.354,1.249,3.564,1.797c34.155,15.471,54.011,41.813,59.351,78.854c3.346,23.216,6.437,46.479,9.035,69.787
			c3.601,32.29,7.018,64.588,19.113,95.119c2.729,6.889,6.514,13.357,9.965,20.329c-1.299,0.063-2.709,0.193-4.12,0.193
			c-53.997,0.011-107.995-0.043-161.991,0.117c-3.886,0.012-5.46-1.307-6.745-4.721c-9.56-25.398-13.412-51.839-14.192-78.762
			c-0.951-32.813-0.868-65.666-2.387-98.448c-0.602-12.979-2.987-26.227-6.865-38.631c-8.964-28.676-30.351-44.611-60.352-46.269
			c-11.604-0.641-23.273-0.104-35.558-0.104c0,88.886,0,177.586,0,266.555c-53.071,0-105.496,0-158.273,0
			c0-184.779,0-369.489,0-554.459c1.301-0.099,2.425-0.258,3.549-0.258c79.662,0.016,159.327-0.308,238.985,0.223
			c39.105,0.26,77.331,6.385,112.925,23.822c27.813,13.625,51.394,32.183,66.268,60.069c34.542,64.765,8.988,141.935-58.175,174.602
			c-12.792,6.222-26.673,10.205-40.058,15.202C601.859,530.389,600.579,530.709,598.773,531.262z M438.035,498.505
			c17.225-0.552,34.232-0.234,51.061-1.816c34.076-3.203,57.432-23.134,66.207-56.079c6.768-25.41,6.685-51.115-0.083-76.553
			c-7.887-29.643-27.12-47.659-57.128-54.264c-19.617-4.317-39.476-2.384-59.254-2.614c-0.262-0.003-0.528,0.368-0.803,0.567
			C438.035,371.001,438.035,434.256,438.035,498.505z"/>
		<path fill-rule="evenodd" clip-rule="evenodd" d="M957.102,291.237c0,2.209,0,3.835,0,5.462c0,47.495,0.046,94.991-0.09,142.486
			c-0.011,3.742,1.092,5.484,4.596,6.908c29.124,11.836,58.37,23.409,87.15,36.04c23.642,10.375,44.906,24.707,63.298,43.034
			c31.294,31.183,46.259,69.338,47.942,113.035c1.275,33.093-4.219,64.874-21.403,93.627c-27.194,45.5-67.813,72.551-119.309,82.966
			c-16.375,3.312-33.362,3.628-50.083,5.162c-3.769,0.346-7.596,0.051-11.9,0.051c0,21.167,0,41.742,0,62.652
			c-9.729,0-18.948,0-28.718,0c0-20.736,0-41.321,0-61.801c-13.625-2.308-26.787-4.121-39.766-6.817
			c-32.613-6.776-63.519-17.701-89.479-39.536c-26.204-22.038-39.68-50.698-43.479-84.378c-1.978-17.528-0.651-34.921,1.176-52.344
			c0.444-4.23,1.785-6.582,6.427-7.686c22.168-5.27,44.229-10.985,66.331-16.533c0.914-0.229,1.851-0.373,3.258-0.651
			c-1.887,9.221-3.809,17.922-5.432,26.679c-3.887,20.975-5.006,42.011-0.392,63.027c7.471,34.033,28.615,55.75,61.358,66.061
			c12.579,3.961,25.796,5.894,39.533,8.93c0.21-3.332,0.415-5.069,0.416-6.806c0.017-53.662-0.042-107.324,0.122-160.985
			c0.013-4.17-1.473-5.621-5.172-6.897c-34.482-11.893-67.356-27.014-96.362-49.548c-32.056-24.903-55.165-55.971-63.469-96.341
			c-7.888-38.352-5.452-76.349,8.643-112.993c16.473-42.827,49.041-68.591,91.558-82.966c19.476-6.585,39.554-10.452,60.025-12.148
			c3.595-0.298,4.8-1.431,4.751-5.124c-0.199-14.986-0.083-29.979-0.083-45.385c9.479,0,18.684,0,28.372,0
			c0,15.511,0,31.095,0,47.09c9.52,0.492,18.612,0.758,27.671,1.467c30.841,2.412,60.614,8.764,87.543,24.895
			c32.847,19.678,51.872,49.306,59.603,86.105c3.264,15.536,3.733,31.66,5.411,47.523c0.228,2.157,0.314,4.049-2.889,4.686
			c-22.841,4.54-45.637,9.307-68.448,13.996c-0.768,0.158-1.547,0.253-2.612,0.425c1.446-7.833,3.335-15.234,4.106-22.751
			c2.545-24.797-0.265-48.6-14.976-69.709c-9.224-13.234-21.895-22.186-36.562-28.5
			C997.328,295.704,977.854,292.673,957.102,291.237z M957.325,776.303c12.771-1.654,24.534-4.924,35.825-9.985
			c35.484-15.906,45.05-48.244,40.189-79.333c-2.003-12.813-7.914-23.935-16.446-33.626c-16.068-18.249-36.96-28.803-59.568-37.593
			C957.325,669.464,957.325,722.502,957.325,776.303z M928.55,433.262c0-2.478,0-4.369,0-6.26c0-39.632,0-79.265,0-118.896
			c0-15.942-0.015-16.144-16.247-14.898c-17.474,1.341-32.885,7.066-42.968,22.555c-17.079,26.234-13.157,64.546,8.866,86.661
			C892.213,416.494,909.465,425.346,928.55,433.262z"/>
		<path fill-rule="evenodd" clip-rule="evenodd" d="M67.203,256.168c52.609,0,104.884,0,157.529,0c0,184.799,0,369.483,0,554.5
			c-52.352,0-104.75,0-157.529,0C67.203,626.024,67.203,441.344,67.203,256.168z"/>
		<path fill-rule="evenodd" clip-rule="evenodd" fill="#FFFFFF" d="M438.035,498.505c0-64.249,0-127.504,0.005-190.761
			c0.27-0.197,0.536-0.568,0.798-0.565c19.778,0.23,39.637-1.703,59.254,2.614c30.008,6.604,49.241,24.621,57.128,54.264
			c6.768,25.438,6.851,51.143,0.083,76.553c-8.775,32.945-32.131,52.876-66.207,56.079
			C472.268,498.271,455.26,497.953,438.035,498.505z"/>
		<path fill-rule="evenodd" clip-rule="evenodd" fill="#FFFFFF" d="M957.325,776.303c0-53.801,0-106.839,0-160.537
			c22.608,8.79,43.5,19.344,59.568,37.593c8.532,9.691,14.443,20.813,16.446,33.626c4.86,31.089-4.705,63.427-40.189,79.333
			C981.859,771.379,970.096,774.648,957.325,776.303z"/>
		<path fill-rule="evenodd" clip-rule="evenodd" fill="#FFFFFF" d="M928.55,433.262c-19.085-7.916-36.337-16.768-50.349-30.839
			c-22.023-22.115-25.945-60.427-8.866-86.661c10.083-15.488,25.494-21.214,42.968-22.555c16.232-1.245,16.247-1.044,16.247,14.898
			c0,39.632,0,79.265,0,118.896C928.55,428.893,928.55,430.784,928.55,433.262z"/>
	</g>
</g>
</svg>
